<?xml version="1.0" encoding="UTF-8" standalone="no"?><svg xmlns="http://www.w3.org/2000/svg" xmlns:xlink="http://www.w3.org/1999/xlink" contentScriptType="application/ecmascript" contentStyleType="text/css" height="1002px" preserveAspectRatio="none" style="width:1152px;height:1002px;" version="1.1" viewBox="0 0 1152 1002" width="1152px" zoomAndPan="magnify"><defs><filter height="300%" id="fywoyrl5dx3zm" width="300%" x="-1" y="-1"><feGaussianBlur result="blurOut" stdDeviation="2.0"/><feColorMatrix in="blurOut" result="blurOut2" type="matrix" values="0 0 0 0 0 0 0 0 0 0 0 0 0 0 0 0 0 0 .4 0"/><feOffset dx="4.0" dy="4.0" in="blurOut2" result="blurOut3"/><feBlend in="SourceGraphic" in2="blurOut3" mode="normal"/></filter></defs><g><!--MD5=[232c485b1f52e07d9ce0910f7499e2a6]
cluster Arkivstruktur--><polygon fill="#FFFFFF" filter="url(#fywoyrl5dx3zm)" points="29,24,130,24,137,49.0679,639,49.0679,639,882,29,882,29,24" style="stroke: #000000; stroke-width: 1.5;"/><line style="stroke: #000000; stroke-width: 1.5;" x1="29" x2="137" y1="49.0679" y2="49.0679"/><text fill="#000000" font-family="sans-serif" font-size="14" font-weight="bold" lengthAdjust="spacingAndGlyphs" textLength="95" x="33" y="40.9659">Arkivstruktur</text><!--MD5=[069ea117d8bb01159729074d99b1e334]
cluster Sakarkiv--><polygon fill="#FFFFFF" filter="url(#fywoyrl5dx3zm)" points="715,564,781,564,788,589.0679,1130,589.0679,1130,990,715,990,715,564" style="stroke: #000000; stroke-width: 1.5;"/><line style="stroke: #000000; stroke-width: 1.5;" x1="715" x2="788" y1="589.0679" y2="589.0679"/><text fill="#000000" font-family="sans-serif" font-size="14" font-weight="bold" lengthAdjust="spacingAndGlyphs" textLength="60" x="719" y="580.9659">Sakarkiv</text><!--MD5=[eda94d7323bcebfbdddd0a5056cad0ff]
class Arkivstruktur.Arkiv--><rect fill="#FEFECE" filter="url(#fywoyrl5dx3zm)" height="48" id="Arkivstruktur.Arkiv" style="stroke: #A80036; stroke-width: 1.5;" width="121" x="311.5" y="62"/><ellipse cx="326.5" cy="78" fill="#ADD1B2" rx="11" ry="11" style="stroke: #A80036; stroke-width: 1.0;"/><path d="M325.9688,84.9219 Q324.2188,84.9219 323.0781,84.1875 Q321.9531,83.4375 321.3906,82.0938 Q320.8438,80.7344 320.8438,78.9375 Q320.8438,76.9063 321.5,75.4531 Q322.1563,74 323.4375,73.2188 Q324.7188,72.4375 326.5938,72.4375 Q327.4844,72.4375 328.1563,72.625 Q328.8281,72.7969 329.5156,73.1406 L328.7031,75.1563 Q328.0781,74.8438 327.5313,74.7188 Q327,74.5938 326.5156,74.5938 Q325.3438,74.5938 324.6406,75.125 Q323.9375,75.6563 323.6406,76.6094 Q323.3438,77.5625 323.3438,78.8281 Q323.3438,80.8438 324.0625,81.8125 Q324.7813,82.7656 326.375,82.7656 Q326.9688,82.7656 327.5938,82.6094 Q328.2188,82.4531 329.0469,82.0781 L329.0469,84.2969 Q328.3125,84.6094 327.5156,84.7656 Q326.7344,84.9219 325.9688,84.9219 Z "/><text fill="#000000" font-family="sans-serif" font-size="12" lengthAdjust="spacingAndGlyphs" textLength="28" x="340.5" y="82.656">Arkiv</text><rect fill="#FFFFFF" height="18.3441" style="stroke: #000000; stroke-width: 1.0; stroke-dasharray: 2.0,2.0;" width="59" x="376.5" y="59"/><text fill="#000000" font-family="sans-serif" font-size="12" font-style="italic" lengthAdjust="spacingAndGlyphs" textLength="57" x="377.5" y="72.8281">Arkivenhet</text><line style="stroke: #A80036; stroke-width: 1.5;" x1="312.5" x2="431.5" y1="94" y2="94"/><line style="stroke: #A80036; stroke-width: 1.5;" x1="312.5" x2="431.5" y1="102" y2="102"/><!--MD5=[7aad5f711e1ff9ffc23e4b1d771a24c1]
class Arkivstruktur.Arkivdel--><rect fill="#FEFECE" filter="url(#fywoyrl5dx3zm)" height="48" id="Arkivstruktur.Arkivdel" style="stroke: #A80036; stroke-width: 1.5;" width="138" x="303" y="170"/><ellipse cx="318" cy="186" fill="#ADD1B2" rx="11" ry="11" style="stroke: #A80036; stroke-width: 1.0;"/><path d="M317.4688,192.9219 Q315.7188,192.9219 314.5781,192.1875 Q313.4531,191.4375 312.8906,190.0938 Q312.3438,188.7344 312.3438,186.9375 Q312.3438,184.9063 313,183.4531 Q313.6563,182 314.9375,181.2188 Q316.2188,180.4375 318.0938,180.4375 Q318.9844,180.4375 319.6563,180.625 Q320.3281,180.7969 321.0156,181.1406 L320.2031,183.1563 Q319.5781,182.8438 319.0313,182.7188 Q318.5,182.5938 318.0156,182.5938 Q316.8438,182.5938 316.1406,183.125 Q315.4375,183.6563 315.1406,184.6094 Q314.8438,185.5625 314.8438,186.8281 Q314.8438,188.8438 315.5625,189.8125 Q316.2813,190.7656 317.875,190.7656 Q318.4688,190.7656 319.0938,190.6094 Q319.7188,190.4531 320.5469,190.0781 L320.5469,192.2969 Q319.8125,192.6094 319.0156,192.7656 Q318.2344,192.9219 317.4688,192.9219 Z "/><text fill="#000000" font-family="sans-serif" font-size="12" lengthAdjust="spacingAndGlyphs" textLength="45" x="332" y="190.656">Arkivdel</text><rect fill="#FFFFFF" height="18.3441" style="stroke: #000000; stroke-width: 1.0; stroke-dasharray: 2.0,2.0;" width="59" x="385" y="167"/><text fill="#000000" font-family="sans-serif" font-size="12" font-style="italic" lengthAdjust="spacingAndGlyphs" textLength="57" x="386" y="180.8281">Arkivenhet</text><line style="stroke: #A80036; stroke-width: 1.5;" x1="304" x2="440" y1="202" y2="202"/><line style="stroke: #A80036; stroke-width: 1.5;" x1="304" x2="440" y1="210" y2="210"/><!--MD5=[644cbb5ff8138c2f81e04d7f63002f47]
class Arkivstruktur.Klassifikasjonssystem--><rect fill="#FEFECE" filter="url(#fywoyrl5dx3zm)" height="48" id="Arkivstruktur.Klassifikasjonssystem" style="stroke: #A80036; stroke-width: 1.5;" width="214" x="409" y="278"/><ellipse cx="424" cy="294" fill="#ADD1B2" rx="11" ry="11" style="stroke: #A80036; stroke-width: 1.0;"/><path d="M423.4688,300.9219 Q421.7188,300.9219 420.5781,300.1875 Q419.4531,299.4375 418.8906,298.0938 Q418.3438,296.7344 418.3438,294.9375 Q418.3438,292.9063 419,291.4531 Q419.6563,290 420.9375,289.2188 Q422.2188,288.4375 424.0938,288.4375 Q424.9844,288.4375 425.6563,288.625 Q426.3281,288.7969 427.0156,289.1406 L426.2031,291.1563 Q425.5781,290.8438 425.0313,290.7188 Q424.5,290.5938 424.0156,290.5938 Q422.8438,290.5938 422.1406,291.125 Q421.4375,291.6563 421.1406,292.6094 Q420.8438,293.5625 420.8438,294.8281 Q420.8438,296.8438 421.5625,297.8125 Q422.2813,298.7656 423.875,298.7656 Q424.4688,298.7656 425.0938,298.6094 Q425.7188,298.4531 426.5469,298.0781 L426.5469,300.2969 Q425.8125,300.6094 425.0156,300.7656 Q424.2344,300.9219 423.4688,300.9219 Z "/><text fill="#000000" font-family="sans-serif" font-size="12" lengthAdjust="spacingAndGlyphs" textLength="121" x="438" y="298.656">Klassifikasjonssystem</text><rect fill="#FFFFFF" height="18.3441" style="stroke: #000000; stroke-width: 1.0; stroke-dasharray: 2.0,2.0;" width="59" x="567" y="275"/><text fill="#000000" font-family="sans-serif" font-size="12" font-style="italic" lengthAdjust="spacingAndGlyphs" textLength="57" x="568" y="288.8281">Arkivenhet</text><line style="stroke: #A80036; stroke-width: 1.5;" x1="410" x2="622" y1="310" y2="310"/><line style="stroke: #A80036; stroke-width: 1.5;" x1="410" x2="622" y1="318" y2="318"/><!--MD5=[73df33951f5eee41985998203ae583aa]
class Arkivstruktur.Klasse--><rect fill="#FEFECE" filter="url(#fywoyrl5dx3zm)" height="48" id="Arkivstruktur.Klasse" style="stroke: #A80036; stroke-width: 1.5;" width="129" x="463.5" y="386"/><ellipse cx="478.5" cy="402" fill="#ADD1B2" rx="11" ry="11" style="stroke: #A80036; stroke-width: 1.0;"/><path d="M477.9688,408.9219 Q476.2188,408.9219 475.0781,408.1875 Q473.9531,407.4375 473.3906,406.0938 Q472.8438,404.7344 472.8438,402.9375 Q472.8438,400.9063 473.5,399.4531 Q474.1563,398 475.4375,397.2188 Q476.7188,396.4375 478.5938,396.4375 Q479.4844,396.4375 480.1563,396.625 Q480.8281,396.7969 481.5156,397.1406 L480.7031,399.1563 Q480.0781,398.8438 479.5313,398.7188 Q479,398.5938 478.5156,398.5938 Q477.3438,398.5938 476.6406,399.125 Q475.9375,399.6563 475.6406,400.6094 Q475.3438,401.5625 475.3438,402.8281 Q475.3438,404.8438 476.0625,405.8125 Q476.7813,406.7656 478.375,406.7656 Q478.9688,406.7656 479.5938,406.6094 Q480.2188,406.4531 481.0469,406.0781 L481.0469,408.2969 Q480.3125,408.6094 479.5156,408.7656 Q478.7344,408.9219 477.9688,408.9219 Z "/><text fill="#000000" font-family="sans-serif" font-size="12" lengthAdjust="spacingAndGlyphs" textLength="36" x="492.5" y="406.656">Klasse</text><rect fill="#FFFFFF" height="18.3441" style="stroke: #000000; stroke-width: 1.0; stroke-dasharray: 2.0,2.0;" width="59" x="536.5" y="383"/><text fill="#000000" font-family="sans-serif" font-size="12" font-style="italic" lengthAdjust="spacingAndGlyphs" textLength="57" x="537.5" y="396.8281">Arkivenhet</text><line style="stroke: #A80036; stroke-width: 1.5;" x1="464.5" x2="591.5" y1="418" y2="418"/><line style="stroke: #A80036; stroke-width: 1.5;" x1="464.5" x2="591.5" y1="426" y2="426"/><!--MD5=[7ac5167187dc7f1acc74fcb89e1dc205]
class Arkivstruktur.Mappe--><rect fill="#FEFECE" filter="url(#fywoyrl5dx3zm)" height="48" id="Arkivstruktur.Mappe" style="stroke: #A80036; stroke-width: 1.5;" width="132" x="227" y="494"/><ellipse cx="242" cy="510" fill="#ADD1B2" rx="11" ry="11" style="stroke: #A80036; stroke-width: 1.0;"/><path d="M241.4688,516.9219 Q239.7188,516.9219 238.5781,516.1875 Q237.4531,515.4375 236.8906,514.0938 Q236.3438,512.7344 236.3438,510.9375 Q236.3438,508.9063 237,507.4531 Q237.6563,506 238.9375,505.2188 Q240.2188,504.4375 242.0938,504.4375 Q242.9844,504.4375 243.6563,504.625 Q244.3281,504.7969 245.0156,505.1406 L244.2031,507.1563 Q243.5781,506.8438 243.0313,506.7188 Q242.5,506.5938 242.0156,506.5938 Q240.8438,506.5938 240.1406,507.125 Q239.4375,507.6563 239.1406,508.6094 Q238.8438,509.5625 238.8438,510.8281 Q238.8438,512.8438 239.5625,513.8125 Q240.2813,514.7656 241.875,514.7656 Q242.4688,514.7656 243.0938,514.6094 Q243.7188,514.4531 244.5469,514.0781 L244.5469,516.2969 Q243.8125,516.6094 243.0156,516.7656 Q242.2344,516.9219 241.4688,516.9219 Z "/><text fill="#000000" font-family="sans-serif" font-size="12" lengthAdjust="spacingAndGlyphs" textLength="39" x="256" y="514.656">Mappe</text><rect fill="#FFFFFF" height="18.3441" style="stroke: #000000; stroke-width: 1.0; stroke-dasharray: 2.0,2.0;" width="59" x="303" y="491"/><text fill="#000000" font-family="sans-serif" font-size="12" font-style="italic" lengthAdjust="spacingAndGlyphs" textLength="57" x="304" y="504.8281">Arkivenhet</text><line style="stroke: #A80036; stroke-width: 1.5;" x1="228" x2="358" y1="526" y2="526"/><line style="stroke: #A80036; stroke-width: 1.5;" x1="228" x2="358" y1="534" y2="534"/><!--MD5=[5eeb008ce2ba569ad4cb3c09c2ca4370]
class Arkivstruktur.Registrering--><rect fill="#FEFECE" filter="url(#fywoyrl5dx3zm)" height="48" id="Arkivstruktur.Registrering" style="stroke: #A80036; stroke-width: 1.5;" width="161" x="212.5" y="602"/><ellipse cx="227.5" cy="618" fill="#ADD1B2" rx="11" ry="11" style="stroke: #A80036; stroke-width: 1.0;"/><path d="M226.9688,624.9219 Q225.2188,624.9219 224.0781,624.1875 Q222.9531,623.4375 222.3906,622.0938 Q221.8438,620.7344 221.8438,618.9375 Q221.8438,616.9063 222.5,615.4531 Q223.1563,614 224.4375,613.2188 Q225.7188,612.4375 227.5938,612.4375 Q228.4844,612.4375 229.1563,612.625 Q229.8281,612.7969 230.5156,613.1406 L229.7031,615.1563 Q229.0781,614.8438 228.5313,614.7188 Q228,614.5938 227.5156,614.5938 Q226.3438,614.5938 225.6406,615.125 Q224.9375,615.6563 224.6406,616.6094 Q224.3438,617.5625 224.3438,618.8281 Q224.3438,620.8438 225.0625,621.8125 Q225.7813,622.7656 227.375,622.7656 Q227.9688,622.7656 228.5938,622.6094 Q229.2188,622.4531 230.0469,622.0781 L230.0469,624.2969 Q229.3125,624.6094 228.5156,624.7656 Q227.7344,624.9219 226.9688,624.9219 Z "/><text fill="#000000" font-family="sans-serif" font-size="12" lengthAdjust="spacingAndGlyphs" textLength="68" x="241.5" y="622.656">Registrering</text><rect fill="#FFFFFF" height="18.3441" style="stroke: #000000; stroke-width: 1.0; stroke-dasharray: 2.0,2.0;" width="59" x="317.5" y="599"/><text fill="#000000" font-family="sans-serif" font-size="12" font-style="italic" lengthAdjust="spacingAndGlyphs" textLength="57" x="318.5" y="612.8281">Arkivenhet</text><line style="stroke: #A80036; stroke-width: 1.5;" x1="213.5" x2="372.5" y1="634" y2="634"/><line style="stroke: #A80036; stroke-width: 1.5;" x1="213.5" x2="372.5" y1="642" y2="642"/><!--MD5=[92ed2197edf38a39acf5ab443fdd08de]
class Arkivstruktur.Dokumentbeskrivelse--><rect fill="#FEFECE" filter="url(#fywoyrl5dx3zm)" height="48" id="Arkivstruktur.Dokumentbeskrivelse" style="stroke: #A80036; stroke-width: 1.5;" width="214" x="45" y="710"/><ellipse cx="60" cy="726" fill="#ADD1B2" rx="11" ry="11" style="stroke: #A80036; stroke-width: 1.0;"/><path d="M59.4688,732.9219 Q57.7188,732.9219 56.5781,732.1875 Q55.4531,731.4375 54.8906,730.0938 Q54.3438,728.7344 54.3438,726.9375 Q54.3438,724.9063 55,723.4531 Q55.6563,722 56.9375,721.2188 Q58.2188,720.4375 60.0938,720.4375 Q60.9844,720.4375 61.6563,720.625 Q62.3281,720.7969 63.0156,721.1406 L62.2031,723.1563 Q61.5781,722.8438 61.0313,722.7188 Q60.5,722.5938 60.0156,722.5938 Q58.8438,722.5938 58.1406,723.125 Q57.4375,723.6563 57.1406,724.6094 Q56.8438,725.5625 56.8438,726.8281 Q56.8438,728.8438 57.5625,729.8125 Q58.2813,730.7656 59.875,730.7656 Q60.4688,730.7656 61.0938,730.6094 Q61.7188,730.4531 62.5469,730.0781 L62.5469,732.2969 Q61.8125,732.6094 61.0156,732.7656 Q60.2344,732.9219 59.4688,732.9219 Z "/><text fill="#000000" font-family="sans-serif" font-size="12" lengthAdjust="spacingAndGlyphs" textLength="121" x="74" y="730.656">Dokumentbeskrivelse</text><rect fill="#FFFFFF" height="18.3441" style="stroke: #000000; stroke-width: 1.0; stroke-dasharray: 2.0,2.0;" width="59" x="203" y="707"/><text fill="#000000" font-family="sans-serif" font-size="12" font-style="italic" lengthAdjust="spacingAndGlyphs" textLength="57" x="204" y="720.8281">Arkivenhet</text><line style="stroke: #A80036; stroke-width: 1.5;" x1="46" x2="258" y1="742" y2="742"/><line style="stroke: #A80036; stroke-width: 1.5;" x1="46" x2="258" y1="750" y2="750"/><!--MD5=[29d823b28f6505dc34d33e3bc54abc2a]
class Arkivstruktur.Dokumentobjekt--><rect fill="#FEFECE" filter="url(#fywoyrl5dx3zm)" height="48" id="Arkivstruktur.Dokumentobjekt" style="stroke: #A80036; stroke-width: 1.5;" width="124" x="90" y="818"/><ellipse cx="105" cy="834" fill="#ADD1B2" rx="11" ry="11" style="stroke: #A80036; stroke-width: 1.0;"/><path d="M104.4688,840.9219 Q102.7188,840.9219 101.5781,840.1875 Q100.4531,839.4375 99.8906,838.0938 Q99.3438,836.7344 99.3438,834.9375 Q99.3438,832.9063 100,831.4531 Q100.6563,830 101.9375,829.2188 Q103.2188,828.4375 105.0938,828.4375 Q105.9844,828.4375 106.6563,828.625 Q107.3281,828.7969 108.0156,829.1406 L107.2031,831.1563 Q106.5781,830.8438 106.0313,830.7188 Q105.5,830.5938 105.0156,830.5938 Q103.8438,830.5938 103.1406,831.125 Q102.4375,831.6563 102.1406,832.6094 Q101.8438,833.5625 101.8438,834.8281 Q101.8438,836.8438 102.5625,837.8125 Q103.2813,838.7656 104.875,838.7656 Q105.4688,838.7656 106.0938,838.6094 Q106.7188,838.4531 107.5469,838.0781 L107.5469,840.2969 Q106.8125,840.6094 106.0156,840.7656 Q105.2344,840.9219 104.4688,840.9219 Z "/><text fill="#000000" font-family="sans-serif" font-size="12" lengthAdjust="spacingAndGlyphs" textLength="92" x="119" y="838.656">Dokumentobjekt</text><line style="stroke: #A80036; stroke-width: 1.5;" x1="91" x2="213" y1="850" y2="850"/><line style="stroke: #A80036; stroke-width: 1.5;" x1="91" x2="213" y1="858" y2="858"/><!--MD5=[d3f949591156db6542fa63b25349ce5f]
class Sakarkiv.Saksmappe--><rect fill="#FEFECE" filter="url(#fywoyrl5dx3zm)" height="48" id="Sakarkiv.Saksmappe" style="stroke: #A80036; stroke-width: 1.5;" width="97" x="781.5" y="602"/><ellipse cx="796.5" cy="618" fill="#ADD1B2" rx="11" ry="11" style="stroke: #A80036; stroke-width: 1.0;"/><path d="M795.9688,624.9219 Q794.2188,624.9219 793.0781,624.1875 Q791.9531,623.4375 791.3906,622.0938 Q790.8438,620.7344 790.8438,618.9375 Q790.8438,616.9063 791.5,615.4531 Q792.1563,614 793.4375,613.2188 Q794.7188,612.4375 796.5938,612.4375 Q797.4844,612.4375 798.1563,612.625 Q798.8281,612.7969 799.5156,613.1406 L798.7031,615.1563 Q798.0781,614.8438 797.5313,614.7188 Q797,614.5938 796.5156,614.5938 Q795.3438,614.5938 794.6406,615.125 Q793.9375,615.6563 793.6406,616.6094 Q793.3438,617.5625 793.3438,618.8281 Q793.3438,620.8438 794.0625,621.8125 Q794.7813,622.7656 796.375,622.7656 Q796.9688,622.7656 797.5938,622.6094 Q798.2188,622.4531 799.0469,622.0781 L799.0469,624.2969 Q798.3125,624.6094 797.5156,624.7656 Q796.7344,624.9219 795.9688,624.9219 Z "/><text fill="#000000" font-family="sans-serif" font-size="12" lengthAdjust="spacingAndGlyphs" textLength="65" x="810.5" y="622.656">Saksmappe</text><line style="stroke: #A80036; stroke-width: 1.5;" x1="782.5" x2="877.5" y1="634" y2="634"/><line style="stroke: #A80036; stroke-width: 1.5;" x1="782.5" x2="877.5" y1="642" y2="642"/><!--MD5=[78c3d25fd312ed748fedda403654b48a]
class Sakarkiv.Presedens--><rect fill="#FEFECE" filter="url(#fywoyrl5dx3zm)" height="48" id="Sakarkiv.Presedens" style="stroke: #A80036; stroke-width: 1.5;" width="91" x="801.5" y="710"/><ellipse cx="816.5" cy="726" fill="#ADD1B2" rx="11" ry="11" style="stroke: #A80036; stroke-width: 1.0;"/><path d="M815.9688,732.9219 Q814.2188,732.9219 813.0781,732.1875 Q811.9531,731.4375 811.3906,730.0938 Q810.8438,728.7344 810.8438,726.9375 Q810.8438,724.9063 811.5,723.4531 Q812.1563,722 813.4375,721.2188 Q814.7188,720.4375 816.5938,720.4375 Q817.4844,720.4375 818.1563,720.625 Q818.8281,720.7969 819.5156,721.1406 L818.7031,723.1563 Q818.0781,722.8438 817.5313,722.7188 Q817,722.5938 816.5156,722.5938 Q815.3438,722.5938 814.6406,723.125 Q813.9375,723.6563 813.6406,724.6094 Q813.3438,725.5625 813.3438,726.8281 Q813.3438,728.8438 814.0625,729.8125 Q814.7813,730.7656 816.375,730.7656 Q816.9688,730.7656 817.5938,730.6094 Q818.2188,730.4531 819.0469,730.0781 L819.0469,732.2969 Q818.3125,732.6094 817.5156,732.7656 Q816.7344,732.9219 815.9688,732.9219 Z "/><text fill="#000000" font-family="sans-serif" font-size="12" lengthAdjust="spacingAndGlyphs" textLength="59" x="830.5" y="730.656">Presedens</text><line style="stroke: #A80036; stroke-width: 1.5;" x1="802.5" x2="891.5" y1="742" y2="742"/><line style="stroke: #A80036; stroke-width: 1.5;" x1="802.5" x2="891.5" y1="750" y2="750"/><!--MD5=[2f08e53298f8f090d026427c85b7c44d]
class Sakarkiv.Journalpost--><rect fill="#FEFECE" filter="url(#fywoyrl5dx3zm)" height="48" id="Sakarkiv.Journalpost" style="stroke: #A80036; stroke-width: 1.5;" width="95" x="765.5" y="818"/><ellipse cx="780.5" cy="834" fill="#ADD1B2" rx="11" ry="11" style="stroke: #A80036; stroke-width: 1.0;"/><path d="M779.9688,840.9219 Q778.2188,840.9219 777.0781,840.1875 Q775.9531,839.4375 775.3906,838.0938 Q774.8438,836.7344 774.8438,834.9375 Q774.8438,832.9063 775.5,831.4531 Q776.1563,830 777.4375,829.2188 Q778.7188,828.4375 780.5938,828.4375 Q781.4844,828.4375 782.1563,828.625 Q782.8281,828.7969 783.5156,829.1406 L782.7031,831.1563 Q782.0781,830.8438 781.5313,830.7188 Q781,830.5938 780.5156,830.5938 Q779.3438,830.5938 778.6406,831.125 Q777.9375,831.6563 777.6406,832.6094 Q777.3438,833.5625 777.3438,834.8281 Q777.3438,836.8438 778.0625,837.8125 Q778.7813,838.7656 780.375,838.7656 Q780.9688,838.7656 781.5938,838.6094 Q782.2188,838.4531 783.0469,838.0781 L783.0469,840.2969 Q782.3125,840.6094 781.5156,840.7656 Q780.7344,840.9219 779.9688,840.9219 Z "/><text fill="#000000" font-family="sans-serif" font-size="12" lengthAdjust="spacingAndGlyphs" textLength="63" x="794.5" y="838.656">Journalpost</text><line style="stroke: #A80036; stroke-width: 1.5;" x1="766.5" x2="859.5" y1="850" y2="850"/><line style="stroke: #A80036; stroke-width: 1.5;" x1="766.5" x2="859.5" y1="858" y2="858"/><!--MD5=[c6af8ee822666342b688fca195c2130c]
class Sakarkiv.Avskrivning--><rect fill="#FEFECE" filter="url(#fywoyrl5dx3zm)" height="48" id="Sakarkiv.Avskrivning" style="stroke: #A80036; stroke-width: 1.5;" width="96" x="731" y="926"/><ellipse cx="746" cy="942" fill="#ADD1B2" rx="11" ry="11" style="stroke: #A80036; stroke-width: 1.0;"/><path d="M745.4688,948.9219 Q743.7188,948.9219 742.5781,948.1875 Q741.4531,947.4375 740.8906,946.0938 Q740.3438,944.7344 740.3438,942.9375 Q740.3438,940.9063 741,939.4531 Q741.6563,938 742.9375,937.2188 Q744.2188,936.4375 746.0938,936.4375 Q746.9844,936.4375 747.6563,936.625 Q748.3281,936.7969 749.0156,937.1406 L748.2031,939.1563 Q747.5781,938.8438 747.0313,938.7188 Q746.5,938.5938 746.0156,938.5938 Q744.8438,938.5938 744.1406,939.125 Q743.4375,939.6563 743.1406,940.6094 Q742.8438,941.5625 742.8438,942.8281 Q742.8438,944.8438 743.5625,945.8125 Q744.2813,946.7656 745.875,946.7656 Q746.4688,946.7656 747.0938,946.6094 Q747.7188,946.4531 748.5469,946.0781 L748.5469,948.2969 Q747.8125,948.6094 747.0156,948.7656 Q746.2344,948.9219 745.4688,948.9219 Z "/><text fill="#000000" font-family="sans-serif" font-size="12" lengthAdjust="spacingAndGlyphs" textLength="64" x="760" y="946.656">Avskrivning</text><line style="stroke: #A80036; stroke-width: 1.5;" x1="732" x2="826" y1="958" y2="958"/><line style="stroke: #A80036; stroke-width: 1.5;" x1="732" x2="826" y1="966" y2="966"/><!--MD5=[7c92048d940987969f852eb2a77c0b2d]
class Sakarkiv.Dokumentflyt--><rect fill="#FEFECE" filter="url(#fywoyrl5dx3zm)" height="48" id="Sakarkiv.Dokumentflyt" style="stroke: #A80036; stroke-width: 1.5;" width="107" x="1007.5" y="926"/><ellipse cx="1022.5" cy="942" fill="#ADD1B2" rx="11" ry="11" style="stroke: #A80036; stroke-width: 1.0;"/><path d="M1021.9688,948.9219 Q1020.2188,948.9219 1019.0781,948.1875 Q1017.9531,947.4375 1017.3906,946.0938 Q1016.8438,944.7344 1016.8438,942.9375 Q1016.8438,940.9063 1017.5,939.4531 Q1018.1563,938 1019.4375,937.2188 Q1020.7188,936.4375 1022.5938,936.4375 Q1023.4844,936.4375 1024.1563,936.625 Q1024.8281,936.7969 1025.5156,937.1406 L1024.7031,939.1563 Q1024.0781,938.8438 1023.5313,938.7188 Q1023,938.5938 1022.5156,938.5938 Q1021.3438,938.5938 1020.6406,939.125 Q1019.9375,939.6563 1019.6406,940.6094 Q1019.3438,941.5625 1019.3438,942.8281 Q1019.3438,944.8438 1020.0625,945.8125 Q1020.7813,946.7656 1022.375,946.7656 Q1022.9688,946.7656 1023.5938,946.6094 Q1024.2188,946.4531 1025.0469,946.0781 L1025.0469,948.2969 Q1024.3125,948.6094 1023.5156,948.7656 Q1022.7344,948.9219 1021.9688,948.9219 Z "/><text fill="#000000" font-family="sans-serif" font-size="12" lengthAdjust="spacingAndGlyphs" textLength="75" x="1036.5" y="946.656">Dokumentflyt</text><line style="stroke: #A80036; stroke-width: 1.5;" x1="1008.5" x2="1113.5" y1="958" y2="958"/><line style="stroke: #A80036; stroke-width: 1.5;" x1="1008.5" x2="1113.5" y1="966" y2="966"/><!--MD5=[29d64fc64afc34b5201b2a737db2e1f6]
link Arkivstruktur.Arkiv to Arkivstruktur.Arkiv--><path d="M444.5817,70.6816 C444.5817,70.6816 612.5,65.94 612.5,86 C612.5,106.06 524.03,111.21 445.67,101.47 " fill="none" id="Arkivstruktur.Arkiv-Arkivstruktur.Arkiv" style="stroke: #A80036; stroke-width: 1.0;"/><polygon fill="#A80036" points="432.69,99.71,441.0727,104.8802,437.6449,100.3802,442.1449,96.9524,432.69,99.71" style="stroke: #A80036; stroke-width: 1.0;"/><line style="stroke: #A80036; stroke-width: 1.0;" x1="437.6449" x2="445.57" y1="100.3802" y2="101.46"/><polygon fill="#FFFFFF" points="432.69,72.29,439.172,75.4497,444.5817,70.6816,438.0997,67.5219,432.69,72.29" style="stroke: #A80036; stroke-width: 1.0;"/><text fill="#000000" font-family="sans-serif" font-size="13" lengthAdjust="spacingAndGlyphs" textLength="86" x="440.6288" y="67.5136">+overarkiv 0..1</text><text fill="#000000" font-family="sans-serif" font-size="13" lengthAdjust="spacingAndGlyphs" textLength="95" x="440.6352" y="97.0155">+underarkiv 0..*</text><!--MD5=[66dd975cb8377914d38b775c7372bfad]
link Arkivstruktur.Arkiv to Arkivstruktur.Arkivdel--><path d="M372,122 C372,122 372,145.68 372,156.36 " fill="none" id="Arkivstruktur.Arkiv-Arkivstruktur.Arkivdel" style="stroke: #A80036; stroke-width: 1.0;"/><polygon fill="#A80036" points="372,169.68,376,160.68,372,164.68,368,160.68,372,169.68" style="stroke: #A80036; stroke-width: 1.0;"/><line style="stroke: #A80036; stroke-width: 1.0;" x1="372" x2="372" y1="164.68" y2="156.68"/><polygon fill="#FFFFFF" points="372,110,368,116,372,122,376,116,372,110" style="stroke: #A80036; stroke-width: 1.0;"/><text fill="#000000" font-family="sans-serif" font-size="13" lengthAdjust="spacingAndGlyphs" textLength="46" x="320.3938" y="131.9049">+arkiv 1</text><text fill="#000000" font-family="sans-serif" font-size="13" lengthAdjust="spacingAndGlyphs" textLength="77" x="285.1344" y="158.2573">+arkivdel 0..*</text><!--MD5=[57d927562c16722c9a3c2dd11583f921]
link Arkivstruktur.Arkivdel to Arkivstruktur.Arkivdel--><path d="M453.0637,177.9835 C453.0637,177.9835 621,174.44 621,194 C621,213.56 533.91,218.95 454.35,210.17 " fill="none" id="Arkivstruktur.Arkivdel-Arkivstruktur.Arkivdel" style="stroke: #A80036; stroke-width: 1.0;"/><polygon fill="#A80036" points="441.15,208.58,449.6064,213.6286,446.114,209.1785,450.5641,205.6861,441.15,208.58" style="stroke: #A80036; stroke-width: 1.0;"/><line style="stroke: #A80036; stroke-width: 1.0;" x1="446.114" x2="454.055" y1="209.1785" y2="210.14"/><polygon fill="#FFFFFF" points="441.15,179.42,447.5857,182.673,453.0637,177.9835,446.628,174.7305,441.15,179.42" style="stroke: #A80036; stroke-width: 1.0;"/><text fill="#000000" font-family="sans-serif" font-size="13" lengthAdjust="spacingAndGlyphs" textLength="103" x="448.8791" y="174.8611">nestearkivdel 0..1</text><text fill="#000000" font-family="sans-serif" font-size="13" lengthAdjust="spacingAndGlyphs" textLength="110" x="449.1034" y="205.8891">forrigearkivdel 0..1</text><!--MD5=[faf8d25c917e13a34a054e3e41a53ec9]
link Arkivstruktur.Arkivdel to Arkivstruktur.Klassifikasjonssystem--><path d="M353.6156,227.6331 C353.6156,227.6331 389.64,258.63 415.83,272.08 " fill="none" id="Arkivstruktur.Arkivdel-Arkivstruktur.Klassifikasjonssystem" style="stroke: #A80036; stroke-width: 1.0;"/><polygon fill="#A80036" points="427.67,277.86,421.342,270.313,423.1783,275.6636,417.8277,277.4998,427.67,277.86" style="stroke: #A80036; stroke-width: 1.0;"/><line style="stroke: #A80036; stroke-width: 1.0;" x1="423.1783" x2="415.99" y1="275.6636" y2="272.16"/><polygon fill="#FFFFFF" points="346.46,218,346.8268,225.2018,353.6156,227.6331,353.2489,220.4313,346.46,218" style="stroke: #A80036; stroke-width: 1.0;"/><text fill="#000000" font-family="sans-serif" font-size="13" lengthAdjust="spacingAndGlyphs" textLength="77" x="253.8502" y="239.9049">+arkivdel 1..*</text><text fill="#000000" font-family="sans-serif" font-size="13" lengthAdjust="spacingAndGlyphs" textLength="157" x="244.0815" y="269.6113">+klassifikasjonssystem 0..1</text><!--MD5=[faf8d25c917e13a34a054e3e41a53ec9]
link Arkivstruktur.Arkivdel to Arkivstruktur.Klassifikasjonssystem--><path d="M452.164,214.5098 C452.164,214.5098 517.69,249.92 533.44,267.15 " fill="none" id="Arkivstruktur.Arkivdel-Arkivstruktur.Klassifikasjonssystem-1" style="stroke: #A80036; stroke-width: 1.0;"/><polygon fill="#A80036" points="541.5,277.93,539.3148,268.3266,538.5062,273.9254,532.9074,273.1168,541.5,277.93" style="stroke: #A80036; stroke-width: 1.0;"/><line style="stroke: #A80036; stroke-width: 1.0;" x1="538.5062" x2="533.715" y1="273.9254" y2="267.525"/><polygon fill="#FFFFFF" points="441.06,209.96,445.0954,215.9362,452.164,214.5098,448.1286,208.5335,441.06,209.96" style="stroke: #A80036; stroke-width: 1.0;"/><text fill="#000000" font-family="sans-serif" font-size="13" lengthAdjust="spacingAndGlyphs" textLength="220" x="577.9156" y="266.1687">+sekundaerklassifikasjonssystem 0..*</text><!--MD5=[8417ef12fd0c6c0adaf88fb9c070fb71]
link Arkivstruktur.Klassifikasjonssystem to Arkivstruktur.Klasse--><path d="M519.9454,337.9243 C519.9454,337.9243 522.67,361.94 523.89,372.72 " fill="none" id="Arkivstruktur.Klassifikasjonssystem-Arkivstruktur.Klasse" style="stroke: #A80036; stroke-width: 1.0;"/><polygon fill="#A80036" points="525.36,385.68,528.3257,376.2883,524.7994,380.7115,520.3761,377.1852,525.36,385.68" style="stroke: #A80036; stroke-width: 1.0;"/><line style="stroke: #A80036; stroke-width: 1.0;" x1="524.7994" x2="523.9" y1="380.7115" y2="372.76"/><polygon fill="#FFFFFF" points="518.6,326,515.2979,332.4106,519.9454,337.9243,523.2475,331.5137,518.6,326" style="stroke: #A80036; stroke-width: 1.0;"/><text fill="#000000" font-family="sans-serif" font-size="13" lengthAdjust="spacingAndGlyphs" textLength="157" x="343.0994" y="347.9049">+klassifikasjonssystem 0..1</text><text fill="#000000" font-family="sans-serif" font-size="13" lengthAdjust="spacingAndGlyphs" textLength="66" x="450.2273" y="374.2573">+klasse 0..*</text><!--MD5=[fd287b6a3f6d6778f7ec3740783eb550]
link Arkivstruktur.Klasse to Arkivstruktur.Klasse--><path d="M604.6922,394.321 C604.6922,394.321 772.5,390.19 772.5,410 C772.5,429.81 684.78,435.08 605.87,425.83 " fill="none" id="Arkivstruktur.Klasse-Arkivstruktur.Klasse" style="stroke: #A80036; stroke-width: 1.0;"/><polygon fill="#A80036" points="592.79,424.15,601.207,429.2641,597.7492,424.7871,602.2263,421.3293,592.79,424.15" style="stroke: #A80036; stroke-width: 1.0;"/><line style="stroke: #A80036; stroke-width: 1.0;" x1="597.7492" x2="605.69" y1="424.7871" y2="425.805"/><polygon fill="#FFFFFF" points="592.79,395.85,599.2508,399.0529,604.6922,394.321,598.2314,391.1181,592.79,395.85" style="stroke: #A80036; stroke-width: 1.0;"/><text fill="#000000" font-family="sans-serif" font-size="13" lengthAdjust="spacingAndGlyphs" textLength="93" x="600.6151" y="391.1793">+overklasse 0..1</text><text fill="#000000" font-family="sans-serif" font-size="13" lengthAdjust="spacingAndGlyphs" textLength="102" x="600.5696" y="421.4503">+underklasse 0..*</text><!--MD5=[6ad31a2a544e3c283a56919386d2c114]
link Arkivstruktur.Klasse to Arkivstruktur.Mappe--><path d="M466.0716,438.9348 C466.0716,438.9348 390.09,473.21 356.35,488.42 " fill="none" id="Arkivstruktur.Klasse-Arkivstruktur.Mappe" style="stroke: #A80036; stroke-width: 1.0;"/><polygon fill="#A80036" points="344.3,493.86,354.1487,493.805,348.8577,491.8038,350.8588,486.5128,344.3,493.86" style="stroke: #A80036; stroke-width: 1.0;"/><line style="stroke: #A80036; stroke-width: 1.0;" x1="348.8577" x2="356.15" y1="491.8038" y2="488.515"/><polygon fill="#FFFFFF" points="477.01,434,469.8959,432.8213,466.0716,438.9348,473.1858,440.1135,477.01,434" style="stroke: #A80036; stroke-width: 1.0;"/><text fill="#000000" font-family="sans-serif" font-size="13" lengthAdjust="spacingAndGlyphs" textLength="66" x="390.5374" y="455.9049">+klasse 0..1</text><text fill="#000000" font-family="sans-serif" font-size="13" lengthAdjust="spacingAndGlyphs" textLength="72" x="366.6706" y="482.4835">+mappe 0..*</text><!--MD5=[6097d0687047132a233d92935ace3f8b]
link Arkivstruktur.Mappe to Arkivstruktur.Mappe--><path d="M371.0355,502.217 C371.0355,502.217 539,498.27 539,518 C539,537.73 451.41,543.04 372.25,533.94 " fill="none" id="Arkivstruktur.Mappe-Arkivstruktur.Mappe" style="stroke: #A80036; stroke-width: 1.0;"/><polygon fill="#A80036" points="359.13,532.28,367.5581,537.3758,364.0906,532.9063,368.5601,529.4388,359.13,532.28" style="stroke: #A80036; stroke-width: 1.0;"/><line style="stroke: #A80036; stroke-width: 1.0;" x1="364.0906" x2="372.02" y1="532.9063" y2="533.905"/><polygon fill="#FFFFFF" points="359.13,503.72,365.5838,506.937,371.0355,502.217,364.5817,499,359.13,503.72" style="stroke: #A80036; stroke-width: 1.0;"/><text fill="#000000" font-family="sans-serif" font-size="13" lengthAdjust="spacingAndGlyphs" textLength="72" x="366.9493" y="529.6466">+mappe 0..*</text><!--MD5=[e0018cf9e229c618f5d941e2b4482152]
reverse link Arkivstruktur.Mappe to Sakarkiv.Saksmappe--><path d="M379.26,519.39 C457.81,521.61 576.41,529.64 676,556 C715.79,566.53 758.29,586.29 788.54,601.97 " fill="none" id="Arkivstruktur.Mappe&lt;-Sakarkiv.Saksmappe" style="stroke: #A80036; stroke-width: 1.0;"/><polygon fill="none" points="379.03,526.39,359.2,518.93,379.35,512.39,379.03,526.39" style="stroke: #A80036; stroke-width: 1.0;"/><!--MD5=[90bba1ef23cd550ab1e67c0246273f7a]
link Arkivstruktur.Klasse to Sakarkiv.Saksmappe--><path d="M571.44,441.78 C628.83,482.45 787.7359,595.0564 787.7359,595.0564 " fill="none" id="Arkivstruktur.Klasse-Sakarkiv.Saksmappe" style="stroke: #A80036; stroke-width: 1.0;"/><polygon fill="#FFFFFF" points="797.53,601.99,794.9442,595.2585,787.7359,595.0564,790.3217,601.7879,797.53,601.99" style="stroke: #A80036; stroke-width: 1.0;"/><polygon fill="#A80036" points="560.61,434.11,565.639,442.5781,564.689,437.0016,570.2656,436.0517,560.61,434.11" style="stroke: #A80036; stroke-width: 1.0;"/><line style="stroke: #A80036; stroke-width: 1.0;" x1="564.689" x2="571.21" y1="437.0016" y2="441.62"/><text fill="#000000" font-family="sans-serif" font-size="13" lengthAdjust="spacingAndGlyphs" textLength="0" x="650.4357" y="456.0053"/><text fill="#000000" font-family="sans-serif" font-size="13" lengthAdjust="spacingAndGlyphs" textLength="0" x="650.4357" y="473.7113"/><text fill="#000000" font-family="sans-serif" font-size="13" lengthAdjust="spacingAndGlyphs" textLength="148" x="574.9357" y="491.4173">+sekundaerklassifikasjon</text><text fill="#000000" font-family="sans-serif" font-size="13" lengthAdjust="spacingAndGlyphs" textLength="20" x="638.9357" y="509.1233">0..*</text><!--MD5=[b06f07ca829b4fead78a2f1a47f4b1ee]
link Arkivstruktur.Mappe to Arkivstruktur.Registrering--><path d="M293,554 C293,554 293,577.68 293,588.36 " fill="none" id="Arkivstruktur.Mappe-Arkivstruktur.Registrering" style="stroke: #A80036; stroke-width: 1.0;"/><polygon fill="#A80036" points="293,601.68,297,592.68,293,596.68,289,592.68,293,601.68" style="stroke: #A80036; stroke-width: 1.0;"/><line style="stroke: #A80036; stroke-width: 1.0;" x1="293" x2="293" y1="596.68" y2="588.68"/><polygon fill="#FFFFFF" points="293,542,289,548,293,554,297,548,293,542" style="stroke: #A80036; stroke-width: 1.0;"/><text fill="#000000" font-family="sans-serif" font-size="13" lengthAdjust="spacingAndGlyphs" textLength="65" x="220.0781" y="563.9049">mappe 0..1</text><text fill="#000000" font-family="sans-serif" font-size="13" lengthAdjust="spacingAndGlyphs" textLength="100" x="180.1875" y="590.2573">+registrering 0..*</text><!--MD5=[8cd06771a4065499655ff5e7f2442dfa]
link Arkivstruktur.Mappe to Arkivstruktur.Arkivdel--><path d="M291.88,480.54 C291.53,432.67 294.84,346.65 319,278 C325.09,260.69 346.059,227.8989 346.059,227.8989 " fill="none" id="Arkivstruktur.Mappe-Arkivstruktur.Arkivdel" style="stroke: #A80036; stroke-width: 1.0;"/><polygon fill="#FFFFFF" points="353.07,218.16,346.3182,220.6925,346.059,227.8989,352.8108,225.3664,353.07,218.16" style="stroke: #A80036; stroke-width: 1.0;"/><polygon fill="#A80036" points="292.08,493.83,295.9411,484.7695,292.0031,488.8306,287.942,484.8926,292.08,493.83" style="stroke: #A80036; stroke-width: 1.0;"/><line style="stroke: #A80036; stroke-width: 1.0;" x1="292.0031" x2="291.88" y1="488.8306" y2="480.83"/><text fill="#000000" font-family="sans-serif" font-size="13" lengthAdjust="spacingAndGlyphs" textLength="65" x="221.7537" y="446.6609">mappe 0..*</text><text fill="#000000" font-family="sans-serif" font-size="13" lengthAdjust="spacingAndGlyphs" textLength="0" x="255.7537" y="464.3669"/><text fill="#000000" font-family="sans-serif" font-size="13" lengthAdjust="spacingAndGlyphs" textLength="0" x="255.7537" y="482.0729"/><text fill="#000000" font-family="sans-serif" font-size="13" lengthAdjust="spacingAndGlyphs" textLength="77" x="357.5956" y="239.6913">+arkivdel 0..1</text><!--MD5=[28a2ceb9e6940c79255ac7d60562a8c2]
link Arkivstruktur.Klasse to Arkivstruktur.Registrering--><path d="M519.0033,445.6633 C519.0033,445.6633 493.22,515.54 467,542 C443.29,565.93 411.34,583.87 381.28,596.83 " fill="none" id="Arkivstruktur.Klasse-Arkivstruktur.Registrering" style="stroke: #A80036; stroke-width: 1.0;"/><polygon fill="#A80036" points="368.99,601.91,378.8353,602.1749,373.612,600.0029,375.784,594.7797,368.99,601.91" style="stroke: #A80036; stroke-width: 1.0;"/><line style="stroke: #A80036; stroke-width: 1.0;" x1="373.612" x2="381.005" y1="600.0029" y2="596.945"/><polygon fill="#FFFFFF" points="522.42,434.16,516.8772,438.7728,519.0033,445.6633,524.5461,441.0506,522.42,434.16" style="stroke: #A80036; stroke-width: 1.0;"/><text fill="#000000" font-family="sans-serif" font-size="13" lengthAdjust="spacingAndGlyphs" textLength="66" x="528.7609" y="455.6913">+klasse 0..1</text><text fill="#000000" font-family="sans-serif" font-size="13" lengthAdjust="spacingAndGlyphs" textLength="100" x="381.3921" y="595.6337">+registrering 0..*</text><!--MD5=[7229a444542d5ba4b44a9ac4e42b4ab4]
link Arkivstruktur.Registrering to Arkivstruktur.Dokumentbeskrivelse--><path d="M252.8211,657.2148 C252.8211,657.2148 211.8,688.05 193.42,701.86 " fill="none" id="Arkivstruktur.Registrering-Arkivstruktur.Dokumentbeskrivelse" style="stroke: #A80036; stroke-width: 1.0;"/><polygon fill="#A80036" points="183.02,709.68,192.6166,707.4652,187.0154,706.6738,187.8068,701.0726,183.02,709.68" style="stroke: #A80036; stroke-width: 1.0;"/><line style="stroke: #A80036; stroke-width: 1.0;" x1="187.0154" x2="193.415" y1="706.6738" y2="701.865"/><polygon fill="#FFFFFF" points="262.41,650,255.2106,650.4111,252.8211,657.2148,260.0205,656.8037,262.41,650" style="stroke: #A80036; stroke-width: 1.0;"/><text fill="#000000" font-family="sans-serif" font-size="13" lengthAdjust="spacingAndGlyphs" textLength="100" x="142.7662" y="671.9049">+registrering 1..*</text><text fill="#000000" font-family="sans-serif" font-size="13" lengthAdjust="spacingAndGlyphs" textLength="159" x="11.597" y="698.2573">+dokumentbeskrivelse 0..*</text><!--MD5=[f74dad6af1d62c9a181372cdada4ae2d]
link Arkivstruktur.Registrering to Arkivstruktur.Arkivdel--><path d="M201.16,596.39 C175.96,583.86 151.59,566.29 137,542 C126.01,523.71 131.47,514.6 137,494 C165.76,386.88 188.49,361.06 262,278 C279.67,258.03 324.1369,224.8425 324.1369,224.8425 " fill="none" id="Arkivstruktur.Registrering-Arkivstruktur.Arkivdel" style="stroke: #A80036; stroke-width: 1.0;"/><polygon fill="#FFFFFF" points="334.05,218.08,326.8393,218.1569,324.1369,224.8425,331.3476,224.7656,334.05,218.08" style="stroke: #A80036; stroke-width: 1.0;"/><polygon fill="#A80036" points="213.15,601.98,206.6785,594.5557,208.617,599.8701,203.3026,601.8086,213.15,601.98" style="stroke: #A80036; stroke-width: 1.0;"/><line style="stroke: #A80036; stroke-width: 1.0;" x1="208.617" x2="201.37" y1="599.8701" y2="596.495"/><text fill="#000000" font-family="sans-serif" font-size="13" lengthAdjust="spacingAndGlyphs" textLength="100" x="104.4257" y="614.858">+registrering 0..*</text><text fill="#000000" font-family="sans-serif" font-size="13" lengthAdjust="spacingAndGlyphs" textLength="77" x="217.8694" y="223.1427">+arkivdel 0..1</text><!--MD5=[3c1d46d3ec9a10498f4ac252d9564b36]
link Arkivstruktur.Dokumentbeskrivelse to Arkivstruktur.Dokumentobjekt--><path d="M152,770 C152,770 152,793.68 152,804.36 " fill="none" id="Arkivstruktur.Dokumentbeskrivelse-Arkivstruktur.Dokumentobjekt" style="stroke: #A80036; stroke-width: 1.0;"/><polygon fill="#A80036" points="152,817.68,156,808.68,152,812.68,148,808.68,152,817.68" style="stroke: #A80036; stroke-width: 1.0;"/><line style="stroke: #A80036; stroke-width: 1.0;" x1="152" x2="152" y1="812.68" y2="804.68"/><polygon fill="#FFFFFF" points="152,758,148,764,152,770,156,764,152,758" style="stroke: #A80036; stroke-width: 1.0;"/><text fill="#000000" font-family="sans-serif" font-size="13" lengthAdjust="spacingAndGlyphs" textLength="146" x="-11.7938" y="779.9049">+dokumentbeskrivelse 1</text><text fill="#000000" font-family="sans-serif" font-size="13" lengthAdjust="spacingAndGlyphs" textLength="131" x="4.2156" y="806.2573">+dokumentobjekt 0..*</text><!--MD5=[cfbd302bfd70298b1a7c25aed917507f]
link Sakarkiv.Saksmappe to Sakarkiv.Presedens--><path d="M835.5879,661.849 C835.5879,661.849 839.41,685.68 841.16,696.58 " fill="none" id="Sakarkiv.Saksmappe-Sakarkiv.Presedens" style="stroke: #A80036; stroke-width: 1.0;"/><polygon fill="#A80036" points="843.26,709.68,845.7845,700.1602,842.4683,704.7431,837.8855,701.4269,843.26,709.68" style="stroke: #A80036; stroke-width: 1.0;"/><line style="stroke: #A80036; stroke-width: 1.0;" x1="842.4683" x2="841.2" y1="704.7431" y2="696.84"/><polygon fill="#FFFFFF" points="833.69,650,830.6893,656.5571,835.5879,661.849,838.5886,655.2918,833.69,650" style="stroke: #A80036; stroke-width: 1.0;"/><text fill="#000000" font-family="sans-serif" font-size="13" lengthAdjust="spacingAndGlyphs" textLength="50" x="778.4957" y="671.9049">+sak 0..*</text><text fill="#000000" font-family="sans-serif" font-size="13" lengthAdjust="spacingAndGlyphs" textLength="92" x="738.5141" y="698.2573">+presedens 0..*</text><!--MD5=[639ab7f2aeb9e2ce2f438430a44a4e45]
reverse link Arkivstruktur.Registrering to Sakarkiv.Journalpost--><path d="M367.69,657.74 C476.31,702.44 674.75,784.1 765.47,821.44 " fill="none" id="Arkivstruktur.Registrering&lt;-Sakarkiv.Journalpost" style="stroke: #A80036; stroke-width: 1.0;"/><polygon fill="none" points="364.97,664.19,349.14,650.11,370.3,651.24,364.97,664.19" style="stroke: #A80036; stroke-width: 1.0;"/><!--MD5=[088e66385af5865b5febf80e04c0503c]
link Sakarkiv.Presedens to Sakarkiv.Journalpost--><path d="M835.64,770.4 C832.06,781.59 824.1478,806.2543 824.1478,806.2543 " fill="none" id="Sakarkiv.Presedens-Sakarkiv.Journalpost" style="stroke: #A80036; stroke-width: 1.0;"/><polygon fill="#FFFFFF" points="820.48,817.68,826.1225,813.1898,824.1478,806.2543,818.5053,810.7445,820.48,817.68" style="stroke: #A80036; stroke-width: 1.0;"/><polygon fill="#A80036" points="839.62,758,833.0605,765.3467,838.0917,762.7607,840.6777,767.7919,839.62,758" style="stroke: #A80036; stroke-width: 1.0;"/><line style="stroke: #A80036; stroke-width: 1.0;" x1="838.0917" x2="835.65" y1="762.7607" y2="770.38"/><text fill="#000000" font-family="sans-serif" font-size="13" lengthAdjust="spacingAndGlyphs" textLength="92" x="734.6086" y="779.9049">+presedens 0..*</text><text fill="#000000" font-family="sans-serif" font-size="13" lengthAdjust="spacingAndGlyphs" textLength="99" x="710.7124" y="806.2573">+journalpost 0..*</text><!--MD5=[3de69eabb378473b17ad160888b26a49]
link Sakarkiv.Journalpost to Sakarkiv.Avskrivning--><path d="M801.9522,877.4257 C801.9522,877.4257 794.09,901.96 790.49,913.18 " fill="none" id="Sakarkiv.Journalpost-Sakarkiv.Avskrivning" style="stroke: #A80036; stroke-width: 1.0;"/><polygon fill="#A80036" points="786.48,925.68,793.0395,918.3333,788.0083,920.9193,785.4223,915.8881,786.48,925.68" style="stroke: #A80036; stroke-width: 1.0;"/><line style="stroke: #A80036; stroke-width: 1.0;" x1="788.0083" x2="790.45" y1="920.9193" y2="913.3"/><polygon fill="#A80036" points="805.62,866,799.9775,870.4902,801.9522,877.4257,807.5947,872.9355,805.62,866" style="stroke: #A80036; stroke-width: 1.0;"/><text fill="#000000" font-family="sans-serif" font-size="13" lengthAdjust="spacingAndGlyphs" textLength="99" x="676.7124" y="914.2573">+avskrivning 0..*</text><!--MD5=[bb2e9b1eec54c040da854e0199946e11]
link Sakarkiv.Journalpost to Sakarkiv.Dokumentflyt--><path d="M871.5531,868.0291 C871.5531,868.0291 957.06,904.58 995.16,920.86 " fill="none" id="Sakarkiv.Journalpost-Sakarkiv.Dokumentflyt" style="stroke: #A80036; stroke-width: 1.0;"/><polygon fill="#A80036" points="1007.17,925.99,1000.4682,918.773,1002.5729,924.0237,997.3221,926.1284,1007.17,925.99" style="stroke: #A80036; stroke-width: 1.0;"/><line style="stroke: #A80036; stroke-width: 1.0;" x1="1002.5729" x2="995.22" y1="924.0237" y2="920.885"/><polygon fill="#A80036" points="860.52,863.31,864.4635,869.3473,871.5531,868.0291,867.6096,861.9918,860.52,863.31" style="stroke: #A80036; stroke-width: 1.0;"/><text fill="#000000" font-family="sans-serif" font-size="13" lengthAdjust="spacingAndGlyphs" textLength="112" x="887.4476" y="920.626">+dokumentflyt 0..*</text><!--MD5=[c41351636dc4e77f2534c09cc02cc59f]
@startuml
skinparam classAttributeIconSize 0
skinparam nodesep 180

class Arkivstruktur.Arkiv <Arkivenhet>
class Arkivstruktur.Arkivdel <Arkivenhet>
class Arkivstruktur.Klassifikasjonssystem <Arkivenhet>
class Arkivstruktur.Klasse <Arkivenhet>
class Arkivstruktur.Mappe <Arkivenhet>
class Arkivstruktur.Registrering <Arkivenhet>
class Arkivstruktur.Dokumentbeskrivelse <Arkivenhet>
class Sakarkiv.Saksmappe
class Sakarkiv.Presedens
class Sakarkiv.Journalpost
class Sakarkiv.Avskrivning
class Sakarkiv.Dokumentflyt

Arkivstruktur.Arkiv "+overarkiv 0..1" o-> "+underarkiv 0..*" Arkivstruktur.Arkiv
Arkivstruktur.Arkiv "+arkiv 1" o- -> "+arkivdel 0..*" Arkivstruktur.Arkivdel
Arkivstruktur.Arkivdel "nestearkivdel 0..1" o- -> "forrigearkivdel 0..1" Arkivstruktur.Arkivdel
Arkivstruktur.Arkivdel "+arkivdel 1..*" o- -> "+klassifikasjonssystem 0..1" Arkivstruktur.Klassifikasjonssystem
Arkivstruktur.Arkivdel o- -> "+sekundaerklassifikasjonssystem 0..*" Arkivstruktur.Klassifikasjonssystem
Arkivstruktur.Klassifikasjonssystem "+klassifikasjonssystem 0..1" o- -> "+klasse 0..*" Arkivstruktur.Klasse
Arkivstruktur.Klasse "+overklasse 0..1" o- -> "+underklasse 0..*" Arkivstruktur.Klasse
Arkivstruktur.Klasse "+klasse 0..1" o- -> "+mappe 0..*" Arkivstruktur.Mappe
Arkivstruktur.Mappe o- -> "+mappe 0..*" Arkivstruktur.Mappe
Arkivstruktur.Mappe <|- - Sakarkiv.Saksmappe
Arkivstruktur.Klasse "\n\n+sekundaerklassifikasjon\n0..*" <- -o Sakarkiv.Saksmappe
Arkivstruktur.Mappe "mappe 0..1" o- -> "+registrering 0..*" Arkivstruktur.Registrering
Arkivstruktur.Mappe "mappe 0..*\n\n" <- -o "+arkivdel 0..1" Arkivstruktur.Arkivdel
Arkivstruktur.Klasse "+klasse 0..1" o- -> "+registrering 0..*" Arkivstruktur.Registrering
Arkivstruktur.Registrering "+registrering 1..*" o- -> "+dokumentbeskrivelse 0..*" Arkivstruktur.Dokumentbeskrivelse
Arkivstruktur.Registrering "+registrering 0..*" <- -o "+arkivdel 0..1" Arkivstruktur.Arkivdel
Arkivstruktur.Dokumentbeskrivelse "+dokumentbeskrivelse 1" o- -> "+dokumentobjekt 0..*" Arkivstruktur.Dokumentobjekt
Sakarkiv.Saksmappe "+sak 0..*" o- -> "+presedens 0..*" Sakarkiv.Presedens
Arkivstruktur.Registrering <|- - Sakarkiv.Journalpost
Sakarkiv.Presedens "+presedens 0..*" <- -o "+journalpost 0..*" Sakarkiv.Journalpost
Sakarkiv.Journalpost *- -> "+avskrivning 0..*" Sakarkiv.Avskrivning
Sakarkiv.Journalpost *- -> "+dokumentflyt 0..*" Sakarkiv.Dokumentflyt
@enduml

PlantUML version 1.2020.02(Sun Mar 01 11:22:07 CET 2020)
(GPL source distribution)
Java Runtime: OpenJDK Runtime Environment
JVM: OpenJDK 64-Bit Server VM
Java Version: 17.0.6+10-Debian-1
Operating System: Linux
Default Encoding: UTF-8
Language: en
Country: US
--></g></svg>