<?xml version="1.0" encoding="UTF-8" standalone="no"?><svg xmlns="http://www.w3.org/2000/svg" xmlns:xlink="http://www.w3.org/1999/xlink" contentScriptType="application/ecmascript" contentStyleType="text/css" height="920px" preserveAspectRatio="none" style="width:852px;height:920px;" version="1.1" viewBox="0 0 852 920" width="852px" zoomAndPan="magnify"><defs><filter height="300%" id="f187cck5p9osdo" width="300%" x="-1" y="-1"><feGaussianBlur result="blurOut" stdDeviation="2.0"/><feColorMatrix in="blurOut" result="blurOut2" type="matrix" values="0 0 0 0 0 0 0 0 0 0 0 0 0 0 0 0 0 0 .4 0"/><feOffset dx="4.0" dy="4.0" in="blurOut2" result="blurOut3"/><feBlend in="SourceGraphic" in2="blurOut3" mode="normal"/></filter></defs><g><!--MD5=[232c485b1f52e07d9ce0910f7499e2a6]
cluster Arkivstruktur--><polygon fill="#FFFFFF" filter="url(#f187cck5p9osdo)" points="22,24,123,24,130,49.0679,830,49.0679,830,908,22,908,22,24" style="stroke: #000000; stroke-width: 1.5;"/><line style="stroke: #000000; stroke-width: 1.5;" x1="22" x2="130" y1="49.0679" y2="49.0679"/><text fill="#000000" font-family="sans-serif" font-size="14" font-weight="bold" lengthAdjust="spacingAndGlyphs" textLength="95" x="26" y="40.9659">Arkivstruktur</text><!--MD5=[5eeb008ce2ba569ad4cb3c09c2ca4370]
class Arkivstruktur.Registrering--><rect fill="#FEFECE" filter="url(#f187cck5p9osdo)" height="48" id="Arkivstruktur.Registrering" style="stroke: #A80036; stroke-width: 1.5;" width="161" x="107.5" y="62"/><ellipse cx="122.5" cy="78" fill="#ADD1B2" rx="11" ry="11" style="stroke: #A80036; stroke-width: 1.0;"/><path d="M121.9688,84.9219 Q120.2188,84.9219 119.0781,84.1875 Q117.9531,83.4375 117.3906,82.0938 Q116.8438,80.7344 116.8438,78.9375 Q116.8438,76.9063 117.5,75.4531 Q118.1563,74 119.4375,73.2188 Q120.7188,72.4375 122.5938,72.4375 Q123.4844,72.4375 124.1563,72.625 Q124.8281,72.7969 125.5156,73.1406 L124.7031,75.1563 Q124.0781,74.8438 123.5313,74.7188 Q123,74.5938 122.5156,74.5938 Q121.3438,74.5938 120.6406,75.125 Q119.9375,75.6563 119.6406,76.6094 Q119.3438,77.5625 119.3438,78.8281 Q119.3438,80.8438 120.0625,81.8125 Q120.7813,82.7656 122.375,82.7656 Q122.9688,82.7656 123.5938,82.6094 Q124.2188,82.4531 125.0469,82.0781 L125.0469,84.2969 Q124.3125,84.6094 123.5156,84.7656 Q122.7344,84.9219 121.9688,84.9219 Z "/><text fill="#000000" font-family="sans-serif" font-size="12" lengthAdjust="spacingAndGlyphs" textLength="68" x="136.5" y="82.656">Registrering</text><rect fill="#FFFFFF" height="18.3441" style="stroke: #000000; stroke-width: 1.0; stroke-dasharray: 2.0,2.0;" width="59" x="212.5" y="59"/><text fill="#000000" font-family="sans-serif" font-size="12" font-style="italic" lengthAdjust="spacingAndGlyphs" textLength="57" x="213.5" y="72.8281">Arkivenhet</text><line style="stroke: #A80036; stroke-width: 1.5;" x1="108.5" x2="267.5" y1="94" y2="94"/><line style="stroke: #A80036; stroke-width: 1.5;" x1="108.5" x2="267.5" y1="102" y2="102"/><!--MD5=[29d823b28f6505dc34d33e3bc54abc2a]
class Arkivstruktur.Dokumentobjekt--><rect fill="#FEFECE" filter="url(#f187cck5p9osdo)" height="212.8008" id="Arkivstruktur.Dokumentobjekt" style="stroke: #A80036; stroke-width: 1.5;" width="262" x="57" y="679"/><ellipse cx="107.25" cy="695" fill="#ADD1B2" rx="11" ry="11" style="stroke: #A80036; stroke-width: 1.0;"/><path d="M106.7188,701.9219 Q104.9688,701.9219 103.8281,701.1875 Q102.7031,700.4375 102.1406,699.0938 Q101.5938,697.7344 101.5938,695.9375 Q101.5938,693.9063 102.25,692.4531 Q102.9063,691 104.1875,690.2188 Q105.4688,689.4375 107.3438,689.4375 Q108.2344,689.4375 108.9063,689.625 Q109.5781,689.7969 110.2656,690.1406 L109.4531,692.1563 Q108.8281,691.8438 108.2813,691.7188 Q107.75,691.5938 107.2656,691.5938 Q106.0938,691.5938 105.3906,692.125 Q104.6875,692.6563 104.3906,693.6094 Q104.0938,694.5625 104.0938,695.8281 Q104.0938,697.8438 104.8125,698.8125 Q105.5313,699.7656 107.125,699.7656 Q107.7188,699.7656 108.3438,699.6094 Q108.9688,699.4531 109.7969,699.0781 L109.7969,701.2969 Q109.0625,701.6094 108.2656,701.7656 Q107.4844,701.9219 106.7188,701.9219 Z "/><text fill="#000000" font-family="sans-serif" font-size="12" lengthAdjust="spacingAndGlyphs" textLength="92" x="127.75" y="699.656">Dokumentobjekt</text><rect fill="#FFFFFF" height="18.3441" style="stroke: #000000; stroke-width: 1.0; stroke-dasharray: 2.0,2.0;" width="59" x="263" y="676"/><text fill="#000000" font-family="sans-serif" font-size="12" font-style="italic" lengthAdjust="spacingAndGlyphs" textLength="57" x="264" y="689.8281">Arkivenhet</text><line style="stroke: #A80036; stroke-width: 1.5;" x1="58" x2="318" y1="711" y2="711"/><text fill="#000000" font-family="sans-serif" font-size="11" lengthAdjust="spacingAndGlyphs" textLength="200" x="63" y="726.7589">+versjonsnummer : integer [0..1] [1..1]</text><text fill="#000000" font-family="sans-serif" font-size="11" lengthAdjust="spacingAndGlyphs" textLength="220" x="63" y="741.7408">+variantformat : Variantformat [0..1] [1..1]</text><text fill="#000000" font-family="sans-serif" font-size="11" lengthAdjust="spacingAndGlyphs" textLength="147" x="63" y="756.7227">+format : Format [0..1] [1..1]</text><text fill="#000000" font-family="sans-serif" font-size="11" lengthAdjust="spacingAndGlyphs" textLength="152" x="63" y="771.7046">+formatDetaljer : string [0..1]</text><text fill="#000000" font-family="sans-serif" font-size="11" lengthAdjust="spacingAndGlyphs" textLength="219" x="63" y="786.6865">+referanseDokumentfil : string [0..1] [1..1]</text><text fill="#000000" font-family="sans-serif" font-size="11" lengthAdjust="spacingAndGlyphs" textLength="111" x="63" y="801.6684">+filnavn : string [0..1]</text><text fill="#000000" font-family="sans-serif" font-size="11" lengthAdjust="spacingAndGlyphs" textLength="152" x="63" y="816.6502">+sjekksum : string [0..1] [1..1]</text><text fill="#000000" font-family="sans-serif" font-size="11" lengthAdjust="spacingAndGlyphs" textLength="158" x="63" y="831.6321">+mimeType : string [0..1] [1..1]</text><text fill="#000000" font-family="sans-serif" font-size="11" lengthAdjust="spacingAndGlyphs" textLength="204" x="63" y="846.614">+sjekksumAlgoritme : string [0..1] [1..1]</text><text fill="#000000" font-family="sans-serif" font-size="11" lengthAdjust="spacingAndGlyphs" textLength="173" x="63" y="861.5959">+filstoerrelse : integer [0..1] [1..1]</text><text fill="#000000" font-family="sans-serif" font-size="11" lengthAdjust="spacingAndGlyphs" textLength="250" x="63" y="876.5778">+elektroniskSignatur : ElektroniskSignatur [0..1]</text><line style="stroke: #A80036; stroke-width: 1.5;" x1="58" x2="318" y1="883.8008" y2="883.8008"/><!--MD5=[e3d7666df93e3e02c847c049474a14c9]
class Arkivstruktur.Merknad--><rect fill="#FEFECE" filter="url(#f187cck5p9osdo)" height="137.8913" id="Arkivstruktur.Merknad" style="stroke: #A80036; stroke-width: 1.5;" width="296" x="518" y="325.5"/><ellipse cx="636.75" cy="341.5" fill="#ADD1B2" rx="11" ry="11" style="stroke: #A80036; stroke-width: 1.0;"/><path d="M636.2188,348.4219 Q634.4688,348.4219 633.3281,347.6875 Q632.2031,346.9375 631.6406,345.5938 Q631.0938,344.2344 631.0938,342.4375 Q631.0938,340.4063 631.75,338.9531 Q632.4063,337.5 633.6875,336.7188 Q634.9688,335.9375 636.8438,335.9375 Q637.7344,335.9375 638.4063,336.125 Q639.0781,336.2969 639.7656,336.6406 L638.9531,338.6563 Q638.3281,338.3438 637.7813,338.2188 Q637.25,338.0938 636.7656,338.0938 Q635.5938,338.0938 634.8906,338.625 Q634.1875,339.1563 633.8906,340.1094 Q633.5938,341.0625 633.5938,342.3281 Q633.5938,344.3438 634.3125,345.3125 Q635.0313,346.2656 636.625,346.2656 Q637.2188,346.2656 637.8438,346.1094 Q638.4688,345.9531 639.2969,345.5781 L639.2969,347.7969 Q638.5625,348.1094 637.7656,348.2656 Q636.9844,348.4219 636.2188,348.4219 Z "/><text fill="#000000" font-family="sans-serif" font-size="12" lengthAdjust="spacingAndGlyphs" textLength="50" x="657.25" y="346.156">Merknad</text><line style="stroke: #A80036; stroke-width: 1.5;" x1="519" x2="813" y1="357.5" y2="357.5"/><text fill="#000000" font-family="sans-serif" font-size="11" lengthAdjust="spacingAndGlyphs" textLength="170" x="524" y="373.2589">+systemID : SystemID [0..1] [1..1]</text><text fill="#000000" font-family="sans-serif" font-size="11" lengthAdjust="spacingAndGlyphs" textLength="123" x="524" y="388.2408">+merknadstekst : string</text><text fill="#000000" font-family="sans-serif" font-size="11" lengthAdjust="spacingAndGlyphs" textLength="194" x="524" y="403.2227">+merknadstype : Merknadstype [0..1]</text><text fill="#000000" font-family="sans-serif" font-size="11" lengthAdjust="spacingAndGlyphs" textLength="195" x="524" y="418.2046">+merknadsdato : datetime [0..1] [1..1]</text><text fill="#000000" font-family="sans-serif" font-size="11" lengthAdjust="spacingAndGlyphs" textLength="216" x="524" y="433.1865">+merknadRegistrertAv : string [0..1] [1..1]</text><text fill="#000000" font-family="sans-serif" font-size="11" lengthAdjust="spacingAndGlyphs" textLength="284" x="524" y="448.1684">+referanseMerknadRegistrertAv : SystemID [0..1] [1..1]</text><line style="stroke: #A80036; stroke-width: 1.5;" x1="519" x2="813" y1="455.3913" y2="455.3913"/><!--MD5=[97cc30a51343b046f3c83a4bc51cb117]
class Arkivstruktur.Konvertering--><rect fill="#FEFECE" filter="url(#f187cck5p9osdo)" height="152.8732" id="Arkivstruktur.Konvertering" style="stroke: #A80036; stroke-width: 1.5;" width="234" x="499" y="709"/><ellipse cx="575.75" cy="725" fill="#ADD1B2" rx="11" ry="11" style="stroke: #A80036; stroke-width: 1.0;"/><path d="M575.2188,731.9219 Q573.4688,731.9219 572.3281,731.1875 Q571.2031,730.4375 570.6406,729.0938 Q570.0938,727.7344 570.0938,725.9375 Q570.0938,723.9063 570.75,722.4531 Q571.4063,721 572.6875,720.2188 Q573.9688,719.4375 575.8438,719.4375 Q576.7344,719.4375 577.4063,719.625 Q578.0781,719.7969 578.7656,720.1406 L577.9531,722.1563 Q577.3281,721.8438 576.7813,721.7188 Q576.25,721.5938 575.7656,721.5938 Q574.5938,721.5938 573.8906,722.125 Q573.1875,722.6563 572.8906,723.6094 Q572.5938,724.5625 572.5938,725.8281 Q572.5938,727.8438 573.3125,728.8125 Q574.0313,729.7656 575.625,729.7656 Q576.2188,729.7656 576.8438,729.6094 Q577.4688,729.4531 578.2969,729.0781 L578.2969,731.2969 Q577.5625,731.6094 576.7656,731.7656 Q575.9844,731.9219 575.2188,731.9219 Z "/><text fill="#000000" font-family="sans-serif" font-size="12" lengthAdjust="spacingAndGlyphs" textLength="72" x="596.25" y="729.656">Konvertering</text><line style="stroke: #A80036; stroke-width: 1.5;" x1="500" x2="732" y1="741" y2="741"/><text fill="#000000" font-family="sans-serif" font-size="11" lengthAdjust="spacingAndGlyphs" textLength="170" x="505" y="756.7589">+systemID : SystemID [0..1] [1..1]</text><text fill="#000000" font-family="sans-serif" font-size="11" lengthAdjust="spacingAndGlyphs" textLength="200" x="505" y="771.7408">+konvertertDato : datetime [0..1] [1..1]</text><text fill="#000000" font-family="sans-serif" font-size="11" lengthAdjust="spacingAndGlyphs" textLength="173" x="505" y="786.7227">+konvertertAv : string [0..1] [1..1]</text><text fill="#000000" font-family="sans-serif" font-size="11" lengthAdjust="spacingAndGlyphs" textLength="222" x="505" y="801.7046">+konvertertFraFormat : Format [0..1] [1..1]</text><text fill="#000000" font-family="sans-serif" font-size="11" lengthAdjust="spacingAndGlyphs" textLength="217" x="505" y="816.6865">+konvertertTilFormat : Format [0..1] [1..1]</text><text fill="#000000" font-family="sans-serif" font-size="11" lengthAdjust="spacingAndGlyphs" textLength="195" x="505" y="831.6684">+konverteringsverktoey : string [0..1]</text><text fill="#000000" font-family="sans-serif" font-size="11" lengthAdjust="spacingAndGlyphs" textLength="210" x="505" y="846.6502">+konverteringskommentar : string [0..1]</text><line style="stroke: #A80036; stroke-width: 1.5;" x1="500" x2="732" y1="853.8732" y2="853.8732"/><!--MD5=[92ed2197edf38a39acf5ab443fdd08de]
class Arkivstruktur.Dokumentbeskrivelse--><rect fill="#FEFECE" filter="url(#f187cck5p9osdo)" height="448.511" id="Arkivstruktur.Dokumentbeskrivelse" style="stroke: #A80036; stroke-width: 1.5;" width="299" x="38.5" y="170"/><ellipse cx="92.75" cy="186" fill="#ADD1B2" rx="11" ry="11" style="stroke: #A80036; stroke-width: 1.0;"/><path d="M92.2188,192.9219 Q90.4688,192.9219 89.3281,192.1875 Q88.2031,191.4375 87.6406,190.0938 Q87.0938,188.7344 87.0938,186.9375 Q87.0938,184.9063 87.75,183.4531 Q88.4063,182 89.6875,181.2188 Q90.9688,180.4375 92.8438,180.4375 Q93.7344,180.4375 94.4063,180.625 Q95.0781,180.7969 95.7656,181.1406 L94.9531,183.1563 Q94.3281,182.8438 93.7813,182.7188 Q93.25,182.5938 92.7656,182.5938 Q91.5938,182.5938 90.8906,183.125 Q90.1875,183.6563 89.8906,184.6094 Q89.5938,185.5625 89.5938,186.8281 Q89.5938,188.8438 90.3125,189.8125 Q91.0313,190.7656 92.625,190.7656 Q93.2188,190.7656 93.8438,190.6094 Q94.4688,190.4531 95.2969,190.0781 L95.2969,192.2969 Q94.5625,192.6094 93.7656,192.7656 Q92.9844,192.9219 92.2188,192.9219 Z "/><text fill="#000000" font-family="sans-serif" font-size="12" lengthAdjust="spacingAndGlyphs" textLength="121" x="113.25" y="190.656">Dokumentbeskrivelse</text><rect fill="#FFFFFF" height="18.3441" style="stroke: #000000; stroke-width: 1.0; stroke-dasharray: 2.0,2.0;" width="59" x="281.5" y="167"/><text fill="#000000" font-family="sans-serif" font-size="12" font-style="italic" lengthAdjust="spacingAndGlyphs" textLength="57" x="282.5" y="180.8281">Arkivenhet</text><line style="stroke: #A80036; stroke-width: 1.5;" x1="39.5" x2="336.5" y1="202" y2="202"/><text fill="#000000" font-family="sans-serif" font-size="11" lengthAdjust="spacingAndGlyphs" textLength="170" x="44.5" y="217.7589">+dokumenttype : Dokumenttype</text><text fill="#000000" font-family="sans-serif" font-size="11" lengthAdjust="spacingAndGlyphs" textLength="186" x="44.5" y="232.7408">+dokumentstatus : Dokumentstatus</text><text fill="#000000" font-family="sans-serif" font-size="11" lengthAdjust="spacingAndGlyphs" textLength="70" x="44.5" y="247.7227">+tittel : string</text><text fill="#000000" font-family="sans-serif" font-size="11" lengthAdjust="spacingAndGlyphs" textLength="133" x="44.5" y="262.7046">+beskrivelse : string [0..1]</text><text fill="#000000" font-family="sans-serif" font-size="11" lengthAdjust="spacingAndGlyphs" textLength="120" x="44.5" y="277.6865">+forfatter : string [0..*]</text><text fill="#000000" font-family="sans-serif" font-size="11" lengthAdjust="spacingAndGlyphs" textLength="239" x="44.5" y="292.6684">+dokumentmedium : Dokumentmedium [0..1]</text><text fill="#000000" font-family="sans-serif" font-size="11" lengthAdjust="spacingAndGlyphs" textLength="170" x="44.5" y="307.6502">+oppbevaringssted : string [0..1]</text><text fill="#000000" font-family="sans-serif" font-size="11" lengthAdjust="spacingAndGlyphs" textLength="287" x="44.5" y="322.6321">+tilknyttetRegistreringSom : TilknyttetRegistreringSom</text><text fill="#000000" font-family="sans-serif" font-size="11" lengthAdjust="spacingAndGlyphs" textLength="152" x="44.5" y="337.614">+dokumentnummer : integer</text><text fill="#000000" font-family="sans-serif" font-size="11" lengthAdjust="spacingAndGlyphs" textLength="133" x="44.5" y="352.5959">+tilknyttetDato : datetime</text><text fill="#000000" font-family="sans-serif" font-size="11" lengthAdjust="spacingAndGlyphs" textLength="135" x="44.5" y="367.5778">+tilknyttetAv : string [0..1]</text><text fill="#000000" font-family="sans-serif" font-size="11" lengthAdjust="spacingAndGlyphs" textLength="205" x="44.5" y="382.5597">+referanseTilknyttetAv : SystemID [0..1]</text><text fill="#000000" font-family="sans-serif" font-size="11" lengthAdjust="spacingAndGlyphs" textLength="145" x="44.5" y="397.5416">+kassasjon : Kassasjon [0..1]</text><text fill="#000000" font-family="sans-serif" font-size="11" lengthAdjust="spacingAndGlyphs" textLength="221" x="44.5" y="412.5235">+utfoertKassasjon : UtfoertKassasjon [0..1]</text><text fill="#000000" font-family="sans-serif" font-size="11" lengthAdjust="spacingAndGlyphs" textLength="123" x="44.5" y="427.5053">+sletting : Sletting [0..1]</text><text fill="#000000" font-family="sans-serif" font-size="11" lengthAdjust="spacingAndGlyphs" textLength="149" x="44.5" y="442.4872">+skjerming : Skjerming [0..1]</text><text fill="#000000" font-family="sans-serif" font-size="11" lengthAdjust="spacingAndGlyphs" textLength="151" x="44.5" y="457.4691">+gradering : Gradering [0..1]</text><text fill="#000000" font-family="sans-serif" font-size="11" lengthAdjust="spacingAndGlyphs" textLength="250" x="44.5" y="472.451">+elektroniskSignatur : ElektroniskSignatur [0..1]</text><text fill="#000000" font-family="sans-serif" font-size="11" lengthAdjust="spacingAndGlyphs" textLength="227" x="44.5" y="487.4329">+virksomhetsspesifikkeMetadata : any [0..1]</text><text fill="#000000" font-family="sans-serif" font-size="11" lengthAdjust="spacingAndGlyphs" textLength="141" x="44.5" y="521.3967">+systemID : SystemID [0..1]</text><text fill="#000000" font-family="sans-serif" font-size="11" lengthAdjust="spacingAndGlyphs" textLength="150" x="44.5" y="536.3786">+endretDato : datetime [0..1]</text><text fill="#000000" font-family="sans-serif" font-size="11" lengthAdjust="spacingAndGlyphs" textLength="165" x="44.5" y="551.3604">+opprettetDato : datetime [0..1]</text><text fill="#000000" font-family="sans-serif" font-size="11" lengthAdjust="spacingAndGlyphs" textLength="138" x="44.5" y="566.3423">+opprettetAv : string [0..1]</text><text fill="#000000" font-family="sans-serif" font-size="11" lengthAdjust="spacingAndGlyphs" textLength="123" x="44.5" y="581.3242">+endretAv : string [0..1]</text><text fill="#000000" font-family="sans-serif" font-size="11" lengthAdjust="spacingAndGlyphs" textLength="211" x="44.5" y="596.3061">+referanseOppdatertAv : SystemID [0..1]</text><text fill="#000000" font-family="sans-serif" font-size="11" lengthAdjust="spacingAndGlyphs" textLength="210" x="44.5" y="611.288">+referanseOppdatertav : SystemID [0..1]</text><line style="stroke: #A80036; stroke-width: 1.0;" x1="39.5" x2="159.5" y1="502.1468" y2="502.1468"/><text fill="#000000" font-family="sans-serif" font-size="11" lengthAdjust="spacingAndGlyphs" textLength="57" x="159.5" y="505.9148">Arkivenhet</text><line style="stroke: #A80036; stroke-width: 1.0;" x1="216.5" x2="336.5" y1="502.1468" y2="502.1468"/><!--MD5=[7229a444542d5ba4b44a9ac4e42b4ab4]
link Arkivstruktur.Registrering to Arkivstruktur.Dokumentbeskrivelse--><path d="M188,122.04 C188,122.04 188,144.28 188,156.68 " fill="none" id="Arkivstruktur.Registrering-Arkivstruktur.Dokumentbeskrivelse" style="stroke: #A80036; stroke-width: 1.0;"/><polygon fill="#A80036" points="188,169.97,192,160.97,188,164.97,184,160.97,188,169.97" style="stroke: #A80036; stroke-width: 1.0;"/><line style="stroke: #A80036; stroke-width: 1.0;" x1="188" x2="188" y1="164.97" y2="156.97"/><polygon fill="#FFFFFF" points="188,110.04,184,116.04,188,122.04,192,116.04,188,110.04" style="stroke: #A80036; stroke-width: 1.0;"/><text fill="#000000" font-family="sans-serif" font-size="13" lengthAdjust="spacingAndGlyphs" textLength="100" x="75.8125" y="131.9547">+registrering 1..*</text><text fill="#000000" font-family="sans-serif" font-size="13" lengthAdjust="spacingAndGlyphs" textLength="159" x="26.143" y="158.514">+dokumentbeskrivelse 0..*</text><!--MD5=[23332ee248e7ca6640d889331c66c548]
link Arkivstruktur.Dokumentbeskrivelse to Arkivstruktur.Merknad--><path d="M349.84,394.5 C349.84,394.5 453.55,394.5 504.89,394.5 " fill="none" id="Arkivstruktur.Dokumentbeskrivelse-Arkivstruktur.Merknad" style="stroke: #A80036; stroke-width: 1.0;"/><polygon fill="#A80036" points="517.94,394.5,508.94,390.5,512.94,394.5,508.94,398.5,517.94,394.5" style="stroke: #A80036; stroke-width: 1.0;"/><line style="stroke: #A80036; stroke-width: 1.0;" x1="512.94" x2="504.94" y1="394.5" y2="394.5"/><polygon fill="#A80036" points="337.84,394.5,343.84,398.5,349.84,394.5,343.84,390.5,337.84,394.5" style="stroke: #A80036; stroke-width: 1.0;"/><text fill="#000000" font-family="sans-serif" font-size="13" lengthAdjust="spacingAndGlyphs" textLength="84" x="425.9218" y="391.0556">+merknad 0..*</text><!--MD5=[3c1d46d3ec9a10498f4ac252d9564b36]
link Arkivstruktur.Dokumentbeskrivelse to Arkivstruktur.Dokumentobjekt--><path d="M188,631.25 C188,631.25 188,654.91 188,665.56 " fill="none" id="Arkivstruktur.Dokumentbeskrivelse-Arkivstruktur.Dokumentobjekt" style="stroke: #A80036; stroke-width: 1.0;"/><polygon fill="#A80036" points="188,678.84,192,669.84,188,673.84,184,669.84,188,678.84" style="stroke: #A80036; stroke-width: 1.0;"/><line style="stroke: #A80036; stroke-width: 1.0;" x1="188" x2="188" y1="673.84" y2="665.84"/><polygon fill="#FFFFFF" points="188,619.25,184,625.25,188,631.25,192,625.25,188,619.25" style="stroke: #A80036; stroke-width: 1.0;"/><text fill="#000000" font-family="sans-serif" font-size="13" lengthAdjust="spacingAndGlyphs" textLength="146" x="39.8328" y="640.0894">+dokumentbeskrivelse 1</text><text fill="#000000" font-family="sans-serif" font-size="13" lengthAdjust="spacingAndGlyphs" textLength="131" x="52.1898" y="667.3132">+dokumentobjekt 0..*</text><!--MD5=[e36f2f030815c1a7fa2f8bac3ef8a492]
link Arkivstruktur.Dokumentobjekt to Arkivstruktur.Konvertering--><path d="M331.24,785.5 C331.24,785.5 434.59,785.5 485.6,785.5 " fill="none" id="Arkivstruktur.Dokumentobjekt-Arkivstruktur.Konvertering" style="stroke: #A80036; stroke-width: 1.0;"/><polygon fill="#A80036" points="498.92,785.5,489.92,781.5,493.92,785.5,489.92,789.5,498.92,785.5" style="stroke: #A80036; stroke-width: 1.0;"/><line style="stroke: #A80036; stroke-width: 1.0;" x1="493.92" x2="485.92" y1="785.5" y2="785.5"/><polygon fill="#A80036" points="319.24,785.5,325.24,789.5,331.24,785.5,325.24,781.5,319.24,785.5" style="stroke: #A80036; stroke-width: 1.0;"/><text fill="#000000" font-family="sans-serif" font-size="13" lengthAdjust="spacingAndGlyphs" textLength="108" x="383.1679" y="782.0307">+konvertering 0..*</text><!--MD5=[d1c4761949da3985ec785feaf84b1d9c]
@startuml
skinparam classAttributeIconSize 0
skinparam nodesep 180

class Arkivstruktur.Registrering <Arkivenhet>
class Arkivstruktur.Dokumentobjekt <Arkivenhet> {
  +versjonsnummer : integer [0..1] [1..1]
  +variantformat : Variantformat [0..1] [1..1]
  +format : Format [0..1] [1..1]
  +formatDetaljer : string [0..1]
  +referanseDokumentfil : string [0..1] [1..1]
  +filnavn : string [0..1]
  +sjekksum : string [0..1] [1..1]
  +mimeType : string [0..1] [1..1]
  +sjekksumAlgoritme : string [0..1] [1..1]
  +filstoerrelse : integer [0..1] [1..1]
  +elektroniskSignatur : ElektroniskSignatur [0..1]
}
class Arkivstruktur.Merknad {
  +systemID : SystemID [0..1] [1..1]
  +merknadstekst : string
  +merknadstype : Merknadstype [0..1]
  +merknadsdato : datetime [0..1] [1..1]
  +merknadRegistrertAv : string [0..1] [1..1]
  +referanseMerknadRegistrertAv : SystemID [0..1] [1..1]
}
class Arkivstruktur.Konvertering {
  +systemID : SystemID [0..1] [1..1]
  +konvertertDato : datetime [0..1] [1..1]
  +konvertertAv : string [0..1] [1..1]
  +konvertertFraFormat : Format [0..1] [1..1]
  +konvertertTilFormat : Format [0..1] [1..1]
  +konverteringsverktoey : string [0..1]
  +konverteringskommentar : string [0..1]
}

class Arkivstruktur.Dokumentbeskrivelse <Arkivenhet> {
  +dokumenttype : Dokumenttype
  +dokumentstatus : Dokumentstatus
  +tittel : string
  +beskrivelse : string [0..1]
  +forfatter : string [0..*]
  +dokumentmedium : Dokumentmedium [0..1]
  +oppbevaringssted : string [0..1]
  +tilknyttetRegistreringSom : TilknyttetRegistreringSom
  +dokumentnummer : integer
  +tilknyttetDato : datetime
  +tilknyttetAv : string [0..1]
  +referanseTilknyttetAv : SystemID [0..1]
  +kassasjon : Kassasjon [0..1]
  +utfoertKassasjon : UtfoertKassasjon [0..1]
  +sletting : Sletting [0..1]
  +skjerming : Skjerming [0..1]
  +gradering : Gradering [0..1]
  +elektroniskSignatur : ElektroniskSignatur [0..1]
  +virksomhetsspesifikkeMetadata : any [0..1]
  - - Arkivenhet - -
  +systemID : SystemID [0..1]
  +endretDato : datetime [0..1]
  +opprettetDato : datetime [0..1]
  +opprettetAv : string [0..1]
  +endretAv : string [0..1]
  +referanseOppdatertAv : SystemID [0..1]
  +referanseOppdatertav : SystemID [0..1]
}


Arkivstruktur.Registrering "+registrering 1..*" o- -> "+dokumentbeskrivelse 0..*" Arkivstruktur.Dokumentbeskrivelse
Arkivstruktur.Dokumentbeskrivelse *-> "+merknad 0..*" Arkivstruktur.Merknad
Arkivstruktur.Dokumentbeskrivelse "+dokumentbeskrivelse 1" o- -> "+dokumentobjekt 0..*" Arkivstruktur.Dokumentobjekt
Arkivstruktur.Dokumentobjekt *-> "+konvertering 0..*" Arkivstruktur.Konvertering
@enduml

PlantUML version 1.2020.02(Sun Mar 01 11:22:07 CET 2020)
(GPL source distribution)
Java Runtime: OpenJDK Runtime Environment
JVM: OpenJDK 64-Bit Server VM
Java Version: 17.0.6+10-Debian-1
Operating System: Linux
Default Encoding: UTF-8
Language: en
Country: US
--></g></svg>