<?xml version="1.0" encoding="UTF-8" standalone="no"?><svg xmlns="http://www.w3.org/2000/svg" xmlns:xlink="http://www.w3.org/1999/xlink" contentScriptType="application/ecmascript" contentStyleType="text/css" height="486px" preserveAspectRatio="none" style="width:462px;height:486px;" version="1.1" viewBox="0 0 462 486" width="462px" zoomAndPan="magnify"><defs><filter height="300%" id="f1mfrvxr56g3yv" width="300%" x="-1" y="-1"><feGaussianBlur result="blurOut" stdDeviation="2.0"/><feColorMatrix in="blurOut" result="blurOut2" type="matrix" values="0 0 0 0 0 0 0 0 0 0 0 0 0 0 0 0 0 0 .4 0"/><feOffset dx="4.0" dy="4.0" in="blurOut2" result="blurOut3"/><feBlend in="SourceGraphic" in2="blurOut3" mode="normal"/></filter></defs><g><!--MD5=[232c485b1f52e07d9ce0910f7499e2a6]
cluster Arkivstruktur--><polygon fill="#FFFFFF" filter="url(#f1mfrvxr56g3yv)" points="22,24,123,24,130,49.0679,440,49.0679,440,474,22,474,22,24" style="stroke: #000000; stroke-width: 1.5;"/><line style="stroke: #000000; stroke-width: 1.5;" x1="22" x2="130" y1="49.0679" y2="49.0679"/><text fill="#000000" font-family="sans-serif" font-size="14" font-weight="bold" lengthAdjust="spacingAndGlyphs" textLength="95" x="26" y="40.9659">Arkivstruktur</text><!--MD5=[5eeb008ce2ba569ad4cb3c09c2ca4370]
class Arkivstruktur.Registrering--><rect fill="#FEFECE" filter="url(#f1mfrvxr56g3yv)" height="287.7102" id="Arkivstruktur.Registrering" style="stroke: #A80036; stroke-width: 1.5;" width="385" x="38.5" y="62"/><ellipse cx="162.25" cy="78" fill="#ADD1B2" rx="11" ry="11" style="stroke: #A80036; stroke-width: 1.0;"/><path d="M161.7188,84.9219 Q159.9688,84.9219 158.8281,84.1875 Q157.7031,83.4375 157.1406,82.0938 Q156.5938,80.7344 156.5938,78.9375 Q156.5938,76.9063 157.25,75.4531 Q157.9063,74 159.1875,73.2188 Q160.4688,72.4375 162.3438,72.4375 Q163.2344,72.4375 163.9063,72.625 Q164.5781,72.7969 165.2656,73.1406 L164.4531,75.1563 Q163.8281,74.8438 163.2813,74.7188 Q162.75,74.5938 162.2656,74.5938 Q161.0938,74.5938 160.3906,75.125 Q159.6875,75.6563 159.3906,76.6094 Q159.0938,77.5625 159.0938,78.8281 Q159.0938,80.8438 159.8125,81.8125 Q160.5313,82.7656 162.125,82.7656 Q162.7188,82.7656 163.3438,82.6094 Q163.9688,82.4531 164.7969,82.0781 L164.7969,84.2969 Q164.0625,84.6094 163.2656,84.7656 Q162.4844,84.9219 161.7188,84.9219 Z "/><text fill="#000000" font-family="sans-serif" font-size="12" lengthAdjust="spacingAndGlyphs" textLength="68" x="182.75" y="82.656">Registrering</text><rect fill="#FFFFFF" height="18.3441" style="stroke: #000000; stroke-width: 1.0; stroke-dasharray: 2.0,2.0;" width="59" x="367.5" y="59"/><text fill="#000000" font-family="sans-serif" font-size="12" font-style="italic" lengthAdjust="spacingAndGlyphs" textLength="57" x="368.5" y="72.8281">Arkivenhet</text><line style="stroke: #A80036; stroke-width: 1.5;" x1="39.5" x2="422.5" y1="94" y2="94"/><text fill="#000000" font-family="sans-serif" font-size="11" lengthAdjust="spacingAndGlyphs" textLength="185" x="44.5" y="109.7589">+arkivertDato : datetime [0..1] [1..1]</text><text fill="#000000" font-family="sans-serif" font-size="11" lengthAdjust="spacingAndGlyphs" textLength="158" x="44.5" y="124.7408">+arkivertAv : string [0..1] [1..1]</text><text fill="#000000" font-family="sans-serif" font-size="11" lengthAdjust="spacingAndGlyphs" textLength="227" x="44.5" y="139.7227">+referanseArkivertAv : SystemID [0..1] [1..1]</text><text fill="#000000" font-family="sans-serif" font-size="11" lengthAdjust="spacingAndGlyphs" textLength="145" x="44.5" y="154.7046">+kassasjon : Kassasjon [0..1]</text><text fill="#000000" font-family="sans-serif" font-size="11" lengthAdjust="spacingAndGlyphs" textLength="149" x="44.5" y="169.6865">+skjerming : Skjerming [0..1]</text><text fill="#000000" font-family="sans-serif" font-size="11" lengthAdjust="spacingAndGlyphs" textLength="151" x="44.5" y="184.6684">+gradering : Gradering [0..1]</text><text fill="#000000" font-family="sans-serif" font-size="11" lengthAdjust="spacingAndGlyphs" textLength="215" x="44.5" y="199.6502">+referanseArkivdel : SystemID [0..1] [1..1]</text><text fill="#000000" font-family="sans-serif" font-size="11" lengthAdjust="spacingAndGlyphs" textLength="184" x="44.5" y="214.6321">+registreringsID : string [0..1] [1..1]</text><text fill="#000000" font-family="sans-serif" font-size="11" lengthAdjust="spacingAndGlyphs" textLength="70" x="44.5" y="229.614">+tittel : string</text><text fill="#000000" font-family="sans-serif" font-size="11" lengthAdjust="spacingAndGlyphs" textLength="146" x="44.5" y="244.5959">+offentligTittel : string [0..1]</text><text fill="#000000" font-family="sans-serif" font-size="11" lengthAdjust="spacingAndGlyphs" textLength="133" x="44.5" y="259.5778">+beskrivelse : string [0..1]</text><text fill="#000000" font-family="sans-serif" font-size="11" lengthAdjust="spacingAndGlyphs" textLength="135" x="44.5" y="274.5597">+noekkelord : string [0..*]</text><text fill="#000000" font-family="sans-serif" font-size="11" lengthAdjust="spacingAndGlyphs" textLength="120" x="44.5" y="289.5416">+forfatter : string [0..*]</text><text fill="#000000" font-family="sans-serif" font-size="11" lengthAdjust="spacingAndGlyphs" textLength="268" x="44.5" y="304.5235">+dokumentmedium : Dokumentmedium [0..1] [1..1]</text><text fill="#000000" font-family="sans-serif" font-size="11" lengthAdjust="spacingAndGlyphs" textLength="170" x="44.5" y="319.5053">+oppbevaringssted : string [0..*]</text><text fill="#000000" font-family="sans-serif" font-size="11" lengthAdjust="spacingAndGlyphs" textLength="373" x="44.5" y="334.4872">+virksomhetsspesifikkeMetadata : VirksomhetsspesifikkeMetadata [0..1]</text><line style="stroke: #A80036; stroke-width: 1.5;" x1="39.5" x2="422.5" y1="341.7102" y2="341.7102"/><!--MD5=[4df5b11f766642853213221570ce3455]
class Arkivstruktur.Korrespondansepart--><rect fill="#FEFECE" filter="url(#f1mfrvxr56g3yv)" height="48" id="Arkivstruktur.Korrespondansepart" style="stroke: #A80036; stroke-width: 1.5;" width="147" x="157.5" y="410"/><ellipse cx="172.5" cy="426" fill="#ADD1B2" rx="11" ry="11" style="stroke: #A80036; stroke-width: 1.0;"/><path d="M171.9688,432.9219 Q170.2188,432.9219 169.0781,432.1875 Q167.9531,431.4375 167.3906,430.0938 Q166.8438,428.7344 166.8438,426.9375 Q166.8438,424.9063 167.5,423.4531 Q168.1563,422 169.4375,421.2188 Q170.7188,420.4375 172.5938,420.4375 Q173.4844,420.4375 174.1563,420.625 Q174.8281,420.7969 175.5156,421.1406 L174.7031,423.1563 Q174.0781,422.8438 173.5313,422.7188 Q173,422.5938 172.5156,422.5938 Q171.3438,422.5938 170.6406,423.125 Q169.9375,423.6563 169.6406,424.6094 Q169.3438,425.5625 169.3438,426.8281 Q169.3438,428.8438 170.0625,429.8125 Q170.7813,430.7656 172.375,430.7656 Q172.9688,430.7656 173.5938,430.6094 Q174.2188,430.4531 175.0469,430.0781 L175.0469,432.2969 Q174.3125,432.6094 173.5156,432.7656 Q172.7344,432.9219 171.9688,432.9219 Z "/><text fill="#000000" font-family="sans-serif" font-size="12" lengthAdjust="spacingAndGlyphs" textLength="115" x="186.5" y="430.656">Korrespondansepart</text><line style="stroke: #A80036; stroke-width: 1.5;" x1="158.5" x2="303.5" y1="442" y2="442"/><line style="stroke: #A80036; stroke-width: 1.5;" x1="158.5" x2="303.5" y1="450" y2="450"/><!--MD5=[b89d42392a74688883d3b6b9c0c59da0]
link Arkivstruktur.Registrering to Arkivstruktur.Korrespondansepart--><path d="M231,362.13 C231,362.13 231,386.6 231,396.46 " fill="none" id="Arkivstruktur.Registrering-Arkivstruktur.Korrespondansepart" style="stroke: #A80036; stroke-width: 1.0;"/><polygon fill="#A80036" points="231,409.78,235,400.78,231,404.78,227,400.78,231,409.78" style="stroke: #A80036; stroke-width: 1.0;"/><line style="stroke: #A80036; stroke-width: 1.0;" x1="231" x2="231" y1="404.78" y2="396.78"/><polygon fill="#A80036" points="231,350.13,227,356.13,231,362.13,235,356.13,231,350.13" style="stroke: #A80036; stroke-width: 1.0;"/><text fill="#000000" font-family="sans-serif" font-size="13" lengthAdjust="spacingAndGlyphs" textLength="153" x="58.3969" y="398.383">+korrespondansepart 0..*</text><!--MD5=[3e7ae545817644a2f64add7208e3c454]
@startuml
skinparam classAttributeIconSize 0
class Arkivstruktur.Registrering <Arkivenhet> {
  +arkivertDato : datetime [0..1] [1..1]
  +arkivertAv : string [0..1] [1..1]
  +referanseArkivertAv : SystemID [0..1] [1..1]
  +kassasjon : Kassasjon [0..1]
  +skjerming : Skjerming [0..1]
  +gradering : Gradering [0..1]
  +referanseArkivdel : SystemID [0..1] [1..1]
  +registreringsID : string [0..1] [1..1]
  +tittel : string
  +offentligTittel : string [0..1]
  +beskrivelse : string [0..1]
  +noekkelord : string [0..*]
  +forfatter : string [0..*]
  +dokumentmedium : Dokumentmedium [0..1] [1..1]
  +oppbevaringssted : string [0..*]
  +virksomhetsspesifikkeMetadata : VirksomhetsspesifikkeMetadata [0..1]
}
Arkivstruktur.Registrering *- -> "+korrespondansepart 0..*" Arkivstruktur.Korrespondansepart
@enduml

PlantUML version 1.2020.02(Sun Mar 01 11:22:07 CET 2020)
(GPL source distribution)
Java Runtime: OpenJDK Runtime Environment
JVM: OpenJDK 64-Bit Server VM
Java Version: 17.0.6+10-Debian-1
Operating System: Linux
Default Encoding: UTF-8
Language: en
Country: US
--></g></svg>