<?xml version="1.0" encoding="UTF-8" standalone="no"?><svg xmlns="http://www.w3.org/2000/svg" xmlns:xlink="http://www.w3.org/1999/xlink" contentScriptType="application/ecmascript" contentStyleType="text/css" height="563px" preserveAspectRatio="none" style="width:839px;height:563px;" version="1.1" viewBox="0 0 839 563" width="839px" zoomAndPan="magnify"><defs><filter height="300%" id="f10t8fzm3vcowf" width="300%" x="-1" y="-1"><feGaussianBlur result="blurOut" stdDeviation="2.0"/><feColorMatrix in="blurOut" result="blurOut2" type="matrix" values="0 0 0 0 0 0 0 0 0 0 0 0 0 0 0 0 0 0 .4 0"/><feOffset dx="4.0" dy="4.0" in="blurOut2" result="blurOut3"/><feBlend in="SourceGraphic" in2="blurOut3" mode="normal"/></filter></defs><g><!--MD5=[3184fdea4783831117657b3137453a0b]
cluster GeoIntegrasjon--><polygon fill="#FFFFFF" filter="url(#f10t8fzm3vcowf)" points="22,414,135,414,142,439.0679,817,439.0679,817,551,22,551,22,414" style="stroke: #000000; stroke-width: 1.5;"/><line style="stroke: #000000; stroke-width: 1.5;" x1="22" x2="142" y1="439.0679" y2="439.0679"/><text fill="#000000" font-family="sans-serif" font-size="14" font-weight="bold" lengthAdjust="spacingAndGlyphs" textLength="107" x="26" y="430.9659">GeoIntegrasjon</text><!--MD5=[6dc04caad6465991392b6edbd3963247]
entity Felles.Geometri--><polygon fill="#FEFECE" filter="url(#f10t8fzm3vcowf)" points="38.5,474,152.5,474,159.5,499.0679,201.5,499.0679,201.5,535.1358,38.5,535.1358,38.5,474" style="stroke: #000000; stroke-width: 1.5;"/><line style="stroke: #000000; stroke-width: 1.5;" x1="38.5" x2="159.5" y1="499.0679" y2="499.0679"/><text fill="#000000" font-family="sans-serif" font-size="14" font-weight="bold" lengthAdjust="spacingAndGlyphs" textLength="108" x="42.5" y="491.9659">Felles.Geometri</text><text fill="#000000" font-family="sans-serif" font-size="14" font-style="italic" lengthAdjust="spacingAndGlyphs" textLength="133" x="48.5" y="521.0339">«applicationSchema»</text><!--MD5=[1e1358e454146a1d77368b70d39fca56]
entity Matrikkel.Applikasjonsskjema.Felles--><polygon fill="#FEFECE" filter="url(#f10t8fzm3vcowf)" points="236.5,474,495.5,474,502.5,499.0679,519.5,499.0679,519.5,535.1358,236.5,535.1358,236.5,474" style="stroke: #000000; stroke-width: 1.5;"/><line style="stroke: #000000; stroke-width: 1.5;" x1="236.5" x2="502.5" y1="499.0679" y2="499.0679"/><text fill="#000000" font-family="sans-serif" font-size="14" font-weight="bold" lengthAdjust="spacingAndGlyphs" textLength="253" x="240.5" y="491.9659">Matrikkel.Applikasjonsskjema.Felles</text><text fill="#000000" font-family="sans-serif" font-size="14" font-style="italic" lengthAdjust="spacingAndGlyphs" textLength="133" x="246.5" y="521.0339">«applicationSchema»</text><!--MD5=[1426c306999b2d2fd23603c647e8cd28]
entity Plan.Applikasjonsskjema.Felles--><polygon fill="#FEFECE" filter="url(#f10t8fzm3vcowf)" points="555,474,777,474,784,499.0679,801,499.0679,801,535.1358,555,535.1358,555,474" style="stroke: #000000; stroke-width: 1.5;"/><line style="stroke: #000000; stroke-width: 1.5;" x1="555" x2="784" y1="499.0679" y2="499.0679"/><text fill="#000000" font-family="sans-serif" font-size="14" font-weight="bold" lengthAdjust="spacingAndGlyphs" textLength="216" x="559" y="491.9659">Plan.Applikasjonsskjema.Felles</text><text fill="#000000" font-family="sans-serif" font-size="14" font-style="italic" lengthAdjust="spacingAndGlyphs" textLength="133" x="565" y="521.0339">«applicationSchema»</text><!--MD5=[97ab183161fd5d1db7fba7485cf76add]
entity Admin--><polygon fill="#FEFECE" filter="url(#f10t8fzm3vcowf)" points="134.5,148,186.5,148,193.5,173.0679,297.5,173.0679,297.5,209.1358,134.5,209.1358,134.5,148" style="stroke: #000000; stroke-width: 1.5;"/><line style="stroke: #000000; stroke-width: 1.5;" x1="134.5" x2="193.5" y1="173.0679" y2="173.0679"/><text fill="#000000" font-family="sans-serif" font-size="14" font-weight="bold" lengthAdjust="spacingAndGlyphs" textLength="46" x="138.5" y="165.9659">Admin</text><text fill="#000000" font-family="sans-serif" font-size="14" font-style="italic" lengthAdjust="spacingAndGlyphs" textLength="133" x="144.5" y="195.0339">«applicationSchema»</text><!--MD5=[6359a4ead081a408ffdd165379257c74]
entity Kodelister--><polygon fill="#FEFECE" filter="url(#f10t8fzm3vcowf)" points="470.5,148,546.5,148,553.5,173.0679,633.5,173.0679,633.5,209.1358,470.5,209.1358,470.5,148" style="stroke: #000000; stroke-width: 1.5;"/><line style="stroke: #000000; stroke-width: 1.5;" x1="470.5" x2="553.5" y1="173.0679" y2="173.0679"/><text fill="#000000" font-family="sans-serif" font-size="14" font-weight="bold" lengthAdjust="spacingAndGlyphs" textLength="70" x="474.5" y="165.9659">Kodelister</text><text fill="#000000" font-family="sans-serif" font-size="14" font-style="italic" lengthAdjust="spacingAndGlyphs" textLength="133" x="480.5" y="195.0339">«applicationSchema»</text><!--MD5=[56385fa8bec653ba0255c66544421df1]
entity Arkivstruktur--><polygon fill="#FEFECE" filter="url(#f10t8fzm3vcowf)" points="296.5,288,397.5,288,404.5,313.0679,459.5,313.0679,459.5,349.1358,296.5,349.1358,296.5,288" style="stroke: #000000; stroke-width: 1.5;"/><line style="stroke: #000000; stroke-width: 1.5;" x1="296.5" x2="404.5" y1="313.0679" y2="313.0679"/><text fill="#000000" font-family="sans-serif" font-size="14" font-weight="bold" lengthAdjust="spacingAndGlyphs" textLength="95" x="300.5" y="305.9659">Arkivstruktur</text><text fill="#000000" font-family="sans-serif" font-size="14" font-style="italic" lengthAdjust="spacingAndGlyphs" textLength="133" x="306.5" y="335.0339">«applicationSchema»</text><!--MD5=[74f65dc6ba61a230606169e2a70e4316]
entity LoggingOgSporing--><polygon fill="#FEFECE" filter="url(#f10t8fzm3vcowf)" points="551.5,288,688.5,288,695.5,313.0679,714.5,313.0679,714.5,349.1358,551.5,349.1358,551.5,288" style="stroke: #000000; stroke-width: 1.5;"/><line style="stroke: #000000; stroke-width: 1.5;" x1="551.5" x2="695.5" y1="313.0679" y2="313.0679"/><text fill="#000000" font-family="sans-serif" font-size="14" font-weight="bold" lengthAdjust="spacingAndGlyphs" textLength="131" x="555.5" y="305.9659">LoggingOgSporing</text><text fill="#000000" font-family="sans-serif" font-size="14" font-style="italic" lengthAdjust="spacingAndGlyphs" textLength="133" x="561.5" y="335.0339">«applicationSchema»</text><!--MD5=[bd1568459f0256853e706bca1a9cba3e]
entity Sakarkiv--><polygon fill="#FEFECE" filter="url(#f10t8fzm3vcowf)" points="325.5,8,391.5,8,398.5,33.0679,488.5,33.0679,488.5,69.1358,325.5,69.1358,325.5,8" style="stroke: #000000; stroke-width: 1.5;"/><line style="stroke: #000000; stroke-width: 1.5;" x1="325.5" x2="398.5" y1="33.0679" y2="33.0679"/><text fill="#000000" font-family="sans-serif" font-size="14" font-weight="bold" lengthAdjust="spacingAndGlyphs" textLength="60" x="329.5" y="25.9659">Sakarkiv</text><text fill="#000000" font-family="sans-serif" font-size="14" font-style="italic" lengthAdjust="spacingAndGlyphs" textLength="133" x="335.5" y="55.0339">«applicationSchema»</text><!--MD5=[874d9d77fe0e80336685000d03660f92]
link Admin to Kodelister--><path d="M242.56,147.83 C257.13,133.38 276.49,117.66 297.5,110 C365.52,85.21 446.68,117.23 498.75,145.31 " fill="none" id="Admin-&gt;Kodelister" style="stroke: #A80036; stroke-width: 1.0; stroke-dasharray: 7.0,7.0;"/><polygon fill="#A80036" points="503.39,147.84,497.4151,140.0106,499.0038,145.4397,493.5746,147.0285,503.39,147.84" style="stroke: #A80036; stroke-width: 1.0;"/><text fill="#000000" font-family="sans-serif" font-size="13" lengthAdjust="spacingAndGlyphs" textLength="55" x="298.5" y="113.897">«import»</text><!--MD5=[9409d99324d90f2a70796d208d59b513]
link Sakarkiv to Kodelister--><path d="M438.11,69.1 C461.33,91.21 493.07,121.42 517.15,144.33 " fill="none" id="Sakarkiv-&gt;Kodelister" style="stroke: #A80036; stroke-width: 1.0; stroke-dasharray: 7.0,7.0;"/><polygon fill="#A80036" points="520.95,147.94,517.1744,138.8436,517.3229,144.4985,511.668,144.647,520.95,147.94" style="stroke: #A80036; stroke-width: 1.0;"/><text fill="#000000" font-family="sans-serif" font-size="13" lengthAdjust="spacingAndGlyphs" textLength="55" x="489" y="113.897">«import»</text><!--MD5=[0be316ce4502a9c1e7384ac2383877bc]
link Sakarkiv to Arkivstruktur--><path d="M403.9,69.25 C398.49,121.09 387.37,227.68 381.62,282.79 " fill="none" id="Sakarkiv-&gt;Arkivstruktur" style="stroke: #A80036; stroke-width: 1.0; stroke-dasharray: 7.0,7.0;"/><polygon fill="#A80036" points="381.08,287.96,385.9849,279.4194,381.5945,282.9865,378.0273,278.5962,381.08,287.96" style="stroke: #A80036; stroke-width: 1.0;"/><text fill="#000000" font-family="sans-serif" font-size="13" lengthAdjust="spacingAndGlyphs" textLength="55" x="396" y="183.897">«import»</text><!--MD5=[a207f410de837a5a76390edba5a9c68b]
link LoggingOgSporing to Kodelister--><path d="M615.65,287.94 C602.85,266.13 585.39,236.39 572,213.57 " fill="none" id="LoggingOgSporing-&gt;Kodelister" style="stroke: #A80036; stroke-width: 1.0; stroke-dasharray: 7.0,7.0;"/><polygon fill="#A80036" points="569.38,209.1,570.4799,218.8873,571.9082,213.4137,577.3818,214.8421,569.38,209.1" style="stroke: #A80036; stroke-width: 1.0;"/><text fill="#000000" font-family="sans-serif" font-size="13" lengthAdjust="spacingAndGlyphs" textLength="55" x="598" y="253.897">«import»</text><!--MD5=[87fcb3ed3fda179039ce8195437f4076]
reverse link Kodelister to Arkivstruktur--><path d="M510.47,212.44 C481.52,235.4 443.23,265.76 415.27,287.94 " fill="none" id="Kodelister&lt;-Arkivstruktur" style="stroke: #A80036; stroke-width: 1.0; stroke-dasharray: 7.0,7.0;"/><polygon fill="#A80036" points="514.67,209.1,505.1312,211.5519,510.7504,212.2042,510.098,217.8234,514.67,209.1" style="stroke: #A80036; stroke-width: 1.0;"/><text fill="#000000" font-family="sans-serif" font-size="13" lengthAdjust="spacingAndGlyphs" textLength="55" x="476" y="253.897">«import»</text><!--MD5=[cb4674f2271c8bd2170a992a929da7f3]
link Arkivstruktur to LoggingOgSporing--><path d="M459.74,318.5 C487.3,318.5 518.16,318.5 546.11,318.5 " fill="none" id="Arkivstruktur-&gt;LoggingOgSporing" style="stroke: #A80036; stroke-width: 1.0; stroke-dasharray: 7.0,7.0;"/><polygon fill="#A80036" points="551.29,318.5,542.29,314.5,546.29,318.5,542.29,322.5,551.29,318.5" style="stroke: #A80036; stroke-width: 1.0;"/><text fill="#000000" font-family="sans-serif" font-size="13" lengthAdjust="spacingAndGlyphs" textLength="55" x="478" y="311.397">«import»</text><!--MD5=[07b23ee0b3bb3a05af6d64f12e8dd46b]
link Arkivstruktur to Felles.Geometri--><path d="M314.01,349.14 C283.98,364.32 248.41,384.2 219,406 C193.57,424.86 168.19,450.01 149.5,470.04 " fill="none" id="Arkivstruktur-&gt;Felles.Geometri" style="stroke: #A80036; stroke-width: 1.0; stroke-dasharray: 7.0,7.0;"/><polygon fill="#A80036" points="145.85,473.98,154.9,470.0945,149.2473,470.3115,149.0304,464.6588,145.85,473.98" style="stroke: #A80036; stroke-width: 1.0;"/><text fill="#000000" font-family="sans-serif" font-size="13" lengthAdjust="spacingAndGlyphs" textLength="55" x="258" y="393.897">«import»</text><!--MD5=[a82b3f7eaa5b216b5723f3575cb29ca0]
link Arkivstruktur to Matrikkel.Applikasjonsskjema.Felles--><path d="M378,349.06 C378,381.56 378,433.73 378,468.31 " fill="none" id="Arkivstruktur-&gt;Matrikkel.Applikasjonsskjema.Felles" style="stroke: #A80036; stroke-width: 1.0; stroke-dasharray: 7.0,7.0;"/><polygon fill="#A80036" points="378,473.71,382,464.71,378,468.71,374,464.71,378,473.71" style="stroke: #A80036; stroke-width: 1.0;"/><text fill="#000000" font-family="sans-serif" font-size="13" lengthAdjust="spacingAndGlyphs" textLength="55" x="379" y="393.897">«import»</text><!--MD5=[cb2087122c7e610124193c0d47e47f39]
link Arkivstruktur to Plan.Applikasjonsskjema.Felles--><path d="M435.87,349.08 C466.4,365.15 504.21,385.83 537,406 C570.08,426.36 606.08,451.3 633.43,470.86 " fill="none" id="Arkivstruktur-&gt;Plan.Applikasjonsskjema.Felles" style="stroke: #A80036; stroke-width: 1.0; stroke-dasharray: 7.0,7.0;"/><polygon fill="#A80036" points="637.74,473.95,632.7639,465.4507,633.6791,471.033,628.0967,471.9481,637.74,473.95" style="stroke: #A80036; stroke-width: 1.0;"/><text fill="#000000" font-family="sans-serif" font-size="13" lengthAdjust="spacingAndGlyphs" textLength="55" x="521" y="393.897">«import»</text><!--MD5=[5d3eb8be9c9827ac6098df75d2f90767]
@startuml
package Admin <<applicationSchema>>
package Kodelister <<applicationSchema>>
package Arkivstruktur <<applicationSchema>>
package LoggingOgSporing <<applicationSchema>>
package Sakarkiv <<applicationSchema>>

package GeoIntegrasjon {
  package Felles.Geometri <<applicationSchema>>
  package Matrikkel.Applikasjonsskjema.Felles <<applicationSchema>>
  package Plan.Applikasjonsskjema.Felles <<applicationSchema>>
}

Admin .> Kodelister : <<import>>
Sakarkiv ..> Kodelister : <<import>>
Sakarkiv .> Arkivstruktur : <<import>>
LoggingOgSporing ..> Kodelister : <<import>>
Kodelister <.. Arkivstruktur : <<import>>
Arkivstruktur .> LoggingOgSporing : <<import>>
Arkivstruktur ..> Felles.Geometri : <<import>>
Arkivstruktur ..> Matrikkel.Applikasjonsskjema.Felles : <<import>>
Arkivstruktur ..> Plan.Applikasjonsskjema.Felles : <<import>>
@enduml

PlantUML version 1.2020.02(Sun Mar 01 11:22:07 CET 2020)
(GPL source distribution)
Java Runtime: OpenJDK Runtime Environment
JVM: OpenJDK 64-Bit Server VM
Java Version: 17.0.6+10-Debian-1
Operating System: Linux
Default Encoding: UTF-8
Language: en
Country: US
--></g></svg>