<?xml version="1.0" encoding="UTF-8" standalone="no"?><svg xmlns="http://www.w3.org/2000/svg" xmlns:xlink="http://www.w3.org/1999/xlink" contentScriptType="application/ecmascript" contentStyleType="text/css" height="1229px" preserveAspectRatio="none" style="width:1685px;height:1229px;" version="1.1" viewBox="0 0 1685 1229" width="1685px" zoomAndPan="magnify"><defs><filter height="300%" id="f16r8aolp6v5it" width="300%" x="-1" y="-1"><feGaussianBlur result="blurOut" stdDeviation="2.0"/><feColorMatrix in="blurOut" result="blurOut2" type="matrix" values="0 0 0 0 0 0 0 0 0 0 0 0 0 0 0 0 0 0 .4 0"/><feOffset dx="4.0" dy="4.0" in="blurOut2" result="blurOut3"/><feBlend in="SourceGraphic" in2="blurOut3" mode="normal"/></filter></defs><g><!--MD5=[069ea117d8bb01159729074d99b1e334]
cluster Sakarkiv--><polygon fill="#FFFFFF" filter="url(#f16r8aolp6v5it)" points="863,860,929,860,936,885.0679,1663,885.0679,1663,1217,863,1217,863,860" style="stroke: #000000; stroke-width: 1.5;"/><line style="stroke: #000000; stroke-width: 1.5;" x1="863" x2="936" y1="885.0679" y2="885.0679"/><text fill="#000000" font-family="sans-serif" font-size="14" font-weight="bold" lengthAdjust="spacingAndGlyphs" textLength="60" x="867" y="876.9659">Sakarkiv</text><!--MD5=[232c485b1f52e07d9ce0910f7499e2a6]
cluster Arkivstruktur--><polygon fill="#FFFFFF" filter="url(#f16r8aolp6v5it)" points="22,161,123,161,130,186.0679,1219,186.0679,1219,836,22,836,22,161" style="stroke: #000000; stroke-width: 1.5;"/><line style="stroke: #000000; stroke-width: 1.5;" x1="22" x2="130" y1="186.0679" y2="186.0679"/><text fill="#000000" font-family="sans-serif" font-size="14" font-weight="bold" lengthAdjust="spacingAndGlyphs" textLength="95" x="26" y="177.9659">Arkivstruktur</text><!--MD5=[68eac0387a028fbb729470faa528465a]
cluster Kodelister--><polygon fill="#FFFFFF" filter="url(#f16r8aolp6v5it)" points="1367,563.5,1443,563.5,1450,588.5679,1625,588.5679,1625,766.5,1367,766.5,1367,563.5" style="stroke: #000000; stroke-width: 1.5;"/><line style="stroke: #000000; stroke-width: 1.5;" x1="1367" x2="1450" y1="588.5679" y2="588.5679"/><text fill="#000000" font-family="sans-serif" font-size="14" font-weight="bold" lengthAdjust="spacingAndGlyphs" textLength="70" x="1371" y="580.4659">Kodelister</text><!--MD5=[c39100f8619b9109499bf5375588388c]
cluster BasicTypes--><polygon fill="#FFFFFF" filter="url(#f16r8aolp6v5it)" points="276,24,357,24,364,49.0679,382,49.0679,382,137,276,137,276,24" style="stroke: #000000; stroke-width: 1.5;"/><line style="stroke: #000000; stroke-width: 1.5;" x1="276" x2="364" y1="49.0679" y2="49.0679"/><text fill="#000000" font-family="sans-serif" font-size="14" font-weight="bold" lengthAdjust="spacingAndGlyphs" textLength="75" x="280" y="40.9659">BasicTypes</text><!--MD5=[c6af8ee822666342b688fca195c2130c]
class Sakarkiv.Avskrivning--><rect fill="#FEFECE" filter="url(#f16r8aolp6v5it)" height="152.8732" id="Sakarkiv.Avskrivning" style="stroke: #A80036; stroke-width: 1.5;" width="326" x="1321" y="973"/><ellipse cx="1447.75" cy="989" fill="#ADD1B2" rx="11" ry="11" style="stroke: #A80036; stroke-width: 1.0;"/><path d="M1447.2188,995.9219 Q1445.4688,995.9219 1444.3281,995.1875 Q1443.2031,994.4375 1442.6406,993.0938 Q1442.0938,991.7344 1442.0938,989.9375 Q1442.0938,987.9063 1442.75,986.4531 Q1443.4063,985 1444.6875,984.2188 Q1445.9688,983.4375 1447.8438,983.4375 Q1448.7344,983.4375 1449.4063,983.625 Q1450.0781,983.7969 1450.7656,984.1406 L1449.9531,986.1563 Q1449.3281,985.8438 1448.7813,985.7188 Q1448.25,985.5938 1447.7656,985.5938 Q1446.5938,985.5938 1445.8906,986.125 Q1445.1875,986.6563 1444.8906,987.6094 Q1444.5938,988.5625 1444.5938,989.8281 Q1444.5938,991.8438 1445.3125,992.8125 Q1446.0313,993.7656 1447.625,993.7656 Q1448.2188,993.7656 1448.8438,993.6094 Q1449.4688,993.4531 1450.2969,993.0781 L1450.2969,995.2969 Q1449.5625,995.6094 1448.7656,995.7656 Q1447.9844,995.9219 1447.2188,995.9219 Z "/><text fill="#000000" font-family="sans-serif" font-size="12" lengthAdjust="spacingAndGlyphs" textLength="64" x="1468.25" y="993.656">Avskrivning</text><line style="stroke: #A80036; stroke-width: 1.5;" x1="1322" x2="1646" y1="1005" y2="1005"/><text fill="#000000" font-family="sans-serif" font-size="11" lengthAdjust="spacingAndGlyphs" textLength="170" x="1327" y="1020.7589">+systemID : SystemID [0..1] [1..1]</text><text fill="#000000" font-family="sans-serif" font-size="11" lengthAdjust="spacingAndGlyphs" textLength="209" x="1327" y="1035.7408">+avskrivningsdato : datetime [0..1] [1..1]</text><text fill="#000000" font-family="sans-serif" font-size="11" lengthAdjust="spacingAndGlyphs" textLength="167" x="1327" y="1050.7227">+avskrevetAv : string [0..1] [1..1]</text><text fill="#000000" font-family="sans-serif" font-size="11" lengthAdjust="spacingAndGlyphs" textLength="236" x="1327" y="1065.7046">+referanseAvskrevetAv : SystemID [0..1] [1..1]</text><text fill="#000000" font-family="sans-serif" font-size="11" lengthAdjust="spacingAndGlyphs" textLength="270" x="1327" y="1080.6865">+avskrivningsmaate : Avskrivningsmaate [0..1] [1..1]</text><text fill="#000000" font-family="sans-serif" font-size="11" lengthAdjust="spacingAndGlyphs" textLength="266" x="1327" y="1095.6684">+referanseAvskrivesAvJournalpost : SystemID [0..1]</text><text fill="#000000" font-family="sans-serif" font-size="11" lengthAdjust="spacingAndGlyphs" textLength="314" x="1327" y="1110.6502">+referanseAvskrivesAvKorrespondansepart : SystemID [0..1]</text><line style="stroke: #A80036; stroke-width: 1.5;" x1="1322" x2="1646" y1="1117.8732" y2="1117.8732"/><!--MD5=[2f08e53298f8f090d026427c85b7c44d]
class Sakarkiv.Journalpost--><rect fill="#FEFECE" filter="url(#f16r8aolp6v5it)" height="302.6921" id="Sakarkiv.Journalpost" style="stroke: #A80036; stroke-width: 1.5;" width="262" x="879" y="898"/><ellipse cx="939.75" cy="914" fill="#ADD1B2" rx="11" ry="11" style="stroke: #A80036; stroke-width: 1.0;"/><path d="M939.2188,920.9219 Q937.4688,920.9219 936.3281,920.1875 Q935.2031,919.4375 934.6406,918.0938 Q934.0938,916.7344 934.0938,914.9375 Q934.0938,912.9063 934.75,911.4531 Q935.4063,910 936.6875,909.2188 Q937.9688,908.4375 939.8438,908.4375 Q940.7344,908.4375 941.4063,908.625 Q942.0781,908.7969 942.7656,909.1406 L941.9531,911.1563 Q941.3281,910.8438 940.7813,910.7188 Q940.25,910.5938 939.7656,910.5938 Q938.5938,910.5938 937.8906,911.125 Q937.1875,911.6563 936.8906,912.6094 Q936.5938,913.5625 936.5938,914.8281 Q936.5938,916.8438 937.3125,917.8125 Q938.0313,918.7656 939.625,918.7656 Q940.2188,918.7656 940.8438,918.6094 Q941.4688,918.4531 942.2969,918.0781 L942.2969,920.2969 Q941.5625,920.6094 940.7656,920.7656 Q939.9844,920.9219 939.2188,920.9219 Z "/><text fill="#000000" font-family="sans-serif" font-size="12" lengthAdjust="spacingAndGlyphs" textLength="63" x="960.25" y="918.656">Journalpost</text><rect fill="#FFFFFF" height="18.3441" style="stroke: #000000; stroke-width: 1.0; stroke-dasharray: 2.0,2.0;" width="67" x="1077" y="895"/><text fill="#000000" font-family="sans-serif" font-size="12" font-style="italic" lengthAdjust="spacingAndGlyphs" textLength="65" x="1078" y="908.8281">Registrering</text><line style="stroke: #A80036; stroke-width: 1.5;" x1="880" x2="1140" y1="930" y2="930"/><text fill="#000000" font-family="sans-serif" font-size="11" lengthAdjust="spacingAndGlyphs" textLength="166" x="885" y="945.7589">+journalaar : integer [0..1] [1..1]</text><text fill="#000000" font-family="sans-serif" font-size="11" lengthAdjust="spacingAndGlyphs" textLength="235" x="885" y="960.7408">+journalsekvensnummer : integer [0..1] [1..1]</text><text fill="#000000" font-family="sans-serif" font-size="11" lengthAdjust="spacingAndGlyphs" textLength="217" x="885" y="975.7227">+journalpostnummer : integer [0..1] [1..1]</text><text fill="#000000" font-family="sans-serif" font-size="11" lengthAdjust="spacingAndGlyphs" textLength="241" x="885" y="990.7046">+journalposttype : Journalposttype [0..1] [1..1]</text><text fill="#000000" font-family="sans-serif" font-size="11" lengthAdjust="spacingAndGlyphs" textLength="211" x="885" y="1005.6865">+journalstatus : Journalstatus [0..1] [1..1]</text><text fill="#000000" font-family="sans-serif" font-size="11" lengthAdjust="spacingAndGlyphs" textLength="181" x="885" y="1020.6684">+journaldato : datetime [0..1] [1..1]</text><text fill="#000000" font-family="sans-serif" font-size="11" lengthAdjust="spacingAndGlyphs" textLength="213" x="885" y="1035.6502">+dokumentetsDato : datetime [0..1] [1..1]</text><text fill="#000000" font-family="sans-serif" font-size="11" lengthAdjust="spacingAndGlyphs" textLength="183" x="885" y="1050.6321">+mottattDato : datetime [0..1] [1..1]</text><text fill="#000000" font-family="sans-serif" font-size="11" lengthAdjust="spacingAndGlyphs" textLength="144" x="885" y="1065.614">+sendtDato : datetime [0..1]</text><text fill="#000000" font-family="sans-serif" font-size="11" lengthAdjust="spacingAndGlyphs" textLength="151" x="885" y="1080.5959">+forfallsdato : datetime [0..1]</text><text fill="#000000" font-family="sans-serif" font-size="11" lengthAdjust="spacingAndGlyphs" textLength="222" x="885" y="1095.5778">+offentlighetsvurdertDato : datetime [0..1]</text><text fill="#000000" font-family="sans-serif" font-size="11" lengthAdjust="spacingAndGlyphs" textLength="154" x="885" y="1110.5597">+antallVedlegg : integer [0..1]</text><text fill="#000000" font-family="sans-serif" font-size="11" lengthAdjust="spacingAndGlyphs" textLength="152" x="885" y="1125.5416">+utlaantDato : datetime [0..1]</text><text fill="#000000" font-family="sans-serif" font-size="11" lengthAdjust="spacingAndGlyphs" textLength="124" x="885" y="1140.5235">+utlaantTil : string [0..1]</text><text fill="#000000" font-family="sans-serif" font-size="11" lengthAdjust="spacingAndGlyphs" textLength="193" x="885" y="1155.5053">+referanseUtlaantTil : SystemID [0..1]</text><text fill="#000000" font-family="sans-serif" font-size="11" lengthAdjust="spacingAndGlyphs" textLength="172" x="885" y="1170.4872">+journalenhet : string [0..1] [1..1]</text><text fill="#000000" font-family="sans-serif" font-size="11" lengthAdjust="spacingAndGlyphs" textLength="250" x="885" y="1185.4691">+elektroniskSignatur : ElektroniskSignatur [0..1]</text><line style="stroke: #A80036; stroke-width: 1.5;" x1="880" x2="1140" y1="1192.6921" y2="1192.6921"/><!--MD5=[5eeb008ce2ba569ad4cb3c09c2ca4370]
class Arkivstruktur.Registrering--><rect fill="#FEFECE" filter="url(#f16r8aolp6v5it)" height="287.7102" id="Arkivstruktur.Registrering" style="stroke: #A80036; stroke-width: 1.5;" width="385" x="817.5" y="532"/><ellipse cx="941.25" cy="548" fill="#ADD1B2" rx="11" ry="11" style="stroke: #A80036; stroke-width: 1.0;"/><path d="M940.7188,554.9219 Q938.9688,554.9219 937.8281,554.1875 Q936.7031,553.4375 936.1406,552.0938 Q935.5938,550.7344 935.5938,548.9375 Q935.5938,546.9063 936.25,545.4531 Q936.9063,544 938.1875,543.2188 Q939.4688,542.4375 941.3438,542.4375 Q942.2344,542.4375 942.9063,542.625 Q943.5781,542.7969 944.2656,543.1406 L943.4531,545.1563 Q942.8281,544.8438 942.2813,544.7188 Q941.75,544.5938 941.2656,544.5938 Q940.0938,544.5938 939.3906,545.125 Q938.6875,545.6563 938.3906,546.6094 Q938.0938,547.5625 938.0938,548.8281 Q938.0938,550.8438 938.8125,551.8125 Q939.5313,552.7656 941.125,552.7656 Q941.7188,552.7656 942.3438,552.6094 Q942.9688,552.4531 943.7969,552.0781 L943.7969,554.2969 Q943.0625,554.6094 942.2656,554.7656 Q941.4844,554.9219 940.7188,554.9219 Z "/><text fill="#000000" font-family="sans-serif" font-size="12" lengthAdjust="spacingAndGlyphs" textLength="68" x="961.75" y="552.656">Registrering</text><rect fill="#FFFFFF" height="18.3441" style="stroke: #000000; stroke-width: 1.0; stroke-dasharray: 2.0,2.0;" width="59" x="1146.5" y="529"/><text fill="#000000" font-family="sans-serif" font-size="12" font-style="italic" lengthAdjust="spacingAndGlyphs" textLength="57" x="1147.5" y="542.8281">Arkivenhet</text><line style="stroke: #A80036; stroke-width: 1.5;" x1="818.5" x2="1201.5" y1="564" y2="564"/><text fill="#000000" font-family="sans-serif" font-size="11" lengthAdjust="spacingAndGlyphs" textLength="185" x="823.5" y="579.7589">+arkivertDato : datetime [0..1] [1..1]</text><text fill="#000000" font-family="sans-serif" font-size="11" lengthAdjust="spacingAndGlyphs" textLength="158" x="823.5" y="594.7408">+arkivertAv : string [0..1] [1..1]</text><text fill="#000000" font-family="sans-serif" font-size="11" lengthAdjust="spacingAndGlyphs" textLength="227" x="823.5" y="609.7227">+referanseArkivertAv : SystemID [0..1] [1..1]</text><text fill="#000000" font-family="sans-serif" font-size="11" lengthAdjust="spacingAndGlyphs" textLength="145" x="823.5" y="624.7046">+kassasjon : Kassasjon [0..1]</text><text fill="#000000" font-family="sans-serif" font-size="11" lengthAdjust="spacingAndGlyphs" textLength="149" x="823.5" y="639.6865">+skjerming : Skjerming [0..1]</text><text fill="#000000" font-family="sans-serif" font-size="11" lengthAdjust="spacingAndGlyphs" textLength="151" x="823.5" y="654.6684">+gradering : Gradering [0..1]</text><text fill="#000000" font-family="sans-serif" font-size="11" lengthAdjust="spacingAndGlyphs" textLength="215" x="823.5" y="669.6502">+referanseArkivdel : SystemID [0..1] [1..1]</text><text fill="#000000" font-family="sans-serif" font-size="11" lengthAdjust="spacingAndGlyphs" textLength="184" x="823.5" y="684.6321">+registreringsID : string [0..1] [1..1]</text><text fill="#000000" font-family="sans-serif" font-size="11" lengthAdjust="spacingAndGlyphs" textLength="70" x="823.5" y="699.614">+tittel : string</text><text fill="#000000" font-family="sans-serif" font-size="11" lengthAdjust="spacingAndGlyphs" textLength="146" x="823.5" y="714.5959">+offentligTittel : string [0..1]</text><text fill="#000000" font-family="sans-serif" font-size="11" lengthAdjust="spacingAndGlyphs" textLength="133" x="823.5" y="729.5778">+beskrivelse : string [0..1]</text><text fill="#000000" font-family="sans-serif" font-size="11" lengthAdjust="spacingAndGlyphs" textLength="135" x="823.5" y="744.5597">+noekkelord : string [0..*]</text><text fill="#000000" font-family="sans-serif" font-size="11" lengthAdjust="spacingAndGlyphs" textLength="120" x="823.5" y="759.5416">+forfatter : string [0..*]</text><text fill="#000000" font-family="sans-serif" font-size="11" lengthAdjust="spacingAndGlyphs" textLength="268" x="823.5" y="774.5235">+dokumentmedium : Dokumentmedium [0..1] [1..1]</text><text fill="#000000" font-family="sans-serif" font-size="11" lengthAdjust="spacingAndGlyphs" textLength="170" x="823.5" y="789.5053">+oppbevaringssted : string [0..*]</text><text fill="#000000" font-family="sans-serif" font-size="11" lengthAdjust="spacingAndGlyphs" textLength="373" x="823.5" y="804.4872">+virksomhetsspesifikkeMetadata : VirksomhetsspesifikkeMetadata [0..1]</text><line style="stroke: #A80036; stroke-width: 1.5;" x1="818.5" x2="1201.5" y1="811.7102" y2="811.7102"/><!--MD5=[7ac5167187dc7f1acc74fcb89e1dc205]
class Arkivstruktur.Mappe--><rect fill="#FEFECE" filter="url(#f16r8aolp6v5it)" height="272.7283" id="Arkivstruktur.Mappe" style="stroke: #A80036; stroke-width: 1.5;" width="385" x="799.5" y="199"/><ellipse cx="937.75" cy="215" fill="#ADD1B2" rx="11" ry="11" style="stroke: #A80036; stroke-width: 1.0;"/><path d="M937.2188,221.9219 Q935.4688,221.9219 934.3281,221.1875 Q933.2031,220.4375 932.6406,219.0938 Q932.0938,217.7344 932.0938,215.9375 Q932.0938,213.9063 932.75,212.4531 Q933.4063,211 934.6875,210.2188 Q935.9688,209.4375 937.8438,209.4375 Q938.7344,209.4375 939.4063,209.625 Q940.0781,209.7969 940.7656,210.1406 L939.9531,212.1563 Q939.3281,211.8438 938.7813,211.7188 Q938.25,211.5938 937.7656,211.5938 Q936.5938,211.5938 935.8906,212.125 Q935.1875,212.6563 934.8906,213.6094 Q934.5938,214.5625 934.5938,215.8281 Q934.5938,217.8438 935.3125,218.8125 Q936.0313,219.7656 937.625,219.7656 Q938.2188,219.7656 938.8438,219.6094 Q939.4688,219.4531 940.2969,219.0781 L940.2969,221.2969 Q939.5625,221.6094 938.7656,221.7656 Q937.9844,221.9219 937.2188,221.9219 Z "/><text fill="#000000" font-family="sans-serif" font-size="12" lengthAdjust="spacingAndGlyphs" textLength="39" x="958.25" y="219.656">Mappe</text><rect fill="#FFFFFF" height="18.3441" style="stroke: #000000; stroke-width: 1.0; stroke-dasharray: 2.0,2.0;" width="59" x="1128.5" y="196"/><text fill="#000000" font-family="sans-serif" font-size="12" font-style="italic" lengthAdjust="spacingAndGlyphs" textLength="57" x="1129.5" y="209.8281">Arkivenhet</text><line style="stroke: #A80036; stroke-width: 1.5;" x1="800.5" x2="1183.5" y1="231" y2="231"/><text fill="#000000" font-family="sans-serif" font-size="11" lengthAdjust="spacingAndGlyphs" textLength="152" x="805.5" y="246.7589">+mappeID : string [0..1] [1..1]</text><text fill="#000000" font-family="sans-serif" font-size="11" lengthAdjust="spacingAndGlyphs" textLength="70" x="805.5" y="261.7408">+tittel : string</text><text fill="#000000" font-family="sans-serif" font-size="11" lengthAdjust="spacingAndGlyphs" textLength="146" x="805.5" y="276.7227">+offentligTittel : string [0..1]</text><text fill="#000000" font-family="sans-serif" font-size="11" lengthAdjust="spacingAndGlyphs" textLength="133" x="805.5" y="291.7046">+beskrivelse : string [0..1]</text><text fill="#000000" font-family="sans-serif" font-size="11" lengthAdjust="spacingAndGlyphs" textLength="135" x="805.5" y="306.6865">+noekkelord : string [0..*]</text><text fill="#000000" font-family="sans-serif" font-size="11" lengthAdjust="spacingAndGlyphs" textLength="268" x="805.5" y="321.6684">+dokumentmedium : Dokumentmedium [0..1] [1..1]</text><text fill="#000000" font-family="sans-serif" font-size="11" lengthAdjust="spacingAndGlyphs" textLength="170" x="805.5" y="336.6502">+oppbevaringssted : string [0..*]</text><text fill="#000000" font-family="sans-serif" font-size="11" lengthAdjust="spacingAndGlyphs" textLength="160" x="805.5" y="351.6321">+avsluttetDato : datetime [0..1]</text><text fill="#000000" font-family="sans-serif" font-size="11" lengthAdjust="spacingAndGlyphs" textLength="133" x="805.5" y="366.614">+avsluttetAv : string [0..1]</text><text fill="#000000" font-family="sans-serif" font-size="11" lengthAdjust="spacingAndGlyphs" textLength="202" x="805.5" y="381.5959">+referanseAvsluttetAv : SystemID [0..1]</text><text fill="#000000" font-family="sans-serif" font-size="11" lengthAdjust="spacingAndGlyphs" textLength="145" x="805.5" y="396.5778">+kassasjon : Kassasjon [0..1]</text><text fill="#000000" font-family="sans-serif" font-size="11" lengthAdjust="spacingAndGlyphs" textLength="149" x="805.5" y="411.5597">+skjerming : Skjerming [0..1]</text><text fill="#000000" font-family="sans-serif" font-size="11" lengthAdjust="spacingAndGlyphs" textLength="151" x="805.5" y="426.5416">+gradering : Gradering [0..1]</text><text fill="#000000" font-family="sans-serif" font-size="11" lengthAdjust="spacingAndGlyphs" textLength="224" x="805.5" y="441.5235">+referanseForelderMappe : SystemID [0..1]</text><text fill="#000000" font-family="sans-serif" font-size="11" lengthAdjust="spacingAndGlyphs" textLength="373" x="805.5" y="456.5053">+virksomhetsspesifikkeMetadata : VirksomhetsspesifikkeMetadata [0..1]</text><line style="stroke: #A80036; stroke-width: 1.5;" x1="800.5" x2="1183.5" y1="463.7283" y2="463.7283"/><!--MD5=[3d4783542a6aba5bb9f20d74c774f5a6]
class Arkivstruktur.Gradering--><rect fill="#FEFECE" filter="url(#f16r8aolp6v5it)" height="163.5614" id="Arkivstruktur.Gradering" style="stroke: #A80036; stroke-width: 1.5;" width="254" x="38" y="594"/><ellipse cx="131.75" cy="615.3441" fill="#ADD1B2" rx="11" ry="11" style="stroke: #A80036; stroke-width: 1.0;"/><path d="M131.2188,622.266 Q129.4688,622.266 128.3281,621.5316 Q127.2031,620.7816 126.6406,619.4379 Q126.0938,618.0785 126.0938,616.2816 Q126.0938,614.2504 126.75,612.7972 Q127.4063,611.3441 128.6875,610.5629 Q129.9688,609.7816 131.8438,609.7816 Q132.7344,609.7816 133.4063,609.9691 Q134.0781,610.141 134.7656,610.4847 L133.9531,612.5004 Q133.3281,612.1879 132.7813,612.0629 Q132.25,611.9379 131.7656,611.9379 Q130.5938,611.9379 129.8906,612.4691 Q129.1875,613.0004 128.8906,613.9535 Q128.5938,614.9066 128.5938,616.1722 Q128.5938,618.1879 129.3125,619.1566 Q130.0313,620.1097 131.625,620.1097 Q132.2188,620.1097 132.8438,619.9535 Q133.4688,619.7972 134.2969,619.4222 L134.2969,621.641 Q133.5625,621.9535 132.7656,622.1097 Q131.9844,622.266 131.2188,622.266 Z "/><text fill="#000000" font-family="sans-serif" font-size="12" font-style="italic" lengthAdjust="spacingAndGlyphs" textLength="62" x="150.25" y="611.8281">«dataType»</text><text fill="#000000" font-family="sans-serif" font-size="12" lengthAdjust="spacingAndGlyphs" textLength="57" x="152.75" y="628.1722">Gradering</text><line style="stroke: #A80036; stroke-width: 1.5;" x1="39" x2="291" y1="636.6882" y2="636.6882"/><text fill="#000000" font-family="sans-serif" font-size="11" lengthAdjust="spacingAndGlyphs" textLength="242" x="44" y="652.4471">+graderingskode : Graderingskode [0..1] [1..1]</text><text fill="#000000" font-family="sans-serif" font-size="11" lengthAdjust="spacingAndGlyphs" textLength="201" x="44" y="667.429">+graderingsdato : datetime [0..1] [1..1]</text><text fill="#000000" font-family="sans-serif" font-size="11" lengthAdjust="spacingAndGlyphs" textLength="157" x="44" y="682.4109">+gradertAv : string [0..1] [1..1]</text><text fill="#000000" font-family="sans-serif" font-size="11" lengthAdjust="spacingAndGlyphs" textLength="226" x="44" y="697.3928">+referanseGradertAv : SystemID [0..1] [1..1]</text><text fill="#000000" font-family="sans-serif" font-size="11" lengthAdjust="spacingAndGlyphs" textLength="192" x="44" y="712.3747">+nedgraderingsdato : datetime [0..1]</text><text fill="#000000" font-family="sans-serif" font-size="11" lengthAdjust="spacingAndGlyphs" textLength="148" x="44" y="727.3566">+nedgradertAv : string [0..1]</text><text fill="#000000" font-family="sans-serif" font-size="11" lengthAdjust="spacingAndGlyphs" textLength="217" x="44" y="742.3385">+referanseNedgradertAv : SystemID [0..1]</text><line style="stroke: #A80036; stroke-width: 1.5;" x1="39" x2="291" y1="749.5614" y2="749.5614"/><path d="M472.5,626.5 L472.5,725.0301 A0,0 0 0 0 472.5,725.0301 L637.5,725.0301 A0,0 0 0 0 637.5,725.0301 L637.5,680 L817.28,676 L637.5,672 L637.5,636.5 L627.5,626.5 L472.5,626.5 A0,0 0 0 0 472.5,626.5 " fill="#FBFB77" filter="url(#f16r8aolp6v5it)" style="stroke: #A80036; stroke-width: 1.0;"/><path d="M627.5,626.5 L627.5,636.5 L637.5,636.5 L627.5,626.5 " fill="#FBFB77" style="stroke: #A80036; stroke-width: 1.0;"/><text fill="#000000" font-family="sans-serif" font-size="13" lengthAdjust="spacingAndGlyphs" textLength="144" x="478.5" y="645.397">Dette er eksempel på en</text><text fill="#000000" font-family="sans-serif" font-size="13" lengthAdjust="spacingAndGlyphs" textLength="118" x="478.5" y="663.103">note, som kan være</text><text fill="#000000" font-family="sans-serif" font-size="13" lengthAdjust="spacingAndGlyphs" textLength="143" x="478.5" y="680.809">knytta til en klasse (som</text><text fill="#000000" font-family="sans-serif" font-size="13" lengthAdjust="spacingAndGlyphs" textLength="128" x="478.5" y="698.5151">denne) eller kan være</text><text fill="#000000" font-family="sans-serif" font-size="13" lengthAdjust="spacingAndGlyphs" textLength="27" x="478.5" y="716.2211">"løs"</text><!--MD5=[14ed878ca467530e1d964ea1b2e23481]
class Arkivstruktur.SystemID--><rect fill="#FEFECE" filter="url(#f16r8aolp6v5it)" height="114.6158" id="Arkivstruktur.SystemID" style="stroke: #A80036; stroke-width: 1.5;" width="111" x="273.5" y="278"/><ellipse cx="299.75" cy="299.3441" fill="#ADD1B2" rx="11" ry="11" style="stroke: #A80036; stroke-width: 1.0;"/><path d="M299.2188,306.266 Q297.4688,306.266 296.3281,305.5316 Q295.2031,304.7816 294.6406,303.4379 Q294.0938,302.0785 294.0938,300.2816 Q294.0938,298.2504 294.75,296.7972 Q295.4063,295.3441 296.6875,294.5629 Q297.9688,293.7816 299.8438,293.7816 Q300.7344,293.7816 301.4063,293.9691 Q302.0781,294.141 302.7656,294.4847 L301.9531,296.5004 Q301.3281,296.1879 300.7813,296.0629 Q300.25,295.9379 299.7656,295.9379 Q298.5938,295.9379 297.8906,296.4691 Q297.1875,297.0004 296.8906,297.9535 Q296.5938,298.9066 296.5938,300.1722 Q296.5938,302.1879 297.3125,303.1566 Q298.0313,304.1097 299.625,304.1097 Q300.2188,304.1097 300.8438,303.9535 Q301.4688,303.7972 302.2969,303.4222 L302.2969,305.641 Q301.5625,305.9535 300.7656,306.1097 Q299.9844,306.266 299.2188,306.266 Z "/><text fill="#000000" font-family="sans-serif" font-size="12" font-style="italic" lengthAdjust="spacingAndGlyphs" textLength="47" x="319.75" y="295.8281">«simple»</text><text fill="#000000" font-family="sans-serif" font-size="12" lengthAdjust="spacingAndGlyphs" textLength="54" x="316.25" y="312.1722">SystemID</text><line style="stroke: #A80036; stroke-width: 1.5;" x1="274.5" x2="383.5" y1="320.6882" y2="320.6882"/><text fill="#000000" font-family="sans-serif" font-size="11" lengthAdjust="spacingAndGlyphs" textLength="99" x="279.5" y="355.429">Definisjon: Entydig</text><text fill="#000000" font-family="sans-serif" font-size="11" lengthAdjust="spacingAndGlyphs" textLength="86" x="279.5" y="370.4109">identifikasjon av</text><text fill="#000000" font-family="sans-serif" font-size="11" lengthAdjust="spacingAndGlyphs" textLength="43" x="279.5" y="385.3928">enheten</text><line style="stroke: #A80036; stroke-width: 1.0;" x1="274.5" x2="314.5" y1="336.1792" y2="336.1792"/><text fill="#000000" font-family="sans-serif" font-size="11" lengthAdjust="spacingAndGlyphs" textLength="29" x="314.5" y="339.9471">notes</text><line style="stroke: #A80036; stroke-width: 1.0;" x1="343.5" x2="383.5" y1="336.1792" y2="336.1792"/><!--MD5=[cc6b5ef23d99536e85e508dadfef6b54]
class Kodelister.Graderingskode--><rect fill="#FEFECE" filter="url(#f16r8aolp6v5it)" height="148.5796" id="Kodelister.Graderingskode" style="stroke: #A80036; stroke-width: 1.5;" width="226" x="1383" y="601.5"/><ellipse cx="1446.75" cy="622.8441" fill="#ADD1B2" rx="11" ry="11" style="stroke: #A80036; stroke-width: 1.0;"/><path d="M1446.2188,629.766 Q1444.4688,629.766 1443.3281,629.0316 Q1442.2031,628.2816 1441.6406,626.9379 Q1441.0938,625.5785 1441.0938,623.7816 Q1441.0938,621.7504 1441.75,620.2972 Q1442.4063,618.8441 1443.6875,618.0629 Q1444.9688,617.2816 1446.8438,617.2816 Q1447.7344,617.2816 1448.4063,617.4691 Q1449.0781,617.641 1449.7656,617.9847 L1448.9531,620.0004 Q1448.3281,619.6879 1447.7813,619.5629 Q1447.25,619.4379 1446.7656,619.4379 Q1445.5938,619.4379 1444.8906,619.9691 Q1444.1875,620.5004 1443.8906,621.4535 Q1443.5938,622.4066 1443.5938,623.6722 Q1443.5938,625.6879 1444.3125,626.6566 Q1445.0313,627.6097 1446.625,627.6097 Q1447.2188,627.6097 1447.8438,627.4535 Q1448.4688,627.2972 1449.2969,626.9222 L1449.2969,629.141 Q1448.5625,629.4535 1447.7656,629.6097 Q1446.9844,629.766 1446.2188,629.766 Z "/><text fill="#000000" font-family="sans-serif" font-size="12" font-style="italic" lengthAdjust="spacingAndGlyphs" textLength="52" x="1486.25" y="619.3281">«codelist»</text><text fill="#000000" font-family="sans-serif" font-size="12" lengthAdjust="spacingAndGlyphs" textLength="90" x="1467.25" y="635.6722">Graderingskode</text><line style="stroke: #A80036; stroke-width: 1.5;" x1="1384" x2="1608" y1="644.1882" y2="644.1882"/><text fill="#000000" font-family="sans-serif" font-size="11" lengthAdjust="spacingAndGlyphs" textLength="213" x="1389" y="659.9471">+Strengt hemmelig (sikkerhetsgrad) = SH</text><text fill="#000000" font-family="sans-serif" font-size="11" lengthAdjust="spacingAndGlyphs" textLength="166" x="1389" y="674.929">+Hemmelig (sikkerhetsgrad) = H</text><text fill="#000000" font-family="sans-serif" font-size="11" lengthAdjust="spacingAndGlyphs" textLength="181" x="1389" y="689.9109">+Konfidensielt (sikkerhetsgrad) = K</text><text fill="#000000" font-family="sans-serif" font-size="11" lengthAdjust="spacingAndGlyphs" textLength="165" x="1389" y="704.8928">+Begrenset (sikkerhetsgrad) = B</text><text fill="#000000" font-family="sans-serif" font-size="11" lengthAdjust="spacingAndGlyphs" textLength="168" x="1389" y="719.8747">+Fortrolig (beskyttelsesgrad) = F</text><text fill="#000000" font-family="sans-serif" font-size="11" lengthAdjust="spacingAndGlyphs" textLength="214" x="1389" y="734.8566">+Strengt fortrolig (beskyttelsesgrad) = SF</text><line style="stroke: #A80036; stroke-width: 1.5;" x1="1384" x2="1608" y1="742.0796" y2="742.0796"/><!--MD5=[746c274819634d46699b478beb04d409]
class BasicTypes.string--><rect fill="#FEFECE" filter="url(#f16r8aolp6v5it)" height="58.6882" id="BasicTypes.string" style="stroke: #A80036; stroke-width: 1.5;" width="75" x="291.5" y="62"/><ellipse cx="306.5" cy="83.3441" fill="#ADD1B2" rx="11" ry="11" style="stroke: #A80036; stroke-width: 1.0;"/><path d="M305.9688,90.266 Q304.2188,90.266 303.0781,89.5316 Q301.9531,88.7816 301.3906,87.4379 Q300.8438,86.0785 300.8438,84.2816 Q300.8438,82.2504 301.5,80.7972 Q302.1563,79.3441 303.4375,78.5629 Q304.7188,77.7816 306.5938,77.7816 Q307.4844,77.7816 308.1563,77.9691 Q308.8281,78.141 309.5156,78.4847 L308.7031,80.5004 Q308.0781,80.1879 307.5313,80.0629 Q307,79.9379 306.5156,79.9379 Q305.3438,79.9379 304.6406,80.4691 Q303.9375,81.0004 303.6406,81.9535 Q303.3438,82.9066 303.3438,84.1722 Q303.3438,86.1879 304.0625,87.1566 Q304.7813,88.1097 306.375,88.1097 Q306.9688,88.1097 307.5938,87.9535 Q308.2188,87.7972 309.0469,87.4222 L309.0469,89.641 Q308.3125,89.9535 307.5156,90.1097 Q306.7344,90.266 305.9688,90.266 Z "/><text fill="#000000" font-family="sans-serif" font-size="12" font-style="italic" lengthAdjust="spacingAndGlyphs" textLength="47" x="318.5" y="79.8281">«simple»</text><text fill="#000000" font-family="sans-serif" font-size="12" lengthAdjust="spacingAndGlyphs" textLength="32" x="326" y="96.1722">string</text><line style="stroke: #A80036; stroke-width: 1.5;" x1="292.5" x2="365.5" y1="104.6882" y2="104.6882"/><line style="stroke: #A80036; stroke-width: 1.5;" x1="292.5" x2="365.5" y1="112.6882" y2="112.6882"/><!--MD5=[639ab7f2aeb9e2ce2f438430a44a4e45]
reverse link Arkivstruktur.Registrering to Sakarkiv.Journalpost--><path d="M1010,840.28 C1010,859.4 1010,878.84 1010,897.78 " fill="none" id="Arkivstruktur.Registrering&lt;-Sakarkiv.Journalpost" style="stroke: #A80036; stroke-width: 1.0;"/><polygon fill="none" points="1003,840.1,1010,820.1,1017,840.1,1003,840.1" style="stroke: #A80036; stroke-width: 1.0;"/><!--MD5=[6097d0687047132a233d92935ace3f8b]
link Arkivstruktur.Mappe to Arkivstruktur.Mappe--><path d="M1196.5926,290.3934 C1196.5926,290.3934 1364.5,301.51 1364.5,335.5 C1364.5,369.49 1287.4,384.54 1197.65,380.65 " fill="none" id="Arkivstruktur.Mappe-Arkivstruktur.Mappe" style="stroke: #A80036; stroke-width: 1.0;"/><polygon fill="#A80036" points="1184.61,379.96,1193.3814,384.4392,1189.6027,380.2294,1193.8125,376.4508,1184.61,379.96" style="stroke: #A80036; stroke-width: 1.0;"/><line style="stroke: #A80036; stroke-width: 1.0;" x1="1189.6027" x2="1197.595" y1="380.2294" y2="380.65"/><polygon fill="#FFFFFF" points="1184.61,291.04,1190.8168,294.7109,1196.5926,290.3934,1190.3857,286.7225,1184.61,291.04" style="stroke: #A80036; stroke-width: 1.0;"/><text fill="#000000" font-family="sans-serif" font-size="13" lengthAdjust="spacingAndGlyphs" textLength="92" x="1192.4394" y="286.2153">overmappe 0..1</text><text fill="#000000" font-family="sans-serif" font-size="13" lengthAdjust="spacingAndGlyphs" textLength="101" x="1192.587" y="378.053">undermappe 0..*</text><!--MD5=[b06f07ca829b4fead78a2f1a47f4b1ee]
link Arkivstruktur.Mappe to Arkivstruktur.Registrering--><path d="M999.8528,484.2133 C999.8528,484.2133 1001.09,507.53 1001.68,518.47 " fill="none" id="Arkivstruktur.Mappe-Arkivstruktur.Registrering" style="stroke: #A80036; stroke-width: 1.0;"/><polygon fill="#A80036" points="1002.38,531.76,1005.8998,522.5616,1002.1163,526.767,997.911,522.9834,1002.38,531.76" style="stroke: #A80036; stroke-width: 1.0;"/><line style="stroke: #A80036; stroke-width: 1.0;" x1="1002.1163" x2="1001.695" y1="526.767" y2="518.78"/><polygon fill="#FFFFFF" points="999.22,472.23,995.542,478.4326,999.8528,484.2133,1003.5308,478.0107,999.22,472.23" style="stroke: #A80036; stroke-width: 1.0;"/><text fill="#000000" font-family="sans-serif" font-size="13" lengthAdjust="spacingAndGlyphs" textLength="65" x="932.9165" y="493.6406">mappe 0..1</text><text fill="#000000" font-family="sans-serif" font-size="13" lengthAdjust="spacingAndGlyphs" textLength="93" x="906.4203" y="520.3313">registrering 0..*</text><!--MD5=[3de69eabb378473b17ad160888b26a49]
link Sakarkiv.Journalpost to Sakarkiv.Avskrivning--><path d="M1141.46,1049.5 C1196.79,1049.5 1252.12,1049.5 1307.45,1049.5 " fill="none" id="Sakarkiv.Journalpost-&gt;Sakarkiv.Avskrivning" style="stroke: #A80036; stroke-width: 1.0;"/><polygon fill="#A80036" points="1320.76,1049.5,1314.76,1045.5,1308.76,1049.5,1314.76,1053.5,1320.76,1049.5" style="stroke: #A80036; stroke-width: 1.0;"/><text fill="#000000" font-family="sans-serif" font-size="13" lengthAdjust="spacingAndGlyphs" textLength="92" x="1221.2404" y="1046.1065">avskrivning 0..*</text><!--MD5=[cd42720c2eb187760b436e2bf336ffa2]
reverse link BasicTypes.string to Arkivstruktur.SystemID--><path d="M329,141.28 C329,180.73 329,236.35 329,277.79 " fill="none" id="BasicTypes.string&lt;-Arkivstruktur.SystemID" style="stroke: #A80036; stroke-width: 1.0;"/><polygon fill="none" points="322,141.21,329,121.21,336,141.21,322,141.21" style="stroke: #A80036; stroke-width: 1.0;"/><!--MD5=[f2518884d8430c18b6b913ed390449d3]
reverse link Arkivstruktur.Gradering to Arkivstruktur.Registrering--><!--MD5=[98b4d77fb9f42c4377d16930c91f78f2]
reverse link Kodelister.Graderingskode to Arkivstruktur.Gradering--><!--MD5=[bdeca4d90b9cec9672ad3cad8c57cfa2]
@startuml
skinparam classAttributeIconSize 0
skinparam nodesep 180


class Sakarkiv.Avskrivning {
  +systemID : SystemID [0..1] [1..1]
  +avskrivningsdato : datetime [0..1] [1..1]
  +avskrevetAv : string [0..1] [1..1]
  +referanseAvskrevetAv : SystemID [0..1] [1..1]
  +avskrivningsmaate : Avskrivningsmaate [0..1] [1..1]
  +referanseAvskrivesAvJournalpost : SystemID [0..1]
  +referanseAvskrivesAvKorrespondansepart : SystemID [0..1]
}
class Arkivstruktur.Registrering <Arkivenhet> {
  +arkivertDato : datetime [0..1] [1..1]
  +arkivertAv : string [0..1] [1..1]
  +referanseArkivertAv : SystemID [0..1] [1..1]
  +kassasjon : Kassasjon [0..1]
  +skjerming : Skjerming [0..1]
  +gradering : Gradering [0..1]
  +referanseArkivdel : SystemID [0..1] [1..1]
  +registreringsID : string [0..1] [1..1]
  +tittel : string
  +offentligTittel : string [0..1]
  +beskrivelse : string [0..1]
  +noekkelord : string [0..*]
  +forfatter : string [0..*]
  +dokumentmedium : Dokumentmedium [0..1] [1..1]
  +oppbevaringssted : string [0..*]
  +virksomhetsspesifikkeMetadata : VirksomhetsspesifikkeMetadata [0..1]
}
class Sakarkiv.Journalpost <Registrering> {
  +journalaar : integer [0..1] [1..1]
  +journalsekvensnummer : integer [0..1] [1..1]
  +journalpostnummer : integer [0..1] [1..1]
  +journalposttype : Journalposttype [0..1] [1..1]
  +journalstatus : Journalstatus [0..1] [1..1]
  +journaldato : datetime [0..1] [1..1]
  +dokumentetsDato : datetime [0..1] [1..1]
  +mottattDato : datetime [0..1] [1..1]
  +sendtDato : datetime [0..1]
  +forfallsdato : datetime [0..1]
  +offentlighetsvurdertDato : datetime [0..1]
  +antallVedlegg : integer [0..1]
  +utlaantDato : datetime [0..1]
  +utlaantTil : string [0..1]
  +referanseUtlaantTil : SystemID [0..1]
  +journalenhet : string [0..1] [1..1]
  +elektroniskSignatur : ElektroniskSignatur [0..1]
}
class Arkivstruktur.Mappe <Arkivenhet> {
  +mappeID : string [0..1] [1..1]
  +tittel : string
  +offentligTittel : string [0..1]
  +beskrivelse : string [0..1]
  +noekkelord : string [0..*]
  +dokumentmedium : Dokumentmedium [0..1] [1..1]
  +oppbevaringssted : string [0..*]
  +avsluttetDato : datetime [0..1]
  +avsluttetAv : string [0..1]
  +referanseAvsluttetAv : SystemID [0..1]
  +kassasjon : Kassasjon [0..1]
  +skjerming : Skjerming [0..1]
  +gradering : Gradering [0..1]
  +referanseForelderMappe : SystemID [0..1]
  +virksomhetsspesifikkeMetadata : VirksomhetsspesifikkeMetadata [0..1]
}
class Kodelister.Graderingskode <<codelist>> {
  {field} +Strengt hemmelig (sikkerhetsgrad) = SH
  {field} +Hemmelig (sikkerhetsgrad) = H
  {field} +Konfidensielt (sikkerhetsgrad) = K
  {field} +Begrenset (sikkerhetsgrad) = B
  {field} +Fortrolig (beskyttelsesgrad) = F
  {field} +Strengt fortrolig (beskyttelsesgrad) = SF
}
class Arkivstruktur.Gradering <<dataType>> {
  +graderingskode : Graderingskode [0..1] [1..1]
  +graderingsdato : datetime [0..1] [1..1]
  +gradertAv : string [0..1] [1..1]
  +referanseGradertAv : SystemID [0..1] [1..1]
  +nedgraderingsdato : datetime [0..1]
  +nedgradertAv : string [0..1]
  +referanseNedgradertAv : SystemID [0..1]
}

Arkivstruktur.Registrering <|- - Sakarkiv.Journalpost

Arkivstruktur.Mappe "overmappe 0..1" o- -> "undermappe 0..*" Arkivstruktur.Mappe
Arkivstruktur.Mappe "mappe 0..1" o- -> "registrering 0..*" Arkivstruktur.Registrering
Sakarkiv.Journalpost -* "avskrivning 0..*" Sakarkiv.Avskrivning
package Arkivstruktur {
note left of Arkivstruktur.Registrering : Dette er eksempel på en\nnote, som kan være\nknytta til en klasse (som\ndenne) eller kan være\n"løs"
}

class Arkivstruktur.SystemID <<simple>> {
  - - notes - -
  Definisjon: Entydig
  identifikasjon av
  enheten
}
class BasicTypes.string <<simple>>
class Arkivstruktur.SystemID <<simple>>
BasicTypes.string <|- - Arkivstruktur.SystemID
Arkivstruktur.Gradering <-[hidden] Arkivstruktur.Registrering
Kodelister.Graderingskode <-[hidden] Arkivstruktur.Gradering
@enduml

PlantUML version 1.2020.02(Sun Mar 01 11:22:07 CET 2020)
(GPL source distribution)
Java Runtime: OpenJDK Runtime Environment
JVM: OpenJDK 64-Bit Server VM
Java Version: 17.0.6+10-Debian-1
Operating System: Linux
Default Encoding: UTF-8
Language: en
Country: US
--></g></svg>