<?xml version="1.0" encoding="UTF-8" standalone="no"?><svg xmlns="http://www.w3.org/2000/svg" xmlns:xlink="http://www.w3.org/1999/xlink" contentScriptType="application/ecmascript" contentStyleType="text/css" height="286px" preserveAspectRatio="none" style="width:162px;height:286px;" version="1.1" viewBox="0 0 162 286" width="162px" zoomAndPan="magnify"><defs><filter height="300%" id="f11eugt0dgta6p" width="300%" x="-1" y="-1"><feGaussianBlur result="blurOut" stdDeviation="2.0"/><feColorMatrix in="blurOut" result="blurOut2" type="matrix" values="0 0 0 0 0 0 0 0 0 0 0 0 0 0 0 0 0 0 .4 0"/><feOffset dx="4.0" dy="4.0" in="blurOut2" result="blurOut3"/><feBlend in="SourceGraphic" in2="blurOut3" mode="normal"/></filter></defs><g><!--MD5=[232c485b1f52e07d9ce0910f7499e2a6]
cluster Arkivstruktur--><polygon fill="#FFFFFF" filter="url(#f11eugt0dgta6p)" points="22,161,123,161,130,186.0679,140,186.0679,140,274,22,274,22,161" style="stroke: #000000; stroke-width: 1.5;"/><line style="stroke: #000000; stroke-width: 1.5;" x1="22" x2="130" y1="186.0679" y2="186.0679"/><text fill="#000000" font-family="sans-serif" font-size="14" font-weight="bold" lengthAdjust="spacingAndGlyphs" textLength="95" x="26" y="177.9659">Arkivstruktur</text><!--MD5=[c39100f8619b9109499bf5375588388c]
cluster BasicTypes--><polygon fill="#FFFFFF" filter="url(#f11eugt0dgta6p)" points="28,24,109,24,116,49.0679,134,49.0679,134,137,28,137,28,24" style="stroke: #000000; stroke-width: 1.5;"/><line style="stroke: #000000; stroke-width: 1.5;" x1="28" x2="116" y1="49.0679" y2="49.0679"/><text fill="#000000" font-family="sans-serif" font-size="14" font-weight="bold" lengthAdjust="spacingAndGlyphs" textLength="75" x="32" y="40.9659">BasicTypes</text><!--MD5=[14ed878ca467530e1d964ea1b2e23481]
class Arkivstruktur.SystemID--><rect fill="#FEFECE" filter="url(#f11eugt0dgta6p)" height="58.6882" id="Arkivstruktur.SystemID" style="stroke: #A80036; stroke-width: 1.5;" width="86" x="38" y="199"/><ellipse cx="53" cy="220.3441" fill="#ADD1B2" rx="11" ry="11" style="stroke: #A80036; stroke-width: 1.0;"/><path d="M52.4688,227.266 Q50.7188,227.266 49.5781,226.5316 Q48.4531,225.7816 47.8906,224.4379 Q47.3438,223.0785 47.3438,221.2816 Q47.3438,219.2504 48,217.7972 Q48.6563,216.3441 49.9375,215.5629 Q51.2188,214.7816 53.0938,214.7816 Q53.9844,214.7816 54.6563,214.9691 Q55.3281,215.141 56.0156,215.4847 L55.2031,217.5004 Q54.5781,217.1879 54.0313,217.0629 Q53.5,216.9379 53.0156,216.9379 Q51.8438,216.9379 51.1406,217.4691 Q50.4375,218.0004 50.1406,218.9535 Q49.8438,219.9066 49.8438,221.1722 Q49.8438,223.1879 50.5625,224.1566 Q51.2813,225.1097 52.875,225.1097 Q53.4688,225.1097 54.0938,224.9535 Q54.7188,224.7972 55.5469,224.4222 L55.5469,226.641 Q54.8125,226.9535 54.0156,227.1097 Q53.2344,227.266 52.4688,227.266 Z "/><text fill="#000000" font-family="sans-serif" font-size="12" font-style="italic" lengthAdjust="spacingAndGlyphs" textLength="47" x="70.5" y="216.8281">«simple»</text><text fill="#000000" font-family="sans-serif" font-size="12" lengthAdjust="spacingAndGlyphs" textLength="54" x="67" y="233.1722">SystemID</text><line style="stroke: #A80036; stroke-width: 1.5;" x1="39" x2="123" y1="241.6882" y2="241.6882"/><line style="stroke: #A80036; stroke-width: 1.5;" x1="39" x2="123" y1="249.6882" y2="249.6882"/><!--MD5=[746c274819634d46699b478beb04d409]
class BasicTypes.string--><rect fill="#FEFECE" filter="url(#f11eugt0dgta6p)" height="58.6882" id="BasicTypes.string" style="stroke: #A80036; stroke-width: 1.5;" width="75" x="43.5" y="62"/><ellipse cx="58.5" cy="83.3441" fill="#ADD1B2" rx="11" ry="11" style="stroke: #A80036; stroke-width: 1.0;"/><path d="M57.9688,90.266 Q56.2188,90.266 55.0781,89.5316 Q53.9531,88.7816 53.3906,87.4379 Q52.8438,86.0785 52.8438,84.2816 Q52.8438,82.2504 53.5,80.7972 Q54.1563,79.3441 55.4375,78.5629 Q56.7188,77.7816 58.5938,77.7816 Q59.4844,77.7816 60.1563,77.9691 Q60.8281,78.141 61.5156,78.4847 L60.7031,80.5004 Q60.0781,80.1879 59.5313,80.0629 Q59,79.9379 58.5156,79.9379 Q57.3438,79.9379 56.6406,80.4691 Q55.9375,81.0004 55.6406,81.9535 Q55.3438,82.9066 55.3438,84.1722 Q55.3438,86.1879 56.0625,87.1566 Q56.7813,88.1097 58.375,88.1097 Q58.9688,88.1097 59.5938,87.9535 Q60.2188,87.7972 61.0469,87.4222 L61.0469,89.641 Q60.3125,89.9535 59.5156,90.1097 Q58.7344,90.266 57.9688,90.266 Z "/><text fill="#000000" font-family="sans-serif" font-size="12" font-style="italic" lengthAdjust="spacingAndGlyphs" textLength="47" x="70.5" y="79.8281">«simple»</text><text fill="#000000" font-family="sans-serif" font-size="12" lengthAdjust="spacingAndGlyphs" textLength="32" x="78" y="96.1722">string</text><line style="stroke: #A80036; stroke-width: 1.5;" x1="44.5" x2="117.5" y1="104.6882" y2="104.6882"/><line style="stroke: #A80036; stroke-width: 1.5;" x1="44.5" x2="117.5" y1="112.6882" y2="112.6882"/><!--MD5=[cd42720c2eb187760b436e2bf336ffa2]
reverse link BasicTypes.string to Arkivstruktur.SystemID--><path d="M81,141.27 C81,160.62 81,182.18 81,198.91 " fill="none" id="BasicTypes.string&lt;-Arkivstruktur.SystemID" style="stroke: #A80036; stroke-width: 1.0;"/><polygon fill="none" points="74,141.13,81,121.13,88,141.13,74,141.13" style="stroke: #A80036; stroke-width: 1.0;"/><!--MD5=[9f1e24aa386d847137cb373f598ada67]
@startuml
class Arkivstruktur.SystemID << simple >>
class BasicTypes.string << simple >>
BasicTypes.string <|- - Arkivstruktur.SystemID
@enduml

PlantUML version 1.2020.02(Sun Mar 01 11:22:07 CET 2020)
(GPL source distribution)
Java Runtime: OpenJDK Runtime Environment
JVM: OpenJDK 64-Bit Server VM
Java Version: 17.0.6+10-Debian-1
Operating System: Linux
Default Encoding: UTF-8
Language: en
Country: US
--></g></svg>