<?xml version="1.0" encoding="UTF-8" standalone="no"?><svg xmlns="http://www.w3.org/2000/svg" xmlns:xlink="http://www.w3.org/1999/xlink" contentScriptType="application/ecmascript" contentStyleType="text/css" height="578px" preserveAspectRatio="none" style="width:2069px;height:578px;" version="1.1" viewBox="0 0 2069 578" width="2069px" zoomAndPan="magnify"><defs><filter height="300%" id="f1du9u7cfjsa4f" width="300%" x="-1" y="-1"><feGaussianBlur result="blurOut" stdDeviation="2.0"/><feColorMatrix in="blurOut" result="blurOut2" type="matrix" values="0 0 0 0 0 0 0 0 0 0 0 0 0 0 0 0 0 0 .4 0"/><feOffset dx="4.0" dy="4.0" in="blurOut2" result="blurOut3"/><feBlend in="SourceGraphic" in2="blurOut3" mode="normal"/></filter></defs><g><!--MD5=[232c485b1f52e07d9ce0910f7499e2a6]
cluster Arkivstruktur--><polygon fill="#FFFFFF" filter="url(#f1du9u7cfjsa4f)" points="22,24,123,24,130,49.0679,1220,49.0679,1220,566,22,566,22,24" style="stroke: #000000; stroke-width: 1.5;"/><line style="stroke: #000000; stroke-width: 1.5;" x1="22" x2="130" y1="49.0679" y2="49.0679"/><text fill="#000000" font-family="sans-serif" font-size="14" font-weight="bold" lengthAdjust="spacingAndGlyphs" textLength="95" x="26" y="40.9659">Arkivstruktur</text><!--MD5=[4a4c6b7d1aba32735577c90ce419470a]
cluster VirksomhetsspesifikkeMetadata--><polygon fill="#FFFFFF" filter="url(#f1du9u7cfjsa4f)" points="1276,453,1506,453,1513,478.0679,1516,478.0679,1516,566,1276,566,1276,453" style="stroke: #000000; stroke-width: 1.5;"/><line style="stroke: #000000; stroke-width: 1.5;" x1="1276" x2="1513" y1="478.0679" y2="478.0679"/><text fill="#000000" font-family="sans-serif" font-size="14" font-weight="bold" lengthAdjust="spacingAndGlyphs" textLength="224" x="1280" y="469.9659">VirksomhetsspesifikkeMetadata</text><!--MD5=[069ea117d8bb01159729074d99b1e334]
cluster Sakarkiv--><polygon fill="#FFFFFF" filter="url(#f1du9u7cfjsa4f)" points="1572,461.5,1638,461.5,1645,486.5679,1716,486.5679,1716,557.5,1572,557.5,1572,461.5" style="stroke: #000000; stroke-width: 1.5;"/><line style="stroke: #000000; stroke-width: 1.5;" x1="1572" x2="1645" y1="486.5679" y2="486.5679"/><text fill="#000000" font-family="sans-serif" font-size="14" font-weight="bold" lengthAdjust="spacingAndGlyphs" textLength="60" x="1576" y="478.4659">Sakarkiv</text><!--MD5=[6f57009a4a608e6bd88d18f07024e663]
cluster Arkivstruktur.NasjonaleIdentifikatorer--><polygon fill="#FFFFFF" filter="url(#f1du9u7cfjsa4f)" points="1762,461.5,2037,461.5,2044,486.5679,2047,486.5679,2047,557.5,1762,557.5,1762,461.5" style="stroke: #000000; stroke-width: 1.5;"/><line style="stroke: #000000; stroke-width: 1.5;" x1="1762" x2="2044" y1="486.5679" y2="486.5679"/><text fill="#000000" font-family="sans-serif" font-size="14" font-weight="bold" lengthAdjust="spacingAndGlyphs" textLength="269" x="1766" y="478.4659">Arkivstruktur.NasjonaleIdentifikatorer</text><!--MD5=[7ac5167187dc7f1acc74fcb89e1dc205]
class Arkivstruktur.Mappe--><rect fill="#FEFECE" filter="url(#f1du9u7cfjsa4f)" height="267.0724" id="Arkivstruktur.Mappe" style="stroke: #A80036; stroke-width: 1.5;" width="393" x="704.5" y="164"/><text fill="#000000" font-family="sans-serif" font-size="12" lengthAdjust="spacingAndGlyphs" textLength="39" x="851" y="181.8281">Mappe</text><rect fill="#FFFFFF" height="18.3441" style="stroke: #000000; stroke-width: 1.0; stroke-dasharray: 2.0,2.0;" width="59" x="1041.5" y="161"/><text fill="#000000" font-family="sans-serif" font-size="12" font-style="italic" lengthAdjust="spacingAndGlyphs" textLength="57" x="1042.5" y="174.8281">Arkivenhet</text><line style="stroke: #A80036; stroke-width: 1.5;" x1="705.5" x2="1096.5" y1="190.3441" y2="190.3441"/><ellipse cx="715.5" cy="201.3441" fill="none" rx="3" ry="3" style="stroke: #038048; stroke-width: 1.0;"/><text fill="#000000" font-family="sans-serif" font-size="11" lengthAdjust="spacingAndGlyphs" textLength="146" x="724.5" y="206.103">mappeID : string [0..1] [1..1]</text><ellipse cx="715.5" cy="216.326" fill="none" rx="3" ry="3" style="stroke: #038048; stroke-width: 1.0;"/><text fill="#000000" font-family="sans-serif" font-size="11" lengthAdjust="spacingAndGlyphs" textLength="64" x="724.5" y="221.0849">tittel : string</text><ellipse cx="715.5" cy="231.3079" fill="none" rx="3" ry="3" style="stroke: #038048; stroke-width: 1.0;"/><text fill="#000000" font-family="sans-serif" font-size="11" lengthAdjust="spacingAndGlyphs" textLength="140" x="724.5" y="236.0668">offentligTittel : string [0..1]</text><ellipse cx="715.5" cy="246.2898" fill="none" rx="3" ry="3" style="stroke: #038048; stroke-width: 1.0;"/><text fill="#000000" font-family="sans-serif" font-size="11" lengthAdjust="spacingAndGlyphs" textLength="127" x="724.5" y="251.0487">beskrivelse : string [0..1]</text><ellipse cx="715.5" cy="261.2717" fill="none" rx="3" ry="3" style="stroke: #038048; stroke-width: 1.0;"/><text fill="#000000" font-family="sans-serif" font-size="11" lengthAdjust="spacingAndGlyphs" textLength="129" x="724.5" y="266.0306">noekkelord : string [0..*]</text><ellipse cx="715.5" cy="276.2536" fill="none" rx="3" ry="3" style="stroke: #038048; stroke-width: 1.0;"/><text fill="#000000" font-family="sans-serif" font-size="11" lengthAdjust="spacingAndGlyphs" textLength="262" x="724.5" y="281.0125">dokumentmedium : Dokumentmedium [0..1] [1..1]</text><ellipse cx="715.5" cy="291.2354" fill="none" rx="3" ry="3" style="stroke: #038048; stroke-width: 1.0;"/><text fill="#000000" font-family="sans-serif" font-size="11" lengthAdjust="spacingAndGlyphs" textLength="164" x="724.5" y="295.9944">oppbevaringssted : string [0..*]</text><ellipse cx="715.5" cy="306.2173" fill="none" rx="3" ry="3" style="stroke: #038048; stroke-width: 1.0;"/><text fill="#000000" font-family="sans-serif" font-size="11" lengthAdjust="spacingAndGlyphs" textLength="154" x="724.5" y="310.9762">avsluttetDato : datetime [0..1]</text><ellipse cx="715.5" cy="321.1992" fill="none" rx="3" ry="3" style="stroke: #038048; stroke-width: 1.0;"/><text fill="#000000" font-family="sans-serif" font-size="11" lengthAdjust="spacingAndGlyphs" textLength="127" x="724.5" y="325.9581">avsluttetAv : string [0..1]</text><ellipse cx="715.5" cy="336.1811" fill="none" rx="3" ry="3" style="stroke: #038048; stroke-width: 1.0;"/><text fill="#000000" font-family="sans-serif" font-size="11" lengthAdjust="spacingAndGlyphs" textLength="196" x="724.5" y="340.94">referanseAvsluttetAv : SystemID [0..1]</text><ellipse cx="715.5" cy="351.163" fill="none" rx="3" ry="3" style="stroke: #038048; stroke-width: 1.0;"/><text fill="#000000" font-family="sans-serif" font-size="11" lengthAdjust="spacingAndGlyphs" textLength="139" x="724.5" y="355.9219">kassasjon : Kassasjon [0..1]</text><ellipse cx="715.5" cy="366.1449" fill="none" rx="3" ry="3" style="stroke: #038048; stroke-width: 1.0;"/><text fill="#000000" font-family="sans-serif" font-size="11" lengthAdjust="spacingAndGlyphs" textLength="143" x="724.5" y="370.9038">skjerming : Skjerming [0..1]</text><ellipse cx="715.5" cy="381.1268" fill="none" rx="3" ry="3" style="stroke: #038048; stroke-width: 1.0;"/><text fill="#000000" font-family="sans-serif" font-size="11" lengthAdjust="spacingAndGlyphs" textLength="145" x="724.5" y="385.8857">gradering : Gradering [0..1]</text><ellipse cx="715.5" cy="396.1087" fill="none" rx="3" ry="3" style="stroke: #038048; stroke-width: 1.0;"/><text fill="#000000" font-family="sans-serif" font-size="11" lengthAdjust="spacingAndGlyphs" textLength="218" x="724.5" y="400.8676">referanseForelderMappe : SystemID [0..1]</text><ellipse cx="715.5" cy="411.0905" fill="none" rx="3" ry="3" style="stroke: #038048; stroke-width: 1.0;"/><text fill="#000000" font-family="sans-serif" font-size="11" lengthAdjust="spacingAndGlyphs" textLength="367" x="724.5" y="415.8495">virksomhetsspesifikkeMetadata : VirksomhetsspesifikkeMetadata [0..1]</text><line style="stroke: #A80036; stroke-width: 1.5;" x1="705.5" x2="1096.5" y1="423.0724" y2="423.0724"/><!--MD5=[7aad5f711e1ff9ffc23e4b1d771a24c1]
class Arkivstruktur.Arkivdel--><rect fill="#FEFECE" filter="url(#f1du9u7cfjsa4f)" height="42.3441" id="Arkivstruktur.Arkivdel" style="stroke: #A80036; stroke-width: 1.5;" width="112" x="1034" y="62"/><text fill="#000000" font-family="sans-serif" font-size="12" lengthAdjust="spacingAndGlyphs" textLength="45" x="1037" y="79.8281">Arkivdel</text><rect fill="#FFFFFF" height="18.3441" style="stroke: #000000; stroke-width: 1.0; stroke-dasharray: 2.0,2.0;" width="59" x="1090" y="59"/><text fill="#000000" font-family="sans-serif" font-size="12" font-style="italic" lengthAdjust="spacingAndGlyphs" textLength="57" x="1091" y="72.8281">Arkivenhet</text><line style="stroke: #A80036; stroke-width: 1.5;" x1="1035" x2="1145" y1="88.3441" y2="88.3441"/><line style="stroke: #A80036; stroke-width: 1.5;" x1="1035" x2="1145" y1="96.3441" y2="96.3441"/><!--MD5=[5361e6f8e145469a00ddfe2005186efd]
class Arkivstruktur.Arkivenhet--><rect fill="#FEFECE" filter="url(#f1du9u7cfjsa4f)" height="42.3441" id="Arkivstruktur.Arkivenhet" style="stroke: #A80036; stroke-width: 1.5;" width="66" x="868" y="62"/><text fill="#000000" font-family="sans-serif" font-size="12" lengthAdjust="spacingAndGlyphs" textLength="60" x="871" y="79.8281">Arkivenhet</text><line style="stroke: #A80036; stroke-width: 1.5;" x1="869" x2="933" y1="88.3441" y2="88.3441"/><line style="stroke: #A80036; stroke-width: 1.5;" x1="869" x2="933" y1="96.3441" y2="96.3441"/><!--MD5=[73df33951f5eee41985998203ae583aa]
class Arkivstruktur.Klasse--><rect fill="#FEFECE" filter="url(#f1du9u7cfjsa4f)" height="42.3441" id="Arkivstruktur.Klasse" style="stroke: #A80036; stroke-width: 1.5;" width="103" x="664.5" y="62"/><text fill="#000000" font-family="sans-serif" font-size="12" lengthAdjust="spacingAndGlyphs" textLength="36" x="667.5" y="79.8281">Klasse</text><rect fill="#FFFFFF" height="18.3441" style="stroke: #000000; stroke-width: 1.0; stroke-dasharray: 2.0,2.0;" width="59" x="711.5" y="59"/><text fill="#000000" font-family="sans-serif" font-size="12" font-style="italic" lengthAdjust="spacingAndGlyphs" textLength="57" x="712.5" y="72.8281">Arkivenhet</text><line style="stroke: #A80036; stroke-width: 1.5;" x1="665.5" x2="766.5" y1="88.3441" y2="88.3441"/><line style="stroke: #A80036; stroke-width: 1.5;" x1="665.5" x2="766.5" y1="96.3441" y2="96.3441"/><!--MD5=[789c1e76f3fd06e52ddfd1f5832ec9f2]
class Arkivstruktur.Kryssreferanse--><rect fill="#FEFECE" filter="url(#f1du9u7cfjsa4f)" height="42.3441" id="Arkivstruktur.Kryssreferanse" style="stroke: #A80036; stroke-width: 1.5;" width="152" x="38" y="499.5"/><text fill="#000000" font-family="sans-serif" font-size="12" lengthAdjust="spacingAndGlyphs" textLength="85" x="41" y="517.3281">Kryssreferanse</text><rect fill="#FFFFFF" height="18.3441" style="stroke: #000000; stroke-width: 1.0; stroke-dasharray: 2.0,2.0;" width="59" x="134" y="496.5"/><text fill="#000000" font-family="sans-serif" font-size="12" font-style="italic" lengthAdjust="spacingAndGlyphs" textLength="57" x="135" y="510.3281">Arkivenhet</text><line style="stroke: #A80036; stroke-width: 1.5;" x1="39" x2="189" y1="525.8441" y2="525.8441"/><line style="stroke: #A80036; stroke-width: 1.5;" x1="39" x2="189" y1="533.8441" y2="533.8441"/><!--MD5=[5eeb008ce2ba569ad4cb3c09c2ca4370]
class Arkivstruktur.Registrering--><rect fill="#FEFECE" filter="url(#f1du9u7cfjsa4f)" height="42.3441" id="Arkivstruktur.Registrering" style="stroke: #A80036; stroke-width: 1.5;" width="135" x="290.5" y="499.5"/><text fill="#000000" font-family="sans-serif" font-size="12" lengthAdjust="spacingAndGlyphs" textLength="68" x="293.5" y="517.3281">Registrering</text><rect fill="#FFFFFF" height="18.3441" style="stroke: #000000; stroke-width: 1.0; stroke-dasharray: 2.0,2.0;" width="59" x="369.5" y="496.5"/><text fill="#000000" font-family="sans-serif" font-size="12" font-style="italic" lengthAdjust="spacingAndGlyphs" textLength="57" x="370.5" y="510.3281">Arkivenhet</text><line style="stroke: #A80036; stroke-width: 1.5;" x1="291.5" x2="424.5" y1="525.8441" y2="525.8441"/><line style="stroke: #A80036; stroke-width: 1.5;" x1="291.5" x2="424.5" y1="533.8441" y2="533.8441"/><!--MD5=[e3d7666df93e3e02c847c049474a14c9]
class Arkivstruktur.Merknad--><rect fill="#FEFECE" filter="url(#f1du9u7cfjsa4f)" height="42.3441" id="Arkivstruktur.Merknad" style="stroke: #A80036; stroke-width: 1.5;" width="56" x="526" y="499.5"/><text fill="#000000" font-family="sans-serif" font-size="12" lengthAdjust="spacingAndGlyphs" textLength="50" x="529" y="517.3281">Merknad</text><line style="stroke: #A80036; stroke-width: 1.5;" x1="527" x2="581" y1="525.8441" y2="525.8441"/><line style="stroke: #A80036; stroke-width: 1.5;" x1="527" x2="581" y1="533.8441" y2="533.8441"/><!--MD5=[969f15578b48b8a37f6dcb3b1c0b6253]
class Arkivstruktur.Part--><rect fill="#FEFECE" filter="url(#f1du9u7cfjsa4f)" height="42.3441" id="Arkivstruktur.Part" style="stroke: #A80036; stroke-width: 1.5;" width="29" x="682.5" y="499.5"/><text fill="#000000" font-family="sans-serif" font-size="12" lengthAdjust="spacingAndGlyphs" textLength="23" x="685.5" y="517.3281">Part</text><line style="stroke: #A80036; stroke-width: 1.5;" x1="683.5" x2="710.5" y1="525.8441" y2="525.8441"/><line style="stroke: #A80036; stroke-width: 1.5;" x1="683.5" x2="710.5" y1="533.8441" y2="533.8441"/><!--MD5=[3d4783542a6aba5bb9f20d74c774f5a6]
class Arkivstruktur.Gradering--><rect fill="#FEFECE" filter="url(#f1du9u7cfjsa4f)" height="58.6882" id="Arkivstruktur.Gradering" style="stroke: #A80036; stroke-width: 1.5;" width="64" x="812" y="491"/><text fill="#000000" font-family="sans-serif" font-size="12" font-style="italic" lengthAdjust="spacingAndGlyphs" textLength="62" x="813" y="508.8281">«dataType»</text><text fill="#000000" font-family="sans-serif" font-size="12" lengthAdjust="spacingAndGlyphs" textLength="57" x="815.5" y="525.1722">Gradering</text><line style="stroke: #A80036; stroke-width: 1.5;" x1="813" x2="875" y1="533.6882" y2="533.6882"/><line style="stroke: #A80036; stroke-width: 1.5;" x1="813" x2="875" y1="541.6882" y2="541.6882"/><!--MD5=[b5ffafd4a567228755c4d3977cbfc8b1]
class Arkivstruktur.Kassasjon--><rect fill="#FEFECE" filter="url(#f1du9u7cfjsa4f)" height="58.6882" id="Arkivstruktur.Kassasjon" style="stroke: #A80036; stroke-width: 1.5;" width="64" x="976" y="491"/><text fill="#000000" font-family="sans-serif" font-size="12" font-style="italic" lengthAdjust="spacingAndGlyphs" textLength="62" x="977" y="508.8281">«dataType»</text><text fill="#000000" font-family="sans-serif" font-size="12" lengthAdjust="spacingAndGlyphs" textLength="56" x="980" y="525.1722">Kassasjon</text><line style="stroke: #A80036; stroke-width: 1.5;" x1="977" x2="1039" y1="533.6882" y2="533.6882"/><line style="stroke: #A80036; stroke-width: 1.5;" x1="977" x2="1039" y1="541.6882" y2="541.6882"/><!--MD5=[5d5cde9b9f9a55207202ed5867b8249d]
class Arkivstruktur.Skjerming--><rect fill="#FEFECE" filter="url(#f1du9u7cfjsa4f)" height="58.6882" id="Arkivstruktur.Skjerming" style="stroke: #A80036; stroke-width: 1.5;" width="64" x="1140" y="491"/><text fill="#000000" font-family="sans-serif" font-size="12" font-style="italic" lengthAdjust="spacingAndGlyphs" textLength="62" x="1141" y="508.8281">«dataType»</text><text fill="#000000" font-family="sans-serif" font-size="12" lengthAdjust="spacingAndGlyphs" textLength="56" x="1144" y="525.1722">Skjerming</text><line style="stroke: #A80036; stroke-width: 1.5;" x1="1141" x2="1203" y1="533.6882" y2="533.6882"/><line style="stroke: #A80036; stroke-width: 1.5;" x1="1141" x2="1203" y1="541.6882" y2="541.6882"/><!--MD5=[542a1184c041ea88fdd585d8ecd273a4]
class VirksomhetsspesifikkeMetadata.VirksomhetsspesifikkeMetadata--><rect fill="#FEFECE" filter="url(#f1du9u7cfjsa4f)" height="58.6882" id="VirksomhetsspesifikkeMetadata.VirksomhetsspesifikkeMetadata" style="stroke: #A80036; stroke-width: 1.5;" width="184" x="1304" y="491"/><text fill="#000000" font-family="sans-serif" font-size="12" font-style="italic" lengthAdjust="spacingAndGlyphs" textLength="181" x="1305.5" y="508.8281">«VirksomhetsspesifikkeMetadata»</text><text fill="#000000" font-family="sans-serif" font-size="12" lengthAdjust="spacingAndGlyphs" textLength="178" x="1307" y="525.1722">VirksomhetsspesifikkeMetadata</text><line style="stroke: #A80036; stroke-width: 1.5;" x1="1305" x2="1487" y1="533.6882" y2="533.6882"/><line style="stroke: #A80036; stroke-width: 1.5;" x1="1305" x2="1487" y1="541.6882" y2="541.6882"/><!--MD5=[d3f949591156db6542fa63b25349ce5f]
class Sakarkiv.Saksmappe--><rect fill="#FEFECE" filter="url(#f1du9u7cfjsa4f)" height="42.3441" id="Sakarkiv.Saksmappe" style="stroke: #A80036; stroke-width: 1.5;" width="112" x="1588" y="499.5"/><text fill="#000000" font-family="sans-serif" font-size="12" lengthAdjust="spacingAndGlyphs" textLength="65" x="1591" y="517.3281">Saksmappe</text><rect fill="#FFFFFF" height="18.3441" style="stroke: #000000; stroke-width: 1.0; stroke-dasharray: 2.0,2.0;" width="39" x="1664" y="496.5"/><text fill="#000000" font-family="sans-serif" font-size="12" font-style="italic" lengthAdjust="spacingAndGlyphs" textLength="37" x="1665" y="510.3281">Mappe</text><line style="stroke: #A80036; stroke-width: 1.5;" x1="1589" x2="1699" y1="525.8441" y2="525.8441"/><line style="stroke: #A80036; stroke-width: 1.5;" x1="1589" x2="1699" y1="533.8441" y2="533.8441"/><!--MD5=[74ecef535dd541f2f04dce997e1cccc6]
class Arkivstruktur.NasjonaleIdentifikatorer.Nasjonalidentifikator--><rect fill="#FEFECE" filter="url(#f1du9u7cfjsa4f)" height="42.3441" id="Arkivstruktur.NasjonaleIdentifikatorer.Nasjonalidentifikator" style="stroke: #A80036; stroke-width: 1.5;" width="122" x="1800" y="499.5"/><text fill="#000000" font-family="sans-serif" font-size="12" lengthAdjust="spacingAndGlyphs" textLength="116" x="1803" y="517.3281">Nasjonalidentifikator</text><line style="stroke: #A80036; stroke-width: 1.5;" x1="1801" x2="1921" y1="525.8441" y2="525.8441"/><line style="stroke: #A80036; stroke-width: 1.5;" x1="1801" x2="1921" y1="533.8441" y2="533.8441"/><!--MD5=[103e55f9778739f9d4b7631e3f306756]
link Arkivstruktur.Arkivdel to Arkivstruktur.Mappe--><path d="M1063.9109,113.3518 C1063.9109,113.3518 1041.02,139.07 1027.92,153.8 " fill="none" id="Arkivstruktur.Arkivdel-Arkivstruktur.Mappe" style="stroke: #A80036; stroke-width: 1.0;"/><polygon fill="#A80036" points="1019.18,163.62,1028.1474,159.5475,1022.5005,159.8817,1022.1662,154.2348,1019.18,163.62" style="stroke: #A80036; stroke-width: 1.0;"/><line style="stroke: #A80036; stroke-width: 1.0;" x1="1022.5005" x2="1027.82" y1="159.8817" y2="153.91"/><polygon fill="#FFFFFF" points="1071.88,104.38,1064.9048,106.2095,1063.9109,113.3518,1070.8861,111.5223,1071.88,104.38" style="stroke: #A80036; stroke-width: 1.0;"/><text fill="#000000" font-family="sans-serif" font-size="13" lengthAdjust="spacingAndGlyphs" textLength="70" x="987.604" y="126.3559">arkivdel 0..1</text><text fill="#000000" font-family="sans-serif" font-size="13" lengthAdjust="spacingAndGlyphs" textLength="65" x="959.1334" y="152.304">mappe 0..*</text><!--MD5=[2f446ca6ea80acd7d1b3ada71ce2dca7]
reverse link Arkivstruktur.Arkivenhet to Arkivstruktur.Mappe--><path d="M901,124.4 C901,136.08 901,149.52 901,163.62 " fill="none" id="Arkivstruktur.Arkivenhet&lt;-Arkivstruktur.Mappe" style="stroke: #A80036; stroke-width: 1.0;"/><polygon fill="none" points="894,124.38,901,104.38,908,124.38,894,124.38" style="stroke: #A80036; stroke-width: 1.0;"/><!--MD5=[6ad31a2a544e3c283a56919386d2c114]
link Arkivstruktur.Klasse to Arkivstruktur.Mappe--><path d="M741.6187,113.4313 C741.6187,113.4313 763.93,139.05 776.49,153.48 " fill="none" id="Arkivstruktur.Klasse-Arkivstruktur.Mappe" style="stroke: #A80036; stroke-width: 1.0;"/><polygon fill="#A80036" points="785.32,163.62,782.4213,154.2074,782.0345,159.851,776.3909,159.4642,785.32,163.62" style="stroke: #A80036; stroke-width: 1.0;"/><line style="stroke: #A80036; stroke-width: 1.0;" x1="782.0345" x2="776.78" y1="159.851" y2="153.82"/><polygon fill="#FFFFFF" points="733.74,104.38,734.6623,111.5319,741.6187,113.4313,740.6965,106.2794,733.74,104.38" style="stroke: #A80036; stroke-width: 1.0;"/><text fill="#000000" font-family="sans-serif" font-size="13" lengthAdjust="spacingAndGlyphs" textLength="59" x="671.5795" y="126.3559">klasse 0..1</text><text fill="#000000" font-family="sans-serif" font-size="13" lengthAdjust="spacingAndGlyphs" textLength="65" x="711.7533" y="152.304">mappe 0..*</text><!--MD5=[cfe2a73eb8c78bf1f363b16f48e7b62d]
link Arkivstruktur.Mappe to Arkivstruktur.Kryssreferanse--><path d="M692.3908,327.6777 C692.3908,327.6777 386.36,387.87 241,445 C209.99,457.19 177.63,476.28 153.34,492.09 " fill="none" id="Arkivstruktur.Mappe-Arkivstruktur.Kryssreferanse" style="stroke: #A80036; stroke-width: 1.0;"/><polygon fill="#A80036" points="142.44,499.31,152.1518,497.6725,146.6078,496.5479,147.7324,491.004,142.44,499.31" style="stroke: #A80036; stroke-width: 1.0;"/><line style="stroke: #A80036; stroke-width: 1.0;" x1="146.6078" x2="153.275" y1="496.5479" y2="492.125"/><polygon fill="#A80036" points="704.22,325.66,697.6329,322.7258,692.3908,327.6777,698.978,330.6119,704.22,325.66" style="stroke: #A80036; stroke-width: 1.0;"/><text fill="#000000" font-family="sans-serif" font-size="13" lengthAdjust="spacingAndGlyphs" textLength="65" x="631.6968" y="323.2125">mappe 0..1</text><text fill="#000000" font-family="sans-serif" font-size="13" lengthAdjust="spacingAndGlyphs" textLength="110" x="24.638" y="487.5387">kryssreferanse 0..*</text><!--MD5=[b06f07ca829b4fead78a2f1a47f4b1ee]
link Arkivstruktur.Mappe to Arkivstruktur.Registrering--><path d="M693.0379,359.521 C693.0379,359.521 544.28,412.22 476,445 C448.35,458.27 419.18,476.64 396.77,491.82 " fill="none" id="Arkivstruktur.Mappe-Arkivstruktur.Registrering" style="stroke: #A80036; stroke-width: 1.0;"/><polygon fill="#A80036" points="386.02,499.19,395.7046,497.3989,390.1436,496.3623,391.1802,490.8012,386.02,499.19" style="stroke: #A80036; stroke-width: 1.0;"/><line style="stroke: #A80036; stroke-width: 1.0;" x1="390.1436" x2="396.745" y1="496.3623" y2="491.835"/><polygon fill="#FFFFFF" points="704.43,355.75,697.477,353.8381,693.0379,359.521,699.991,361.4329,704.43,355.75" style="stroke: #A80036; stroke-width: 1.0;"/><text fill="#000000" font-family="sans-serif" font-size="13" lengthAdjust="spacingAndGlyphs" textLength="65" x="631.1978" y="354.4463">mappe 0..1</text><text fill="#000000" font-family="sans-serif" font-size="13" lengthAdjust="spacingAndGlyphs" textLength="93" x="287.8225" y="487.7538">registrering 0..*</text><!--MD5=[8ed225f7dd4b972190769354784fe277]
reverse link Arkivstruktur.Mappe to Arkivstruktur.Mappe--><path d="M1111.01,258.13 C1160.74,261.31 1197.5,274.43 1197.5,297.5 C1197.5,322.58 1154.07,335.9 1097.74,337.47 " fill="none" id="Arkivstruktur.Mappe&lt;-Arkivstruktur.Mappe" style="stroke: #A80036; stroke-width: 1.0;"/><polygon fill="#FFFFFF" points="1097.74,257.53,1103.5537,261.7963,1109.7278,258.0707,1103.9141,253.8044,1097.74,257.53" style="stroke: #A80036; stroke-width: 1.0;"/><text fill="#000000" font-family="sans-serif" font-size="13" lengthAdjust="spacingAndGlyphs" textLength="92" x="1105.7049" y="252.847">overmappe 0..1</text><text fill="#000000" font-family="sans-serif" font-size="13" lengthAdjust="spacingAndGlyphs" textLength="101" x="1105.8526" y="335.41">undermappe 0..*</text><!--MD5=[aede87e54d32d84a655bdc13a1fefcc8]
reverse link Arkivstruktur.Mappe to Arkivstruktur.Merknad--><path d="M692.98,405.23 C672.25,417.92 651.91,431.26 633,445 C610.58,461.29 587.86,483.43 572.57,499.34 " fill="none" id="Arkivstruktur.Mappe&lt;-Arkivstruktur.Merknad" style="stroke: #A80036; stroke-width: 1.0;"/><polygon fill="#A80036" points="704.18,398.45,696.9758,398.1355,693.9146,404.6646,701.1189,404.9791,704.18,398.45" style="stroke: #A80036; stroke-width: 1.0;"/><text fill="#000000" font-family="sans-serif" font-size="13" lengthAdjust="spacingAndGlyphs" textLength="77" x="489.7156" y="487.5775">merknad 0..*</text><!--MD5=[485c2dce76771a2167b51070a00cbd8e]
reverse link Arkivstruktur.Mappe to Arkivstruktur.Part--><path d="M765.5,441.16 C764.33,442.44 763.16,443.72 762,445 C744.33,464.42 724.56,487.24 711.52,502.46 " fill="none" id="Arkivstruktur.Mappe&lt;-Arkivstruktur.Part" style="stroke: #A80036; stroke-width: 1.0;"/><polygon fill="#A80036" points="774.61,431.22,767.6072,432.9405,766.5019,440.0664,773.5047,438.3459,774.61,431.22" style="stroke: #A80036; stroke-width: 1.0;"/><text fill="#000000" font-family="sans-serif" font-size="13" lengthAdjust="spacingAndGlyphs" textLength="48" x="719.4648" y="493.9205">part 0..*</text><!--MD5=[c958de8ad9fa3545dc0266410440ef40]
reverse link Arkivstruktur.Mappe to Arkivstruktur.Gradering--><path d="M863.5,443.88 C858.97,461.46 854.77,477.73 851.44,490.63 " fill="none" id="Arkivstruktur.Mappe&lt;-Arkivstruktur.Gradering" style="stroke: #A80036; stroke-width: 1.0;"/><polygon fill="#A80036" points="866.77,431.2,861.3943,436.0065,863.7635,442.8173,869.1392,438.0108,866.77,431.2" style="stroke: #A80036; stroke-width: 1.0;"/><!--MD5=[8262cadf6afb52e1468733db93bc25af]
reverse link Arkivstruktur.Mappe to Arkivstruktur.Kassasjon--><path d="M971.02,443.11 C979.67,460.99 987.68,477.54 994.02,490.63 " fill="none" id="Arkivstruktur.Mappe&lt;-Arkivstruktur.Kassasjon" style="stroke: #A80036; stroke-width: 1.0;"/><polygon fill="#A80036" points="965.25,431.2,964.2677,438.3439,970.4843,441.9982,971.4666,434.8543,965.25,431.2" style="stroke: #A80036; stroke-width: 1.0;"/><!--MD5=[11cd737c04d675b22addc690e7770e49]
reverse link Arkivstruktur.Mappe to Arkivstruktur.Skjerming--><path d="M1083.62,439.66 C1085.76,441.45 1087.89,443.23 1090,445 C1107.53,459.72 1126.48,476.85 1141.74,490.97 " fill="none" id="Arkivstruktur.Mappe&lt;-Arkivstruktur.Skjerming" style="stroke: #A80036; stroke-width: 1.0;"/><polygon fill="#A80036" points="1073.48,431.28,1075.5529,438.1867,1082.7256,438.9297,1080.6527,432.023,1073.48,431.28" style="stroke: #A80036; stroke-width: 1.0;"/><!--MD5=[f29692ec4657dcd4e85b117a87804bf5]
reverse link Arkivstruktur.Mappe to VirksomhetsspesifikkeMetadata.VirksomhetsspesifikkeMetadata--><path d="M1109.86,388.52 C1152.04,407 1196.01,426.47 1237,445 C1269.91,459.88 1306.43,476.95 1336.15,490.99 " fill="none" id="Arkivstruktur.Mappe&lt;-VirksomhetsspesifikkeMetadata.VirksomhetsspesifikkeMetadata" style="stroke: #A80036; stroke-width: 1.0;"/><polygon fill="#A80036" points="1097.72,383.21,1101.619,389.2761,1108.7181,388.0101,1104.8191,381.944,1097.72,383.21" style="stroke: #A80036; stroke-width: 1.0;"/><!--MD5=[e0018cf9e229c618f5d941e2b4482152]
reverse link Arkivstruktur.Mappe to Sakarkiv.Saksmappe--><path d="M1117.49,332.46 C1238.98,355.72 1391.67,392.09 1521,445 C1555.89,459.27 1592.42,482.63 1616.51,499.39 " fill="none" id="Arkivstruktur.Mappe&lt;-Sakarkiv.Saksmappe" style="stroke: #A80036; stroke-width: 1.0;"/><polygon fill="none" points="1115.86,339.27,1097.5,328.69,1118.45,325.51,1115.86,339.27" style="stroke: #A80036; stroke-width: 1.0;"/><!--MD5=[17dbeb67644f38cf30f5a930cce96541]
reverse link Arkivstruktur.Mappe to Arkivstruktur.NasjonaleIdentifikatorer.Nasjonalidentifikator--><path d="M1110.7,314.82 C1282.2,333.01 1528.85,370.32 1733,445 C1769.7,458.43 1807.95,482.17 1832.96,499.25 " fill="none" id="Arkivstruktur.Mappe&lt;-Arkivstruktur.NasjonaleIdentifikatorer.Nasjonalidentifikator" style="stroke: #A80036; stroke-width: 1.0;"/><polygon fill="#FFFFFF" points="1097.71,313.47,1103.2646,318.0685,1109.6458,314.7097,1104.0911,310.1113,1097.71,313.47" style="stroke: #A80036; stroke-width: 1.0;"/><text fill="#000000" font-family="sans-serif" font-size="13" lengthAdjust="spacingAndGlyphs" textLength="146" x="1701.4944" y="487.6856">nasjonalidentifikator 0..*</text><!--MD5=[50538f8ebc25f1f55d4c7eb1369bf7ef]
@startuml
skinparam nodesep 100
hide circle
class Arkivstruktur.Mappe <Arkivenhet> {
  +mappeID : string [0..1] [1..1]
  +tittel : string
  +offentligTittel : string [0..1]
  +beskrivelse : string [0..1]
  +noekkelord : string [0..*]
  +dokumentmedium : Dokumentmedium [0..1] [1..1]
  +oppbevaringssted : string [0..*]
  +avsluttetDato : datetime [0..1]
  +avsluttetAv : string [0..1]
  +referanseAvsluttetAv : SystemID [0..1]
  +kassasjon : Kassasjon [0..1]
  +skjerming : Skjerming [0..1]
  +gradering : Gradering [0..1]
  +referanseForelderMappe : SystemID [0..1]
  +virksomhetsspesifikkeMetadata : VirksomhetsspesifikkeMetadata [0..1]
}
class Arkivstruktur.Arkivdel <Arkivenhet> {
}
Arkivstruktur.Arkivdel "arkivdel 0..1" o- -> "mappe 0..*" Arkivstruktur.Mappe
class Arkivstruktur.Arkivenhet {
}
Arkivstruktur.Arkivenhet <|- - Arkivstruktur.Mappe
class Arkivstruktur.Klasse <Arkivenhet> {
}
Arkivstruktur.Klasse "klasse 0..1" o- -> "mappe 0..*" Arkivstruktur.Mappe
class Arkivstruktur.Kryssreferanse <Arkivenhet> {
}
Arkivstruktur.Mappe "mappe 0..1" *- -> "kryssreferanse 0..*" Arkivstruktur.Kryssreferanse
class Arkivstruktur.Registrering <Arkivenhet> {
}
Arkivstruktur.Mappe "mappe 0..1" o- -> "registrering 0..*" Arkivstruktur.Registrering
Arkivstruktur.Mappe "overmappe 0..1" o- - "undermappe 0..*" Arkivstruktur.Mappe
class Arkivstruktur.Merknad {
}
Arkivstruktur.Mappe *- - "merknad 0..*" Arkivstruktur.Merknad
class Arkivstruktur.Part {
}
Arkivstruktur.Mappe *- - "part 0..*" Arkivstruktur.Part
class Arkivstruktur.Gradering <<dataType>> {
}
Arkivstruktur.Mappe *- - Arkivstruktur.Gradering
class Arkivstruktur.Kassasjon <<dataType>> {
}
Arkivstruktur.Mappe *- - Arkivstruktur.Kassasjon
class Arkivstruktur.Skjerming <<dataType>> {
}
Arkivstruktur.Mappe *- - Arkivstruktur.Skjerming
class VirksomhetsspesifikkeMetadata.VirksomhetsspesifikkeMetadata <<VirksomhetsspesifikkeMetadata>> {
}
Arkivstruktur.Mappe *- - VirksomhetsspesifikkeMetadata.VirksomhetsspesifikkeMetadata
class Sakarkiv.Saksmappe <Mappe> {
}
Arkivstruktur.Mappe <|- - Sakarkiv.Saksmappe
class Arkivstruktur.NasjonaleIdentifikatorer.Nasjonalidentifikator {
}
Arkivstruktur.Mappe o- - "nasjonalidentifikator 0..*" Arkivstruktur.NasjonaleIdentifikatorer.Nasjonalidentifikator
@enduml

PlantUML version 1.2020.02(Sun Mar 01 11:22:07 CET 2020)
(GPL source distribution)
Java Runtime: OpenJDK Runtime Environment
JVM: OpenJDK 64-Bit Server VM
Java Version: 17.0.6+10-Debian-1
Operating System: Linux
Default Encoding: UTF-8
Language: en
Country: US
--></g></svg>