<?xml version="1.0" encoding="UTF-8" standalone="no"?><svg xmlns="http://www.w3.org/2000/svg" xmlns:xlink="http://www.w3.org/1999/xlink" contentScriptType="application/ecmascript" contentStyleType="text/css" height="656px" preserveAspectRatio="none" style="width:2448px;height:656px;" version="1.1" viewBox="0 0 2448 656" width="2448px" zoomAndPan="magnify"><defs><filter height="300%" id="f1wcpjvyzr2nik" width="300%" x="-1" y="-1"><feGaussianBlur result="blurOut" stdDeviation="2.0"/><feColorMatrix in="blurOut" result="blurOut2" type="matrix" values="0 0 0 0 0 0 0 0 0 0 0 0 0 0 0 0 0 0 .4 0"/><feOffset dx="4.0" dy="4.0" in="blurOut2" result="blurOut3"/><feBlend in="SourceGraphic" in2="blurOut3" mode="normal"/></filter></defs><g><!--MD5=[232c485b1f52e07d9ce0910f7499e2a6]
cluster Arkivstruktur--><polygon fill="#FFFFFF" filter="url(#f1wcpjvyzr2nik)" points="680,24,781,24,788,49.0679,1204,49.0679,1204,126,680,126,680,24" style="stroke: #000000; stroke-width: 1.5;"/><line style="stroke: #000000; stroke-width: 1.5;" x1="680" x2="788" y1="49.0679" y2="49.0679"/><text fill="#000000" font-family="sans-serif" font-size="14" font-weight="bold" lengthAdjust="spacingAndGlyphs" textLength="95" x="684" y="40.9659">Arkivstruktur</text><!--MD5=[6f57009a4a608e6bd88d18f07024e663]
cluster Arkivstruktur.NasjonaleIdentifikatorer--><polygon fill="#FFFFFF" filter="url(#f1wcpjvyzr2nik)" points="22,150,297,150,304,175.0679,2426,175.0679,2426,644,22,644,22,150" style="stroke: #000000; stroke-width: 1.5;"/><line style="stroke: #000000; stroke-width: 1.5;" x1="22" x2="304" y1="175.0679" y2="175.0679"/><text fill="#000000" font-family="sans-serif" font-size="14" font-weight="bold" lengthAdjust="spacingAndGlyphs" textLength="269" x="26" y="166.9659">Arkivstruktur.NasjonaleIdentifikatorer</text><!--MD5=[7ac5167187dc7f1acc74fcb89e1dc205]
class Arkivstruktur.Mappe--><rect fill="#FEFECE" filter="url(#f1wcpjvyzr2nik)" height="48" id="Arkivstruktur.Mappe" style="stroke: #A80036; stroke-width: 1.5;" width="132" x="1038" y="62"/><ellipse cx="1053" cy="78" fill="#ADD1B2" rx="11" ry="11" style="stroke: #A80036; stroke-width: 1.0;"/><path d="M1052.4688,84.9219 Q1050.7188,84.9219 1049.5781,84.1875 Q1048.4531,83.4375 1047.8906,82.0938 Q1047.3438,80.7344 1047.3438,78.9375 Q1047.3438,76.9063 1048,75.4531 Q1048.6563,74 1049.9375,73.2188 Q1051.2188,72.4375 1053.0938,72.4375 Q1053.9844,72.4375 1054.6563,72.625 Q1055.3281,72.7969 1056.0156,73.1406 L1055.2031,75.1563 Q1054.5781,74.8438 1054.0313,74.7188 Q1053.5,74.5938 1053.0156,74.5938 Q1051.8438,74.5938 1051.1406,75.125 Q1050.4375,75.6563 1050.1406,76.6094 Q1049.8438,77.5625 1049.8438,78.8281 Q1049.8438,80.8438 1050.5625,81.8125 Q1051.2813,82.7656 1052.875,82.7656 Q1053.4688,82.7656 1054.0938,82.6094 Q1054.7188,82.4531 1055.5469,82.0781 L1055.5469,84.2969 Q1054.8125,84.6094 1054.0156,84.7656 Q1053.2344,84.9219 1052.4688,84.9219 Z "/><text fill="#000000" font-family="sans-serif" font-size="12" lengthAdjust="spacingAndGlyphs" textLength="39" x="1067" y="82.656">Mappe</text><rect fill="#FFFFFF" height="18.3441" style="stroke: #000000; stroke-width: 1.0; stroke-dasharray: 2.0,2.0;" width="59" x="1114" y="59"/><text fill="#000000" font-family="sans-serif" font-size="12" font-style="italic" lengthAdjust="spacingAndGlyphs" textLength="57" x="1115" y="72.8281">Arkivenhet</text><line style="stroke: #A80036; stroke-width: 1.5;" x1="1039" x2="1169" y1="94" y2="94"/><line style="stroke: #A80036; stroke-width: 1.5;" x1="1039" x2="1169" y1="102" y2="102"/><!--MD5=[5eeb008ce2ba569ad4cb3c09c2ca4370]
class Arkivstruktur.Registrering--><rect fill="#FEFECE" filter="url(#f1wcpjvyzr2nik)" height="48" id="Arkivstruktur.Registrering" style="stroke: #A80036; stroke-width: 1.5;" width="161" x="696.5" y="62"/><ellipse cx="711.5" cy="78" fill="#ADD1B2" rx="11" ry="11" style="stroke: #A80036; stroke-width: 1.0;"/><path d="M710.9688,84.9219 Q709.2188,84.9219 708.0781,84.1875 Q706.9531,83.4375 706.3906,82.0938 Q705.8438,80.7344 705.8438,78.9375 Q705.8438,76.9063 706.5,75.4531 Q707.1563,74 708.4375,73.2188 Q709.7188,72.4375 711.5938,72.4375 Q712.4844,72.4375 713.1563,72.625 Q713.8281,72.7969 714.5156,73.1406 L713.7031,75.1563 Q713.0781,74.8438 712.5313,74.7188 Q712,74.5938 711.5156,74.5938 Q710.3438,74.5938 709.6406,75.125 Q708.9375,75.6563 708.6406,76.6094 Q708.3438,77.5625 708.3438,78.8281 Q708.3438,80.8438 709.0625,81.8125 Q709.7813,82.7656 711.375,82.7656 Q711.9688,82.7656 712.5938,82.6094 Q713.2188,82.4531 714.0469,82.0781 L714.0469,84.2969 Q713.3125,84.6094 712.5156,84.7656 Q711.7344,84.9219 710.9688,84.9219 Z "/><text fill="#000000" font-family="sans-serif" font-size="12" lengthAdjust="spacingAndGlyphs" textLength="68" x="725.5" y="82.656">Registrering</text><rect fill="#FFFFFF" height="18.3441" style="stroke: #000000; stroke-width: 1.0; stroke-dasharray: 2.0,2.0;" width="59" x="801.5" y="59"/><text fill="#000000" font-family="sans-serif" font-size="12" font-style="italic" lengthAdjust="spacingAndGlyphs" textLength="57" x="802.5" y="72.8281">Arkivenhet</text><line style="stroke: #A80036; stroke-width: 1.5;" x1="697.5" x2="856.5" y1="94" y2="94"/><line style="stroke: #A80036; stroke-width: 1.5;" x1="697.5" x2="856.5" y1="102" y2="102"/><!--MD5=[2d014d047ed1f139ecc2908aaf48a38e]
class Arkivstruktur.NasjonaleIdentifikatorer.Bygning--><rect fill="#FEFECE" filter="url(#f1wcpjvyzr2nik)" height="77.9638" id="Arkivstruktur.NasjonaleIdentifikatorer.Bygning" style="stroke: #A80036; stroke-width: 1.5;" width="215" x="1400.5" y="378.5"/><ellipse cx="1424.95" cy="394.5" fill="#ADD1B2" rx="11" ry="11" style="stroke: #A80036; stroke-width: 1.0;"/><path d="M1424.4188,401.4219 Q1422.6688,401.4219 1421.5281,400.6875 Q1420.4031,399.9375 1419.8406,398.5938 Q1419.2938,397.2344 1419.2938,395.4375 Q1419.2938,393.4063 1419.95,391.9531 Q1420.6063,390.5 1421.8875,389.7188 Q1423.1688,388.9375 1425.0438,388.9375 Q1425.9344,388.9375 1426.6063,389.125 Q1427.2781,389.2969 1427.9656,389.6406 L1427.1531,391.6563 Q1426.5281,391.3438 1425.9813,391.2188 Q1425.45,391.0938 1424.9656,391.0938 Q1423.7938,391.0938 1423.0906,391.625 Q1422.3875,392.1563 1422.0906,393.1094 Q1421.7938,394.0625 1421.7938,395.3281 Q1421.7938,397.3438 1422.5125,398.3125 Q1423.2313,399.2656 1424.825,399.2656 Q1425.4188,399.2656 1426.0438,399.1094 Q1426.6688,398.9531 1427.4969,398.5781 L1427.4969,400.7969 Q1426.7625,401.1094 1425.9656,401.2656 Q1425.1844,401.4219 1424.4188,401.4219 Z "/><text fill="#000000" font-family="sans-serif" font-size="12" lengthAdjust="spacingAndGlyphs" textLength="45" x="1441.05" y="399.156">Bygning</text><rect fill="#FFFFFF" height="18.3441" style="stroke: #000000; stroke-width: 1.0; stroke-dasharray: 2.0,2.0;" width="115" x="1503.5" y="375.5"/><text fill="#000000" font-family="sans-serif" font-size="12" font-style="italic" lengthAdjust="spacingAndGlyphs" textLength="113" x="1504.5" y="389.3281">Nasjonalidentifikator</text><line style="stroke: #A80036; stroke-width: 1.5;" x1="1401.5" x2="1614.5" y1="410.5" y2="410.5"/><text fill="#000000" font-family="sans-serif" font-size="11" lengthAdjust="spacingAndGlyphs" textLength="147" x="1406.5" y="426.2589">+bygningsnummer : integer</text><text fill="#000000" font-family="sans-serif" font-size="11" lengthAdjust="spacingAndGlyphs" textLength="203" x="1406.5" y="441.2408">+endringsloepenummer : integer [0..1]</text><line style="stroke: #A80036; stroke-width: 1.5;" x1="1401.5" x2="1614.5" y1="448.4638" y2="448.4638"/><!--MD5=[1b889474428b6b05094f0be1c3245208]
class Arkivstruktur.NasjonaleIdentifikatorer.Enhetsidentifikator--><rect fill="#FEFECE" filter="url(#f1wcpjvyzr2nik)" height="62.9819" id="Arkivstruktur.NasjonaleIdentifikatorer.Enhetsidentifikator" style="stroke: #A80036; stroke-width: 1.5;" width="254" x="220" y="386"/><ellipse cx="235" cy="402" fill="#ADD1B2" rx="11" ry="11" style="stroke: #A80036; stroke-width: 1.0;"/><path d="M234.4688,408.9219 Q232.7188,408.9219 231.5781,408.1875 Q230.4531,407.4375 229.8906,406.0938 Q229.3438,404.7344 229.3438,402.9375 Q229.3438,400.9063 230,399.4531 Q230.6563,398 231.9375,397.2188 Q233.2188,396.4375 235.0938,396.4375 Q235.9844,396.4375 236.6563,396.625 Q237.3281,396.7969 238.0156,397.1406 L237.2031,399.1563 Q236.5781,398.8438 236.0313,398.7188 Q235.5,398.5938 235.0156,398.5938 Q233.8438,398.5938 233.1406,399.125 Q232.4375,399.6563 232.1406,400.6094 Q231.8438,401.5625 231.8438,402.8281 Q231.8438,404.8438 232.5625,405.8125 Q233.2813,406.7656 234.875,406.7656 Q235.4688,406.7656 236.0938,406.6094 Q236.7188,406.4531 237.5469,406.0781 L237.5469,408.2969 Q236.8125,408.6094 236.0156,408.7656 Q235.2344,408.9219 234.4688,408.9219 Z "/><text fill="#000000" font-family="sans-serif" font-size="12" lengthAdjust="spacingAndGlyphs" textLength="105" x="249" y="406.656">Enhetsidentifikator</text><rect fill="#FFFFFF" height="18.3441" style="stroke: #000000; stroke-width: 1.0; stroke-dasharray: 2.0,2.0;" width="115" x="362" y="383"/><text fill="#000000" font-family="sans-serif" font-size="12" font-style="italic" lengthAdjust="spacingAndGlyphs" textLength="113" x="363" y="396.8281">Nasjonalidentifikator</text><line style="stroke: #A80036; stroke-width: 1.5;" x1="221" x2="473" y1="418" y2="418"/><text fill="#000000" font-family="sans-serif" font-size="11" lengthAdjust="spacingAndGlyphs" textLength="164" x="226" y="433.7589">+organisasjonsnummer : string</text><line style="stroke: #A80036; stroke-width: 1.5;" x1="221" x2="473" y1="440.9819" y2="440.9819"/><!--MD5=[44d0a951b029a96c9d995730245a0b93]
class Arkivstruktur.NasjonaleIdentifikatorer.Matrikkel--><rect fill="#FEFECE" filter="url(#f1wcpjvyzr2nik)" height="122.9094" id="Arkivstruktur.NasjonaleIdentifikatorer.Matrikkel" style="stroke: #A80036; stroke-width: 1.5;" width="201" x="654.5" y="356"/><ellipse cx="669.5" cy="372" fill="#ADD1B2" rx="11" ry="11" style="stroke: #A80036; stroke-width: 1.0;"/><path d="M668.9688,378.9219 Q667.2188,378.9219 666.0781,378.1875 Q664.9531,377.4375 664.3906,376.0938 Q663.8438,374.7344 663.8438,372.9375 Q663.8438,370.9063 664.5,369.4531 Q665.1563,368 666.4375,367.2188 Q667.7188,366.4375 669.5938,366.4375 Q670.4844,366.4375 671.1563,366.625 Q671.8281,366.7969 672.5156,367.1406 L671.7031,369.1563 Q671.0781,368.8438 670.5313,368.7188 Q670,368.5938 669.5156,368.5938 Q668.3438,368.5938 667.6406,369.125 Q666.9375,369.6563 666.6406,370.6094 Q666.3438,371.5625 666.3438,372.8281 Q666.3438,374.8438 667.0625,375.8125 Q667.7813,376.7656 669.375,376.7656 Q669.9688,376.7656 670.5938,376.6094 Q671.2188,376.4531 672.0469,376.0781 L672.0469,378.2969 Q671.3125,378.6094 670.5156,378.7656 Q669.7344,378.9219 668.9688,378.9219 Z "/><text fill="#000000" font-family="sans-serif" font-size="12" lengthAdjust="spacingAndGlyphs" textLength="52" x="683.5" y="376.656">Matrikkel</text><rect fill="#FFFFFF" height="18.3441" style="stroke: #000000; stroke-width: 1.0; stroke-dasharray: 2.0,2.0;" width="115" x="743.5" y="353"/><text fill="#000000" font-family="sans-serif" font-size="12" font-style="italic" lengthAdjust="spacingAndGlyphs" textLength="113" x="744.5" y="366.8281">Nasjonalidentifikator</text><line style="stroke: #A80036; stroke-width: 1.5;" x1="655.5" x2="854.5" y1="388" y2="388"/><text fill="#000000" font-family="sans-serif" font-size="11" lengthAdjust="spacingAndGlyphs" textLength="144" x="660.5" y="403.7589">+kommunenummer : string</text><text fill="#000000" font-family="sans-serif" font-size="11" lengthAdjust="spacingAndGlyphs" textLength="134" x="660.5" y="418.7408">+gaardsnummer : integer</text><text fill="#000000" font-family="sans-serif" font-size="11" lengthAdjust="spacingAndGlyphs" textLength="128" x="660.5" y="433.7227">+bruksnummer : integer</text><text fill="#000000" font-family="sans-serif" font-size="11" lengthAdjust="spacingAndGlyphs" textLength="152" x="660.5" y="448.7046">+festenummer : integer [0..1]</text><text fill="#000000" font-family="sans-serif" font-size="11" lengthAdjust="spacingAndGlyphs" textLength="171" x="660.5" y="463.6865">+seksjonsnummer : integer [0..1]</text><line style="stroke: #A80036; stroke-width: 1.5;" x1="655.5" x2="854.5" y1="470.9094" y2="470.9094"/><!--MD5=[74ecef535dd541f2f04dce997e1cccc6]
class Arkivstruktur.NasjonaleIdentifikatorer.Nasjonalidentifikator--><rect fill="#FEFECE" filter="url(#f1wcpjvyzr2nik)" height="62.9819" id="Arkivstruktur.NasjonaleIdentifikatorer.Nasjonalidentifikator" style="stroke: #A80036; stroke-width: 1.5;" width="182" x="850" y="210.5"/><ellipse cx="880.3" cy="226.5" fill="#ADD1B2" rx="11" ry="11" style="stroke: #A80036; stroke-width: 1.0;"/><path d="M879.7688,233.4219 Q878.0188,233.4219 876.8781,232.6875 Q875.7531,231.9375 875.1906,230.5938 Q874.6438,229.2344 874.6438,227.4375 Q874.6438,225.4063 875.3,223.9531 Q875.9563,222.5 877.2375,221.7188 Q878.5188,220.9375 880.3938,220.9375 Q881.2844,220.9375 881.9563,221.125 Q882.6281,221.2969 883.3156,221.6406 L882.5031,223.6563 Q881.8781,223.3438 881.3313,223.2188 Q880.8,223.0938 880.3156,223.0938 Q879.1438,223.0938 878.4406,223.625 Q877.7375,224.1563 877.4406,225.1094 Q877.1438,226.0625 877.1438,227.3281 Q877.1438,229.3438 877.8625,230.3125 Q878.5813,231.2656 880.175,231.2656 Q880.7688,231.2656 881.3938,231.1094 Q882.0188,230.9531 882.8469,230.5781 L882.8469,232.7969 Q882.1125,233.1094 881.3156,233.2656 Q880.5344,233.4219 879.7688,233.4219 Z "/><text fill="#000000" font-family="sans-serif" font-size="12" lengthAdjust="spacingAndGlyphs" textLength="116" x="897.7" y="231.156">Nasjonalidentifikator</text><line style="stroke: #A80036; stroke-width: 1.5;" x1="851" x2="1031" y1="242.5" y2="242.5"/><text fill="#000000" font-family="sans-serif" font-size="11" lengthAdjust="spacingAndGlyphs" textLength="170" x="856" y="258.2589">+systemID : SystemID [0..1] [1..1]</text><line style="stroke: #A80036; stroke-width: 1.5;" x1="851" x2="1031" y1="265.4819" y2="265.4819"/><!--MD5=[6ac09c7c3a5f5ac7cdbb9928f99a08a2]
class Arkivstruktur.NasjonaleIdentifikatorer.Personidentifikator--><rect fill="#FEFECE" filter="url(#f1wcpjvyzr2nik)" height="48" id="Arkivstruktur.NasjonaleIdentifikatorer.Personidentifikator" style="stroke: #A80036; stroke-width: 1.5;" width="255" x="1767.5" y="218"/><ellipse cx="1782.5" cy="234" fill="#ADD1B2" rx="11" ry="11" style="stroke: #A80036; stroke-width: 1.0;"/><path d="M1781.9688,240.9219 Q1780.2188,240.9219 1779.0781,240.1875 Q1777.9531,239.4375 1777.3906,238.0938 Q1776.8438,236.7344 1776.8438,234.9375 Q1776.8438,232.9063 1777.5,231.4531 Q1778.1563,230 1779.4375,229.2188 Q1780.7188,228.4375 1782.5938,228.4375 Q1783.4844,228.4375 1784.1563,228.625 Q1784.8281,228.7969 1785.5156,229.1406 L1784.7031,231.1563 Q1784.0781,230.8438 1783.5313,230.7188 Q1783,230.5938 1782.5156,230.5938 Q1781.3438,230.5938 1780.6406,231.125 Q1779.9375,231.6563 1779.6406,232.6094 Q1779.3438,233.5625 1779.3438,234.8281 Q1779.3438,236.8438 1780.0625,237.8125 Q1780.7813,238.7656 1782.375,238.7656 Q1782.9688,238.7656 1783.5938,238.6094 Q1784.2188,238.4531 1785.0469,238.0781 L1785.0469,240.2969 Q1784.3125,240.6094 1783.5156,240.7656 Q1782.7344,240.9219 1781.9688,240.9219 Z "/><text fill="#000000" font-family="sans-serif" font-size="12" lengthAdjust="spacingAndGlyphs" textLength="106" x="1796.5" y="238.656">Personidentifikator</text><rect fill="#FFFFFF" height="18.3441" style="stroke: #000000; stroke-width: 1.0; stroke-dasharray: 2.0,2.0;" width="115" x="1910.5" y="215"/><text fill="#000000" font-family="sans-serif" font-size="12" font-style="italic" lengthAdjust="spacingAndGlyphs" textLength="113" x="1911.5" y="228.8281">Nasjonalidentifikator</text><line style="stroke: #A80036; stroke-width: 1.5;" x1="1768.5" x2="2021.5" y1="250" y2="250"/><line style="stroke: #A80036; stroke-width: 1.5;" x1="1768.5" x2="2021.5" y1="258" y2="258"/><!--MD5=[df2f20222b3dbbfc72ff081fea832a02]
class Arkivstruktur.NasjonaleIdentifikatorer.Foedselsnummer--><rect fill="#FEFECE" filter="url(#f1wcpjvyzr2nik)" height="62.9819" id="Arkivstruktur.NasjonaleIdentifikatorer.Foedselsnummer" style="stroke: #A80036; stroke-width: 1.5;" width="236" x="2174" y="386"/><ellipse cx="2189" cy="402" fill="#ADD1B2" rx="11" ry="11" style="stroke: #A80036; stroke-width: 1.0;"/><path d="M2188.4688,408.9219 Q2186.7188,408.9219 2185.5781,408.1875 Q2184.4531,407.4375 2183.8906,406.0938 Q2183.3438,404.7344 2183.3438,402.9375 Q2183.3438,400.9063 2184,399.4531 Q2184.6563,398 2185.9375,397.2188 Q2187.2188,396.4375 2189.0938,396.4375 Q2189.9844,396.4375 2190.6563,396.625 Q2191.3281,396.7969 2192.0156,397.1406 L2191.2031,399.1563 Q2190.5781,398.8438 2190.0313,398.7188 Q2189.5,398.5938 2189.0156,398.5938 Q2187.8438,398.5938 2187.1406,399.125 Q2186.4375,399.6563 2186.1406,400.6094 Q2185.8438,401.5625 2185.8438,402.8281 Q2185.8438,404.8438 2186.5625,405.8125 Q2187.2813,406.7656 2188.875,406.7656 Q2189.4688,406.7656 2190.0938,406.6094 Q2190.7188,406.4531 2191.5469,406.0781 L2191.5469,408.2969 Q2190.8125,408.6094 2190.0156,408.7656 Q2189.2344,408.9219 2188.4688,408.9219 Z "/><text fill="#000000" font-family="sans-serif" font-size="12" lengthAdjust="spacingAndGlyphs" textLength="97" x="2203" y="406.656">Foedselsnummer</text><rect fill="#FFFFFF" height="18.3441" style="stroke: #000000; stroke-width: 1.0; stroke-dasharray: 2.0,2.0;" width="105" x="2308" y="383"/><text fill="#000000" font-family="sans-serif" font-size="12" font-style="italic" lengthAdjust="spacingAndGlyphs" textLength="103" x="2309" y="396.8281">Personidentifikator</text><line style="stroke: #A80036; stroke-width: 1.5;" x1="2175" x2="2409" y1="418" y2="418"/><text fill="#000000" font-family="sans-serif" font-size="11" lengthAdjust="spacingAndGlyphs" textLength="134" x="2180" y="433.7589">+foedselsnummer : string</text><line style="stroke: #A80036; stroke-width: 1.5;" x1="2175" x2="2409" y1="440.9819" y2="440.9819"/><!--MD5=[f47f5f02315622cb3f39247195cd20a5]
class Arkivstruktur.NasjonaleIdentifikatorer.DNummer--><rect fill="#FEFECE" filter="url(#f1wcpjvyzr2nik)" height="62.9819" id="Arkivstruktur.NasjonaleIdentifikatorer.DNummer" style="stroke: #A80036; stroke-width: 1.5;" width="198" x="1796" y="386"/><ellipse cx="1811" cy="402" fill="#ADD1B2" rx="11" ry="11" style="stroke: #A80036; stroke-width: 1.0;"/><path d="M1810.4688,408.9219 Q1808.7188,408.9219 1807.5781,408.1875 Q1806.4531,407.4375 1805.8906,406.0938 Q1805.3438,404.7344 1805.3438,402.9375 Q1805.3438,400.9063 1806,399.4531 Q1806.6563,398 1807.9375,397.2188 Q1809.2188,396.4375 1811.0938,396.4375 Q1811.9844,396.4375 1812.6563,396.625 Q1813.3281,396.7969 1814.0156,397.1406 L1813.2031,399.1563 Q1812.5781,398.8438 1812.0313,398.7188 Q1811.5,398.5938 1811.0156,398.5938 Q1809.8438,398.5938 1809.1406,399.125 Q1808.4375,399.6563 1808.1406,400.6094 Q1807.8438,401.5625 1807.8438,402.8281 Q1807.8438,404.8438 1808.5625,405.8125 Q1809.2813,406.7656 1810.875,406.7656 Q1811.4688,406.7656 1812.0938,406.6094 Q1812.7188,406.4531 1813.5469,406.0781 L1813.5469,408.2969 Q1812.8125,408.6094 1812.0156,408.7656 Q1811.2344,408.9219 1810.4688,408.9219 Z "/><text fill="#000000" font-family="sans-serif" font-size="12" lengthAdjust="spacingAndGlyphs" textLength="59" x="1825" y="406.656">DNummer</text><rect fill="#FFFFFF" height="18.3441" style="stroke: #000000; stroke-width: 1.0; stroke-dasharray: 2.0,2.0;" width="105" x="1892" y="383"/><text fill="#000000" font-family="sans-serif" font-size="12" font-style="italic" lengthAdjust="spacingAndGlyphs" textLength="103" x="1893" y="396.8281">Personidentifikator</text><line style="stroke: #A80036; stroke-width: 1.5;" x1="1797" x2="1993" y1="418" y2="418"/><text fill="#000000" font-family="sans-serif" font-size="11" lengthAdjust="spacingAndGlyphs" textLength="99" x="1802" y="433.7589">+dNummer : string</text><line style="stroke: #A80036; stroke-width: 1.5;" x1="1797" x2="1993" y1="440.9819" y2="440.9819"/><!--MD5=[9086fce0d5497b18414d870820a76275]
class Arkivstruktur.NasjonaleIdentifikatorer.Plan--><rect fill="#FEFECE" filter="url(#f1wcpjvyzr2nik)" height="107.9276" id="Arkivstruktur.NasjonaleIdentifikatorer.Plan" style="stroke: #A80036; stroke-width: 1.5;" width="185" x="1035.5" y="363.5"/><ellipse cx="1055.9" cy="379.5" fill="#ADD1B2" rx="11" ry="11" style="stroke: #A80036; stroke-width: 1.0;"/><path d="M1055.3688,386.4219 Q1053.6188,386.4219 1052.4781,385.6875 Q1051.3531,384.9375 1050.7906,383.5938 Q1050.2438,382.2344 1050.2438,380.4375 Q1050.2438,378.4063 1050.9,376.9531 Q1051.5563,375.5 1052.8375,374.7188 Q1054.1188,373.9375 1055.9938,373.9375 Q1056.8844,373.9375 1057.5563,374.125 Q1058.2281,374.2969 1058.9156,374.6406 L1058.1031,376.6563 Q1057.4781,376.3438 1056.9313,376.2188 Q1056.4,376.0938 1055.9156,376.0938 Q1054.7438,376.0938 1054.0406,376.625 Q1053.3375,377.1563 1053.0406,378.1094 Q1052.7438,379.0625 1052.7438,380.3281 Q1052.7438,382.3438 1053.4625,383.3125 Q1054.1813,384.2656 1055.775,384.2656 Q1056.3688,384.2656 1056.9938,384.1094 Q1057.6188,383.9531 1058.4469,383.5781 L1058.4469,385.7969 Q1057.7125,386.1094 1056.9156,386.2656 Q1056.1344,386.4219 1055.3688,386.4219 Z "/><text fill="#000000" font-family="sans-serif" font-size="12" lengthAdjust="spacingAndGlyphs" textLength="24" x="1071.1" y="384.156">Plan</text><rect fill="#FFFFFF" height="18.3441" style="stroke: #000000; stroke-width: 1.0; stroke-dasharray: 2.0,2.0;" width="115" x="1108.5" y="360.5"/><text fill="#000000" font-family="sans-serif" font-size="12" font-style="italic" lengthAdjust="spacingAndGlyphs" textLength="113" x="1109.5" y="374.3281">Nasjonalidentifikator</text><line style="stroke: #A80036; stroke-width: 1.5;" x1="1036.5" x2="1219.5" y1="395.5" y2="395.5"/><text fill="#000000" font-family="sans-serif" font-size="11" lengthAdjust="spacingAndGlyphs" textLength="173" x="1041.5" y="411.2589">+kommunenummer : string [0..1]</text><text fill="#000000" font-family="sans-serif" font-size="11" lengthAdjust="spacingAndGlyphs" textLength="150" x="1041.5" y="426.2408">+fylkesnummer : string [0..1]</text><text fill="#000000" font-family="sans-serif" font-size="11" lengthAdjust="spacingAndGlyphs" textLength="119" x="1041.5" y="441.2227">+landkode : Land [0..1]</text><text fill="#000000" font-family="sans-serif" font-size="11" lengthAdjust="spacingAndGlyphs" textLength="140" x="1041.5" y="456.2046">+planidentifikasjon : string</text><line style="stroke: #A80036; stroke-width: 1.5;" x1="1036.5" x2="1219.5" y1="463.4276" y2="463.4276"/><!--MD5=[bb604dccc78c75f9e0135ca02bcade77]
class Arkivstruktur.NasjonaleIdentifikatorer.Posisjon--><rect fill="#FEFECE" filter="url(#f1wcpjvyzr2nik)" height="107.9276" id="Arkivstruktur.NasjonaleIdentifikatorer.Posisjon" style="stroke: #A80036; stroke-width: 1.5;" width="204" x="345" y="188"/><ellipse cx="364.05" cy="204" fill="#ADD1B2" rx="11" ry="11" style="stroke: #A80036; stroke-width: 1.0;"/><path d="M363.5188,210.9219 Q361.7688,210.9219 360.6281,210.1875 Q359.5031,209.4375 358.9406,208.0938 Q358.3938,206.7344 358.3938,204.9375 Q358.3938,202.9063 359.05,201.4531 Q359.7063,200 360.9875,199.2188 Q362.2688,198.4375 364.1438,198.4375 Q365.0344,198.4375 365.7063,198.625 Q366.3781,198.7969 367.0656,199.1406 L366.2531,201.1563 Q365.6281,200.8438 365.0813,200.7188 Q364.55,200.5938 364.0656,200.5938 Q362.8938,200.5938 362.1906,201.125 Q361.4875,201.6563 361.1906,202.6094 Q360.8938,203.5625 360.8938,204.8281 Q360.8938,206.8438 361.6125,207.8125 Q362.3313,208.7656 363.925,208.7656 Q364.5188,208.7656 365.1438,208.6094 Q365.7688,208.4531 366.5969,208.0781 L366.5969,210.2969 Q365.8625,210.6094 365.0656,210.7656 Q364.2844,210.9219 363.5188,210.9219 Z "/><text fill="#000000" font-family="sans-serif" font-size="12" lengthAdjust="spacingAndGlyphs" textLength="46" x="378.95" y="208.656">Posisjon</text><rect fill="#FFFFFF" height="18.3441" style="stroke: #000000; stroke-width: 1.0; stroke-dasharray: 2.0,2.0;" width="115" x="437" y="185"/><text fill="#000000" font-family="sans-serif" font-size="12" font-style="italic" lengthAdjust="spacingAndGlyphs" textLength="113" x="438" y="198.8281">Nasjonalidentifikator</text><line style="stroke: #A80036; stroke-width: 1.5;" x1="346" x2="548" y1="220" y2="220"/><text fill="#000000" font-family="sans-serif" font-size="11" lengthAdjust="spacingAndGlyphs" textLength="192" x="351" y="235.7589">+koordinatsystem : Koordinatsystem</text><text fill="#000000" font-family="sans-serif" font-size="11" lengthAdjust="spacingAndGlyphs" textLength="61" x="351" y="250.7408">+x : decimal</text><text fill="#000000" font-family="sans-serif" font-size="11" lengthAdjust="spacingAndGlyphs" textLength="61" x="351" y="265.7227">+y : decimal</text><text fill="#000000" font-family="sans-serif" font-size="11" lengthAdjust="spacingAndGlyphs" textLength="89" x="351" y="280.7046">+z : decimal [0..1]</text><line style="stroke: #A80036; stroke-width: 1.5;" x1="346" x2="548" y1="287.9276" y2="287.9276"/><!--MD5=[24e93cbd327a761ba0c3a82ef78f3a42]
class Arkivstruktur.NasjonaleIdentifikatorer.Koordinatsystem--><rect fill="#FEFECE" filter="url(#f1wcpjvyzr2nik)" height="88.652" id="Arkivstruktur.NasjonaleIdentifikatorer.Koordinatsystem" style="stroke: #A80036; stroke-width: 1.5;" width="134" x="38" y="539"/><ellipse cx="56.6" cy="560.3441" fill="#ADD1B2" rx="11" ry="11" style="stroke: #A80036; stroke-width: 1.0;"/><path d="M56.0688,567.266 Q54.3188,567.266 53.1781,566.5316 Q52.0531,565.7816 51.4906,564.4379 Q50.9438,563.0785 50.9438,561.2816 Q50.9438,559.2504 51.6,557.7972 Q52.2563,556.3441 53.5375,555.5629 Q54.8188,554.7816 56.6938,554.7816 Q57.5844,554.7816 58.2563,554.9691 Q58.9281,555.141 59.6156,555.4847 L58.8031,557.5004 Q58.1781,557.1879 57.6313,557.0629 Q57.1,556.9379 56.6156,556.9379 Q55.4438,556.9379 54.7406,557.4691 Q54.0375,558.0004 53.7406,558.9535 Q53.4438,559.9066 53.4438,561.1722 Q53.4438,563.1879 54.1625,564.1566 Q54.8813,565.1097 56.475,565.1097 Q57.0688,565.1097 57.6938,564.9535 Q58.3188,564.7972 59.1469,564.4222 L59.1469,566.641 Q58.4125,566.9535 57.6156,567.1097 Q56.8344,567.266 56.0688,567.266 Z "/><text fill="#000000" font-family="sans-serif" font-size="12" font-style="italic" lengthAdjust="spacingAndGlyphs" textLength="52" x="92.4" y="556.8281">«codelist»</text><text fill="#000000" font-family="sans-serif" font-size="12" lengthAdjust="spacingAndGlyphs" textLength="94" x="71.4" y="573.1722">Koordinatsystem</text><line style="stroke: #A80036; stroke-width: 1.5;" x1="39" x2="171" y1="581.6882" y2="581.6882"/><text fill="#000000" font-family="sans-serif" font-size="11" lengthAdjust="spacingAndGlyphs" textLength="122" x="44" y="597.4471">+UTM32N = EPSG:32632</text><text fill="#000000" font-family="sans-serif" font-size="11" lengthAdjust="spacingAndGlyphs" textLength="108" x="44" y="612.429">+WGS84 = EPSG:4326</text><line style="stroke: #A80036; stroke-width: 1.5;" x1="39" x2="171" y1="619.652" y2="619.652"/><!--MD5=[6097d0687047132a233d92935ace3f8b]
link Arkivstruktur.Mappe to Arkivstruktur.Mappe--><path d="M1181.9358,63.2199 C1181.9358,63.2199 1350,57.5 1350,86 C1350,114.5 1262.41,122.17 1183.25,109.02 " fill="none" id="Arkivstruktur.Mappe-Arkivstruktur.Mappe" style="stroke: #A80036; stroke-width: 1.0;"/><polygon fill="#A80036" points="1170.13,106.63,1178.2677,112.1778,1175.0491,107.5259,1179.7011,104.3073,1170.13,106.63" style="stroke: #A80036; stroke-width: 1.0;"/><line style="stroke: #A80036; stroke-width: 1.0;" x1="1175.0491" x2="1182.915" y1="107.5259" y2="108.955"/><polygon fill="#FFFFFF" points="1170.13,65.37,1176.7496,68.2302,1181.9358,63.2199,1175.3162,60.3597,1170.13,65.37" style="stroke: #A80036; stroke-width: 1.0;"/><text fill="#000000" font-family="sans-serif" font-size="13" lengthAdjust="spacingAndGlyphs" textLength="99" x="1177.8989" y="60.3336">+overmappe 0..1</text><text fill="#000000" font-family="sans-serif" font-size="13" lengthAdjust="spacingAndGlyphs" textLength="108" x="1177.8258" y="104.3267">+undermappe 0..*</text><!--MD5=[83690a9042b8a31d1e5dcc803c124627]
link Arkivstruktur.Registrering to Arkivstruktur.Mappe--><path d="M871.14,86 C922.3,86 1025.64,86 1025.64,86 " fill="none" id="Arkivstruktur.Registrering-Arkivstruktur.Mappe" style="stroke: #A80036; stroke-width: 1.0;"/><polygon fill="#FFFFFF" points="1037.64,86,1031.64,82,1025.64,86,1031.64,90,1037.64,86" style="stroke: #A80036; stroke-width: 1.0;"/><polygon fill="#A80036" points="857.79,86,866.79,90,862.79,86,866.79,82,857.79,86" style="stroke: #A80036; stroke-width: 1.0;"/><line style="stroke: #A80036; stroke-width: 1.0;" x1="862.79" x2="870.79" y1="86" y2="86"/><text fill="#000000" font-family="sans-serif" font-size="13" lengthAdjust="spacingAndGlyphs" textLength="100" x="865.3513" y="82.426">+registrering 0..*</text><text fill="#000000" font-family="sans-serif" font-size="13" lengthAdjust="spacingAndGlyphs" textLength="72" x="958.1229" y="82.2987">+mappe 0..1</text><!--MD5=[e345e306a36bfd19e497d4a79ebec921]
link Arkivstruktur.Mappe to Arkivstruktur.NasjonaleIdentifikatorer.Nasjonalidentifikator--><path d="M1070.8806,118.3045 C1070.8806,118.3045 1010.1,175.72 983.04,201.28 " fill="none" id="Arkivstruktur.Mappe-Arkivstruktur.NasjonaleIdentifikatorer.Nasjonalidentifikator" style="stroke: #A80036; stroke-width: 1.0;"/><polygon fill="#A80036" points="973.45,210.34,982.7402,207.0701,977.0857,206.9075,977.2482,201.253,973.45,210.34" style="stroke: #A80036; stroke-width: 1.0;"/><line style="stroke: #A80036; stroke-width: 1.0;" x1="977.0857" x2="982.905" y1="206.9075" y2="201.41"/><polygon fill="#A80036" points="1079.6,110.06,1072.4921,111.2758,1070.8806,118.3045,1077.9885,117.0887,1079.6,110.06" style="stroke: #A80036; stroke-width: 1.0;"/><text fill="#000000" font-family="sans-serif" font-size="13" lengthAdjust="spacingAndGlyphs" textLength="153" x="988.0902" y="163.4309">+nasjonalidentifikator 0..*</text><text fill="#000000" font-family="sans-serif" font-size="13" lengthAdjust="spacingAndGlyphs" textLength="0" x="1066.0902" y="181.1369"/><text fill="#000000" font-family="sans-serif" font-size="13" lengthAdjust="spacingAndGlyphs" textLength="0" x="1066.0902" y="198.8429"/><!--MD5=[7199c5433db66059ba398a38d8001186]
link Arkivstruktur.Registrering to Arkivstruktur.NasjonaleIdentifikatorer.Nasjonalidentifikator--><path d="M810.295,118.2774 C810.295,118.2774 871.48,175.72 898.7,201.28 " fill="none" id="Arkivstruktur.Registrering-Arkivstruktur.NasjonaleIdentifikatorer.Nasjonalidentifikator" style="stroke: #A80036; stroke-width: 1.0;"/><polygon fill="#A80036" points="908.35,210.34,904.5236,201.2648,904.7037,206.9188,899.0497,207.099,908.35,210.34" style="stroke: #A80036; stroke-width: 1.0;"/><line style="stroke: #A80036; stroke-width: 1.0;" x1="904.7037" x2="898.875" y1="206.9188" y2="201.44"/><polygon fill="#A80036" points="801.55,110.06,803.1834,117.0837,810.295,118.2774,808.6616,111.2537,801.55,110.06" style="stroke: #A80036; stroke-width: 1.0;"/><text fill="#000000" font-family="sans-serif" font-size="13" lengthAdjust="spacingAndGlyphs" textLength="153" x="737.272" y="181.1305">+nasjonalidentifikator 0..*</text><text fill="#000000" font-family="sans-serif" font-size="13" lengthAdjust="spacingAndGlyphs" textLength="0" x="815.272" y="198.8365"/><!--MD5=[a7ea4cf2eccf47b0cc3a94560b2d4e3c]
link Arkivstruktur.NasjonaleIdentifikatorer.Posisjon to Arkivstruktur.NasjonaleIdentifikatorer.Nasjonalidentifikator--><path d="M549.27,242 C642.75,242 736.22,242 829.69,242 " fill="none" id="Arkivstruktur.NasjonaleIdentifikatorer.Posisjon-&gt;Arkivstruktur.NasjonaleIdentifikatorer.Nasjonalidentifikator" style="stroke: #A80036; stroke-width: 1.0;"/><polygon fill="none" points="829.95,235,849.95,242,829.95,249,829.95,235" style="stroke: #A80036; stroke-width: 1.0;"/><!--MD5=[d7d8ffaf70aedf29ec6a3de20ba972f4]
reverse link Arkivstruktur.NasjonaleIdentifikatorer.Nasjonalidentifikator to Arkivstruktur.NasjonaleIdentifikatorer.Personidentifikator--><path d="M1052.4,242 C1290.72,242 1529.04,242 1767.36,242 " fill="none" id="Arkivstruktur.NasjonaleIdentifikatorer.Nasjonalidentifikator&lt;-Arkivstruktur.NasjonaleIdentifikatorer.Personidentifikator" style="stroke: #A80036; stroke-width: 1.0;"/><polygon fill="none" points="1052.3,249,1032.3,242,1052.3,235,1052.3,249" style="stroke: #A80036; stroke-width: 1.0;"/><!--MD5=[4feb24aca2b590285c18a5adcb3320a7]
reverse link Arkivstruktur.NasjonaleIdentifikatorer.Personidentifikator to Arkivstruktur.NasjonaleIdentifikatorer.DNummer--><path d="M1895,286.48 C1895,317.4 1895,358.17 1895,385.75 " fill="none" id="Arkivstruktur.NasjonaleIdentifikatorer.Personidentifikator&lt;-Arkivstruktur.NasjonaleIdentifikatorer.DNummer" style="stroke: #A80036; stroke-width: 1.0;"/><polygon fill="none" points="1888,286.04,1895,266.04,1902,286.04,1888,286.04" style="stroke: #A80036; stroke-width: 1.0;"/><!--MD5=[dcf5d8f0696b34b3ee4b2d36277cbbfc]
reverse link Arkivstruktur.NasjonaleIdentifikatorer.Personidentifikator to Arkivstruktur.NasjonaleIdentifikatorer.Foedselsnummer--><path d="M1966.13,274.09 C2038.52,305.72 2150.02,354.45 2221.99,385.91 " fill="none" id="Arkivstruktur.NasjonaleIdentifikatorer.Personidentifikator&lt;-Arkivstruktur.NasjonaleIdentifikatorer.Foedselsnummer" style="stroke: #A80036; stroke-width: 1.0;"/><polygon fill="none" points="1963.24,280.46,1947.72,266.04,1968.85,267.63,1963.24,280.46" style="stroke: #A80036; stroke-width: 1.0;"/><!--MD5=[d576874cf24d57dc445fd08dacd54676]
reverse link Arkivstruktur.NasjonaleIdentifikatorer.Nasjonalidentifikator to Arkivstruktur.NasjonaleIdentifikatorer.Enhetsidentifikator--><path d="M830.57,275.25 C722.11,306.93 557.86,354.91 451.5,385.98 " fill="none" id="Arkivstruktur.NasjonaleIdentifikatorer.Nasjonalidentifikator&lt;-Arkivstruktur.NasjonaleIdentifikatorer.Enhetsidentifikator" style="stroke: #A80036; stroke-width: 1.0;"/><polygon fill="none" points="828.65,268.52,849.81,269.63,832.58,281.96,828.65,268.52" style="stroke: #A80036; stroke-width: 1.0;"/><!--MD5=[d60a90681cc9d37c2f2f3b744cc0092c]
reverse link Arkivstruktur.NasjonaleIdentifikatorer.Nasjonalidentifikator to Arkivstruktur.NasjonaleIdentifikatorer.Bygning--><path d="M1051.8,276.79 C1125.32,299.22 1223.94,329.34 1311,356 C1339.99,364.88 1371.38,374.51 1400.4,383.42 " fill="none" id="Arkivstruktur.NasjonaleIdentifikatorer.Nasjonalidentifikator&lt;-Arkivstruktur.NasjonaleIdentifikatorer.Bygning" style="stroke: #A80036; stroke-width: 1.0;"/><polygon fill="none" points="1049.33,283.36,1032.24,270.82,1053.42,269.96,1049.33,283.36" style="stroke: #A80036; stroke-width: 1.0;"/><!--MD5=[317be2d75d5746b10634db3d17c3ebba]
reverse link Arkivstruktur.NasjonaleIdentifikatorer.Nasjonalidentifikator to Arkivstruktur.NasjonaleIdentifikatorer.Matrikkel--><path d="M893.26,287.53 C871.05,308.25 844.28,333.22 820.23,355.65 " fill="none" id="Arkivstruktur.NasjonaleIdentifikatorer.Nasjonalidentifikator&lt;-Arkivstruktur.NasjonaleIdentifikatorer.Matrikkel" style="stroke: #A80036; stroke-width: 1.0;"/><polygon fill="none" points="888.78,282.14,908.18,273.62,898.32,292.38,888.78,282.14" style="stroke: #A80036; stroke-width: 1.0;"/><!--MD5=[f9e6abefcc54fcb01d8acf7545a3e62a]
reverse link Arkivstruktur.NasjonaleIdentifikatorer.Nasjonalidentifikator to Arkivstruktur.NasjonaleIdentifikatorer.Plan--><path d="M988.72,287.28 C1013.71,310.46 1044.49,339.02 1070.76,363.39 " fill="none" id="Arkivstruktur.NasjonaleIdentifikatorer.Nasjonalidentifikator&lt;-Arkivstruktur.NasjonaleIdentifikatorer.Plan" style="stroke: #A80036; stroke-width: 1.0;"/><polygon fill="none" points="983.9,292.35,974,273.62,993.42,282.09,983.9,292.35" style="stroke: #A80036; stroke-width: 1.0;"/><!--MD5=[052db2b06492fba9bf47a919fc5ae925]
reverse link Arkivstruktur.NasjonaleIdentifikatorer.Posisjon to Arkivstruktur.NasjonaleIdentifikatorer.Koordinatsystem--><!--MD5=[f56176719cdbcc143c558732d4df4bd3]
@startuml
skinparam classAttributeIconSize 0
skinparam nodesep 180

class Arkivstruktur.Mappe <Arkivenhet>
class Arkivstruktur.Registrering <Arkivenhet>
class Arkivstruktur.NasjonaleIdentifikatorer.Bygning <Nasjonalidentifikator> {
  +bygningsnummer : integer
  +endringsloepenummer : integer [0..1]
}
class Arkivstruktur.NasjonaleIdentifikatorer.Enhetsidentifikator <Nasjonalidentifikator> {
  +organisasjonsnummer : string
}
class Arkivstruktur.NasjonaleIdentifikatorer.Matrikkel <Nasjonalidentifikator> {
  +kommunenummer : string
  +gaardsnummer : integer
  +bruksnummer : integer
  +festenummer : integer [0..1]
  +seksjonsnummer : integer [0..1]
}
class Arkivstruktur.NasjonaleIdentifikatorer.Nasjonalidentifikator {
  +systemID : SystemID [0..1] [1..1]
}
class Arkivstruktur.NasjonaleIdentifikatorer.Personidentifikator <Nasjonalidentifikator> {
}
class Arkivstruktur.NasjonaleIdentifikatorer.Foedselsnummer <Personidentifikator> {
  +foedselsnummer : string
}
class Arkivstruktur.NasjonaleIdentifikatorer.DNummer <Personidentifikator> {
  +dNummer : string
}
class Arkivstruktur.NasjonaleIdentifikatorer.Plan <Nasjonalidentifikator> {
  +kommunenummer : string [0..1]
  +fylkesnummer : string [0..1]
  +landkode : Land [0..1]
  +planidentifikasjon : string
}
class Arkivstruktur.NasjonaleIdentifikatorer.Posisjon <Nasjonalidentifikator> {
  +koordinatsystem : Koordinatsystem
  +x : decimal
  +y : decimal
  +z : decimal [0..1]
}
class Arkivstruktur.NasjonaleIdentifikatorer.Koordinatsystem <<codelist>> {
  +UTM32N = EPSG:32632
  +WGS84 = EPSG:4326
}

Arkivstruktur.Mappe "+overmappe 0..1" o- -> "+undermappe 0..*" Arkivstruktur.Mappe
Arkivstruktur.Registrering "+registrering 0..*" <-o "+mappe 0..1" Arkivstruktur.Mappe
Arkivstruktur.Mappe *- -> "+nasjonalidentifikator 0..*\n\n" Arkivstruktur.NasjonaleIdentifikatorer.Nasjonalidentifikator
Arkivstruktur.Registrering *- -> "+nasjonalidentifikator 0..*\n" Arkivstruktur.NasjonaleIdentifikatorer.Nasjonalidentifikator
Arkivstruktur.NasjonaleIdentifikatorer.Posisjon -|> Arkivstruktur.NasjonaleIdentifikatorer.Nasjonalidentifikator
Arkivstruktur.NasjonaleIdentifikatorer.Nasjonalidentifikator <|- Arkivstruktur.NasjonaleIdentifikatorer.Personidentifikator
Arkivstruktur.NasjonaleIdentifikatorer.Personidentifikator <|- - Arkivstruktur.NasjonaleIdentifikatorer.DNummer
Arkivstruktur.NasjonaleIdentifikatorer.Personidentifikator <|- - Arkivstruktur.NasjonaleIdentifikatorer.Foedselsnummer
Arkivstruktur.NasjonaleIdentifikatorer.Nasjonalidentifikator <|- - Arkivstruktur.NasjonaleIdentifikatorer.Enhetsidentifikator
Arkivstruktur.NasjonaleIdentifikatorer.Nasjonalidentifikator <|- - Arkivstruktur.NasjonaleIdentifikatorer.Bygning
Arkivstruktur.NasjonaleIdentifikatorer.Nasjonalidentifikator <|- - Arkivstruktur.NasjonaleIdentifikatorer.Matrikkel
Arkivstruktur.NasjonaleIdentifikatorer.Nasjonalidentifikator <|- - Arkivstruktur.NasjonaleIdentifikatorer.Plan

Arkivstruktur.NasjonaleIdentifikatorer.Posisjon <-[hidden]- - Arkivstruktur.NasjonaleIdentifikatorer.Koordinatsystem
@enduml

PlantUML version 1.2020.02(Sun Mar 01 11:22:07 CET 2020)
(GPL source distribution)
Java Runtime: OpenJDK Runtime Environment
JVM: OpenJDK 64-Bit Server VM
Java Version: 17.0.6+10-Debian-1
Operating System: Linux
Default Encoding: UTF-8
Language: en
Country: US
--></g></svg>