<?xml version="1.0" encoding="UTF-8" standalone="no"?><svg xmlns="http://www.w3.org/2000/svg" xmlns:xlink="http://www.w3.org/1999/xlink" contentScriptType="application/ecmascript" contentStyleType="text/css" height="678px" preserveAspectRatio="none" style="width:1229px;height:678px;" version="1.1" viewBox="0 0 1229 678" width="1229px" zoomAndPan="magnify"><defs><filter height="300%" id="f11txxd236n5j7" width="300%" x="-1" y="-1"><feGaussianBlur result="blurOut" stdDeviation="2.0"/><feColorMatrix in="blurOut" result="blurOut2" type="matrix" values="0 0 0 0 0 0 0 0 0 0 0 0 0 0 0 0 0 0 .4 0"/><feOffset dx="4.0" dy="4.0" in="blurOut2" result="blurOut3"/><feBlend in="SourceGraphic" in2="blurOut3" mode="normal"/></filter></defs><g><!--MD5=[232c485b1f52e07d9ce0910f7499e2a6]
cluster Arkivstruktur--><polygon fill="#FFFFFF" filter="url(#f11txxd236n5j7)" points="41.6,24,142.6,24,149.6,49.0679,405.6,49.0679,405.6,450,41.6,450,41.6,24" style="stroke: #000000; stroke-width: 1.5;"/><line style="stroke: #000000; stroke-width: 1.5;" x1="41.6" x2="149.6" y1="49.0679" y2="49.0679"/><text fill="#000000" font-family="sans-serif" font-size="14" font-weight="bold" lengthAdjust="spacingAndGlyphs" textLength="95" x="45.6" y="40.9659">Arkivstruktur</text><!--MD5=[069ea117d8bb01159729074d99b1e334]
cluster Sakarkiv--><polygon fill="#FFFFFF" filter="url(#f11txxd236n5j7)" points="742.6,240,808.6,240,815.6,265.0679,1207.6,265.0679,1207.6,666,742.6,666,742.6,240" style="stroke: #000000; stroke-width: 1.5;"/><line style="stroke: #000000; stroke-width: 1.5;" x1="742.6" x2="815.6" y1="265.0679" y2="265.0679"/><text fill="#000000" font-family="sans-serif" font-size="14" font-weight="bold" lengthAdjust="spacingAndGlyphs" textLength="60" x="746.6" y="256.9659">Sakarkiv</text><!--MD5=[73df33951f5eee41985998203ae583aa]
class Arkivstruktur.Klasse--><rect fill="#FEFECE" filter="url(#f11txxd236n5j7)" height="48" id="Arkivstruktur.Klasse" style="stroke: #A80036; stroke-width: 1.5;" width="129" x="241.1" y="62"/><ellipse cx="256.1" cy="78" fill="#ADD1B2" rx="11" ry="11" style="stroke: #A80036; stroke-width: 1.0;"/><path d="M255.5688,84.9219 Q253.8188,84.9219 252.6781,84.1875 Q251.5531,83.4375 250.9906,82.0938 Q250.4438,80.7344 250.4438,78.9375 Q250.4438,76.9063 251.1,75.4531 Q251.7563,74 253.0375,73.2188 Q254.3188,72.4375 256.1938,72.4375 Q257.0844,72.4375 257.7563,72.625 Q258.4281,72.7969 259.1156,73.1406 L258.3031,75.1563 Q257.6781,74.8438 257.1313,74.7188 Q256.6,74.5938 256.1156,74.5938 Q254.9438,74.5938 254.2406,75.125 Q253.5375,75.6563 253.2406,76.6094 Q252.9438,77.5625 252.9438,78.8281 Q252.9438,80.8438 253.6625,81.8125 Q254.3813,82.7656 255.975,82.7656 Q256.5688,82.7656 257.1938,82.6094 Q257.8188,82.4531 258.6469,82.0781 L258.6469,84.2969 Q257.9125,84.6094 257.1156,84.7656 Q256.3344,84.9219 255.5688,84.9219 Z "/><text fill="#000000" font-family="sans-serif" font-size="12" lengthAdjust="spacingAndGlyphs" textLength="36" x="270.1" y="82.656">Klasse</text><rect fill="#FFFFFF" height="18.3441" style="stroke: #000000; stroke-width: 1.0; stroke-dasharray: 2.0,2.0;" width="59" x="314.1" y="59"/><text fill="#000000" font-family="sans-serif" font-size="12" font-style="italic" lengthAdjust="spacingAndGlyphs" textLength="57" x="315.1" y="72.8281">Arkivenhet</text><line style="stroke: #A80036; stroke-width: 1.5;" x1="242.1" x2="369.1" y1="94" y2="94"/><line style="stroke: #A80036; stroke-width: 1.5;" x1="242.1" x2="369.1" y1="102" y2="102"/><!--MD5=[7ac5167187dc7f1acc74fcb89e1dc205]
class Arkivstruktur.Mappe--><rect fill="#FEFECE" filter="url(#f11txxd236n5j7)" height="48" id="Arkivstruktur.Mappe" style="stroke: #A80036; stroke-width: 1.5;" width="132" x="239.6" y="170"/><ellipse cx="254.6" cy="186" fill="#ADD1B2" rx="11" ry="11" style="stroke: #A80036; stroke-width: 1.0;"/><path d="M254.0688,192.9219 Q252.3188,192.9219 251.1781,192.1875 Q250.0531,191.4375 249.4906,190.0938 Q248.9438,188.7344 248.9438,186.9375 Q248.9438,184.9063 249.6,183.4531 Q250.2563,182 251.5375,181.2188 Q252.8188,180.4375 254.6938,180.4375 Q255.5844,180.4375 256.2563,180.625 Q256.9281,180.7969 257.6156,181.1406 L256.8031,183.1563 Q256.1781,182.8438 255.6313,182.7188 Q255.1,182.5938 254.6156,182.5938 Q253.4438,182.5938 252.7406,183.125 Q252.0375,183.6563 251.7406,184.6094 Q251.4438,185.5625 251.4438,186.8281 Q251.4438,188.8438 252.1625,189.8125 Q252.8813,190.7656 254.475,190.7656 Q255.0688,190.7656 255.6938,190.6094 Q256.3188,190.4531 257.1469,190.0781 L257.1469,192.2969 Q256.4125,192.6094 255.6156,192.7656 Q254.8344,192.9219 254.0688,192.9219 Z "/><text fill="#000000" font-family="sans-serif" font-size="12" lengthAdjust="spacingAndGlyphs" textLength="39" x="268.6" y="190.656">Mappe</text><rect fill="#FFFFFF" height="18.3441" style="stroke: #000000; stroke-width: 1.0; stroke-dasharray: 2.0,2.0;" width="59" x="315.6" y="167"/><text fill="#000000" font-family="sans-serif" font-size="12" font-style="italic" lengthAdjust="spacingAndGlyphs" textLength="57" x="316.6" y="180.8281">Arkivenhet</text><line style="stroke: #A80036; stroke-width: 1.5;" x1="240.6" x2="370.6" y1="202" y2="202"/><line style="stroke: #A80036; stroke-width: 1.5;" x1="240.6" x2="370.6" y1="210" y2="210"/><!--MD5=[5eeb008ce2ba569ad4cb3c09c2ca4370]
class Arkivstruktur.Registrering--><rect fill="#FEFECE" filter="url(#f11txxd236n5j7)" height="48" id="Arkivstruktur.Registrering" style="stroke: #A80036; stroke-width: 1.5;" width="161" x="154.1" y="278"/><ellipse cx="169.1" cy="294" fill="#ADD1B2" rx="11" ry="11" style="stroke: #A80036; stroke-width: 1.0;"/><path d="M168.5688,300.9219 Q166.8188,300.9219 165.6781,300.1875 Q164.5531,299.4375 163.9906,298.0938 Q163.4438,296.7344 163.4438,294.9375 Q163.4438,292.9063 164.1,291.4531 Q164.7563,290 166.0375,289.2188 Q167.3188,288.4375 169.1938,288.4375 Q170.0844,288.4375 170.7563,288.625 Q171.4281,288.7969 172.1156,289.1406 L171.3031,291.1563 Q170.6781,290.8438 170.1313,290.7188 Q169.6,290.5938 169.1156,290.5938 Q167.9438,290.5938 167.2406,291.125 Q166.5375,291.6563 166.2406,292.6094 Q165.9438,293.5625 165.9438,294.8281 Q165.9438,296.8438 166.6625,297.8125 Q167.3813,298.7656 168.975,298.7656 Q169.5688,298.7656 170.1938,298.6094 Q170.8188,298.4531 171.6469,298.0781 L171.6469,300.2969 Q170.9125,300.6094 170.1156,300.7656 Q169.3344,300.9219 168.5688,300.9219 Z "/><text fill="#000000" font-family="sans-serif" font-size="12" lengthAdjust="spacingAndGlyphs" textLength="68" x="183.1" y="298.656">Registrering</text><rect fill="#FFFFFF" height="18.3441" style="stroke: #000000; stroke-width: 1.0; stroke-dasharray: 2.0,2.0;" width="59" x="259.1" y="275"/><text fill="#000000" font-family="sans-serif" font-size="12" font-style="italic" lengthAdjust="spacingAndGlyphs" textLength="57" x="260.1" y="288.8281">Arkivenhet</text><line style="stroke: #A80036; stroke-width: 1.5;" x1="155.1" x2="314.1" y1="310" y2="310"/><line style="stroke: #A80036; stroke-width: 1.5;" x1="155.1" x2="314.1" y1="318" y2="318"/><!--MD5=[92ed2197edf38a39acf5ab443fdd08de]
class Arkivstruktur.Dokumentbeskrivelse--><rect fill="#FEFECE" filter="url(#f11txxd236n5j7)" height="48" id="Arkivstruktur.Dokumentbeskrivelse" style="stroke: #A80036; stroke-width: 1.5;" width="214" x="57.6" y="386"/><ellipse cx="72.6" cy="402" fill="#ADD1B2" rx="11" ry="11" style="stroke: #A80036; stroke-width: 1.0;"/><path d="M72.0688,408.9219 Q70.3188,408.9219 69.1781,408.1875 Q68.0531,407.4375 67.4906,406.0938 Q66.9438,404.7344 66.9438,402.9375 Q66.9438,400.9063 67.6,399.4531 Q68.2563,398 69.5375,397.2188 Q70.8188,396.4375 72.6938,396.4375 Q73.5844,396.4375 74.2563,396.625 Q74.9281,396.7969 75.6156,397.1406 L74.8031,399.1563 Q74.1781,398.8438 73.6313,398.7188 Q73.1,398.5938 72.6156,398.5938 Q71.4438,398.5938 70.7406,399.125 Q70.0375,399.6563 69.7406,400.6094 Q69.4438,401.5625 69.4438,402.8281 Q69.4438,404.8438 70.1625,405.8125 Q70.8813,406.7656 72.475,406.7656 Q73.0688,406.7656 73.6938,406.6094 Q74.3188,406.4531 75.1469,406.0781 L75.1469,408.2969 Q74.4125,408.6094 73.6156,408.7656 Q72.8344,408.9219 72.0688,408.9219 Z "/><text fill="#000000" font-family="sans-serif" font-size="12" lengthAdjust="spacingAndGlyphs" textLength="121" x="86.6" y="406.656">Dokumentbeskrivelse</text><rect fill="#FFFFFF" height="18.3441" style="stroke: #000000; stroke-width: 1.0; stroke-dasharray: 2.0,2.0;" width="59" x="215.6" y="383"/><text fill="#000000" font-family="sans-serif" font-size="12" font-style="italic" lengthAdjust="spacingAndGlyphs" textLength="57" x="216.6" y="396.8281">Arkivenhet</text><line style="stroke: #A80036; stroke-width: 1.5;" x1="58.6" x2="270.6" y1="418" y2="418"/><line style="stroke: #A80036; stroke-width: 1.5;" x1="58.6" x2="270.6" y1="426" y2="426"/><!--MD5=[d3f949591156db6542fa63b25349ce5f]
class Sakarkiv.Saksmappe--><rect fill="#FEFECE" filter="url(#f11txxd236n5j7)" height="48" id="Sakarkiv.Saksmappe" style="stroke: #A80036; stroke-width: 1.5;" width="138" x="758.6" y="278"/><ellipse cx="773.6" cy="294" fill="#ADD1B2" rx="11" ry="11" style="stroke: #A80036; stroke-width: 1.0;"/><path d="M773.0688,300.9219 Q771.3188,300.9219 770.1781,300.1875 Q769.0531,299.4375 768.4906,298.0938 Q767.9438,296.7344 767.9438,294.9375 Q767.9438,292.9063 768.6,291.4531 Q769.2563,290 770.5375,289.2188 Q771.8188,288.4375 773.6938,288.4375 Q774.5844,288.4375 775.2563,288.625 Q775.9281,288.7969 776.6156,289.1406 L775.8031,291.1563 Q775.1781,290.8438 774.6313,290.7188 Q774.1,290.5938 773.6156,290.5938 Q772.4438,290.5938 771.7406,291.125 Q771.0375,291.6563 770.7406,292.6094 Q770.4438,293.5625 770.4438,294.8281 Q770.4438,296.8438 771.1625,297.8125 Q771.8813,298.7656 773.475,298.7656 Q774.0688,298.7656 774.6938,298.6094 Q775.3188,298.4531 776.1469,298.0781 L776.1469,300.2969 Q775.4125,300.6094 774.6156,300.7656 Q773.8344,300.9219 773.0688,300.9219 Z "/><text fill="#000000" font-family="sans-serif" font-size="12" lengthAdjust="spacingAndGlyphs" textLength="65" x="787.6" y="298.656">Saksmappe</text><rect fill="#FFFFFF" height="18.3441" style="stroke: #000000; stroke-width: 1.0; stroke-dasharray: 2.0,2.0;" width="39" x="860.6" y="275"/><text fill="#000000" font-family="sans-serif" font-size="12" font-style="italic" lengthAdjust="spacingAndGlyphs" textLength="37" x="861.6" y="288.8281">Mappe</text><line style="stroke: #A80036; stroke-width: 1.5;" x1="759.6" x2="895.6" y1="310" y2="310"/><line style="stroke: #A80036; stroke-width: 1.5;" x1="759.6" x2="895.6" y1="318" y2="318"/><!--MD5=[78c3d25fd312ed748fedda403654b48a]
class Sakarkiv.Presedens--><rect fill="#FEFECE" filter="url(#f11txxd236n5j7)" height="48" id="Sakarkiv.Presedens" style="stroke: #A80036; stroke-width: 1.5;" width="91" x="814.1" y="386"/><ellipse cx="829.1" cy="402" fill="#ADD1B2" rx="11" ry="11" style="stroke: #A80036; stroke-width: 1.0;"/><path d="M828.5688,408.9219 Q826.8188,408.9219 825.6781,408.1875 Q824.5531,407.4375 823.9906,406.0938 Q823.4438,404.7344 823.4438,402.9375 Q823.4438,400.9063 824.1,399.4531 Q824.7563,398 826.0375,397.2188 Q827.3188,396.4375 829.1938,396.4375 Q830.0844,396.4375 830.7563,396.625 Q831.4281,396.7969 832.1156,397.1406 L831.3031,399.1563 Q830.6781,398.8438 830.1313,398.7188 Q829.6,398.5938 829.1156,398.5938 Q827.9438,398.5938 827.2406,399.125 Q826.5375,399.6563 826.2406,400.6094 Q825.9438,401.5625 825.9438,402.8281 Q825.9438,404.8438 826.6625,405.8125 Q827.3813,406.7656 828.975,406.7656 Q829.5688,406.7656 830.1938,406.6094 Q830.8188,406.4531 831.6469,406.0781 L831.6469,408.2969 Q830.9125,408.6094 830.1156,408.7656 Q829.3344,408.9219 828.5688,408.9219 Z "/><text fill="#000000" font-family="sans-serif" font-size="12" lengthAdjust="spacingAndGlyphs" textLength="59" x="843.1" y="406.656">Presedens</text><line style="stroke: #A80036; stroke-width: 1.5;" x1="815.1" x2="904.1" y1="418" y2="418"/><line style="stroke: #A80036; stroke-width: 1.5;" x1="815.1" x2="904.1" y1="426" y2="426"/><!--MD5=[2f08e53298f8f090d026427c85b7c44d]
class Sakarkiv.Journalpost--><rect fill="#FEFECE" filter="url(#f11txxd236n5j7)" height="48" id="Sakarkiv.Journalpost" style="stroke: #A80036; stroke-width: 1.5;" width="164" x="758.6" y="494"/><ellipse cx="773.6" cy="510" fill="#ADD1B2" rx="11" ry="11" style="stroke: #A80036; stroke-width: 1.0;"/><path d="M773.0688,516.9219 Q771.3188,516.9219 770.1781,516.1875 Q769.0531,515.4375 768.4906,514.0938 Q767.9438,512.7344 767.9438,510.9375 Q767.9438,508.9063 768.6,507.4531 Q769.2563,506 770.5375,505.2188 Q771.8188,504.4375 773.6938,504.4375 Q774.5844,504.4375 775.2563,504.625 Q775.9281,504.7969 776.6156,505.1406 L775.8031,507.1563 Q775.1781,506.8438 774.6313,506.7188 Q774.1,506.5938 773.6156,506.5938 Q772.4438,506.5938 771.7406,507.125 Q771.0375,507.6563 770.7406,508.6094 Q770.4438,509.5625 770.4438,510.8281 Q770.4438,512.8438 771.1625,513.8125 Q771.8813,514.7656 773.475,514.7656 Q774.0688,514.7656 774.6938,514.6094 Q775.3188,514.4531 776.1469,514.0781 L776.1469,516.2969 Q775.4125,516.6094 774.6156,516.7656 Q773.8344,516.9219 773.0688,516.9219 Z "/><text fill="#000000" font-family="sans-serif" font-size="12" lengthAdjust="spacingAndGlyphs" textLength="63" x="787.6" y="514.656">Journalpost</text><rect fill="#FFFFFF" height="18.3441" style="stroke: #000000; stroke-width: 1.0; stroke-dasharray: 2.0,2.0;" width="67" x="858.6" y="491"/><text fill="#000000" font-family="sans-serif" font-size="12" font-style="italic" lengthAdjust="spacingAndGlyphs" textLength="65" x="859.6" y="504.8281">Registrering</text><line style="stroke: #A80036; stroke-width: 1.5;" x1="759.6" x2="921.6" y1="526" y2="526"/><line style="stroke: #A80036; stroke-width: 1.5;" x1="759.6" x2="921.6" y1="534" y2="534"/><!--MD5=[c6af8ee822666342b688fca195c2130c]
class Sakarkiv.Avskrivning--><rect fill="#FEFECE" filter="url(#f11txxd236n5j7)" height="48" id="Sakarkiv.Avskrivning" style="stroke: #A80036; stroke-width: 1.5;" width="96" x="792.6" y="602"/><ellipse cx="807.6" cy="618" fill="#ADD1B2" rx="11" ry="11" style="stroke: #A80036; stroke-width: 1.0;"/><path d="M807.0688,624.9219 Q805.3188,624.9219 804.1781,624.1875 Q803.0531,623.4375 802.4906,622.0938 Q801.9438,620.7344 801.9438,618.9375 Q801.9438,616.9063 802.6,615.4531 Q803.2563,614 804.5375,613.2188 Q805.8188,612.4375 807.6938,612.4375 Q808.5844,612.4375 809.2563,612.625 Q809.9281,612.7969 810.6156,613.1406 L809.8031,615.1563 Q809.1781,614.8438 808.6313,614.7188 Q808.1,614.5938 807.6156,614.5938 Q806.4438,614.5938 805.7406,615.125 Q805.0375,615.6563 804.7406,616.6094 Q804.4438,617.5625 804.4438,618.8281 Q804.4438,620.8438 805.1625,621.8125 Q805.8813,622.7656 807.475,622.7656 Q808.0688,622.7656 808.6938,622.6094 Q809.3188,622.4531 810.1469,622.0781 L810.1469,624.2969 Q809.4125,624.6094 808.6156,624.7656 Q807.8344,624.9219 807.0688,624.9219 Z "/><text fill="#000000" font-family="sans-serif" font-size="12" lengthAdjust="spacingAndGlyphs" textLength="64" x="821.6" y="622.656">Avskrivning</text><line style="stroke: #A80036; stroke-width: 1.5;" x1="793.6" x2="887.6" y1="634" y2="634"/><line style="stroke: #A80036; stroke-width: 1.5;" x1="793.6" x2="887.6" y1="642" y2="642"/><!--MD5=[a30222b4ad393904ffcccf51b18e072d]
class Sakarkiv.Arkivnotat--><rect fill="#FEFECE" filter="url(#f11txxd236n5j7)" height="48" id="Sakarkiv.Arkivnotat" style="stroke: #A80036; stroke-width: 1.5;" width="89" x="1103.1" y="494"/><ellipse cx="1118.1" cy="510" fill="#ADD1B2" rx="11" ry="11" style="stroke: #A80036; stroke-width: 1.0;"/><path d="M1117.5688,516.9219 Q1115.8188,516.9219 1114.6781,516.1875 Q1113.5531,515.4375 1112.9906,514.0938 Q1112.4438,512.7344 1112.4438,510.9375 Q1112.4438,508.9063 1113.1,507.4531 Q1113.7563,506 1115.0375,505.2188 Q1116.3188,504.4375 1118.1938,504.4375 Q1119.0844,504.4375 1119.7563,504.625 Q1120.4281,504.7969 1121.1156,505.1406 L1120.3031,507.1563 Q1119.6781,506.8438 1119.1313,506.7188 Q1118.6,506.5938 1118.1156,506.5938 Q1116.9438,506.5938 1116.2406,507.125 Q1115.5375,507.6563 1115.2406,508.6094 Q1114.9438,509.5625 1114.9438,510.8281 Q1114.9438,512.8438 1115.6625,513.8125 Q1116.3813,514.7656 1117.975,514.7656 Q1118.5688,514.7656 1119.1938,514.6094 Q1119.8188,514.4531 1120.6469,514.0781 L1120.6469,516.2969 Q1119.9125,516.6094 1119.1156,516.7656 Q1118.3344,516.9219 1117.5688,516.9219 Z "/><text fill="#000000" font-family="sans-serif" font-size="12" lengthAdjust="spacingAndGlyphs" textLength="57" x="1132.1" y="514.656">Arkivnotat</text><line style="stroke: #A80036; stroke-width: 1.5;" x1="1104.1" x2="1191.1" y1="526" y2="526"/><line style="stroke: #A80036; stroke-width: 1.5;" x1="1104.1" x2="1191.1" y1="534" y2="534"/><!--MD5=[7c92048d940987969f852eb2a77c0b2d]
class Sakarkiv.Dokumentflyt--><rect fill="#FEFECE" filter="url(#f11txxd236n5j7)" height="48" id="Sakarkiv.Dokumentflyt" style="stroke: #A80036; stroke-width: 1.5;" width="107" x="1085.1" y="386"/><ellipse cx="1100.1" cy="402" fill="#ADD1B2" rx="11" ry="11" style="stroke: #A80036; stroke-width: 1.0;"/><path d="M1099.5688,408.9219 Q1097.8188,408.9219 1096.6781,408.1875 Q1095.5531,407.4375 1094.9906,406.0938 Q1094.4438,404.7344 1094.4438,402.9375 Q1094.4438,400.9063 1095.1,399.4531 Q1095.7563,398 1097.0375,397.2188 Q1098.3188,396.4375 1100.1938,396.4375 Q1101.0844,396.4375 1101.7563,396.625 Q1102.4281,396.7969 1103.1156,397.1406 L1102.3031,399.1563 Q1101.6781,398.8438 1101.1313,398.7188 Q1100.6,398.5938 1100.1156,398.5938 Q1098.9438,398.5938 1098.2406,399.125 Q1097.5375,399.6563 1097.2406,400.6094 Q1096.9438,401.5625 1096.9438,402.8281 Q1096.9438,404.8438 1097.6625,405.8125 Q1098.3813,406.7656 1099.975,406.7656 Q1100.5688,406.7656 1101.1938,406.6094 Q1101.8188,406.4531 1102.6469,406.0781 L1102.6469,408.2969 Q1101.9125,408.6094 1101.1156,408.7656 Q1100.3344,408.9219 1099.5688,408.9219 Z "/><text fill="#000000" font-family="sans-serif" font-size="12" lengthAdjust="spacingAndGlyphs" textLength="75" x="1114.1" y="406.656">Dokumentflyt</text><line style="stroke: #A80036; stroke-width: 1.5;" x1="1086.1" x2="1191.1" y1="418" y2="418"/><line style="stroke: #A80036; stroke-width: 1.5;" x1="1086.1" x2="1191.1" y1="426" y2="426"/><!--MD5=[fd287b6a3f6d6778f7ec3740783eb550]
link Arkivstruktur.Klasse to Arkivstruktur.Klasse--><path d="M382.2922,70.321 C382.2922,70.321 550.1,66.19 550.1,86 C550.1,105.81 462.38,111.08 383.47,101.83 " fill="none" id="Arkivstruktur.Klasse-Arkivstruktur.Klasse" style="stroke: #A80036; stroke-width: 1.0;"/><polygon fill="#A80036" points="370.39,100.15,378.807,105.2641,375.3492,100.7871,379.8263,97.3293,370.39,100.15" style="stroke: #A80036; stroke-width: 1.0;"/><line style="stroke: #A80036; stroke-width: 1.0;" x1="375.3492" x2="383.28" y1="100.7871" y2="101.805"/><polygon fill="#FFFFFF" points="370.39,71.85,376.8508,75.0529,382.2922,70.321,375.8314,67.1181,370.39,71.85" style="stroke: #A80036; stroke-width: 1.0;"/><text fill="#000000" font-family="sans-serif" font-size="13" lengthAdjust="spacingAndGlyphs" textLength="93" x="378.2151" y="67.1793">+overklasse 0..1</text><text fill="#000000" font-family="sans-serif" font-size="13" lengthAdjust="spacingAndGlyphs" textLength="102" x="378.1696" y="97.4503">+underklasse 0..*</text><!--MD5=[6ad31a2a544e3c283a56919386d2c114]
link Arkivstruktur.Klasse to Arkivstruktur.Mappe--><path d="M305.6,122 C305.6,122 305.6,145.68 305.6,156.36 " fill="none" id="Arkivstruktur.Klasse-Arkivstruktur.Mappe" style="stroke: #A80036; stroke-width: 1.0;"/><polygon fill="#A80036" points="305.6,169.68,309.6,160.68,305.6,164.68,301.6,160.68,305.6,169.68" style="stroke: #A80036; stroke-width: 1.0;"/><line style="stroke: #A80036; stroke-width: 1.0;" x1="305.6" x2="305.6" y1="164.68" y2="156.68"/><polygon fill="#FFFFFF" points="305.6,110,301.6,116,305.6,122,309.6,116,305.6,110" style="stroke: #A80036; stroke-width: 1.0;"/><text fill="#000000" font-family="sans-serif" font-size="13" lengthAdjust="spacingAndGlyphs" textLength="66" x="231.5562" y="131.9049">+klasse 0..1</text><text fill="#000000" font-family="sans-serif" font-size="13" lengthAdjust="spacingAndGlyphs" textLength="72" x="224.375" y="158.2573">+mappe 0..*</text><!--MD5=[6097d0687047132a233d92935ace3f8b]
link Arkivstruktur.Mappe to Arkivstruktur.Mappe--><path d="M383.6255,178.217 C383.6255,178.217 551.6,174.27 551.6,194 C551.6,213.73 464.01,219.04 384.85,209.94 " fill="none" id="Arkivstruktur.Mappe-Arkivstruktur.Mappe" style="stroke: #A80036; stroke-width: 1.0;"/><polygon fill="#A80036" points="371.72,208.28,380.1481,213.3758,376.6806,208.9063,381.1501,205.4388,371.72,208.28" style="stroke: #A80036; stroke-width: 1.0;"/><line style="stroke: #A80036; stroke-width: 1.0;" x1="376.6806" x2="384.62" y1="208.9063" y2="209.905"/><polygon fill="#FFFFFF" points="371.72,179.72,378.1738,182.937,383.6255,178.217,377.1717,175,371.72,179.72" style="stroke: #A80036; stroke-width: 1.0;"/><text fill="#000000" font-family="sans-serif" font-size="13" lengthAdjust="spacingAndGlyphs" textLength="99" x="379.4882" y="175.1102">+overmappe 0..1</text><text fill="#000000" font-family="sans-serif" font-size="13" lengthAdjust="spacingAndGlyphs" textLength="108" x="379.4152" y="205.5699">+undermappe 0..*</text><!--MD5=[e0018cf9e229c618f5d941e2b4482152]
reverse link Arkivstruktur.Mappe to Sakarkiv.Saksmappe--><path d="M391.61,212.47 C494.2,233.3 663.69,267.72 758.29,286.93 " fill="none" id="Arkivstruktur.Mappe&lt;-Sakarkiv.Saksmappe" style="stroke: #A80036; stroke-width: 1.0;"/><polygon fill="none" points="389.92,219.27,371.71,208.42,392.7,205.55,389.92,219.27" style="stroke: #A80036; stroke-width: 1.0;"/><!--MD5=[90bba1ef23cd550ab1e67c0246273f7a]
link Arkivstruktur.Klasse to Sakarkiv.Saksmappe--><path d="M374.21,115.13 C474.37,156.19 760.376,273.4402 760.376,273.4402 " fill="none" id="Arkivstruktur.Klasse-Sakarkiv.Saksmappe" style="stroke: #A80036; stroke-width: 1.0;"/><polygon fill="#FFFFFF" points="771.48,277.99,767.4446,272.0138,760.376,273.4402,764.4114,279.4165,771.48,277.99" style="stroke: #A80036; stroke-width: 1.0;"/><polygon fill="#A80036" points="361.96,110.11,368.7714,117.2237,366.5867,112.0057,371.8046,109.821,361.96,110.11" style="stroke: #A80036; stroke-width: 1.0;"/><line style="stroke: #A80036; stroke-width: 1.0;" x1="366.5867" x2="373.985" y1="112.0057" y2="115.04"/><text fill="#000000" font-family="sans-serif" font-size="13" lengthAdjust="spacingAndGlyphs" textLength="171" x="378.3626" y="127.8184">+sekundaerklassifikasjon 0..*</text><!--MD5=[cfbd302bfd70298b1a7c25aed917507f]
link Sakarkiv.Saksmappe to Sakarkiv.Presedens--><path d="M838.0051,337.4888 C838.0051,337.4888 845.39,361.95 848.72,372.95 " fill="none" id="Sakarkiv.Saksmappe-Sakarkiv.Presedens" style="stroke: #A80036; stroke-width: 1.0;"/><polygon fill="#A80036" points="852.56,385.68,853.7877,375.908,851.1147,380.8934,846.1292,378.2205,852.56,385.68" style="stroke: #A80036; stroke-width: 1.0;"/><line style="stroke: #A80036; stroke-width: 1.0;" x1="851.1147" x2="848.805" y1="380.8934" y2="373.235"/><polygon fill="#FFFFFF" points="834.54,326,832.4429,332.8994,838.0051,337.4888,840.1022,330.5894,834.54,326" style="stroke: #A80036; stroke-width: 1.0;"/><text fill="#000000" font-family="sans-serif" font-size="13" lengthAdjust="spacingAndGlyphs" textLength="50" x="780.1379" y="347.9049">+sak 0..*</text><text fill="#000000" font-family="sans-serif" font-size="13" lengthAdjust="spacingAndGlyphs" textLength="92" x="746.9685" y="374.2573">+presedens 0..*</text><!--MD5=[b06f07ca829b4fead78a2f1a47f4b1ee]
link Arkivstruktur.Mappe to Arkivstruktur.Registrering--><path d="M283.5153,227.9724 C283.5153,227.9724 265.68,254.59 257.6,266.66 " fill="none" id="Arkivstruktur.Mappe-Arkivstruktur.Registrering" style="stroke: #A80036; stroke-width: 1.0;"/><polygon fill="#A80036" points="250.22,277.68,258.5501,272.4256,253.0011,273.5248,251.9019,267.9758,250.22,277.68" style="stroke: #A80036; stroke-width: 1.0;"/><line style="stroke: #A80036; stroke-width: 1.0;" x1="253.0011" x2="257.45" y1="273.5248" y2="266.88"/><polygon fill="#FFFFFF" points="290.19,218,283.5285,220.7613,283.5153,227.9724,290.1768,225.2111,290.19,218" style="stroke: #A80036; stroke-width: 1.0;"/><text fill="#000000" font-family="sans-serif" font-size="13" lengthAdjust="spacingAndGlyphs" textLength="72" x="205.6588" y="239.9049">+mappe 0..1</text><text fill="#000000" font-family="sans-serif" font-size="13" lengthAdjust="spacingAndGlyphs" textLength="100" x="267.0351" y="266.2573">+registrering 0..*</text><!--MD5=[28a2ceb9e6940c79255ac7d60562a8c2]
link Arkivstruktur.Klasse to Arkivstruktur.Registrering--><path d="M229.6129,108.408 C229.6129,108.408 167.02,140.99 149.6,170 C128.84,204.56 160.87,243.16 191.37,269.46 " fill="none" id="Arkivstruktur.Klasse-Arkivstruktur.Registrering" style="stroke: #A80036; stroke-width: 1.0;"/><polygon fill="#A80036" points="201.58,277.88,197.1821,269.0676,197.7227,274.6986,192.0918,275.2393,201.58,277.88" style="stroke: #A80036; stroke-width: 1.0;"/><line style="stroke: #A80036; stroke-width: 1.0;" x1="197.7227" x2="191.555" y1="274.6986" y2="269.61"/><polygon fill="#FFFFFF" points="240.77,103.99,233.7188,102.48,229.6129,108.408,236.6641,109.918,240.77,103.99" style="stroke: #A80036; stroke-width: 1.0;"/><text fill="#000000" font-family="sans-serif" font-size="13" lengthAdjust="spacingAndGlyphs" textLength="66" x="166.9742" y="101.6714">+klasse 0..1</text><text fill="#000000" font-family="sans-serif" font-size="13" lengthAdjust="spacingAndGlyphs" textLength="100" x="79.2684" y="266.1053">+registrering 0..*</text><!--MD5=[639ab7f2aeb9e2ce2f438430a44a4e45]
reverse link Arkivstruktur.Registrering to Sakarkiv.Journalpost--><path d="M318.8,332.74 C440.99,375.88 664.87,454.94 775.37,493.97 " fill="none" id="Arkivstruktur.Registrering&lt;-Sakarkiv.Journalpost" style="stroke: #A80036; stroke-width: 1.0;"/><polygon fill="none" points="316.27,339.26,299.74,326,320.93,326.06,316.27,339.26" style="stroke: #A80036; stroke-width: 1.0;"/><!--MD5=[088e66385af5865b5febf80e04c0503c]
link Sakarkiv.Presedens to Sakarkiv.Journalpost--><path d="M853.17,446.87 C851.22,457.74 846.9023,481.8692 846.9023,481.8692 " fill="none" id="Sakarkiv.Presedens-Sakarkiv.Journalpost" style="stroke: #A80036; stroke-width: 1.0;"/><polygon fill="#FFFFFF" points="844.78,493.68,849.7781,488.482,846.9023,481.8692,841.9042,487.0672,844.78,493.68" style="stroke: #A80036; stroke-width: 1.0;"/><polygon fill="#A80036" points="855.48,434,849.9514,442.1507,854.5957,438.9212,857.8253,443.5656,855.48,434" style="stroke: #A80036; stroke-width: 1.0;"/><line style="stroke: #A80036; stroke-width: 1.0;" x1="854.5957" x2="853.18" y1="438.9212" y2="446.795"/><text fill="#000000" font-family="sans-serif" font-size="13" lengthAdjust="spacingAndGlyphs" textLength="92" x="751.2633" y="455.9049">+presedens 0..*</text><text fill="#000000" font-family="sans-serif" font-size="13" lengthAdjust="spacingAndGlyphs" textLength="99" x="734.1668" y="482.2573">+journalpost 0..*</text><!--MD5=[3de69eabb378473b17ad160888b26a49]
link Sakarkiv.Journalpost to Sakarkiv.Avskrivning--><path d="M840.6,554 C840.6,554 840.6,577.68 840.6,588.36 " fill="none" id="Sakarkiv.Journalpost-Sakarkiv.Avskrivning" style="stroke: #A80036; stroke-width: 1.0;"/><polygon fill="#A80036" points="840.6,601.68,844.6,592.68,840.6,596.68,836.6,592.68,840.6,601.68" style="stroke: #A80036; stroke-width: 1.0;"/><line style="stroke: #A80036; stroke-width: 1.0;" x1="840.6" x2="840.6" y1="596.68" y2="588.68"/><polygon fill="#A80036" points="840.6,542,836.6,548,840.6,554,844.6,548,840.6,542" style="stroke: #A80036; stroke-width: 1.0;"/><text fill="#000000" font-family="sans-serif" font-size="13" lengthAdjust="spacingAndGlyphs" textLength="99" x="729.5344" y="563.9049">+avskrivning 0..*</text><!--MD5=[d35b5c944822433aa3ea1654743eb730]
link Sakarkiv.Dokumentflyt to Sakarkiv.Journalpost--><path d="M1072.42,434.54 C1026.76,450.78 916.7795,489.9082 916.7795,489.9082 " fill="none" id="Sakarkiv.Dokumentflyt-Sakarkiv.Journalpost" style="stroke: #A80036; stroke-width: 1.0;"/><polygon fill="#A80036" points="905.47,493.92,912.462,495.684,916.7795,489.9082,909.7875,488.1443,905.47,493.92" style="stroke: #A80036; stroke-width: 1.0;"/><polygon fill="#A80036" points="1084.98,430.07,1075.1601,429.3156,1080.2688,431.7447,1077.8396,436.8535,1084.98,430.07" style="stroke: #A80036; stroke-width: 1.0;"/><line style="stroke: #A80036; stroke-width: 1.0;" x1="1080.2688" x2="1072.735" y1="431.7447" y2="434.43"/><text fill="#000000" font-family="sans-serif" font-size="13" lengthAdjust="spacingAndGlyphs" textLength="112" x="964.9298" y="427.8426">+dokumentflyt 0..*</text><!--MD5=[8e3fc06a55f7ef4ee7e1e7bf3390e97e]
link Sakarkiv.Dokumentflyt to Sakarkiv.Arkivnotat--><path d="M1141.68,447.34 C1142.6,458.13 1144.6038,481.7231 1144.6038,481.7231 " fill="none" id="Sakarkiv.Dokumentflyt-Sakarkiv.Arkivnotat" style="stroke: #A80036; stroke-width: 1.0;"/><polygon fill="#A80036" points="1145.62,493.68,1149.0975,487.3628,1144.6038,481.7231,1141.1263,488.0403,1145.62,493.68" style="stroke: #A80036; stroke-width: 1.0;"/><polygon fill="#A80036" points="1140.55,434,1137.3257,443.3061,1140.973,438.9821,1145.297,442.6294,1140.55,434" style="stroke: #A80036; stroke-width: 1.0;"/><line style="stroke: #A80036; stroke-width: 1.0;" x1="1140.973" x2="1141.655" y1="438.9821" y2="446.955"/><text fill="#000000" font-family="sans-serif" font-size="13" lengthAdjust="spacingAndGlyphs" textLength="112" x="1015.3753" y="455.9049">+dokumentflyt 0..*</text><!--MD5=[7229a444542d5ba4b44a9ac4e42b4ab4]
link Arkivstruktur.Registrering to Arkivstruktur.Dokumentbeskrivelse--><path d="M212.7902,336.0089 C212.7902,336.0089 195.25,362.59 187.28,374.66 " fill="none" id="Arkivstruktur.Registrering-Arkivstruktur.Dokumentbeskrivelse" style="stroke: #A80036; stroke-width: 1.0;"/><polygon fill="#A80036" points="180,385.68,188.3012,380.38,182.7583,381.5096,181.6286,375.9667,180,385.68" style="stroke: #A80036; stroke-width: 1.0;"/><line style="stroke: #A80036; stroke-width: 1.0;" x1="182.7583" x2="187.165" y1="381.5096" y2="374.83"/><polygon fill="#FFFFFF" points="219.41,326,212.7638,328.7978,212.7902,336.0089,219.4364,333.2111,219.41,326" style="stroke: #A80036; stroke-width: 1.0;"/><text fill="#000000" font-family="sans-serif" font-size="13" lengthAdjust="spacingAndGlyphs" textLength="100" x="103.5199" y="347.9049">+registrering 1..*</text><text fill="#000000" font-family="sans-serif" font-size="13" lengthAdjust="spacingAndGlyphs" textLength="159" x="4.5744" y="374.2573">+dokumentbeskrivelse 0..*</text><!--MD5=[c9d301bdbabf3813b1bdf583e3afb60f]
@startuml
skinparam classAttributeIconSize 0
skinparam nodesep 180

class Arkivstruktur.Klasse <Arkivenhet>
class Arkivstruktur.Mappe <Arkivenhet>
class Arkivstruktur.Registrering <Arkivenhet>
class Arkivstruktur.Dokumentbeskrivelse <Arkivenhet>
class Sakarkiv.Saksmappe <Mappe>
class Sakarkiv.Presedens
class Sakarkiv.Journalpost <Registrering>
class Sakarkiv.Avskrivning
class Sakarkiv.Arkivnotat
class Sakarkiv.Dokumentflyt

Arkivstruktur.Klasse "+overklasse 0..1" o- -> "+underklasse 0..*" Arkivstruktur.Klasse
Arkivstruktur.Klasse "+klasse 0..1" o- -> "+mappe 0..*" Arkivstruktur.Mappe
Arkivstruktur.Mappe "+overmappe 0..1" o- -> "+undermappe 0..*" Arkivstruktur.Mappe
Arkivstruktur.Mappe <|- - Sakarkiv.Saksmappe
Arkivstruktur.Klasse "+sekundaerklassifikasjon 0..*"  <- -o Sakarkiv.Saksmappe
Sakarkiv.Saksmappe "+sak 0..*" o- -> "+presedens 0..*" Sakarkiv.Presedens
Arkivstruktur.Mappe "+mappe 0..1" o- -> "+registrering 0..*" Arkivstruktur.Registrering
Arkivstruktur.Klasse "+klasse 0..1" o- -> "+registrering 0..*" Arkivstruktur.Registrering
Arkivstruktur.Registrering <|- - Sakarkiv.Journalpost
Sakarkiv.Presedens "+presedens 0..*" <- -o "+journalpost 0..*" Sakarkiv.Journalpost
Sakarkiv.Journalpost "+avskrivning 0..*" *- -> Sakarkiv.Avskrivning
Sakarkiv.Dokumentflyt "+dokumentflyt 0..*" <- -* Sakarkiv.Journalpost
Sakarkiv.Dokumentflyt "+dokumentflyt 0..*" <- -* Sakarkiv.Arkivnotat
Arkivstruktur.Registrering "+registrering 1..*" o- -> "+dokumentbeskrivelse 0..*" Arkivstruktur.Dokumentbeskrivelse
@enduml

PlantUML version 1.2020.02(Sun Mar 01 11:22:07 CET 2020)
(GPL source distribution)
Java Runtime: OpenJDK Runtime Environment
JVM: OpenJDK 64-Bit Server VM
Java Version: 17.0.6+10-Debian-1
Operating System: Linux
Default Encoding: UTF-8
Language: en
Country: US
--></g></svg>