<?xml version="1.0" encoding="UTF-8" standalone="no"?><svg xmlns="http://www.w3.org/2000/svg" xmlns:xlink="http://www.w3.org/1999/xlink" contentScriptType="application/ecmascript" contentStyleType="text/css" height="678px" preserveAspectRatio="none" style="width:733px;height:678px;" version="1.1" viewBox="0 0 733 678" width="733px" zoomAndPan="magnify"><defs><filter height="300%" id="f1gifwvlypkiwe" width="300%" x="-1" y="-1"><feGaussianBlur result="blurOut" stdDeviation="2.0"/><feColorMatrix in="blurOut" result="blurOut2" type="matrix" values="0 0 0 0 0 0 0 0 0 0 0 0 0 0 0 0 0 0 .4 0"/><feOffset dx="4.0" dy="4.0" in="blurOut2" result="blurOut3"/><feBlend in="SourceGraphic" in2="blurOut3" mode="normal"/></filter></defs><g><!--MD5=[232c485b1f52e07d9ce0910f7499e2a6]
cluster Arkivstruktur--><polygon fill="#FFFFFF" filter="url(#f1gifwvlypkiwe)" points="22,24,123,24,130,49.0679,588,49.0679,588,666,22,666,22,24" style="stroke: #000000; stroke-width: 1.5;"/><line style="stroke: #000000; stroke-width: 1.5;" x1="22" x2="130" y1="49.0679" y2="49.0679"/><text fill="#000000" font-family="sans-serif" font-size="14" font-weight="bold" lengthAdjust="spacingAndGlyphs" textLength="95" x="26" y="40.9659">Arkivstruktur</text><!--MD5=[eda94d7323bcebfbdddd0a5056cad0ff]
class Arkivstruktur.Arkiv--><rect fill="#FEFECE" filter="url(#f1gifwvlypkiwe)" height="48" id="Arkivstruktur.Arkiv" style="stroke: #A80036; stroke-width: 1.5;" width="121" x="38.5" y="62"/><ellipse cx="53.5" cy="78" fill="#ADD1B2" rx="11" ry="11" style="stroke: #A80036; stroke-width: 1.0;"/><path d="M52.9688,84.9219 Q51.2188,84.9219 50.0781,84.1875 Q48.9531,83.4375 48.3906,82.0938 Q47.8438,80.7344 47.8438,78.9375 Q47.8438,76.9063 48.5,75.4531 Q49.1563,74 50.4375,73.2188 Q51.7188,72.4375 53.5938,72.4375 Q54.4844,72.4375 55.1563,72.625 Q55.8281,72.7969 56.5156,73.1406 L55.7031,75.1563 Q55.0781,74.8438 54.5313,74.7188 Q54,74.5938 53.5156,74.5938 Q52.3438,74.5938 51.6406,75.125 Q50.9375,75.6563 50.6406,76.6094 Q50.3438,77.5625 50.3438,78.8281 Q50.3438,80.8438 51.0625,81.8125 Q51.7813,82.7656 53.375,82.7656 Q53.9688,82.7656 54.5938,82.6094 Q55.2188,82.4531 56.0469,82.0781 L56.0469,84.2969 Q55.3125,84.6094 54.5156,84.7656 Q53.7344,84.9219 52.9688,84.9219 Z "/><text fill="#000000" font-family="sans-serif" font-size="12" lengthAdjust="spacingAndGlyphs" textLength="28" x="67.5" y="82.656">Arkiv</text><rect fill="#FFFFFF" height="18.3441" style="stroke: #000000; stroke-width: 1.0; stroke-dasharray: 2.0,2.0;" width="59" x="103.5" y="59"/><text fill="#000000" font-family="sans-serif" font-size="12" font-style="italic" lengthAdjust="spacingAndGlyphs" textLength="57" x="104.5" y="72.8281">Arkivenhet</text><line style="stroke: #A80036; stroke-width: 1.5;" x1="39.5" x2="158.5" y1="94" y2="94"/><line style="stroke: #A80036; stroke-width: 1.5;" x1="39.5" x2="158.5" y1="102" y2="102"/><!--MD5=[7aad5f711e1ff9ffc23e4b1d771a24c1]
class Arkivstruktur.Arkivdel--><rect fill="#FEFECE" filter="url(#f1gifwvlypkiwe)" height="48" id="Arkivstruktur.Arkivdel" style="stroke: #A80036; stroke-width: 1.5;" width="138" x="76" y="170"/><ellipse cx="91" cy="186" fill="#ADD1B2" rx="11" ry="11" style="stroke: #A80036; stroke-width: 1.0;"/><path d="M90.4688,192.9219 Q88.7188,192.9219 87.5781,192.1875 Q86.4531,191.4375 85.8906,190.0938 Q85.3438,188.7344 85.3438,186.9375 Q85.3438,184.9063 86,183.4531 Q86.6563,182 87.9375,181.2188 Q89.2188,180.4375 91.0938,180.4375 Q91.9844,180.4375 92.6563,180.625 Q93.3281,180.7969 94.0156,181.1406 L93.2031,183.1563 Q92.5781,182.8438 92.0313,182.7188 Q91.5,182.5938 91.0156,182.5938 Q89.8438,182.5938 89.1406,183.125 Q88.4375,183.6563 88.1406,184.6094 Q87.8438,185.5625 87.8438,186.8281 Q87.8438,188.8438 88.5625,189.8125 Q89.2813,190.7656 90.875,190.7656 Q91.4688,190.7656 92.0938,190.6094 Q92.7188,190.4531 93.5469,190.0781 L93.5469,192.2969 Q92.8125,192.6094 92.0156,192.7656 Q91.2344,192.9219 90.4688,192.9219 Z "/><text fill="#000000" font-family="sans-serif" font-size="12" lengthAdjust="spacingAndGlyphs" textLength="45" x="105" y="190.656">Arkivdel</text><rect fill="#FFFFFF" height="18.3441" style="stroke: #000000; stroke-width: 1.0; stroke-dasharray: 2.0,2.0;" width="59" x="158" y="167"/><text fill="#000000" font-family="sans-serif" font-size="12" font-style="italic" lengthAdjust="spacingAndGlyphs" textLength="57" x="159" y="180.8281">Arkivenhet</text><line style="stroke: #A80036; stroke-width: 1.5;" x1="77" x2="213" y1="202" y2="202"/><line style="stroke: #A80036; stroke-width: 1.5;" x1="77" x2="213" y1="210" y2="210"/><!--MD5=[644cbb5ff8138c2f81e04d7f63002f47]
class Arkivstruktur.Klassifikasjonssystem--><rect fill="#FEFECE" filter="url(#f1gifwvlypkiwe)" height="48" id="Arkivstruktur.Klassifikasjonssystem" style="stroke: #A80036; stroke-width: 1.5;" width="214" x="358" y="62"/><ellipse cx="373" cy="78" fill="#ADD1B2" rx="11" ry="11" style="stroke: #A80036; stroke-width: 1.0;"/><path d="M372.4688,84.9219 Q370.7188,84.9219 369.5781,84.1875 Q368.4531,83.4375 367.8906,82.0938 Q367.3438,80.7344 367.3438,78.9375 Q367.3438,76.9063 368,75.4531 Q368.6563,74 369.9375,73.2188 Q371.2188,72.4375 373.0938,72.4375 Q373.9844,72.4375 374.6563,72.625 Q375.3281,72.7969 376.0156,73.1406 L375.2031,75.1563 Q374.5781,74.8438 374.0313,74.7188 Q373.5,74.5938 373.0156,74.5938 Q371.8438,74.5938 371.1406,75.125 Q370.4375,75.6563 370.1406,76.6094 Q369.8438,77.5625 369.8438,78.8281 Q369.8438,80.8438 370.5625,81.8125 Q371.2813,82.7656 372.875,82.7656 Q373.4688,82.7656 374.0938,82.6094 Q374.7188,82.4531 375.5469,82.0781 L375.5469,84.2969 Q374.8125,84.6094 374.0156,84.7656 Q373.2344,84.9219 372.4688,84.9219 Z "/><text fill="#000000" font-family="sans-serif" font-size="12" lengthAdjust="spacingAndGlyphs" textLength="121" x="387" y="82.656">Klassifikasjonssystem</text><rect fill="#FFFFFF" height="18.3441" style="stroke: #000000; stroke-width: 1.0; stroke-dasharray: 2.0,2.0;" width="59" x="516" y="59"/><text fill="#000000" font-family="sans-serif" font-size="12" font-style="italic" lengthAdjust="spacingAndGlyphs" textLength="57" x="517" y="72.8281">Arkivenhet</text><line style="stroke: #A80036; stroke-width: 1.5;" x1="359" x2="571" y1="94" y2="94"/><line style="stroke: #A80036; stroke-width: 1.5;" x1="359" x2="571" y1="102" y2="102"/><!--MD5=[73df33951f5eee41985998203ae583aa]
class Arkivstruktur.Klasse--><rect fill="#FEFECE" filter="url(#f1gifwvlypkiwe)" height="48" id="Arkivstruktur.Klasse" style="stroke: #A80036; stroke-width: 1.5;" width="129" x="412.5" y="170"/><ellipse cx="427.5" cy="186" fill="#ADD1B2" rx="11" ry="11" style="stroke: #A80036; stroke-width: 1.0;"/><path d="M426.9688,192.9219 Q425.2188,192.9219 424.0781,192.1875 Q422.9531,191.4375 422.3906,190.0938 Q421.8438,188.7344 421.8438,186.9375 Q421.8438,184.9063 422.5,183.4531 Q423.1563,182 424.4375,181.2188 Q425.7188,180.4375 427.5938,180.4375 Q428.4844,180.4375 429.1563,180.625 Q429.8281,180.7969 430.5156,181.1406 L429.7031,183.1563 Q429.0781,182.8438 428.5313,182.7188 Q428,182.5938 427.5156,182.5938 Q426.3438,182.5938 425.6406,183.125 Q424.9375,183.6563 424.6406,184.6094 Q424.3438,185.5625 424.3438,186.8281 Q424.3438,188.8438 425.0625,189.8125 Q425.7813,190.7656 427.375,190.7656 Q427.9688,190.7656 428.5938,190.6094 Q429.2188,190.4531 430.0469,190.0781 L430.0469,192.2969 Q429.3125,192.6094 428.5156,192.7656 Q427.7344,192.9219 426.9688,192.9219 Z "/><text fill="#000000" font-family="sans-serif" font-size="12" lengthAdjust="spacingAndGlyphs" textLength="36" x="441.5" y="190.656">Klasse</text><rect fill="#FFFFFF" height="18.3441" style="stroke: #000000; stroke-width: 1.0; stroke-dasharray: 2.0,2.0;" width="59" x="485.5" y="167"/><text fill="#000000" font-family="sans-serif" font-size="12" font-style="italic" lengthAdjust="spacingAndGlyphs" textLength="57" x="486.5" y="180.8281">Arkivenhet</text><line style="stroke: #A80036; stroke-width: 1.5;" x1="413.5" x2="540.5" y1="202" y2="202"/><line style="stroke: #A80036; stroke-width: 1.5;" x1="413.5" x2="540.5" y1="210" y2="210"/><!--MD5=[7ac5167187dc7f1acc74fcb89e1dc205]
class Arkivstruktur.Mappe--><rect fill="#FEFECE" filter="url(#f1gifwvlypkiwe)" height="48" id="Arkivstruktur.Mappe" style="stroke: #A80036; stroke-width: 1.5;" width="132" x="230" y="278"/><ellipse cx="245" cy="294" fill="#ADD1B2" rx="11" ry="11" style="stroke: #A80036; stroke-width: 1.0;"/><path d="M244.4688,300.9219 Q242.7188,300.9219 241.5781,300.1875 Q240.4531,299.4375 239.8906,298.0938 Q239.3438,296.7344 239.3438,294.9375 Q239.3438,292.9063 240,291.4531 Q240.6563,290 241.9375,289.2188 Q243.2188,288.4375 245.0938,288.4375 Q245.9844,288.4375 246.6563,288.625 Q247.3281,288.7969 248.0156,289.1406 L247.2031,291.1563 Q246.5781,290.8438 246.0313,290.7188 Q245.5,290.5938 245.0156,290.5938 Q243.8438,290.5938 243.1406,291.125 Q242.4375,291.6563 242.1406,292.6094 Q241.8438,293.5625 241.8438,294.8281 Q241.8438,296.8438 242.5625,297.8125 Q243.2813,298.7656 244.875,298.7656 Q245.4688,298.7656 246.0938,298.6094 Q246.7188,298.4531 247.5469,298.0781 L247.5469,300.2969 Q246.8125,300.6094 246.0156,300.7656 Q245.2344,300.9219 244.4688,300.9219 Z "/><text fill="#000000" font-family="sans-serif" font-size="12" lengthAdjust="spacingAndGlyphs" textLength="39" x="259" y="298.656">Mappe</text><rect fill="#FFFFFF" height="18.3441" style="stroke: #000000; stroke-width: 1.0; stroke-dasharray: 2.0,2.0;" width="59" x="306" y="275"/><text fill="#000000" font-family="sans-serif" font-size="12" font-style="italic" lengthAdjust="spacingAndGlyphs" textLength="57" x="307" y="288.8281">Arkivenhet</text><line style="stroke: #A80036; stroke-width: 1.5;" x1="231" x2="361" y1="310" y2="310"/><line style="stroke: #A80036; stroke-width: 1.5;" x1="231" x2="361" y1="318" y2="318"/><!--MD5=[5eeb008ce2ba569ad4cb3c09c2ca4370]
class Arkivstruktur.Registrering--><rect fill="#FEFECE" filter="url(#f1gifwvlypkiwe)" height="48" id="Arkivstruktur.Registrering" style="stroke: #A80036; stroke-width: 1.5;" width="161" x="215.5" y="386"/><ellipse cx="230.5" cy="402" fill="#ADD1B2" rx="11" ry="11" style="stroke: #A80036; stroke-width: 1.0;"/><path d="M229.9688,408.9219 Q228.2188,408.9219 227.0781,408.1875 Q225.9531,407.4375 225.3906,406.0938 Q224.8438,404.7344 224.8438,402.9375 Q224.8438,400.9063 225.5,399.4531 Q226.1563,398 227.4375,397.2188 Q228.7188,396.4375 230.5938,396.4375 Q231.4844,396.4375 232.1563,396.625 Q232.8281,396.7969 233.5156,397.1406 L232.7031,399.1563 Q232.0781,398.8438 231.5313,398.7188 Q231,398.5938 230.5156,398.5938 Q229.3438,398.5938 228.6406,399.125 Q227.9375,399.6563 227.6406,400.6094 Q227.3438,401.5625 227.3438,402.8281 Q227.3438,404.8438 228.0625,405.8125 Q228.7813,406.7656 230.375,406.7656 Q230.9688,406.7656 231.5938,406.6094 Q232.2188,406.4531 233.0469,406.0781 L233.0469,408.2969 Q232.3125,408.6094 231.5156,408.7656 Q230.7344,408.9219 229.9688,408.9219 Z "/><text fill="#000000" font-family="sans-serif" font-size="12" lengthAdjust="spacingAndGlyphs" textLength="68" x="244.5" y="406.656">Registrering</text><rect fill="#FFFFFF" height="18.3441" style="stroke: #000000; stroke-width: 1.0; stroke-dasharray: 2.0,2.0;" width="59" x="320.5" y="383"/><text fill="#000000" font-family="sans-serif" font-size="12" font-style="italic" lengthAdjust="spacingAndGlyphs" textLength="57" x="321.5" y="396.8281">Arkivenhet</text><line style="stroke: #A80036; stroke-width: 1.5;" x1="216.5" x2="375.5" y1="418" y2="418"/><line style="stroke: #A80036; stroke-width: 1.5;" x1="216.5" x2="375.5" y1="426" y2="426"/><!--MD5=[92ed2197edf38a39acf5ab443fdd08de]
class Arkivstruktur.Dokumentbeskrivelse--><rect fill="#FEFECE" filter="url(#f1gifwvlypkiwe)" height="48" id="Arkivstruktur.Dokumentbeskrivelse" style="stroke: #A80036; stroke-width: 1.5;" width="214" x="189" y="494"/><ellipse cx="204" cy="510" fill="#ADD1B2" rx="11" ry="11" style="stroke: #A80036; stroke-width: 1.0;"/><path d="M203.4688,516.9219 Q201.7188,516.9219 200.5781,516.1875 Q199.4531,515.4375 198.8906,514.0938 Q198.3438,512.7344 198.3438,510.9375 Q198.3438,508.9063 199,507.4531 Q199.6563,506 200.9375,505.2188 Q202.2188,504.4375 204.0938,504.4375 Q204.9844,504.4375 205.6563,504.625 Q206.3281,504.7969 207.0156,505.1406 L206.2031,507.1563 Q205.5781,506.8438 205.0313,506.7188 Q204.5,506.5938 204.0156,506.5938 Q202.8438,506.5938 202.1406,507.125 Q201.4375,507.6563 201.1406,508.6094 Q200.8438,509.5625 200.8438,510.8281 Q200.8438,512.8438 201.5625,513.8125 Q202.2813,514.7656 203.875,514.7656 Q204.4688,514.7656 205.0938,514.6094 Q205.7188,514.4531 206.5469,514.0781 L206.5469,516.2969 Q205.8125,516.6094 205.0156,516.7656 Q204.2344,516.9219 203.4688,516.9219 Z "/><text fill="#000000" font-family="sans-serif" font-size="12" lengthAdjust="spacingAndGlyphs" textLength="121" x="218" y="514.656">Dokumentbeskrivelse</text><rect fill="#FFFFFF" height="18.3441" style="stroke: #000000; stroke-width: 1.0; stroke-dasharray: 2.0,2.0;" width="59" x="347" y="491"/><text fill="#000000" font-family="sans-serif" font-size="12" font-style="italic" lengthAdjust="spacingAndGlyphs" textLength="57" x="348" y="504.8281">Arkivenhet</text><line style="stroke: #A80036; stroke-width: 1.5;" x1="190" x2="402" y1="526" y2="526"/><line style="stroke: #A80036; stroke-width: 1.5;" x1="190" x2="402" y1="534" y2="534"/><!--MD5=[29d823b28f6505dc34d33e3bc54abc2a]
class Arkivstruktur.Dokumentobjekt--><rect fill="#FEFECE" filter="url(#f1gifwvlypkiwe)" height="48" id="Arkivstruktur.Dokumentobjekt" style="stroke: #A80036; stroke-width: 1.5;" width="124" x="234" y="602"/><ellipse cx="249" cy="618" fill="#ADD1B2" rx="11" ry="11" style="stroke: #A80036; stroke-width: 1.0;"/><path d="M248.4688,624.9219 Q246.7188,624.9219 245.5781,624.1875 Q244.4531,623.4375 243.8906,622.0938 Q243.3438,620.7344 243.3438,618.9375 Q243.3438,616.9063 244,615.4531 Q244.6563,614 245.9375,613.2188 Q247.2188,612.4375 249.0938,612.4375 Q249.9844,612.4375 250.6563,612.625 Q251.3281,612.7969 252.0156,613.1406 L251.2031,615.1563 Q250.5781,614.8438 250.0313,614.7188 Q249.5,614.5938 249.0156,614.5938 Q247.8438,614.5938 247.1406,615.125 Q246.4375,615.6563 246.1406,616.6094 Q245.8438,617.5625 245.8438,618.8281 Q245.8438,620.8438 246.5625,621.8125 Q247.2813,622.7656 248.875,622.7656 Q249.4688,622.7656 250.0938,622.6094 Q250.7188,622.4531 251.5469,622.0781 L251.5469,624.2969 Q250.8125,624.6094 250.0156,624.7656 Q249.2344,624.9219 248.4688,624.9219 Z "/><text fill="#000000" font-family="sans-serif" font-size="12" lengthAdjust="spacingAndGlyphs" textLength="92" x="263" y="622.656">Dokumentobjekt</text><line style="stroke: #A80036; stroke-width: 1.5;" x1="235" x2="357" y1="634" y2="634"/><line style="stroke: #A80036; stroke-width: 1.5;" x1="235" x2="357" y1="642" y2="642"/><!--MD5=[29d64fc64afc34b5201b2a737db2e1f6]
link Arkivstruktur.Arkiv to Arkivstruktur.Arkiv--><path d="M171.5817,70.6816 C171.5817,70.6816 339.5,65.94 339.5,86 C339.5,106.06 251.03,111.21 172.67,101.47 " fill="none" id="Arkivstruktur.Arkiv-Arkivstruktur.Arkiv" style="stroke: #A80036; stroke-width: 1.0;"/><polygon fill="#A80036" points="159.69,99.71,168.0727,104.8802,164.6449,100.3802,169.1449,96.9524,159.69,99.71" style="stroke: #A80036; stroke-width: 1.0;"/><line style="stroke: #A80036; stroke-width: 1.0;" x1="164.6449" x2="172.57" y1="100.3802" y2="101.46"/><polygon fill="#FFFFFF" points="159.69,72.29,166.172,75.4497,171.5817,70.6816,165.0997,67.5219,159.69,72.29" style="stroke: #A80036; stroke-width: 1.0;"/><text fill="#000000" font-family="sans-serif" font-size="13" lengthAdjust="spacingAndGlyphs" textLength="86" x="167.6288" y="67.5136">+overarkiv 0..1</text><text fill="#000000" font-family="sans-serif" font-size="13" lengthAdjust="spacingAndGlyphs" textLength="95" x="167.6352" y="97.0155">+underarkiv 0..*</text><!--MD5=[66dd975cb8377914d38b775c7372bfad]
link Arkivstruktur.Arkiv to Arkivstruktur.Arkivdel--><path d="M113.7642,121.0051 C113.7642,121.0051 124.59,145.98 129.56,157.42 " fill="none" id="Arkivstruktur.Arkiv-Arkivstruktur.Arkivdel" style="stroke: #A80036; stroke-width: 1.0;"/><polygon fill="#A80036" points="134.88,169.68,134.9701,159.8316,132.8912,165.0926,127.6302,163.0136,134.88,169.68" style="stroke: #A80036; stroke-width: 1.0;"/><line style="stroke: #A80036; stroke-width: 1.0;" x1="132.8912" x2="129.705" y1="165.0926" y2="157.75"/><polygon fill="#FFFFFF" points="108.98,110,107.7038,117.0973,113.7642,121.0051,115.0405,113.9078,108.98,110" style="stroke: #A80036; stroke-width: 1.0;"/><text fill="#000000" font-family="sans-serif" font-size="13" lengthAdjust="spacingAndGlyphs" textLength="46" x="59.8064" y="131.9049">+arkiv 1</text><text fill="#000000" font-family="sans-serif" font-size="13" lengthAdjust="spacingAndGlyphs" textLength="77" x="48.3079" y="140.3843">+arkivdel 0..*</text><text fill="#000000" font-family="sans-serif" font-size="13" lengthAdjust="spacingAndGlyphs" textLength="0" x="88.3079" y="158.0903"/><!--MD5=[069a32e0e51b02052f96e869b7fd9959]
link Arkivstruktur.Klassifikasjonssystem to Arkivstruktur.Arkivdel--><path d="M344.73,108.46 C281.79,124.64 169.0367,165.0828 169.0367,165.0828 " fill="none" id="Arkivstruktur.Klassifikasjonssystem-Arkivstruktur.Arkivdel" style="stroke: #A80036; stroke-width: 1.0;"/><polygon fill="#FFFFFF" points="158.02,169.84,165.1141,171.1336,169.0367,165.0828,161.9426,163.7891,158.02,169.84" style="stroke: #A80036; stroke-width: 1.0;"/><polygon fill="#A80036" points="357.57,105.22,347.8641,103.5481,352.7225,106.4456,349.8251,111.3041,357.57,105.22" style="stroke: #A80036; stroke-width: 1.0;"/><line style="stroke: #A80036; stroke-width: 1.0;" x1="352.7225" x2="344.965" y1="106.4456" y2="108.4"/><text fill="#000000" font-family="sans-serif" font-size="13" lengthAdjust="spacingAndGlyphs" textLength="160" x="190.2485" y="102.5496">+klassifikasjonssystem  0..1</text><text fill="#000000" font-family="sans-serif" font-size="13" lengthAdjust="spacingAndGlyphs" textLength="77" x="171.866" y="158.0545">+arkivdel 1..*</text><!--MD5=[069a32e0e51b02052f96e869b7fd9959]
link Arkivstruktur.Klassifikasjonssystem to Arkivstruktur.Arkivdel--><path d="M440.11,115.28 C388.77,136.6 225.9496,180.9867 225.9496,180.9867 " fill="none" id="Arkivstruktur.Klassifikasjonssystem-Arkivstruktur.Arkivdel-1" style="stroke: #A80036; stroke-width: 1.0;"/><polygon fill="#FFFFFF" points="214.22,183.52,220.9292,186.1632,225.9496,180.9867,219.2404,178.3435,214.22,183.52" style="stroke: #A80036; stroke-width: 1.0;"/><polygon fill="#A80036" points="452.35,110,442.5017,109.9,447.7606,111.9842,445.6763,117.2431,452.35,110" style="stroke: #A80036; stroke-width: 1.0;"/><line style="stroke: #A80036; stroke-width: 1.0;" x1="447.7606" x2="440.415" y1="111.9842" y2="115.155"/><text fill="#000000" font-family="sans-serif" font-size="13" lengthAdjust="spacingAndGlyphs" textLength="223" x="199.0884" y="131.9049">+sekundaerklassifikasjonssystem  0..1</text><!--MD5=[8417ef12fd0c6c0adaf88fb9c070fb71]
link Arkivstruktur.Klassifikasjonssystem to Arkivstruktur.Klasse--><path d="M468.9454,121.9243 C468.9454,121.9243 471.67,145.94 472.89,156.72 " fill="none" id="Arkivstruktur.Klassifikasjonssystem-Arkivstruktur.Klasse" style="stroke: #A80036; stroke-width: 1.0;"/><polygon fill="#A80036" points="474.36,169.68,477.3257,160.2883,473.7994,164.7115,469.3761,161.1852,474.36,169.68" style="stroke: #A80036; stroke-width: 1.0;"/><line style="stroke: #A80036; stroke-width: 1.0;" x1="473.7994" x2="472.9" y1="164.7115" y2="156.76"/><polygon fill="#FFFFFF" points="467.6,110,464.2979,116.4106,468.9454,121.9243,472.2475,115.5137,467.6,110" style="stroke: #A80036; stroke-width: 1.0;"/><text fill="#000000" font-family="sans-serif" font-size="13" lengthAdjust="spacingAndGlyphs" textLength="157" x="487.3681" y="131.9049">+klassifikasjonssystem 0..1</text><text fill="#000000" font-family="sans-serif" font-size="13" lengthAdjust="spacingAndGlyphs" textLength="66" x="399.2273" y="158.2573">+klasse 0..*</text><!--MD5=[fd287b6a3f6d6778f7ec3740783eb550]
link Arkivstruktur.Klasse to Arkivstruktur.Klasse--><path d="M553.6922,178.321 C553.6922,178.321 721.5,174.19 721.5,194 C721.5,213.81 633.78,219.08 554.87,209.83 " fill="none" id="Arkivstruktur.Klasse-Arkivstruktur.Klasse" style="stroke: #A80036; stroke-width: 1.0;"/><polygon fill="#A80036" points="541.79,208.15,550.207,213.2641,546.7492,208.7871,551.2263,205.3293,541.79,208.15" style="stroke: #A80036; stroke-width: 1.0;"/><line style="stroke: #A80036; stroke-width: 1.0;" x1="546.7492" x2="554.69" y1="208.7871" y2="209.805"/><polygon fill="#FFFFFF" points="541.79,179.85,548.2508,183.0529,553.6922,178.321,547.2314,175.1181,541.79,179.85" style="stroke: #A80036; stroke-width: 1.0;"/><text fill="#000000" font-family="sans-serif" font-size="13" lengthAdjust="spacingAndGlyphs" textLength="93" x="549.6151" y="175.1793">+overklasse 0..1</text><text fill="#000000" font-family="sans-serif" font-size="13" lengthAdjust="spacingAndGlyphs" textLength="102" x="549.5696" y="205.4503">+underklasse 0..*</text><!--MD5=[6ad31a2a544e3c283a56919386d2c114]
link Arkivstruktur.Klasse to Arkivstruktur.Mappe--><path d="M427.3733,224.0612 C427.3733,224.0612 371.71,256.66 346.89,271.2 " fill="none" id="Arkivstruktur.Klasse-Arkivstruktur.Mappe" style="stroke: #A80036; stroke-width: 1.0;"/><polygon fill="#A80036" points="335.51,277.86,345.2973,276.7609,339.8239,275.3321,341.2527,269.8587,335.51,277.86" style="stroke: #A80036; stroke-width: 1.0;"/><line style="stroke: #A80036; stroke-width: 1.0;" x1="339.8239" x2="346.73" y1="275.3321" y2="271.295"/><polygon fill="#FFFFFF" points="437.73,218,430.5312,217.5784,427.3733,224.0612,434.572,224.4828,437.73,218" style="stroke: #A80036; stroke-width: 1.0;"/><text fill="#000000" font-family="sans-serif" font-size="13" lengthAdjust="spacingAndGlyphs" textLength="66" x="354.1142" y="239.9049">+klasse 0..1</text><text fill="#000000" font-family="sans-serif" font-size="13" lengthAdjust="spacingAndGlyphs" textLength="72" x="264.4533" y="266.0799">+mappe 0..*</text><!--MD5=[b06f07ca829b4fead78a2f1a47f4b1ee]
link Arkivstruktur.Mappe to Arkivstruktur.Registrering--><path d="M296,338 C296,338 296,361.68 296,372.36 " fill="none" id="Arkivstruktur.Mappe-Arkivstruktur.Registrering" style="stroke: #A80036; stroke-width: 1.0;"/><polygon fill="#A80036" points="296,385.68,300,376.68,296,380.68,292,376.68,296,385.68" style="stroke: #A80036; stroke-width: 1.0;"/><line style="stroke: #A80036; stroke-width: 1.0;" x1="296" x2="296" y1="380.68" y2="372.68"/><polygon fill="#FFFFFF" points="296,326,292,332,296,338,300,332,296,326" style="stroke: #A80036; stroke-width: 1.0;"/><text fill="#000000" font-family="sans-serif" font-size="13" lengthAdjust="spacingAndGlyphs" textLength="72" x="215.225" y="347.9049">+mappe 0..1</text><text fill="#000000" font-family="sans-serif" font-size="13" lengthAdjust="spacingAndGlyphs" textLength="100" x="308.8125" y="374.2573">+registrering 0..*</text><!--MD5=[6097d0687047132a233d92935ace3f8b]
link Arkivstruktur.Mappe to Arkivstruktur.Mappe--><path d="M374.0355,286.217 C374.0355,286.217 542,282.27 542,302 C542,321.73 454.41,327.04 375.25,317.94 " fill="none" id="Arkivstruktur.Mappe-Arkivstruktur.Mappe" style="stroke: #A80036; stroke-width: 1.0;"/><polygon fill="#A80036" points="362.13,316.28,370.5581,321.3758,367.0906,316.9063,371.5601,313.4388,362.13,316.28" style="stroke: #A80036; stroke-width: 1.0;"/><line style="stroke: #A80036; stroke-width: 1.0;" x1="367.0906" x2="375.02" y1="316.9063" y2="317.905"/><polygon fill="#FFFFFF" points="362.13,287.72,368.5838,290.937,374.0355,286.217,367.5817,283,362.13,287.72" style="stroke: #A80036; stroke-width: 1.0;"/><text fill="#000000" font-family="sans-serif" font-size="13" lengthAdjust="spacingAndGlyphs" textLength="99" x="369.8989" y="283.1102">+overmappe 0..1</text><text fill="#000000" font-family="sans-serif" font-size="13" lengthAdjust="spacingAndGlyphs" textLength="108" x="369.8258" y="313.5699">+undermappe 0..*</text><!--MD5=[28a2ceb9e6940c79255ac7d60562a8c2]
link Arkivstruktur.Klasse to Arkivstruktur.Registrering--><path d="M484.2322,229.883 C484.2322,229.883 488.61,298.18 470,326 C451.11,354.24 419.84,373.14 388.97,385.66 " fill="none" id="Arkivstruktur.Klasse-Arkivstruktur.Registrering" style="stroke: #A80036; stroke-width: 1.0;"/><polygon fill="#A80036" points="376.73,390.31,386.5637,390.856,381.4046,388.5357,383.7249,383.3766,376.73,390.31" style="stroke: #A80036; stroke-width: 1.0;"/><line style="stroke: #A80036; stroke-width: 1.0;" x1="381.4046" x2="388.885" y1="388.5357" y2="385.695"/><polygon fill="#FFFFFF" points="482.36,218.03,479.3451,224.5806,484.2322,229.883,487.2471,223.3324,482.36,218.03" style="stroke: #A80036; stroke-width: 1.0;"/><text fill="#000000" font-family="sans-serif" font-size="13" lengthAdjust="spacingAndGlyphs" textLength="66" x="491.7103" y="239.9422">+klasse 0..1</text><text fill="#000000" font-family="sans-serif" font-size="13" lengthAdjust="spacingAndGlyphs" textLength="100" x="384.6964" y="385.5107">+registrering 0..*</text><!--MD5=[57d927562c16722c9a3c2dd11583f921]
link Arkivstruktur.Arkivdel to Arkivstruktur.Arkivdel--><path d="M226.0637,177.9835 C226.0637,177.9835 394,174.44 394,194 C394,213.56 306.91,218.95 227.35,210.17 " fill="none" id="Arkivstruktur.Arkivdel-Arkivstruktur.Arkivdel" style="stroke: #A80036; stroke-width: 1.0;"/><polygon fill="#A80036" points="214.15,208.58,222.6064,213.6286,219.114,209.1785,223.5641,205.6861,214.15,208.58" style="stroke: #A80036; stroke-width: 1.0;"/><line style="stroke: #A80036; stroke-width: 1.0;" x1="219.114" x2="227.055" y1="209.1785" y2="210.14"/><polygon fill="#FFFFFF" points="214.15,179.42,220.5857,182.673,226.0637,177.9835,219.628,174.7305,214.15,179.42" style="stroke: #A80036; stroke-width: 1.0;"/><text fill="#000000" font-family="sans-serif" font-size="13" lengthAdjust="spacingAndGlyphs" textLength="103" x="221.8791" y="192.9501">nestearkivdel 0..1</text><text fill="#000000" font-family="sans-serif" font-size="13" lengthAdjust="spacingAndGlyphs" textLength="110" x="222.1034" y="223.9782">forrigearkivdel 0..1</text><!--MD5=[4da2275cba6d22010c2bc4a73c7ab889]
link Arkivstruktur.Arkivdel to Arkivstruktur.Registrering--><path d="M133.8686,229.7903 C133.8686,229.7903 122.88,297.5 140,326 C154.59,350.29 178.96,367.86 204.16,380.39 " fill="none" id="Arkivstruktur.Arkivdel-Arkivstruktur.Registrering" style="stroke: #A80036; stroke-width: 1.0;"/><polygon fill="#A80036" points="216.15,385.98,209.6785,378.5557,211.617,383.8701,206.3026,385.8086,216.15,385.98" style="stroke: #A80036; stroke-width: 1.0;"/><line style="stroke: #A80036; stroke-width: 1.0;" x1="211.617" x2="204.37" y1="383.8701" y2="380.495"/><polygon fill="#FFFFFF" points="136.94,218.19,131.5375,222.9663,133.8686,229.7903,139.271,225.0139,136.94,218.19" style="stroke: #A80036; stroke-width: 1.0;"/><text fill="#000000" font-family="sans-serif" font-size="13" lengthAdjust="spacingAndGlyphs" textLength="77" x="49.173" y="239.7282">+arkivdel 0..1</text><text fill="#000000" font-family="sans-serif" font-size="13" lengthAdjust="spacingAndGlyphs" textLength="103" x="104.3249" y="362.1012">+registrering  0..*</text><text fill="#000000" font-family="sans-serif" font-size="13" lengthAdjust="spacingAndGlyphs" textLength="0" x="157.3249" y="379.8072"/><!--MD5=[103e55f9778739f9d4b7631e3f306756]
link Arkivstruktur.Arkivdel to Arkivstruktur.Mappe--><path d="M187.5771,224.901 C187.5771,224.901 232.31,256.29 252.34,270.35 " fill="none" id="Arkivstruktur.Arkivdel-Arkivstruktur.Mappe" style="stroke: #A80036; stroke-width: 1.0;"/><polygon fill="#A80036" points="263.04,277.86,257.9722,269.4151,258.9477,274.9872,253.3756,275.9627,263.04,277.86" style="stroke: #A80036; stroke-width: 1.0;"/><line style="stroke: #A80036; stroke-width: 1.0;" x1="258.9477" x2="252.395" y1="274.9872" y2="270.395"/><polygon fill="#FFFFFF" points="177.76,218,180.3682,224.7229,187.5771,224.901,184.9689,218.1781,177.76,218" style="stroke: #A80036; stroke-width: 1.0;"/><text fill="#000000" font-family="sans-serif" font-size="13" lengthAdjust="spacingAndGlyphs" textLength="0" x="139.6658" y="239.8472"/><text fill="#000000" font-family="sans-serif" font-size="13" lengthAdjust="spacingAndGlyphs" textLength="77" x="99.6658" y="257.5532">+arkivdel 0..1</text><text fill="#000000" font-family="sans-serif" font-size="13" lengthAdjust="spacingAndGlyphs" textLength="75" x="169.1039" y="266.0799">+mappe  0..*</text><!--MD5=[7229a444542d5ba4b44a9ac4e42b4ab4]
link Arkivstruktur.Registrering to Arkivstruktur.Dokumentbeskrivelse--><path d="M296,446 C296,446 296,469.68 296,480.36 " fill="none" id="Arkivstruktur.Registrering-Arkivstruktur.Dokumentbeskrivelse" style="stroke: #A80036; stroke-width: 1.0;"/><polygon fill="#A80036" points="296,493.68,300,484.68,296,488.68,292,484.68,296,493.68" style="stroke: #A80036; stroke-width: 1.0;"/><line style="stroke: #A80036; stroke-width: 1.0;" x1="296" x2="296" y1="488.68" y2="480.68"/><polygon fill="#FFFFFF" points="296,434,292,440,296,446,300,440,296,434" style="stroke: #A80036; stroke-width: 1.0;"/><text fill="#000000" font-family="sans-serif" font-size="13" lengthAdjust="spacingAndGlyphs" textLength="100" x="183.8125" y="455.9049">+registrering 1..*</text><text fill="#000000" font-family="sans-serif" font-size="13" lengthAdjust="spacingAndGlyphs" textLength="159" x="116.6281" y="482.2573">+dokumentbeskrivelse 0..*</text><!--MD5=[3c1d46d3ec9a10498f4ac252d9564b36]
link Arkivstruktur.Dokumentbeskrivelse to Arkivstruktur.Dokumentobjekt--><path d="M296,554 C296,554 296,577.68 296,588.36 " fill="none" id="Arkivstruktur.Dokumentbeskrivelse-Arkivstruktur.Dokumentobjekt" style="stroke: #A80036; stroke-width: 1.0;"/><polygon fill="#A80036" points="296,601.68,300,592.68,296,596.68,292,592.68,296,601.68" style="stroke: #A80036; stroke-width: 1.0;"/><line style="stroke: #A80036; stroke-width: 1.0;" x1="296" x2="296" y1="596.68" y2="588.68"/><polygon fill="#FFFFFF" points="296,542,292,548,296,554,300,548,296,542" style="stroke: #A80036; stroke-width: 1.0;"/><text fill="#000000" font-family="sans-serif" font-size="13" lengthAdjust="spacingAndGlyphs" textLength="146" x="132.2063" y="563.9049">+dokumentbeskrivelse 1</text><text fill="#000000" font-family="sans-serif" font-size="13" lengthAdjust="spacingAndGlyphs" textLength="131" x="148.2156" y="590.2573">+dokumentobjekt 0..*</text><!--MD5=[dbeb64037687c95f7f3fcdc138de1e48]
@startuml
skinparam classAttributeIconSize 0
skinparam nodesep 180

class Arkivstruktur.Arkiv <Arkivenhet>
class Arkivstruktur.Arkivdel <Arkivenhet>
class Arkivstruktur.Klassifikasjonssystem <Arkivenhet>
class Arkivstruktur.Klasse <Arkivenhet>
class Arkivstruktur.Mappe <Arkivenhet>
class Arkivstruktur.Registrering <Arkivenhet>
class Arkivstruktur.Dokumentbeskrivelse <Arkivenhet>
class Arkivstruktur.Dokumentobjekt

Arkivstruktur.Arkiv "+overarkiv 0..1" o- -> "+underarkiv 0..*" Arkivstruktur.Arkiv
Arkivstruktur.Arkiv "+arkiv 1" o- -> "+arkivdel 0..*\n" Arkivstruktur.Arkivdel
Arkivstruktur.Klassifikasjonssystem "+klassifikasjonssystem  0..1" <-o "+arkivdel 1..*" Arkivstruktur.Arkivdel
Arkivstruktur.Klassifikasjonssystem "+sekundaerklassifikasjonssystem  0..1" <-o Arkivstruktur.Arkivdel
Arkivstruktur.Klassifikasjonssystem "+klassifikasjonssystem 0..1" o- -> "+klasse 0..*" Arkivstruktur.Klasse
Arkivstruktur.Klasse "+overklasse 0..1" o-> "+underklasse 0..*" Arkivstruktur.Klasse
Arkivstruktur.Klasse "+klasse 0..1" o- -> "+mappe 0..*" Arkivstruktur.Mappe
Arkivstruktur.Mappe "+mappe 0..1" o- -> "+registrering 0..*" Arkivstruktur.Registrering
Arkivstruktur.Mappe "+overmappe 0..1" o- -> "+undermappe 0..*" Arkivstruktur.Mappe
Arkivstruktur.Klasse "+klasse 0..1" o- -> "+registrering 0..*" Arkivstruktur.Registrering
Arkivstruktur.Arkivdel "nestearkivdel 0..1" o- -> "forrigearkivdel 0..1" Arkivstruktur.Arkivdel
Arkivstruktur.Arkivdel "+arkivdel 0..1" o- -> "+registrering  0..*\n" Arkivstruktur.Registrering
Arkivstruktur.Arkivdel "\n+arkivdel 0..1" o- -> "+mappe  0..*" Arkivstruktur.Mappe
Arkivstruktur.Registrering "+registrering 1..*" o- -> "+dokumentbeskrivelse 0..*" Arkivstruktur.Dokumentbeskrivelse
Arkivstruktur.Dokumentbeskrivelse "+dokumentbeskrivelse 1" o- -> "+dokumentobjekt 0..*" Arkivstruktur.Dokumentobjekt
@enduml

PlantUML version 1.2020.02(Sun Mar 01 11:22:07 CET 2020)
(GPL source distribution)
Java Runtime: OpenJDK Runtime Environment
JVM: OpenJDK 64-Bit Server VM
Java Version: 17.0.6+10-Debian-1
Operating System: Linux
Default Encoding: UTF-8
Language: en
Country: US
--></g></svg>