<?xml version="1.0" encoding="UTF-8" standalone="no"?><svg xmlns="http://www.w3.org/2000/svg" xmlns:xlink="http://www.w3.org/1999/xlink" contentScriptType="application/ecmascript" contentStyleType="text/css" height="668px" preserveAspectRatio="none" style="width:614px;height:668px;" version="1.1" viewBox="0 0 614 668" width="614px" zoomAndPan="magnify"><defs><filter height="300%" id="fac1jnvcr7m8h" width="300%" x="-1" y="-1"><feGaussianBlur result="blurOut" stdDeviation="2.0"/><feColorMatrix in="blurOut" result="blurOut2" type="matrix" values="0 0 0 0 0 0 0 0 0 0 0 0 0 0 0 0 0 0 .4 0"/><feOffset dx="4.0" dy="4.0" in="blurOut2" result="blurOut3"/><feBlend in="SourceGraphic" in2="blurOut3" mode="normal"/></filter></defs><g><!--MD5=[232c485b1f52e07d9ce0910f7499e2a6]
cluster Arkivstruktur--><polygon fill="#FFFFFF" filter="url(#fac1jnvcr7m8h)" points="22,252,123,252,130,277.0679,304,277.0679,304,459,22,459,22,252" style="stroke: #000000; stroke-width: 1.5;"/><line style="stroke: #000000; stroke-width: 1.5;" x1="22" x2="130" y1="277.0679" y2="277.0679"/><text fill="#000000" font-family="sans-serif" font-size="14" font-weight="bold" lengthAdjust="spacingAndGlyphs" textLength="95" x="26" y="268.9659">Arkivstruktur</text><!--MD5=[fae53719828d8975cada50749df5e1ce]
cluster LoggingOgSporing--><polygon fill="#FFFFFF" filter="url(#fac1jnvcr7m8h)" points="328,24,465,24,472,49.0679,592,49.0679,592,429,328,429,328,24" style="stroke: #000000; stroke-width: 1.5;"/><line style="stroke: #000000; stroke-width: 1.5;" x1="328" x2="472" y1="49.0679" y2="49.0679"/><text fill="#000000" font-family="sans-serif" font-size="14" font-weight="bold" lengthAdjust="spacingAndGlyphs" textLength="131" x="332" y="40.9659">LoggingOgSporing</text><!--MD5=[68eac0387a028fbb729470faa528465a]
cluster Kodelister--><polygon fill="#FFFFFF" filter="url(#fac1jnvcr7m8h)" points="381,483,457,483,464,508.0679,523,508.0679,523,656,381,656,381,483" style="stroke: #000000; stroke-width: 1.5;"/><line style="stroke: #000000; stroke-width: 1.5;" x1="381" x2="464" y1="508.0679" y2="508.0679"/><text fill="#000000" font-family="sans-serif" font-size="14" font-weight="bold" lengthAdjust="spacingAndGlyphs" textLength="70" x="385" y="499.9659">Kodelister</text><!--MD5=[5361e6f8e145469a00ddfe2005186efd]
class Arkivstruktur.Arkivenhet--><rect fill="#FEFECE" filter="url(#fac1jnvcr7m8h)" height="152.8732" id="Arkivstruktur.Arkivenhet" style="stroke: #A80036; stroke-width: 1.5;" width="249" x="38.5" y="290"/><ellipse cx="128.75" cy="306" fill="#ADD1B2" rx="11" ry="11" style="stroke: #A80036; stroke-width: 1.0;"/><path d="M128.2188,312.9219 Q126.4688,312.9219 125.3281,312.1875 Q124.2031,311.4375 123.6406,310.0938 Q123.0938,308.7344 123.0938,306.9375 Q123.0938,304.9063 123.75,303.4531 Q124.4063,302 125.6875,301.2188 Q126.9688,300.4375 128.8438,300.4375 Q129.7344,300.4375 130.4063,300.625 Q131.0781,300.7969 131.7656,301.1406 L130.9531,303.1563 Q130.3281,302.8438 129.7813,302.7188 Q129.25,302.5938 128.7656,302.5938 Q127.5938,302.5938 126.8906,303.125 Q126.1875,303.6563 125.8906,304.6094 Q125.5938,305.5625 125.5938,306.8281 Q125.5938,308.8438 126.3125,309.8125 Q127.0313,310.7656 128.625,310.7656 Q129.2188,310.7656 129.8438,310.6094 Q130.4688,310.4531 131.2969,310.0781 L131.2969,312.2969 Q130.5625,312.6094 129.7656,312.7656 Q128.9844,312.9219 128.2188,312.9219 Z "/><text fill="#000000" font-family="sans-serif" font-size="12" lengthAdjust="spacingAndGlyphs" textLength="60" x="149.25" y="310.656">Arkivenhet</text><line style="stroke: #A80036; stroke-width: 1.5;" x1="39.5" x2="286.5" y1="322" y2="322"/><text fill="#000000" font-family="sans-serif" font-size="11" lengthAdjust="spacingAndGlyphs" textLength="170" x="44.5" y="337.7589">+systemID : SystemID [0..1] [1..1]</text><text fill="#000000" font-family="sans-serif" font-size="11" lengthAdjust="spacingAndGlyphs" textLength="150" x="44.5" y="352.7408">+endretDato : datetime [0..1]</text><text fill="#000000" font-family="sans-serif" font-size="11" lengthAdjust="spacingAndGlyphs" textLength="194" x="44.5" y="367.7227">+opprettetDato : datetime [0..1] [1..1]</text><text fill="#000000" font-family="sans-serif" font-size="11" lengthAdjust="spacingAndGlyphs" textLength="167" x="44.5" y="382.7046">+opprettetAv : string [0..1] [1..1]</text><text fill="#000000" font-family="sans-serif" font-size="11" lengthAdjust="spacingAndGlyphs" textLength="152" x="44.5" y="397.6865">+endretAv : string [0..1] [1..1]</text><text fill="#000000" font-family="sans-serif" font-size="11" lengthAdjust="spacingAndGlyphs" textLength="220" x="44.5" y="412.6684">+referanseEndretAv : SystemID [0..1] [1..1]</text><text fill="#000000" font-family="sans-serif" font-size="11" lengthAdjust="spacingAndGlyphs" textLength="237" x="44.5" y="427.6502">+referanseOpprettetAv : SystemID [0..1] [1..1]</text><line style="stroke: #A80036; stroke-width: 1.5;" x1="39.5" x2="286.5" y1="434.8732" y2="434.8732"/><!--MD5=[5f0344ec513b1fc7836a789fba495278]
class LoggingOgSporing.Endringslogg--><rect fill="#FEFECE" filter="url(#fac1jnvcr7m8h)" height="167.8551" id="LoggingOgSporing.Endringslogg" style="stroke: #A80036; stroke-width: 1.5;" width="232" x="344" y="62"/><ellipse cx="419.25" cy="78" fill="#ADD1B2" rx="11" ry="11" style="stroke: #A80036; stroke-width: 1.0;"/><path d="M418.7188,84.9219 Q416.9688,84.9219 415.8281,84.1875 Q414.7031,83.4375 414.1406,82.0938 Q413.5938,80.7344 413.5938,78.9375 Q413.5938,76.9063 414.25,75.4531 Q414.9063,74 416.1875,73.2188 Q417.4688,72.4375 419.3438,72.4375 Q420.2344,72.4375 420.9063,72.625 Q421.5781,72.7969 422.2656,73.1406 L421.4531,75.1563 Q420.8281,74.8438 420.2813,74.7188 Q419.75,74.5938 419.2656,74.5938 Q418.0938,74.5938 417.3906,75.125 Q416.6875,75.6563 416.3906,76.6094 Q416.0938,77.5625 416.0938,78.8281 Q416.0938,80.8438 416.8125,81.8125 Q417.5313,82.7656 419.125,82.7656 Q419.7188,82.7656 420.3438,82.6094 Q420.9688,82.4531 421.7969,82.0781 L421.7969,84.2969 Q421.0625,84.6094 420.2656,84.7656 Q419.4844,84.9219 418.7188,84.9219 Z "/><text fill="#000000" font-family="sans-serif" font-size="12" lengthAdjust="spacingAndGlyphs" textLength="73" x="439.75" y="82.656">Endringslogg</text><line style="stroke: #A80036; stroke-width: 1.5;" x1="345" x2="575" y1="94" y2="94"/><text fill="#000000" font-family="sans-serif" font-size="11" lengthAdjust="spacingAndGlyphs" textLength="170" x="350" y="109.7589">+systemID : SystemID [0..1] [1..1]</text><text fill="#000000" font-family="sans-serif" font-size="11" lengthAdjust="spacingAndGlyphs" textLength="200" x="350" y="124.7408">+referanseArkivenhet : SystemID [0..1]</text><text fill="#000000" font-family="sans-serif" font-size="11" lengthAdjust="spacingAndGlyphs" textLength="174" x="350" y="139.7227">+referanseMetadata : string [0..1]</text><text fill="#000000" font-family="sans-serif" font-size="11" lengthAdjust="spacingAndGlyphs" textLength="179" x="350" y="154.7046">+endretDato : datetime [0..1] [1..1]</text><text fill="#000000" font-family="sans-serif" font-size="11" lengthAdjust="spacingAndGlyphs" textLength="152" x="350" y="169.6865">+endretAv : string [0..1] [1..1]</text><text fill="#000000" font-family="sans-serif" font-size="11" lengthAdjust="spacingAndGlyphs" textLength="220" x="350" y="184.6684">+referanseEndretAv : SystemID [0..1] [1..1]</text><text fill="#000000" font-family="sans-serif" font-size="11" lengthAdjust="spacingAndGlyphs" textLength="147" x="350" y="199.6502">+tidligereVerdi : string [0..1]</text><text fill="#000000" font-family="sans-serif" font-size="11" lengthAdjust="spacingAndGlyphs" textLength="116" x="350" y="214.6321">+nyVerdi : string [0..1]</text><line style="stroke: #A80036; stroke-width: 1.5;" x1="345" x2="575" y1="221.8551" y2="221.8551"/><!--MD5=[2ba520c76cf4982898023b199abde661]
class LoggingOgSporing.Hendelseslogg--><rect fill="#FEFECE" filter="url(#fac1jnvcr7m8h)" height="92.9457" id="LoggingOgSporing.Hendelseslogg" style="stroke: #A80036; stroke-width: 1.5;" width="203" x="350.5" y="320"/><ellipse cx="371.35" cy="336" fill="#ADD1B2" rx="11" ry="11" style="stroke: #A80036; stroke-width: 1.0;"/><path d="M370.8188,342.9219 Q369.0688,342.9219 367.9281,342.1875 Q366.8031,341.4375 366.2406,340.0938 Q365.6938,338.7344 365.6938,336.9375 Q365.6938,334.9063 366.35,333.4531 Q367.0063,332 368.2875,331.2188 Q369.5688,330.4375 371.4438,330.4375 Q372.3344,330.4375 373.0063,330.625 Q373.6781,330.7969 374.3656,331.1406 L373.5531,333.1563 Q372.9281,332.8438 372.3813,332.7188 Q371.85,332.5938 371.3656,332.5938 Q370.1938,332.5938 369.4906,333.125 Q368.7875,333.6563 368.4906,334.6094 Q368.1938,335.5625 368.1938,336.8281 Q368.1938,338.8438 368.9125,339.8125 Q369.6313,340.7656 371.225,340.7656 Q371.8188,340.7656 372.4438,340.6094 Q373.0688,340.4531 373.8969,340.0781 L373.8969,342.2969 Q373.1625,342.6094 372.3656,342.7656 Q371.5844,342.9219 370.8188,342.9219 Z "/><text fill="#000000" font-family="sans-serif" font-size="12" lengthAdjust="spacingAndGlyphs" textLength="83" x="386.65" y="340.656">Hendelseslogg</text><rect fill="#FFFFFF" height="18.3441" style="stroke: #000000; stroke-width: 1.0; stroke-dasharray: 2.0,2.0;" width="73" x="483.5" y="317"/><text fill="#000000" font-family="sans-serif" font-size="12" font-style="italic" lengthAdjust="spacingAndGlyphs" textLength="71" x="484.5" y="330.8281">Endringslogg</text><line style="stroke: #A80036; stroke-width: 1.5;" x1="351.5" x2="552.5" y1="352" y2="352"/><text fill="#000000" font-family="sans-serif" font-size="11" lengthAdjust="spacingAndGlyphs" textLength="156" x="356.5" y="367.7589">+hendelsetype : Hendelsetype</text><text fill="#000000" font-family="sans-serif" font-size="11" lengthAdjust="spacingAndGlyphs" textLength="133" x="356.5" y="382.7408">+beskrivelse : string [0..1]</text><text fill="#000000" font-family="sans-serif" font-size="11" lengthAdjust="spacingAndGlyphs" textLength="191" x="356.5" y="397.7227">+hendelseDato : datetime [0..1] [1..1]</text><line style="stroke: #A80036; stroke-width: 1.5;" x1="351.5" x2="552.5" y1="404.9457" y2="404.9457"/><!--MD5=[333ed201fa7103c246a2d95835e1e714]
class Kodelister.Hendelsetype--><rect fill="#FEFECE" filter="url(#fac1jnvcr7m8h)" height="118.6158" id="Kodelister.Hendelsetype" style="stroke: #A80036; stroke-width: 1.5;" width="109" x="397.5" y="521"/><ellipse cx="412.5" cy="542.3441" fill="#ADD1B2" rx="11" ry="11" style="stroke: #A80036; stroke-width: 1.0;"/><path d="M411.9688,549.266 Q410.2188,549.266 409.0781,548.5316 Q407.9531,547.7816 407.3906,546.4379 Q406.8438,545.0785 406.8438,543.2816 Q406.8438,541.2504 407.5,539.7972 Q408.1563,538.3441 409.4375,537.5629 Q410.7188,536.7816 412.5938,536.7816 Q413.4844,536.7816 414.1563,536.9691 Q414.8281,537.141 415.5156,537.4847 L414.7031,539.5004 Q414.0781,539.1879 413.5313,539.0629 Q413,538.9379 412.5156,538.9379 Q411.3438,538.9379 410.6406,539.4691 Q409.9375,540.0004 409.6406,540.9535 Q409.3438,541.9066 409.3438,543.1722 Q409.3438,545.1879 410.0625,546.1566 Q410.7813,547.1097 412.375,547.1097 Q412.9688,547.1097 413.5938,546.9535 Q414.2188,546.7972 415.0469,546.4222 L415.0469,548.641 Q414.3125,548.9535 413.5156,549.1097 Q412.7344,549.266 411.9688,549.266 Z "/><text fill="#000000" font-family="sans-serif" font-size="12" font-style="italic" lengthAdjust="spacingAndGlyphs" textLength="52" x="439" y="538.8281">«codelist»</text><text fill="#000000" font-family="sans-serif" font-size="12" lengthAdjust="spacingAndGlyphs" textLength="77" x="426.5" y="555.1722">Hendelsetype</text><line style="stroke: #A80036; stroke-width: 1.5;" x1="398.5" x2="505.5" y1="563.6882" y2="563.6882"/><text fill="#000000" font-family="sans-serif" font-size="11" lengthAdjust="spacingAndGlyphs" textLength="77" x="403.5" y="579.4471">+Opprettet = C</text><text fill="#000000" font-family="sans-serif" font-size="11" lengthAdjust="spacingAndGlyphs" textLength="46" x="403.5" y="594.429">+Lest = R</text><text fill="#000000" font-family="sans-serif" font-size="11" lengthAdjust="spacingAndGlyphs" textLength="61" x="403.5" y="609.4109">+Endret = U</text><text fill="#000000" font-family="sans-serif" font-size="11" lengthAdjust="spacingAndGlyphs" textLength="59" x="403.5" y="624.3928">+Slettet = D</text><line style="stroke: #A80036; stroke-width: 1.5;" x1="398.5" x2="505.5" y1="631.6158" y2="631.6158"/><!--MD5=[beed085d5fd681cff38a53fb440d63ac]
reverse link LoggingOgSporing.Endringslogg to LoggingOgSporing.Hendelseslogg--><path d="M456.21,250.48 C455.32,274.81 454.42,299.54 453.67,319.79 " fill="none" id="LoggingOgSporing.Endringslogg&lt;-LoggingOgSporing.Hendelseslogg" style="stroke: #A80036; stroke-width: 1.0;"/><polygon fill="none" points="449.23,249.96,456.95,230.23,463.22,250.47,449.23,249.96" style="stroke: #A80036; stroke-width: 1.0;"/><!--MD5=[7b94f1cfb072a8c1e4a293a2e32f4b03]
reverse link Arkivstruktur.Arkivenhet to LoggingOgSporing.Hendelseslogg--><path d="M300.94,366.5 C317.39,366.5 333.85,366.5 350.3,366.5 " fill="none" id="Arkivstruktur.Arkivenhet&lt;-LoggingOgSporing.Hendelseslogg" style="stroke: #A80036; stroke-width: 1.0;"/><polygon fill="#FFFFFF" points="287.74,366.5,293.74,370.5,299.74,366.5,293.74,362.5,287.74,366.5" style="stroke: #A80036; stroke-width: 1.0;"/><text fill="#000000" font-family="sans-serif" font-size="13" lengthAdjust="spacingAndGlyphs" textLength="20" x="295.5297" y="362.9297">0..1</text><text fill="#000000" font-family="sans-serif" font-size="13" lengthAdjust="spacingAndGlyphs" textLength="50" x="292.5792" y="380.9381">logg 0..*</text><!--MD5=[6ea6913140f9de87646cd51ec6e6840c]
link LoggingOgSporing.Hendelseslogg to Kodelister.Hendelsetype--><!--MD5=[f3839e4551e840f80402d94350f9cc19]
@startuml
skinparam classAttributeIconSize 0
class Arkivstruktur.Arkivenhet {
  +systemID : SystemID [0..1] [1..1]
  +endretDato : datetime [0..1]
  +opprettetDato : datetime [0..1] [1..1]
  +opprettetAv : string [0..1] [1..1]
  +endretAv : string [0..1] [1..1]
  +referanseEndretAv : SystemID [0..1] [1..1]
  +referanseOpprettetAv : SystemID [0..1] [1..1]
}
class LoggingOgSporing.Endringslogg {
  +systemID : SystemID [0..1] [1..1]
  +referanseArkivenhet : SystemID [0..1]
  +referanseMetadata : string [0..1]
  +endretDato : datetime [0..1] [1..1]
  +endretAv : string [0..1] [1..1]
  +referanseEndretAv : SystemID [0..1] [1..1]
  +tidligereVerdi : string [0..1]
  +nyVerdi : string [0..1]
}
class LoggingOgSporing.Hendelseslogg <Endringslogg> {
  +hendelsetype : Hendelsetype
  +beskrivelse : string [0..1]
  +hendelseDato : datetime [0..1] [1..1]
}
class Kodelister.Hendelsetype <<codelist>> {
  +Opprettet = C
  +Lest = R
  +Endret = U
  +Slettet = D
}
LoggingOgSporing.Endringslogg <|- - LoggingOgSporing.Hendelseslogg
Arkivstruktur.Arkivenhet "0..1" o- "logg 0..*" LoggingOgSporing.Hendelseslogg
LoggingOgSporing.Hendelseslogg -[hidden]- Kodelister.Hendelsetype
@enduml

PlantUML version 1.2020.02(Sun Mar 01 11:22:07 CET 2020)
(GPL source distribution)
Java Runtime: OpenJDK Runtime Environment
JVM: OpenJDK 64-Bit Server VM
Java Version: 17.0.6+10-Debian-1
Operating System: Linux
Default Encoding: UTF-8
Language: en
Country: US
--></g></svg>