<?xml version="1.0" encoding="UTF-8" standalone="no"?><svg xmlns="http://www.w3.org/2000/svg" xmlns:xlink="http://www.w3.org/1999/xlink" contentScriptType="application/ecmascript" contentStyleType="text/css" height="570px" preserveAspectRatio="none" style="width:1590px;height:570px;" version="1.1" viewBox="0 0 1590 570" width="1590px" zoomAndPan="magnify"><defs><filter height="300%" id="f17yp7u3tdwm1l" width="300%" x="-1" y="-1"><feGaussianBlur result="blurOut" stdDeviation="2.0"/><feColorMatrix in="blurOut" result="blurOut2" type="matrix" values="0 0 0 0 0 0 0 0 0 0 0 0 0 0 0 0 0 0 .4 0"/><feOffset dx="4.0" dy="4.0" in="blurOut2" result="blurOut3"/><feBlend in="SourceGraphic" in2="blurOut3" mode="normal"/></filter></defs><g><!--MD5=[232c485b1f52e07d9ce0910f7499e2a6]
cluster Arkivstruktur--><polygon fill="#FFFFFF" filter="url(#f17yp7u3tdwm1l)" points="22,24,123,24,130,49.0679,725,49.0679,725,450,22,450,22,24" style="stroke: #000000; stroke-width: 1.5;"/><line style="stroke: #000000; stroke-width: 1.5;" x1="22" x2="130" y1="49.0679" y2="49.0679"/><text fill="#000000" font-family="sans-serif" font-size="14" font-weight="bold" lengthAdjust="spacingAndGlyphs" textLength="95" x="26" y="40.9659">Arkivstruktur</text><!--MD5=[069ea117d8bb01159729074d99b1e334]
cluster Sakarkiv--><polygon fill="#FFFFFF" filter="url(#f17yp7u3tdwm1l)" points="1034,132,1100,132,1107,157.0679,1568,157.0679,1568,558,1034,558,1034,132" style="stroke: #000000; stroke-width: 1.5;"/><line style="stroke: #000000; stroke-width: 1.5;" x1="1034" x2="1107" y1="157.0679" y2="157.0679"/><text fill="#000000" font-family="sans-serif" font-size="14" font-weight="bold" lengthAdjust="spacingAndGlyphs" textLength="60" x="1038" y="148.9659">Sakarkiv</text><!--MD5=[7ac5167187dc7f1acc74fcb89e1dc205]
class Arkivstruktur.Mappe--><rect fill="#FEFECE" filter="url(#f17yp7u3tdwm1l)" height="48" id="Arkivstruktur.Mappe" style="stroke: #A80036; stroke-width: 1.5;" width="132" x="235" y="62"/><ellipse cx="250" cy="78" fill="#ADD1B2" rx="11" ry="11" style="stroke: #A80036; stroke-width: 1.0;"/><path d="M249.4688,84.9219 Q247.7188,84.9219 246.5781,84.1875 Q245.4531,83.4375 244.8906,82.0938 Q244.3438,80.7344 244.3438,78.9375 Q244.3438,76.9063 245,75.4531 Q245.6563,74 246.9375,73.2188 Q248.2188,72.4375 250.0938,72.4375 Q250.9844,72.4375 251.6563,72.625 Q252.3281,72.7969 253.0156,73.1406 L252.2031,75.1563 Q251.5781,74.8438 251.0313,74.7188 Q250.5,74.5938 250.0156,74.5938 Q248.8438,74.5938 248.1406,75.125 Q247.4375,75.6563 247.1406,76.6094 Q246.8438,77.5625 246.8438,78.8281 Q246.8438,80.8438 247.5625,81.8125 Q248.2813,82.7656 249.875,82.7656 Q250.4688,82.7656 251.0938,82.6094 Q251.7188,82.4531 252.5469,82.0781 L252.5469,84.2969 Q251.8125,84.6094 251.0156,84.7656 Q250.2344,84.9219 249.4688,84.9219 Z "/><text fill="#000000" font-family="sans-serif" font-size="12" lengthAdjust="spacingAndGlyphs" textLength="39" x="264" y="82.656">Mappe</text><rect fill="#FFFFFF" height="18.3441" style="stroke: #000000; stroke-width: 1.0; stroke-dasharray: 2.0,2.0;" width="59" x="311" y="59"/><text fill="#000000" font-family="sans-serif" font-size="12" font-style="italic" lengthAdjust="spacingAndGlyphs" textLength="57" x="312" y="72.8281">Arkivenhet</text><line style="stroke: #A80036; stroke-width: 1.5;" x1="236" x2="366" y1="94" y2="94"/><line style="stroke: #A80036; stroke-width: 1.5;" x1="236" x2="366" y1="102" y2="102"/><!--MD5=[5eeb008ce2ba569ad4cb3c09c2ca4370]
class Arkivstruktur.Registrering--><rect fill="#FEFECE" filter="url(#f17yp7u3tdwm1l)" height="48" id="Arkivstruktur.Registrering" style="stroke: #A80036; stroke-width: 1.5;" width="161" x="220.5" y="170"/><ellipse cx="235.5" cy="186" fill="#ADD1B2" rx="11" ry="11" style="stroke: #A80036; stroke-width: 1.0;"/><path d="M234.9688,192.9219 Q233.2188,192.9219 232.0781,192.1875 Q230.9531,191.4375 230.3906,190.0938 Q229.8438,188.7344 229.8438,186.9375 Q229.8438,184.9063 230.5,183.4531 Q231.1563,182 232.4375,181.2188 Q233.7188,180.4375 235.5938,180.4375 Q236.4844,180.4375 237.1563,180.625 Q237.8281,180.7969 238.5156,181.1406 L237.7031,183.1563 Q237.0781,182.8438 236.5313,182.7188 Q236,182.5938 235.5156,182.5938 Q234.3438,182.5938 233.6406,183.125 Q232.9375,183.6563 232.6406,184.6094 Q232.3438,185.5625 232.3438,186.8281 Q232.3438,188.8438 233.0625,189.8125 Q233.7813,190.7656 235.375,190.7656 Q235.9688,190.7656 236.5938,190.6094 Q237.2188,190.4531 238.0469,190.0781 L238.0469,192.2969 Q237.3125,192.6094 236.5156,192.7656 Q235.7344,192.9219 234.9688,192.9219 Z "/><text fill="#000000" font-family="sans-serif" font-size="12" lengthAdjust="spacingAndGlyphs" textLength="68" x="249.5" y="190.656">Registrering</text><rect fill="#FFFFFF" height="18.3441" style="stroke: #000000; stroke-width: 1.0; stroke-dasharray: 2.0,2.0;" width="59" x="325.5" y="167"/><text fill="#000000" font-family="sans-serif" font-size="12" font-style="italic" lengthAdjust="spacingAndGlyphs" textLength="57" x="326.5" y="180.8281">Arkivenhet</text><line style="stroke: #A80036; stroke-width: 1.5;" x1="221.5" x2="380.5" y1="202" y2="202"/><line style="stroke: #A80036; stroke-width: 1.5;" x1="221.5" x2="380.5" y1="210" y2="210"/><!--MD5=[969f15578b48b8a37f6dcb3b1c0b6253]
class Arkivstruktur.Part--><rect fill="#FEFECE" filter="url(#f17yp7u3tdwm1l)" height="48" id="Arkivstruktur.Part" style="stroke: #A80036; stroke-width: 1.5;" width="55" x="269.5" y="386"/><ellipse cx="284.5" cy="402" fill="#ADD1B2" rx="11" ry="11" style="stroke: #A80036; stroke-width: 1.0;"/><path d="M283.9688,408.9219 Q282.2188,408.9219 281.0781,408.1875 Q279.9531,407.4375 279.3906,406.0938 Q278.8438,404.7344 278.8438,402.9375 Q278.8438,400.9063 279.5,399.4531 Q280.1563,398 281.4375,397.2188 Q282.7188,396.4375 284.5938,396.4375 Q285.4844,396.4375 286.1563,396.625 Q286.8281,396.7969 287.5156,397.1406 L286.7031,399.1563 Q286.0781,398.8438 285.5313,398.7188 Q285,398.5938 284.5156,398.5938 Q283.3438,398.5938 282.6406,399.125 Q281.9375,399.6563 281.6406,400.6094 Q281.3438,401.5625 281.3438,402.8281 Q281.3438,404.8438 282.0625,405.8125 Q282.7813,406.7656 284.375,406.7656 Q284.9688,406.7656 285.5938,406.6094 Q286.2188,406.4531 287.0469,406.0781 L287.0469,408.2969 Q286.3125,408.6094 285.5156,408.7656 Q284.7344,408.9219 283.9688,408.9219 Z "/><text fill="#000000" font-family="sans-serif" font-size="12" lengthAdjust="spacingAndGlyphs" textLength="23" x="298.5" y="406.656">Part</text><line style="stroke: #A80036; stroke-width: 1.5;" x1="270.5" x2="323.5" y1="418" y2="418"/><line style="stroke: #A80036; stroke-width: 1.5;" x1="270.5" x2="323.5" y1="426" y2="426"/><!--MD5=[92ed2197edf38a39acf5ab443fdd08de]
class Arkivstruktur.Dokumentbeskrivelse--><rect fill="#FEFECE" filter="url(#f17yp7u3tdwm1l)" height="48" id="Arkivstruktur.Dokumentbeskrivelse" style="stroke: #A80036; stroke-width: 1.5;" width="153" x="220.5" y="278"/><ellipse cx="235.5" cy="294" fill="#ADD1B2" rx="11" ry="11" style="stroke: #A80036; stroke-width: 1.0;"/><path d="M234.9688,300.9219 Q233.2188,300.9219 232.0781,300.1875 Q230.9531,299.4375 230.3906,298.0938 Q229.8438,296.7344 229.8438,294.9375 Q229.8438,292.9063 230.5,291.4531 Q231.1563,290 232.4375,289.2188 Q233.7188,288.4375 235.5938,288.4375 Q236.4844,288.4375 237.1563,288.625 Q237.8281,288.7969 238.5156,289.1406 L237.7031,291.1563 Q237.0781,290.8438 236.5313,290.7188 Q236,290.5938 235.5156,290.5938 Q234.3438,290.5938 233.6406,291.125 Q232.9375,291.6563 232.6406,292.6094 Q232.3438,293.5625 232.3438,294.8281 Q232.3438,296.8438 233.0625,297.8125 Q233.7813,298.7656 235.375,298.7656 Q235.9688,298.7656 236.5938,298.6094 Q237.2188,298.4531 238.0469,298.0781 L238.0469,300.2969 Q237.3125,300.6094 236.5156,300.7656 Q235.7344,300.9219 234.9688,300.9219 Z "/><text fill="#000000" font-family="sans-serif" font-size="12" lengthAdjust="spacingAndGlyphs" textLength="121" x="249.5" y="298.656">Dokumentbeskrivelse</text><line style="stroke: #A80036; stroke-width: 1.5;" x1="221.5" x2="372.5" y1="310" y2="310"/><line style="stroke: #A80036; stroke-width: 1.5;" x1="221.5" x2="372.5" y1="318" y2="318"/><!--MD5=[4df5b11f766642853213221570ce3455]
class Arkivstruktur.Korrespondansepart--><rect fill="#FEFECE" filter="url(#f17yp7u3tdwm1l)" height="48" id="Arkivstruktur.Korrespondansepart" style="stroke: #A80036; stroke-width: 1.5;" width="147" x="561.5" y="170"/><ellipse cx="576.5" cy="186" fill="#ADD1B2" rx="11" ry="11" style="stroke: #A80036; stroke-width: 1.0;"/><path d="M575.9688,192.9219 Q574.2188,192.9219 573.0781,192.1875 Q571.9531,191.4375 571.3906,190.0938 Q570.8438,188.7344 570.8438,186.9375 Q570.8438,184.9063 571.5,183.4531 Q572.1563,182 573.4375,181.2188 Q574.7188,180.4375 576.5938,180.4375 Q577.4844,180.4375 578.1563,180.625 Q578.8281,180.7969 579.5156,181.1406 L578.7031,183.1563 Q578.0781,182.8438 577.5313,182.7188 Q577,182.5938 576.5156,182.5938 Q575.3438,182.5938 574.6406,183.125 Q573.9375,183.6563 573.6406,184.6094 Q573.3438,185.5625 573.3438,186.8281 Q573.3438,188.8438 574.0625,189.8125 Q574.7813,190.7656 576.375,190.7656 Q576.9688,190.7656 577.5938,190.6094 Q578.2188,190.4531 579.0469,190.0781 L579.0469,192.2969 Q578.3125,192.6094 577.5156,192.7656 Q576.7344,192.9219 575.9688,192.9219 Z "/><text fill="#000000" font-family="sans-serif" font-size="12" lengthAdjust="spacingAndGlyphs" textLength="115" x="590.5" y="190.656">Korrespondansepart</text><line style="stroke: #A80036; stroke-width: 1.5;" x1="562.5" x2="707.5" y1="202" y2="202"/><line style="stroke: #A80036; stroke-width: 1.5;" x1="562.5" x2="707.5" y1="210" y2="210"/><!--MD5=[2f08e53298f8f090d026427c85b7c44d]
class Sakarkiv.Journalpost--><rect fill="#FEFECE" filter="url(#f17yp7u3tdwm1l)" height="48" id="Sakarkiv.Journalpost" style="stroke: #A80036; stroke-width: 1.5;" width="164" x="1388" y="386"/><ellipse cx="1403" cy="402" fill="#ADD1B2" rx="11" ry="11" style="stroke: #A80036; stroke-width: 1.0;"/><path d="M1402.4688,408.9219 Q1400.7188,408.9219 1399.5781,408.1875 Q1398.4531,407.4375 1397.8906,406.0938 Q1397.3438,404.7344 1397.3438,402.9375 Q1397.3438,400.9063 1398,399.4531 Q1398.6563,398 1399.9375,397.2188 Q1401.2188,396.4375 1403.0938,396.4375 Q1403.9844,396.4375 1404.6563,396.625 Q1405.3281,396.7969 1406.0156,397.1406 L1405.2031,399.1563 Q1404.5781,398.8438 1404.0313,398.7188 Q1403.5,398.5938 1403.0156,398.5938 Q1401.8438,398.5938 1401.1406,399.125 Q1400.4375,399.6563 1400.1406,400.6094 Q1399.8438,401.5625 1399.8438,402.8281 Q1399.8438,404.8438 1400.5625,405.8125 Q1401.2813,406.7656 1402.875,406.7656 Q1403.4688,406.7656 1404.0938,406.6094 Q1404.7188,406.4531 1405.5469,406.0781 L1405.5469,408.2969 Q1404.8125,408.6094 1404.0156,408.7656 Q1403.2344,408.9219 1402.4688,408.9219 Z "/><text fill="#000000" font-family="sans-serif" font-size="12" lengthAdjust="spacingAndGlyphs" textLength="63" x="1417" y="406.656">Journalpost</text><rect fill="#FFFFFF" height="18.3441" style="stroke: #000000; stroke-width: 1.0; stroke-dasharray: 2.0,2.0;" width="67" x="1488" y="383"/><text fill="#000000" font-family="sans-serif" font-size="12" font-style="italic" lengthAdjust="spacingAndGlyphs" textLength="65" x="1489" y="396.8281">Registrering</text><line style="stroke: #A80036; stroke-width: 1.5;" x1="1389" x2="1551" y1="418" y2="418"/><line style="stroke: #A80036; stroke-width: 1.5;" x1="1389" x2="1551" y1="426" y2="426"/><!--MD5=[d3f949591156db6542fa63b25349ce5f]
class Sakarkiv.Saksmappe--><rect fill="#FEFECE" filter="url(#f17yp7u3tdwm1l)" height="48" id="Sakarkiv.Saksmappe" style="stroke: #A80036; stroke-width: 1.5;" width="138" x="1232" y="170"/><ellipse cx="1247" cy="186" fill="#ADD1B2" rx="11" ry="11" style="stroke: #A80036; stroke-width: 1.0;"/><path d="M1246.4688,192.9219 Q1244.7188,192.9219 1243.5781,192.1875 Q1242.4531,191.4375 1241.8906,190.0938 Q1241.3438,188.7344 1241.3438,186.9375 Q1241.3438,184.9063 1242,183.4531 Q1242.6563,182 1243.9375,181.2188 Q1245.2188,180.4375 1247.0938,180.4375 Q1247.9844,180.4375 1248.6563,180.625 Q1249.3281,180.7969 1250.0156,181.1406 L1249.2031,183.1563 Q1248.5781,182.8438 1248.0313,182.7188 Q1247.5,182.5938 1247.0156,182.5938 Q1245.8438,182.5938 1245.1406,183.125 Q1244.4375,183.6563 1244.1406,184.6094 Q1243.8438,185.5625 1243.8438,186.8281 Q1243.8438,188.8438 1244.5625,189.8125 Q1245.2813,190.7656 1246.875,190.7656 Q1247.4688,190.7656 1248.0938,190.6094 Q1248.7188,190.4531 1249.5469,190.0781 L1249.5469,192.2969 Q1248.8125,192.6094 1248.0156,192.7656 Q1247.2344,192.9219 1246.4688,192.9219 Z "/><text fill="#000000" font-family="sans-serif" font-size="12" lengthAdjust="spacingAndGlyphs" textLength="65" x="1261" y="190.656">Saksmappe</text><rect fill="#FFFFFF" height="18.3441" style="stroke: #000000; stroke-width: 1.0; stroke-dasharray: 2.0,2.0;" width="39" x="1334" y="167"/><text fill="#000000" font-family="sans-serif" font-size="12" font-style="italic" lengthAdjust="spacingAndGlyphs" textLength="37" x="1335" y="180.8281">Mappe</text><line style="stroke: #A80036; stroke-width: 1.5;" x1="1233" x2="1369" y1="202" y2="202"/><line style="stroke: #A80036; stroke-width: 1.5;" x1="1233" x2="1369" y1="210" y2="210"/><!--MD5=[a30222b4ad393904ffcccf51b18e072d]
class Sakarkiv.Arkivnotat--><rect fill="#FEFECE" filter="url(#f17yp7u3tdwm1l)" height="48" id="Sakarkiv.Arkivnotat" style="stroke: #A80036; stroke-width: 1.5;" width="158" x="1050" y="386"/><ellipse cx="1065" cy="402" fill="#ADD1B2" rx="11" ry="11" style="stroke: #A80036; stroke-width: 1.0;"/><path d="M1064.4688,408.9219 Q1062.7188,408.9219 1061.5781,408.1875 Q1060.4531,407.4375 1059.8906,406.0938 Q1059.3438,404.7344 1059.3438,402.9375 Q1059.3438,400.9063 1060,399.4531 Q1060.6563,398 1061.9375,397.2188 Q1063.2188,396.4375 1065.0938,396.4375 Q1065.9844,396.4375 1066.6563,396.625 Q1067.3281,396.7969 1068.0156,397.1406 L1067.2031,399.1563 Q1066.5781,398.8438 1066.0313,398.7188 Q1065.5,398.5938 1065.0156,398.5938 Q1063.8438,398.5938 1063.1406,399.125 Q1062.4375,399.6563 1062.1406,400.6094 Q1061.8438,401.5625 1061.8438,402.8281 Q1061.8438,404.8438 1062.5625,405.8125 Q1063.2813,406.7656 1064.875,406.7656 Q1065.4688,406.7656 1066.0938,406.6094 Q1066.7188,406.4531 1067.5469,406.0781 L1067.5469,408.2969 Q1066.8125,408.6094 1066.0156,408.7656 Q1065.2344,408.9219 1064.4688,408.9219 Z "/><text fill="#000000" font-family="sans-serif" font-size="12" lengthAdjust="spacingAndGlyphs" textLength="57" x="1079" y="406.656">Arkivnotat</text><rect fill="#FFFFFF" height="18.3441" style="stroke: #000000; stroke-width: 1.0; stroke-dasharray: 2.0,2.0;" width="67" x="1144" y="383"/><text fill="#000000" font-family="sans-serif" font-size="12" font-style="italic" lengthAdjust="spacingAndGlyphs" textLength="65" x="1145" y="396.8281">Registrering</text><line style="stroke: #A80036; stroke-width: 1.5;" x1="1051" x2="1207" y1="418" y2="418"/><line style="stroke: #A80036; stroke-width: 1.5;" x1="1051" x2="1207" y1="426" y2="426"/><!--MD5=[78c3d25fd312ed748fedda403654b48a]
class Sakarkiv.Presedens--><rect fill="#FEFECE" filter="url(#f17yp7u3tdwm1l)" height="48" id="Sakarkiv.Presedens" style="stroke: #A80036; stroke-width: 1.5;" width="91" x="1460.5" y="278"/><ellipse cx="1475.5" cy="294" fill="#ADD1B2" rx="11" ry="11" style="stroke: #A80036; stroke-width: 1.0;"/><path d="M1474.9688,300.9219 Q1473.2188,300.9219 1472.0781,300.1875 Q1470.9531,299.4375 1470.3906,298.0938 Q1469.8438,296.7344 1469.8438,294.9375 Q1469.8438,292.9063 1470.5,291.4531 Q1471.1563,290 1472.4375,289.2188 Q1473.7188,288.4375 1475.5938,288.4375 Q1476.4844,288.4375 1477.1563,288.625 Q1477.8281,288.7969 1478.5156,289.1406 L1477.7031,291.1563 Q1477.0781,290.8438 1476.5313,290.7188 Q1476,290.5938 1475.5156,290.5938 Q1474.3438,290.5938 1473.6406,291.125 Q1472.9375,291.6563 1472.6406,292.6094 Q1472.3438,293.5625 1472.3438,294.8281 Q1472.3438,296.8438 1473.0625,297.8125 Q1473.7813,298.7656 1475.375,298.7656 Q1475.9688,298.7656 1476.5938,298.6094 Q1477.2188,298.4531 1478.0469,298.0781 L1478.0469,300.2969 Q1477.3125,300.6094 1476.5156,300.7656 Q1475.7344,300.9219 1474.9688,300.9219 Z "/><text fill="#000000" font-family="sans-serif" font-size="12" lengthAdjust="spacingAndGlyphs" textLength="59" x="1489.5" y="298.656">Presedens</text><line style="stroke: #A80036; stroke-width: 1.5;" x1="1461.5" x2="1550.5" y1="310" y2="310"/><line style="stroke: #A80036; stroke-width: 1.5;" x1="1461.5" x2="1550.5" y1="318" y2="318"/><!--MD5=[c6af8ee822666342b688fca195c2130c]
class Sakarkiv.Avskrivning--><rect fill="#FEFECE" filter="url(#f17yp7u3tdwm1l)" height="48" id="Sakarkiv.Avskrivning" style="stroke: #A80036; stroke-width: 1.5;" width="96" x="1422" y="494"/><ellipse cx="1437" cy="510" fill="#ADD1B2" rx="11" ry="11" style="stroke: #A80036; stroke-width: 1.0;"/><path d="M1436.4688,516.9219 Q1434.7188,516.9219 1433.5781,516.1875 Q1432.4531,515.4375 1431.8906,514.0938 Q1431.3438,512.7344 1431.3438,510.9375 Q1431.3438,508.9063 1432,507.4531 Q1432.6563,506 1433.9375,505.2188 Q1435.2188,504.4375 1437.0938,504.4375 Q1437.9844,504.4375 1438.6563,504.625 Q1439.3281,504.7969 1440.0156,505.1406 L1439.2031,507.1563 Q1438.5781,506.8438 1438.0313,506.7188 Q1437.5,506.5938 1437.0156,506.5938 Q1435.8438,506.5938 1435.1406,507.125 Q1434.4375,507.6563 1434.1406,508.6094 Q1433.8438,509.5625 1433.8438,510.8281 Q1433.8438,512.8438 1434.5625,513.8125 Q1435.2813,514.7656 1436.875,514.7656 Q1437.4688,514.7656 1438.0938,514.6094 Q1438.7188,514.4531 1439.5469,514.0781 L1439.5469,516.2969 Q1438.8125,516.6094 1438.0156,516.7656 Q1437.2344,516.9219 1436.4688,516.9219 Z "/><text fill="#000000" font-family="sans-serif" font-size="12" lengthAdjust="spacingAndGlyphs" textLength="64" x="1451" y="514.656">Avskrivning</text><line style="stroke: #A80036; stroke-width: 1.5;" x1="1423" x2="1517" y1="526" y2="526"/><line style="stroke: #A80036; stroke-width: 1.5;" x1="1423" x2="1517" y1="534" y2="534"/><!--MD5=[7c92048d940987969f852eb2a77c0b2d]
class Sakarkiv.Dokumentflyt--><rect fill="#FEFECE" filter="url(#f17yp7u3tdwm1l)" height="48" id="Sakarkiv.Dokumentflyt" style="stroke: #A80036; stroke-width: 1.5;" width="107" x="1104.5" y="494"/><ellipse cx="1119.5" cy="510" fill="#ADD1B2" rx="11" ry="11" style="stroke: #A80036; stroke-width: 1.0;"/><path d="M1118.9688,516.9219 Q1117.2188,516.9219 1116.0781,516.1875 Q1114.9531,515.4375 1114.3906,514.0938 Q1113.8438,512.7344 1113.8438,510.9375 Q1113.8438,508.9063 1114.5,507.4531 Q1115.1563,506 1116.4375,505.2188 Q1117.7188,504.4375 1119.5938,504.4375 Q1120.4844,504.4375 1121.1563,504.625 Q1121.8281,504.7969 1122.5156,505.1406 L1121.7031,507.1563 Q1121.0781,506.8438 1120.5313,506.7188 Q1120,506.5938 1119.5156,506.5938 Q1118.3438,506.5938 1117.6406,507.125 Q1116.9375,507.6563 1116.6406,508.6094 Q1116.3438,509.5625 1116.3438,510.8281 Q1116.3438,512.8438 1117.0625,513.8125 Q1117.7813,514.7656 1119.375,514.7656 Q1119.9688,514.7656 1120.5938,514.6094 Q1121.2188,514.4531 1122.0469,514.0781 L1122.0469,516.2969 Q1121.3125,516.6094 1120.5156,516.7656 Q1119.7344,516.9219 1118.9688,516.9219 Z "/><text fill="#000000" font-family="sans-serif" font-size="12" lengthAdjust="spacingAndGlyphs" textLength="75" x="1133.5" y="514.656">Dokumentflyt</text><line style="stroke: #A80036; stroke-width: 1.5;" x1="1105.5" x2="1210.5" y1="526" y2="526"/><line style="stroke: #A80036; stroke-width: 1.5;" x1="1105.5" x2="1210.5" y1="534" y2="534"/><!--MD5=[639ab7f2aeb9e2ce2f438430a44a4e45]
reverse link Arkivstruktur.Registrering to Sakarkiv.Journalpost--><path d="M401.61,209.42 C536.2,228.84 767.68,262.73 852,278 C1044.91,312.94 1269.72,362.96 1387.84,389.96 " fill="none" id="Arkivstruktur.Registrering&lt;-Sakarkiv.Journalpost" style="stroke: #A80036; stroke-width: 1.0;"/><polygon fill="none" points="400.48,216.33,381.68,206.55,402.47,202.48,400.48,216.33" style="stroke: #A80036; stroke-width: 1.0;"/><!--MD5=[057c5b408b6a4da3b59d483d6ae35eca]
reverse link Arkivstruktur.Registrering to Sakarkiv.Arkivnotat--><path d="M400.99,220.84 C567.51,263.88 898.26,349.36 1049.81,388.53 " fill="none" id="Arkivstruktur.Registrering&lt;-Sakarkiv.Arkivnotat" style="stroke: #A80036; stroke-width: 1.0;"/><polygon fill="none" points="399.13,227.59,381.52,215.81,402.64,214.04,399.13,227.59" style="stroke: #A80036; stroke-width: 1.0;"/><!--MD5=[e0018cf9e229c618f5d941e2b4482152]
reverse link Arkivstruktur.Mappe to Sakarkiv.Saksmappe--><path d="M387.11,92.69 C479.8,99.1 631.51,110.42 762,124 C931.13,141.6 1129.31,168.62 1231.78,183.08 " fill="none" id="Arkivstruktur.Mappe&lt;-Sakarkiv.Saksmappe" style="stroke: #A80036; stroke-width: 1.0;"/><polygon fill="none" points="386.6,99.67,367.13,91.32,387.56,85.71,386.6,99.67" style="stroke: #A80036; stroke-width: 1.0;"/><!--MD5=[b06f07ca829b4fead78a2f1a47f4b1ee]
link Arkivstruktur.Mappe to Arkivstruktur.Registrering--><path d="M301,122 C301,122 301,145.68 301,156.36 " fill="none" id="Arkivstruktur.Mappe-Arkivstruktur.Registrering" style="stroke: #A80036; stroke-width: 1.0;"/><polygon fill="#A80036" points="301,169.68,305,160.68,301,164.68,297,160.68,301,169.68" style="stroke: #A80036; stroke-width: 1.0;"/><line style="stroke: #A80036; stroke-width: 1.0;" x1="301" x2="301" y1="164.68" y2="156.68"/><polygon fill="#FFFFFF" points="301,110,297,116,301,122,305,116,301,110" style="stroke: #A80036; stroke-width: 1.0;"/><text fill="#000000" font-family="sans-serif" font-size="13" lengthAdjust="spacingAndGlyphs" textLength="72" x="220.225" y="131.9049">+mappe 0..1</text><text fill="#000000" font-family="sans-serif" font-size="13" lengthAdjust="spacingAndGlyphs" textLength="100" x="188.1875" y="158.2573">+registrering 0..*</text><!--MD5=[6097d0687047132a233d92935ace3f8b]
link Arkivstruktur.Mappe to Arkivstruktur.Mappe--><path d="M379.0355,70.217 C379.0355,70.217 547,66.27 547,86 C547,105.73 459.41,111.04 380.25,101.94 " fill="none" id="Arkivstruktur.Mappe-Arkivstruktur.Mappe" style="stroke: #A80036; stroke-width: 1.0;"/><polygon fill="#A80036" points="367.13,100.28,375.5581,105.3758,372.0906,100.9063,376.5601,97.4388,367.13,100.28" style="stroke: #A80036; stroke-width: 1.0;"/><line style="stroke: #A80036; stroke-width: 1.0;" x1="372.0906" x2="380.02" y1="100.9063" y2="101.905"/><polygon fill="#FFFFFF" points="367.13,71.72,373.5838,74.937,379.0355,70.217,372.5817,67,367.13,71.72" style="stroke: #A80036; stroke-width: 1.0;"/><text fill="#000000" font-family="sans-serif" font-size="13" lengthAdjust="spacingAndGlyphs" textLength="99" x="374.8989" y="67.1102">+overmappe 0..1</text><text fill="#000000" font-family="sans-serif" font-size="13" lengthAdjust="spacingAndGlyphs" textLength="108" x="374.8258" y="97.5699">+undermappe 0..*</text><!--MD5=[6ad43b26ae8d8420bce27ab85ea41085]
link Arkivstruktur.Mappe to Arkivstruktur.Part--><path d="M222.9048,94.4125 C222.9048,94.4125 141.91,109.24 130,124 C73.63,193.87 82.71,249.69 130,326 C157.5,370.38 216.63,391.79 256.62,401.55 " fill="none" id="Arkivstruktur.Mappe-Arkivstruktur.Part" style="stroke: #A80036; stroke-width: 1.0;"/><polygon fill="#A80036" points="269.38,404.43,261.4866,398.5399,264.5036,403.325,259.7185,406.3421,269.38,404.43" style="stroke: #A80036; stroke-width: 1.0;"/><line style="stroke: #A80036; stroke-width: 1.0;" x1="264.5036" x2="256.695" y1="403.325" y2="401.565"/><polygon fill="#A80036" points="234.8,92.83,228.3249,89.6562,222.9048,94.4125,229.3799,97.5863,234.8,92.83" style="stroke: #A80036; stroke-width: 1.0;"/><text fill="#000000" font-family="sans-serif" font-size="13" lengthAdjust="spacingAndGlyphs" textLength="55" x="206.6288" y="399.3981">+part 0..*</text><!--MD5=[b3f717f3048f88b7b59a99fcd76074c9]
link Arkivstruktur.Registrering to Arkivstruktur.Part--><path d="M392.7199,221.2031 C392.7199,221.2031 447.28,252.28 463,278 C474.13,296.2 474.22,307.85 463,326 C435.76,370.08 377.23,391.53 337.48,401.39 " fill="none" id="Arkivstruktur.Registrering-Arkivstruktur.Part" style="stroke: #A80036; stroke-width: 1.0;"/><polygon fill="#A80036" points="324.79,404.31,334.4576,406.191,329.6628,403.1893,332.6645,398.3945,324.79,404.31" style="stroke: #A80036; stroke-width: 1.0;"/><line style="stroke: #A80036; stroke-width: 1.0;" x1="329.6628" x2="337.46" y1="403.1893" y2="401.395"/><polygon fill="#A80036" points="381.71,216.43,385.6239,222.4865,392.7199,221.2031,388.806,215.1466,381.71,216.43" style="stroke: #A80036; stroke-width: 1.0;"/><text fill="#000000" font-family="sans-serif" font-size="13" lengthAdjust="spacingAndGlyphs" textLength="55" x="332.5652" y="399.2612">+part 0..*</text><!--MD5=[09199cc999a886fe1f8d83d84d817194]
link Arkivstruktur.Dokumentbeskrivelse to Arkivstruktur.Part--><path d="M297,338 C297,338 297,361.68 297,372.36 " fill="none" id="Arkivstruktur.Dokumentbeskrivelse-Arkivstruktur.Part" style="stroke: #A80036; stroke-width: 1.0;"/><polygon fill="#A80036" points="297,385.68,301,376.68,297,380.68,293,376.68,297,385.68" style="stroke: #A80036; stroke-width: 1.0;"/><line style="stroke: #A80036; stroke-width: 1.0;" x1="297" x2="297" y1="380.68" y2="372.68"/><polygon fill="#A80036" points="297,326,293,332,297,338,301,332,297,326" style="stroke: #A80036; stroke-width: 1.0;"/><text fill="#000000" font-family="sans-serif" font-size="13" lengthAdjust="spacingAndGlyphs" textLength="55" x="234.9531" y="374.2573">+part 0..*</text><!--MD5=[cfbd302bfd70298b1a7c25aed917507f]
link Sakarkiv.Saksmappe to Sakarkiv.Presedens--><path d="M1356.1382,223.5138 C1356.1382,223.5138 1420.61,256.85 1449.34,271.7 " fill="none" id="Sakarkiv.Saksmappe-Sakarkiv.Presedens" style="stroke: #A80036; stroke-width: 1.0;"/><polygon fill="#A80036" points="1461.25,277.86,1455.0943,270.1719,1456.8091,275.5626,1451.4184,277.2774,1461.25,277.86" style="stroke: #A80036; stroke-width: 1.0;"/><line style="stroke: #A80036; stroke-width: 1.0;" x1="1456.8091" x2="1449.7" y1="275.5626" y2="271.89"/><polygon fill="#FFFFFF" points="1345.48,218,1348.9712,224.3096,1356.1382,223.5138,1352.6471,217.2041,1345.48,218" style="stroke: #A80036; stroke-width: 1.0;"/><text fill="#000000" font-family="sans-serif" font-size="13" lengthAdjust="spacingAndGlyphs" textLength="50" x="1300.2283" y="239.9049">+sak 0..*</text><text fill="#000000" font-family="sans-serif" font-size="13" lengthAdjust="spacingAndGlyphs" textLength="92" x="1360.6004" y="252.8078">+presedens 0..*</text><text fill="#000000" font-family="sans-serif" font-size="13" lengthAdjust="spacingAndGlyphs" textLength="0" x="1408.1004" y="270.5139"/><!--MD5=[088e66385af5865b5febf80e04c0503c]
link Sakarkiv.Presedens to Sakarkiv.Journalpost--><path d="M1493.98,338.4 C1490.18,349.59 1481.7701,374.3144 1481.7701,374.3144 " fill="none" id="Sakarkiv.Presedens-Sakarkiv.Journalpost" style="stroke: #A80036; stroke-width: 1.0;"/><polygon fill="#FFFFFF" points="1477.92,385.68,1483.6336,381.2806,1481.7701,374.3144,1476.0565,378.7138,1477.92,385.68" style="stroke: #A80036; stroke-width: 1.0;"/><polygon fill="#A80036" points="1498.19,326,1491.5139,333.2408,1496.5858,330.7357,1499.091,335.8076,1498.19,326" style="stroke: #A80036; stroke-width: 1.0;"/><line style="stroke: #A80036; stroke-width: 1.0;" x1="1496.5858" x2="1494.01" y1="330.7357" y2="338.31"/><text fill="#000000" font-family="sans-serif" font-size="13" lengthAdjust="spacingAndGlyphs" textLength="92" x="1393.0738" y="347.9049">+presedens 0..*</text><text fill="#000000" font-family="sans-serif" font-size="13" lengthAdjust="spacingAndGlyphs" textLength="99" x="1368.2651" y="374.2573">+journalpost 0..*</text><!--MD5=[b89d42392a74688883d3b6b9c0c59da0]
link Arkivstruktur.Registrering to Arkivstruktur.Korrespondansepart--><path d="M393.56,194 C393.56,194 496.92,194 547.93,194 " fill="none" id="Arkivstruktur.Registrering-Arkivstruktur.Korrespondansepart" style="stroke: #A80036; stroke-width: 1.0;"/><polygon fill="#A80036" points="561.25,194,552.25,190,556.25,194,552.25,198,561.25,194" style="stroke: #A80036; stroke-width: 1.0;"/><line style="stroke: #A80036; stroke-width: 1.0;" x1="556.25" x2="548.25" y1="194" y2="194"/><polygon fill="#A80036" points="381.56,194,387.56,198,393.56,194,387.56,190,381.56,194" style="stroke: #A80036; stroke-width: 1.0;"/><text fill="#000000" font-family="sans-serif" font-size="13" lengthAdjust="spacingAndGlyphs" textLength="153" x="400.5027" y="190.4769">+korrespondansepart 0..*</text><!--MD5=[3de69eabb378473b17ad160888b26a49]
link Sakarkiv.Journalpost to Sakarkiv.Avskrivning--><path d="M1470,446 C1470,446 1470,469.68 1470,480.36 " fill="none" id="Sakarkiv.Journalpost-Sakarkiv.Avskrivning" style="stroke: #A80036; stroke-width: 1.0;"/><polygon fill="#A80036" points="1470,493.68,1474,484.68,1470,488.68,1466,484.68,1470,493.68" style="stroke: #A80036; stroke-width: 1.0;"/><line style="stroke: #A80036; stroke-width: 1.0;" x1="1470" x2="1470" y1="488.68" y2="480.68"/><polygon fill="#A80036" points="1470,434,1466,440,1470,446,1474,440,1470,434" style="stroke: #A80036; stroke-width: 1.0;"/><text fill="#000000" font-family="sans-serif" font-size="13" lengthAdjust="spacingAndGlyphs" textLength="99" x="1358.3156" y="482.2573">+avskrivning 0..*</text><!--MD5=[bb2e9b1eec54c040da854e0199946e11]
link Sakarkiv.Journalpost to Sakarkiv.Dokumentflyt--><path d="M1390.9384,437.8619 C1390.9384,437.8619 1272.56,478.08 1224.14,494.53 " fill="none" id="Sakarkiv.Journalpost-Sakarkiv.Dokumentflyt" style="stroke: #A80036; stroke-width: 1.0;"/><polygon fill="#A80036" points="1211.6,498.79,1221.4085,499.6808,1216.334,497.1809,1218.8339,492.1064,1211.6,498.79" style="stroke: #A80036; stroke-width: 1.0;"/><line style="stroke: #A80036; stroke-width: 1.0;" x1="1216.334" x2="1223.905" y1="497.1809" y2="494.61"/><polygon fill="#A80036" points="1402.3,434,1395.3319,432.1437,1390.9384,437.8619,1397.9065,439.7181,1402.3,434" style="stroke: #A80036; stroke-width: 1.0;"/><text fill="#000000" font-family="sans-serif" font-size="13" lengthAdjust="spacingAndGlyphs" textLength="112" x="1219.6487" y="493.678">+dokumentflyt 0..*</text><!--MD5=[dfef81212d179074c2449e39ce363e8c]
link Sakarkiv.Arkivnotat to Sakarkiv.Dokumentflyt--><path d="M1138.4541,445.5753 C1138.4541,445.5753 1145.13,469.95 1148.14,480.95 " fill="none" id="Sakarkiv.Arkivnotat-Sakarkiv.Dokumentflyt" style="stroke: #A80036; stroke-width: 1.0;"/><polygon fill="#A80036" points="1151.62,493.68,1153.1054,483.9438,1150.3016,488.8569,1145.3885,486.0532,1151.62,493.68" style="stroke: #A80036; stroke-width: 1.0;"/><line style="stroke: #A80036; stroke-width: 1.0;" x1="1150.3016" x2="1148.19" y1="488.8569" y2="481.14"/><polygon fill="#A80036" points="1135.29,434,1133.0136,440.8424,1138.4541,445.5753,1140.7305,438.733,1135.29,434" style="stroke: #A80036; stroke-width: 1.0;"/><text fill="#000000" font-family="sans-serif" font-size="13" lengthAdjust="spacingAndGlyphs" textLength="112" x="1023.6351" y="482.2573">+dokumentflyt 0..*</text><!--MD5=[7229a444542d5ba4b44a9ac4e42b4ab4]
link Arkivstruktur.Registrering to Arkivstruktur.Dokumentbeskrivelse--><path d="M299.682,229.9916 C299.682,229.9916 298.79,253.68 298.38,264.36 " fill="none" id="Arkivstruktur.Registrering-Arkivstruktur.Dokumentbeskrivelse" style="stroke: #A80036; stroke-width: 1.0;"/><polygon fill="#A80036" points="297.88,277.68,302.2132,268.8356,298.0667,272.6835,294.2188,268.5369,297.88,277.68" style="stroke: #A80036; stroke-width: 1.0;"/><line style="stroke: #A80036; stroke-width: 1.0;" x1="298.0667" x2="298.37" y1="272.6835" y2="264.69"/><polygon fill="#FFFFFF" points="300.13,218,295.9088,223.8465,299.682,229.9916,303.9032,224.1452,300.13,218" style="stroke: #A80036; stroke-width: 1.0;"/><text fill="#000000" font-family="sans-serif" font-size="13" lengthAdjust="spacingAndGlyphs" textLength="100" x="187.7304" y="239.9049">+registrering 1..*</text><text fill="#000000" font-family="sans-serif" font-size="13" lengthAdjust="spacingAndGlyphs" textLength="159" x="118.7336" y="266.2573">+dokumentbeskrivelse 0..*</text><!--MD5=[2cd89f26cfaca4e815c96423451cd96d]
@startuml uml-sakarkiv-entiteter.puml
skinparam classAttributeIconSize 0
skinparam nodesep 180

class Arkivstruktur.Mappe <Arkivenhet>
class Arkivstruktur.Registrering <Arkivenhet>
class Sakarkiv.Journalpost <Registrering>
class Sakarkiv.Saksmappe <Mappe>
class Sakarkiv.Arkivnotat <Registrering>

Arkivstruktur.Registrering <|- - Sakarkiv.Journalpost
Arkivstruktur.Registrering <|- - Sakarkiv.Arkivnotat
Arkivstruktur.Mappe <|- - Sakarkiv.Saksmappe

Arkivstruktur.Mappe "+mappe 0..1" o- -> "+registrering 0..*" Arkivstruktur.Registrering
Arkivstruktur.Mappe "+overmappe 0..1" o- -> "+undermappe 0..*" Arkivstruktur.Mappe
Arkivstruktur.Mappe *- -> "+part 0..*" Arkivstruktur.Part
Arkivstruktur.Registrering *- -> "+part 0..*" Arkivstruktur.Part
Arkivstruktur.Dokumentbeskrivelse *- -> "+part 0..*" Arkivstruktur.Part
Sakarkiv.Saksmappe "+sak 0..*" o- -> "+presedens 0..*\n" Sakarkiv.Presedens
Sakarkiv.Presedens "+presedens 0..*" <- -o  "+journalpost 0..*" Sakarkiv.Journalpost

Arkivstruktur.Registrering *-> "+korrespondansepart 0..*" Arkivstruktur.Korrespondansepart
Sakarkiv.Journalpost *- -> "+avskrivning 0..*" Sakarkiv.Avskrivning
Sakarkiv.Journalpost *- -> "+dokumentflyt 0..*" Sakarkiv.Dokumentflyt
Sakarkiv.Arkivnotat *- -> "+dokumentflyt 0..*" Sakarkiv.Dokumentflyt

Arkivstruktur.Registrering "+registrering 1..*" o- -> "+dokumentbeskrivelse 0..*" Arkivstruktur.Dokumentbeskrivelse 
@enduml

PlantUML version 1.2020.02(Sun Mar 01 11:22:07 CET 2020)
(GPL source distribution)
Java Runtime: OpenJDK Runtime Environment
JVM: OpenJDK 64-Bit Server VM
Java Version: 17.0.6+10-Debian-1
Operating System: Linux
Default Encoding: UTF-8
Language: en
Country: US
--></g></svg>