<?xml version="1.0" encoding="UTF-8" standalone="no"?><svg xmlns="http://www.w3.org/2000/svg" xmlns:xlink="http://www.w3.org/1999/xlink" contentScriptType="application/ecmascript" contentStyleType="text/css" height="784px" preserveAspectRatio="none" style="width:1640px;height:784px;" version="1.1" viewBox="0 0 1640 784" width="1640px" zoomAndPan="magnify"><defs><filter height="300%" id="f17be4cs0uft4t" width="300%" x="-1" y="-1"><feGaussianBlur result="blurOut" stdDeviation="2.0"/><feColorMatrix in="blurOut" result="blurOut2" type="matrix" values="0 0 0 0 0 0 0 0 0 0 0 0 0 0 0 0 0 0 .4 0"/><feOffset dx="4.0" dy="4.0" in="blurOut2" result="blurOut3"/><feBlend in="SourceGraphic" in2="blurOut3" mode="normal"/></filter></defs><g><!--MD5=[da0cc52003e83f0d614cc4ab23641ff5]
cluster Admin--><polygon fill="#FFFFFF" filter="url(#f17be4cs0uft4t)" points="854,24,906,24,913,49.0679,1618,49.0679,1618,772,854,772,854,24" style="stroke: #000000; stroke-width: 1.5;"/><line style="stroke: #000000; stroke-width: 1.5;" x1="854" x2="913" y1="49.0679" y2="49.0679"/><text fill="#000000" font-family="sans-serif" font-size="14" font-weight="bold" lengthAdjust="spacingAndGlyphs" textLength="46" x="858" y="40.9659">Admin</text><!--MD5=[68eac0387a028fbb729470faa528465a]
cluster Kodelister--><polygon fill="#FFFFFF" filter="url(#f17be4cs0uft4t)" points="22,237,98,237,105,262.0679,332,262.0679,332,747.5,22,747.5,22,237" style="stroke: #000000; stroke-width: 1.5;"/><line style="stroke: #000000; stroke-width: 1.5;" x1="22" x2="105" y1="262.0679" y2="262.0679"/><text fill="#000000" font-family="sans-serif" font-size="14" font-weight="bold" lengthAdjust="spacingAndGlyphs" textLength="70" x="26" y="253.9659">Kodelister</text><!--MD5=[c75b00a26ab827d6545fa97ea5aa8791]
class Admin.Bruker--><rect fill="#FEFECE" filter="url(#f17be4cs0uft4t)" height="152.8732" id="Admin.Bruker" style="stroke: #A80036; stroke-width: 1.5;" width="385" x="1202.5" y="62"/><ellipse cx="1371.75" cy="78" fill="#ADD1B2" rx="11" ry="11" style="stroke: #A80036; stroke-width: 1.0;"/><path d="M1371.2188,84.9219 Q1369.4688,84.9219 1368.3281,84.1875 Q1367.2031,83.4375 1366.6406,82.0938 Q1366.0938,80.7344 1366.0938,78.9375 Q1366.0938,76.9063 1366.75,75.4531 Q1367.4063,74 1368.6875,73.2188 Q1369.9688,72.4375 1371.8438,72.4375 Q1372.7344,72.4375 1373.4063,72.625 Q1374.0781,72.7969 1374.7656,73.1406 L1373.9531,75.1563 Q1373.3281,74.8438 1372.7813,74.7188 Q1372.25,74.5938 1371.7656,74.5938 Q1370.5938,74.5938 1369.8906,75.125 Q1369.1875,75.6563 1368.8906,76.6094 Q1368.5938,77.5625 1368.5938,78.8281 Q1368.5938,80.8438 1369.3125,81.8125 Q1370.0313,82.7656 1371.625,82.7656 Q1372.2188,82.7656 1372.8438,82.6094 Q1373.4688,82.4531 1374.2969,82.0781 L1374.2969,84.2969 Q1373.5625,84.6094 1372.7656,84.7656 Q1371.9844,84.9219 1371.2188,84.9219 Z "/><text fill="#000000" font-family="sans-serif" font-size="12" lengthAdjust="spacingAndGlyphs" textLength="38" x="1392.25" y="82.656">Bruker</text><line style="stroke: #A80036; stroke-width: 1.5;" x1="1203.5" x2="1586.5" y1="94" y2="94"/><text fill="#000000" font-family="sans-serif" font-size="11" lengthAdjust="spacingAndGlyphs" textLength="170" x="1208.5" y="109.7589">+systemID : SystemID [0..1] [1..1]</text><text fill="#000000" font-family="sans-serif" font-size="11" lengthAdjust="spacingAndGlyphs" textLength="109" x="1208.5" y="124.7408">+brukerNavn : string</text><text fill="#000000" font-family="sans-serif" font-size="11" lengthAdjust="spacingAndGlyphs" textLength="194" x="1208.5" y="139.7227">+opprettetDato : datetime [0..1] [1..1]</text><text fill="#000000" font-family="sans-serif" font-size="11" lengthAdjust="spacingAndGlyphs" textLength="167" x="1208.5" y="154.7046">+opprettetAv : string [0..1] [1..1]</text><text fill="#000000" font-family="sans-serif" font-size="11" lengthAdjust="spacingAndGlyphs" textLength="160" x="1208.5" y="169.6865">+avsluttetDato : datetime [0..1]</text><text fill="#000000" font-family="sans-serif" font-size="11" lengthAdjust="spacingAndGlyphs" textLength="373" x="1208.5" y="184.6684">+virksomhetsspesifikkeMetadata : VirksomhetsspesifikkeMetadata [0..1]</text><text fill="#000000" font-family="sans-serif" font-size="11" lengthAdjust="spacingAndGlyphs" textLength="123" x="1208.5" y="199.6502">+kortnavn : string [0..1]</text><line style="stroke: #A80036; stroke-width: 1.5;" x1="1203.5" x2="1586.5" y1="206.8732" y2="206.8732"/><!--MD5=[b6496e801dfbc8364f77908df8c9f721]
class Admin.AdministrativEnhet--><rect fill="#FEFECE" filter="url(#f17be4cs0uft4t)" height="182.837" id="Admin.AdministrativEnhet" style="stroke: #A80036; stroke-width: 1.5;" width="385" x="1216.5" y="302.5"/><ellipse cx="1351.75" cy="318.5" fill="#ADD1B2" rx="11" ry="11" style="stroke: #A80036; stroke-width: 1.0;"/><path d="M1351.2188,325.4219 Q1349.4688,325.4219 1348.3281,324.6875 Q1347.2031,323.9375 1346.6406,322.5938 Q1346.0938,321.2344 1346.0938,319.4375 Q1346.0938,317.4063 1346.75,315.9531 Q1347.4063,314.5 1348.6875,313.7188 Q1349.9688,312.9375 1351.8438,312.9375 Q1352.7344,312.9375 1353.4063,313.125 Q1354.0781,313.2969 1354.7656,313.6406 L1353.9531,315.6563 Q1353.3281,315.3438 1352.7813,315.2188 Q1352.25,315.0938 1351.7656,315.0938 Q1350.5938,315.0938 1349.8906,315.625 Q1349.1875,316.1563 1348.8906,317.1094 Q1348.5938,318.0625 1348.5938,319.3281 Q1348.5938,321.3438 1349.3125,322.3125 Q1350.0313,323.2656 1351.625,323.2656 Q1352.2188,323.2656 1352.8438,323.1094 Q1353.4688,322.9531 1354.2969,322.5781 L1354.2969,324.7969 Q1353.5625,325.1094 1352.7656,325.2656 Q1351.9844,325.4219 1351.2188,325.4219 Z "/><text fill="#000000" font-family="sans-serif" font-size="12" lengthAdjust="spacingAndGlyphs" textLength="106" x="1372.25" y="323.156">AdministrativEnhet</text><line style="stroke: #A80036; stroke-width: 1.5;" x1="1217.5" x2="1600.5" y1="334.5" y2="334.5"/><text fill="#000000" font-family="sans-serif" font-size="11" lengthAdjust="spacingAndGlyphs" textLength="170" x="1222.5" y="350.2589">+systemID : SystemID [0..1] [1..1]</text><text fill="#000000" font-family="sans-serif" font-size="11" lengthAdjust="spacingAndGlyphs" textLength="172" x="1222.5" y="365.2408">+administrativEnhetNavn : string</text><text fill="#000000" font-family="sans-serif" font-size="11" lengthAdjust="spacingAndGlyphs" textLength="123" x="1222.5" y="380.2227">+kortnavn : string [0..1]</text><text fill="#000000" font-family="sans-serif" font-size="11" lengthAdjust="spacingAndGlyphs" textLength="194" x="1222.5" y="395.2046">+opprettetDato : datetime [0..1] [1..1]</text><text fill="#000000" font-family="sans-serif" font-size="11" lengthAdjust="spacingAndGlyphs" textLength="167" x="1222.5" y="410.1865">+opprettetAv : string [0..1] [1..1]</text><text fill="#000000" font-family="sans-serif" font-size="11" lengthAdjust="spacingAndGlyphs" textLength="160" x="1222.5" y="425.1684">+avsluttetDato : datetime [0..1]</text><text fill="#000000" font-family="sans-serif" font-size="11" lengthAdjust="spacingAndGlyphs" textLength="181" x="1222.5" y="440.1502">+administrativEnhetsstatus : string</text><text fill="#000000" font-family="sans-serif" font-size="11" lengthAdjust="spacingAndGlyphs" textLength="235" x="1222.5" y="455.1321">+referanseOverordnetEnhet : SystemID [0..1]</text><text fill="#000000" font-family="sans-serif" font-size="11" lengthAdjust="spacingAndGlyphs" textLength="373" x="1222.5" y="470.114">+virksomhetsspesifikkeMetadata : VirksomhetsspesifikkeMetadata [0..1]</text><line style="stroke: #A80036; stroke-width: 1.5;" x1="1217.5" x2="1600.5" y1="477.337" y2="477.337"/><!--MD5=[b0c07475e2391f95e5a92a06f51d8ef0]
class Admin.Tilgang--><rect fill="#FEFECE" filter="url(#f17be4cs0uft4t)" height="182.837" id="Admin.Tilgang" style="stroke: #A80036; stroke-width: 1.5;" width="254" x="870" y="573"/><ellipse cx="972.25" cy="589" fill="#ADD1B2" rx="11" ry="11" style="stroke: #A80036; stroke-width: 1.0;"/><path d="M971.7188,595.9219 Q969.9688,595.9219 968.8281,595.1875 Q967.7031,594.4375 967.1406,593.0938 Q966.5938,591.7344 966.5938,589.9375 Q966.5938,587.9063 967.25,586.4531 Q967.9063,585 969.1875,584.2188 Q970.4688,583.4375 972.3438,583.4375 Q973.2344,583.4375 973.9063,583.625 Q974.5781,583.7969 975.2656,584.1406 L974.4531,586.1563 Q973.8281,585.8438 973.2813,585.7188 Q972.75,585.5938 972.2656,585.5938 Q971.0938,585.5938 970.3906,586.125 Q969.6875,586.6563 969.3906,587.6094 Q969.0938,588.5625 969.0938,589.8281 Q969.0938,591.8438 969.8125,592.8125 Q970.5313,593.7656 972.125,593.7656 Q972.7188,593.7656 973.3438,593.6094 Q973.9688,593.4531 974.7969,593.0781 L974.7969,595.2969 Q974.0625,595.6094 973.2656,595.7656 Q972.4844,595.9219 971.7188,595.9219 Z "/><text fill="#000000" font-family="sans-serif" font-size="12" lengthAdjust="spacingAndGlyphs" textLength="41" x="992.75" y="593.656">Tilgang</text><line style="stroke: #A80036; stroke-width: 1.5;" x1="871" x2="1123" y1="605" y2="605"/><text fill="#000000" font-family="sans-serif" font-size="11" lengthAdjust="spacingAndGlyphs" textLength="170" x="876" y="620.7589">+systemID : SystemID [0..1] [1..1]</text><text fill="#000000" font-family="sans-serif" font-size="11" lengthAdjust="spacingAndGlyphs" textLength="70" x="876" y="635.7408">+rolle : string</text><text fill="#000000" font-family="sans-serif" font-size="11" lengthAdjust="spacingAndGlyphs" textLength="189" x="876" y="650.7227">+tilgangskategori : Tilgangskategori</text><text fill="#000000" font-family="sans-serif" font-size="11" lengthAdjust="spacingAndGlyphs" textLength="200" x="876" y="665.7046">+referanseArkivenhet : SystemID [0..1]</text><text fill="#000000" font-family="sans-serif" font-size="11" lengthAdjust="spacingAndGlyphs" textLength="242" x="876" y="680.6865">+tilgangsrestriksjon : Tilgangsrestriksjon [0..1]</text><text fill="#000000" font-family="sans-serif" font-size="11" lengthAdjust="spacingAndGlyphs" textLength="72" x="876" y="695.6684">+les : boolean</text><text fill="#000000" font-family="sans-serif" font-size="11" lengthAdjust="spacingAndGlyphs" textLength="71" x="876" y="710.6502">+ny : boolean</text><text fill="#000000" font-family="sans-serif" font-size="11" lengthAdjust="spacingAndGlyphs" textLength="89" x="876" y="725.6321">+endre : boolean</text><text fill="#000000" font-family="sans-serif" font-size="11" lengthAdjust="spacingAndGlyphs" textLength="80" x="876" y="740.614">+slett : boolean</text><line style="stroke: #A80036; stroke-width: 1.5;" x1="871" x2="1123" y1="747.837" y2="747.837"/><path d="M898,89 L898,187.5301 A0,0 0 0 0 898,187.5301 L949,187.5301 L953,362.14 L957,187.5301 L1008,187.5301 A0,0 0 0 0 1008,187.5301 L1008,99 L998,89 L898,89 A0,0 0 0 0 898,89 " fill="#FBFB77" filter="url(#f17be4cs0uft4t)" style="stroke: #A80036; stroke-width: 1.0;"/><path d="M998,89 L998,99 L1008,99 L998,89 " fill="#FBFB77" style="stroke: #A80036; stroke-width: 1.0;"/><text fill="#000000" font-family="sans-serif" font-size="13" lengthAdjust="spacingAndGlyphs" textLength="85" x="904" y="107.897">Aktuelle roller:</text><text fill="#000000" font-family="sans-serif" font-size="13" lengthAdjust="spacingAndGlyphs" textLength="84" x="904" y="125.603">Arkivansvarlig</text><text fill="#000000" font-family="sans-serif" font-size="13" lengthAdjust="spacingAndGlyphs" textLength="89" x="904" y="143.309">Arkivpersonale</text><text fill="#000000" font-family="sans-serif" font-size="13" lengthAdjust="spacingAndGlyphs" textLength="34" x="904" y="161.0151">Leder</text><text fill="#000000" font-family="sans-serif" font-size="13" lengthAdjust="spacingAndGlyphs" textLength="88" x="904" y="178.7211">Saksbehandler</text><path d="M870,362.5 L870,425.618 L1036,425.618 L1036,372.5 L1026,362.5 L870,362.5 " fill="#FBFB77" filter="url(#f17be4cs0uft4t)" style="stroke: #A80036; stroke-width: 1.0;"/><path d="M1026,362.5 L1026,372.5 L1036,372.5 L1026,362.5 " fill="#FBFB77" style="stroke: #A80036; stroke-width: 1.0;"/><text fill="#000000" font-family="sans-serif" font-size="13" lengthAdjust="spacingAndGlyphs" textLength="127" x="876" y="381.397">Roller kan komme fra</text><text fill="#000000" font-family="sans-serif" font-size="13" lengthAdjust="spacingAndGlyphs" textLength="145" x="876" y="399.103">autentiseringsløsningen</text><text fill="#000000" font-family="sans-serif" font-size="13" lengthAdjust="spacingAndGlyphs" textLength="76" x="876" y="416.809">(som Claims)</text><!--MD5=[eac196b36fd62f3785914c200abe219b]
class Kodelister.Tilgangsrestriksjon--><rect fill="#FEFECE" filter="url(#f17be4cs0uft4t)" height="238.4709" id="Kodelister.Tilgangsrestriksjon" style="stroke: #A80036; stroke-width: 1.5;" width="278" x="38" y="275"/><ellipse cx="119.75" cy="296.3441" fill="#ADD1B2" rx="11" ry="11" style="stroke: #A80036; stroke-width: 1.0;"/><path d="M119.2188,303.266 Q117.4688,303.266 116.3281,302.5316 Q115.2031,301.7816 114.6406,300.4379 Q114.0938,299.0785 114.0938,297.2816 Q114.0938,295.2504 114.75,293.7972 Q115.4063,292.3441 116.6875,291.5629 Q117.9688,290.7816 119.8438,290.7816 Q120.7344,290.7816 121.4063,290.9691 Q122.0781,291.141 122.7656,291.4847 L121.9531,293.5004 Q121.3281,293.1879 120.7813,293.0629 Q120.25,292.9379 119.7656,292.9379 Q118.5938,292.9379 117.8906,293.4691 Q117.1875,294.0004 116.8906,294.9535 Q116.5938,295.9066 116.5938,297.1722 Q116.5938,299.1879 117.3125,300.1566 Q118.0313,301.1097 119.625,301.1097 Q120.2188,301.1097 120.8438,300.9535 Q121.4688,300.7972 122.2969,300.4222 L122.2969,302.641 Q121.5625,302.9535 120.7656,303.1097 Q119.9844,303.266 119.2188,303.266 Z "/><text fill="#000000" font-family="sans-serif" font-size="12" font-style="italic" lengthAdjust="spacingAndGlyphs" textLength="52" x="167.25" y="292.8281">«codelist»</text><text fill="#000000" font-family="sans-serif" font-size="12" lengthAdjust="spacingAndGlyphs" textLength="106" x="140.25" y="309.1722">Tilgangsrestriksjon</text><line style="stroke: #A80036; stroke-width: 1.5;" x1="39" x2="315" y1="317.6882" y2="317.6882"/><text fill="#000000" font-family="sans-serif" font-size="11" lengthAdjust="spacingAndGlyphs" textLength="217" x="44" y="333.4471">+Begrenset etter sikkerhetsinstruksen = B</text><text fill="#000000" font-family="sans-serif" font-size="11" lengthAdjust="spacingAndGlyphs" textLength="233" x="44" y="348.429">+Konfidensielt etter sikkerhetsinstruksen = K</text><text fill="#000000" font-family="sans-serif" font-size="11" lengthAdjust="spacingAndGlyphs" textLength="218" x="44" y="363.4109">+Hemmelig etter sikkerhetsinstruksen = H</text><text fill="#000000" font-family="sans-serif" font-size="11" lengthAdjust="spacingAndGlyphs" textLength="220" x="44" y="378.3928">+Fortrolig etter beskyttelsesinstruksen = F</text><text fill="#000000" font-family="sans-serif" font-size="11" lengthAdjust="spacingAndGlyphs" textLength="266" x="44" y="393.3747">+Strengt fortrolig etter beskyttelsesinstruksen = SF</text><text fill="#000000" font-family="sans-serif" font-size="11" lengthAdjust="spacingAndGlyphs" textLength="209" x="44" y="408.3566">+Unntatt etter offentlighetsloven § 5 = 5</text><text fill="#000000" font-family="sans-serif" font-size="11" lengthAdjust="spacingAndGlyphs" textLength="221" x="44" y="423.3385">+Unntatt etter offentlighetsloven § 5a = 5a</text><text fill="#000000" font-family="sans-serif" font-size="11" lengthAdjust="spacingAndGlyphs" textLength="209" x="44" y="438.3204">+Unntatt etter offentlighetsloven § 6 = 6</text><text fill="#000000" font-family="sans-serif" font-size="11" lengthAdjust="spacingAndGlyphs" textLength="221" x="44" y="453.3022">+Unntatt etter offentlighetsloven § 11 = 11</text><text fill="#000000" font-family="sans-serif" font-size="11" lengthAdjust="spacingAndGlyphs" textLength="129" x="44" y="468.2841">+Midlertidig sperret = XX</text><text fill="#000000" font-family="sans-serif" font-size="11" lengthAdjust="spacingAndGlyphs" textLength="99" x="44" y="483.266">+Personalsaker = P</text><text fill="#000000" font-family="sans-serif" font-size="11" lengthAdjust="spacingAndGlyphs" textLength="89" x="44" y="498.2479">+Klientsaker = KL</text><line style="stroke: #A80036; stroke-width: 1.5;" x1="39" x2="315" y1="505.4709" y2="505.4709"/><!--MD5=[d590bec51a0232cb17495abc33cf1fe5]
class Kodelister.Tilgangskategori--><rect fill="#FEFECE" filter="url(#f17be4cs0uft4t)" height="133.5977" id="Kodelister.Tilgangskategori" style="stroke: #A80036; stroke-width: 1.5;" width="150" x="70" y="597.5"/><ellipse cx="96.25" cy="618.8441" fill="#ADD1B2" rx="11" ry="11" style="stroke: #A80036; stroke-width: 1.0;"/><path d="M95.7188,625.766 Q93.9688,625.766 92.8281,625.0316 Q91.7031,624.2816 91.1406,622.9379 Q90.5938,621.5785 90.5938,619.7816 Q90.5938,617.7504 91.25,616.2972 Q91.9063,614.8441 93.1875,614.0629 Q94.4688,613.2816 96.3438,613.2816 Q97.2344,613.2816 97.9063,613.4691 Q98.5781,613.641 99.2656,613.9847 L98.4531,616.0004 Q97.8281,615.6879 97.2813,615.5629 Q96.75,615.4379 96.2656,615.4379 Q95.0938,615.4379 94.3906,615.9691 Q93.6875,616.5004 93.3906,617.4535 Q93.0938,618.4066 93.0938,619.6722 Q93.0938,621.6879 93.8125,622.6566 Q94.5313,623.6097 96.125,623.6097 Q96.7188,623.6097 97.3438,623.4535 Q97.9688,623.2972 98.7969,622.9222 L98.7969,625.141 Q98.0625,625.4535 97.2656,625.6097 Q96.4844,625.766 95.7188,625.766 Z "/><text fill="#000000" font-family="sans-serif" font-size="12" font-style="italic" lengthAdjust="spacingAndGlyphs" textLength="52" x="133.25" y="615.3281">«codelist»</text><text fill="#000000" font-family="sans-serif" font-size="12" lengthAdjust="spacingAndGlyphs" textLength="93" x="112.75" y="631.6722">Tilgangskategori</text><line style="stroke: #A80036; stroke-width: 1.5;" x1="71" x2="219" y1="640.1882" y2="640.1882"/><text fill="#000000" font-family="sans-serif" font-size="11" lengthAdjust="spacingAndGlyphs" textLength="67" x="76" y="655.9471">+arkivdel = A</text><text fill="#000000" font-family="sans-serif" font-size="11" lengthAdjust="spacingAndGlyphs" textLength="56" x="76" y="670.929">+klasse = K</text><text fill="#000000" font-family="sans-serif" font-size="11" lengthAdjust="spacingAndGlyphs" textLength="64" x="76" y="685.9109">+mappe = M</text><text fill="#000000" font-family="sans-serif" font-size="11" lengthAdjust="spacingAndGlyphs" textLength="88" x="76" y="700.8928">+registrering = R</text><text fill="#000000" font-family="sans-serif" font-size="11" lengthAdjust="spacingAndGlyphs" textLength="138" x="76" y="715.8747">+dokumentbeskrivelse = D</text><line style="stroke: #A80036; stroke-width: 1.5;" x1="71" x2="219" y1="723.0977" y2="723.0977"/><path d="M400,588.5 L400,740.1481 L690,740.1481 L690,598.5 L680,588.5 L400,588.5 " fill="#FBFB77" filter="url(#f17be4cs0uft4t)" style="stroke: #A80036; stroke-width: 1.0;"/><path d="M680,588.5 L680,598.5 L690,598.5 L680,588.5 " fill="#FBFB77" style="stroke: #A80036; stroke-width: 1.0;"/><text fill="#000000" font-family="sans-serif" font-size="13" lengthAdjust="spacingAndGlyphs" textLength="246" x="406" y="607.397">Saksbehandlerrolle X i fagsystem A = rolle</text><text fill="#000000" font-family="sans-serif" font-size="13" lengthAdjust="spacingAndGlyphs" textLength="252" x="406" y="625.103">får lese tilgang til arkivdel med systemid=2</text><text fill="#000000" font-family="sans-serif" font-size="13" lengthAdjust="spacingAndGlyphs" textLength="208" x="406" y="642.809">kan lese, opprette og endre klasser</text><text fill="#000000" font-family="sans-serif" font-size="13" lengthAdjust="spacingAndGlyphs" textLength="215" x="406" y="660.5151">Kan lese, opprette og endre mapper</text><text fill="#000000" font-family="sans-serif" font-size="13" lengthAdjust="spacingAndGlyphs" textLength="216" x="406" y="678.2211">Kan IKKE lese mapper Personalsaker</text><text fill="#000000" font-family="sans-serif" font-size="13" lengthAdjust="spacingAndGlyphs" textLength="250" x="406" y="695.9271">Kan lese, opprette og endre registreringer</text><text fill="#000000" font-family="sans-serif" font-size="13" lengthAdjust="spacingAndGlyphs" textLength="269" x="406" y="713.6331">Kan lese, opprette og endre dokumentobjekt</text><text fill="#000000" font-family="sans-serif" font-size="13" lengthAdjust="spacingAndGlyphs" textLength="238" x="406" y="731.3391">Kan IKKE lese graderte dokumentobjekt</text><!--MD5=[dca5aaa45b93da697f6e5777743e2662]
link Admin.Bruker to Admin.AdministrativEnhet--><path d="M1399.47,220.4 C1400.82,244.91 1402.32,272.05 1403.72,297.42 " fill="none" id="Admin.Bruker-Admin.AdministrativEnhet" style="stroke: #A80036; stroke-width: 1.0;"/><polygon fill="#A80036" points="1404,302.47,1407.4785,293.2559,1403.7139,297.4782,1399.4916,293.7136,1404,302.47" style="stroke: #A80036; stroke-width: 1.0;"/><polygon fill="#A80036" points="1399.18,215.21,1395.6752,224.4141,1399.4518,220.2026,1403.6633,223.9792,1399.18,215.21" style="stroke: #A80036; stroke-width: 1.0;"/><text fill="#000000" font-family="sans-serif" font-size="13" lengthAdjust="spacingAndGlyphs" textLength="70" x="1326.4351" y="236.7331">+bruker 0..*</text><text fill="#000000" font-family="sans-serif" font-size="13" lengthAdjust="spacingAndGlyphs" textLength="65" x="1335.7773" y="290.808">+enhet 0..*</text><!--MD5=[2e239a4259c1cb41e679cdb49e79588c]
link Admin.Bruker to Admin.RolleNote--><path d="M1202.32,192.49 C1176.19,202.9 1150.36,215.02 1127,229 C1066.26,265.33 1009.25,326.02 977.94,362.5 " fill="none" id="Admin.Bruker-Admin.RolleNote" style="stroke: #A80036; stroke-width: 1.0; stroke-dasharray: 7.0,7.0;"/><!--MD5=[0f00636747a4f973a84ce947a4967655]
link Admin.RolleNote to Admin.Tilgang--><path d="M958,425.54 C963.85,461.21 973.79,521.85 982.17,572.98 " fill="none" id="Admin.RolleNote-Admin.Tilgang" style="stroke: #A80036; stroke-width: 1.0; stroke-dasharray: 7.0,7.0;"/><!--MD5=[61d54cb9952b6874516058d3af7c7aae]
link Kodelister.Tilgangsrestriksjon to Saksbehandlerrolle--><!--MD5=[78637ea9a0f78612c554c3c48c4e4b75]
link Kodelister.Tilgangskategori to Saksbehandlerrolle--><!--MD5=[78bf14ec6669dfc2f5959435ff0ccf39]
link Kodelister.Tilgangskategori to Admin.Tilgang--><!--MD5=[1661784d18d1c9709b216d1f59ff8d64]
link Kodelister.Tilgangsrestriksjon to Kodelister.Tilgangskategori--><!--MD5=[059133c2bfac82b5ead670abb7a27f6f]
@startuml
skinparam classAttributeIconSize 0
skinparam nodesep 180

class Admin.Bruker {
  +systemID : SystemID [0..1] [1..1]
  +brukerNavn : string
  +opprettetDato : datetime [0..1] [1..1]
  +opprettetAv : string [0..1] [1..1]
  +avsluttetDato : datetime [0..1]
  +virksomhetsspesifikkeMetadata : VirksomhetsspesifikkeMetadata [0..1]
  +kortnavn : string [0..1]
}
class Admin.AdministrativEnhet {
  +systemID : SystemID [0..1] [1..1]
  +administrativEnhetNavn : string
  +kortnavn : string [0..1]
  +opprettetDato : datetime [0..1] [1..1]
  +opprettetAv : string [0..1] [1..1]
  +avsluttetDato : datetime [0..1]
  +administrativEnhetsstatus : string
  +referanseOverordnetEnhet : SystemID [0..1]
  +virksomhetsspesifikkeMetadata : VirksomhetsspesifikkeMetadata [0..1]
}
class Admin.Tilgang {
  +systemID : SystemID [0..1] [1..1]
  +rolle : string
  +tilgangskategori : Tilgangskategori
  +referanseArkivenhet : SystemID [0..1]
  +tilgangsrestriksjon : Tilgangsrestriksjon [0..1]
  +les : boolean
  +ny : boolean
  +endre : boolean
  +slett : boolean
}
class Kodelister.Tilgangsrestriksjon <<codelist>> {
  +Begrenset etter sikkerhetsinstruksen = B
  +Konfidensielt etter sikkerhetsinstruksen = K
  +Hemmelig etter sikkerhetsinstruksen = H
  +Fortrolig etter beskyttelsesinstruksen = F
  +Strengt fortrolig etter beskyttelsesinstruksen = SF
  +Unntatt etter offentlighetsloven § 5 = 5
  +Unntatt etter offentlighetsloven § 5a = 5a
  +Unntatt etter offentlighetsloven § 6 = 6
  +Unntatt etter offentlighetsloven § 11 = 11
  +Midlertidig sperret = XX
  +Personalsaker = P
  +Klientsaker = KL
}
class Kodelister.Tilgangskategori <<codelist>> {
  +arkivdel = A
  +klasse = K
  +mappe = M
  +registrering = R
  +dokumentbeskrivelse = D
}

Admin.Bruker "+bruker 0..*" <- -> "+enhet 0..*" Admin.AdministrativEnhet

package Admin {
note "Aktuelle roller:\nArkivansvarlig\nArkivpersonale\nLeder\nSaksbehandler" as Roller

note "Roller kan komme fra\nautentiseringsløsningen\n(som Claims)" as RolleNote
}
Admin.Bruker .. Admin.RolleNote
Admin.RolleNote .. Admin.Tilgang

Admin.Roller .. Admin.RolleNote

note "Saksbehandlerrolle X i fagsystem A = rolle\nfår lese tilgang til arkivdel med systemid=2\nkan lese, opprette og endre klasser\nKan lese, opprette og endre mapper\nKan IKKE lese mapper Personalsaker\nKan lese, opprette og endre registreringer\nKan lese, opprette og endre dokumentobjekt\nKan IKKE lese graderte dokumentobjekt" as Saksbehandlerrolle

Kodelister.Tilgangsrestriksjon -[hidden]> Saksbehandlerrolle
Kodelister.Tilgangskategori -[hidden]> Saksbehandlerrolle
Kodelister.Tilgangskategori -[hidden]> Admin.Tilgang
Kodelister.Tilgangsrestriksjon -[hidden]-> Kodelister.Tilgangskategori
@enduml

PlantUML version 1.2020.02(Sun Mar 01 11:22:07 CET 2020)
(GPL source distribution)
Java Runtime: OpenJDK Runtime Environment
JVM: OpenJDK 64-Bit Server VM
Java Version: 17.0.6+10-Debian-1
Operating System: Linux
Default Encoding: UTF-8
Language: en
Country: US
--></g></svg>