<?xml version="1.0" encoding="UTF-8" standalone="no"?><svg xmlns="http://www.w3.org/2000/svg" xmlns:xlink="http://www.w3.org/1999/xlink" contentScriptType="application/ecmascript" contentStyleType="text/css" height="1252px" preserveAspectRatio="none" style="width:1420px;height:1252px;" version="1.1" viewBox="0 0 1420 1252" width="1420px" zoomAndPan="magnify"><defs><filter height="300%" id="f1o6e2733ar5j0" width="300%" x="-1" y="-1"><feGaussianBlur result="blurOut" stdDeviation="2.0"/><feColorMatrix in="blurOut" result="blurOut2" type="matrix" values="0 0 0 0 0 0 0 0 0 0 0 0 0 0 0 0 0 0 .4 0"/><feOffset dx="4.0" dy="4.0" in="blurOut2" result="blurOut3"/><feBlend in="SourceGraphic" in2="blurOut3" mode="normal"/></filter></defs><g><!--MD5=[069ea117d8bb01159729074d99b1e334]
cluster Sakarkiv--><polygon fill="#FFFFFF" filter="url(#f1o6e2733ar5j0)" points="22,24,88,24,95,49.0679,380,49.0679,380,998,22,998,22,24" style="stroke: #000000; stroke-width: 1.5;"/><line style="stroke: #000000; stroke-width: 1.5;" x1="22" x2="95" y1="49.0679" y2="49.0679"/><text fill="#000000" font-family="sans-serif" font-size="14" font-weight="bold" lengthAdjust="spacingAndGlyphs" textLength="60" x="26" y="40.9659">Sakarkiv</text><!--MD5=[232c485b1f52e07d9ce0910f7499e2a6]
cluster Arkivstruktur--><polygon fill="#FFFFFF" filter="url(#f1o6e2733ar5j0)" points="404,331,505,331,512,356.0679,1398,356.0679,1398,990.5,404,990.5,404,331" style="stroke: #000000; stroke-width: 1.5;"/><line style="stroke: #000000; stroke-width: 1.5;" x1="404" x2="512" y1="356.0679" y2="356.0679"/><text fill="#000000" font-family="sans-serif" font-size="14" font-weight="bold" lengthAdjust="spacingAndGlyphs" textLength="95" x="408" y="347.9659">Arkivstruktur</text><!--MD5=[68eac0387a028fbb729470faa528465a]
cluster Kodelister--><polygon fill="#FFFFFF" filter="url(#f1o6e2733ar5j0)" points="113,1022,189,1022,196,1047.0679,289,1047.0679,289,1240,113,1240,113,1022" style="stroke: #000000; stroke-width: 1.5;"/><line style="stroke: #000000; stroke-width: 1.5;" x1="113" x2="196" y1="1047.0679" y2="1047.0679"/><text fill="#000000" font-family="sans-serif" font-size="14" font-weight="bold" lengthAdjust="spacingAndGlyphs" textLength="70" x="117" y="1038.9659">Kodelister</text><!--MD5=[2f08e53298f8f090d026427c85b7c44d]
class Sakarkiv.Journalpost--><rect fill="#FEFECE" filter="url(#f1o6e2733ar5j0)" height="707.2031" id="Sakarkiv.Journalpost" style="stroke: #A80036; stroke-width: 1.5;" width="262" x="86" y="62"/><ellipse cx="146.75" cy="78" fill="#ADD1B2" rx="11" ry="11" style="stroke: #A80036; stroke-width: 1.0;"/><path d="M146.2188,84.9219 Q144.4688,84.9219 143.3281,84.1875 Q142.2031,83.4375 141.6406,82.0938 Q141.0938,80.7344 141.0938,78.9375 Q141.0938,76.9063 141.75,75.4531 Q142.4063,74 143.6875,73.2188 Q144.9688,72.4375 146.8438,72.4375 Q147.7344,72.4375 148.4063,72.625 Q149.0781,72.7969 149.7656,73.1406 L148.9531,75.1563 Q148.3281,74.8438 147.7813,74.7188 Q147.25,74.5938 146.7656,74.5938 Q145.5938,74.5938 144.8906,75.125 Q144.1875,75.6563 143.8906,76.6094 Q143.5938,77.5625 143.5938,78.8281 Q143.5938,80.8438 144.3125,81.8125 Q145.0313,82.7656 146.625,82.7656 Q147.2188,82.7656 147.8438,82.6094 Q148.4688,82.4531 149.2969,82.0781 L149.2969,84.2969 Q148.5625,84.6094 147.7656,84.7656 Q146.9844,84.9219 146.2188,84.9219 Z "/><text fill="#000000" font-family="sans-serif" font-size="12" lengthAdjust="spacingAndGlyphs" textLength="63" x="167.25" y="82.656">Journalpost</text><rect fill="#FFFFFF" height="18.3441" style="stroke: #000000; stroke-width: 1.0; stroke-dasharray: 2.0,2.0;" width="67" x="284" y="59"/><text fill="#000000" font-family="sans-serif" font-size="12" font-style="italic" lengthAdjust="spacingAndGlyphs" textLength="65" x="285" y="72.8281">Registrering</text><line style="stroke: #A80036; stroke-width: 1.5;" x1="87" x2="347" y1="94" y2="94"/><text fill="#000000" font-family="sans-serif" font-size="11" lengthAdjust="spacingAndGlyphs" textLength="137" x="92" y="109.7589">+journalaar : integer [0..1]</text><text fill="#000000" font-family="sans-serif" font-size="11" lengthAdjust="spacingAndGlyphs" textLength="206" x="92" y="124.7408">+journalsekvensnummer : integer [0..1]</text><text fill="#000000" font-family="sans-serif" font-size="11" lengthAdjust="spacingAndGlyphs" textLength="188" x="92" y="139.7227">+journalpostnummer : integer [0..1]</text><text fill="#000000" font-family="sans-serif" font-size="11" lengthAdjust="spacingAndGlyphs" textLength="183" x="92" y="154.7046">+journalposttype : Journalposttype</text><text fill="#000000" font-family="sans-serif" font-size="11" lengthAdjust="spacingAndGlyphs" textLength="153" x="92" y="169.6865">+journalstatus : Journalstatus</text><text fill="#000000" font-family="sans-serif" font-size="11" lengthAdjust="spacingAndGlyphs" textLength="100" x="92" y="184.6684">+journaldato : date</text><text fill="#000000" font-family="sans-serif" font-size="11" lengthAdjust="spacingAndGlyphs" textLength="161" x="92" y="199.6502">+dokumentetsDato : date [0..1]</text><text fill="#000000" font-family="sans-serif" font-size="11" lengthAdjust="spacingAndGlyphs" textLength="131" x="92" y="214.6321">+mottattDato : date [0..1]</text><text fill="#000000" font-family="sans-serif" font-size="11" lengthAdjust="spacingAndGlyphs" textLength="121" x="92" y="229.614">+sendtDato : date [0..1]</text><text fill="#000000" font-family="sans-serif" font-size="11" lengthAdjust="spacingAndGlyphs" textLength="128" x="92" y="244.5959">+forfallsdato : date [0..1]</text><text fill="#000000" font-family="sans-serif" font-size="11" lengthAdjust="spacingAndGlyphs" textLength="199" x="92" y="259.5778">+offentlighetsvurdertDato : date [0..1]</text><text fill="#000000" font-family="sans-serif" font-size="11" lengthAdjust="spacingAndGlyphs" textLength="154" x="92" y="274.5597">+antallVedlegg : integer [0..1]</text><text fill="#000000" font-family="sans-serif" font-size="11" lengthAdjust="spacingAndGlyphs" textLength="123" x="92" y="289.5416">+utlantDato : date [0..1]</text><text fill="#000000" font-family="sans-serif" font-size="11" lengthAdjust="spacingAndGlyphs" textLength="124" x="92" y="304.5235">+utlaantTil : string [0..1]</text><text fill="#000000" font-family="sans-serif" font-size="11" lengthAdjust="spacingAndGlyphs" textLength="193" x="92" y="319.5053">+referanseUtlaantTil : SystemID [0..1]</text><text fill="#000000" font-family="sans-serif" font-size="11" lengthAdjust="spacingAndGlyphs" textLength="143" x="92" y="334.4872">+journalenhet : string [0..1]</text><text fill="#000000" font-family="sans-serif" font-size="11" lengthAdjust="spacingAndGlyphs" textLength="250" x="92" y="349.4691">+elektroniskSignatur : ElektroniskSignatur [0..1]</text><text fill="#000000" font-family="sans-serif" font-size="11" lengthAdjust="spacingAndGlyphs" textLength="0" x="95" y="364.451"/><text fill="#000000" font-family="sans-serif" font-size="11" lengthAdjust="spacingAndGlyphs" textLength="156" x="92" y="398.4148">+arkivertDato : datetime [0..1]</text><text fill="#000000" font-family="sans-serif" font-size="11" lengthAdjust="spacingAndGlyphs" textLength="129" x="92" y="413.3967">+arkivertAv : string [0..1]</text><text fill="#000000" font-family="sans-serif" font-size="11" lengthAdjust="spacingAndGlyphs" textLength="198" x="92" y="428.3786">+referanseArkivertAv : SystemID [0..1]</text><text fill="#000000" font-family="sans-serif" font-size="11" lengthAdjust="spacingAndGlyphs" textLength="145" x="92" y="443.3604">+kassasjon : Kassasjon [0..1]</text><text fill="#000000" font-family="sans-serif" font-size="11" lengthAdjust="spacingAndGlyphs" textLength="149" x="92" y="458.3423">+skjerming : Skjerming [0..1]</text><text fill="#000000" font-family="sans-serif" font-size="11" lengthAdjust="spacingAndGlyphs" textLength="151" x="92" y="473.3242">+gradering : Gradering [0..1]</text><text fill="#000000" font-family="sans-serif" font-size="11" lengthAdjust="spacingAndGlyphs" textLength="186" x="92" y="488.3061">+referanseArkivdel : SystemID [0..1]</text><text fill="#000000" font-family="sans-serif" font-size="11" lengthAdjust="spacingAndGlyphs" textLength="150" x="92" y="503.288">+registreringID : string [0..1]</text><text fill="#000000" font-family="sans-serif" font-size="11" lengthAdjust="spacingAndGlyphs" textLength="70" x="92" y="518.2699">+tittel : string</text><text fill="#000000" font-family="sans-serif" font-size="11" lengthAdjust="spacingAndGlyphs" textLength="146" x="92" y="533.2518">+offentligTittel : string [0..1]</text><text fill="#000000" font-family="sans-serif" font-size="11" lengthAdjust="spacingAndGlyphs" textLength="133" x="92" y="548.2337">+beskrivelse : string [0..1]</text><text fill="#000000" font-family="sans-serif" font-size="11" lengthAdjust="spacingAndGlyphs" textLength="135" x="92" y="563.2155">+noekkelord : string [0..*]</text><text fill="#000000" font-family="sans-serif" font-size="11" lengthAdjust="spacingAndGlyphs" textLength="120" x="92" y="578.1974">+forfatter : string [0..*]</text><text fill="#000000" font-family="sans-serif" font-size="11" lengthAdjust="spacingAndGlyphs" textLength="239" x="92" y="593.1793">+dokumentmedium : Dokumentmedium [0..1]</text><text fill="#000000" font-family="sans-serif" font-size="11" lengthAdjust="spacingAndGlyphs" textLength="170" x="92" y="608.1612">+oppbevaringssted : string [0..*]</text><text fill="#000000" font-family="sans-serif" font-size="11" lengthAdjust="spacingAndGlyphs" textLength="227" x="92" y="623.1431">+virksomhetsspesifikkeMetadata : any [0..1]</text><text fill="#000000" font-family="sans-serif" font-size="11" lengthAdjust="spacingAndGlyphs" textLength="0" x="95" y="638.125"/><line style="stroke: #A80036; stroke-width: 1.0;" x1="87" x2="184.5" y1="379.1649" y2="379.1649"/><text fill="#000000" font-family="sans-serif" font-size="11" lengthAdjust="spacingAndGlyphs" textLength="65" x="184.5" y="382.9329">Registrering</text><line style="stroke: #A80036; stroke-width: 1.0;" x1="249.5" x2="347" y1="379.1649" y2="379.1649"/><text fill="#000000" font-family="sans-serif" font-size="11" lengthAdjust="spacingAndGlyphs" textLength="141" x="92" y="672.0888">+systemID : SystemID [0..1]</text><text fill="#000000" font-family="sans-serif" font-size="11" lengthAdjust="spacingAndGlyphs" textLength="150" x="92" y="687.0706">+endretDato : datetime [0..1]</text><text fill="#000000" font-family="sans-serif" font-size="11" lengthAdjust="spacingAndGlyphs" textLength="165" x="92" y="702.0525">+opprettetDato : datetime [0..1]</text><text fill="#000000" font-family="sans-serif" font-size="11" lengthAdjust="spacingAndGlyphs" textLength="138" x="92" y="717.0344">+opprettetAv : string [0..1]</text><text fill="#000000" font-family="sans-serif" font-size="11" lengthAdjust="spacingAndGlyphs" textLength="123" x="92" y="732.0163">+endretAv : string [0..1]</text><text fill="#000000" font-family="sans-serif" font-size="11" lengthAdjust="spacingAndGlyphs" textLength="211" x="92" y="746.9982">+referanseOppdatertAv : SystemID [0..1]</text><text fill="#000000" font-family="sans-serif" font-size="11" lengthAdjust="spacingAndGlyphs" textLength="208" x="92" y="761.9801">+referanseOpprettetAv : SystemID [0..1]</text><line style="stroke: #A80036; stroke-width: 1.0;" x1="87" x2="188.5" y1="652.8389" y2="652.8389"/><text fill="#000000" font-family="sans-serif" font-size="11" lengthAdjust="spacingAndGlyphs" textLength="57" x="188.5" y="656.6069">Arkivenhet</text><line style="stroke: #A80036; stroke-width: 1.0;" x1="245.5" x2="347" y1="652.8389" y2="652.8389"/><!--MD5=[c6af8ee822666342b688fca195c2130c]
class Sakarkiv.Avskrivning--><rect fill="#FEFECE" filter="url(#f1o6e2733ar5j0)" height="152.8732" id="Sakarkiv.Avskrivning" style="stroke: #A80036; stroke-width: 1.5;" width="326" x="38" y="829"/><ellipse cx="164.75" cy="845" fill="#ADD1B2" rx="11" ry="11" style="stroke: #A80036; stroke-width: 1.0;"/><path d="M164.2188,851.9219 Q162.4688,851.9219 161.3281,851.1875 Q160.2031,850.4375 159.6406,849.0938 Q159.0938,847.7344 159.0938,845.9375 Q159.0938,843.9063 159.75,842.4531 Q160.4063,841 161.6875,840.2188 Q162.9688,839.4375 164.8438,839.4375 Q165.7344,839.4375 166.4063,839.625 Q167.0781,839.7969 167.7656,840.1406 L166.9531,842.1563 Q166.3281,841.8438 165.7813,841.7188 Q165.25,841.5938 164.7656,841.5938 Q163.5938,841.5938 162.8906,842.125 Q162.1875,842.6563 161.8906,843.6094 Q161.5938,844.5625 161.5938,845.8281 Q161.5938,847.8438 162.3125,848.8125 Q163.0313,849.7656 164.625,849.7656 Q165.2188,849.7656 165.8438,849.6094 Q166.4688,849.4531 167.2969,849.0781 L167.2969,851.2969 Q166.5625,851.6094 165.7656,851.7656 Q164.9844,851.9219 164.2188,851.9219 Z "/><text fill="#000000" font-family="sans-serif" font-size="12" lengthAdjust="spacingAndGlyphs" textLength="64" x="185.25" y="849.656">Avskrivning</text><line style="stroke: #A80036; stroke-width: 1.5;" x1="39" x2="363" y1="861" y2="861"/><text fill="#000000" font-family="sans-serif" font-size="11" lengthAdjust="spacingAndGlyphs" textLength="170" x="44" y="876.7589">+systemID : SystemID [0..1] [1..1]</text><text fill="#000000" font-family="sans-serif" font-size="11" lengthAdjust="spacingAndGlyphs" textLength="209" x="44" y="891.7408">+avskrivningsdato : datetime [0..1] [1..1]</text><text fill="#000000" font-family="sans-serif" font-size="11" lengthAdjust="spacingAndGlyphs" textLength="167" x="44" y="906.7227">+avskrevetAv : string [0..1] [1..1]</text><text fill="#000000" font-family="sans-serif" font-size="11" lengthAdjust="spacingAndGlyphs" textLength="236" x="44" y="921.7046">+referanseAvskrevetAv : SystemID [0..1] [1..1]</text><text fill="#000000" font-family="sans-serif" font-size="11" lengthAdjust="spacingAndGlyphs" textLength="270" x="44" y="936.6865">+avskrivningsmaate : Avskrivningsmaate [0..1] [1..1]</text><text fill="#000000" font-family="sans-serif" font-size="11" lengthAdjust="spacingAndGlyphs" textLength="266" x="44" y="951.6684">+referanseAvskrivesAvJournalpost : SystemID [0..1]</text><text fill="#000000" font-family="sans-serif" font-size="11" lengthAdjust="spacingAndGlyphs" textLength="314" x="44" y="966.6502">+referanseAvskrivesAvKorrespondansepart : SystemID [0..1]</text><line style="stroke: #A80036; stroke-width: 1.5;" x1="39" x2="363" y1="973.8732" y2="973.8732"/><!--MD5=[4df5b11f766642853213221570ce3455]
class Arkivstruktur.Korrespondansepart--><rect fill="#FEFECE" filter="url(#f1o6e2733ar5j0)" height="92.9457" id="Arkivstruktur.Korrespondansepart" style="stroke: #A80036; stroke-width: 1.5;" width="385" x="565.5" y="369"/><ellipse cx="696.25" cy="385" fill="#ADD1B2" rx="11" ry="11" style="stroke: #A80036; stroke-width: 1.0;"/><path d="M695.7188,391.9219 Q693.9688,391.9219 692.8281,391.1875 Q691.7031,390.4375 691.1406,389.0938 Q690.5938,387.7344 690.5938,385.9375 Q690.5938,383.9063 691.25,382.4531 Q691.9063,381 693.1875,380.2188 Q694.4688,379.4375 696.3438,379.4375 Q697.2344,379.4375 697.9063,379.625 Q698.5781,379.7969 699.2656,380.1406 L698.4531,382.1563 Q697.8281,381.8438 697.2813,381.7188 Q696.75,381.5938 696.2656,381.5938 Q695.0938,381.5938 694.3906,382.125 Q693.6875,382.6563 693.3906,383.6094 Q693.0938,384.5625 693.0938,385.8281 Q693.0938,387.8438 693.8125,388.8125 Q694.5313,389.7656 696.125,389.7656 Q696.7188,389.7656 697.3438,389.6094 Q697.9688,389.4531 698.7969,389.0781 L698.7969,391.2969 Q698.0625,391.6094 697.2656,391.7656 Q696.4844,391.9219 695.7188,391.9219 Z "/><text fill="#000000" font-family="sans-serif" font-size="12" lengthAdjust="spacingAndGlyphs" textLength="115" x="716.75" y="389.656">Korrespondansepart</text><line style="stroke: #A80036; stroke-width: 1.5;" x1="566.5" x2="949.5" y1="401" y2="401"/><text fill="#000000" font-family="sans-serif" font-size="11" lengthAdjust="spacingAndGlyphs" textLength="170" x="571.5" y="416.7589">+systemID : SystemID [0..1] [1..1]</text><text fill="#000000" font-family="sans-serif" font-size="11" lengthAdjust="spacingAndGlyphs" textLength="336" x="571.5" y="431.7408">+korrespondanseparttype : Korrespondanseparttype [0..1] [1..1]</text><text fill="#000000" font-family="sans-serif" font-size="11" lengthAdjust="spacingAndGlyphs" textLength="373" x="571.5" y="446.7227">+virksomhetsspesifikkeMetadata : VirksomhetsspesifikkeMetadata [0..1]</text><line style="stroke: #A80036; stroke-width: 1.5;" x1="566.5" x2="949.5" y1="453.9457" y2="453.9457"/><!--MD5=[e57ba8e319aec23dd4c832889dbc88b1]
class Arkivstruktur.KorrespondansepartPerson--><rect fill="#FEFECE" filter="url(#f1o6e2733ar5j0)" height="122.9094" id="Arkivstruktur.KorrespondansepartPerson" style="stroke: #A80036; stroke-width: 1.5;" width="301" x="420.5" y="844"/><ellipse cx="435.5" cy="860" fill="#ADD1B2" rx="11" ry="11" style="stroke: #A80036; stroke-width: 1.0;"/><path d="M434.9688,866.9219 Q433.2188,866.9219 432.0781,866.1875 Q430.9531,865.4375 430.3906,864.0938 Q429.8438,862.7344 429.8438,860.9375 Q429.8438,858.9063 430.5,857.4531 Q431.1563,856 432.4375,855.2188 Q433.7188,854.4375 435.5938,854.4375 Q436.4844,854.4375 437.1563,854.625 Q437.8281,854.7969 438.5156,855.1406 L437.7031,857.1563 Q437.0781,856.8438 436.5313,856.7188 Q436,856.5938 435.5156,856.5938 Q434.3438,856.5938 433.6406,857.125 Q432.9375,857.6563 432.6406,858.6094 Q432.3438,859.5625 432.3438,860.8281 Q432.3438,862.8438 433.0625,863.8125 Q433.7813,864.7656 435.375,864.7656 Q435.9688,864.7656 436.5938,864.6094 Q437.2188,864.4531 438.0469,864.0781 L438.0469,866.2969 Q437.3125,866.6094 436.5156,866.7656 Q435.7344,866.9219 434.9688,866.9219 Z "/><text fill="#000000" font-family="sans-serif" font-size="12" lengthAdjust="spacingAndGlyphs" textLength="154" x="449.5" y="864.656">KorrespondansepartPerson</text><rect fill="#FFFFFF" height="18.3441" style="stroke: #000000; stroke-width: 1.0; stroke-dasharray: 2.0,2.0;" width="113" x="611.5" y="841"/><text fill="#000000" font-family="sans-serif" font-size="12" font-style="italic" lengthAdjust="spacingAndGlyphs" textLength="111" x="612.5" y="854.8281">Korrespondansepart</text><line style="stroke: #A80036; stroke-width: 1.5;" x1="421.5" x2="720.5" y1="876" y2="876"/><text fill="#000000" font-family="sans-serif" font-size="11" lengthAdjust="spacingAndGlyphs" textLength="248" x="426.5" y="891.7589">+personidentifikator : Personidentifikator [0..*]</text><text fill="#000000" font-family="sans-serif" font-size="11" lengthAdjust="spacingAndGlyphs" textLength="72" x="426.5" y="906.7408">+navn : string</text><text fill="#000000" font-family="sans-serif" font-size="11" lengthAdjust="spacingAndGlyphs" textLength="176" x="426.5" y="921.7227">+postadresse : EnkelAdresse [0..1]</text><text fill="#000000" font-family="sans-serif" font-size="11" lengthAdjust="spacingAndGlyphs" textLength="194" x="426.5" y="936.7046">+bostedsadresse : EnkelAdresse [0..1]</text><text fill="#000000" font-family="sans-serif" font-size="11" lengthAdjust="spacingAndGlyphs" textLength="253" x="426.5" y="951.6865">+kontaktinformasjon : Kontaktinformasjon [0..1]</text><line style="stroke: #A80036; stroke-width: 1.5;" x1="421.5" x2="720.5" y1="958.9094" y2="958.9094"/><!--MD5=[bff338df9be1ad89eba6d47e996b9a32]
class Arkivstruktur.KorrespondansepartEnhet--><rect fill="#FEFECE" filter="url(#f1o6e2733ar5j0)" height="137.8913" id="Arkivstruktur.KorrespondansepartEnhet" style="stroke: #A80036; stroke-width: 1.5;" width="294" x="757" y="836.5"/><ellipse cx="772" cy="852.5" fill="#ADD1B2" rx="11" ry="11" style="stroke: #A80036; stroke-width: 1.0;"/><path d="M771.4688,859.4219 Q769.7188,859.4219 768.5781,858.6875 Q767.4531,857.9375 766.8906,856.5938 Q766.3438,855.2344 766.3438,853.4375 Q766.3438,851.4063 767,849.9531 Q767.6563,848.5 768.9375,847.7188 Q770.2188,846.9375 772.0938,846.9375 Q772.9844,846.9375 773.6563,847.125 Q774.3281,847.2969 775.0156,847.6406 L774.2031,849.6563 Q773.5781,849.3438 773.0313,849.2188 Q772.5,849.0938 772.0156,849.0938 Q770.8438,849.0938 770.1406,849.625 Q769.4375,850.1563 769.1406,851.1094 Q768.8438,852.0625 768.8438,853.3281 Q768.8438,855.3438 769.5625,856.3125 Q770.2813,857.2656 771.875,857.2656 Q772.4688,857.2656 773.0938,857.1094 Q773.7188,856.9531 774.5469,856.5781 L774.5469,858.7969 Q773.8125,859.1094 773.0156,859.2656 Q772.2344,859.4219 771.4688,859.4219 Z "/><text fill="#000000" font-family="sans-serif" font-size="12" lengthAdjust="spacingAndGlyphs" textLength="147" x="786" y="857.156">KorrespondansepartEnhet</text><rect fill="#FFFFFF" height="18.3441" style="stroke: #000000; stroke-width: 1.0; stroke-dasharray: 2.0,2.0;" width="113" x="941" y="833.5"/><text fill="#000000" font-family="sans-serif" font-size="12" font-style="italic" lengthAdjust="spacingAndGlyphs" textLength="111" x="942" y="847.3281">Korrespondansepart</text><line style="stroke: #A80036; stroke-width: 1.5;" x1="758" x2="1050" y1="868.5" y2="868.5"/><text fill="#000000" font-family="sans-serif" font-size="11" lengthAdjust="spacingAndGlyphs" textLength="244" x="763" y="884.2589">+enhetsidentifikator : Enhetsidentifikator [0..1]</text><text fill="#000000" font-family="sans-serif" font-size="11" lengthAdjust="spacingAndGlyphs" textLength="72" x="763" y="899.2408">+navn : string</text><text fill="#000000" font-family="sans-serif" font-size="11" lengthAdjust="spacingAndGlyphs" textLength="213" x="763" y="914.2227">+forretningsadresse : EnkelAdresse [0..1]</text><text fill="#000000" font-family="sans-serif" font-size="11" lengthAdjust="spacingAndGlyphs" textLength="176" x="763" y="929.2046">+postadresse : EnkelAdresse [0..1]</text><text fill="#000000" font-family="sans-serif" font-size="11" lengthAdjust="spacingAndGlyphs" textLength="253" x="763" y="944.1865">+kontaktinformasjon : Kontaktinformasjon [0..1]</text><text fill="#000000" font-family="sans-serif" font-size="11" lengthAdjust="spacingAndGlyphs" textLength="152" x="763" y="959.1684">+kontaktperson : string [0..1]</text><line style="stroke: #A80036; stroke-width: 1.5;" x1="758" x2="1050" y1="966.3913" y2="966.3913"/><!--MD5=[2d807decc9a4d6481c29364c218366db]
class Arkivstruktur.KorrespondansepartIntern--><rect fill="#FEFECE" filter="url(#f1o6e2733ar5j0)" height="107.9276" id="Arkivstruktur.KorrespondansepartIntern" style="stroke: #A80036; stroke-width: 1.5;" width="296" x="1086" y="851.5"/><ellipse cx="1101" cy="867.5" fill="#ADD1B2" rx="11" ry="11" style="stroke: #A80036; stroke-width: 1.0;"/><path d="M1100.4688,874.4219 Q1098.7188,874.4219 1097.5781,873.6875 Q1096.4531,872.9375 1095.8906,871.5938 Q1095.3438,870.2344 1095.3438,868.4375 Q1095.3438,866.4063 1096,864.9531 Q1096.6563,863.5 1097.9375,862.7188 Q1099.2188,861.9375 1101.0938,861.9375 Q1101.9844,861.9375 1102.6563,862.125 Q1103.3281,862.2969 1104.0156,862.6406 L1103.2031,864.6563 Q1102.5781,864.3438 1102.0313,864.2188 Q1101.5,864.0938 1101.0156,864.0938 Q1099.8438,864.0938 1099.1406,864.625 Q1098.4375,865.1563 1098.1406,866.1094 Q1097.8438,867.0625 1097.8438,868.3281 Q1097.8438,870.3438 1098.5625,871.3125 Q1099.2813,872.2656 1100.875,872.2656 Q1101.4688,872.2656 1102.0938,872.1094 Q1102.7188,871.9531 1103.5469,871.5781 L1103.5469,873.7969 Q1102.8125,874.1094 1102.0156,874.2656 Q1101.2344,874.4219 1100.4688,874.4219 Z "/><text fill="#000000" font-family="sans-serif" font-size="12" lengthAdjust="spacingAndGlyphs" textLength="149" x="1115" y="872.156">KorrespondansepartIntern</text><rect fill="#FFFFFF" height="18.3441" style="stroke: #000000; stroke-width: 1.0; stroke-dasharray: 2.0,2.0;" width="113" x="1272" y="848.5"/><text fill="#000000" font-family="sans-serif" font-size="12" font-style="italic" lengthAdjust="spacingAndGlyphs" textLength="111" x="1273" y="862.3281">Korrespondansepart</text><line style="stroke: #A80036; stroke-width: 1.5;" x1="1087" x2="1381" y1="883.5" y2="883.5"/><text fill="#000000" font-family="sans-serif" font-size="11" lengthAdjust="spacingAndGlyphs" textLength="174" x="1092" y="899.2589">+administrativEnhet : string [0..1]</text><text fill="#000000" font-family="sans-serif" font-size="11" lengthAdjust="spacingAndGlyphs" textLength="243" x="1092" y="914.2408">+referanseAdministrativEnhet : SystemID [0..1]</text><text fill="#000000" font-family="sans-serif" font-size="11" lengthAdjust="spacingAndGlyphs" textLength="151" x="1092" y="929.2227">+saksbehandler : string [0..1]</text><text fill="#000000" font-family="sans-serif" font-size="11" lengthAdjust="spacingAndGlyphs" textLength="220" x="1092" y="944.2046">+referanseSaksbehandler : SystemID [0..1]</text><line style="stroke: #A80036; stroke-width: 1.5;" x1="1087" x2="1381" y1="951.4276" y2="951.4276"/><!--MD5=[ec4b57182ea40acbf4d690d9274a0e99]
class Kodelister.Avskrivningsmaate--><rect fill="#FEFECE" filter="url(#f1o6e2733ar5j0)" height="163.5614" id="Kodelister.Avskrivningsmaate" style="stroke: #A80036; stroke-width: 1.5;" width="144" x="129" y="1060"/><ellipse cx="146.7" cy="1081.3441" fill="#ADD1B2" rx="11" ry="11" style="stroke: #A80036; stroke-width: 1.0;"/><path d="M146.1688,1088.266 Q144.4188,1088.266 143.2781,1087.5316 Q142.1531,1086.7816 141.5906,1085.4379 Q141.0438,1084.0785 141.0438,1082.2816 Q141.0438,1080.2504 141.7,1078.7972 Q142.3563,1077.3441 143.6375,1076.5629 Q144.9188,1075.7816 146.7938,1075.7816 Q147.6844,1075.7816 148.3563,1075.9691 Q149.0281,1076.141 149.7156,1076.4847 L148.9031,1078.5004 Q148.2781,1078.1879 147.7313,1078.0629 Q147.2,1077.9379 146.7156,1077.9379 Q145.5438,1077.9379 144.8406,1078.4691 Q144.1375,1079.0004 143.8406,1079.9535 Q143.5438,1080.9066 143.5438,1082.1722 Q143.5438,1084.1879 144.2625,1085.1566 Q144.9813,1086.1097 146.575,1086.1097 Q147.1688,1086.1097 147.7938,1085.9535 Q148.4188,1085.7972 149.2469,1085.4222 L149.2469,1087.641 Q148.5125,1087.9535 147.7156,1088.1097 Q146.9344,1088.266 146.1688,1088.266 Z "/><text fill="#000000" font-family="sans-serif" font-size="12" font-style="italic" lengthAdjust="spacingAndGlyphs" textLength="52" x="188.3" y="1077.8281">«codelist»</text><text fill="#000000" font-family="sans-serif" font-size="12" lengthAdjust="spacingAndGlyphs" textLength="106" x="161.3" y="1094.1722">Avskrivningsmaate</text><line style="stroke: #A80036; stroke-width: 1.5;" x1="130" x2="272" y1="1102.6882" y2="1102.6882"/><text fill="#000000" font-family="sans-serif" font-size="11" lengthAdjust="spacingAndGlyphs" textLength="125" x="135" y="1118.4471">+Besvart med brev = BU</text><text fill="#000000" font-family="sans-serif" font-size="11" lengthAdjust="spacingAndGlyphs" textLength="132" x="135" y="1133.429">+Besvart med e-post = BE</text><text fill="#000000" font-family="sans-serif" font-size="11" lengthAdjust="spacingAndGlyphs" textLength="131" x="135" y="1148.4109">+Besvart på telefon = TLF</text><text fill="#000000" font-family="sans-serif" font-size="11" lengthAdjust="spacingAndGlyphs" textLength="130" x="135" y="1163.3928">+Tatt til etterretning = TE</text><text fill="#000000" font-family="sans-serif" font-size="11" lengthAdjust="spacingAndGlyphs" textLength="129" x="135" y="1178.3747">+Tatt til orientering = TO</text><text fill="#000000" font-family="sans-serif" font-size="11" lengthAdjust="spacingAndGlyphs" textLength="129" x="135" y="1193.3566">+Besvart med notat = BN</text><text fill="#000000" font-family="sans-serif" font-size="11" lengthAdjust="spacingAndGlyphs" textLength="129" x="135" y="1208.3385">+Saken ble avsluttet = SA</text><line style="stroke: #A80036; stroke-width: 1.5;" x1="130" x2="272" y1="1215.5614" y2="1215.5614"/><!--MD5=[a66cbb890b5f803c248fd33dc7270dac]
link Sakarkiv.Journalpost to Arkivstruktur.Korrespondansepart--><path d="M360.02,415.5 C360.02,415.5 488.57,415.5 552.26,415.5 " fill="none" id="Sakarkiv.Journalpost-Arkivstruktur.Korrespondansepart" style="stroke: #A80036; stroke-width: 1.0;"/><polygon fill="#A80036" points="565.42,415.5,556.42,411.5,560.42,415.5,556.42,419.5,565.42,415.5" style="stroke: #A80036; stroke-width: 1.0;"/><line style="stroke: #A80036; stroke-width: 1.0;" x1="560.42" x2="552.42" y1="415.5" y2="415.5"/><polygon fill="#A80036" points="348.02,415.5,354.02,419.5,360.02,415.5,354.02,411.5,348.02,415.5" style="stroke: #A80036; stroke-width: 1.0;"/><text fill="#000000" font-family="sans-serif" font-size="13" lengthAdjust="spacingAndGlyphs" textLength="153" x="404.4317" y="412.156">+korrespondansepart 0..*</text><!--MD5=[eaee5f029b2c4bf55d71aab9ae7d464c]
reverse link Arkivstruktur.Korrespondansepart to Arkivstruktur.KorrespondansepartPerson--><path d="M733.15,481.35 C696.84,576.11 629.76,751.15 594.33,843.61 " fill="none" id="Arkivstruktur.Korrespondansepart&lt;-Arkivstruktur.KorrespondansepartPerson" style="stroke: #A80036; stroke-width: 1.0;"/><polygon fill="none" points="726.71,478.58,740.41,462.41,739.79,483.59,726.71,478.58" style="stroke: #A80036; stroke-width: 1.0;"/><!--MD5=[8a52f9f4d977094a6530463d7dafbafe]
reverse link Arkivstruktur.Korrespondansepart to Arkivstruktur.KorrespondansepartEnhet--><path d="M777.52,481.74 C805.16,574.12 855.47,742.28 883.59,836.27 " fill="none" id="Arkivstruktur.Korrespondansepart&lt;-Arkivstruktur.KorrespondansepartEnhet" style="stroke: #A80036; stroke-width: 1.0;"/><polygon fill="none" points="770.76,483.58,771.74,462.41,784.17,479.56,770.76,483.58" style="stroke: #A80036; stroke-width: 1.0;"/><!--MD5=[584bcbbd22b711934009ceff5d2eb008]
reverse link Arkivstruktur.Korrespondansepart to Arkivstruktur.KorrespondansepartIntern--><path d="M816.79,476.77 C910.66,573.01 1092.91,759.85 1182.18,851.38 " fill="none" id="Arkivstruktur.Korrespondansepart&lt;-Arkivstruktur.KorrespondansepartIntern" style="stroke: #A80036; stroke-width: 1.0;"/><polygon fill="none" points="811.73,481.61,802.78,462.41,821.76,471.84,811.73,481.61" style="stroke: #A80036; stroke-width: 1.0;"/><!--MD5=[3de69eabb378473b17ad160888b26a49]
link Sakarkiv.Journalpost to Sakarkiv.Avskrivning--><path d="M205.0446,781.2035 C205.0446,781.2035 204.26,805.12 203.92,815.47 " fill="none" id="Sakarkiv.Journalpost-Sakarkiv.Avskrivning" style="stroke: #A80036; stroke-width: 1.0;"/><polygon fill="#A80036" points="203.49,828.7,207.7844,819.8367,203.6547,823.7027,199.7887,819.5731,203.49,828.7" style="stroke: #A80036; stroke-width: 1.0;"/><line style="stroke: #A80036; stroke-width: 1.0;" x1="203.6547" x2="203.91" y1="823.7027" y2="815.71"/><polygon fill="#A80036" points="205.44,769.21,201.2445,775.0749,205.0446,781.2035,209.2401,775.3385,205.44,769.21" style="stroke: #A80036; stroke-width: 1.0;"/><text fill="#000000" font-family="sans-serif" font-size="13" lengthAdjust="spacingAndGlyphs" textLength="99" x="99.8625" y="817.2413">+avskrivning 0..*</text><!--MD5=[6f1b9b68e99c308e3371066ed76d503d]
reverse link Sakarkiv.Avskrivning to Kodelister.Avskrivningsmaate--><!--MD5=[b5a6d17446dec40086fdd8a0475a9200]
@startuml
skinparam classAttributeIconSize 0

class Sakarkiv.Journalpost <Registrering> {
  +journalaar : integer [0..1]
  +journalsekvensnummer : integer [0..1]
  +journalpostnummer : integer [0..1]
  +journalposttype : Journalposttype
  +journalstatus : Journalstatus
  +journaldato : date
  +dokumentetsDato : date [0..1]
  +mottattDato : date [0..1]
  +sendtDato : date [0..1]
  +forfallsdato : date [0..1]
  +offentlighetsvurdertDato : date [0..1]
  +antallVedlegg : integer [0..1]
  +utlantDato : date [0..1]
  +utlaantTil : string [0..1]
  +referanseUtlaantTil : SystemID [0..1]
  +journalenhet : string [0..1]
  +elektroniskSignatur : ElektroniskSignatur [0..1]

  - - Registrering - -
  +arkivertDato : datetime [0..1]
  +arkivertAv : string [0..1]
  +referanseArkivertAv : SystemID [0..1]
  +kassasjon : Kassasjon [0..1]
  +skjerming : Skjerming [0..1]
  +gradering : Gradering [0..1]
  +referanseArkivdel : SystemID [0..1]
  +registreringID : string [0..1]
  +tittel : string
  +offentligTittel : string [0..1]
  +beskrivelse : string [0..1]
  +noekkelord : string [0..*]
  +forfatter : string [0..*]
  +dokumentmedium : Dokumentmedium [0..1]
  +oppbevaringssted : string [0..*]
  +virksomhetsspesifikkeMetadata : any [0..1]

  - - Arkivenhet - -
  +systemID : SystemID [0..1]
  +endretDato : datetime [0..1]
  +opprettetDato : datetime [0..1]
  +opprettetAv : string [0..1]
  +endretAv : string [0..1]
  +referanseOppdatertAv : SystemID [0..1]
  +referanseOpprettetAv : SystemID [0..1]
}
class Arkivstruktur.Korrespondansepart {
  +systemID : SystemID [0..1] [1..1]
  +korrespondanseparttype : Korrespondanseparttype [0..1] [1..1]
  +virksomhetsspesifikkeMetadata : VirksomhetsspesifikkeMetadata [0..1]
}
class Arkivstruktur.KorrespondansepartPerson <Korrespondansepart> {
  +personidentifikator : Personidentifikator [0..*]
  +navn : string
  +postadresse : EnkelAdresse [0..1]
  +bostedsadresse : EnkelAdresse [0..1]
  +kontaktinformasjon : Kontaktinformasjon [0..1]
}
class Arkivstruktur.KorrespondansepartEnhet <Korrespondansepart> {
  +enhetsidentifikator : Enhetsidentifikator [0..1]
  +navn : string
  +forretningsadresse : EnkelAdresse [0..1]
  +postadresse : EnkelAdresse [0..1]
  +kontaktinformasjon : Kontaktinformasjon [0..1]
  +kontaktperson : string [0..1]
}
class Arkivstruktur.KorrespondansepartIntern <Korrespondansepart> {
  +administrativEnhet : string [0..1]
  +referanseAdministrativEnhet : SystemID [0..1]
  +saksbehandler : string [0..1]
  +referanseSaksbehandler : SystemID [0..1]
}
class Sakarkiv.Avskrivning {
  +systemID : SystemID [0..1] [1..1]
  +avskrivningsdato : datetime [0..1] [1..1]
  +avskrevetAv : string [0..1] [1..1]
  +referanseAvskrevetAv : SystemID [0..1] [1..1]
  +avskrivningsmaate : Avskrivningsmaate [0..1] [1..1]
  +referanseAvskrivesAvJournalpost : SystemID [0..1]
  +referanseAvskrivesAvKorrespondansepart : SystemID [0..1]
}
class Kodelister.Avskrivningsmaate <<codelist>> {
  +Besvart med brev = BU
  +Besvart med e-post = BE
  +Besvart på telefon = TLF
  +Tatt til etterretning = TE
  +Tatt til orientering = TO
  +Besvart med notat = BN
  +Saken ble avsluttet = SA
}

Sakarkiv.Journalpost *-> "+korrespondansepart 0..*" Arkivstruktur.Korrespondansepart
Arkivstruktur.Korrespondansepart <|- - Arkivstruktur.KorrespondansepartPerson
Arkivstruktur.Korrespondansepart <|- - Arkivstruktur.KorrespondansepartEnhet
Arkivstruktur.Korrespondansepart <|- - Arkivstruktur.KorrespondansepartIntern
Sakarkiv.Journalpost *- -> "+avskrivning 0..*" Sakarkiv.Avskrivning
Sakarkiv.Avskrivning <-[hidden]- Kodelister.Avskrivningsmaate
@enduml

PlantUML version 1.2020.02(Sun Mar 01 11:22:07 CET 2020)
(GPL source distribution)
Java Runtime: OpenJDK Runtime Environment
JVM: OpenJDK 64-Bit Server VM
Java Version: 17.0.6+10-Debian-1
Operating System: Linux
Default Encoding: UTF-8
Language: en
Country: US
--></g></svg>