<?xml version="1.0" encoding="UTF-8" standalone="no"?><svg xmlns="http://www.w3.org/2000/svg" xmlns:xlink="http://www.w3.org/1999/xlink" contentScriptType="application/ecmascript" contentStyleType="text/css" height="620px" preserveAspectRatio="none" style="width:328px;height:620px;" version="1.1" viewBox="0 0 328 620" width="328px" zoomAndPan="magnify"><defs><filter height="300%" id="fc18xqmlc60se" width="300%" x="-1" y="-1"><feGaussianBlur result="blurOut" stdDeviation="2.0"/><feColorMatrix in="blurOut" result="blurOut2" type="matrix" values="0 0 0 0 0 0 0 0 0 0 0 0 0 0 0 0 0 0 .4 0"/><feOffset dx="4.0" dy="4.0" in="blurOut2" result="blurOut3"/><feBlend in="SourceGraphic" in2="blurOut3" mode="normal"/></filter></defs><g><!--MD5=[232c485b1f52e07d9ce0910f7499e2a6]
cluster Arkivstruktur--><polygon fill="#FFFFFF" filter="url(#fc18xqmlc60se)" points="22,24,123,24,130,49.0679,306,49.0679,306,482,22,482,22,24" style="stroke: #000000; stroke-width: 1.5;"/><line style="stroke: #000000; stroke-width: 1.5;" x1="22" x2="130" y1="49.0679" y2="49.0679"/><text fill="#000000" font-family="sans-serif" font-size="14" font-weight="bold" lengthAdjust="spacingAndGlyphs" textLength="95" x="26" y="40.9659">Arkivstruktur</text><!--MD5=[069ea117d8bb01159729074d99b1e334]
cluster Sakarkiv--><polygon fill="#FFFFFF" filter="url(#fc18xqmlc60se)" points="66,506,132,506,139,531.0679,262,531.0679,262,608,66,608,66,506" style="stroke: #000000; stroke-width: 1.5;"/><line style="stroke: #000000; stroke-width: 1.5;" x1="66" x2="139" y1="531.0679" y2="531.0679"/><text fill="#000000" font-family="sans-serif" font-size="14" font-weight="bold" lengthAdjust="spacingAndGlyphs" textLength="60" x="70" y="522.9659">Sakarkiv</text><!--MD5=[5eeb008ce2ba569ad4cb3c09c2ca4370]
class Arkivstruktur.Registrering--><rect fill="#FEFECE" filter="url(#fc18xqmlc60se)" height="403.5653" id="Arkivstruktur.Registrering" style="stroke: #A80036; stroke-width: 1.5;" width="251" x="38.5" y="62"/><ellipse cx="95.25" cy="78" fill="#ADD1B2" rx="11" ry="11" style="stroke: #A80036; stroke-width: 1.0;"/><path d="M94.7188,84.9219 Q92.9688,84.9219 91.8281,84.1875 Q90.7031,83.4375 90.1406,82.0938 Q89.5938,80.7344 89.5938,78.9375 Q89.5938,76.9063 90.25,75.4531 Q90.9063,74 92.1875,73.2188 Q93.4688,72.4375 95.3438,72.4375 Q96.2344,72.4375 96.9063,72.625 Q97.5781,72.7969 98.2656,73.1406 L97.4531,75.1563 Q96.8281,74.8438 96.2813,74.7188 Q95.75,74.5938 95.2656,74.5938 Q94.0938,74.5938 93.3906,75.125 Q92.6875,75.6563 92.3906,76.6094 Q92.0938,77.5625 92.0938,78.8281 Q92.0938,80.8438 92.8125,81.8125 Q93.5313,82.7656 95.125,82.7656 Q95.7188,82.7656 96.3438,82.6094 Q96.9688,82.4531 97.7969,82.0781 L97.7969,84.2969 Q97.0625,84.6094 96.2656,84.7656 Q95.4844,84.9219 94.7188,84.9219 Z "/><text fill="#000000" font-family="sans-serif" font-size="12" lengthAdjust="spacingAndGlyphs" textLength="68" x="115.75" y="82.656">Registrering</text><rect fill="#FFFFFF" height="18.3441" style="stroke: #000000; stroke-width: 1.0; stroke-dasharray: 2.0,2.0;" width="59" x="233.5" y="59"/><text fill="#000000" font-family="sans-serif" font-size="12" font-style="italic" lengthAdjust="spacingAndGlyphs" textLength="57" x="234.5" y="72.8281">Arkivenhet</text><line style="stroke: #A80036; stroke-width: 1.5;" x1="39.5" x2="288.5" y1="94" y2="94"/><text fill="#000000" font-family="sans-serif" font-size="11" lengthAdjust="spacingAndGlyphs" textLength="156" x="44.5" y="109.7589">+arkivertDato : datetime [0..1]</text><text fill="#000000" font-family="sans-serif" font-size="11" lengthAdjust="spacingAndGlyphs" textLength="129" x="44.5" y="124.7408">+arkivertAv : string [0..1]</text><text fill="#000000" font-family="sans-serif" font-size="11" lengthAdjust="spacingAndGlyphs" textLength="198" x="44.5" y="139.7227">+referanseArkivertAv : SystemID [0..1]</text><text fill="#000000" font-family="sans-serif" font-size="11" lengthAdjust="spacingAndGlyphs" textLength="145" x="44.5" y="154.7046">+kassasjon : Kassasjon [0..1]</text><text fill="#000000" font-family="sans-serif" font-size="11" lengthAdjust="spacingAndGlyphs" textLength="149" x="44.5" y="169.6865">+skjerming : Skjerming [0..1]</text><text fill="#000000" font-family="sans-serif" font-size="11" lengthAdjust="spacingAndGlyphs" textLength="151" x="44.5" y="184.6684">+gradering : Gradering [0..1]</text><text fill="#000000" font-family="sans-serif" font-size="11" lengthAdjust="spacingAndGlyphs" textLength="186" x="44.5" y="199.6502">+referanseArkivdel : SystemID [0..1]</text><text fill="#000000" font-family="sans-serif" font-size="11" lengthAdjust="spacingAndGlyphs" textLength="155" x="44.5" y="214.6321">+registreringsID : string [0..1]</text><text fill="#000000" font-family="sans-serif" font-size="11" lengthAdjust="spacingAndGlyphs" textLength="70" x="44.5" y="229.614">+tittel : string</text><text fill="#000000" font-family="sans-serif" font-size="11" lengthAdjust="spacingAndGlyphs" textLength="146" x="44.5" y="244.5959">+offentligTittel : string [0..1]</text><text fill="#000000" font-family="sans-serif" font-size="11" lengthAdjust="spacingAndGlyphs" textLength="133" x="44.5" y="259.5778">+beskrivelse : string [0..1]</text><text fill="#000000" font-family="sans-serif" font-size="11" lengthAdjust="spacingAndGlyphs" textLength="135" x="44.5" y="274.5597">+noekkelord : string [0..*]</text><text fill="#000000" font-family="sans-serif" font-size="11" lengthAdjust="spacingAndGlyphs" textLength="120" x="44.5" y="289.5416">+forfatter : string [0..*]</text><text fill="#000000" font-family="sans-serif" font-size="11" lengthAdjust="spacingAndGlyphs" textLength="239" x="44.5" y="304.5235">+dokumentmedium : Dokumentmedium [0..1]</text><text fill="#000000" font-family="sans-serif" font-size="11" lengthAdjust="spacingAndGlyphs" textLength="170" x="44.5" y="319.5053">+oppbevaringssted : string [0..*]</text><text fill="#000000" font-family="sans-serif" font-size="11" lengthAdjust="spacingAndGlyphs" textLength="227" x="44.5" y="334.4872">+virksomhetsspesifikkeMetadata : any [0..1]</text><text fill="#000000" font-family="sans-serif" font-size="11" lengthAdjust="spacingAndGlyphs" textLength="141" x="44.5" y="368.451">+systemID : SystemID [0..1]</text><text fill="#000000" font-family="sans-serif" font-size="11" lengthAdjust="spacingAndGlyphs" textLength="150" x="44.5" y="383.4329">+endretDato : datetime [0..1]</text><text fill="#000000" font-family="sans-serif" font-size="11" lengthAdjust="spacingAndGlyphs" textLength="165" x="44.5" y="398.4148">+opprettetDato : datetime [0..1]</text><text fill="#000000" font-family="sans-serif" font-size="11" lengthAdjust="spacingAndGlyphs" textLength="138" x="44.5" y="413.3967">+opprettetAv : string [0..1]</text><text fill="#000000" font-family="sans-serif" font-size="11" lengthAdjust="spacingAndGlyphs" textLength="123" x="44.5" y="428.3786">+endretAv : string [0..1]</text><text fill="#000000" font-family="sans-serif" font-size="11" lengthAdjust="spacingAndGlyphs" textLength="211" x="44.5" y="443.3604">+referanseOppdatertAv : SystemID [0..1]</text><text fill="#000000" font-family="sans-serif" font-size="11" lengthAdjust="spacingAndGlyphs" textLength="208" x="44.5" y="458.3423">+referanseOpprettetAv : SystemID [0..1]</text><line style="stroke: #A80036; stroke-width: 1.0;" x1="39.5" x2="135.5" y1="349.2011" y2="349.2011"/><text fill="#000000" font-family="sans-serif" font-size="11" lengthAdjust="spacingAndGlyphs" textLength="57" x="135.5" y="352.9691">Arkivenhet</text><line style="stroke: #A80036; stroke-width: 1.0;" x1="192.5" x2="288.5" y1="349.2011" y2="349.2011"/><!--MD5=[2f08e53298f8f090d026427c85b7c44d]
class Sakarkiv.Journalpost--><rect fill="#FEFECE" filter="url(#fc18xqmlc60se)" height="48" id="Sakarkiv.Journalpost" style="stroke: #A80036; stroke-width: 1.5;" width="164" x="82" y="544"/><ellipse cx="97" cy="560" fill="#ADD1B2" rx="11" ry="11" style="stroke: #A80036; stroke-width: 1.0;"/><path d="M96.4688,566.9219 Q94.7188,566.9219 93.5781,566.1875 Q92.4531,565.4375 91.8906,564.0938 Q91.3438,562.7344 91.3438,560.9375 Q91.3438,558.9063 92,557.4531 Q92.6563,556 93.9375,555.2188 Q95.2188,554.4375 97.0938,554.4375 Q97.9844,554.4375 98.6563,554.625 Q99.3281,554.7969 100.0156,555.1406 L99.2031,557.1563 Q98.5781,556.8438 98.0313,556.7188 Q97.5,556.5938 97.0156,556.5938 Q95.8438,556.5938 95.1406,557.125 Q94.4375,557.6563 94.1406,558.6094 Q93.8438,559.5625 93.8438,560.8281 Q93.8438,562.8438 94.5625,563.8125 Q95.2813,564.7656 96.875,564.7656 Q97.4688,564.7656 98.0938,564.6094 Q98.7188,564.4531 99.5469,564.0781 L99.5469,566.2969 Q98.8125,566.6094 98.0156,566.7656 Q97.2344,566.9219 96.4688,566.9219 Z "/><text fill="#000000" font-family="sans-serif" font-size="12" lengthAdjust="spacingAndGlyphs" textLength="63" x="111" y="564.656">Journalpost</text><rect fill="#FFFFFF" height="18.3441" style="stroke: #000000; stroke-width: 1.0; stroke-dasharray: 2.0,2.0;" width="67" x="182" y="541"/><text fill="#000000" font-family="sans-serif" font-size="12" font-style="italic" lengthAdjust="spacingAndGlyphs" textLength="65" x="183" y="554.8281">Registrering</text><line style="stroke: #A80036; stroke-width: 1.5;" x1="83" x2="245" y1="576" y2="576"/><line style="stroke: #A80036; stroke-width: 1.5;" x1="83" x2="245" y1="584" y2="584"/><!--MD5=[639ab7f2aeb9e2ce2f438430a44a4e45]
reverse link Arkivstruktur.Registrering to Sakarkiv.Journalpost--><path d="M164,486.36 C164,509.3 164,529.46 164,543.88 " fill="none" id="Arkivstruktur.Registrering&lt;-Sakarkiv.Journalpost" style="stroke: #A80036; stroke-width: 1.0;"/><polygon fill="none" points="157,486.02,164,466.02,171,486.02,157,486.02" style="stroke: #A80036; stroke-width: 1.0;"/><!--MD5=[9c205552ec743080e443032a24424bc2]
@startuml
skinparam classAttributeIconSize 0

class Arkivstruktur.Registrering <Arkivenhet> {
  +arkivertDato : datetime [0..1]
  +arkivertAv : string [0..1]
  +referanseArkivertAv : SystemID [0..1]
  +kassasjon : Kassasjon [0..1]
  +skjerming : Skjerming [0..1]
  +gradering : Gradering [0..1]
  +referanseArkivdel : SystemID [0..1]
  +registreringsID : string [0..1]
  +tittel : string
  +offentligTittel : string [0..1]
  +beskrivelse : string [0..1]
  +noekkelord : string [0..*]
  +forfatter : string [0..*]
  +dokumentmedium : Dokumentmedium [0..1]
  +oppbevaringssted : string [0..*]
  +virksomhetsspesifikkeMetadata : any [0..1]
  - - Arkivenhet - -
  +systemID : SystemID [0..1]
  +endretDato : datetime [0..1]
  +opprettetDato : datetime [0..1]
  +opprettetAv : string [0..1]
  +endretAv : string [0..1]
  +referanseOppdatertAv : SystemID [0..1]
  +referanseOpprettetAv : SystemID [0..1]
}

class Sakarkiv.Journalpost <Registrering>

Arkivstruktur.Registrering <|- - Sakarkiv.Journalpost

@enduml

PlantUML version 1.2020.02(Sun Mar 01 11:22:07 CET 2020)
(GPL source distribution)
Java Runtime: OpenJDK Runtime Environment
JVM: OpenJDK 64-Bit Server VM
Java Version: 17.0.6+10-Debian-1
Operating System: Linux
Default Encoding: UTF-8
Language: en
Country: US
--></g></svg>