<?xml version="1.0" encoding="UTF-8" standalone="no"?><svg xmlns="http://www.w3.org/2000/svg" xmlns:xlink="http://www.w3.org/1999/xlink" contentScriptType="application/ecmascript" contentStyleType="text/css" height="396px" preserveAspectRatio="none" style="width:290px;height:396px;" version="1.1" viewBox="0 0 290 396" width="290px" zoomAndPan="magnify"><defs><filter height="300%" id="f1xtiozjny7wqf" width="300%" x="-1" y="-1"><feGaussianBlur result="blurOut" stdDeviation="2.0"/><feColorMatrix in="blurOut" result="blurOut2" type="matrix" values="0 0 0 0 0 0 0 0 0 0 0 0 0 0 0 0 0 0 .4 0"/><feOffset dx="4.0" dy="4.0" in="blurOut2" result="blurOut3"/><feBlend in="SourceGraphic" in2="blurOut3" mode="normal"/></filter></defs><g><!--MD5=[232c485b1f52e07d9ce0910f7499e2a6]
cluster Arkivstruktur--><polygon fill="#FFFFFF" filter="url(#f1xtiozjny7wqf)" points="22,24,123,24,130,49.0679,268,49.0679,268,384,22,384,22,24" style="stroke: #000000; stroke-width: 1.5;"/><line style="stroke: #000000; stroke-width: 1.5;" x1="22" x2="130" y1="49.0679" y2="49.0679"/><text fill="#000000" font-family="sans-serif" font-size="14" font-weight="bold" lengthAdjust="spacingAndGlyphs" textLength="95" x="26" y="40.9659">Arkivstruktur</text><!--MD5=[73df33951f5eee41985998203ae583aa]
class Arkivstruktur.Klasse--><rect fill="#FEFECE" filter="url(#f1xtiozjny7wqf)" height="197.8189" id="Arkivstruktur.Klasse" style="stroke: #A80036; stroke-width: 1.5;" width="214" x="38" y="62"/><ellipse cx="92.25" cy="78" fill="#ADD1B2" rx="11" ry="11" style="stroke: #A80036; stroke-width: 1.0;"/><path d="M91.7188,84.9219 Q89.9688,84.9219 88.8281,84.1875 Q87.7031,83.4375 87.1406,82.0938 Q86.5938,80.7344 86.5938,78.9375 Q86.5938,76.9063 87.25,75.4531 Q87.9063,74 89.1875,73.2188 Q90.4688,72.4375 92.3438,72.4375 Q93.2344,72.4375 93.9063,72.625 Q94.5781,72.7969 95.2656,73.1406 L94.4531,75.1563 Q93.8281,74.8438 93.2813,74.7188 Q92.75,74.5938 92.2656,74.5938 Q91.0938,74.5938 90.3906,75.125 Q89.6875,75.6563 89.3906,76.6094 Q89.0938,77.5625 89.0938,78.8281 Q89.0938,80.8438 89.8125,81.8125 Q90.5313,82.7656 92.125,82.7656 Q92.7188,82.7656 93.3438,82.6094 Q93.9688,82.4531 94.7969,82.0781 L94.7969,84.2969 Q94.0625,84.6094 93.2656,84.7656 Q92.4844,84.9219 91.7188,84.9219 Z "/><text fill="#000000" font-family="sans-serif" font-size="12" lengthAdjust="spacingAndGlyphs" textLength="36" x="112.75" y="82.656">Klasse</text><rect fill="#FFFFFF" height="18.3441" style="stroke: #000000; stroke-width: 1.0; stroke-dasharray: 2.0,2.0;" width="59" x="196" y="59"/><text fill="#000000" font-family="sans-serif" font-size="12" font-style="italic" lengthAdjust="spacingAndGlyphs" textLength="57" x="197" y="72.8281">Arkivenhet</text><line style="stroke: #A80036; stroke-width: 1.5;" x1="39" x2="251" y1="94" y2="94"/><text fill="#000000" font-family="sans-serif" font-size="11" lengthAdjust="spacingAndGlyphs" textLength="89" x="44" y="109.7589">+klasseID : string</text><text fill="#000000" font-family="sans-serif" font-size="11" lengthAdjust="spacingAndGlyphs" textLength="70" x="44" y="124.7408">+tittel : string</text><text fill="#000000" font-family="sans-serif" font-size="11" lengthAdjust="spacingAndGlyphs" textLength="133" x="44" y="139.7227">+beskrivelse : string [0..1]</text><text fill="#000000" font-family="sans-serif" font-size="11" lengthAdjust="spacingAndGlyphs" textLength="135" x="44" y="154.7046">+noekkelord : string [0..*]</text><text fill="#000000" font-family="sans-serif" font-size="11" lengthAdjust="spacingAndGlyphs" textLength="160" x="44" y="169.6865">+avsluttetDato : datetime [0..1]</text><text fill="#000000" font-family="sans-serif" font-size="11" lengthAdjust="spacingAndGlyphs" textLength="133" x="44" y="184.6684">+avsluttetAv : string [0..1]</text><text fill="#000000" font-family="sans-serif" font-size="11" lengthAdjust="spacingAndGlyphs" textLength="202" x="44" y="199.6502">+referanseAvsluttetAv : SystemID [0..1]</text><text fill="#000000" font-family="sans-serif" font-size="11" lengthAdjust="spacingAndGlyphs" textLength="149" x="44" y="214.6321">+skjerming : Skjerming [0..1]</text><text fill="#000000" font-family="sans-serif" font-size="11" lengthAdjust="spacingAndGlyphs" textLength="145" x="44" y="229.614">+kassasjon : Kassasjon [0..1]</text><text fill="#000000" font-family="sans-serif" font-size="11" lengthAdjust="spacingAndGlyphs" textLength="151" x="44" y="244.5959">+gradering : Gradering [0..1]</text><line style="stroke: #A80036; stroke-width: 1.5;" x1="39" x2="251" y1="251.8189" y2="251.8189"/><!--MD5=[7ac5167187dc7f1acc74fcb89e1dc205]
class Arkivstruktur.Mappe--><rect fill="#FEFECE" filter="url(#f1xtiozjny7wqf)" height="48" id="Arkivstruktur.Mappe" style="stroke: #A80036; stroke-width: 1.5;" width="132" x="79" y="320"/><ellipse cx="94" cy="336" fill="#ADD1B2" rx="11" ry="11" style="stroke: #A80036; stroke-width: 1.0;"/><path d="M93.4688,342.9219 Q91.7188,342.9219 90.5781,342.1875 Q89.4531,341.4375 88.8906,340.0938 Q88.3438,338.7344 88.3438,336.9375 Q88.3438,334.9063 89,333.4531 Q89.6563,332 90.9375,331.2188 Q92.2188,330.4375 94.0938,330.4375 Q94.9844,330.4375 95.6563,330.625 Q96.3281,330.7969 97.0156,331.1406 L96.2031,333.1563 Q95.5781,332.8438 95.0313,332.7188 Q94.5,332.5938 94.0156,332.5938 Q92.8438,332.5938 92.1406,333.125 Q91.4375,333.6563 91.1406,334.6094 Q90.8438,335.5625 90.8438,336.8281 Q90.8438,338.8438 91.5625,339.8125 Q92.2813,340.7656 93.875,340.7656 Q94.4688,340.7656 95.0938,340.6094 Q95.7188,340.4531 96.5469,340.0781 L96.5469,342.2969 Q95.8125,342.6094 95.0156,342.7656 Q94.2344,342.9219 93.4688,342.9219 Z "/><text fill="#000000" font-family="sans-serif" font-size="12" lengthAdjust="spacingAndGlyphs" textLength="39" x="108" y="340.656">Mappe</text><rect fill="#FFFFFF" height="18.3441" style="stroke: #000000; stroke-width: 1.0; stroke-dasharray: 2.0,2.0;" width="59" x="155" y="317"/><text fill="#000000" font-family="sans-serif" font-size="12" font-style="italic" lengthAdjust="spacingAndGlyphs" textLength="57" x="156" y="330.8281">Arkivenhet</text><line style="stroke: #A80036; stroke-width: 1.5;" x1="80" x2="210" y1="352" y2="352"/><line style="stroke: #A80036; stroke-width: 1.5;" x1="80" x2="210" y1="360" y2="360"/><!--MD5=[6ad31a2a544e3c283a56919386d2c114]
link Arkivstruktur.Klasse to Arkivstruktur.Mappe--><path d="M145,272.18 C145,272.18 145,296.61 145,306.58 " fill="none" id="Arkivstruktur.Klasse-Arkivstruktur.Mappe" style="stroke: #A80036; stroke-width: 1.0;"/><polygon fill="#A80036" points="145,319.67,149,310.67,145,314.67,141,310.67,145,319.67" style="stroke: #A80036; stroke-width: 1.0;"/><line style="stroke: #A80036; stroke-width: 1.0;" x1="145" x2="145" y1="314.67" y2="306.67"/><polygon fill="#FFFFFF" points="145,260.18,141,266.18,145,272.18,149,266.18,145,260.18" style="stroke: #A80036; stroke-width: 1.0;"/><text fill="#000000" font-family="sans-serif" font-size="13" lengthAdjust="spacingAndGlyphs" textLength="66" x="76.6797" y="281.6795">+klasse 0..1</text><text fill="#000000" font-family="sans-serif" font-size="13" lengthAdjust="spacingAndGlyphs" textLength="72" x="63.775" y="308.2448">+mappe 0..*</text><!--MD5=[ef16d4f5b25c344f6af30f4f404c789c]
@startuml
skinparam classAttributeIconSize 0
class Arkivstruktur.Klasse <Arkivenhet> {
  +klasseID : string
  +tittel : string
  +beskrivelse : string [0..1]
  +noekkelord : string [0..*]
  +avsluttetDato : datetime [0..1]
  +avsluttetAv : string [0..1]
  +referanseAvsluttetAv : SystemID [0..1]
  +skjerming : Skjerming [0..1]
  +kassasjon : Kassasjon [0..1]
  +gradering : Gradering [0..1]
}
class Arkivstruktur.Mappe <Arkivenhet>

Arkivstruktur.Klasse "+klasse 0..1" o- -> "+mappe 0..*" Arkivstruktur.Mappe
@enduml

PlantUML version 1.2020.02(Sun Mar 01 11:22:07 CET 2020)
(GPL source distribution)
Java Runtime: OpenJDK Runtime Environment
JVM: OpenJDK 64-Bit Server VM
Java Version: 17.0.6+10-Debian-1
Operating System: Linux
Default Encoding: UTF-8
Language: en
Country: US
--></g></svg>