<?xml version="1.0" encoding="UTF-8" standalone="no"?><svg xmlns="http://www.w3.org/2000/svg" xmlns:xlink="http://www.w3.org/1999/xlink" contentScriptType="application/ecmascript" contentStyleType="text/css" height="725px" preserveAspectRatio="none" style="width:1220px;height:725px;" version="1.1" viewBox="0 0 1220 725" width="1220px" zoomAndPan="magnify"><defs><filter height="300%" id="f5d6075eymkvv" width="300%" x="-1" y="-1"><feGaussianBlur result="blurOut" stdDeviation="2.0"/><feColorMatrix in="blurOut" result="blurOut2" type="matrix" values="0 0 0 0 0 0 0 0 0 0 0 0 0 0 0 0 0 0 .4 0"/><feOffset dx="4.0" dy="4.0" in="blurOut2" result="blurOut3"/><feBlend in="SourceGraphic" in2="blurOut3" mode="normal"/></filter></defs><g><!--MD5=[232c485b1f52e07d9ce0910f7499e2a6]
cluster Arkivstruktur--><polygon fill="#FFFFFF" filter="url(#f5d6075eymkvv)" points="22,24,123,24,130,49.0679,800,49.0679,800,713,22,713,22,24" style="stroke: #000000; stroke-width: 1.5;"/><line style="stroke: #000000; stroke-width: 1.5;" x1="22" x2="130" y1="49.0679" y2="49.0679"/><text fill="#000000" font-family="sans-serif" font-size="14" font-weight="bold" lengthAdjust="spacingAndGlyphs" textLength="95" x="26" y="40.9659">Arkivstruktur</text><!--MD5=[6f57009a4a608e6bd88d18f07024e663]
cluster Arkivstruktur.NasjonaleIdentifikatorer--><polygon fill="#FFFFFF" filter="url(#f5d6075eymkvv)" points="913,310,1188,310,1195,335.0679,1198,335.0679,1198,427,913,427,913,310" style="stroke: #000000; stroke-width: 1.5;"/><line style="stroke: #000000; stroke-width: 1.5;" x1="913" x2="1195" y1="335.0679" y2="335.0679"/><text fill="#000000" font-family="sans-serif" font-size="14" font-weight="bold" lengthAdjust="spacingAndGlyphs" textLength="269" x="917" y="326.9659">Arkivstruktur.NasjonaleIdentifikatorer</text><!--MD5=[73df33951f5eee41985998203ae583aa]
class Arkivstruktur.Klasse--><rect fill="#FEFECE" filter="url(#f5d6075eymkvv)" height="48" id="Arkivstruktur.Klasse" style="stroke: #A80036; stroke-width: 1.5;" width="129" x="384.5" y="62"/><ellipse cx="399.5" cy="78" fill="#ADD1B2" rx="11" ry="11" style="stroke: #A80036; stroke-width: 1.0;"/><path d="M398.9688,84.9219 Q397.2188,84.9219 396.0781,84.1875 Q394.9531,83.4375 394.3906,82.0938 Q393.8438,80.7344 393.8438,78.9375 Q393.8438,76.9063 394.5,75.4531 Q395.1563,74 396.4375,73.2188 Q397.7188,72.4375 399.5938,72.4375 Q400.4844,72.4375 401.1563,72.625 Q401.8281,72.7969 402.5156,73.1406 L401.7031,75.1563 Q401.0781,74.8438 400.5313,74.7188 Q400,74.5938 399.5156,74.5938 Q398.3438,74.5938 397.6406,75.125 Q396.9375,75.6563 396.6406,76.6094 Q396.3438,77.5625 396.3438,78.8281 Q396.3438,80.8438 397.0625,81.8125 Q397.7813,82.7656 399.375,82.7656 Q399.9688,82.7656 400.5938,82.6094 Q401.2188,82.4531 402.0469,82.0781 L402.0469,84.2969 Q401.3125,84.6094 400.5156,84.7656 Q399.7344,84.9219 398.9688,84.9219 Z "/><text fill="#000000" font-family="sans-serif" font-size="12" lengthAdjust="spacingAndGlyphs" textLength="36" x="413.5" y="82.656">Klasse</text><rect fill="#FFFFFF" height="18.3441" style="stroke: #000000; stroke-width: 1.0; stroke-dasharray: 2.0,2.0;" width="59" x="457.5" y="59"/><text fill="#000000" font-family="sans-serif" font-size="12" font-style="italic" lengthAdjust="spacingAndGlyphs" textLength="57" x="458.5" y="72.8281">Arkivenhet</text><line style="stroke: #A80036; stroke-width: 1.5;" x1="385.5" x2="512.5" y1="94" y2="94"/><line style="stroke: #A80036; stroke-width: 1.5;" x1="385.5" x2="512.5" y1="102" y2="102"/><!--MD5=[7aad5f711e1ff9ffc23e4b1d771a24c1]
class Arkivstruktur.Arkivdel--><rect fill="#FEFECE" filter="url(#f5d6075eymkvv)" height="48" id="Arkivstruktur.Arkivdel" style="stroke: #A80036; stroke-width: 1.5;" width="138" x="66" y="62"/><ellipse cx="81" cy="78" fill="#ADD1B2" rx="11" ry="11" style="stroke: #A80036; stroke-width: 1.0;"/><path d="M80.4688,84.9219 Q78.7188,84.9219 77.5781,84.1875 Q76.4531,83.4375 75.8906,82.0938 Q75.3438,80.7344 75.3438,78.9375 Q75.3438,76.9063 76,75.4531 Q76.6563,74 77.9375,73.2188 Q79.2188,72.4375 81.0938,72.4375 Q81.9844,72.4375 82.6563,72.625 Q83.3281,72.7969 84.0156,73.1406 L83.2031,75.1563 Q82.5781,74.8438 82.0313,74.7188 Q81.5,74.5938 81.0156,74.5938 Q79.8438,74.5938 79.1406,75.125 Q78.4375,75.6563 78.1406,76.6094 Q77.8438,77.5625 77.8438,78.8281 Q77.8438,80.8438 78.5625,81.8125 Q79.2813,82.7656 80.875,82.7656 Q81.4688,82.7656 82.0938,82.6094 Q82.7188,82.4531 83.5469,82.0781 L83.5469,84.2969 Q82.8125,84.6094 82.0156,84.7656 Q81.2344,84.9219 80.4688,84.9219 Z "/><text fill="#000000" font-family="sans-serif" font-size="12" lengthAdjust="spacingAndGlyphs" textLength="45" x="95" y="82.656">Arkivdel</text><rect fill="#FFFFFF" height="18.3441" style="stroke: #000000; stroke-width: 1.0; stroke-dasharray: 2.0,2.0;" width="59" x="148" y="59"/><text fill="#000000" font-family="sans-serif" font-size="12" font-style="italic" lengthAdjust="spacingAndGlyphs" textLength="57" x="149" y="72.8281">Arkivenhet</text><line style="stroke: #A80036; stroke-width: 1.5;" x1="67" x2="203" y1="94" y2="94"/><line style="stroke: #A80036; stroke-width: 1.5;" x1="67" x2="203" y1="102" y2="102"/><!--MD5=[5eeb008ce2ba569ad4cb3c09c2ca4370]
class Arkivstruktur.Registrering--><rect fill="#FEFECE" filter="url(#f5d6075eymkvv)" height="48" id="Arkivstruktur.Registrering" style="stroke: #A80036; stroke-width: 1.5;" width="161" x="83.5" y="649"/><ellipse cx="98.5" cy="665" fill="#ADD1B2" rx="11" ry="11" style="stroke: #A80036; stroke-width: 1.0;"/><path d="M97.9688,671.9219 Q96.2188,671.9219 95.0781,671.1875 Q93.9531,670.4375 93.3906,669.0938 Q92.8438,667.7344 92.8438,665.9375 Q92.8438,663.9063 93.5,662.4531 Q94.1563,661 95.4375,660.2188 Q96.7188,659.4375 98.5938,659.4375 Q99.4844,659.4375 100.1563,659.625 Q100.8281,659.7969 101.5156,660.1406 L100.7031,662.1563 Q100.0781,661.8438 99.5313,661.7188 Q99,661.5938 98.5156,661.5938 Q97.3438,661.5938 96.6406,662.125 Q95.9375,662.6563 95.6406,663.6094 Q95.3438,664.5625 95.3438,665.8281 Q95.3438,667.8438 96.0625,668.8125 Q96.7813,669.7656 98.375,669.7656 Q98.9688,669.7656 99.5938,669.6094 Q100.2188,669.4531 101.0469,669.0781 L101.0469,671.2969 Q100.3125,671.6094 99.5156,671.7656 Q98.7344,671.9219 97.9688,671.9219 Z "/><text fill="#000000" font-family="sans-serif" font-size="12" lengthAdjust="spacingAndGlyphs" textLength="68" x="112.5" y="669.656">Registrering</text><rect fill="#FFFFFF" height="18.3441" style="stroke: #000000; stroke-width: 1.0; stroke-dasharray: 2.0,2.0;" width="59" x="188.5" y="646"/><text fill="#000000" font-family="sans-serif" font-size="12" font-style="italic" lengthAdjust="spacingAndGlyphs" textLength="57" x="189.5" y="659.8281">Arkivenhet</text><line style="stroke: #A80036; stroke-width: 1.5;" x1="84.5" x2="243.5" y1="681" y2="681"/><line style="stroke: #A80036; stroke-width: 1.5;" x1="84.5" x2="243.5" y1="689" y2="689"/><!--MD5=[7ac5167187dc7f1acc74fcb89e1dc205]
class Arkivstruktur.Mappe--><rect fill="#FEFECE" filter="url(#f5d6075eymkvv)" height="418.5472" id="Arkivstruktur.Mappe" style="stroke: #A80036; stroke-width: 1.5;" width="251" x="38.5" y="170"/><ellipse cx="109.75" cy="186" fill="#ADD1B2" rx="11" ry="11" style="stroke: #A80036; stroke-width: 1.0;"/><path d="M109.2188,192.9219 Q107.4688,192.9219 106.3281,192.1875 Q105.2031,191.4375 104.6406,190.0938 Q104.0938,188.7344 104.0938,186.9375 Q104.0938,184.9063 104.75,183.4531 Q105.4063,182 106.6875,181.2188 Q107.9688,180.4375 109.8438,180.4375 Q110.7344,180.4375 111.4063,180.625 Q112.0781,180.7969 112.7656,181.1406 L111.9531,183.1563 Q111.3281,182.8438 110.7813,182.7188 Q110.25,182.5938 109.7656,182.5938 Q108.5938,182.5938 107.8906,183.125 Q107.1875,183.6563 106.8906,184.6094 Q106.5938,185.5625 106.5938,186.8281 Q106.5938,188.8438 107.3125,189.8125 Q108.0313,190.7656 109.625,190.7656 Q110.2188,190.7656 110.8438,190.6094 Q111.4688,190.4531 112.2969,190.0781 L112.2969,192.2969 Q111.5625,192.6094 110.7656,192.7656 Q109.9844,192.9219 109.2188,192.9219 Z "/><text fill="#000000" font-family="sans-serif" font-size="12" lengthAdjust="spacingAndGlyphs" textLength="39" x="130.25" y="190.656">Mappe</text><rect fill="#FFFFFF" height="18.3441" style="stroke: #000000; stroke-width: 1.0; stroke-dasharray: 2.0,2.0;" width="59" x="233.5" y="167"/><text fill="#000000" font-family="sans-serif" font-size="12" font-style="italic" lengthAdjust="spacingAndGlyphs" textLength="57" x="234.5" y="180.8281">Arkivenhet</text><line style="stroke: #A80036; stroke-width: 1.5;" x1="39.5" x2="288.5" y1="202" y2="202"/><text fill="#000000" font-family="sans-serif" font-size="11" lengthAdjust="spacingAndGlyphs" textLength="123" x="44.5" y="217.7589">+mappeID : string [0..1]</text><text fill="#000000" font-family="sans-serif" font-size="11" lengthAdjust="spacingAndGlyphs" textLength="162" x="44.5" y="232.7408">+mappetype : Mappetype [0..1]</text><text fill="#000000" font-family="sans-serif" font-size="11" lengthAdjust="spacingAndGlyphs" textLength="70" x="44.5" y="247.7227">+tittel : string</text><text fill="#000000" font-family="sans-serif" font-size="11" lengthAdjust="spacingAndGlyphs" textLength="146" x="44.5" y="262.7046">+offentligTittel : string [0..1]</text><text fill="#000000" font-family="sans-serif" font-size="11" lengthAdjust="spacingAndGlyphs" textLength="133" x="44.5" y="277.6865">+beskrivelse : string [0..1]</text><text fill="#000000" font-family="sans-serif" font-size="11" lengthAdjust="spacingAndGlyphs" textLength="135" x="44.5" y="292.6684">+noekkelord : string [0..*]</text><text fill="#000000" font-family="sans-serif" font-size="11" lengthAdjust="spacingAndGlyphs" textLength="239" x="44.5" y="307.6502">+dokumentmedium : Dokumentmedium [0..1]</text><text fill="#000000" font-family="sans-serif" font-size="11" lengthAdjust="spacingAndGlyphs" textLength="170" x="44.5" y="322.6321">+oppbevaringssted : string [0..*]</text><text fill="#000000" font-family="sans-serif" font-size="11" lengthAdjust="spacingAndGlyphs" textLength="160" x="44.5" y="337.614">+avsluttetDato : datetime [0..1]</text><text fill="#000000" font-family="sans-serif" font-size="11" lengthAdjust="spacingAndGlyphs" textLength="133" x="44.5" y="352.5959">+avsluttetAv : string [0..1]</text><text fill="#000000" font-family="sans-serif" font-size="11" lengthAdjust="spacingAndGlyphs" textLength="202" x="44.5" y="367.5778">+referanseAvsluttetAv : SystemID [0..1]</text><text fill="#000000" font-family="sans-serif" font-size="11" lengthAdjust="spacingAndGlyphs" textLength="145" x="44.5" y="382.5597">+kassasjon : Kassasjon [0..1]</text><text fill="#000000" font-family="sans-serif" font-size="11" lengthAdjust="spacingAndGlyphs" textLength="149" x="44.5" y="397.5416">+skjerming : Skjerming [0..1]</text><text fill="#000000" font-family="sans-serif" font-size="11" lengthAdjust="spacingAndGlyphs" textLength="151" x="44.5" y="412.5235">+gradering : Gradering [0..1]</text><text fill="#000000" font-family="sans-serif" font-size="11" lengthAdjust="spacingAndGlyphs" textLength="224" x="44.5" y="427.5053">+referanseForelderMappe : SystemID [0..1]</text><text fill="#000000" font-family="sans-serif" font-size="11" lengthAdjust="spacingAndGlyphs" textLength="227" x="44.5" y="442.4872">+virksomhetsspesifikkeMetadata : any [0..1]</text><text fill="#000000" font-family="sans-serif" font-size="11" lengthAdjust="spacingAndGlyphs" textLength="0" x="47.5" y="457.4691"/><text fill="#000000" font-family="sans-serif" font-size="11" lengthAdjust="spacingAndGlyphs" textLength="141" x="44.5" y="491.4329">+systemID : SystemID [0..1]</text><text fill="#000000" font-family="sans-serif" font-size="11" lengthAdjust="spacingAndGlyphs" textLength="150" x="44.5" y="506.4148">+endretDato : datetime [0..1]</text><text fill="#000000" font-family="sans-serif" font-size="11" lengthAdjust="spacingAndGlyphs" textLength="165" x="44.5" y="521.3967">+opprettetDato : datetime [0..1]</text><text fill="#000000" font-family="sans-serif" font-size="11" lengthAdjust="spacingAndGlyphs" textLength="138" x="44.5" y="536.3786">+opprettetAv : string [0..1]</text><text fill="#000000" font-family="sans-serif" font-size="11" lengthAdjust="spacingAndGlyphs" textLength="123" x="44.5" y="551.3604">+endretAv : string [0..1]</text><text fill="#000000" font-family="sans-serif" font-size="11" lengthAdjust="spacingAndGlyphs" textLength="211" x="44.5" y="566.3423">+referanseOppdatertAv : SystemID [0..1]</text><text fill="#000000" font-family="sans-serif" font-size="11" lengthAdjust="spacingAndGlyphs" textLength="208" x="44.5" y="581.3242">+referanseOpprettetAv : SystemID [0..1]</text><line style="stroke: #A80036; stroke-width: 1.0;" x1="39.5" x2="135.5" y1="472.183" y2="472.183"/><text fill="#000000" font-family="sans-serif" font-size="11" lengthAdjust="spacingAndGlyphs" textLength="57" x="135.5" y="475.951">Arkivenhet</text><line style="stroke: #A80036; stroke-width: 1.0;" x1="192.5" x2="288.5" y1="472.183" y2="472.183"/><!--MD5=[e3d7666df93e3e02c847c049474a14c9]
class Arkivstruktur.Merknad--><rect fill="#FEFECE" filter="url(#f5d6075eymkvv)" height="137.8913" id="Arkivstruktur.Merknad" style="stroke: #A80036; stroke-width: 1.5;" width="296" x="488" y="310.5"/><ellipse cx="606.75" cy="326.5" fill="#ADD1B2" rx="11" ry="11" style="stroke: #A80036; stroke-width: 1.0;"/><path d="M606.2188,333.4219 Q604.4688,333.4219 603.3281,332.6875 Q602.2031,331.9375 601.6406,330.5938 Q601.0938,329.2344 601.0938,327.4375 Q601.0938,325.4063 601.75,323.9531 Q602.4063,322.5 603.6875,321.7188 Q604.9688,320.9375 606.8438,320.9375 Q607.7344,320.9375 608.4063,321.125 Q609.0781,321.2969 609.7656,321.6406 L608.9531,323.6563 Q608.3281,323.3438 607.7813,323.2188 Q607.25,323.0938 606.7656,323.0938 Q605.5938,323.0938 604.8906,323.625 Q604.1875,324.1563 603.8906,325.1094 Q603.5938,326.0625 603.5938,327.3281 Q603.5938,329.3438 604.3125,330.3125 Q605.0313,331.2656 606.625,331.2656 Q607.2188,331.2656 607.8438,331.1094 Q608.4688,330.9531 609.2969,330.5781 L609.2969,332.7969 Q608.5625,333.1094 607.7656,333.2656 Q606.9844,333.4219 606.2188,333.4219 Z "/><text fill="#000000" font-family="sans-serif" font-size="12" lengthAdjust="spacingAndGlyphs" textLength="50" x="627.25" y="331.156">Merknad</text><line style="stroke: #A80036; stroke-width: 1.5;" x1="489" x2="783" y1="342.5" y2="342.5"/><text fill="#000000" font-family="sans-serif" font-size="11" lengthAdjust="spacingAndGlyphs" textLength="170" x="494" y="358.2589">+systemID : SystemID [0..1] [1..1]</text><text fill="#000000" font-family="sans-serif" font-size="11" lengthAdjust="spacingAndGlyphs" textLength="123" x="494" y="373.2408">+merknadstekst : string</text><text fill="#000000" font-family="sans-serif" font-size="11" lengthAdjust="spacingAndGlyphs" textLength="194" x="494" y="388.2227">+merknadstype : Merknadstype [0..1]</text><text fill="#000000" font-family="sans-serif" font-size="11" lengthAdjust="spacingAndGlyphs" textLength="195" x="494" y="403.2046">+merknadsdato : datetime [0..1] [1..1]</text><text fill="#000000" font-family="sans-serif" font-size="11" lengthAdjust="spacingAndGlyphs" textLength="216" x="494" y="418.1865">+merknadRegistrertAv : string [0..1] [1..1]</text><text fill="#000000" font-family="sans-serif" font-size="11" lengthAdjust="spacingAndGlyphs" textLength="284" x="494" y="433.1684">+referanseMerknadRegistrertAv : SystemID [0..1] [1..1]</text><line style="stroke: #A80036; stroke-width: 1.5;" x1="489" x2="783" y1="440.3913" y2="440.3913"/><!--MD5=[74ecef535dd541f2f04dce997e1cccc6]
class Arkivstruktur.NasjonaleIdentifikatorer.Nasjonalidentifikator--><rect fill="#FEFECE" filter="url(#f5d6075eymkvv)" height="62.9819" id="Arkivstruktur.NasjonaleIdentifikatorer.Nasjonalidentifikator" style="stroke: #A80036; stroke-width: 1.5;" width="182" x="964" y="348"/><ellipse cx="994.3" cy="364" fill="#ADD1B2" rx="11" ry="11" style="stroke: #A80036; stroke-width: 1.0;"/><path d="M993.7688,370.9219 Q992.0188,370.9219 990.8781,370.1875 Q989.7531,369.4375 989.1906,368.0938 Q988.6438,366.7344 988.6438,364.9375 Q988.6438,362.9063 989.3,361.4531 Q989.9563,360 991.2375,359.2188 Q992.5188,358.4375 994.3938,358.4375 Q995.2844,358.4375 995.9563,358.625 Q996.6281,358.7969 997.3156,359.1406 L996.5031,361.1563 Q995.8781,360.8438 995.3313,360.7188 Q994.8,360.5938 994.3156,360.5938 Q993.1438,360.5938 992.4406,361.125 Q991.7375,361.6563 991.4406,362.6094 Q991.1438,363.5625 991.1438,364.8281 Q991.1438,366.8438 991.8625,367.8125 Q992.5813,368.7656 994.175,368.7656 Q994.7688,368.7656 995.3938,368.6094 Q996.0188,368.4531 996.8469,368.0781 L996.8469,370.2969 Q996.1125,370.6094 995.3156,370.7656 Q994.5344,370.9219 993.7688,370.9219 Z "/><text fill="#000000" font-family="sans-serif" font-size="12" lengthAdjust="spacingAndGlyphs" textLength="116" x="1011.7" y="368.656">Nasjonalidentifikator</text><line style="stroke: #A80036; stroke-width: 1.5;" x1="965" x2="1145" y1="380" y2="380"/><text fill="#000000" font-family="sans-serif" font-size="11" lengthAdjust="spacingAndGlyphs" textLength="170" x="970" y="395.7589">+systemID : SystemID [0..1] [1..1]</text><line style="stroke: #A80036; stroke-width: 1.5;" x1="965" x2="1145" y1="402.9819" y2="402.9819"/><!--MD5=[6ad31a2a544e3c283a56919386d2c114]
link Arkivstruktur.Klasse to Arkivstruktur.Mappe--><path d="M417.7676,118.9371 C417.7676,118.9371 342.88,195.54 299.06,240.36 " fill="none" id="Arkivstruktur.Klasse-Arkivstruktur.Mappe" style="stroke: #A80036; stroke-width: 1.0;"/><polygon fill="#A80036" points="289.73,249.9,298.8806,246.2576,293.2241,246.3235,293.1582,240.667,289.73,249.9" style="stroke: #A80036; stroke-width: 1.0;"/><line style="stroke: #A80036; stroke-width: 1.0;" x1="293.2241" x2="298.815" y1="246.3235" y2="240.61"/><polygon fill="#FFFFFF" points="426.16,110.36,419.1047,111.8511,417.7676,118.9371,424.8228,117.446,426.16,110.36" style="stroke: #A80036; stroke-width: 1.0;"/><text fill="#000000" font-family="sans-serif" font-size="13" lengthAdjust="spacingAndGlyphs" textLength="66" x="347.247" y="131.9375">+klasse 0..1</text><text fill="#000000" font-family="sans-serif" font-size="13" lengthAdjust="spacingAndGlyphs" textLength="72" x="297.5638" y="240.1359">+mappe 0..*</text><!--MD5=[103e55f9778739f9d4b7631e3f306756]
link Arkivstruktur.Arkivdel to Arkivstruktur.Mappe--><path d="M138.5062,122.3012 C138.5062,122.3012 140.72,144.53 141.95,156.83 " fill="none" id="Arkivstruktur.Arkivdel-Arkivstruktur.Mappe" style="stroke: #A80036; stroke-width: 1.0;"/><polygon fill="#A80036" points="143.26,169.98,146.3507,160.6287,142.7657,165.0045,138.3899,161.4195,143.26,169.98" style="stroke: #A80036; stroke-width: 1.0;"/><line style="stroke: #A80036; stroke-width: 1.0;" x1="142.7657" x2="141.97" y1="165.0045" y2="157.04"/><polygon fill="#FFFFFF" points="137.32,110.36,133.9327,116.726,138.5062,122.3012,141.8935,115.9352,137.32,110.36" style="stroke: #A80036; stroke-width: 1.0;"/><text fill="#000000" font-family="sans-serif" font-size="13" lengthAdjust="spacingAndGlyphs" textLength="77" x="51.9534" y="131.9375">+arkivdel 0..1</text><text fill="#000000" font-family="sans-serif" font-size="13" lengthAdjust="spacingAndGlyphs" textLength="72" x="69.0436" y="158.3832">+mappe 0..*</text><!--MD5=[6097d0687047132a233d92935ace3f8b]
link Arkivstruktur.Mappe to Arkivstruktur.Mappe--><path d="M301.369,328.7421 C301.369,328.7421 469.5,333.34 469.5,379.5 C469.5,425.66 388.08,442.63 302.45,430.42 " fill="none" id="Arkivstruktur.Mappe-Arkivstruktur.Mappe" style="stroke: #A80036; stroke-width: 1.0;"/><polygon fill="#A80036" points="289.52,428.36,297.7741,433.7331,294.4571,429.1508,299.0394,425.8338,289.52,428.36" style="stroke: #A80036; stroke-width: 1.0;"/><line style="stroke: #A80036; stroke-width: 1.0;" x1="294.4571" x2="302.36" y1="429.1508" y2="430.405"/><polygon fill="#FFFFFF" points="289.52,330.64,296.0771,333.6407,301.369,328.7421,294.8118,325.7414,289.52,330.64" style="stroke: #A80036; stroke-width: 1.0;"/><text fill="#000000" font-family="sans-serif" font-size="13" lengthAdjust="spacingAndGlyphs" textLength="99" x="297.4506" y="324.9641">+overmappe 0..1</text><text fill="#000000" font-family="sans-serif" font-size="13" lengthAdjust="spacingAndGlyphs" textLength="108" x="297.6545" y="427.1121">+undermappe 0..*</text><!--MD5=[b06f07ca829b4fead78a2f1a47f4b1ee]
link Arkivstruktur.Mappe to Arkivstruktur.Registrering--><path d="M164,601.25 C164,601.25 164,625.92 164,635.69 " fill="none" id="Arkivstruktur.Mappe-Arkivstruktur.Registrering" style="stroke: #A80036; stroke-width: 1.0;"/><polygon fill="#A80036" points="164,648.84,168,639.84,164,643.84,160,639.84,164,648.84" style="stroke: #A80036; stroke-width: 1.0;"/><line style="stroke: #A80036; stroke-width: 1.0;" x1="164" x2="164" y1="643.84" y2="635.84"/><polygon fill="#FFFFFF" points="164,589.25,160,595.25,164,601.25,168,595.25,164,589.25" style="stroke: #A80036; stroke-width: 1.0;"/><text fill="#000000" font-family="sans-serif" font-size="13" lengthAdjust="spacingAndGlyphs" textLength="72" x="90.8188" y="610.3274">+mappe 0..1</text><text fill="#000000" font-family="sans-serif" font-size="13" lengthAdjust="spacingAndGlyphs" textLength="100" x="50.5625" y="637.0545">+registrering 0..*</text><!--MD5=[3510629593d10f802b23dac289c33dff]
link Arkivstruktur.Mappe to Arkivstruktur.Merknad--><path d="M301.84,379.5 C301.84,379.5 417.62,379.5 474.93,379.5 " fill="none" id="Arkivstruktur.Mappe-Arkivstruktur.Merknad" style="stroke: #A80036; stroke-width: 1.0;"/><polygon fill="#A80036" points="487.93,379.5,478.93,375.5,482.93,379.5,478.93,383.5,487.93,379.5" style="stroke: #A80036; stroke-width: 1.0;"/><line style="stroke: #A80036; stroke-width: 1.0;" x1="482.93" x2="474.93" y1="379.5" y2="379.5"/><polygon fill="#A80036" points="289.84,379.5,295.84,383.5,301.84,379.5,295.84,375.5,289.84,379.5" style="stroke: #A80036; stroke-width: 1.0;"/><text fill="#000000" font-family="sans-serif" font-size="13" lengthAdjust="spacingAndGlyphs" textLength="84" x="395.9114" y="376.0556">+merknad 0..*</text><!--MD5=[7fb44bc85f9b528ab7495557802d730c]
link Arkivstruktur.NasjonaleIdentifikatorer.Nasjonalidentifikator to Arkivstruktur.Mappe--><path d="M1021.72,337.87 C982.22,290.99 912.18,215.44 837,170 C703.76,89.47 641.67,115.06 488,140 C418.27,151.32 298.8516,235.6754 298.8516,235.6754 " fill="none" id="Arkivstruktur.NasjonaleIdentifikatorer.Nasjonalidentifikator-Arkivstruktur.Mappe" style="stroke: #A80036; stroke-width: 1.0;"/><polygon fill="#A80036" points="289.66,243.39,296.8273,242.5966,298.8516,235.6754,291.6843,236.4688,289.66,243.39" style="stroke: #A80036; stroke-width: 1.0;"/><polygon fill="#A80036" points="1030.15,347.99,1027.4719,338.5123,1026.9534,344.1453,1021.3204,343.6268,1030.15,347.99" style="stroke: #A80036; stroke-width: 1.0;"/><line style="stroke: #A80036; stroke-width: 1.0;" x1="1026.9534" x2="1021.83" y1="344.1453" y2="338"/><text fill="#000000" font-family="sans-serif" font-size="13" lengthAdjust="spacingAndGlyphs" textLength="153" x="854.9797" y="336.214">+nasjonalidentifikator 0..*</text><!--MD5=[393ec9230ae11acc60ae9869732c28fa]
@startuml
skinparam classAttributeIconSize 0
skinparam nodesep 180

class Arkivstruktur.Klasse <Arkivenhet>
class Arkivstruktur.Arkivdel <Arkivenhet>
class Arkivstruktur.Registrering <Arkivenhet>
class Arkivstruktur.Mappe <Arkivenhet> {
  +mappeID : string [0..1]
  +mappetype : Mappetype [0..1]
  +tittel : string
  +offentligTittel : string [0..1]
  +beskrivelse : string [0..1]
  +noekkelord : string [0..*]
  +dokumentmedium : Dokumentmedium [0..1]
  +oppbevaringssted : string [0..*]
  +avsluttetDato : datetime [0..1]
  +avsluttetAv : string [0..1]
  +referanseAvsluttetAv : SystemID [0..1]
  +kassasjon : Kassasjon [0..1]
  +skjerming : Skjerming [0..1]
  +gradering : Gradering [0..1]
  +referanseForelderMappe : SystemID [0..1]
  +virksomhetsspesifikkeMetadata : any [0..1]

  - -Arkivenhet- -
  +systemID : SystemID [0..1]
  +endretDato : datetime [0..1]
  +opprettetDato : datetime [0..1]
  +opprettetAv : string [0..1]
  +endretAv : string [0..1]
  +referanseOppdatertAv : SystemID [0..1]
  +referanseOpprettetAv : SystemID [0..1]
}
class Arkivstruktur.Merknad {
  +systemID : SystemID [0..1] [1..1]
  +merknadstekst : string
  +merknadstype : Merknadstype [0..1]
  +merknadsdato : datetime [0..1] [1..1]
  +merknadRegistrertAv : string [0..1] [1..1]
  +referanseMerknadRegistrertAv : SystemID [0..1] [1..1]
}
class Arkivstruktur.NasjonaleIdentifikatorer.Nasjonalidentifikator {
  +systemID : SystemID [0..1] [1..1]
}

Arkivstruktur.Klasse "+klasse 0..1" o- -> "+mappe 0..*" Arkivstruktur.Mappe
Arkivstruktur.Arkivdel "+arkivdel 0..1" o- -> "+mappe 0..*" Arkivstruktur.Mappe
Arkivstruktur.Mappe "+overmappe 0..1" o- -> "+undermappe 0..*" Arkivstruktur.Mappe
Arkivstruktur.Mappe "+mappe 0..1" o- -> "+registrering 0..*" Arkivstruktur.Registrering
Arkivstruktur.Mappe *-> "+merknad 0..*" Arkivstruktur.Merknad
Arkivstruktur.NasjonaleIdentifikatorer.Nasjonalidentifikator "+nasjonalidentifikator 0..*" <-* Arkivstruktur.Mappe
@enduml

PlantUML version 1.2020.02(Sun Mar 01 11:22:07 CET 2020)
(GPL source distribution)
Java Runtime: OpenJDK Runtime Environment
JVM: OpenJDK 64-Bit Server VM
Java Version: 17.0.6+10-Debian-1
Operating System: Linux
Default Encoding: UTF-8
Language: en
Country: US
--></g></svg>