<?xml version="1.0" encoding="UTF-8" standalone="no"?><svg xmlns="http://www.w3.org/2000/svg" xmlns:xlink="http://www.w3.org/1999/xlink" contentScriptType="application/ecmascript" contentStyleType="text/css" height="1070px" preserveAspectRatio="none" style="width:970px;height:1070px;" version="1.1" viewBox="0 0 970 1070" width="970px" zoomAndPan="magnify"><defs><filter height="300%" id="fdav5yqodymyx" width="300%" x="-1" y="-1"><feGaussianBlur result="blurOut" stdDeviation="2.0"/><feColorMatrix in="blurOut" result="blurOut2" type="matrix" values="0 0 0 0 0 0 0 0 0 0 0 0 0 0 0 0 0 0 .4 0"/><feOffset dx="4.0" dy="4.0" in="blurOut2" result="blurOut3"/><feBlend in="SourceGraphic" in2="blurOut3" mode="normal"/></filter></defs><g><!--MD5=[069ea117d8bb01159729074d99b1e334]
cluster Sakarkiv--><polygon fill="#FFFFFF" filter="url(#fdav5yqodymyx)" points="22,24,88,24,95,49.0679,324,49.0679,324,1058,22,1058,22,24" style="stroke: #000000; stroke-width: 1.5;"/><line style="stroke: #000000; stroke-width: 1.5;" x1="22" x2="95" y1="49.0679" y2="49.0679"/><text fill="#000000" font-family="sans-serif" font-size="14" font-weight="bold" lengthAdjust="spacingAndGlyphs" textLength="60" x="26" y="40.9659">Sakarkiv</text><!--MD5=[232c485b1f52e07d9ce0910f7499e2a6]
cluster Arkivstruktur--><polygon fill="#FFFFFF" filter="url(#fdav5yqodymyx)" points="348,813.5,449,813.5,456,838.5679,948,838.5679,948,960.5,348,960.5,348,813.5" style="stroke: #000000; stroke-width: 1.5;"/><line style="stroke: #000000; stroke-width: 1.5;" x1="348" x2="456" y1="838.5679" y2="838.5679"/><text fill="#000000" font-family="sans-serif" font-size="14" font-weight="bold" lengthAdjust="spacingAndGlyphs" textLength="95" x="352" y="830.4659">Arkivstruktur</text><!--MD5=[d3f949591156db6542fa63b25349ce5f]
class Sakarkiv.Saksmappe--><rect fill="#FEFECE" filter="url(#fdav5yqodymyx)" height="632.2936" id="Sakarkiv.Saksmappe" style="stroke: #A80036; stroke-width: 1.5;" width="255" x="52.5" y="62"/><ellipse cx="122.75" cy="78" fill="#ADD1B2" rx="11" ry="11" style="stroke: #A80036; stroke-width: 1.0;"/><path d="M122.2188,84.9219 Q120.4688,84.9219 119.3281,84.1875 Q118.2031,83.4375 117.6406,82.0938 Q117.0938,80.7344 117.0938,78.9375 Q117.0938,76.9063 117.75,75.4531 Q118.4063,74 119.6875,73.2188 Q120.9688,72.4375 122.8438,72.4375 Q123.7344,72.4375 124.4063,72.625 Q125.0781,72.7969 125.7656,73.1406 L124.9531,75.1563 Q124.3281,74.8438 123.7813,74.7188 Q123.25,74.5938 122.7656,74.5938 Q121.5938,74.5938 120.8906,75.125 Q120.1875,75.6563 119.8906,76.6094 Q119.5938,77.5625 119.5938,78.8281 Q119.5938,80.8438 120.3125,81.8125 Q121.0313,82.7656 122.625,82.7656 Q123.2188,82.7656 123.8438,82.6094 Q124.4688,82.4531 125.2969,82.0781 L125.2969,84.2969 Q124.5625,84.6094 123.7656,84.7656 Q122.9844,84.9219 122.2188,84.9219 Z "/><text fill="#000000" font-family="sans-serif" font-size="12" lengthAdjust="spacingAndGlyphs" textLength="65" x="143.25" y="82.656">Saksmappe</text><rect fill="#FFFFFF" height="18.3441" style="stroke: #000000; stroke-width: 1.0; stroke-dasharray: 2.0,2.0;" width="39" x="271.5" y="59"/><text fill="#000000" font-family="sans-serif" font-size="12" font-style="italic" lengthAdjust="spacingAndGlyphs" textLength="37" x="272.5" y="72.8281">Mappe</text><line style="stroke: #A80036; stroke-width: 1.5;" x1="53.5" x2="306.5" y1="94" y2="94"/><text fill="#000000" font-family="sans-serif" font-size="11" lengthAdjust="spacingAndGlyphs" textLength="121" x="58.5" y="109.7589">+saksaar : integer [0..1]</text><text fill="#000000" font-family="sans-serif" font-size="11" lengthAdjust="spacingAndGlyphs" textLength="190" x="58.5" y="124.7408">+sakssekvensnummer : integer [0..1]</text><text fill="#000000" font-family="sans-serif" font-size="11" lengthAdjust="spacingAndGlyphs" textLength="84" x="58.5" y="139.7227">+saksdato : date</text><text fill="#000000" font-family="sans-serif" font-size="11" lengthAdjust="spacingAndGlyphs" textLength="174" x="58.5" y="154.7046">+administrativEnhet : string [0..1]</text><text fill="#000000" font-family="sans-serif" font-size="11" lengthAdjust="spacingAndGlyphs" textLength="243" x="58.5" y="169.6865">+referanseAdministrativEnhet : SystemID [0..1]</text><text fill="#000000" font-family="sans-serif" font-size="11" lengthAdjust="spacingAndGlyphs" textLength="116" x="58.5" y="184.6684">+saksansvarlig : string</text><text fill="#000000" font-family="sans-serif" font-size="11" lengthAdjust="spacingAndGlyphs" textLength="214" x="58.5" y="199.6502">+referanseSaksansvarlig : SystemID [0..1]</text><text fill="#000000" font-family="sans-serif" font-size="11" lengthAdjust="spacingAndGlyphs" textLength="143" x="58.5" y="214.6321">+journalenhet : string [0..1]</text><text fill="#000000" font-family="sans-serif" font-size="11" lengthAdjust="spacingAndGlyphs" textLength="122" x="58.5" y="229.614">+saksstatus : Saksstatus</text><text fill="#000000" font-family="sans-serif" font-size="11" lengthAdjust="spacingAndGlyphs" textLength="129" x="58.5" y="244.5959">+utlaantDato : date [0..1]</text><text fill="#000000" font-family="sans-serif" font-size="11" lengthAdjust="spacingAndGlyphs" textLength="116" x="58.5" y="259.5778">+utlanttil : string [0..1]</text><text fill="#000000" font-family="sans-serif" font-size="11" lengthAdjust="spacingAndGlyphs" textLength="193" x="58.5" y="274.5597">+referanseUtlaantTil : SystemID [0..1]</text><text fill="#000000" font-family="sans-serif" font-size="11" lengthAdjust="spacingAndGlyphs" textLength="0" x="61.5" y="289.5416"/><text fill="#000000" font-family="sans-serif" font-size="11" lengthAdjust="spacingAndGlyphs" textLength="123" x="58.5" y="323.5053">+mappeID : string [0..1]</text><text fill="#000000" font-family="sans-serif" font-size="11" lengthAdjust="spacingAndGlyphs" textLength="162" x="58.5" y="338.4872">+mappetype : Mappetype [0..1]</text><text fill="#000000" font-family="sans-serif" font-size="11" lengthAdjust="spacingAndGlyphs" textLength="70" x="58.5" y="353.4691">+tittel : string</text><text fill="#000000" font-family="sans-serif" font-size="11" lengthAdjust="spacingAndGlyphs" textLength="146" x="58.5" y="368.451">+offentligTittel : string [0..1]</text><text fill="#000000" font-family="sans-serif" font-size="11" lengthAdjust="spacingAndGlyphs" textLength="133" x="58.5" y="383.4329">+beskrivelse : string [0..1]</text><text fill="#000000" font-family="sans-serif" font-size="11" lengthAdjust="spacingAndGlyphs" textLength="135" x="58.5" y="398.4148">+noekkelord : string [0..*]</text><text fill="#000000" font-family="sans-serif" font-size="11" lengthAdjust="spacingAndGlyphs" textLength="239" x="58.5" y="413.3967">+dokumentmedium : Dokumentmedium [0..1]</text><text fill="#000000" font-family="sans-serif" font-size="11" lengthAdjust="spacingAndGlyphs" textLength="170" x="58.5" y="428.3786">+oppbevaringssted : string [0..*]</text><text fill="#000000" font-family="sans-serif" font-size="11" lengthAdjust="spacingAndGlyphs" textLength="160" x="58.5" y="443.3604">+avsluttetDato : datetime [0..1]</text><text fill="#000000" font-family="sans-serif" font-size="11" lengthAdjust="spacingAndGlyphs" textLength="133" x="58.5" y="458.3423">+avsluttetAv : string [0..1]</text><text fill="#000000" font-family="sans-serif" font-size="11" lengthAdjust="spacingAndGlyphs" textLength="202" x="58.5" y="473.3242">+referanseAvsluttetAv : SystemID [0..1]</text><text fill="#000000" font-family="sans-serif" font-size="11" lengthAdjust="spacingAndGlyphs" textLength="145" x="58.5" y="488.3061">+kassasjon : Kassasjon [0..1]</text><text fill="#000000" font-family="sans-serif" font-size="11" lengthAdjust="spacingAndGlyphs" textLength="149" x="58.5" y="503.288">+skjerming : Skjerming [0..1]</text><text fill="#000000" font-family="sans-serif" font-size="11" lengthAdjust="spacingAndGlyphs" textLength="151" x="58.5" y="518.2699">+gradering : Gradering [0..1]</text><text fill="#000000" font-family="sans-serif" font-size="11" lengthAdjust="spacingAndGlyphs" textLength="224" x="58.5" y="533.2518">+referanseForelderMappe : SystemID [0..1]</text><text fill="#000000" font-family="sans-serif" font-size="11" lengthAdjust="spacingAndGlyphs" textLength="227" x="58.5" y="548.2337">+virksomhetsspesifikkeMetadata : any [0..1]</text><text fill="#000000" font-family="sans-serif" font-size="11" lengthAdjust="spacingAndGlyphs" textLength="0" x="61.5" y="563.2155"/><line style="stroke: #A80036; stroke-width: 1.0; stroke-dasharray: 1.0,2.0;" x1="53.5" x2="162" y1="304.2555" y2="304.2555"/><text fill="#000000" font-family="sans-serif" font-size="11" lengthAdjust="spacingAndGlyphs" textLength="36" x="162" y="308.0235">Mappe</text><line style="stroke: #A80036; stroke-width: 1.0; stroke-dasharray: 1.0,2.0;" x1="198" x2="306.5" y1="304.2555" y2="304.2555"/><text fill="#000000" font-family="sans-serif" font-size="11" lengthAdjust="spacingAndGlyphs" textLength="141" x="58.5" y="597.1793">+systemID : SystemID [0..1]</text><text fill="#000000" font-family="sans-serif" font-size="11" lengthAdjust="spacingAndGlyphs" textLength="150" x="58.5" y="612.1612">+endretDato : datetime [0..1]</text><text fill="#000000" font-family="sans-serif" font-size="11" lengthAdjust="spacingAndGlyphs" textLength="165" x="58.5" y="627.1431">+opprettetDato : datetime [0..1]</text><text fill="#000000" font-family="sans-serif" font-size="11" lengthAdjust="spacingAndGlyphs" textLength="138" x="58.5" y="642.125">+opprettetAv : string [0..1]</text><text fill="#000000" font-family="sans-serif" font-size="11" lengthAdjust="spacingAndGlyphs" textLength="123" x="58.5" y="657.1069">+endretAv : string [0..1]</text><text fill="#000000" font-family="sans-serif" font-size="11" lengthAdjust="spacingAndGlyphs" textLength="211" x="58.5" y="672.0888">+referanseOppdatertAv : SystemID [0..1]</text><text fill="#000000" font-family="sans-serif" font-size="11" lengthAdjust="spacingAndGlyphs" textLength="208" x="58.5" y="687.0706">+referanseOpprettetAv : SystemID [0..1]</text><line style="stroke: #A80036; stroke-width: 1.0; stroke-dasharray: 1.0,2.0;" x1="53.5" x2="151.5" y1="577.9295" y2="577.9295"/><text fill="#000000" font-family="sans-serif" font-size="11" lengthAdjust="spacingAndGlyphs" textLength="57" x="151.5" y="581.6974">Arkivenhet</text><line style="stroke: #A80036; stroke-width: 1.0; stroke-dasharray: 1.0,2.0;" x1="208.5" x2="306.5" y1="577.9295" y2="577.9295"/><!--MD5=[78c3d25fd312ed748fedda403654b48a]
class Sakarkiv.Presedens--><rect fill="#FEFECE" filter="url(#fdav5yqodymyx)" height="287.7102" id="Sakarkiv.Presedens" style="stroke: #A80036; stroke-width: 1.5;" width="270" x="38" y="754"/><ellipse cx="139.25" cy="770" fill="#ADD1B2" rx="11" ry="11" style="stroke: #A80036; stroke-width: 1.0;"/><path d="M138.7188,776.9219 Q136.9688,776.9219 135.8281,776.1875 Q134.7031,775.4375 134.1406,774.0938 Q133.5938,772.7344 133.5938,770.9375 Q133.5938,768.9063 134.25,767.4531 Q134.9063,766 136.1875,765.2188 Q137.4688,764.4375 139.3438,764.4375 Q140.2344,764.4375 140.9063,764.625 Q141.5781,764.7969 142.2656,765.1406 L141.4531,767.1563 Q140.8281,766.8438 140.2813,766.7188 Q139.75,766.5938 139.2656,766.5938 Q138.0938,766.5938 137.3906,767.125 Q136.6875,767.6563 136.3906,768.6094 Q136.0938,769.5625 136.0938,770.8281 Q136.0938,772.8438 136.8125,773.8125 Q137.5313,774.7656 139.125,774.7656 Q139.7188,774.7656 140.3438,774.6094 Q140.9688,774.4531 141.7969,774.0781 L141.7969,776.2969 Q141.0625,776.6094 140.2656,776.7656 Q139.4844,776.9219 138.7188,776.9219 Z "/><text fill="#000000" font-family="sans-serif" font-size="12" lengthAdjust="spacingAndGlyphs" textLength="59" x="159.75" y="774.656">Presedens</text><line style="stroke: #A80036; stroke-width: 1.5;" x1="39" x2="307" y1="786" y2="786"/><text fill="#000000" font-family="sans-serif" font-size="11" lengthAdjust="spacingAndGlyphs" textLength="170" x="44" y="801.7589">+systemID : SystemID [0..1] [1..1]</text><text fill="#000000" font-family="sans-serif" font-size="11" lengthAdjust="spacingAndGlyphs" textLength="198" x="44" y="816.7408">+presedensDato : datetime [0..1] [1..1]</text><text fill="#000000" font-family="sans-serif" font-size="11" lengthAdjust="spacingAndGlyphs" textLength="194" x="44" y="831.7227">+opprettetDato : datetime [0..1] [1..1]</text><text fill="#000000" font-family="sans-serif" font-size="11" lengthAdjust="spacingAndGlyphs" textLength="167" x="44" y="846.7046">+opprettetAv : string [0..1] [1..1]</text><text fill="#000000" font-family="sans-serif" font-size="11" lengthAdjust="spacingAndGlyphs" textLength="237" x="44" y="861.6865">+referanseOpprettetAv : SystemID [0..1] [1..1]</text><text fill="#000000" font-family="sans-serif" font-size="11" lengthAdjust="spacingAndGlyphs" textLength="70" x="44" y="876.6684">+tittel : string</text><text fill="#000000" font-family="sans-serif" font-size="11" lengthAdjust="spacingAndGlyphs" textLength="133" x="44" y="891.6502">+beskrivelse : string [0..1]</text><text fill="#000000" font-family="sans-serif" font-size="11" lengthAdjust="spacingAndGlyphs" textLength="175" x="44" y="906.6321">+presedensHjemmel : string [0..1]</text><text fill="#000000" font-family="sans-serif" font-size="11" lengthAdjust="spacingAndGlyphs" textLength="127" x="44" y="921.614">+rettskildefaktor : string</text><text fill="#000000" font-family="sans-serif" font-size="11" lengthAdjust="spacingAndGlyphs" textLength="217" x="44" y="936.5959">+presedensGodkjentDato : datetime [0..1]</text><text fill="#000000" font-family="sans-serif" font-size="11" lengthAdjust="spacingAndGlyphs" textLength="190" x="44" y="951.5778">+presedensGodkjentAv : string [0..1]</text><text fill="#000000" font-family="sans-serif" font-size="11" lengthAdjust="spacingAndGlyphs" textLength="258" x="44" y="966.5597">+referansePresedensGodkjentAv : SystemID [0..1]</text><text fill="#000000" font-family="sans-serif" font-size="11" lengthAdjust="spacingAndGlyphs" textLength="160" x="44" y="981.5416">+avsluttetDato : datetime [0..1]</text><text fill="#000000" font-family="sans-serif" font-size="11" lengthAdjust="spacingAndGlyphs" textLength="133" x="44" y="996.5235">+avsluttetAv : string [0..1]</text><text fill="#000000" font-family="sans-serif" font-size="11" lengthAdjust="spacingAndGlyphs" textLength="202" x="44" y="1011.5053">+referanseAvsluttetAv : SystemID [0..1]</text><text fill="#000000" font-family="sans-serif" font-size="11" lengthAdjust="spacingAndGlyphs" textLength="216" x="44" y="1026.4872">+presedensStatus : PresedensStatus [0..1]</text><line style="stroke: #A80036; stroke-width: 1.5;" x1="39" x2="307" y1="1033.7102" y2="1033.7102"/><!--MD5=[969f15578b48b8a37f6dcb3b1c0b6253]
class Arkivstruktur.Part--><rect fill="#FEFECE" filter="url(#fdav5yqodymyx)" height="92.9457" id="Arkivstruktur.Part" style="stroke: #A80036; stroke-width: 1.5;" width="385" x="546.5" y="851.5"/><ellipse cx="723.25" cy="867.5" fill="#ADD1B2" rx="11" ry="11" style="stroke: #A80036; stroke-width: 1.0;"/><path d="M722.7188,874.4219 Q720.9688,874.4219 719.8281,873.6875 Q718.7031,872.9375 718.1406,871.5938 Q717.5938,870.2344 717.5938,868.4375 Q717.5938,866.4063 718.25,864.9531 Q718.9063,863.5 720.1875,862.7188 Q721.4688,861.9375 723.3438,861.9375 Q724.2344,861.9375 724.9063,862.125 Q725.5781,862.2969 726.2656,862.6406 L725.4531,864.6563 Q724.8281,864.3438 724.2813,864.2188 Q723.75,864.0938 723.2656,864.0938 Q722.0938,864.0938 721.3906,864.625 Q720.6875,865.1563 720.3906,866.1094 Q720.0938,867.0625 720.0938,868.3281 Q720.0938,870.3438 720.8125,871.3125 Q721.5313,872.2656 723.125,872.2656 Q723.7188,872.2656 724.3438,872.1094 Q724.9688,871.9531 725.7969,871.5781 L725.7969,873.7969 Q725.0625,874.1094 724.2656,874.2656 Q723.4844,874.4219 722.7188,874.4219 Z "/><text fill="#000000" font-family="sans-serif" font-size="12" lengthAdjust="spacingAndGlyphs" textLength="23" x="743.75" y="872.156">Part</text><line style="stroke: #A80036; stroke-width: 1.5;" x1="547.5" x2="930.5" y1="883.5" y2="883.5"/><text fill="#000000" font-family="sans-serif" font-size="11" lengthAdjust="spacingAndGlyphs" textLength="170" x="552.5" y="899.2589">+systemID : SystemID [0..1] [1..1]</text><text fill="#000000" font-family="sans-serif" font-size="11" lengthAdjust="spacingAndGlyphs" textLength="169" x="552.5" y="914.2408">+partRolle : PartRolle [0..1] [1..1]</text><text fill="#000000" font-family="sans-serif" font-size="11" lengthAdjust="spacingAndGlyphs" textLength="373" x="552.5" y="929.2227">+virksomhetsspesifikkeMetadata : VirksomhetsspesifikkeMetadata [0..1]</text><line style="stroke: #A80036; stroke-width: 1.5;" x1="547.5" x2="930.5" y1="936.4457" y2="936.4457"/><!--MD5=[73df33951f5eee41985998203ae583aa]
class Arkivstruktur.Klasse--><rect fill="#FEFECE" filter="url(#fdav5yqodymyx)" height="48" id="Arkivstruktur.Klasse" style="stroke: #A80036; stroke-width: 1.5;" width="129" x="364.5" y="874"/><ellipse cx="379.5" cy="890" fill="#ADD1B2" rx="11" ry="11" style="stroke: #A80036; stroke-width: 1.0;"/><path d="M378.9688,896.9219 Q377.2188,896.9219 376.0781,896.1875 Q374.9531,895.4375 374.3906,894.0938 Q373.8438,892.7344 373.8438,890.9375 Q373.8438,888.9063 374.5,887.4531 Q375.1563,886 376.4375,885.2188 Q377.7188,884.4375 379.5938,884.4375 Q380.4844,884.4375 381.1563,884.625 Q381.8281,884.7969 382.5156,885.1406 L381.7031,887.1563 Q381.0781,886.8438 380.5313,886.7188 Q380,886.5938 379.5156,886.5938 Q378.3438,886.5938 377.6406,887.125 Q376.9375,887.6563 376.6406,888.6094 Q376.3438,889.5625 376.3438,890.8281 Q376.3438,892.8438 377.0625,893.8125 Q377.7813,894.7656 379.375,894.7656 Q379.9688,894.7656 380.5938,894.6094 Q381.2188,894.4531 382.0469,894.0781 L382.0469,896.2969 Q381.3125,896.6094 380.5156,896.7656 Q379.7344,896.9219 378.9688,896.9219 Z "/><text fill="#000000" font-family="sans-serif" font-size="12" lengthAdjust="spacingAndGlyphs" textLength="36" x="393.5" y="894.656">Klasse</text><rect fill="#FFFFFF" height="18.3441" style="stroke: #000000; stroke-width: 1.0; stroke-dasharray: 2.0,2.0;" width="59" x="437.5" y="871"/><text fill="#000000" font-family="sans-serif" font-size="12" font-style="italic" lengthAdjust="spacingAndGlyphs" textLength="57" x="438.5" y="884.8281">Arkivenhet</text><line style="stroke: #A80036; stroke-width: 1.5;" x1="365.5" x2="492.5" y1="906" y2="906"/><line style="stroke: #A80036; stroke-width: 1.5;" x1="365.5" x2="492.5" y1="914" y2="914"/><!--MD5=[90bba1ef23cd550ab1e67c0246273f7a]
link Arkivstruktur.Klasse to Sakarkiv.Saksmappe--><path d="M412.11,861.86 C390.97,817.88 312.8078,655.2611 312.8078,655.2611 " fill="none" id="Arkivstruktur.Klasse-Sakarkiv.Saksmappe" style="stroke: #A80036; stroke-width: 1.0;"/><polygon fill="#FFFFFF" points="307.6,644.45,306.6002,651.5915,312.8078,655.2611,313.8076,648.1196,307.6,644.45" style="stroke: #A80036; stroke-width: 1.0;"/><polygon fill="#A80036" points="417.85,873.81,417.5576,863.9655,415.6846,869.3032,410.3468,867.4302,417.85,873.81" style="stroke: #A80036; stroke-width: 1.0;"/><line style="stroke: #A80036; stroke-width: 1.0;" x1="415.6846" x2="412.22" y1="869.3032" y2="862.09"/><text fill="#000000" font-family="sans-serif" font-size="13" lengthAdjust="spacingAndGlyphs" textLength="0" x="453.3016" y="823.6374"/><text fill="#000000" font-family="sans-serif" font-size="13" lengthAdjust="spacingAndGlyphs" textLength="0" x="453.3016" y="841.3434"/><text fill="#000000" font-family="sans-serif" font-size="13" lengthAdjust="spacingAndGlyphs" textLength="171" x="366.3016" y="859.0495">+sekundaerklassifikasjon 0..*</text><!--MD5=[fd287b6a3f6d6778f7ec3740783eb550]
link Arkivstruktur.Klasse to Arkivstruktur.Klasse--><path d="M440.0159,862.5048 C440.0159,862.5048 528.5,781.61 528.5,898 C528.5,1014.39 475.33,1026.57 440.39,934.56 " fill="none" id="Arkivstruktur.Klasse-Arkivstruktur.Klasse" style="stroke: #A80036; stroke-width: 1.0;"/><polygon fill="#A80036" points="436.02,922.18,435.2452,931.9983,437.685,926.8946,442.7887,929.3344,436.02,922.18" style="stroke: #A80036; stroke-width: 1.0;"/><line style="stroke: #A80036; stroke-width: 1.0;" x1="437.685" x2="440.35" y1="926.8946" y2="934.435"/><polygon fill="#FFFFFF" points="436.02,873.82,441.7897,869.4944,440.0159,862.5048,434.2462,866.8305,436.02,873.82" style="stroke: #A80036; stroke-width: 1.0;"/><text fill="#000000" font-family="sans-serif" font-size="13" lengthAdjust="spacingAndGlyphs" textLength="93" x="332.4098" y="862.0291">+overklasse 0..1</text><text fill="#000000" font-family="sans-serif" font-size="13" lengthAdjust="spacingAndGlyphs" textLength="0" x="378.4112" y="943.7997"/><text fill="#000000" font-family="sans-serif" font-size="13" lengthAdjust="spacingAndGlyphs" textLength="102" x="325.9112" y="961.5058">+underklasse 0..*</text><!--MD5=[cfbd302bfd70298b1a7c25aed917507f]
link Sakarkiv.Saksmappe to Sakarkiv.Presedens--><path d="M175.5818,706.129 C175.5818,706.129 175.26,730.04 175.11,740.88 " fill="none" id="Sakarkiv.Saksmappe-Sakarkiv.Presedens" style="stroke: #A80036; stroke-width: 1.0;"/><polygon fill="#A80036" points="174.93,753.95,179.0582,745.0081,175.0014,748.9505,171.059,744.8938,174.93,753.95" style="stroke: #A80036; stroke-width: 1.0;"/><line style="stroke: #A80036; stroke-width: 1.0;" x1="175.0014" x2="175.11" y1="748.9505" y2="740.955"/><polygon fill="#FFFFFF" points="175.74,694.13,171.6612,700.0767,175.5818,706.129,179.6605,700.1822,175.74,694.13" style="stroke: #A80036; stroke-width: 1.0;"/><text fill="#000000" font-family="sans-serif" font-size="13" lengthAdjust="spacingAndGlyphs" textLength="50" x="124.9628" y="716.6555">+sak 0..*</text><text fill="#000000" font-family="sans-serif" font-size="13" lengthAdjust="spacingAndGlyphs" textLength="92" x="80.3822" y="742.0565">+presedens 0..*</text><!--MD5=[13cacfa3ee50675cbda9dff83fdf8630]
link Sakarkiv.Saksmappe to Arkivstruktur.Part--><path d="M316.3524,505.3458 C316.3524,505.3458 594.81,763.38 680.29,842.6 " fill="none" id="Sakarkiv.Saksmappe-Arkivstruktur.Part" style="stroke: #A80036; stroke-width: 1.0;"/><polygon fill="#A80036" points="689.83,851.44,685.9473,842.3888,686.1625,848.0415,680.5098,848.2568,689.83,851.44" style="stroke: #A80036; stroke-width: 1.0;"/><line style="stroke: #A80036; stroke-width: 1.0;" x1="686.1625" x2="680.295" y1="848.0415" y2="842.6"/><polygon fill="#A80036" points="307.55,497.19,309.2326,504.202,316.3524,505.3458,314.6698,498.3337,307.55,497.19" style="stroke: #A80036; stroke-width: 1.0;"/><text fill="#000000" font-family="sans-serif" font-size="13" lengthAdjust="spacingAndGlyphs" textLength="55" x="622.6107" y="839.6224">+part 0..*</text><!--MD5=[46370419662a858bf80b7ed88d985d0b]
@startuml
skinparam classAttributeIconSize 0

class Sakarkiv.Saksmappe <Mappe> {
  +saksaar : integer [0..1]
  +sakssekvensnummer : integer [0..1]
  +saksdato : date
  +administrativEnhet : string [0..1]
  +referanseAdministrativEnhet : SystemID [0..1]
  +saksansvarlig : string
  +referanseSaksansvarlig : SystemID [0..1]
  +journalenhet : string [0..1]
  +saksstatus : Saksstatus
  +utlaantDato : date [0..1]
  +utlanttil : string [0..1]
  +referanseUtlaantTil : SystemID [0..1]
  
  .. Mappe ..
  +mappeID : string [0..1]
  +mappetype : Mappetype [0..1]
  +tittel : string
  +offentligTittel : string [0..1]
  +beskrivelse : string [0..1]
  +noekkelord : string [0..*]
  +dokumentmedium : Dokumentmedium [0..1]
  +oppbevaringssted : string [0..*]
  +avsluttetDato : datetime [0..1]
  +avsluttetAv : string [0..1]
  +referanseAvsluttetAv : SystemID [0..1]
  +kassasjon : Kassasjon [0..1]
  +skjerming : Skjerming [0..1]
  +gradering : Gradering [0..1]
  +referanseForelderMappe : SystemID [0..1]
  +virksomhetsspesifikkeMetadata : any [0..1]
  
  .. Arkivenhet ..
  +systemID : SystemID [0..1]
  +endretDato : datetime [0..1]
  +opprettetDato : datetime [0..1]
  +opprettetAv : string [0..1]
  +endretAv : string [0..1]
  +referanseOppdatertAv : SystemID [0..1]
  +referanseOpprettetAv : SystemID [0..1]
}
class Sakarkiv.Presedens {
  +systemID : SystemID [0..1] [1..1]
  +presedensDato : datetime [0..1] [1..1]
  +opprettetDato : datetime [0..1] [1..1]
  +opprettetAv : string [0..1] [1..1]
  +referanseOpprettetAv : SystemID [0..1] [1..1]
  +tittel : string
  +beskrivelse : string [0..1]
  +presedensHjemmel : string [0..1]
  +rettskildefaktor : string
  +presedensGodkjentDato : datetime [0..1]
  +presedensGodkjentAv : string [0..1]
  +referansePresedensGodkjentAv : SystemID [0..1]
  +avsluttetDato : datetime [0..1]
  +avsluttetAv : string [0..1]
  +referanseAvsluttetAv : SystemID [0..1]
  +presedensStatus : PresedensStatus [0..1]
}
class Arkivstruktur.Part {
  +systemID : SystemID [0..1] [1..1]
  +partRolle : PartRolle [0..1] [1..1]
  +virksomhetsspesifikkeMetadata : VirksomhetsspesifikkeMetadata [0..1]
}

class Arkivstruktur.Klasse <Arkivenhet>
Arkivstruktur.Klasse "\n\n+sekundaerklassifikasjon 0..*"  <- -o Sakarkiv.Saksmappe
Arkivstruktur.Klasse "+overklasse 0..1" o- -> "\n+underklasse 0..*" Arkivstruktur.Klasse
Sakarkiv.Saksmappe "+sak 0..*" o- -> "+presedens 0..*" Sakarkiv.Presedens
Sakarkiv.Saksmappe *- -> "+part 0..*" Arkivstruktur.Part

@enduml

PlantUML version 1.2020.02(Sun Mar 01 11:22:07 CET 2020)
(GPL source distribution)
Java Runtime: OpenJDK Runtime Environment
JVM: OpenJDK 64-Bit Server VM
Java Version: 17.0.6+10-Debian-1
Operating System: Linux
Default Encoding: UTF-8
Language: en
Country: US
--></g></svg>