<?xml version="1.0" encoding="UTF-8" standalone="no"?><svg xmlns="http://www.w3.org/2000/svg" xmlns:xlink="http://www.w3.org/1999/xlink" contentScriptType="application/ecmascript" contentStyleType="text/css" height="937px" preserveAspectRatio="none" style="width:840px;height:937px;" version="1.1" viewBox="0 0 840 937" width="840px" zoomAndPan="magnify"><defs><filter height="300%" id="f1mxkrbunuplqm" width="300%" x="-1" y="-1"><feGaussianBlur result="blurOut" stdDeviation="2.0"/><feColorMatrix in="blurOut" result="blurOut2" type="matrix" values="0 0 0 0 0 0 0 0 0 0 0 0 0 0 0 0 0 0 .4 0"/><feOffset dx="4.0" dy="4.0" in="blurOut2" result="blurOut3"/><feBlend in="SourceGraphic" in2="blurOut3" mode="normal"/></filter></defs><g><!--MD5=[232c485b1f52e07d9ce0910f7499e2a6]
cluster Arkivstruktur--><polygon fill="#FFFFFF" filter="url(#f1mxkrbunuplqm)" points="22,24,123,24,130,49.0679,654,49.0679,654,799,22,799,22,24" style="stroke: #000000; stroke-width: 1.5;"/><line style="stroke: #000000; stroke-width: 1.5;" x1="22" x2="130" y1="49.0679" y2="49.0679"/><text fill="#000000" font-family="sans-serif" font-size="14" font-weight="bold" lengthAdjust="spacingAndGlyphs" textLength="95" x="26" y="40.9659">Arkivstruktur</text><!--MD5=[069ea117d8bb01159729074d99b1e334]
cluster Sakarkiv--><polygon fill="#FFFFFF" filter="url(#f1mxkrbunuplqm)" points="222,823,288,823,295,848.0679,392,848.0679,392,925,222,925,222,823" style="stroke: #000000; stroke-width: 1.5;"/><line style="stroke: #000000; stroke-width: 1.5;" x1="222" x2="295" y1="848.0679" y2="848.0679"/><text fill="#000000" font-family="sans-serif" font-size="14" font-weight="bold" lengthAdjust="spacingAndGlyphs" textLength="60" x="226" y="839.9659">Sakarkiv</text><!--MD5=[7aad5f711e1ff9ffc23e4b1d771a24c1]
class Arkivstruktur.Arkivdel--><rect fill="#FEFECE" filter="url(#f1mxkrbunuplqm)" height="48" id="Arkivstruktur.Arkivdel" style="stroke: #A80036; stroke-width: 1.5;" width="138" x="38" y="165"/><ellipse cx="53" cy="181" fill="#ADD1B2" rx="11" ry="11" style="stroke: #A80036; stroke-width: 1.0;"/><path d="M52.4688,187.9219 Q50.7188,187.9219 49.5781,187.1875 Q48.4531,186.4375 47.8906,185.0938 Q47.3438,183.7344 47.3438,181.9375 Q47.3438,179.9063 48,178.4531 Q48.6563,177 49.9375,176.2188 Q51.2188,175.4375 53.0938,175.4375 Q53.9844,175.4375 54.6563,175.625 Q55.3281,175.7969 56.0156,176.1406 L55.2031,178.1563 Q54.5781,177.8438 54.0313,177.7188 Q53.5,177.5938 53.0156,177.5938 Q51.8438,177.5938 51.1406,178.125 Q50.4375,178.6563 50.1406,179.6094 Q49.8438,180.5625 49.8438,181.8281 Q49.8438,183.8438 50.5625,184.8125 Q51.2813,185.7656 52.875,185.7656 Q53.4688,185.7656 54.0938,185.6094 Q54.7188,185.4531 55.5469,185.0781 L55.5469,187.2969 Q54.8125,187.6094 54.0156,187.7656 Q53.2344,187.9219 52.4688,187.9219 Z "/><text fill="#000000" font-family="sans-serif" font-size="12" lengthAdjust="spacingAndGlyphs" textLength="45" x="67" y="185.656">Arkivdel</text><rect fill="#FFFFFF" height="18.3441" style="stroke: #000000; stroke-width: 1.0; stroke-dasharray: 2.0,2.0;" width="59" x="120" y="162"/><text fill="#000000" font-family="sans-serif" font-size="12" font-style="italic" lengthAdjust="spacingAndGlyphs" textLength="57" x="121" y="175.8281">Arkivenhet</text><line style="stroke: #A80036; stroke-width: 1.5;" x1="39" x2="175" y1="197" y2="197"/><line style="stroke: #A80036; stroke-width: 1.5;" x1="39" x2="175" y1="205" y2="205"/><!--MD5=[644cbb5ff8138c2f81e04d7f63002f47]
class Arkivstruktur.Klassifikasjonssystem--><rect fill="#FEFECE" filter="url(#f1mxkrbunuplqm)" height="253.7464" id="Arkivstruktur.Klassifikasjonssystem" style="stroke: #A80036; stroke-width: 1.5;" width="251" x="386.5" y="62"/><ellipse cx="418.15" cy="78" fill="#ADD1B2" rx="11" ry="11" style="stroke: #A80036; stroke-width: 1.0;"/><path d="M417.6188,84.9219 Q415.8688,84.9219 414.7281,84.1875 Q413.6031,83.4375 413.0406,82.0938 Q412.4938,80.7344 412.4938,78.9375 Q412.4938,76.9063 413.15,75.4531 Q413.8063,74 415.0875,73.2188 Q416.3688,72.4375 418.2438,72.4375 Q419.1344,72.4375 419.8063,72.625 Q420.4781,72.7969 421.1656,73.1406 L420.3531,75.1563 Q419.7281,74.8438 419.1813,74.7188 Q418.65,74.5938 418.1656,74.5938 Q416.9938,74.5938 416.2906,75.125 Q415.5875,75.6563 415.2906,76.6094 Q414.9938,77.5625 414.9938,78.8281 Q414.9938,80.8438 415.7125,81.8125 Q416.4313,82.7656 418.025,82.7656 Q418.6188,82.7656 419.2438,82.6094 Q419.8688,82.4531 420.6969,82.0781 L420.6969,84.2969 Q419.9625,84.6094 419.1656,84.7656 Q418.3844,84.9219 417.6188,84.9219 Z "/><text fill="#000000" font-family="sans-serif" font-size="12" lengthAdjust="spacingAndGlyphs" textLength="121" x="435.85" y="82.656">Klassifikasjonssystem</text><rect fill="#FFFFFF" height="18.3441" style="stroke: #000000; stroke-width: 1.0; stroke-dasharray: 2.0,2.0;" width="59" x="581.5" y="59"/><text fill="#000000" font-family="sans-serif" font-size="12" font-style="italic" lengthAdjust="spacingAndGlyphs" textLength="57" x="582.5" y="72.8281">Arkivenhet</text><line style="stroke: #A80036; stroke-width: 1.5;" x1="387.5" x2="636.5" y1="94" y2="94"/><text fill="#000000" font-family="sans-serif" font-size="11" lengthAdjust="spacingAndGlyphs" textLength="239" x="392.5" y="109.7589">+klassifikasjonstype : Klassifikasjonstype [0..1]</text><text fill="#000000" font-family="sans-serif" font-size="11" lengthAdjust="spacingAndGlyphs" textLength="70" x="392.5" y="124.7408">+tittel : string</text><text fill="#000000" font-family="sans-serif" font-size="11" lengthAdjust="spacingAndGlyphs" textLength="133" x="392.5" y="139.7227">+beskrivelse : string [0..1]</text><text fill="#000000" font-family="sans-serif" font-size="11" lengthAdjust="spacingAndGlyphs" textLength="160" x="392.5" y="154.7046">+avsluttetDato : datetime [0..1]</text><text fill="#000000" font-family="sans-serif" font-size="11" lengthAdjust="spacingAndGlyphs" textLength="133" x="392.5" y="169.6865">+avsluttetAv : string [0..1]</text><text fill="#000000" font-family="sans-serif" font-size="11" lengthAdjust="spacingAndGlyphs" textLength="202" x="392.5" y="184.6684">+referanseAvsluttetAv : SystemID [0..1]</text><text fill="#000000" font-family="sans-serif" font-size="11" lengthAdjust="spacingAndGlyphs" textLength="141" x="392.5" y="218.6321">+systemID : SystemID [0..1]</text><text fill="#000000" font-family="sans-serif" font-size="11" lengthAdjust="spacingAndGlyphs" textLength="150" x="392.5" y="233.614">+endretDato : datetime [0..1]</text><text fill="#000000" font-family="sans-serif" font-size="11" lengthAdjust="spacingAndGlyphs" textLength="165" x="392.5" y="248.5959">+opprettetDato : datetime [0..1]</text><text fill="#000000" font-family="sans-serif" font-size="11" lengthAdjust="spacingAndGlyphs" textLength="138" x="392.5" y="263.5778">+opprettetAv : string [0..1]</text><text fill="#000000" font-family="sans-serif" font-size="11" lengthAdjust="spacingAndGlyphs" textLength="123" x="392.5" y="278.5597">+endretAv : string [0..1]</text><text fill="#000000" font-family="sans-serif" font-size="11" lengthAdjust="spacingAndGlyphs" textLength="211" x="392.5" y="293.5416">+referanseOppdatertAv : SystemID [0..1]</text><text fill="#000000" font-family="sans-serif" font-size="11" lengthAdjust="spacingAndGlyphs" textLength="208" x="392.5" y="308.5235">+referanseOpprettetAv : SystemID [0..1]</text><line style="stroke: #A80036; stroke-width: 1.0;" x1="387.5" x2="483.5" y1="199.3823" y2="199.3823"/><text fill="#000000" font-family="sans-serif" font-size="11" lengthAdjust="spacingAndGlyphs" textLength="57" x="483.5" y="203.1502">Arkivenhet</text><line style="stroke: #A80036; stroke-width: 1.0;" x1="540.5" x2="636.5" y1="199.3823" y2="199.3823"/><!--MD5=[73df33951f5eee41985998203ae583aa]
class Arkivstruktur.Klasse--><rect fill="#FEFECE" filter="url(#f1mxkrbunuplqm)" height="298.6921" id="Arkivstruktur.Klasse" style="stroke: #A80036; stroke-width: 1.5;" width="223" x="395.5" y="376"/><ellipse cx="454.25" cy="392" fill="#ADD1B2" rx="11" ry="11" style="stroke: #A80036; stroke-width: 1.0;"/><path d="M453.7188,398.9219 Q451.9688,398.9219 450.8281,398.1875 Q449.7031,397.4375 449.1406,396.0938 Q448.5938,394.7344 448.5938,392.9375 Q448.5938,390.9063 449.25,389.4531 Q449.9063,388 451.1875,387.2188 Q452.4688,386.4375 454.3438,386.4375 Q455.2344,386.4375 455.9063,386.625 Q456.5781,386.7969 457.2656,387.1406 L456.4531,389.1563 Q455.8281,388.8438 455.2813,388.7188 Q454.75,388.5938 454.2656,388.5938 Q453.0938,388.5938 452.3906,389.125 Q451.6875,389.6563 451.3906,390.6094 Q451.0938,391.5625 451.0938,392.8281 Q451.0938,394.8438 451.8125,395.8125 Q452.5313,396.7656 454.125,396.7656 Q454.7188,396.7656 455.3438,396.6094 Q455.9688,396.4531 456.7969,396.0781 L456.7969,398.2969 Q456.0625,398.6094 455.2656,398.7656 Q454.4844,398.9219 453.7188,398.9219 Z "/><text fill="#000000" font-family="sans-serif" font-size="12" lengthAdjust="spacingAndGlyphs" textLength="36" x="474.75" y="396.656">Klasse</text><rect fill="#FFFFFF" height="18.3441" style="stroke: #000000; stroke-width: 1.0; stroke-dasharray: 2.0,2.0;" width="59" x="562.5" y="373"/><text fill="#000000" font-family="sans-serif" font-size="12" font-style="italic" lengthAdjust="spacingAndGlyphs" textLength="57" x="563.5" y="386.8281">Arkivenhet</text><line style="stroke: #A80036; stroke-width: 1.5;" x1="396.5" x2="617.5" y1="408" y2="408"/><text fill="#000000" font-family="sans-serif" font-size="11" lengthAdjust="spacingAndGlyphs" textLength="89" x="401.5" y="423.7589">+klasseID : string</text><text fill="#000000" font-family="sans-serif" font-size="11" lengthAdjust="spacingAndGlyphs" textLength="70" x="401.5" y="438.7408">+tittel : string</text><text fill="#000000" font-family="sans-serif" font-size="11" lengthAdjust="spacingAndGlyphs" textLength="133" x="401.5" y="453.7227">+beskrivelse : string [0..1]</text><text fill="#000000" font-family="sans-serif" font-size="11" lengthAdjust="spacingAndGlyphs" textLength="135" x="401.5" y="468.7046">+noekkelord : string [0..*]</text><text fill="#000000" font-family="sans-serif" font-size="11" lengthAdjust="spacingAndGlyphs" textLength="160" x="401.5" y="483.6865">+avsluttetDato : datetime [0..1]</text><text fill="#000000" font-family="sans-serif" font-size="11" lengthAdjust="spacingAndGlyphs" textLength="133" x="401.5" y="498.6684">+avsluttetAv : string [0..1]</text><text fill="#000000" font-family="sans-serif" font-size="11" lengthAdjust="spacingAndGlyphs" textLength="202" x="401.5" y="513.6502">+referanseAvsluttetAv : SystemID [0..1]</text><text fill="#000000" font-family="sans-serif" font-size="11" lengthAdjust="spacingAndGlyphs" textLength="149" x="401.5" y="528.6321">+skjerming : Skjerming [0..1]</text><text fill="#000000" font-family="sans-serif" font-size="11" lengthAdjust="spacingAndGlyphs" textLength="145" x="401.5" y="543.614">+kassasjon : Kassasjon [0..1]</text><text fill="#000000" font-family="sans-serif" font-size="11" lengthAdjust="spacingAndGlyphs" textLength="141" x="401.5" y="577.5778">+systemID : SystemID [0..1]</text><text fill="#000000" font-family="sans-serif" font-size="11" lengthAdjust="spacingAndGlyphs" textLength="150" x="401.5" y="592.5597">+endretDato : datetime [0..1]</text><text fill="#000000" font-family="sans-serif" font-size="11" lengthAdjust="spacingAndGlyphs" textLength="165" x="401.5" y="607.5416">+opprettetDato : datetime [0..1]</text><text fill="#000000" font-family="sans-serif" font-size="11" lengthAdjust="spacingAndGlyphs" textLength="138" x="401.5" y="622.5235">+opprettetAv : string [0..1]</text><text fill="#000000" font-family="sans-serif" font-size="11" lengthAdjust="spacingAndGlyphs" textLength="123" x="401.5" y="637.5053">+endretAv : string [0..1]</text><text fill="#000000" font-family="sans-serif" font-size="11" lengthAdjust="spacingAndGlyphs" textLength="211" x="401.5" y="652.4872">+referanseOppdatertAv : SystemID [0..1]</text><text fill="#000000" font-family="sans-serif" font-size="11" lengthAdjust="spacingAndGlyphs" textLength="208" x="401.5" y="667.4691">+referanseOpprettetAv : SystemID [0..1]</text><line style="stroke: #A80036; stroke-width: 1.0;" x1="396.5" x2="478.5" y1="558.3279" y2="558.3279"/><text fill="#000000" font-family="sans-serif" font-size="11" lengthAdjust="spacingAndGlyphs" textLength="57" x="478.5" y="562.0959">Arkivenhet</text><line style="stroke: #A80036; stroke-width: 1.0;" x1="535.5" x2="617.5" y1="558.3279" y2="558.3279"/><!--MD5=[7ac5167187dc7f1acc74fcb89e1dc205]
class Arkivstruktur.Mappe--><rect fill="#FEFECE" filter="url(#f1mxkrbunuplqm)" height="48" id="Arkivstruktur.Mappe" style="stroke: #A80036; stroke-width: 1.5;" width="132" x="41" y="735"/><ellipse cx="56" cy="751" fill="#ADD1B2" rx="11" ry="11" style="stroke: #A80036; stroke-width: 1.0;"/><path d="M55.4688,757.9219 Q53.7188,757.9219 52.5781,757.1875 Q51.4531,756.4375 50.8906,755.0938 Q50.3438,753.7344 50.3438,751.9375 Q50.3438,749.9063 51,748.4531 Q51.6563,747 52.9375,746.2188 Q54.2188,745.4375 56.0938,745.4375 Q56.9844,745.4375 57.6563,745.625 Q58.3281,745.7969 59.0156,746.1406 L58.2031,748.1563 Q57.5781,747.8438 57.0313,747.7188 Q56.5,747.5938 56.0156,747.5938 Q54.8438,747.5938 54.1406,748.125 Q53.4375,748.6563 53.1406,749.6094 Q52.8438,750.5625 52.8438,751.8281 Q52.8438,753.8438 53.5625,754.8125 Q54.2813,755.7656 55.875,755.7656 Q56.4688,755.7656 57.0938,755.6094 Q57.7188,755.4531 58.5469,755.0781 L58.5469,757.2969 Q57.8125,757.6094 57.0156,757.7656 Q56.2344,757.9219 55.4688,757.9219 Z "/><text fill="#000000" font-family="sans-serif" font-size="12" lengthAdjust="spacingAndGlyphs" textLength="39" x="70" y="755.656">Mappe</text><rect fill="#FFFFFF" height="18.3441" style="stroke: #000000; stroke-width: 1.0; stroke-dasharray: 2.0,2.0;" width="59" x="117" y="732"/><text fill="#000000" font-family="sans-serif" font-size="12" font-style="italic" lengthAdjust="spacingAndGlyphs" textLength="57" x="118" y="745.8281">Arkivenhet</text><line style="stroke: #A80036; stroke-width: 1.5;" x1="42" x2="172" y1="767" y2="767"/><line style="stroke: #A80036; stroke-width: 1.5;" x1="42" x2="172" y1="775" y2="775"/><!--MD5=[d3f949591156db6542fa63b25349ce5f]
class Sakarkiv.Saksmappe--><rect fill="#FEFECE" filter="url(#f1mxkrbunuplqm)" height="48" id="Sakarkiv.Saksmappe" style="stroke: #A80036; stroke-width: 1.5;" width="138" x="238" y="861"/><ellipse cx="253" cy="877" fill="#ADD1B2" rx="11" ry="11" style="stroke: #A80036; stroke-width: 1.0;"/><path d="M252.4688,883.9219 Q250.7188,883.9219 249.5781,883.1875 Q248.4531,882.4375 247.8906,881.0938 Q247.3438,879.7344 247.3438,877.9375 Q247.3438,875.9063 248,874.4531 Q248.6563,873 249.9375,872.2188 Q251.2188,871.4375 253.0938,871.4375 Q253.9844,871.4375 254.6563,871.625 Q255.3281,871.7969 256.0156,872.1406 L255.2031,874.1563 Q254.5781,873.8438 254.0313,873.7188 Q253.5,873.5938 253.0156,873.5938 Q251.8438,873.5938 251.1406,874.125 Q250.4375,874.6563 250.1406,875.6094 Q249.8438,876.5625 249.8438,877.8281 Q249.8438,879.8438 250.5625,880.8125 Q251.2813,881.7656 252.875,881.7656 Q253.4688,881.7656 254.0938,881.6094 Q254.7188,881.4531 255.5469,881.0781 L255.5469,883.2969 Q254.8125,883.6094 254.0156,883.7656 Q253.2344,883.9219 252.4688,883.9219 Z "/><text fill="#000000" font-family="sans-serif" font-size="12" lengthAdjust="spacingAndGlyphs" textLength="65" x="267" y="881.656">Saksmappe</text><rect fill="#FFFFFF" height="18.3441" style="stroke: #000000; stroke-width: 1.0; stroke-dasharray: 2.0,2.0;" width="39" x="340" y="858"/><text fill="#000000" font-family="sans-serif" font-size="12" font-style="italic" lengthAdjust="spacingAndGlyphs" textLength="37" x="341" y="871.8281">Mappe</text><line style="stroke: #A80036; stroke-width: 1.5;" x1="239" x2="375" y1="893" y2="893"/><line style="stroke: #A80036; stroke-width: 1.5;" x1="239" x2="375" y1="901" y2="901"/><!--MD5=[069a32e0e51b02052f96e869b7fd9959]
link Arkivstruktur.Klassifikasjonssystem to Arkivstruktur.Arkivdel--><path d="M373.32,205.21 C312,208.65 188.1358,200.5324 188.1358,200.5324 " fill="none" id="Arkivstruktur.Klassifikasjonssystem-Arkivstruktur.Arkivdel" style="stroke: #A80036; stroke-width: 1.0;"/><polygon fill="#FFFFFF" points="176.21,199.2,181.7288,203.8415,188.1358,200.5324,182.617,195.8909,176.21,199.2" style="stroke: #A80036; stroke-width: 1.0;"/><polygon fill="#A80036" points="386.41,204.4,377.1811,200.961,381.4195,204.7074,377.673,208.9458,386.41,204.4" style="stroke: #A80036; stroke-width: 1.0;"/><line style="stroke: #A80036; stroke-width: 1.0;" x1="381.4195" x2="373.43" y1="204.7074" y2="205.205"/><text fill="#000000" font-family="sans-serif" font-size="13" lengthAdjust="spacingAndGlyphs" textLength="157" x="221.4377" y="201.5853">+klassifikasjonssystem 0..1</text><text fill="#000000" font-family="sans-serif" font-size="13" lengthAdjust="spacingAndGlyphs" textLength="77" x="184.12" y="214.4962">+arkivdel 1..*</text><!--MD5=[069a32e0e51b02052f96e869b7fd9959]
link Arkivstruktur.Klassifikasjonssystem to Arkivstruktur.Arkivdel--><path d="M373.32,172.79 C312,169.35 188.1358,177.4676 188.1358,177.4676 " fill="none" id="Arkivstruktur.Klassifikasjonssystem-Arkivstruktur.Arkivdel-1" style="stroke: #A80036; stroke-width: 1.0;"/><polygon fill="#FFFFFF" points="176.21,178.8,182.617,182.1091,188.1358,177.4676,181.7288,174.1585,176.21,178.8" style="stroke: #A80036; stroke-width: 1.0;"/><polygon fill="#A80036" points="386.41,173.6,377.673,169.0542,381.4195,173.2926,377.1811,177.039,386.41,173.6" style="stroke: #A80036; stroke-width: 1.0;"/><line style="stroke: #A80036; stroke-width: 1.0;" x1="381.4195" x2="373.43" y1="173.2926" y2="172.795"/><text fill="#000000" font-family="sans-serif" font-size="13" lengthAdjust="spacingAndGlyphs" textLength="220" x="158.6603" y="165.08">+sekundaerklassifikasjonssystem 0..1</text><!--MD5=[8417ef12fd0c6c0adaf88fb9c070fb71]
link Arkivstruktur.Klassifikasjonssystem to Arkivstruktur.Klasse--><path d="M509.91,329.77 C509.75,340.62 509.4048,363.9514 509.4048,363.9514 " fill="none" id="Arkivstruktur.Klassifikasjonssystem-Arkivstruktur.Klasse" style="stroke: #A80036; stroke-width: 1.0;"/><polygon fill="#FFFFFF" points="509.22,375.95,513.3119,370.0123,509.4048,363.9514,505.3129,369.8891,509.22,375.95" style="stroke: #A80036; stroke-width: 1.0;"/><polygon fill="#A80036" points="510.11,316.46,505.9719,325.3973,510.033,321.4594,513.9709,325.5205,510.11,316.46" style="stroke: #A80036; stroke-width: 1.0;"/><line style="stroke: #A80036; stroke-width: 1.0;" x1="510.033" x2="509.915" y1="321.4594" y2="329.46"/><text fill="#000000" font-family="sans-serif" font-size="13" lengthAdjust="spacingAndGlyphs" textLength="157" x="348.7137" y="337.8186">+klassifikasjonssystem 0..1</text><text fill="#000000" font-family="sans-serif" font-size="13" lengthAdjust="spacingAndGlyphs" textLength="66" x="441.5367" y="364.2314">+klasse 0..*</text><!--MD5=[fd287b6a3f6d6778f7ec3740783eb550]
link Arkivstruktur.Klasse to Arkivstruktur.Klasse--><path d="M630.4686,487.91 C630.4686,487.91 828.5,485.98 828.5,525.5 C828.5,565.02 729.01,577.61 631.7,563.28 " fill="none" id="Arkivstruktur.Klasse-Arkivstruktur.Klasse" style="stroke: #A80036; stroke-width: 1.0;"/><polygon fill="#A80036" points="618.62,561.19,626.8731,566.5645,623.5569,561.9817,628.1398,558.6655,618.62,561.19" style="stroke: #A80036; stroke-width: 1.0;"/><line style="stroke: #A80036; stroke-width: 1.0;" x1="623.5569" x2="631.45" y1="561.9817" y2="563.24"/><polygon fill="#FFFFFF" points="618.62,489.81,625.1776,492.8095,630.4686,487.91,623.911,484.9105,618.62,489.81" style="stroke: #A80036; stroke-width: 1.0;"/><text fill="#000000" font-family="sans-serif" font-size="13" lengthAdjust="spacingAndGlyphs" textLength="93" x="626.2789" y="484.5911">+overklasse 0..1</text><text fill="#000000" font-family="sans-serif" font-size="13" lengthAdjust="spacingAndGlyphs" textLength="102" x="626.4969" y="559.4286">+underklasse 0..*</text><!--MD5=[6ad31a2a544e3c283a56919386d2c114]
link Arkivstruktur.Klasse to Arkivstruktur.Mappe--><path d="M384.9237,597.1504 C384.9237,597.1504 215.32,695.31 158.63,728.12 " fill="none" id="Arkivstruktur.Klasse-Arkivstruktur.Mappe" style="stroke: #A80036; stroke-width: 1.0;"/><polygon fill="#A80036" points="147.1,734.79,156.8932,733.7443,151.4276,732.2857,152.8863,726.8201,147.1,734.79" style="stroke: #A80036; stroke-width: 1.0;"/><line style="stroke: #A80036; stroke-width: 1.0;" x1="151.4276" x2="158.35" y1="732.2857" y2="728.28"/><polygon fill="#FFFFFF" points="395.31,591.14,388.1134,590.6831,384.9237,597.1504,392.1203,597.6073,395.31,591.14" style="stroke: #A80036; stroke-width: 1.0;"/><text fill="#000000" font-family="sans-serif" font-size="13" lengthAdjust="spacingAndGlyphs" textLength="66" x="321.3973" y="591.1896">+klasse 0..1</text><text fill="#000000" font-family="sans-serif" font-size="13" lengthAdjust="spacingAndGlyphs" textLength="72" x="162.0822" y="705.5159">+mappe 0..*</text><text fill="#000000" font-family="sans-serif" font-size="13" lengthAdjust="spacingAndGlyphs" textLength="0" x="199.5822" y="723.2219"/><!--MD5=[103e55f9778739f9d4b7631e3f306756]
link Arkivstruktur.Arkivdel to Arkivstruktur.Mappe--><path d="M107,225.33 C107,225.33 107,619.19 107,721.62 " fill="none" id="Arkivstruktur.Arkivdel-Arkivstruktur.Mappe" style="stroke: #A80036; stroke-width: 1.0;"/><polygon fill="#A80036" points="107,734.79,111,725.79,107,729.79,103,725.79,107,734.79" style="stroke: #A80036; stroke-width: 1.0;"/><line style="stroke: #A80036; stroke-width: 1.0;" x1="107" x2="107" y1="729.79" y2="721.79"/><polygon fill="#FFFFFF" points="107,213.33,103,219.33,107,225.33,111,219.33,107,213.33" style="stroke: #A80036; stroke-width: 1.0;"/><text fill="#000000" font-family="sans-serif" font-size="13" lengthAdjust="spacingAndGlyphs" textLength="77" x="21.0969" y="234.9006">+arkivdel 0..1</text><text fill="#000000" font-family="sans-serif" font-size="13" lengthAdjust="spacingAndGlyphs" textLength="72" x="25.325" y="722.9911">+mappe 0..*</text><!--MD5=[6097d0687047132a233d92935ace3f8b]
link Arkivstruktur.Mappe to Arkivstruktur.Mappe--><path d="M185.0449,741.8115 C185.0449,741.8115 383,735.14 383,759 C383,782.86 277.42,788.65 186.22,776.36 " fill="none" id="Arkivstruktur.Mappe-Arkivstruktur.Mappe" style="stroke: #A80036; stroke-width: 1.0;"/><polygon fill="#A80036" points="173.17,774.46,181.5,779.7146,178.1179,775.1802,182.6523,771.7981,173.17,774.46" style="stroke: #A80036; stroke-width: 1.0;"/><line style="stroke: #A80036; stroke-width: 1.0;" x1="178.1179" x2="186.035" y1="775.1802" y2="776.33"/><polygon fill="#FFFFFF" points="173.17,743.54,179.6836,746.6341,185.0449,741.8115,178.5313,738.7175,173.17,743.54" style="stroke: #A80036; stroke-width: 1.0;"/><text fill="#000000" font-family="sans-serif" font-size="13" lengthAdjust="spacingAndGlyphs" textLength="99" x="180.9416" y="756.9931">+overmappe 0..1</text><text fill="#000000" font-family="sans-serif" font-size="13" lengthAdjust="spacingAndGlyphs" textLength="108" x="180.8684" y="789.9146">+undermappe 0..*</text><!--MD5=[e0018cf9e229c618f5d941e2b4482152]
reverse link Arkivstruktur.Mappe to Sakarkiv.Saksmappe--><path d="M161.17,793.59 C195.56,814.91 239.18,841.95 269.71,860.88 " fill="none" id="Arkivstruktur.Mappe&lt;-Sakarkiv.Saksmappe" style="stroke: #A80036; stroke-width: 1.0;"/><polygon fill="none" points="157.46,799.52,144.15,783.03,164.84,787.62,157.46,799.52" style="stroke: #A80036; stroke-width: 1.0;"/><!--MD5=[90bba1ef23cd550ab1e67c0246273f7a]
link Arkivstruktur.Klasse to Sakarkiv.Saksmappe--><path d="M417.39,686.67 C383.34,747.54 325.8568,850.2863 325.8568,850.2863 " fill="none" id="Arkivstruktur.Klasse-Sakarkiv.Saksmappe" style="stroke: #A80036; stroke-width: 1.0;"/><polygon fill="#FFFFFF" points="320,860.76,326.4196,857.4754,325.8568,850.2863,319.4372,853.5709,320,860.76" style="stroke: #A80036; stroke-width: 1.0;"/><polygon fill="#A80036" points="423.92,675.01,416.0362,680.913,421.4797,679.374,423.0186,684.8175,423.92,675.01" style="stroke: #A80036; stroke-width: 1.0;"/><line style="stroke: #A80036; stroke-width: 1.0;" x1="421.4797" x2="417.57" y1="679.374" y2="686.35"/><text fill="#000000" font-family="sans-serif" font-size="13" lengthAdjust="spacingAndGlyphs" textLength="171" x="244.7544" y="696.5852">+sekundaerklassifikasjon 0..*</text><!--MD5=[f706c8e5bb3525ebaf01e4654750889b]
@startuml
skinparam classAttributeIconSize 0
skinparam nodesep 210

class Arkivstruktur.Arkivdel <Arkivenhet>
class Arkivstruktur.Klassifikasjonssystem <Arkivenhet> {
  +klassifikasjonstype : Klassifikasjonstype [0..1]
  +tittel : string
  +beskrivelse : string [0..1]
  +avsluttetDato : datetime [0..1]
  +avsluttetAv : string [0..1]
  +referanseAvsluttetAv : SystemID [0..1]
  - - Arkivenhet - -
  +systemID : SystemID [0..1]
  +endretDato : datetime [0..1]
  +opprettetDato : datetime [0..1]
  +opprettetAv : string [0..1]
  +endretAv : string [0..1]
  +referanseOppdatertAv : SystemID [0..1]
  +referanseOpprettetAv : SystemID [0..1]
}
class Arkivstruktur.Klasse <Arkivenhet> {
  +klasseID : string
  +tittel : string
  +beskrivelse : string [0..1]
  +noekkelord : string [0..*]
  +avsluttetDato : datetime [0..1]
  +avsluttetAv : string [0..1]
  +referanseAvsluttetAv : SystemID [0..1]
  +skjerming : Skjerming [0..1]
  +kassasjon : Kassasjon [0..1]
  - - Arkivenhet - -
  +systemID : SystemID [0..1]
  +endretDato : datetime [0..1]
  +opprettetDato : datetime [0..1]
  +opprettetAv : string [0..1]
  +endretAv : string [0..1]
  +referanseOppdatertAv : SystemID [0..1]
  +referanseOpprettetAv : SystemID [0..1]
}
class Arkivstruktur.Mappe <Arkivenhet>
class Sakarkiv.Saksmappe <Mappe>

Arkivstruktur.Klassifikasjonssystem "+klassifikasjonssystem 0..1" <-o "+arkivdel 1..*" Arkivstruktur.Arkivdel
Arkivstruktur.Klassifikasjonssystem "+sekundaerklassifikasjonssystem 0..1" <-o Arkivstruktur.Arkivdel
Arkivstruktur.Klassifikasjonssystem "+klassifikasjonssystem 0..1" <- -o "+klasse 0..*" Arkivstruktur.Klasse
Arkivstruktur.Klasse "+overklasse 0..1" o- -> "+underklasse 0..*" Arkivstruktur.Klasse
Arkivstruktur.Klasse "+klasse 0..1" o- -> "+mappe 0..*\n" Arkivstruktur.Mappe
Arkivstruktur.Arkivdel "+arkivdel 0..1" o- -> "+mappe 0..*" Arkivstruktur.Mappe
Arkivstruktur.Mappe "+overmappe 0..1" o- -> "+undermappe 0..*" Arkivstruktur.Mappe
Arkivstruktur.Mappe <|- - Sakarkiv.Saksmappe
Arkivstruktur.Klasse "+sekundaerklassifikasjon 0..*" <- -o Sakarkiv.Saksmappe
@enduml

PlantUML version 1.2020.02(Sun Mar 01 11:22:07 CET 2020)
(GPL source distribution)
Java Runtime: OpenJDK Runtime Environment
JVM: OpenJDK 64-Bit Server VM
Java Version: 17.0.6+10-Debian-1
Operating System: Linux
Default Encoding: UTF-8
Language: en
Country: US
--></g></svg>