<?xml version="1.0" encoding="UTF-8" standalone="no"?><svg xmlns="http://www.w3.org/2000/svg" xmlns:xlink="http://www.w3.org/1999/xlink" contentScriptType="application/ecmascript" contentStyleType="text/css" height="246px" preserveAspectRatio="none" style="width:312px;height:246px;" version="1.1" viewBox="0 0 312 246" width="312px" zoomAndPan="magnify"><defs><filter height="300%" id="f15kcj4sb7xeoh" width="300%" x="-1" y="-1"><feGaussianBlur result="blurOut" stdDeviation="2.0"/><feColorMatrix in="blurOut" result="blurOut2" type="matrix" values="0 0 0 0 0 0 0 0 0 0 0 0 0 0 0 0 0 0 .4 0"/><feOffset dx="4.0" dy="4.0" in="blurOut2" result="blurOut3"/><feBlend in="SourceGraphic" in2="blurOut3" mode="normal"/></filter></defs><g><!--MD5=[232c485b1f52e07d9ce0910f7499e2a6]
cluster Arkivstruktur--><polygon fill="#FFFFFF" filter="url(#f15kcj4sb7xeoh)" points="24.66,24,125.66,24,132.66,49.0679,218.66,49.0679,218.66,234,24.66,234,24.66,24" style="stroke: #000000; stroke-width: 1.5;"/><line style="stroke: #000000; stroke-width: 1.5;" x1="24.66" x2="132.66" y1="49.0679" y2="49.0679"/><text fill="#000000" font-family="sans-serif" font-size="14" font-weight="bold" lengthAdjust="spacingAndGlyphs" textLength="95" x="28.66" y="40.9659">Arkivstruktur</text><!--MD5=[7ac5167187dc7f1acc74fcb89e1dc205]
class Arkivstruktur.Mappe--><rect fill="#FEFECE" filter="url(#f15kcj4sb7xeoh)" height="48" id="Arkivstruktur.Mappe" style="stroke: #A80036; stroke-width: 1.5;" width="132" x="52.66" y="62"/><ellipse cx="67.66" cy="78" fill="#ADD1B2" rx="11" ry="11" style="stroke: #A80036; stroke-width: 1.0;"/><path d="M67.1288,84.9219 Q65.3788,84.9219 64.2381,84.1875 Q63.1131,83.4375 62.5506,82.0938 Q62.0038,80.7344 62.0038,78.9375 Q62.0038,76.9063 62.66,75.4531 Q63.3163,74 64.5975,73.2188 Q65.8788,72.4375 67.7538,72.4375 Q68.6444,72.4375 69.3163,72.625 Q69.9881,72.7969 70.6756,73.1406 L69.8631,75.1563 Q69.2381,74.8438 68.6913,74.7188 Q68.16,74.5938 67.6756,74.5938 Q66.5038,74.5938 65.8006,75.125 Q65.0975,75.6563 64.8006,76.6094 Q64.5038,77.5625 64.5038,78.8281 Q64.5038,80.8438 65.2225,81.8125 Q65.9413,82.7656 67.535,82.7656 Q68.1288,82.7656 68.7538,82.6094 Q69.3788,82.4531 70.2069,82.0781 L70.2069,84.2969 Q69.4725,84.6094 68.6756,84.7656 Q67.8944,84.9219 67.1288,84.9219 Z "/><text fill="#000000" font-family="sans-serif" font-size="12" lengthAdjust="spacingAndGlyphs" textLength="39" x="81.66" y="82.656">Mappe</text><rect fill="#FFFFFF" height="18.3441" style="stroke: #000000; stroke-width: 1.0; stroke-dasharray: 2.0,2.0;" width="59" x="128.66" y="59"/><text fill="#000000" font-family="sans-serif" font-size="12" font-style="italic" lengthAdjust="spacingAndGlyphs" textLength="57" x="129.66" y="72.8281">Arkivenhet</text><line style="stroke: #A80036; stroke-width: 1.5;" x1="53.66" x2="183.66" y1="94" y2="94"/><line style="stroke: #A80036; stroke-width: 1.5;" x1="53.66" x2="183.66" y1="102" y2="102"/><!--MD5=[5eeb008ce2ba569ad4cb3c09c2ca4370]
class Arkivstruktur.Registrering--><rect fill="#FEFECE" filter="url(#f15kcj4sb7xeoh)" height="48" id="Arkivstruktur.Registrering" style="stroke: #A80036; stroke-width: 1.5;" width="161" x="41.16" y="170"/><ellipse cx="56.16" cy="186" fill="#ADD1B2" rx="11" ry="11" style="stroke: #A80036; stroke-width: 1.0;"/><path d="M55.6288,192.9219 Q53.8788,192.9219 52.7381,192.1875 Q51.6131,191.4375 51.0506,190.0938 Q50.5038,188.7344 50.5038,186.9375 Q50.5038,184.9063 51.16,183.4531 Q51.8163,182 53.0975,181.2188 Q54.3788,180.4375 56.2538,180.4375 Q57.1444,180.4375 57.8163,180.625 Q58.4881,180.7969 59.1756,181.1406 L58.3631,183.1563 Q57.7381,182.8438 57.1913,182.7188 Q56.66,182.5938 56.1756,182.5938 Q55.0038,182.5938 54.3006,183.125 Q53.5975,183.6563 53.3006,184.6094 Q53.0038,185.5625 53.0038,186.8281 Q53.0038,188.8438 53.7225,189.8125 Q54.4413,190.7656 56.035,190.7656 Q56.6288,190.7656 57.2538,190.6094 Q57.8788,190.4531 58.7069,190.0781 L58.7069,192.2969 Q57.9725,192.6094 57.1756,192.7656 Q56.3944,192.9219 55.6288,192.9219 Z "/><text fill="#000000" font-family="sans-serif" font-size="12" lengthAdjust="spacingAndGlyphs" textLength="68" x="70.16" y="190.656">Registrering</text><rect fill="#FFFFFF" height="18.3441" style="stroke: #000000; stroke-width: 1.0; stroke-dasharray: 2.0,2.0;" width="59" x="146.16" y="167"/><text fill="#000000" font-family="sans-serif" font-size="12" font-style="italic" lengthAdjust="spacingAndGlyphs" textLength="57" x="147.16" y="180.8281">Arkivenhet</text><line style="stroke: #A80036; stroke-width: 1.5;" x1="42.16" x2="201.16" y1="202" y2="202"/><line style="stroke: #A80036; stroke-width: 1.5;" x1="42.16" x2="201.16" y1="210" y2="210"/><!--MD5=[6097d0687047132a233d92935ace3f8b]
link Arkivstruktur.Mappe to Arkivstruktur.Mappe--><path d="M196.6374,67.1079 C196.6374,67.1079 219.66,76.15 219.66,86 C219.66,95.85 210.7,102.11 197.67,104.77 " fill="none" id="Arkivstruktur.Mappe-Arkivstruktur.Mappe" style="stroke: #A80036; stroke-width: 1.0;"/><polygon fill="#A80036" points="184.71,106.21,194.0949,109.1973,189.6798,105.6609,193.2162,101.2457,184.71,106.21" style="stroke: #A80036; stroke-width: 1.0;"/><line style="stroke: #A80036; stroke-width: 1.0;" x1="189.6798" x2="197.64" y1="105.6609" y2="104.775"/><polygon fill="#FFFFFF" points="184.71,65.79,190.2344,70.4248,196.6374,67.1079,191.113,62.4732,184.71,65.79" style="stroke: #A80036; stroke-width: 1.0;"/><text fill="#000000" font-family="sans-serif" font-size="13" lengthAdjust="spacingAndGlyphs" textLength="99" x="192.8346" y="60.6932">+overmappe 0..1</text><text fill="#000000" font-family="sans-serif" font-size="13" lengthAdjust="spacingAndGlyphs" textLength="108" x="192.7759" y="103.9175">+undermappe 0..*</text><!--MD5=[b06f07ca829b4fead78a2f1a47f4b1ee]
link Arkivstruktur.Mappe to Arkivstruktur.Registrering--><path d="M119.6395,121.9955 C119.6395,121.9955 120.32,145.68 120.62,156.36 " fill="none" id="Arkivstruktur.Mappe-Arkivstruktur.Registrering" style="stroke: #A80036; stroke-width: 1.0;"/><polygon fill="#A80036" points="121,169.68,124.7413,160.5694,120.8572,164.682,116.7446,160.7979,121,169.68" style="stroke: #A80036; stroke-width: 1.0;"/><line style="stroke: #A80036; stroke-width: 1.0;" x1="120.8572" x2="120.63" y1="164.682" y2="156.68"/><polygon fill="#FFFFFF" points="119.31,110,115.4763,116.1076,119.6395,121.9955,123.4733,115.8879,119.31,110" style="stroke: #A80036; stroke-width: 1.0;"/><text fill="#000000" font-family="sans-serif" font-size="13" lengthAdjust="spacingAndGlyphs" textLength="72" x="38.6934" y="131.9049">+mappe 0..1</text><text fill="#000000" font-family="sans-serif" font-size="13" lengthAdjust="spacingAndGlyphs" textLength="100" x="8.0184" y="158.2573">+registrering 0..*</text><!--MD5=[7027248737db5bb6b832bfa907896f17]
@startuml
skinparam classAttributeIconSize 0
class Arkivstruktur.Mappe <Arkivenhet>
class Arkivstruktur.Registrering <Arkivenhet>
Arkivstruktur.Mappe "+overmappe 0..1" o- -> "+undermappe 0..*" Arkivstruktur.Mappe
Arkivstruktur.Mappe "+mappe 0..1" o- -> "+registrering 0..*" Arkivstruktur.Registrering
@enduml

PlantUML version 1.2020.02(Sun Mar 01 11:22:07 CET 2020)
(GPL source distribution)
Java Runtime: OpenJDK Runtime Environment
JVM: OpenJDK 64-Bit Server VM
Java Version: 17.0.6+10-Debian-1
Operating System: Linux
Default Encoding: UTF-8
Language: en
Country: US
--></g></svg>