<?xml version="1.0" encoding="UTF-8" standalone="no"?><svg xmlns="http://www.w3.org/2000/svg" xmlns:xlink="http://www.w3.org/1999/xlink" contentScriptType="application/ecmascript" contentStyleType="text/css" height="570px" preserveAspectRatio="none" style="width:378px;height:570px;" version="1.1" viewBox="0 0 378 570" width="378px" zoomAndPan="magnify"><defs><filter height="300%" id="falqakqzo5s9a" width="300%" x="-1" y="-1"><feGaussianBlur result="blurOut" stdDeviation="2.0"/><feColorMatrix in="blurOut" result="blurOut2" type="matrix" values="0 0 0 0 0 0 0 0 0 0 0 0 0 0 0 0 0 0 .4 0"/><feOffset dx="4.0" dy="4.0" in="blurOut2" result="blurOut3"/><feBlend in="SourceGraphic" in2="blurOut3" mode="normal"/></filter></defs><g><!--MD5=[232c485b1f52e07d9ce0910f7499e2a6]
cluster Arkivstruktur--><polygon fill="#FFFFFF" filter="url(#falqakqzo5s9a)" points="57,24,158,24,165,49.0679,303,49.0679,303,558,57,558,57,24" style="stroke: #000000; stroke-width: 1.5;"/><line style="stroke: #000000; stroke-width: 1.5;" x1="57" x2="165" y1="49.0679" y2="49.0679"/><text fill="#000000" font-family="sans-serif" font-size="14" font-weight="bold" lengthAdjust="spacingAndGlyphs" textLength="95" x="61" y="40.9659">Arkivstruktur</text><!--MD5=[eda94d7323bcebfbdddd0a5056cad0ff]
class Arkivstruktur.Arkiv--><rect fill="#FEFECE" filter="url(#falqakqzo5s9a)" height="48" id="Arkivstruktur.Arkiv" style="stroke: #A80036; stroke-width: 1.5;" width="121" x="119.5" y="62"/><ellipse cx="134.5" cy="78" fill="#ADD1B2" rx="11" ry="11" style="stroke: #A80036; stroke-width: 1.0;"/><path d="M133.9688,84.9219 Q132.2188,84.9219 131.0781,84.1875 Q129.9531,83.4375 129.3906,82.0938 Q128.8438,80.7344 128.8438,78.9375 Q128.8438,76.9063 129.5,75.4531 Q130.1563,74 131.4375,73.2188 Q132.7188,72.4375 134.5938,72.4375 Q135.4844,72.4375 136.1563,72.625 Q136.8281,72.7969 137.5156,73.1406 L136.7031,75.1563 Q136.0781,74.8438 135.5313,74.7188 Q135,74.5938 134.5156,74.5938 Q133.3438,74.5938 132.6406,75.125 Q131.9375,75.6563 131.6406,76.6094 Q131.3438,77.5625 131.3438,78.8281 Q131.3438,80.8438 132.0625,81.8125 Q132.7813,82.7656 134.375,82.7656 Q134.9688,82.7656 135.5938,82.6094 Q136.2188,82.4531 137.0469,82.0781 L137.0469,84.2969 Q136.3125,84.6094 135.5156,84.7656 Q134.7344,84.9219 133.9688,84.9219 Z "/><text fill="#000000" font-family="sans-serif" font-size="12" lengthAdjust="spacingAndGlyphs" textLength="28" x="148.5" y="82.656">Arkiv</text><rect fill="#FFFFFF" height="18.3441" style="stroke: #000000; stroke-width: 1.0; stroke-dasharray: 2.0,2.0;" width="59" x="184.5" y="59"/><text fill="#000000" font-family="sans-serif" font-size="12" font-style="italic" lengthAdjust="spacingAndGlyphs" textLength="57" x="185.5" y="72.8281">Arkivenhet</text><line style="stroke: #A80036; stroke-width: 1.5;" x1="120.5" x2="239.5" y1="94" y2="94"/><line style="stroke: #A80036; stroke-width: 1.5;" x1="120.5" x2="239.5" y1="102" y2="102"/><!--MD5=[7aad5f711e1ff9ffc23e4b1d771a24c1]
class Arkivstruktur.Arkivdel--><rect fill="#FEFECE" filter="url(#falqakqzo5s9a)" height="48" id="Arkivstruktur.Arkivdel" style="stroke: #A80036; stroke-width: 1.5;" width="138" x="111" y="170"/><ellipse cx="126" cy="186" fill="#ADD1B2" rx="11" ry="11" style="stroke: #A80036; stroke-width: 1.0;"/><path d="M125.4688,192.9219 Q123.7188,192.9219 122.5781,192.1875 Q121.4531,191.4375 120.8906,190.0938 Q120.3438,188.7344 120.3438,186.9375 Q120.3438,184.9063 121,183.4531 Q121.6563,182 122.9375,181.2188 Q124.2188,180.4375 126.0938,180.4375 Q126.9844,180.4375 127.6563,180.625 Q128.3281,180.7969 129.0156,181.1406 L128.2031,183.1563 Q127.5781,182.8438 127.0313,182.7188 Q126.5,182.5938 126.0156,182.5938 Q124.8438,182.5938 124.1406,183.125 Q123.4375,183.6563 123.1406,184.6094 Q122.8438,185.5625 122.8438,186.8281 Q122.8438,188.8438 123.5625,189.8125 Q124.2813,190.7656 125.875,190.7656 Q126.4688,190.7656 127.0938,190.6094 Q127.7188,190.4531 128.5469,190.0781 L128.5469,192.2969 Q127.8125,192.6094 127.0156,192.7656 Q126.2344,192.9219 125.4688,192.9219 Z "/><text fill="#000000" font-family="sans-serif" font-size="12" lengthAdjust="spacingAndGlyphs" textLength="45" x="140" y="190.656">Arkivdel</text><rect fill="#FFFFFF" height="18.3441" style="stroke: #000000; stroke-width: 1.0; stroke-dasharray: 2.0,2.0;" width="59" x="193" y="167"/><text fill="#000000" font-family="sans-serif" font-size="12" font-style="italic" lengthAdjust="spacingAndGlyphs" textLength="57" x="194" y="180.8281">Arkivenhet</text><line style="stroke: #A80036; stroke-width: 1.5;" x1="112" x2="248" y1="202" y2="202"/><line style="stroke: #A80036; stroke-width: 1.5;" x1="112" x2="248" y1="210" y2="210"/><!--MD5=[5eeb008ce2ba569ad4cb3c09c2ca4370]
class Arkivstruktur.Registrering--><rect fill="#FEFECE" filter="url(#falqakqzo5s9a)" height="48" id="Arkivstruktur.Registrering" style="stroke: #A80036; stroke-width: 1.5;" width="161" x="99.5" y="278"/><ellipse cx="114.5" cy="294" fill="#ADD1B2" rx="11" ry="11" style="stroke: #A80036; stroke-width: 1.0;"/><path d="M113.9688,300.9219 Q112.2188,300.9219 111.0781,300.1875 Q109.9531,299.4375 109.3906,298.0938 Q108.8438,296.7344 108.8438,294.9375 Q108.8438,292.9063 109.5,291.4531 Q110.1563,290 111.4375,289.2188 Q112.7188,288.4375 114.5938,288.4375 Q115.4844,288.4375 116.1563,288.625 Q116.8281,288.7969 117.5156,289.1406 L116.7031,291.1563 Q116.0781,290.8438 115.5313,290.7188 Q115,290.5938 114.5156,290.5938 Q113.3438,290.5938 112.6406,291.125 Q111.9375,291.6563 111.6406,292.6094 Q111.3438,293.5625 111.3438,294.8281 Q111.3438,296.8438 112.0625,297.8125 Q112.7813,298.7656 114.375,298.7656 Q114.9688,298.7656 115.5938,298.6094 Q116.2188,298.4531 117.0469,298.0781 L117.0469,300.2969 Q116.3125,300.6094 115.5156,300.7656 Q114.7344,300.9219 113.9688,300.9219 Z "/><text fill="#000000" font-family="sans-serif" font-size="12" lengthAdjust="spacingAndGlyphs" textLength="68" x="128.5" y="298.656">Registrering</text><rect fill="#FFFFFF" height="18.3441" style="stroke: #000000; stroke-width: 1.0; stroke-dasharray: 2.0,2.0;" width="59" x="204.5" y="275"/><text fill="#000000" font-family="sans-serif" font-size="12" font-style="italic" lengthAdjust="spacingAndGlyphs" textLength="57" x="205.5" y="288.8281">Arkivenhet</text><line style="stroke: #A80036; stroke-width: 1.5;" x1="100.5" x2="259.5" y1="310" y2="310"/><line style="stroke: #A80036; stroke-width: 1.5;" x1="100.5" x2="259.5" y1="318" y2="318"/><!--MD5=[92ed2197edf38a39acf5ab443fdd08de]
class Arkivstruktur.Dokumentbeskrivelse--><rect fill="#FEFECE" filter="url(#falqakqzo5s9a)" height="48" id="Arkivstruktur.Dokumentbeskrivelse" style="stroke: #A80036; stroke-width: 1.5;" width="214" x="73" y="386"/><ellipse cx="88" cy="402" fill="#ADD1B2" rx="11" ry="11" style="stroke: #A80036; stroke-width: 1.0;"/><path d="M87.4688,408.9219 Q85.7188,408.9219 84.5781,408.1875 Q83.4531,407.4375 82.8906,406.0938 Q82.3438,404.7344 82.3438,402.9375 Q82.3438,400.9063 83,399.4531 Q83.6563,398 84.9375,397.2188 Q86.2188,396.4375 88.0938,396.4375 Q88.9844,396.4375 89.6563,396.625 Q90.3281,396.7969 91.0156,397.1406 L90.2031,399.1563 Q89.5781,398.8438 89.0313,398.7188 Q88.5,398.5938 88.0156,398.5938 Q86.8438,398.5938 86.1406,399.125 Q85.4375,399.6563 85.1406,400.6094 Q84.8438,401.5625 84.8438,402.8281 Q84.8438,404.8438 85.5625,405.8125 Q86.2813,406.7656 87.875,406.7656 Q88.4688,406.7656 89.0938,406.6094 Q89.7188,406.4531 90.5469,406.0781 L90.5469,408.2969 Q89.8125,408.6094 89.0156,408.7656 Q88.2344,408.9219 87.4688,408.9219 Z "/><text fill="#000000" font-family="sans-serif" font-size="12" lengthAdjust="spacingAndGlyphs" textLength="121" x="102" y="406.656">Dokumentbeskrivelse</text><rect fill="#FFFFFF" height="18.3441" style="stroke: #000000; stroke-width: 1.0; stroke-dasharray: 2.0,2.0;" width="59" x="231" y="383"/><text fill="#000000" font-family="sans-serif" font-size="12" font-style="italic" lengthAdjust="spacingAndGlyphs" textLength="57" x="232" y="396.8281">Arkivenhet</text><line style="stroke: #A80036; stroke-width: 1.5;" x1="74" x2="286" y1="418" y2="418"/><line style="stroke: #A80036; stroke-width: 1.5;" x1="74" x2="286" y1="426" y2="426"/><!--MD5=[29d823b28f6505dc34d33e3bc54abc2a]
class Arkivstruktur.Dokumentobjekt--><rect fill="#FEFECE" filter="url(#falqakqzo5s9a)" height="48" id="Arkivstruktur.Dokumentobjekt" style="stroke: #A80036; stroke-width: 1.5;" width="124" x="118" y="494"/><ellipse cx="133" cy="510" fill="#ADD1B2" rx="11" ry="11" style="stroke: #A80036; stroke-width: 1.0;"/><path d="M132.4688,516.9219 Q130.7188,516.9219 129.5781,516.1875 Q128.4531,515.4375 127.8906,514.0938 Q127.3438,512.7344 127.3438,510.9375 Q127.3438,508.9063 128,507.4531 Q128.6563,506 129.9375,505.2188 Q131.2188,504.4375 133.0938,504.4375 Q133.9844,504.4375 134.6563,504.625 Q135.3281,504.7969 136.0156,505.1406 L135.2031,507.1563 Q134.5781,506.8438 134.0313,506.7188 Q133.5,506.5938 133.0156,506.5938 Q131.8438,506.5938 131.1406,507.125 Q130.4375,507.6563 130.1406,508.6094 Q129.8438,509.5625 129.8438,510.8281 Q129.8438,512.8438 130.5625,513.8125 Q131.2813,514.7656 132.875,514.7656 Q133.4688,514.7656 134.0938,514.6094 Q134.7188,514.4531 135.5469,514.0781 L135.5469,516.2969 Q134.8125,516.6094 134.0156,516.7656 Q133.2344,516.9219 132.4688,516.9219 Z "/><text fill="#000000" font-family="sans-serif" font-size="12" lengthAdjust="spacingAndGlyphs" textLength="92" x="147" y="514.656">Dokumentobjekt</text><line style="stroke: #A80036; stroke-width: 1.5;" x1="119" x2="241" y1="526" y2="526"/><line style="stroke: #A80036; stroke-width: 1.5;" x1="119" x2="241" y1="534" y2="534"/><!--MD5=[66dd975cb8377914d38b775c7372bfad]
link Arkivstruktur.Arkiv to Arkivstruktur.Arkivdel--><path d="M180,122 C180,122 180,145.68 180,156.36 " fill="none" id="Arkivstruktur.Arkiv-Arkivstruktur.Arkivdel" style="stroke: #A80036; stroke-width: 1.0;"/><polygon fill="#A80036" points="180,169.68,184,160.68,180,164.68,176,160.68,180,169.68" style="stroke: #A80036; stroke-width: 1.0;"/><line style="stroke: #A80036; stroke-width: 1.0;" x1="180" x2="180" y1="164.68" y2="156.68"/><polygon fill="#FFFFFF" points="180,110,176,116,180,122,184,116,180,110" style="stroke: #A80036; stroke-width: 1.0;"/><text fill="#000000" font-family="sans-serif" font-size="13" lengthAdjust="spacingAndGlyphs" textLength="46" x="128.3938" y="131.9049">+arkiv 1</text><text fill="#000000" font-family="sans-serif" font-size="13" lengthAdjust="spacingAndGlyphs" textLength="77" x="93.1344" y="158.2573">+arkivdel 0..*</text><!--MD5=[57d927562c16722c9a3c2dd11583f921]
link Arkivstruktur.Arkivdel to Arkivstruktur.Arkivdel--><path d="M260.9283,175.2275 C260.9283,175.2275 284,184.31 284,194 C284,203.69 275.07,209.9 262.02,212.64 " fill="none" id="Arkivstruktur.Arkivdel-Arkivstruktur.Arkivdel" style="stroke: #A80036; stroke-width: 1.0;"/><polygon fill="#A80036" points="249.01,214.17,258.4146,217.0947,253.976,213.5877,257.4829,209.1491,249.01,214.17" style="stroke: #A80036; stroke-width: 1.0;"/><line style="stroke: #A80036; stroke-width: 1.0;" x1="253.976" x2="261.92" y1="213.5877" y2="212.65"/><polygon fill="#FFFFFF" points="249.01,173.83,254.5033,178.5015,260.9283,175.2275,255.435,170.556,249.01,173.83" style="stroke: #A80036; stroke-width: 1.0;"/><text fill="#000000" font-family="sans-serif" font-size="13" lengthAdjust="spacingAndGlyphs" textLength="103" x="257.1068" y="168.8245">nestearkivdel 0..1</text><text fill="#000000" font-family="sans-serif" font-size="13" lengthAdjust="spacingAndGlyphs" textLength="110" x="256.9544" y="211.8372">forrigearkivdel 0..1</text><!--MD5=[4da2275cba6d22010c2bc4a73c7ab889]
link Arkivstruktur.Arkivdel to Arkivstruktur.Registrering--><path d="M180,230 C180,230 180,253.68 180,264.36 " fill="none" id="Arkivstruktur.Arkivdel-Arkivstruktur.Registrering" style="stroke: #A80036; stroke-width: 1.0;"/><polygon fill="#A80036" points="180,277.68,184,268.68,180,272.68,176,268.68,180,277.68" style="stroke: #A80036; stroke-width: 1.0;"/><line style="stroke: #A80036; stroke-width: 1.0;" x1="180" x2="180" y1="272.68" y2="264.68"/><polygon fill="#FFFFFF" points="180,218,176,224,180,230,184,224,180,218" style="stroke: #A80036; stroke-width: 1.0;"/><text fill="#000000" font-family="sans-serif" font-size="13" lengthAdjust="spacingAndGlyphs" textLength="77" x="93.6156" y="239.9049">+arkivdel 0..1</text><text fill="#000000" font-family="sans-serif" font-size="13" lengthAdjust="spacingAndGlyphs" textLength="103" x="63.8031" y="266.2573">+registrering  0..*</text><!--MD5=[7229a444542d5ba4b44a9ac4e42b4ab4]
link Arkivstruktur.Registrering to Arkivstruktur.Dokumentbeskrivelse--><path d="M180,338 C180,338 180,361.68 180,372.36 " fill="none" id="Arkivstruktur.Registrering-Arkivstruktur.Dokumentbeskrivelse" style="stroke: #A80036; stroke-width: 1.0;"/><polygon fill="#A80036" points="180,385.68,184,376.68,180,380.68,176,376.68,180,385.68" style="stroke: #A80036; stroke-width: 1.0;"/><line style="stroke: #A80036; stroke-width: 1.0;" x1="180" x2="180" y1="380.68" y2="372.68"/><polygon fill="#FFFFFF" points="180,326,176,332,180,338,184,332,180,326" style="stroke: #A80036; stroke-width: 1.0;"/><text fill="#000000" font-family="sans-serif" font-size="13" lengthAdjust="spacingAndGlyphs" textLength="100" x="67.8125" y="347.9049">+registrering 1..*</text><text fill="#000000" font-family="sans-serif" font-size="13" lengthAdjust="spacingAndGlyphs" textLength="159" x="0.6281" y="374.2573">+dokumentbeskrivelse 0..*</text><!--MD5=[3c1d46d3ec9a10498f4ac252d9564b36]
link Arkivstruktur.Dokumentbeskrivelse to Arkivstruktur.Dokumentobjekt--><path d="M180,446 C180,446 180,469.68 180,480.36 " fill="none" id="Arkivstruktur.Dokumentbeskrivelse-Arkivstruktur.Dokumentobjekt" style="stroke: #A80036; stroke-width: 1.0;"/><polygon fill="#A80036" points="180,493.68,184,484.68,180,488.68,176,484.68,180,493.68" style="stroke: #A80036; stroke-width: 1.0;"/><line style="stroke: #A80036; stroke-width: 1.0;" x1="180" x2="180" y1="488.68" y2="480.68"/><polygon fill="#FFFFFF" points="180,434,176,440,180,446,184,440,180,434" style="stroke: #A80036; stroke-width: 1.0;"/><text fill="#000000" font-family="sans-serif" font-size="13" lengthAdjust="spacingAndGlyphs" textLength="146" x="16.2063" y="455.9049">+dokumentbeskrivelse 1</text><text fill="#000000" font-family="sans-serif" font-size="13" lengthAdjust="spacingAndGlyphs" textLength="131" x="32.2156" y="482.2573">+dokumentobjekt 0..*</text><!--MD5=[90e4f76dcb20e33c0ecff71c5c10f5ea]
@startuml
skinparam classAttributeIconSize 0
class Arkivstruktur.Arkiv <Arkivenhet>
class Arkivstruktur.Arkivdel <Arkivenhet>
class Arkivstruktur.Registrering <Arkivenhet>
class Arkivstruktur.Dokumentbeskrivelse <Arkivenhet>
class Arkivstruktur.Dokumentobjekt
Arkivstruktur.Arkiv "+arkiv 1" o- -> "+arkivdel 0..*" Arkivstruktur.Arkivdel
Arkivstruktur.Arkivdel "nestearkivdel 0..1" o- -> "forrigearkivdel 0..1" Arkivstruktur.Arkivdel
Arkivstruktur.Arkivdel "+arkivdel 0..1" o- -> "+registrering  0..*" Arkivstruktur.Registrering
Arkivstruktur.Registrering "+registrering 1..*" o- -> "+dokumentbeskrivelse 0..*" Arkivstruktur.Dokumentbeskrivelse
Arkivstruktur.Dokumentbeskrivelse "+dokumentbeskrivelse 1" o- -> "+dokumentobjekt 0..*" Arkivstruktur.Dokumentobjekt
@enduml

PlantUML version 1.2020.02(Sun Mar 01 11:22:07 CET 2020)
(GPL source distribution)
Java Runtime: OpenJDK Runtime Environment
JVM: OpenJDK 64-Bit Server VM
Java Version: 17.0.6+10-Debian-1
Operating System: Linux
Default Encoding: UTF-8
Language: en
Country: US
--></g></svg>