<?xml version="1.0" encoding="UTF-8" standalone="no"?><svg xmlns="http://www.w3.org/2000/svg" xmlns:xlink="http://www.w3.org/1999/xlink" contentScriptType="application/ecmascript" contentStyleType="text/css" height="175px" preserveAspectRatio="none" style="width:434px;height:175px;" version="1.1" viewBox="0 0 434 175" width="434px" zoomAndPan="magnify"><defs><filter height="300%" id="fvr4nhve3hb6f" width="300%" x="-1" y="-1"><feGaussianBlur result="blurOut" stdDeviation="2.0"/><feColorMatrix in="blurOut" result="blurOut2" type="matrix" values="0 0 0 0 0 0 0 0 0 0 0 0 0 0 0 0 0 0 .4 0"/><feOffset dx="4.0" dy="4.0" in="blurOut2" result="blurOut3"/><feBlend in="SourceGraphic" in2="blurOut3" mode="normal"/></filter></defs><g><!--MD5=[458f39cbc51dbf686cb3772c0e8a20af]
class Registrering--><rect fill="#FEFECE" filter="url(#fvr4nhve3hb6f)" height="48" id="Registrering" style="stroke: #A80036; stroke-width: 1.5;" width="167" x="119.5" y="8"/><ellipse cx="134.5" cy="24" fill="#ADD1B2" rx="11" ry="11" style="stroke: #A80036; stroke-width: 1.0;"/><path d="M133.9688,30.9219 Q132.2188,30.9219 131.0781,30.1875 Q129.9531,29.4375 129.3906,28.0938 Q128.8438,26.7344 128.8438,24.9375 Q128.8438,22.9063 129.5,21.4531 Q130.1563,20 131.4375,19.2188 Q132.7188,18.4375 134.5938,18.4375 Q135.4844,18.4375 136.1563,18.625 Q136.8281,18.7969 137.5156,19.1406 L136.7031,21.1563 Q136.0781,20.8438 135.5313,20.7188 Q135,20.5938 134.5156,20.5938 Q133.3438,20.5938 132.6406,21.125 Q131.9375,21.6563 131.6406,22.6094 Q131.3438,23.5625 131.3438,24.8281 Q131.3438,26.8438 132.0625,27.8125 Q132.7813,28.7656 134.375,28.7656 Q134.9688,28.7656 135.5938,28.6094 Q136.2188,28.4531 137.0469,28.0781 L137.0469,30.2969 Q136.3125,30.6094 135.5156,30.7656 Q134.7344,30.9219 133.9688,30.9219 Z "/><text fill="#000000" font-family="sans-serif" font-size="12" lengthAdjust="spacingAndGlyphs" textLength="68" x="148.5" y="28.656">Registrering</text><rect fill="#FFFFFF" height="18.3441" style="stroke: #000000; stroke-width: 1.0; stroke-dasharray: 2.0,2.0;" width="65" x="224.5" y="5"/><text fill="#000000" font-family="sans-serif" font-size="12" font-style="italic" lengthAdjust="spacingAndGlyphs" textLength="57" x="228.5" y="18.8281">Arkivenhet</text><line style="stroke: #A80036; stroke-width: 1.5;" x1="120.5" x2="285.5" y1="40" y2="40"/><line style="stroke: #A80036; stroke-width: 1.5;" x1="120.5" x2="285.5" y1="48" y2="48"/><!--MD5=[9cd21f4cd8f4d3a7e2c3118af4b209ad]
class Journalpost--><rect fill="#FEFECE" filter="url(#fvr4nhve3hb6f)" height="48" id="Journalpost" style="stroke: #A80036; stroke-width: 1.5;" width="170" x="6" y="116"/><ellipse cx="21" cy="132" fill="#ADD1B2" rx="11" ry="11" style="stroke: #A80036; stroke-width: 1.0;"/><path d="M20.4688,138.9219 Q18.7188,138.9219 17.5781,138.1875 Q16.4531,137.4375 15.8906,136.0938 Q15.3438,134.7344 15.3438,132.9375 Q15.3438,130.9063 16,129.4531 Q16.6563,128 17.9375,127.2188 Q19.2188,126.4375 21.0938,126.4375 Q21.9844,126.4375 22.6563,126.625 Q23.3281,126.7969 24.0156,127.1406 L23.2031,129.1563 Q22.5781,128.8438 22.0313,128.7188 Q21.5,128.5938 21.0156,128.5938 Q19.8438,128.5938 19.1406,129.125 Q18.4375,129.6563 18.1406,130.6094 Q17.8438,131.5625 17.8438,132.8281 Q17.8438,134.8438 18.5625,135.8125 Q19.2813,136.7656 20.875,136.7656 Q21.4688,136.7656 22.0938,136.6094 Q22.7188,136.4531 23.5469,136.0781 L23.5469,138.2969 Q22.8125,138.6094 22.0156,138.7656 Q21.2344,138.9219 20.4688,138.9219 Z "/><text fill="#000000" font-family="sans-serif" font-size="12" lengthAdjust="spacingAndGlyphs" textLength="63" x="35" y="136.656">Journalpost</text><rect fill="#FFFFFF" height="18.3441" style="stroke: #000000; stroke-width: 1.0; stroke-dasharray: 2.0,2.0;" width="73" x="106" y="113"/><text fill="#000000" font-family="sans-serif" font-size="12" font-style="italic" lengthAdjust="spacingAndGlyphs" textLength="65" x="110" y="126.8281">Registrering</text><line style="stroke: #A80036; stroke-width: 1.5;" x1="7" x2="175" y1="148" y2="148"/><line style="stroke: #A80036; stroke-width: 1.5;" x1="7" x2="175" y1="156" y2="156"/><!--MD5=[13051c307e36caba9c737fde53594113]
class Moeteregistrering--><rect fill="#FEFECE" filter="url(#fvr4nhve3hb6f)" height="48" id="Moeteregistrering" style="stroke: #A80036; stroke-width: 1.5;" width="209" x="211.5" y="116"/><ellipse cx="226.5" cy="132" fill="#ADD1B2" rx="11" ry="11" style="stroke: #A80036; stroke-width: 1.0;"/><path d="M225.9688,138.9219 Q224.2188,138.9219 223.0781,138.1875 Q221.9531,137.4375 221.3906,136.0938 Q220.8438,134.7344 220.8438,132.9375 Q220.8438,130.9063 221.5,129.4531 Q222.1563,128 223.4375,127.2188 Q224.7188,126.4375 226.5938,126.4375 Q227.4844,126.4375 228.1563,126.625 Q228.8281,126.7969 229.5156,127.1406 L228.7031,129.1563 Q228.0781,128.8438 227.5313,128.7188 Q227,128.5938 226.5156,128.5938 Q225.3438,128.5938 224.6406,129.125 Q223.9375,129.6563 223.6406,130.6094 Q223.3438,131.5625 223.3438,132.8281 Q223.3438,134.8438 224.0625,135.8125 Q224.7813,136.7656 226.375,136.7656 Q226.9688,136.7656 227.5938,136.6094 Q228.2188,136.4531 229.0469,136.0781 L229.0469,138.2969 Q228.3125,138.6094 227.5156,138.7656 Q226.7344,138.9219 225.9688,138.9219 Z "/><text fill="#000000" font-family="sans-serif" font-size="12" lengthAdjust="spacingAndGlyphs" textLength="102" x="240.5" y="136.656">Moeteregistrering</text><rect fill="#FFFFFF" height="18.3441" style="stroke: #000000; stroke-width: 1.0; stroke-dasharray: 2.0,2.0;" width="73" x="350.5" y="113"/><text fill="#000000" font-family="sans-serif" font-size="12" font-style="italic" lengthAdjust="spacingAndGlyphs" textLength="65" x="354.5" y="126.8281">Registrering</text><line style="stroke: #A80036; stroke-width: 1.5;" x1="212.5" x2="419.5" y1="148" y2="148"/><line style="stroke: #A80036; stroke-width: 1.5;" x1="212.5" x2="419.5" y1="156" y2="156"/><!--MD5=[133399703fdbf53c3fad882959d96d22]
reverse link Registrering to Journalpost--><path d="M164.11,69.81 C148.02,85.04 129.84,102.24 115.64,115.68 " fill="none" id="Registrering&lt;-Journalpost" style="stroke: #A80036; stroke-width: 1.0;"/><polygon fill="none" points="159.36,64.66,178.7,56,168.98,74.83,159.36,64.66" style="stroke: #A80036; stroke-width: 1.0;"/><!--MD5=[5047cf5db10964e7fc931f255d253fac]
reverse link Registrering to Moeteregistrering--><path d="M242.24,69.81 C258.47,85.04 276.81,102.24 291.14,115.68 " fill="none" id="Registrering&lt;-Moeteregistrering" style="stroke: #A80036; stroke-width: 1.0;"/><polygon fill="none" points="237.32,74.79,227.52,56,246.9,64.58,237.32,74.79" style="stroke: #A80036; stroke-width: 1.0;"/><!--MD5=[d1bbf86d9d7b33c2af3aeab7eb1f79f5]
@startuml
class Registrering < Arkivenhet >
class Journalpost < Registrering >
class Moeteregistrering < Registrering >
Registrering <|- - Journalpost
Registrering <|- - Moeteregistrering
@enduml

PlantUML version 1.2020.02(Sun Mar 01 11:22:07 CET 2020)
(GPL source distribution)
Java Runtime: OpenJDK Runtime Environment
JVM: OpenJDK 64-Bit Server VM
Java Version: 17.0.6+10-Debian-1
Operating System: Linux
Default Encoding: UTF-8
Language: en
Country: US
--></g></svg>