<?xml version="1.0" encoding="UTF-8" standalone="no"?><svg xmlns="http://www.w3.org/2000/svg" xmlns:xlink="http://www.w3.org/1999/xlink" contentScriptType="application/ecmascript" contentStyleType="text/css" height="1286px" preserveAspectRatio="none" style="width:550px;height:1286px;" version="1.1" viewBox="0 0 550 1286" width="550px" zoomAndPan="magnify"><defs><filter height="300%" id="fsd39xzqx92v8" width="300%" x="-1" y="-1"><feGaussianBlur result="blurOut" stdDeviation="2.0"/><feColorMatrix in="blurOut" result="blurOut2" type="matrix" values="0 0 0 0 0 0 0 0 0 0 0 0 0 0 0 0 0 0 .4 0"/><feOffset dx="4.0" dy="4.0" in="blurOut2" result="blurOut3"/><feBlend in="SourceGraphic" in2="blurOut3" mode="normal"/></filter></defs><g><!--MD5=[069ea117d8bb01159729074d99b1e334]
cluster Sakarkiv--><polygon fill="#FFFFFF" filter="url(#fsd39xzqx92v8)" points="128,917,194,917,201,942.0679,422,942.0679,422,1274,128,1274,128,917" style="stroke: #000000; stroke-width: 1.5;"/><line style="stroke: #000000; stroke-width: 1.5;" x1="128" x2="201" y1="942.0679" y2="942.0679"/><text fill="#000000" font-family="sans-serif" font-size="14" font-weight="bold" lengthAdjust="spacingAndGlyphs" textLength="60" x="132" y="933.9659">Sakarkiv</text><!--MD5=[232c485b1f52e07d9ce0910f7499e2a6]
cluster Arkivstruktur--><polygon fill="#FFFFFF" filter="url(#fsd39xzqx92v8)" points="22,24,123,24,130,49.0679,528,49.0679,528,893,22,893,22,24" style="stroke: #000000; stroke-width: 1.5;"/><line style="stroke: #000000; stroke-width: 1.5;" x1="22" x2="130" y1="49.0679" y2="49.0679"/><text fill="#000000" font-family="sans-serif" font-size="14" font-weight="bold" lengthAdjust="spacingAndGlyphs" textLength="95" x="26" y="40.9659">Arkivstruktur</text><!--MD5=[2f08e53298f8f090d026427c85b7c44d]
class Sakarkiv.Journalpost--><rect fill="#FEFECE" filter="url(#fsd39xzqx92v8)" height="302.6921" id="Sakarkiv.Journalpost" style="stroke: #A80036; stroke-width: 1.5;" width="262" x="144" y="955"/><ellipse cx="204.75" cy="971" fill="#ADD1B2" rx="11" ry="11" style="stroke: #A80036; stroke-width: 1.0;"/><path d="M204.2188,977.9219 Q202.4688,977.9219 201.3281,977.1875 Q200.2031,976.4375 199.6406,975.0938 Q199.0938,973.7344 199.0938,971.9375 Q199.0938,969.9063 199.75,968.4531 Q200.4063,967 201.6875,966.2188 Q202.9688,965.4375 204.8438,965.4375 Q205.7344,965.4375 206.4063,965.625 Q207.0781,965.7969 207.7656,966.1406 L206.9531,968.1563 Q206.3281,967.8438 205.7813,967.7188 Q205.25,967.5938 204.7656,967.5938 Q203.5938,967.5938 202.8906,968.125 Q202.1875,968.6563 201.8906,969.6094 Q201.5938,970.5625 201.5938,971.8281 Q201.5938,973.8438 202.3125,974.8125 Q203.0313,975.7656 204.625,975.7656 Q205.2188,975.7656 205.8438,975.6094 Q206.4688,975.4531 207.2969,975.0781 L207.2969,977.2969 Q206.5625,977.6094 205.7656,977.7656 Q204.9844,977.9219 204.2188,977.9219 Z "/><text fill="#000000" font-family="sans-serif" font-size="12" lengthAdjust="spacingAndGlyphs" textLength="63" x="225.25" y="975.656">Journalpost</text><rect fill="#FFFFFF" height="18.3441" style="stroke: #000000; stroke-width: 1.0; stroke-dasharray: 2.0,2.0;" width="67" x="342" y="952"/><text fill="#000000" font-family="sans-serif" font-size="12" font-style="italic" lengthAdjust="spacingAndGlyphs" textLength="65" x="343" y="965.8281">Registrering</text><line style="stroke: #A80036; stroke-width: 1.5;" x1="145" x2="405" y1="987" y2="987"/><text fill="#000000" font-family="sans-serif" font-size="11" lengthAdjust="spacingAndGlyphs" textLength="166" x="150" y="1002.7589">+journalaar : integer [0..1] [1..1]</text><text fill="#000000" font-family="sans-serif" font-size="11" lengthAdjust="spacingAndGlyphs" textLength="235" x="150" y="1017.7408">+journalsekvensnummer : integer [0..1] [1..1]</text><text fill="#000000" font-family="sans-serif" font-size="11" lengthAdjust="spacingAndGlyphs" textLength="217" x="150" y="1032.7227">+journalpostnummer : integer [0..1] [1..1]</text><text fill="#000000" font-family="sans-serif" font-size="11" lengthAdjust="spacingAndGlyphs" textLength="241" x="150" y="1047.7046">+journalposttype : Journalposttype [0..1] [1..1]</text><text fill="#000000" font-family="sans-serif" font-size="11" lengthAdjust="spacingAndGlyphs" textLength="211" x="150" y="1062.6865">+journalstatus : Journalstatus [0..1] [1..1]</text><text fill="#000000" font-family="sans-serif" font-size="11" lengthAdjust="spacingAndGlyphs" textLength="181" x="150" y="1077.6684">+journaldato : datetime [0..1] [1..1]</text><text fill="#000000" font-family="sans-serif" font-size="11" lengthAdjust="spacingAndGlyphs" textLength="213" x="150" y="1092.6502">+dokumentetsDato : datetime [0..1] [1..1]</text><text fill="#000000" font-family="sans-serif" font-size="11" lengthAdjust="spacingAndGlyphs" textLength="183" x="150" y="1107.6321">+mottattDato : datetime [0..1] [1..1]</text><text fill="#000000" font-family="sans-serif" font-size="11" lengthAdjust="spacingAndGlyphs" textLength="144" x="150" y="1122.614">+sendtDato : datetime [0..1]</text><text fill="#000000" font-family="sans-serif" font-size="11" lengthAdjust="spacingAndGlyphs" textLength="151" x="150" y="1137.5959">+forfallsdato : datetime [0..1]</text><text fill="#000000" font-family="sans-serif" font-size="11" lengthAdjust="spacingAndGlyphs" textLength="222" x="150" y="1152.5778">+offentlighetsvurdertDato : datetime [0..1]</text><text fill="#000000" font-family="sans-serif" font-size="11" lengthAdjust="spacingAndGlyphs" textLength="154" x="150" y="1167.5597">+antallVedlegg : integer [0..1]</text><text fill="#000000" font-family="sans-serif" font-size="11" lengthAdjust="spacingAndGlyphs" textLength="152" x="150" y="1182.5416">+utlaantDato : datetime [0..1]</text><text fill="#000000" font-family="sans-serif" font-size="11" lengthAdjust="spacingAndGlyphs" textLength="124" x="150" y="1197.5235">+utlaantTil : string [0..1]</text><text fill="#000000" font-family="sans-serif" font-size="11" lengthAdjust="spacingAndGlyphs" textLength="193" x="150" y="1212.5053">+referanseUtlaantTil : SystemID [0..1]</text><text fill="#000000" font-family="sans-serif" font-size="11" lengthAdjust="spacingAndGlyphs" textLength="172" x="150" y="1227.4872">+journalenhet : string [0..1] [1..1]</text><text fill="#000000" font-family="sans-serif" font-size="11" lengthAdjust="spacingAndGlyphs" textLength="250" x="150" y="1242.4691">+elektroniskSignatur : ElektroniskSignatur [0..1]</text><line style="stroke: #A80036; stroke-width: 1.5;" x1="145" x2="405" y1="1249.6921" y2="1249.6921"/><!--MD5=[f7503d591851d2fa8a95c0a17885f877]
class Arkivstruktur.ElektroniskSignatur--><rect fill="#FEFECE" filter="url(#fsd39xzqx92v8)" height="133.5977" id="Arkivstruktur.ElektroniskSignatur" style="stroke: #A80036; stroke-width: 1.5;" width="397" x="76.5" y="743"/><ellipse cx="216.75" cy="764.3441" fill="#ADD1B2" rx="11" ry="11" style="stroke: #A80036; stroke-width: 1.0;"/><path d="M216.2188,771.266 Q214.4688,771.266 213.3281,770.5316 Q212.2031,769.7816 211.6406,768.4379 Q211.0938,767.0785 211.0938,765.2816 Q211.0938,763.2504 211.75,761.7972 Q212.4063,760.3441 213.6875,759.5629 Q214.9688,758.7816 216.8438,758.7816 Q217.7344,758.7816 218.4063,758.9691 Q219.0781,759.141 219.7656,759.4847 L218.9531,761.5004 Q218.3281,761.1879 217.7813,761.0629 Q217.25,760.9379 216.7656,760.9379 Q215.5938,760.9379 214.8906,761.4691 Q214.1875,762.0004 213.8906,762.9535 Q213.5938,763.9066 213.5938,765.1722 Q213.5938,767.1879 214.3125,768.1566 Q215.0313,769.1097 216.625,769.1097 Q217.2188,769.1097 217.8438,768.9535 Q218.4688,768.7972 219.2969,768.4222 L219.2969,770.641 Q218.5625,770.9535 217.7656,771.1097 Q216.9844,771.266 216.2188,771.266 Z "/><text fill="#000000" font-family="sans-serif" font-size="12" font-style="italic" lengthAdjust="spacingAndGlyphs" textLength="62" x="260.25" y="760.8281">«dataType»</text><text fill="#000000" font-family="sans-serif" font-size="12" lengthAdjust="spacingAndGlyphs" textLength="108" x="237.25" y="777.1722">ElektroniskSignatur</text><line style="stroke: #A80036; stroke-width: 1.5;" x1="77.5" x2="472.5" y1="785.6882" y2="785.6882"/><text fill="#000000" font-family="sans-serif" font-size="11" lengthAdjust="spacingAndGlyphs" textLength="385" x="82.5" y="801.4471">+elektroniskSignaturSikkerhetsnivaa : ElektroniskSignaturSikkerhetsnivaa</text><text fill="#000000" font-family="sans-serif" font-size="11" lengthAdjust="spacingAndGlyphs" textLength="317" x="82.5" y="816.429">+elektroniskSignaturVerifisert : ElektroniskSignaturVerifisert</text><text fill="#000000" font-family="sans-serif" font-size="11" lengthAdjust="spacingAndGlyphs" textLength="133" x="82.5" y="831.4109">+verifisertDato : datetime</text><text fill="#000000" font-family="sans-serif" font-size="11" lengthAdjust="spacingAndGlyphs" textLength="164" x="82.5" y="846.3928">+verifisertAv : string [0..1] [1..1]</text><text fill="#000000" font-family="sans-serif" font-size="11" lengthAdjust="spacingAndGlyphs" textLength="233" x="82.5" y="861.3747">+referanseVerifisertAv : SystemID [0..1] [1..1]</text><line style="stroke: #A80036; stroke-width: 1.5;" x1="77.5" x2="472.5" y1="868.5977" y2="868.5977"/><!--MD5=[92ed2197edf38a39acf5ab443fdd08de]
class Arkivstruktur.Dokumentbeskrivelse--><rect fill="#FEFECE" filter="url(#fsd39xzqx92v8)" height="347.6378" id="Arkivstruktur.Dokumentbeskrivelse" style="stroke: #A80036; stroke-width: 1.5;" width="385" x="82.5" y="62"/><ellipse cx="179.75" cy="78" fill="#ADD1B2" rx="11" ry="11" style="stroke: #A80036; stroke-width: 1.0;"/><path d="M179.2188,84.9219 Q177.4688,84.9219 176.3281,84.1875 Q175.2031,83.4375 174.6406,82.0938 Q174.0938,80.7344 174.0938,78.9375 Q174.0938,76.9063 174.75,75.4531 Q175.4063,74 176.6875,73.2188 Q177.9688,72.4375 179.8438,72.4375 Q180.7344,72.4375 181.4063,72.625 Q182.0781,72.7969 182.7656,73.1406 L181.9531,75.1563 Q181.3281,74.8438 180.7813,74.7188 Q180.25,74.5938 179.7656,74.5938 Q178.5938,74.5938 177.8906,75.125 Q177.1875,75.6563 176.8906,76.6094 Q176.5938,77.5625 176.5938,78.8281 Q176.5938,80.8438 177.3125,81.8125 Q178.0313,82.7656 179.625,82.7656 Q180.2188,82.7656 180.8438,82.6094 Q181.4688,82.4531 182.2969,82.0781 L182.2969,84.2969 Q181.5625,84.6094 180.7656,84.7656 Q179.9844,84.9219 179.2188,84.9219 Z "/><text fill="#000000" font-family="sans-serif" font-size="12" lengthAdjust="spacingAndGlyphs" textLength="121" x="200.25" y="82.656">Dokumentbeskrivelse</text><rect fill="#FFFFFF" height="18.3441" style="stroke: #000000; stroke-width: 1.0; stroke-dasharray: 2.0,2.0;" width="59" x="411.5" y="59"/><text fill="#000000" font-family="sans-serif" font-size="12" font-style="italic" lengthAdjust="spacingAndGlyphs" textLength="57" x="412.5" y="72.8281">Arkivenhet</text><line style="stroke: #A80036; stroke-width: 1.5;" x1="83.5" x2="466.5" y1="94" y2="94"/><text fill="#000000" font-family="sans-serif" font-size="11" lengthAdjust="spacingAndGlyphs" textLength="228" x="88.5" y="109.7589">+dokumenttype : Dokumenttype [0..1] [1..1]</text><text fill="#000000" font-family="sans-serif" font-size="11" lengthAdjust="spacingAndGlyphs" textLength="244" x="88.5" y="124.7408">+dokumentstatus : Dokumentstatus [0..1] [1..1]</text><text fill="#000000" font-family="sans-serif" font-size="11" lengthAdjust="spacingAndGlyphs" textLength="70" x="88.5" y="139.7227">+tittel : string</text><text fill="#000000" font-family="sans-serif" font-size="11" lengthAdjust="spacingAndGlyphs" textLength="133" x="88.5" y="154.7046">+beskrivelse : string [0..1]</text><text fill="#000000" font-family="sans-serif" font-size="11" lengthAdjust="spacingAndGlyphs" textLength="120" x="88.5" y="169.6865">+forfatter : string [0..*]</text><text fill="#000000" font-family="sans-serif" font-size="11" lengthAdjust="spacingAndGlyphs" textLength="268" x="88.5" y="184.6684">+dokumentmedium : Dokumentmedium [0..1] [1..1]</text><text fill="#000000" font-family="sans-serif" font-size="11" lengthAdjust="spacingAndGlyphs" textLength="170" x="88.5" y="199.6502">+oppbevaringssted : string [0..1]</text><text fill="#000000" font-family="sans-serif" font-size="11" lengthAdjust="spacingAndGlyphs" textLength="345" x="88.5" y="214.6321">+tilknyttetRegistreringSom : TilknyttetRegistreringSom [0..1] [1..1]</text><text fill="#000000" font-family="sans-serif" font-size="11" lengthAdjust="spacingAndGlyphs" textLength="210" x="88.5" y="229.614">+dokumentnummer : integer [0..1] [1..1]</text><text fill="#000000" font-family="sans-serif" font-size="11" lengthAdjust="spacingAndGlyphs" textLength="191" x="88.5" y="244.5959">+tilknyttetDato : datetime [0..1] [1..1]</text><text fill="#000000" font-family="sans-serif" font-size="11" lengthAdjust="spacingAndGlyphs" textLength="164" x="88.5" y="259.5778">+tilknyttetAv : string [0..1] [1..1]</text><text fill="#000000" font-family="sans-serif" font-size="11" lengthAdjust="spacingAndGlyphs" textLength="234" x="88.5" y="274.5597">+referanseTilknyttetAv : SystemID [0..1] [1..1]</text><text fill="#000000" font-family="sans-serif" font-size="11" lengthAdjust="spacingAndGlyphs" textLength="145" x="88.5" y="289.5416">+kassasjon : Kassasjon [0..1]</text><text fill="#000000" font-family="sans-serif" font-size="11" lengthAdjust="spacingAndGlyphs" textLength="221" x="88.5" y="304.5235">+utfoertKassasjon : UtfoertKassasjon [0..1]</text><text fill="#000000" font-family="sans-serif" font-size="11" lengthAdjust="spacingAndGlyphs" textLength="123" x="88.5" y="319.5053">+sletting : Sletting [0..1]</text><text fill="#000000" font-family="sans-serif" font-size="11" lengthAdjust="spacingAndGlyphs" textLength="149" x="88.5" y="334.4872">+skjerming : Skjerming [0..1]</text><text fill="#000000" font-family="sans-serif" font-size="11" lengthAdjust="spacingAndGlyphs" textLength="151" x="88.5" y="349.4691">+gradering : Gradering [0..1]</text><text fill="#000000" font-family="sans-serif" font-size="11" lengthAdjust="spacingAndGlyphs" textLength="250" x="88.5" y="364.451">+elektroniskSignatur : ElektroniskSignatur [0..1]</text><text fill="#000000" font-family="sans-serif" font-size="11" lengthAdjust="spacingAndGlyphs" textLength="166" x="88.5" y="379.4329">+eksternReferanse : string [0..1]</text><text fill="#000000" font-family="sans-serif" font-size="11" lengthAdjust="spacingAndGlyphs" textLength="373" x="88.5" y="394.4148">+virksomhetsspesifikkeMetadata : VirksomhetsspesifikkeMetadata [0..1]</text><line style="stroke: #A80036; stroke-width: 1.5;" x1="83.5" x2="466.5" y1="401.6378" y2="401.6378"/><!--MD5=[29d823b28f6505dc34d33e3bc54abc2a]
class Arkivstruktur.Dokumentobjekt--><rect fill="#FEFECE" filter="url(#fsd39xzqx92v8)" height="212.8008" id="Arkivstruktur.Dokumentobjekt" style="stroke: #A80036; stroke-width: 1.5;" width="262" x="38" y="470"/><ellipse cx="88.25" cy="486" fill="#ADD1B2" rx="11" ry="11" style="stroke: #A80036; stroke-width: 1.0;"/><path d="M87.7188,492.9219 Q85.9688,492.9219 84.8281,492.1875 Q83.7031,491.4375 83.1406,490.0938 Q82.5938,488.7344 82.5938,486.9375 Q82.5938,484.9063 83.25,483.4531 Q83.9063,482 85.1875,481.2188 Q86.4688,480.4375 88.3438,480.4375 Q89.2344,480.4375 89.9063,480.625 Q90.5781,480.7969 91.2656,481.1406 L90.4531,483.1563 Q89.8281,482.8438 89.2813,482.7188 Q88.75,482.5938 88.2656,482.5938 Q87.0938,482.5938 86.3906,483.125 Q85.6875,483.6563 85.3906,484.6094 Q85.0938,485.5625 85.0938,486.8281 Q85.0938,488.8438 85.8125,489.8125 Q86.5313,490.7656 88.125,490.7656 Q88.7188,490.7656 89.3438,490.6094 Q89.9688,490.4531 90.7969,490.0781 L90.7969,492.2969 Q90.0625,492.6094 89.2656,492.7656 Q88.4844,492.9219 87.7188,492.9219 Z "/><text fill="#000000" font-family="sans-serif" font-size="12" lengthAdjust="spacingAndGlyphs" textLength="92" x="108.75" y="490.656">Dokumentobjekt</text><rect fill="#FFFFFF" height="18.3441" style="stroke: #000000; stroke-width: 1.0; stroke-dasharray: 2.0,2.0;" width="59" x="244" y="467"/><text fill="#000000" font-family="sans-serif" font-size="12" font-style="italic" lengthAdjust="spacingAndGlyphs" textLength="57" x="245" y="480.8281">Arkivenhet</text><line style="stroke: #A80036; stroke-width: 1.5;" x1="39" x2="299" y1="502" y2="502"/><text fill="#000000" font-family="sans-serif" font-size="11" lengthAdjust="spacingAndGlyphs" textLength="200" x="44" y="517.7589">+versjonsnummer : integer [0..1] [1..1]</text><text fill="#000000" font-family="sans-serif" font-size="11" lengthAdjust="spacingAndGlyphs" textLength="220" x="44" y="532.7408">+variantformat : Variantformat [0..1] [1..1]</text><text fill="#000000" font-family="sans-serif" font-size="11" lengthAdjust="spacingAndGlyphs" textLength="147" x="44" y="547.7227">+format : Format [0..1] [1..1]</text><text fill="#000000" font-family="sans-serif" font-size="11" lengthAdjust="spacingAndGlyphs" textLength="152" x="44" y="562.7046">+formatDetaljer : string [0..1]</text><text fill="#000000" font-family="sans-serif" font-size="11" lengthAdjust="spacingAndGlyphs" textLength="219" x="44" y="577.6865">+referanseDokumentfil : string [0..1] [1..1]</text><text fill="#000000" font-family="sans-serif" font-size="11" lengthAdjust="spacingAndGlyphs" textLength="111" x="44" y="592.6684">+filnavn : string [0..1]</text><text fill="#000000" font-family="sans-serif" font-size="11" lengthAdjust="spacingAndGlyphs" textLength="152" x="44" y="607.6502">+sjekksum : string [0..1] [1..1]</text><text fill="#000000" font-family="sans-serif" font-size="11" lengthAdjust="spacingAndGlyphs" textLength="158" x="44" y="622.6321">+mimeType : string [0..1] [1..1]</text><text fill="#000000" font-family="sans-serif" font-size="11" lengthAdjust="spacingAndGlyphs" textLength="204" x="44" y="637.614">+sjekksumAlgoritme : string [0..1] [1..1]</text><text fill="#000000" font-family="sans-serif" font-size="11" lengthAdjust="spacingAndGlyphs" textLength="173" x="44" y="652.5959">+filstoerrelse : integer [0..1] [1..1]</text><text fill="#000000" font-family="sans-serif" font-size="11" lengthAdjust="spacingAndGlyphs" textLength="250" x="44" y="667.5778">+elektroniskSignatur : ElektroniskSignatur [0..1]</text><line style="stroke: #A80036; stroke-width: 1.5;" x1="39" x2="299" y1="674.8008" y2="674.8008"/><!--MD5=[e86c5eb81674e02980c4a737d650b3b5]
link Arkivstruktur.ElektroniskSignatur to Sakarkiv.Journalpost--><!--MD5=[865ee0187f11202bdcb93a0553104435]
link Arkivstruktur.ElektroniskSignatur to Arkivstruktur.Dokumentbeskrivelse--><!--MD5=[278cd03bb3ef90f91843030adaa96bb2]
reverse link Arkivstruktur.Dokumentobjekt to Arkivstruktur.ElektroniskSignatur--><!--MD5=[3c1d46d3ec9a10498f4ac252d9564b36]
link Arkivstruktur.Dokumentbeskrivelse to Arkivstruktur.Dokumentobjekt--><path d="M217.1754,421.6721 C217.1754,421.6721 209.5,446.17 206,457.35 " fill="none" id="Arkivstruktur.Dokumentbeskrivelse-Arkivstruktur.Dokumentobjekt" style="stroke: #A80036; stroke-width: 1.0;"/><polygon fill="#A80036" points="202.1,469.81,208.6082,462.4179,203.5951,465.0388,200.9743,460.0257,202.1,469.81" style="stroke: #A80036; stroke-width: 1.0;"/><line style="stroke: #A80036; stroke-width: 1.0;" x1="203.5951" x2="205.98" y1="465.0388" y2="457.4"/><polygon fill="#FFFFFF" points="220.76,410.22,215.1504,414.7512,217.1754,421.6721,222.7851,417.1409,220.76,410.22" style="stroke: #A80036; stroke-width: 1.0;"/><text fill="#000000" font-family="sans-serif" font-size="13" lengthAdjust="spacingAndGlyphs" textLength="146" x="69.7897" y="431.2754">+dokumentbeskrivelse 1</text><text fill="#000000" font-family="sans-serif" font-size="13" lengthAdjust="spacingAndGlyphs" textLength="131" x="68.7206" y="458.281">+dokumentobjekt 0..*</text><!--MD5=[e726ee4ed60ea67db80712707e81a496]
@startuml
skinparam classAttributeIconSize 0
skinparam nodesep 210

class Sakarkiv.Journalpost <Registrering> {
  +journalaar : integer [0..1] [1..1]
  +journalsekvensnummer : integer [0..1] [1..1]
  +journalpostnummer : integer [0..1] [1..1]
  +journalposttype : Journalposttype [0..1] [1..1]
  +journalstatus : Journalstatus [0..1] [1..1]
  +journaldato : datetime [0..1] [1..1]
  +dokumentetsDato : datetime [0..1] [1..1]
  +mottattDato : datetime [0..1] [1..1]
  +sendtDato : datetime [0..1]
  +forfallsdato : datetime [0..1]
  +offentlighetsvurdertDato : datetime [0..1]
  +antallVedlegg : integer [0..1]
  +utlaantDato : datetime [0..1]
  +utlaantTil : string [0..1]
  +referanseUtlaantTil : SystemID [0..1]
  +journalenhet : string [0..1] [1..1]
  +elektroniskSignatur : ElektroniskSignatur [0..1]
}
class Arkivstruktur.ElektroniskSignatur <<dataType>> {
  +elektroniskSignaturSikkerhetsnivaa : ElektroniskSignaturSikkerhetsnivaa
  +elektroniskSignaturVerifisert : ElektroniskSignaturVerifisert
  +verifisertDato : datetime
  +verifisertAv : string [0..1] [1..1]
  +referanseVerifisertAv : SystemID [0..1] [1..1]
}
class Arkivstruktur.Dokumentbeskrivelse <Arkivenhet> {
  +dokumenttype : Dokumenttype [0..1] [1..1]
  +dokumentstatus : Dokumentstatus [0..1] [1..1]
  +tittel : string
  +beskrivelse : string [0..1]
  +forfatter : string [0..*]
  +dokumentmedium : Dokumentmedium [0..1] [1..1]
  +oppbevaringssted : string [0..1]
  +tilknyttetRegistreringSom : TilknyttetRegistreringSom [0..1] [1..1]
  +dokumentnummer : integer [0..1] [1..1]
  +tilknyttetDato : datetime [0..1] [1..1]
  +tilknyttetAv : string [0..1] [1..1]
  +referanseTilknyttetAv : SystemID [0..1] [1..1]
  +kassasjon : Kassasjon [0..1]
  +utfoertKassasjon : UtfoertKassasjon [0..1]
  +sletting : Sletting [0..1]
  +skjerming : Skjerming [0..1]
  +gradering : Gradering [0..1]
  +elektroniskSignatur : ElektroniskSignatur [0..1]
  +eksternReferanse : string [0..1]
  +virksomhetsspesifikkeMetadata : VirksomhetsspesifikkeMetadata [0..1]
}
class Arkivstruktur.Dokumentobjekt <Arkivenhet> {
  +versjonsnummer : integer [0..1] [1..1]
  +variantformat : Variantformat [0..1] [1..1]
  +format : Format [0..1] [1..1]
  +formatDetaljer : string [0..1]
  +referanseDokumentfil : string [0..1] [1..1]
  +filnavn : string [0..1]
  +sjekksum : string [0..1] [1..1]
  +mimeType : string [0..1] [1..1]
  +sjekksumAlgoritme : string [0..1] [1..1]
  +filstoerrelse : integer [0..1] [1..1]
  +elektroniskSignatur : ElektroniskSignatur [0..1]
}

Arkivstruktur.ElektroniskSignatur -[hidden]-> Sakarkiv.Journalpost
Arkivstruktur.ElektroniskSignatur - -[hidden]-> Arkivstruktur.Dokumentbeskrivelse
Arkivstruktur.Dokumentobjekt <-[hidden]- Arkivstruktur.ElektroniskSignatur
Arkivstruktur.Dokumentbeskrivelse "+dokumentbeskrivelse 1" o-> "+dokumentobjekt 0..*" Arkivstruktur.Dokumentobjekt
@enduml

PlantUML version 1.2020.02(Sun Mar 01 11:22:07 CET 2020)
(GPL source distribution)
Java Runtime: OpenJDK Runtime Environment
JVM: OpenJDK 64-Bit Server VM
Java Version: 17.0.6+10-Debian-1
Operating System: Linux
Default Encoding: UTF-8
Language: en
Country: US
--></g></svg>