<?xml version="1.0" encoding="UTF-8" standalone="no"?><svg xmlns="http://www.w3.org/2000/svg" xmlns:xlink="http://www.w3.org/1999/xlink" contentScriptType="application/ecmascript" contentStyleType="text/css" height="1013px" preserveAspectRatio="none" style="width:1458px;height:1013px;" version="1.1" viewBox="0 0 1458 1013" width="1458px" zoomAndPan="magnify"><defs><filter height="300%" id="fa8sy4ou26b6w" width="300%" x="-1" y="-1"><feGaussianBlur result="blurOut" stdDeviation="2.0"/><feColorMatrix in="blurOut" result="blurOut2" type="matrix" values="0 0 0 0 0 0 0 0 0 0 0 0 0 0 0 0 0 0 .4 0"/><feOffset dx="4.0" dy="4.0" in="blurOut2" result="blurOut3"/><feBlend in="SourceGraphic" in2="blurOut3" mode="normal"/></filter></defs><g><!--MD5=[232c485b1f52e07d9ce0910f7499e2a6]
cluster Arkivstruktur--><polygon fill="#FFFFFF" filter="url(#fa8sy4ou26b6w)" points="22,24,123,24,130,49.0679,688,49.0679,688,803,22,803,22,24" style="stroke: #000000; stroke-width: 1.5;"/><line style="stroke: #000000; stroke-width: 1.5;" x1="22" x2="130" y1="49.0679" y2="49.0679"/><text fill="#000000" font-family="sans-serif" font-size="14" font-weight="bold" lengthAdjust="spacingAndGlyphs" textLength="95" x="26" y="40.9659">Arkivstruktur</text><!--MD5=[069ea117d8bb01159729074d99b1e334]
cluster Sakarkiv--><polygon fill="#FFFFFF" filter="url(#fa8sy4ou26b6w)" points="1120,611,1186,611,1193,636.0679,1436,636.0679,1436,1001,1120,1001,1120,611" style="stroke: #000000; stroke-width: 1.5;"/><line style="stroke: #000000; stroke-width: 1.5;" x1="1120" x2="1193" y1="636.0679" y2="636.0679"/><text fill="#000000" font-family="sans-serif" font-size="14" font-weight="bold" lengthAdjust="spacingAndGlyphs" textLength="60" x="1124" y="627.9659">Sakarkiv</text><!--MD5=[804ba605f60f10bc0f0d7a119b05216e]
cluster MoeteOgUtvalgsbehandling--><polygon fill="#FFFFFF" filter="url(#fa8sy4ou26b6w)" points="712,656,913,656,920,681.0679,972,681.0679,972,848,712,848,712,656" style="stroke: #000000; stroke-width: 1.5;"/><line style="stroke: #000000; stroke-width: 1.5;" x1="712" x2="920" y1="681.0679" y2="681.0679"/><text fill="#000000" font-family="sans-serif" font-size="14" font-weight="bold" lengthAdjust="spacingAndGlyphs" textLength="195" x="716" y="672.9659">MoeteOgUtvalgsbehandling</text><!--MD5=[73df33951f5eee41985998203ae583aa]
class Arkivstruktur.Klasse--><rect fill="#FEFECE" filter="url(#fa8sy4ou26b6w)" height="48" id="Arkivstruktur.Klasse" style="stroke: #A80036; stroke-width: 1.5;" width="129" x="463.5" y="62"/><ellipse cx="478.5" cy="78" fill="#ADD1B2" rx="11" ry="11" style="stroke: #A80036; stroke-width: 1.0;"/><path d="M477.9688,84.9219 Q476.2188,84.9219 475.0781,84.1875 Q473.9531,83.4375 473.3906,82.0938 Q472.8438,80.7344 472.8438,78.9375 Q472.8438,76.9063 473.5,75.4531 Q474.1563,74 475.4375,73.2188 Q476.7188,72.4375 478.5938,72.4375 Q479.4844,72.4375 480.1563,72.625 Q480.8281,72.7969 481.5156,73.1406 L480.7031,75.1563 Q480.0781,74.8438 479.5313,74.7188 Q479,74.5938 478.5156,74.5938 Q477.3438,74.5938 476.6406,75.125 Q475.9375,75.6563 475.6406,76.6094 Q475.3438,77.5625 475.3438,78.8281 Q475.3438,80.8438 476.0625,81.8125 Q476.7813,82.7656 478.375,82.7656 Q478.9688,82.7656 479.5938,82.6094 Q480.2188,82.4531 481.0469,82.0781 L481.0469,84.2969 Q480.3125,84.6094 479.5156,84.7656 Q478.7344,84.9219 477.9688,84.9219 Z "/><text fill="#000000" font-family="sans-serif" font-size="12" lengthAdjust="spacingAndGlyphs" textLength="36" x="492.5" y="82.656">Klasse</text><rect fill="#FFFFFF" height="18.3441" style="stroke: #000000; stroke-width: 1.0; stroke-dasharray: 2.0,2.0;" width="59" x="536.5" y="59"/><text fill="#000000" font-family="sans-serif" font-size="12" font-style="italic" lengthAdjust="spacingAndGlyphs" textLength="57" x="537.5" y="72.8281">Arkivenhet</text><line style="stroke: #A80036; stroke-width: 1.5;" x1="464.5" x2="591.5" y1="94" y2="94"/><line style="stroke: #A80036; stroke-width: 1.5;" x1="464.5" x2="591.5" y1="102" y2="102"/><!--MD5=[7aad5f711e1ff9ffc23e4b1d771a24c1]
class Arkivstruktur.Arkivdel--><rect fill="#FEFECE" filter="url(#fa8sy4ou26b6w)" height="48" id="Arkivstruktur.Arkivdel" style="stroke: #A80036; stroke-width: 1.5;" width="138" x="92" y="62"/><ellipse cx="107" cy="78" fill="#ADD1B2" rx="11" ry="11" style="stroke: #A80036; stroke-width: 1.0;"/><path d="M106.4688,84.9219 Q104.7188,84.9219 103.5781,84.1875 Q102.4531,83.4375 101.8906,82.0938 Q101.3438,80.7344 101.3438,78.9375 Q101.3438,76.9063 102,75.4531 Q102.6563,74 103.9375,73.2188 Q105.2188,72.4375 107.0938,72.4375 Q107.9844,72.4375 108.6563,72.625 Q109.3281,72.7969 110.0156,73.1406 L109.2031,75.1563 Q108.5781,74.8438 108.0313,74.7188 Q107.5,74.5938 107.0156,74.5938 Q105.8438,74.5938 105.1406,75.125 Q104.4375,75.6563 104.1406,76.6094 Q103.8438,77.5625 103.8438,78.8281 Q103.8438,80.8438 104.5625,81.8125 Q105.2813,82.7656 106.875,82.7656 Q107.4688,82.7656 108.0938,82.6094 Q108.7188,82.4531 109.5469,82.0781 L109.5469,84.2969 Q108.8125,84.6094 108.0156,84.7656 Q107.2344,84.9219 106.4688,84.9219 Z "/><text fill="#000000" font-family="sans-serif" font-size="12" lengthAdjust="spacingAndGlyphs" textLength="45" x="121" y="82.656">Arkivdel</text><rect fill="#FFFFFF" height="18.3441" style="stroke: #000000; stroke-width: 1.0; stroke-dasharray: 2.0,2.0;" width="59" x="174" y="59"/><text fill="#000000" font-family="sans-serif" font-size="12" font-style="italic" lengthAdjust="spacingAndGlyphs" textLength="57" x="175" y="72.8281">Arkivenhet</text><line style="stroke: #A80036; stroke-width: 1.5;" x1="93" x2="229" y1="94" y2="94"/><line style="stroke: #A80036; stroke-width: 1.5;" x1="93" x2="229" y1="102" y2="102"/><!--MD5=[7ac5167187dc7f1acc74fcb89e1dc205]
class Arkivstruktur.Mappe--><rect fill="#FEFECE" filter="url(#fa8sy4ou26b6w)" height="418.5472" id="Arkivstruktur.Mappe" style="stroke: #A80036; stroke-width: 1.5;" width="251" x="402.5" y="170"/><ellipse cx="473.75" cy="186" fill="#ADD1B2" rx="11" ry="11" style="stroke: #A80036; stroke-width: 1.0;"/><path d="M473.2188,192.9219 Q471.4688,192.9219 470.3281,192.1875 Q469.2031,191.4375 468.6406,190.0938 Q468.0938,188.7344 468.0938,186.9375 Q468.0938,184.9063 468.75,183.4531 Q469.4063,182 470.6875,181.2188 Q471.9688,180.4375 473.8438,180.4375 Q474.7344,180.4375 475.4063,180.625 Q476.0781,180.7969 476.7656,181.1406 L475.9531,183.1563 Q475.3281,182.8438 474.7813,182.7188 Q474.25,182.5938 473.7656,182.5938 Q472.5938,182.5938 471.8906,183.125 Q471.1875,183.6563 470.8906,184.6094 Q470.5938,185.5625 470.5938,186.8281 Q470.5938,188.8438 471.3125,189.8125 Q472.0313,190.7656 473.625,190.7656 Q474.2188,190.7656 474.8438,190.6094 Q475.4688,190.4531 476.2969,190.0781 L476.2969,192.2969 Q475.5625,192.6094 474.7656,192.7656 Q473.9844,192.9219 473.2188,192.9219 Z "/><text fill="#000000" font-family="sans-serif" font-size="12" lengthAdjust="spacingAndGlyphs" textLength="39" x="494.25" y="190.656">Mappe</text><rect fill="#FFFFFF" height="18.3441" style="stroke: #000000; stroke-width: 1.0; stroke-dasharray: 2.0,2.0;" width="59" x="597.5" y="167"/><text fill="#000000" font-family="sans-serif" font-size="12" font-style="italic" lengthAdjust="spacingAndGlyphs" textLength="57" x="598.5" y="180.8281">Arkivenhet</text><line style="stroke: #A80036; stroke-width: 1.5;" x1="403.5" x2="652.5" y1="202" y2="202"/><text fill="#000000" font-family="sans-serif" font-size="11" lengthAdjust="spacingAndGlyphs" textLength="123" x="408.5" y="217.7589">+mappeID : string [0..1]</text><text fill="#000000" font-family="sans-serif" font-size="11" lengthAdjust="spacingAndGlyphs" textLength="162" x="408.5" y="232.7408">+mappetype : Mappetype [0..1]</text><text fill="#000000" font-family="sans-serif" font-size="11" lengthAdjust="spacingAndGlyphs" textLength="70" x="408.5" y="247.7227">+tittel : string</text><text fill="#000000" font-family="sans-serif" font-size="11" lengthAdjust="spacingAndGlyphs" textLength="146" x="408.5" y="262.7046">+offentligTittel : string [0..1]</text><text fill="#000000" font-family="sans-serif" font-size="11" lengthAdjust="spacingAndGlyphs" textLength="133" x="408.5" y="277.6865">+beskrivelse : string [0..1]</text><text fill="#000000" font-family="sans-serif" font-size="11" lengthAdjust="spacingAndGlyphs" textLength="135" x="408.5" y="292.6684">+noekkelord : string [0..*]</text><text fill="#000000" font-family="sans-serif" font-size="11" lengthAdjust="spacingAndGlyphs" textLength="239" x="408.5" y="307.6502">+dokumentmedium : Dokumentmedium [0..1]</text><text fill="#000000" font-family="sans-serif" font-size="11" lengthAdjust="spacingAndGlyphs" textLength="170" x="408.5" y="322.6321">+oppbevaringssted : string [0..*]</text><text fill="#000000" font-family="sans-serif" font-size="11" lengthAdjust="spacingAndGlyphs" textLength="160" x="408.5" y="337.614">+avsluttetDato : datetime [0..1]</text><text fill="#000000" font-family="sans-serif" font-size="11" lengthAdjust="spacingAndGlyphs" textLength="133" x="408.5" y="352.5959">+avsluttetAv : string [0..1]</text><text fill="#000000" font-family="sans-serif" font-size="11" lengthAdjust="spacingAndGlyphs" textLength="202" x="408.5" y="367.5778">+referanseAvsluttetAv : SystemID [0..1]</text><text fill="#000000" font-family="sans-serif" font-size="11" lengthAdjust="spacingAndGlyphs" textLength="145" x="408.5" y="382.5597">+kassasjon : Kassasjon [0..1]</text><text fill="#000000" font-family="sans-serif" font-size="11" lengthAdjust="spacingAndGlyphs" textLength="149" x="408.5" y="397.5416">+skjerming : Skjerming [0..1]</text><text fill="#000000" font-family="sans-serif" font-size="11" lengthAdjust="spacingAndGlyphs" textLength="151" x="408.5" y="412.5235">+gradering : Gradering [0..1]</text><text fill="#000000" font-family="sans-serif" font-size="11" lengthAdjust="spacingAndGlyphs" textLength="224" x="408.5" y="427.5053">+referanseForelderMappe : SystemID [0..1]</text><text fill="#000000" font-family="sans-serif" font-size="11" lengthAdjust="spacingAndGlyphs" textLength="227" x="408.5" y="442.4872">+virksomhetsspesifikkeMetadata : any [0..1]</text><text fill="#000000" font-family="sans-serif" font-size="11" lengthAdjust="spacingAndGlyphs" textLength="0" x="411.5" y="457.4691"/><text fill="#000000" font-family="sans-serif" font-size="11" lengthAdjust="spacingAndGlyphs" textLength="141" x="408.5" y="491.4329">+systemID : SystemID [0..1]</text><text fill="#000000" font-family="sans-serif" font-size="11" lengthAdjust="spacingAndGlyphs" textLength="150" x="408.5" y="506.4148">+endretDato : datetime [0..1]</text><text fill="#000000" font-family="sans-serif" font-size="11" lengthAdjust="spacingAndGlyphs" textLength="165" x="408.5" y="521.3967">+opprettetDato : datetime [0..1]</text><text fill="#000000" font-family="sans-serif" font-size="11" lengthAdjust="spacingAndGlyphs" textLength="138" x="408.5" y="536.3786">+opprettetAv : string [0..1]</text><text fill="#000000" font-family="sans-serif" font-size="11" lengthAdjust="spacingAndGlyphs" textLength="123" x="408.5" y="551.3604">+endretAv : string [0..1]</text><text fill="#000000" font-family="sans-serif" font-size="11" lengthAdjust="spacingAndGlyphs" textLength="211" x="408.5" y="566.3423">+referanseOppdatertAv : SystemID [0..1]</text><text fill="#000000" font-family="sans-serif" font-size="11" lengthAdjust="spacingAndGlyphs" textLength="208" x="408.5" y="581.3242">+referanseOpprettetAv : SystemID [0..1]</text><line style="stroke: #A80036; stroke-width: 1.0;" x1="403.5" x2="499.5" y1="472.183" y2="472.183"/><text fill="#000000" font-family="sans-serif" font-size="11" lengthAdjust="spacingAndGlyphs" textLength="57" x="499.5" y="475.951">Arkivenhet</text><line style="stroke: #A80036; stroke-width: 1.0;" x1="556.5" x2="652.5" y1="472.183" y2="472.183"/><!--MD5=[5eeb008ce2ba569ad4cb3c09c2ca4370]
class Arkivstruktur.Registrering--><rect fill="#FEFECE" filter="url(#fa8sy4ou26b6w)" height="48" id="Arkivstruktur.Registrering" style="stroke: #A80036; stroke-width: 1.5;" width="161" x="140.5" y="739"/><ellipse cx="155.5" cy="755" fill="#ADD1B2" rx="11" ry="11" style="stroke: #A80036; stroke-width: 1.0;"/><path d="M154.9688,761.9219 Q153.2188,761.9219 152.0781,761.1875 Q150.9531,760.4375 150.3906,759.0938 Q149.8438,757.7344 149.8438,755.9375 Q149.8438,753.9063 150.5,752.4531 Q151.1563,751 152.4375,750.2188 Q153.7188,749.4375 155.5938,749.4375 Q156.4844,749.4375 157.1563,749.625 Q157.8281,749.7969 158.5156,750.1406 L157.7031,752.1563 Q157.0781,751.8438 156.5313,751.7188 Q156,751.5938 155.5156,751.5938 Q154.3438,751.5938 153.6406,752.125 Q152.9375,752.6563 152.6406,753.6094 Q152.3438,754.5625 152.3438,755.8281 Q152.3438,757.8438 153.0625,758.8125 Q153.7813,759.7656 155.375,759.7656 Q155.9688,759.7656 156.5938,759.6094 Q157.2188,759.4531 158.0469,759.0781 L158.0469,761.2969 Q157.3125,761.6094 156.5156,761.7656 Q155.7344,761.9219 154.9688,761.9219 Z "/><text fill="#000000" font-family="sans-serif" font-size="12" lengthAdjust="spacingAndGlyphs" textLength="68" x="169.5" y="759.656">Registrering</text><rect fill="#FFFFFF" height="18.3441" style="stroke: #000000; stroke-width: 1.0; stroke-dasharray: 2.0,2.0;" width="59" x="245.5" y="736"/><text fill="#000000" font-family="sans-serif" font-size="12" font-style="italic" lengthAdjust="spacingAndGlyphs" textLength="57" x="246.5" y="749.8281">Arkivenhet</text><line style="stroke: #A80036; stroke-width: 1.5;" x1="141.5" x2="300.5" y1="771" y2="771"/><line style="stroke: #A80036; stroke-width: 1.5;" x1="141.5" x2="300.5" y1="779" y2="779"/><!--MD5=[d3f949591156db6542fa63b25349ce5f]
class Sakarkiv.Saksmappe--><rect fill="#FEFECE" filter="url(#fa8sy4ou26b6w)" height="227.7827" id="Sakarkiv.Saksmappe" style="stroke: #A80036; stroke-width: 1.5;" width="284" x="1136" y="649"/><ellipse cx="1220.75" cy="665" fill="#ADD1B2" rx="11" ry="11" style="stroke: #A80036; stroke-width: 1.0;"/><path d="M1220.2188,671.9219 Q1218.4688,671.9219 1217.3281,671.1875 Q1216.2031,670.4375 1215.6406,669.0938 Q1215.0938,667.7344 1215.0938,665.9375 Q1215.0938,663.9063 1215.75,662.4531 Q1216.4063,661 1217.6875,660.2188 Q1218.9688,659.4375 1220.8438,659.4375 Q1221.7344,659.4375 1222.4063,659.625 Q1223.0781,659.7969 1223.7656,660.1406 L1222.9531,662.1563 Q1222.3281,661.8438 1221.7813,661.7188 Q1221.25,661.5938 1220.7656,661.5938 Q1219.5938,661.5938 1218.8906,662.125 Q1218.1875,662.6563 1217.8906,663.6094 Q1217.5938,664.5625 1217.5938,665.8281 Q1217.5938,667.8438 1218.3125,668.8125 Q1219.0313,669.7656 1220.625,669.7656 Q1221.2188,669.7656 1221.8438,669.6094 Q1222.4688,669.4531 1223.2969,669.0781 L1223.2969,671.2969 Q1222.5625,671.6094 1221.7656,671.7656 Q1220.9844,671.9219 1220.2188,671.9219 Z "/><text fill="#000000" font-family="sans-serif" font-size="12" lengthAdjust="spacingAndGlyphs" textLength="65" x="1241.25" y="669.656">Saksmappe</text><rect fill="#FFFFFF" height="18.3441" style="stroke: #000000; stroke-width: 1.0; stroke-dasharray: 2.0,2.0;" width="39" x="1384" y="646"/><text fill="#000000" font-family="sans-serif" font-size="12" font-style="italic" lengthAdjust="spacingAndGlyphs" textLength="37" x="1385" y="659.8281">Mappe</text><line style="stroke: #A80036; stroke-width: 1.5;" x1="1137" x2="1419" y1="681" y2="681"/><text fill="#000000" font-family="sans-serif" font-size="11" lengthAdjust="spacingAndGlyphs" textLength="150" x="1142" y="696.7589">+saksaar : integer [0..1] [1..1]</text><text fill="#000000" font-family="sans-serif" font-size="11" lengthAdjust="spacingAndGlyphs" textLength="219" x="1142" y="711.7408">+sakssekvensnummer : integer [0..1] [1..1]</text><text fill="#000000" font-family="sans-serif" font-size="11" lengthAdjust="spacingAndGlyphs" textLength="165" x="1142" y="726.7227">+saksdato : datetime [0..1] [1..1]</text><text fill="#000000" font-family="sans-serif" font-size="11" lengthAdjust="spacingAndGlyphs" textLength="203" x="1142" y="741.7046">+administrativEnhet : string [0..1] [1..1]</text><text fill="#000000" font-family="sans-serif" font-size="11" lengthAdjust="spacingAndGlyphs" textLength="272" x="1142" y="756.6865">+referanseAdministrativEnhet : SystemID [0..1] [1..1]</text><text fill="#000000" font-family="sans-serif" font-size="11" lengthAdjust="spacingAndGlyphs" textLength="174" x="1142" y="771.6684">+saksansvarlig : string [0..1] [1..1]</text><text fill="#000000" font-family="sans-serif" font-size="11" lengthAdjust="spacingAndGlyphs" textLength="243" x="1142" y="786.6502">+referanseSaksansvarlig : SystemID [0..1] [1..1]</text><text fill="#000000" font-family="sans-serif" font-size="11" lengthAdjust="spacingAndGlyphs" textLength="172" x="1142" y="801.6321">+journalenhet : string [0..1] [1..1]</text><text fill="#000000" font-family="sans-serif" font-size="11" lengthAdjust="spacingAndGlyphs" textLength="180" x="1142" y="816.614">+saksstatus : Saksstatus [0..1] [1..1]</text><text fill="#000000" font-family="sans-serif" font-size="11" lengthAdjust="spacingAndGlyphs" textLength="152" x="1142" y="831.5959">+utlaantDato : datetime [0..1]</text><text fill="#000000" font-family="sans-serif" font-size="11" lengthAdjust="spacingAndGlyphs" textLength="124" x="1142" y="846.5778">+utlaantTil : string [0..1]</text><text fill="#000000" font-family="sans-serif" font-size="11" lengthAdjust="spacingAndGlyphs" textLength="193" x="1142" y="861.5597">+referanseUtlaantTil : SystemID [0..1]</text><line style="stroke: #A80036; stroke-width: 1.5;" x1="1137" x2="1419" y1="868.7827" y2="868.7827"/><!--MD5=[78c3d25fd312ed748fedda403654b48a]
class Sakarkiv.Presedens--><rect fill="#FEFECE" filter="url(#fa8sy4ou26b6w)" height="48" id="Sakarkiv.Presedens" style="stroke: #A80036; stroke-width: 1.5;" width="91" x="1232.5" y="937"/><ellipse cx="1247.5" cy="953" fill="#ADD1B2" rx="11" ry="11" style="stroke: #A80036; stroke-width: 1.0;"/><path d="M1246.9688,959.9219 Q1245.2188,959.9219 1244.0781,959.1875 Q1242.9531,958.4375 1242.3906,957.0938 Q1241.8438,955.7344 1241.8438,953.9375 Q1241.8438,951.9063 1242.5,950.4531 Q1243.1563,949 1244.4375,948.2188 Q1245.7188,947.4375 1247.5938,947.4375 Q1248.4844,947.4375 1249.1563,947.625 Q1249.8281,947.7969 1250.5156,948.1406 L1249.7031,950.1563 Q1249.0781,949.8438 1248.5313,949.7188 Q1248,949.5938 1247.5156,949.5938 Q1246.3438,949.5938 1245.6406,950.125 Q1244.9375,950.6563 1244.6406,951.6094 Q1244.3438,952.5625 1244.3438,953.8281 Q1244.3438,955.8438 1245.0625,956.8125 Q1245.7813,957.7656 1247.375,957.7656 Q1247.9688,957.7656 1248.5938,957.6094 Q1249.2188,957.4531 1250.0469,957.0781 L1250.0469,959.2969 Q1249.3125,959.6094 1248.5156,959.7656 Q1247.7344,959.9219 1246.9688,959.9219 Z "/><text fill="#000000" font-family="sans-serif" font-size="12" lengthAdjust="spacingAndGlyphs" textLength="59" x="1261.5" y="957.656">Presedens</text><line style="stroke: #A80036; stroke-width: 1.5;" x1="1233.5" x2="1322.5" y1="969" y2="969"/><line style="stroke: #A80036; stroke-width: 1.5;" x1="1233.5" x2="1322.5" y1="977" y2="977"/><!--MD5=[accc2bc8fefec3423f2ce91d12f4c41a]
class MoeteOgUtvalgsbehandling.Moetemappe--><rect fill="#FEFECE" filter="url(#fa8sy4ou26b6w)" height="137.8913" id="MoeteOgUtvalgsbehandling.Moetemappe" style="stroke: #A80036; stroke-width: 1.5;" width="227" x="728.5" y="694"/><ellipse cx="800.25" cy="710" fill="#ADD1B2" rx="11" ry="11" style="stroke: #A80036; stroke-width: 1.0;"/><path d="M799.7188,716.9219 Q797.9688,716.9219 796.8281,716.1875 Q795.7031,715.4375 795.1406,714.0938 Q794.5938,712.7344 794.5938,710.9375 Q794.5938,708.9063 795.25,707.4531 Q795.9063,706 797.1875,705.2188 Q798.4688,704.4375 800.3438,704.4375 Q801.2344,704.4375 801.9063,704.625 Q802.5781,704.7969 803.2656,705.1406 L802.4531,707.1563 Q801.8281,706.8438 801.2813,706.7188 Q800.75,706.5938 800.2656,706.5938 Q799.0938,706.5938 798.3906,707.125 Q797.6875,707.6563 797.3906,708.6094 Q797.0938,709.5625 797.0938,710.8281 Q797.0938,712.8438 797.8125,713.8125 Q798.5313,714.7656 800.125,714.7656 Q800.7188,714.7656 801.3438,714.6094 Q801.9688,714.4531 802.7969,714.0781 L802.7969,716.2969 Q802.0625,716.6094 801.2656,716.7656 Q800.4844,716.9219 799.7188,716.9219 Z "/><text fill="#000000" font-family="sans-serif" font-size="12" lengthAdjust="spacingAndGlyphs" textLength="75" x="820.75" y="714.656">Moetemappe</text><line style="stroke: #A80036; stroke-width: 1.5;" x1="729.5" x2="954.5" y1="726" y2="726"/><text fill="#000000" font-family="sans-serif" font-size="11" lengthAdjust="spacingAndGlyphs" textLength="153" x="734.5" y="741.7589">+moetenummer : string [0..1]</text><text fill="#000000" font-family="sans-serif" font-size="11" lengthAdjust="spacingAndGlyphs" textLength="79" x="734.5" y="756.7408">+utvalg : string</text><text fill="#000000" font-family="sans-serif" font-size="11" lengthAdjust="spacingAndGlyphs" textLength="118" x="734.5" y="771.7227">+moetedato : datetime</text><text fill="#000000" font-family="sans-serif" font-size="11" lengthAdjust="spacingAndGlyphs" textLength="130" x="734.5" y="786.7046">+moetested : string [0..1]</text><text fill="#000000" font-family="sans-serif" font-size="11" lengthAdjust="spacingAndGlyphs" textLength="215" x="734.5" y="801.6865">+referanseForrigeMoete : SystemID [0..1]</text><text fill="#000000" font-family="sans-serif" font-size="11" lengthAdjust="spacingAndGlyphs" textLength="205" x="734.5" y="816.6684">+referanseNesteMoete : SystemID [0..1]</text><line style="stroke: #A80036; stroke-width: 1.5;" x1="729.5" x2="954.5" y1="823.8913" y2="823.8913"/><!--MD5=[4da2275cba6d22010c2bc4a73c7ab889]
link Arkivstruktur.Arkivdel to Arkivstruktur.Registrering--><path d="M159.2093,122.1678 C159.2093,122.1678 149.95,416.08 175,589 C182,637.33 197.74,691.51 208.85,726.15 " fill="none" id="Arkivstruktur.Arkivdel-Arkivstruktur.Registrering" style="stroke: #A80036; stroke-width: 1.0;"/><polygon fill="#A80036" points="213,738.85,214.0032,729.0524,211.4453,734.0979,206.3998,731.54,213,738.85" style="stroke: #A80036; stroke-width: 1.0;"/><line style="stroke: #A80036; stroke-width: 1.0;" x1="211.4453" x2="208.965" y1="734.0979" y2="726.495"/><polygon fill="#FFFFFF" points="159.75,110.18,155.4837,115.9937,159.2093,122.1678,163.4756,116.3541,159.75,110.18" style="stroke: #A80036; stroke-width: 1.0;"/><text fill="#000000" font-family="sans-serif" font-size="13" lengthAdjust="spacingAndGlyphs" textLength="77" x="73.5578" y="131.7159">+arkivdel 0..1</text><text fill="#000000" font-family="sans-serif" font-size="13" lengthAdjust="spacingAndGlyphs" textLength="100" x="224.2875" y="727.0672">+registrering 0..*</text><!--MD5=[fd287b6a3f6d6778f7ec3740783eb550]
link Arkivstruktur.Klasse to Arkivstruktur.Klasse--><path d="M572.8482,56.3762 C572.8482,56.3762 772.5,25.06 772.5,86 C772.5,146.94 658.92,157.01 573.97,116.21 " fill="none" id="Arkivstruktur.Klasse-Arkivstruktur.Klasse" style="stroke: #A80036; stroke-width: 1.0;"/><polygon fill="#A80036" points="562.19,110.11,568.3457,117.7981,566.6309,112.4074,572.0216,110.6926,562.19,110.11" style="stroke: #A80036; stroke-width: 1.0;"/><line style="stroke: #A80036; stroke-width: 1.0;" x1="566.6309" x2="573.74" y1="112.4074" y2="116.09"/><polygon fill="#FFFFFF" points="562.19,61.89,569.3571,62.6859,572.8482,56.3762,565.6812,55.5804,562.19,61.89" style="stroke: #A80036; stroke-width: 1.0;"/><text fill="#000000" font-family="sans-serif" font-size="13" lengthAdjust="spacingAndGlyphs" textLength="93" x="465.8817" y="50.1179">+overklasse 0..1</text><text fill="#000000" font-family="sans-serif" font-size="13" lengthAdjust="spacingAndGlyphs" textLength="102" x="582.9551" y="132.0417">+underklasse 0..*</text><!--MD5=[28a2ceb9e6940c79255ac7d60562a8c2]
link Arkivstruktur.Klasse to Arkivstruktur.Registrering--><path d="M451.5097,96.8463 C451.5097,96.8463 345.69,128.18 312,170 C242.32,256.47 225.57,610.76 221.93,725.76 " fill="none" id="Arkivstruktur.Klasse-Arkivstruktur.Registrering" style="stroke: #A80036; stroke-width: 1.0;"/><polygon fill="#A80036" points="221.54,738.87,225.8054,729.9927,221.6884,733.8722,217.809,729.7552,221.54,738.87" style="stroke: #A80036; stroke-width: 1.0;"/><line style="stroke: #A80036; stroke-width: 1.0;" x1="221.6884" x2="221.925" y1="733.8722" y2="725.875"/><polygon fill="#FFFFFF" points="463.27,94.46,456.5944,91.7331,451.5097,96.8463,458.1853,99.5733,463.27,94.46" style="stroke: #A80036; stroke-width: 1.0;"/><text fill="#000000" font-family="sans-serif" font-size="13" lengthAdjust="spacingAndGlyphs" textLength="66" x="389.4821" y="91.382">+klasse 0..1</text><text fill="#000000" font-family="sans-serif" font-size="13" lengthAdjust="spacingAndGlyphs" textLength="100" x="108.2476" y="727.0926">+registrering 0..*</text><!--MD5=[103e55f9778739f9d4b7631e3f306756]
link Arkivstruktur.Arkivdel to Arkivstruktur.Mappe--><path d="M199.4987,117.5809 C199.4987,117.5809 323.61,216.16 391.87,270.38 " fill="none" id="Arkivstruktur.Arkivdel-Arkivstruktur.Mappe" style="stroke: #A80036; stroke-width: 1.0;"/><polygon fill="#A80036" points="402.3,278.66,397.738,269.9314,398.3839,275.5513,392.764,276.1972,402.3,278.66" style="stroke: #A80036; stroke-width: 1.0;"/><line style="stroke: #A80036; stroke-width: 1.0;" x1="398.3839" x2="392.12" y1="275.5513" y2="270.575"/><polygon fill="#FFFFFF" points="190.1,110.12,192.3124,116.9833,199.4987,117.5809,197.2863,110.7176,190.1,110.12" style="stroke: #A80036; stroke-width: 1.0;"/><text fill="#000000" font-family="sans-serif" font-size="13" lengthAdjust="spacingAndGlyphs" textLength="77" x="206.5775" y="132.0542">+arkivdel 0..1</text><text fill="#000000" font-family="sans-serif" font-size="13" lengthAdjust="spacingAndGlyphs" textLength="72" x="322.4677" y="270.2889">+mappe 0..*</text><!--MD5=[6ad31a2a544e3c283a56919386d2c114]
link Arkivstruktur.Klasse to Arkivstruktur.Mappe--><path d="M528,122.36 C528,122.36 528,144.53 528,156.83 " fill="none" id="Arkivstruktur.Klasse-Arkivstruktur.Mappe" style="stroke: #A80036; stroke-width: 1.0;"/><polygon fill="#A80036" points="528,169.98,532,160.98,528,164.98,524,160.98,528,169.98" style="stroke: #A80036; stroke-width: 1.0;"/><line style="stroke: #A80036; stroke-width: 1.0;" x1="528" x2="528" y1="164.98" y2="156.98"/><polygon fill="#FFFFFF" points="528,110.36,524,116.36,528,122.36,532,116.36,528,110.36" style="stroke: #A80036; stroke-width: 1.0;"/><text fill="#000000" font-family="sans-serif" font-size="13" lengthAdjust="spacingAndGlyphs" textLength="66" x="454.3688" y="131.9375">+klasse 0..1</text><text fill="#000000" font-family="sans-serif" font-size="13" lengthAdjust="spacingAndGlyphs" textLength="72" x="454.5938" y="158.3832">+mappe 0..*</text><!--MD5=[90bba1ef23cd550ab1e67c0246273f7a]
link Arkivstruktur.Klasse to Sakarkiv.Saksmappe--><path d="M605.42,103.93 C653.11,116.85 713.93,137.97 761,170 C946.71,296.39 1199.1475,638.9869 1199.1475,638.9869 " fill="none" id="Arkivstruktur.Klasse-Sakarkiv.Saksmappe" style="stroke: #A80036; stroke-width: 1.0;"/><polygon fill="#FFFFFF" points="1205.91,648.9,1205.8331,641.6893,1199.1475,638.9869,1199.2244,646.1976,1205.91,648.9" style="stroke: #A80036; stroke-width: 1.0;"/><polygon fill="#A80036" points="592.65,100.59,600.3412,106.7419,597.4865,101.8581,602.3702,99.0034,592.65,100.59" style="stroke: #A80036; stroke-width: 1.0;"/><line style="stroke: #A80036; stroke-width: 1.0;" x1="597.4865" x2="605.225" y1="101.8581" y2="103.885"/><text fill="#000000" font-family="sans-serif" font-size="13" lengthAdjust="spacingAndGlyphs" textLength="171" x="600.3921" y="97.8192">+sekundaerklassifikasjon 0..*</text><!--MD5=[6097d0687047132a233d92935ace3f8b]
link Arkivstruktur.Mappe to Arkivstruktur.Mappe--><path d="M665.369,328.7421 C665.369,328.7421 833.5,333.34 833.5,379.5 C833.5,425.66 752.08,442.63 666.45,430.42 " fill="none" id="Arkivstruktur.Mappe-Arkivstruktur.Mappe" style="stroke: #A80036; stroke-width: 1.0;"/><polygon fill="#A80036" points="653.52,428.36,661.7741,433.7331,658.4571,429.1508,663.0394,425.8338,653.52,428.36" style="stroke: #A80036; stroke-width: 1.0;"/><line style="stroke: #A80036; stroke-width: 1.0;" x1="658.4571" x2="666.36" y1="429.1508" y2="430.405"/><polygon fill="#FFFFFF" points="653.52,330.64,660.0771,333.6407,665.369,328.7421,658.8118,325.7414,653.52,330.64" style="stroke: #A80036; stroke-width: 1.0;"/><text fill="#000000" font-family="sans-serif" font-size="13" lengthAdjust="spacingAndGlyphs" textLength="99" x="661.4506" y="324.9641">+overmappe 0..1</text><text fill="#000000" font-family="sans-serif" font-size="13" lengthAdjust="spacingAndGlyphs" textLength="108" x="661.6545" y="427.1121">+undermappe 0..*</text><!--MD5=[b06f07ca829b4fead78a2f1a47f4b1ee]
link Arkivstruktur.Mappe to Arkivstruktur.Registrering--><path d="M394.9432,545.8459 C394.9432,545.8459 280.87,687.6 247.89,728.58 " fill="none" id="Arkivstruktur.Mappe-Arkivstruktur.Registrering" style="stroke: #A80036; stroke-width: 1.0;"/><polygon fill="#A80036" points="239.68,738.79,248.4366,734.282,242.8129,734.8932,242.2017,729.2694,239.68,738.79" style="stroke: #A80036; stroke-width: 1.0;"/><line style="stroke: #A80036; stroke-width: 1.0;" x1="242.8129" x2="247.825" y1="734.8932" y2="728.66"/><polygon fill="#FFFFFF" points="402.47,536.5,395.5913,538.664,394.9432,545.8459,401.8219,543.6819,402.47,536.5" style="stroke: #A80036; stroke-width: 1.0;"/><text fill="#000000" font-family="sans-serif" font-size="13" lengthAdjust="spacingAndGlyphs" textLength="72" x="322.6459" y="540.618">+mappe 0..1</text><text fill="#000000" font-family="sans-serif" font-size="13" lengthAdjust="spacingAndGlyphs" textLength="100" x="310.077" y="736.9461">+registrering 0..*</text><!--MD5=[cfbd302bfd70298b1a7c25aed917507f]
link Sakarkiv.Saksmappe to Sakarkiv.Presedens--><path d="M1278,889.16 C1278,889.16 1278,913.89 1278,923.9 " fill="none" id="Sakarkiv.Saksmappe-Sakarkiv.Presedens" style="stroke: #A80036; stroke-width: 1.0;"/><polygon fill="#A80036" points="1278,936.99,1282,927.99,1278,931.99,1274,927.99,1278,936.99" style="stroke: #A80036; stroke-width: 1.0;"/><line style="stroke: #A80036; stroke-width: 1.0;" x1="1278" x2="1278" y1="931.99" y2="923.99"/><polygon fill="#FFFFFF" points="1278,877.16,1274,883.16,1278,889.16,1282,883.16,1278,877.16" style="stroke: #A80036; stroke-width: 1.0;"/><text fill="#000000" font-family="sans-serif" font-size="13" lengthAdjust="spacingAndGlyphs" textLength="50" x="1226.4766" y="898.5597">+sak 0..*</text><text fill="#000000" font-family="sans-serif" font-size="13" lengthAdjust="spacingAndGlyphs" textLength="92" x="1173.6375" y="925.2448">+presedens 0..*</text><!--MD5=[e0018cf9e229c618f5d941e2b4482152]
reverse link Arkivstruktur.Mappe to Sakarkiv.Saksmappe--><path d="M671.67,450.2 C758.62,491.74 872.04,544.82 974,589 C989.37,595.66 993.97,595.6 1009,603 C1051.11,623.71 1095.47,648.58 1135.76,672.43 " fill="none" id="Arkivstruktur.Mappe&lt;-Sakarkiv.Saksmappe" style="stroke: #A80036; stroke-width: 1.0;"/><polygon fill="none" points="668.55,456.46,653.53,441.51,674.6,443.84,668.55,456.46" style="stroke: #A80036; stroke-width: 1.0;"/><!--MD5=[55d344606c4e7981cb0806b50e5ff924]
reverse link Arkivstruktur.Mappe to MoeteOgUtvalgsbehandling.Moetemappe--><path d="M666.84,534.78 C686.34,557.4 705.89,580.62 724,603 C747.57,632.13 772.46,665.28 793.27,693.74 " fill="none" id="Arkivstruktur.Mappe&lt;-MoeteOgUtvalgsbehandling.Moetemappe" style="stroke: #A80036; stroke-width: 1.0;"/><polygon fill="none" points="661.52,539.32,653.71,519.62,672.1,530.15,661.52,539.32" style="stroke: #A80036; stroke-width: 1.0;"/><!--MD5=[a55dad5e191b9e869892596278cf47a7]
@startuml
skinparam classAttributeIconSize 0
skinparam nodesep 180

class Arkivstruktur.Klasse <Arkivenhet>
class Arkivstruktur.Arkivdel <Arkivenhet>
class Sakarkiv.Saksmappe <Mappe> {
  +saksaar : integer [0..1] [1..1]
  +sakssekvensnummer : integer [0..1] [1..1]
  +saksdato : datetime [0..1] [1..1]
  +administrativEnhet : string [0..1] [1..1]
  +referanseAdministrativEnhet : SystemID [0..1] [1..1]
  +saksansvarlig : string [0..1] [1..1]
  +referanseSaksansvarlig : SystemID [0..1] [1..1]
  +journalenhet : string [0..1] [1..1]
  +saksstatus : Saksstatus [0..1] [1..1]
  +utlaantDato : datetime [0..1]
  +utlaantTil : string [0..1]
  +referanseUtlaantTil : SystemID [0..1]
}
class Arkivstruktur.Mappe <Arkivenhet> {
  +mappeID : string [0..1]
  +mappetype : Mappetype [0..1]
  +tittel : string
  +offentligTittel : string [0..1]
  +beskrivelse : string [0..1]
  +noekkelord : string [0..*]
  +dokumentmedium : Dokumentmedium [0..1]
  +oppbevaringssted : string [0..*]
  +avsluttetDato : datetime [0..1]
  +avsluttetAv : string [0..1]
  +referanseAvsluttetAv : SystemID [0..1]
  +kassasjon : Kassasjon [0..1]
  +skjerming : Skjerming [0..1]
  +gradering : Gradering [0..1]
  +referanseForelderMappe : SystemID [0..1]
  +virksomhetsspesifikkeMetadata : any [0..1]

  - -Arkivenhet- -
  +systemID : SystemID [0..1]
  +endretDato : datetime [0..1]
  +opprettetDato : datetime [0..1]
  +opprettetAv : string [0..1]
  +endretAv : string [0..1]
  +referanseOppdatertAv : SystemID [0..1]
  +referanseOpprettetAv : SystemID [0..1]
}
class Sakarkiv.Presedens
class Arkivstruktur.Registrering <Arkivenhet>
class MoeteOgUtvalgsbehandling.Moetemappe {
  +moetenummer : string [0..1]
  +utvalg : string
  +moetedato : datetime
  +moetested : string [0..1]
  +referanseForrigeMoete : SystemID [0..1]
  +referanseNesteMoete : SystemID [0..1]
}

Arkivstruktur.Arkivdel "+arkivdel 0..1" o- -> "+registrering 0..*" Arkivstruktur.Registrering
Arkivstruktur.Klasse "+overklasse 0..1" o- -> "+underklasse 0..*" Arkivstruktur.Klasse
Arkivstruktur.Klasse "+klasse 0..1" o- -> "+registrering 0..*" Arkivstruktur.Registrering
Arkivstruktur.Arkivdel "+arkivdel 0..1" o- -> "+mappe 0..*" Arkivstruktur.Mappe
Arkivstruktur.Klasse "+klasse 0..1" o- -> "+mappe 0..*" Arkivstruktur.Mappe
Arkivstruktur.Klasse "+sekundaerklassifikasjon 0..*" <- -o Sakarkiv.Saksmappe
Arkivstruktur.Mappe "+overmappe 0..1" o- -> "+undermappe 0..*" Arkivstruktur.Mappe
Arkivstruktur.Mappe "+mappe 0..1" o- -> "+registrering 0..*" Arkivstruktur.Registrering
Sakarkiv.Saksmappe "+sak 0..*" o- -> "+presedens 0..*" Sakarkiv.Presedens
Arkivstruktur.Mappe <|- - Sakarkiv.Saksmappe
Arkivstruktur.Mappe <|- - MoeteOgUtvalgsbehandling.Moetemappe

@enduml

PlantUML version 1.2020.02(Sun Mar 01 11:22:07 CET 2020)
(GPL source distribution)
Java Runtime: OpenJDK Runtime Environment
JVM: OpenJDK 64-Bit Server VM
Java Version: 17.0.6+10-Debian-1
Operating System: Linux
Default Encoding: UTF-8
Language: en
Country: US
--></g></svg>