<?xml version="1.0" encoding="UTF-8" standalone="no"?><svg xmlns="http://www.w3.org/2000/svg" xmlns:xlink="http://www.w3.org/1999/xlink" contentScriptType="application/ecmascript" contentStyleType="text/css" height="837px" preserveAspectRatio="none" style="width:551px;height:837px;" version="1.1" viewBox="0 0 551 837" width="551px" zoomAndPan="magnify"><defs><filter height="300%" id="fzv7mj2yg3co0" width="300%" x="-1" y="-1"><feGaussianBlur result="blurOut" stdDeviation="2.0"/><feColorMatrix in="blurOut" result="blurOut2" type="matrix" values="0 0 0 0 0 0 0 0 0 0 0 0 0 0 0 0 0 0 .4 0"/><feOffset dx="4.0" dy="4.0" in="blurOut2" result="blurOut3"/><feBlend in="SourceGraphic" in2="blurOut3" mode="normal"/></filter></defs><g><!--MD5=[232c485b1f52e07d9ce0910f7499e2a6]
cluster Arkivstruktur--><polygon fill="#FFFFFF" filter="url(#fzv7mj2yg3co0)" points="22,24,123,24,130,49.0679,458,49.0679,458,825,22,825,22,24" style="stroke: #000000; stroke-width: 1.5;"/><line style="stroke: #000000; stroke-width: 1.5;" x1="22" x2="130" y1="49.0679" y2="49.0679"/><text fill="#000000" font-family="sans-serif" font-size="14" font-weight="bold" lengthAdjust="spacingAndGlyphs" textLength="95" x="26" y="40.9659">Arkivstruktur</text><!--MD5=[73df33951f5eee41985998203ae583aa]
class Arkivstruktur.Klasse--><rect fill="#FEFECE" filter="url(#fzv7mj2yg3co0)" height="197.8189" id="Arkivstruktur.Klasse" style="stroke: #A80036; stroke-width: 1.5;" width="214" x="81" y="278"/><ellipse cx="135.25" cy="294" fill="#ADD1B2" rx="11" ry="11" style="stroke: #A80036; stroke-width: 1.0;"/><path d="M134.7188,300.9219 Q132.9688,300.9219 131.8281,300.1875 Q130.7031,299.4375 130.1406,298.0938 Q129.5938,296.7344 129.5938,294.9375 Q129.5938,292.9063 130.25,291.4531 Q130.9063,290 132.1875,289.2188 Q133.4688,288.4375 135.3438,288.4375 Q136.2344,288.4375 136.9063,288.625 Q137.5781,288.7969 138.2656,289.1406 L137.4531,291.1563 Q136.8281,290.8438 136.2813,290.7188 Q135.75,290.5938 135.2656,290.5938 Q134.0938,290.5938 133.3906,291.125 Q132.6875,291.6563 132.3906,292.6094 Q132.0938,293.5625 132.0938,294.8281 Q132.0938,296.8438 132.8125,297.8125 Q133.5313,298.7656 135.125,298.7656 Q135.7188,298.7656 136.3438,298.6094 Q136.9688,298.4531 137.7969,298.0781 L137.7969,300.2969 Q137.0625,300.6094 136.2656,300.7656 Q135.4844,300.9219 134.7188,300.9219 Z "/><text fill="#000000" font-family="sans-serif" font-size="12" lengthAdjust="spacingAndGlyphs" textLength="36" x="155.75" y="298.656">Klasse</text><rect fill="#FFFFFF" height="18.3441" style="stroke: #000000; stroke-width: 1.0; stroke-dasharray: 2.0,2.0;" width="59" x="239" y="275"/><text fill="#000000" font-family="sans-serif" font-size="12" font-style="italic" lengthAdjust="spacingAndGlyphs" textLength="57" x="240" y="288.8281">Arkivenhet</text><line style="stroke: #A80036; stroke-width: 1.5;" x1="82" x2="294" y1="310" y2="310"/><text fill="#000000" font-family="sans-serif" font-size="11" lengthAdjust="spacingAndGlyphs" textLength="89" x="87" y="325.7589">+klasseID : string</text><text fill="#000000" font-family="sans-serif" font-size="11" lengthAdjust="spacingAndGlyphs" textLength="70" x="87" y="340.7408">+tittel : string</text><text fill="#000000" font-family="sans-serif" font-size="11" lengthAdjust="spacingAndGlyphs" textLength="133" x="87" y="355.7227">+beskrivelse : string [0..1]</text><text fill="#000000" font-family="sans-serif" font-size="11" lengthAdjust="spacingAndGlyphs" textLength="135" x="87" y="370.7046">+noekkelord : string [0..*]</text><text fill="#000000" font-family="sans-serif" font-size="11" lengthAdjust="spacingAndGlyphs" textLength="160" x="87" y="385.6865">+avsluttetDato : datetime [0..1]</text><text fill="#000000" font-family="sans-serif" font-size="11" lengthAdjust="spacingAndGlyphs" textLength="133" x="87" y="400.6684">+avsluttetAv : string [0..1]</text><text fill="#000000" font-family="sans-serif" font-size="11" lengthAdjust="spacingAndGlyphs" textLength="202" x="87" y="415.6502">+referanseAvsluttetAv : SystemID [0..1]</text><text fill="#000000" font-family="sans-serif" font-size="11" lengthAdjust="spacingAndGlyphs" textLength="149" x="87" y="430.6321">+skjerming : Skjerming [0..1]</text><text fill="#000000" font-family="sans-serif" font-size="11" lengthAdjust="spacingAndGlyphs" textLength="145" x="87" y="445.614">+kassasjon : Kassasjon [0..1]</text><text fill="#000000" font-family="sans-serif" font-size="11" lengthAdjust="spacingAndGlyphs" textLength="151" x="87" y="460.5959">+gradering : Gradering [0..1]</text><line style="stroke: #A80036; stroke-width: 1.5;" x1="82" x2="294" y1="467.8189" y2="467.8189"/><!--MD5=[7ac5167187dc7f1acc74fcb89e1dc205]
class Arkivstruktur.Mappe--><rect fill="#FEFECE" filter="url(#fzv7mj2yg3co0)" height="272.7283" id="Arkivstruktur.Mappe" style="stroke: #A80036; stroke-width: 1.5;" width="385" x="38.5" y="536"/><ellipse cx="176.75" cy="552" fill="#ADD1B2" rx="11" ry="11" style="stroke: #A80036; stroke-width: 1.0;"/><path d="M176.2188,558.9219 Q174.4688,558.9219 173.3281,558.1875 Q172.2031,557.4375 171.6406,556.0938 Q171.0938,554.7344 171.0938,552.9375 Q171.0938,550.9063 171.75,549.4531 Q172.4063,548 173.6875,547.2188 Q174.9688,546.4375 176.8438,546.4375 Q177.7344,546.4375 178.4063,546.625 Q179.0781,546.7969 179.7656,547.1406 L178.9531,549.1563 Q178.3281,548.8438 177.7813,548.7188 Q177.25,548.5938 176.7656,548.5938 Q175.5938,548.5938 174.8906,549.125 Q174.1875,549.6563 173.8906,550.6094 Q173.5938,551.5625 173.5938,552.8281 Q173.5938,554.8438 174.3125,555.8125 Q175.0313,556.7656 176.625,556.7656 Q177.2188,556.7656 177.8438,556.6094 Q178.4688,556.4531 179.2969,556.0781 L179.2969,558.2969 Q178.5625,558.6094 177.7656,558.7656 Q176.9844,558.9219 176.2188,558.9219 Z "/><text fill="#000000" font-family="sans-serif" font-size="12" lengthAdjust="spacingAndGlyphs" textLength="39" x="197.25" y="556.656">Mappe</text><rect fill="#FFFFFF" height="18.3441" style="stroke: #000000; stroke-width: 1.0; stroke-dasharray: 2.0,2.0;" width="59" x="367.5" y="533"/><text fill="#000000" font-family="sans-serif" font-size="12" font-style="italic" lengthAdjust="spacingAndGlyphs" textLength="57" x="368.5" y="546.8281">Arkivenhet</text><line style="stroke: #A80036; stroke-width: 1.5;" x1="39.5" x2="422.5" y1="568" y2="568"/><text fill="#000000" font-family="sans-serif" font-size="11" lengthAdjust="spacingAndGlyphs" textLength="152" x="44.5" y="583.7589">+mappeID : string [0..1] [1..1]</text><text fill="#000000" font-family="sans-serif" font-size="11" lengthAdjust="spacingAndGlyphs" textLength="70" x="44.5" y="598.7408">+tittel : string</text><text fill="#000000" font-family="sans-serif" font-size="11" lengthAdjust="spacingAndGlyphs" textLength="146" x="44.5" y="613.7227">+offentligTittel : string [0..1]</text><text fill="#000000" font-family="sans-serif" font-size="11" lengthAdjust="spacingAndGlyphs" textLength="133" x="44.5" y="628.7046">+beskrivelse : string [0..1]</text><text fill="#000000" font-family="sans-serif" font-size="11" lengthAdjust="spacingAndGlyphs" textLength="135" x="44.5" y="643.6865">+noekkelord : string [0..*]</text><text fill="#000000" font-family="sans-serif" font-size="11" lengthAdjust="spacingAndGlyphs" textLength="268" x="44.5" y="658.6684">+dokumentmedium : Dokumentmedium [0..1] [1..1]</text><text fill="#000000" font-family="sans-serif" font-size="11" lengthAdjust="spacingAndGlyphs" textLength="170" x="44.5" y="673.6502">+oppbevaringssted : string [0..*]</text><text fill="#000000" font-family="sans-serif" font-size="11" lengthAdjust="spacingAndGlyphs" textLength="160" x="44.5" y="688.6321">+avsluttetDato : datetime [0..1]</text><text fill="#000000" font-family="sans-serif" font-size="11" lengthAdjust="spacingAndGlyphs" textLength="133" x="44.5" y="703.614">+avsluttetAv : string [0..1]</text><text fill="#000000" font-family="sans-serif" font-size="11" lengthAdjust="spacingAndGlyphs" textLength="202" x="44.5" y="718.5959">+referanseAvsluttetAv : SystemID [0..1]</text><text fill="#000000" font-family="sans-serif" font-size="11" lengthAdjust="spacingAndGlyphs" textLength="145" x="44.5" y="733.5778">+kassasjon : Kassasjon [0..1]</text><text fill="#000000" font-family="sans-serif" font-size="11" lengthAdjust="spacingAndGlyphs" textLength="149" x="44.5" y="748.5597">+skjerming : Skjerming [0..1]</text><text fill="#000000" font-family="sans-serif" font-size="11" lengthAdjust="spacingAndGlyphs" textLength="151" x="44.5" y="763.5416">+gradering : Gradering [0..1]</text><text fill="#000000" font-family="sans-serif" font-size="11" lengthAdjust="spacingAndGlyphs" textLength="224" x="44.5" y="778.5235">+referanseForelderMappe : SystemID [0..1]</text><text fill="#000000" font-family="sans-serif" font-size="11" lengthAdjust="spacingAndGlyphs" textLength="373" x="44.5" y="793.5053">+virksomhetsspesifikkeMetadata : VirksomhetsspesifikkeMetadata [0..1]</text><line style="stroke: #A80036; stroke-width: 1.5;" x1="39.5" x2="422.5" y1="800.7283" y2="800.7283"/><!--MD5=[789c1e76f3fd06e52ddfd1f5832ec9f2]
class Arkivstruktur.Kryssreferanse--><rect fill="#FEFECE" filter="url(#fzv7mj2yg3co0)" height="48" id="Arkivstruktur.Kryssreferanse" style="stroke: #A80036; stroke-width: 1.5;" width="178" x="179" y="170"/><ellipse cx="194" cy="186" fill="#ADD1B2" rx="11" ry="11" style="stroke: #A80036; stroke-width: 1.0;"/><path d="M193.4688,192.9219 Q191.7188,192.9219 190.5781,192.1875 Q189.4531,191.4375 188.8906,190.0938 Q188.3438,188.7344 188.3438,186.9375 Q188.3438,184.9063 189,183.4531 Q189.6563,182 190.9375,181.2188 Q192.2188,180.4375 194.0938,180.4375 Q194.9844,180.4375 195.6563,180.625 Q196.3281,180.7969 197.0156,181.1406 L196.2031,183.1563 Q195.5781,182.8438 195.0313,182.7188 Q194.5,182.5938 194.0156,182.5938 Q192.8438,182.5938 192.1406,183.125 Q191.4375,183.6563 191.1406,184.6094 Q190.8438,185.5625 190.8438,186.8281 Q190.8438,188.8438 191.5625,189.8125 Q192.2813,190.7656 193.875,190.7656 Q194.4688,190.7656 195.0938,190.6094 Q195.7188,190.4531 196.5469,190.0781 L196.5469,192.2969 Q195.8125,192.6094 195.0156,192.7656 Q194.2344,192.9219 193.4688,192.9219 Z "/><text fill="#000000" font-family="sans-serif" font-size="12" lengthAdjust="spacingAndGlyphs" textLength="85" x="208" y="190.656">Kryssreferanse</text><rect fill="#FFFFFF" height="18.3441" style="stroke: #000000; stroke-width: 1.0; stroke-dasharray: 2.0,2.0;" width="59" x="301" y="167"/><text fill="#000000" font-family="sans-serif" font-size="12" font-style="italic" lengthAdjust="spacingAndGlyphs" textLength="57" x="302" y="180.8281">Arkivenhet</text><line style="stroke: #A80036; stroke-width: 1.5;" x1="180" x2="356" y1="202" y2="202"/><line style="stroke: #A80036; stroke-width: 1.5;" x1="180" x2="356" y1="210" y2="210"/><!--MD5=[5eeb008ce2ba569ad4cb3c09c2ca4370]
class Arkivstruktur.Registrering--><rect fill="#FEFECE" filter="url(#fzv7mj2yg3co0)" height="48" id="Arkivstruktur.Registrering" style="stroke: #A80036; stroke-width: 1.5;" width="100" x="218" y="62"/><ellipse cx="233" cy="78" fill="#ADD1B2" rx="11" ry="11" style="stroke: #A80036; stroke-width: 1.0;"/><path d="M232.4688,84.9219 Q230.7188,84.9219 229.5781,84.1875 Q228.4531,83.4375 227.8906,82.0938 Q227.3438,80.7344 227.3438,78.9375 Q227.3438,76.9063 228,75.4531 Q228.6563,74 229.9375,73.2188 Q231.2188,72.4375 233.0938,72.4375 Q233.9844,72.4375 234.6563,72.625 Q235.3281,72.7969 236.0156,73.1406 L235.2031,75.1563 Q234.5781,74.8438 234.0313,74.7188 Q233.5,74.5938 233.0156,74.5938 Q231.8438,74.5938 231.1406,75.125 Q230.4375,75.6563 230.1406,76.6094 Q229.8438,77.5625 229.8438,78.8281 Q229.8438,80.8438 230.5625,81.8125 Q231.2813,82.7656 232.875,82.7656 Q233.4688,82.7656 234.0938,82.6094 Q234.7188,82.4531 235.5469,82.0781 L235.5469,84.2969 Q234.8125,84.6094 234.0156,84.7656 Q233.2344,84.9219 232.4688,84.9219 Z "/><text fill="#000000" font-family="sans-serif" font-size="12" lengthAdjust="spacingAndGlyphs" textLength="68" x="247" y="82.656">Registrering</text><line style="stroke: #A80036; stroke-width: 1.5;" x1="219" x2="317" y1="94" y2="94"/><line style="stroke: #A80036; stroke-width: 1.5;" x1="219" x2="317" y1="102" y2="102"/><!--MD5=[491381fb8028db50b20b3ecc2cfde209]
link Arkivstruktur.Registrering to Arkivstruktur.Kryssreferanse--><path d="M268,115.13 C268,130.42 268,149.29 268,164.62 " fill="none" id="Arkivstruktur.Registrering-Arkivstruktur.Kryssreferanse" style="stroke: #A80036; stroke-width: 1.0;"/><polygon fill="#A80036" points="268,169.68,272,160.68,268,164.68,264,160.68,268,169.68" style="stroke: #A80036; stroke-width: 1.0;"/><polygon fill="#A80036" points="268,110,264,119,268,115,272,119,268,110" style="stroke: #A80036; stroke-width: 1.0;"/><text fill="#000000" font-family="sans-serif" font-size="13" lengthAdjust="spacingAndGlyphs" textLength="100" x="155.8125" y="131.9049">+registrering 0..1</text><text fill="#000000" font-family="sans-serif" font-size="13" lengthAdjust="spacingAndGlyphs" textLength="117" x="136.0094" y="158.2573">+kryssreferanse 0..*</text><!--MD5=[d54cf1b711f1edfdf7bbd9166d819385]
link Arkivstruktur.Kryssreferanse to Arkivstruktur.Mappe--><path d="M295.73,222 C309.18,237.05 323.93,256.98 331,278 C359.07,361.4 351.61,390.45 331,476 C326.59,494.29 320.17,512.8 312.67,530.76 " fill="none" id="Arkivstruktur.Kryssreferanse-Arkivstruktur.Mappe" style="stroke: #A80036; stroke-width: 1.0;"/><polygon fill="#A80036" points="310.52,535.81,317.7242,529.0944,312.4775,531.2091,310.3628,525.9624,310.52,535.81" style="stroke: #A80036; stroke-width: 1.0;"/><polygon fill="#A80036" points="292.34,218.28,295.4253,227.6331,295.6998,221.9829,301.35,222.2574,292.34,218.28" style="stroke: #A80036; stroke-width: 1.0;"/><text fill="#000000" font-family="sans-serif" font-size="13" lengthAdjust="spacingAndGlyphs" textLength="117" x="311.4967" y="239.839">+kryssreferanse 0..*</text><text fill="#000000" font-family="sans-serif" font-size="13" lengthAdjust="spacingAndGlyphs" textLength="72" x="241.036" y="524.3415">+mappe 0..1</text><!--MD5=[a3b7687ad30b799f234f5cf5e0badc91]
link Arkivstruktur.Kryssreferanse to Arkivstruktur.Klasse--><path d="M255.53,223.22 C249.4,237.08 241.6,254.74 233.49,273.08 " fill="none" id="Arkivstruktur.Kryssreferanse-Arkivstruktur.Klasse" style="stroke: #A80036; stroke-width: 1.0;"/><polygon fill="#A80036" points="231.42,277.76,238.7094,271.1369,233.4361,273.1845,231.3885,267.9112,231.42,277.76" style="stroke: #A80036; stroke-width: 1.0;"/><polygon fill="#A80036" points="257.71,218.29,250.4206,224.9131,255.6939,222.8655,257.7415,228.1388,257.71,218.29" style="stroke: #A80036; stroke-width: 1.0;"/><text fill="#000000" font-family="sans-serif" font-size="13" lengthAdjust="spacingAndGlyphs" textLength="117" x="124.8023" y="239.8513">+kryssreferanse 0..*</text><text fill="#000000" font-family="sans-serif" font-size="13" lengthAdjust="spacingAndGlyphs" textLength="66" x="166.2503" y="266.1068">+klasse 0..1</text><!--MD5=[fd287b6a3f6d6778f7ec3740783eb550]
link Arkivstruktur.Klasse to Arkivstruktur.Klasse--><path d="M306.6603,347.8345 C306.6603,347.8345 330,363.25 330,377 C330,390.75 321.36,400.34 307.99,405.78 " fill="none" id="Arkivstruktur.Klasse-Arkivstruktur.Klasse" style="stroke: #A80036; stroke-width: 1.0;"/><polygon fill="#A80036" points="295.13,409.49,304.8859,410.84,299.9343,408.1048,302.6695,403.1532,295.13,409.49" style="stroke: #A80036; stroke-width: 1.0;"/><line style="stroke: #A80036; stroke-width: 1.0;" x1="299.9343" x2="307.62" y1="408.1048" y2="405.89"/><polygon fill="#FFFFFF" points="295.13,344.51,299.787,350.0157,306.6603,347.8345,302.0033,342.3288,295.13,344.51" style="stroke: #A80036; stroke-width: 1.0;"/><text fill="#000000" font-family="sans-serif" font-size="13" lengthAdjust="spacingAndGlyphs" textLength="93" x="303.0515" y="339.3163">+overklasse 0..1</text><text fill="#000000" font-family="sans-serif" font-size="13" lengthAdjust="spacingAndGlyphs" textLength="102" x="302.7894" y="407.5705">+underklasse 0..*</text><!--MD5=[6097d0687047132a233d92935ace3f8b]
link Arkivstruktur.Mappe to Arkivstruktur.Mappe--><path d="M434.1882,631.6438 C434.1882,631.6438 458.5,654.88 458.5,672.5 C458.5,690.12 449.79,703.51 435.49,712.68 " fill="none" id="Arkivstruktur.Mappe-Arkivstruktur.Mappe" style="stroke: #A80036; stroke-width: 1.0;"/><polygon fill="#A80036" points="423.53,718.87,433.3616,718.2874,427.9709,716.5726,429.6857,711.1819,423.53,718.87" style="stroke: #A80036; stroke-width: 1.0;"/><line style="stroke: #A80036; stroke-width: 1.0;" x1="427.9709" x2="435.07" y1="716.5726" y2="712.9"/><polygon fill="#FFFFFF" points="423.53,626.13,427.0212,632.4396,434.1882,631.6438,430.6971,625.3341,423.53,626.13" style="stroke: #A80036; stroke-width: 1.0;"/><text fill="#000000" font-family="sans-serif" font-size="13" lengthAdjust="spacingAndGlyphs" textLength="99" x="431.4716" y="621.2426">+overmappe 0..1</text><text fill="#000000" font-family="sans-serif" font-size="13" lengthAdjust="spacingAndGlyphs" textLength="108" x="431.6193" y="717.0257">+undermappe 0..*</text><!--MD5=[6ad31a2a544e3c283a56919386d2c114]
link Arkivstruktur.Klasse to Arkivstruktur.Mappe--><path d="M204.1214,488.013 C204.1214,488.013 207.55,511.47 209.2,522.68 " fill="none" id="Arkivstruktur.Klasse-Arkivstruktur.Mappe" style="stroke: #A80036; stroke-width: 1.0;"/><polygon fill="#A80036" points="211.13,535.85,213.7816,526.3648,210.4044,530.9029,205.8663,527.5257,211.13,535.85" style="stroke: #A80036; stroke-width: 1.0;"/><line style="stroke: #A80036; stroke-width: 1.0;" x1="210.4044" x2="209.24" y1="530.9029" y2="522.98"/><polygon fill="#FFFFFF" points="202.38,476.14,199.293,482.6569,204.1214,488.013,207.2083,481.496,202.38,476.14" style="stroke: #A80036; stroke-width: 1.0;"/><text fill="#000000" font-family="sans-serif" font-size="13" lengthAdjust="spacingAndGlyphs" textLength="66" x="135.0708" y="497.6366">+klasse 0..1</text><text fill="#000000" font-family="sans-serif" font-size="13" lengthAdjust="spacingAndGlyphs" textLength="72" x="135.9" y="524.3838">+mappe 0..*</text><!--MD5=[55076da380b5d4bfe59ceb74524abec6]
@startuml
skinparam classAttributeIconSize 0
class Arkivstruktur.Klasse <Arkivenhet> {
  +klasseID : string
  +tittel : string
  +beskrivelse : string [0..1]
  +noekkelord : string [0..*]
  +avsluttetDato : datetime [0..1]
  +avsluttetAv : string [0..1]
  +referanseAvsluttetAv : SystemID [0..1]
  +skjerming : Skjerming [0..1]
  +kassasjon : Kassasjon [0..1]
  +gradering : Gradering [0..1]
}
class Arkivstruktur.Mappe <Arkivenhet> {
  +mappeID : string [0..1] [1..1]
  +tittel : string
  +offentligTittel : string [0..1]
  +beskrivelse : string [0..1]
  +noekkelord : string [0..*]
  +dokumentmedium : Dokumentmedium [0..1] [1..1]
  +oppbevaringssted : string [0..*]
  +avsluttetDato : datetime [0..1]
  +avsluttetAv : string [0..1]
  +referanseAvsluttetAv : SystemID [0..1]
  +kassasjon : Kassasjon [0..1]
  +skjerming : Skjerming [0..1]
  +gradering : Gradering [0..1]
  +referanseForelderMappe : SystemID [0..1]
  +virksomhetsspesifikkeMetadata : VirksomhetsspesifikkeMetadata [0..1]
}
class Arkivstruktur.Kryssreferanse <Arkivenhet> {
}

Arkivstruktur.Registrering "+registrering 0..1" <- -> "+kryssreferanse 0..*" Arkivstruktur.Kryssreferanse
Arkivstruktur.Kryssreferanse "+kryssreferanse 0..*" <- -> "+mappe 0..1" Arkivstruktur.Mappe
Arkivstruktur.Kryssreferanse "+kryssreferanse 0..*" <- -> "+klasse 0..1" Arkivstruktur.Klasse
Arkivstruktur.Klasse "+overklasse 0..1" o-> "+underklasse 0..*" Arkivstruktur.Klasse
Arkivstruktur.Mappe "+overmappe 0..1" o-> "+undermappe 0..*" Arkivstruktur.Mappe
Arkivstruktur.Klasse "+klasse 0..1" o- -> "+mappe 0..*" Arkivstruktur.Mappe
@enduml

PlantUML version 1.2020.02(Sun Mar 01 11:22:07 CET 2020)
(GPL source distribution)
Java Runtime: OpenJDK Runtime Environment
JVM: OpenJDK 64-Bit Server VM
Java Version: 17.0.6+10-Debian-1
Operating System: Linux
Default Encoding: UTF-8
Language: en
Country: US
--></g></svg>