<?xml version="1.0" encoding="UTF-8" standalone="no"?><svg xmlns="http://www.w3.org/2000/svg" xmlns:xlink="http://www.w3.org/1999/xlink" contentScriptType="application/ecmascript" contentStyleType="text/css" height="503px" preserveAspectRatio="none" style="width:1330px;height:503px;" version="1.1" viewBox="0 0 1330 503" width="1330px" zoomAndPan="magnify"><defs><filter height="300%" id="f1bform8oapf48" width="300%" x="-1" y="-1"><feGaussianBlur result="blurOut" stdDeviation="2.0"/><feColorMatrix in="blurOut" result="blurOut2" type="matrix" values="0 0 0 0 0 0 0 0 0 0 0 0 0 0 0 0 0 0 .4 0"/><feOffset dx="4.0" dy="4.0" in="blurOut2" result="blurOut3"/><feBlend in="SourceGraphic" in2="blurOut3" mode="normal"/></filter></defs><g><!--MD5=[232c485b1f52e07d9ce0910f7499e2a6]
cluster Arkivstruktur--><polygon fill="#FFFFFF" filter="url(#f1bform8oapf48)" points="22,24,123,24,130,49.0679,1140,49.0679,1140,491,22,491,22,24" style="stroke: #000000; stroke-width: 1.5;"/><line style="stroke: #000000; stroke-width: 1.5;" x1="22" x2="130" y1="49.0679" y2="49.0679"/><text fill="#000000" font-family="sans-serif" font-size="14" font-weight="bold" lengthAdjust="spacingAndGlyphs" textLength="95" x="26" y="40.9659">Arkivstruktur</text><!--MD5=[069ea117d8bb01159729074d99b1e334]
cluster Sakarkiv--><polygon fill="#FFFFFF" filter="url(#f1bform8oapf48)" points="1164,24,1230,24,1237,49.0679,1308,49.0679,1308,120,1164,120,1164,24" style="stroke: #000000; stroke-width: 1.5;"/><line style="stroke: #000000; stroke-width: 1.5;" x1="1164" x2="1237" y1="49.0679" y2="49.0679"/><text fill="#000000" font-family="sans-serif" font-size="14" font-weight="bold" lengthAdjust="spacingAndGlyphs" textLength="60" x="1168" y="40.9659">Sakarkiv</text><!--MD5=[73df33951f5eee41985998203ae583aa]
class Arkivstruktur.Klasse--><rect fill="#FEFECE" filter="url(#f1bform8oapf48)" height="192.163" id="Arkivstruktur.Klasse" style="stroke: #A80036; stroke-width: 1.5;" width="222" x="653" y="164"/><text fill="#000000" font-family="sans-serif" font-size="12" lengthAdjust="spacingAndGlyphs" textLength="36" x="715.5" y="181.8281">Klasse</text><rect fill="#FFFFFF" height="18.3441" style="stroke: #000000; stroke-width: 1.0; stroke-dasharray: 2.0,2.0;" width="59" x="819" y="161"/><text fill="#000000" font-family="sans-serif" font-size="12" font-style="italic" lengthAdjust="spacingAndGlyphs" textLength="57" x="820" y="174.8281">Arkivenhet</text><line style="stroke: #A80036; stroke-width: 1.5;" x1="654" x2="874" y1="190.3441" y2="190.3441"/><ellipse cx="664" cy="201.3441" fill="none" rx="3" ry="3" style="stroke: #038048; stroke-width: 1.0;"/><text fill="#000000" font-family="sans-serif" font-size="11" lengthAdjust="spacingAndGlyphs" textLength="83" x="673" y="206.103">klasseID : string</text><ellipse cx="664" cy="216.326" fill="none" rx="3" ry="3" style="stroke: #038048; stroke-width: 1.0;"/><text fill="#000000" font-family="sans-serif" font-size="11" lengthAdjust="spacingAndGlyphs" textLength="64" x="673" y="221.0849">tittel : string</text><ellipse cx="664" cy="231.3079" fill="none" rx="3" ry="3" style="stroke: #038048; stroke-width: 1.0;"/><text fill="#000000" font-family="sans-serif" font-size="11" lengthAdjust="spacingAndGlyphs" textLength="127" x="673" y="236.0668">beskrivelse : string [0..1]</text><ellipse cx="664" cy="246.2898" fill="none" rx="3" ry="3" style="stroke: #038048; stroke-width: 1.0;"/><text fill="#000000" font-family="sans-serif" font-size="11" lengthAdjust="spacingAndGlyphs" textLength="129" x="673" y="251.0487">noekkelord : string [0..*]</text><ellipse cx="664" cy="261.2717" fill="none" rx="3" ry="3" style="stroke: #038048; stroke-width: 1.0;"/><text fill="#000000" font-family="sans-serif" font-size="11" lengthAdjust="spacingAndGlyphs" textLength="154" x="673" y="266.0306">avsluttetDato : datetime [0..1]</text><ellipse cx="664" cy="276.2536" fill="none" rx="3" ry="3" style="stroke: #038048; stroke-width: 1.0;"/><text fill="#000000" font-family="sans-serif" font-size="11" lengthAdjust="spacingAndGlyphs" textLength="127" x="673" y="281.0125">avsluttetAv : string [0..1]</text><ellipse cx="664" cy="291.2354" fill="none" rx="3" ry="3" style="stroke: #038048; stroke-width: 1.0;"/><text fill="#000000" font-family="sans-serif" font-size="11" lengthAdjust="spacingAndGlyphs" textLength="196" x="673" y="295.9944">referanseAvsluttetAv : SystemID [0..1]</text><ellipse cx="664" cy="306.2173" fill="none" rx="3" ry="3" style="stroke: #038048; stroke-width: 1.0;"/><text fill="#000000" font-family="sans-serif" font-size="11" lengthAdjust="spacingAndGlyphs" textLength="143" x="673" y="310.9762">skjerming : Skjerming [0..1]</text><ellipse cx="664" cy="321.1992" fill="none" rx="3" ry="3" style="stroke: #038048; stroke-width: 1.0;"/><text fill="#000000" font-family="sans-serif" font-size="11" lengthAdjust="spacingAndGlyphs" textLength="139" x="673" y="325.9581">kassasjon : Kassasjon [0..1]</text><ellipse cx="664" cy="336.1811" fill="none" rx="3" ry="3" style="stroke: #038048; stroke-width: 1.0;"/><text fill="#000000" font-family="sans-serif" font-size="11" lengthAdjust="spacingAndGlyphs" textLength="145" x="673" y="340.94">gradering : Gradering [0..1]</text><line style="stroke: #A80036; stroke-width: 1.5;" x1="654" x2="874" y1="348.163" y2="348.163"/><!--MD5=[5361e6f8e145469a00ddfe2005186efd]
class Arkivstruktur.Arkivenhet--><rect fill="#FEFECE" filter="url(#f1bform8oapf48)" height="42.3441" id="Arkivstruktur.Arkivenhet" style="stroke: #A80036; stroke-width: 1.5;" width="66" x="844" y="62"/><text fill="#000000" font-family="sans-serif" font-size="12" lengthAdjust="spacingAndGlyphs" textLength="60" x="847" y="79.8281">Arkivenhet</text><line style="stroke: #A80036; stroke-width: 1.5;" x1="845" x2="909" y1="88.3441" y2="88.3441"/><line style="stroke: #A80036; stroke-width: 1.5;" x1="845" x2="909" y1="96.3441" y2="96.3441"/><!--MD5=[789c1e76f3fd06e52ddfd1f5832ec9f2]
class Arkivstruktur.Kryssreferanse--><rect fill="#FEFECE" filter="url(#f1bform8oapf48)" height="42.3441" id="Arkivstruktur.Kryssreferanse" style="stroke: #A80036; stroke-width: 1.5;" width="152" x="38" y="424.5"/><text fill="#000000" font-family="sans-serif" font-size="12" lengthAdjust="spacingAndGlyphs" textLength="85" x="41" y="442.3281">Kryssreferanse</text><rect fill="#FFFFFF" height="18.3441" style="stroke: #000000; stroke-width: 1.0; stroke-dasharray: 2.0,2.0;" width="59" x="134" y="421.5"/><text fill="#000000" font-family="sans-serif" font-size="12" font-style="italic" lengthAdjust="spacingAndGlyphs" textLength="57" x="135" y="435.3281">Arkivenhet</text><line style="stroke: #A80036; stroke-width: 1.5;" x1="39" x2="189" y1="450.8441" y2="450.8441"/><line style="stroke: #A80036; stroke-width: 1.5;" x1="39" x2="189" y1="458.8441" y2="458.8441"/><!--MD5=[7ac5167187dc7f1acc74fcb89e1dc205]
class Arkivstruktur.Mappe--><rect fill="#FEFECE" filter="url(#f1bform8oapf48)" height="42.3441" id="Arkivstruktur.Mappe" style="stroke: #A80036; stroke-width: 1.5;" width="106" x="290" y="424.5"/><text fill="#000000" font-family="sans-serif" font-size="12" lengthAdjust="spacingAndGlyphs" textLength="39" x="293" y="442.3281">Mappe</text><rect fill="#FFFFFF" height="18.3441" style="stroke: #000000; stroke-width: 1.0; stroke-dasharray: 2.0,2.0;" width="59" x="340" y="421.5"/><text fill="#000000" font-family="sans-serif" font-size="12" font-style="italic" lengthAdjust="spacingAndGlyphs" textLength="57" x="341" y="435.3281">Arkivenhet</text><line style="stroke: #A80036; stroke-width: 1.5;" x1="291" x2="395" y1="450.8441" y2="450.8441"/><line style="stroke: #A80036; stroke-width: 1.5;" x1="291" x2="395" y1="458.8441" y2="458.8441"/><!--MD5=[5eeb008ce2ba569ad4cb3c09c2ca4370]
class Arkivstruktur.Registrering--><rect fill="#FEFECE" filter="url(#f1bform8oapf48)" height="42.3441" id="Arkivstruktur.Registrering" style="stroke: #A80036; stroke-width: 1.5;" width="135" x="496.5" y="424.5"/><text fill="#000000" font-family="sans-serif" font-size="12" lengthAdjust="spacingAndGlyphs" textLength="68" x="499.5" y="442.3281">Registrering</text><rect fill="#FFFFFF" height="18.3441" style="stroke: #000000; stroke-width: 1.0; stroke-dasharray: 2.0,2.0;" width="59" x="575.5" y="421.5"/><text fill="#000000" font-family="sans-serif" font-size="12" font-style="italic" lengthAdjust="spacingAndGlyphs" textLength="57" x="576.5" y="435.3281">Arkivenhet</text><line style="stroke: #A80036; stroke-width: 1.5;" x1="497.5" x2="630.5" y1="450.8441" y2="450.8441"/><line style="stroke: #A80036; stroke-width: 1.5;" x1="497.5" x2="630.5" y1="458.8441" y2="458.8441"/><!--MD5=[3d4783542a6aba5bb9f20d74c774f5a6]
class Arkivstruktur.Gradering--><rect fill="#FEFECE" filter="url(#f1bform8oapf48)" height="58.6882" id="Arkivstruktur.Gradering" style="stroke: #A80036; stroke-width: 1.5;" width="64" x="732" y="416"/><text fill="#000000" font-family="sans-serif" font-size="12" font-style="italic" lengthAdjust="spacingAndGlyphs" textLength="62" x="733" y="433.8281">«dataType»</text><text fill="#000000" font-family="sans-serif" font-size="12" lengthAdjust="spacingAndGlyphs" textLength="57" x="735.5" y="450.1722">Gradering</text><line style="stroke: #A80036; stroke-width: 1.5;" x1="733" x2="795" y1="458.6882" y2="458.6882"/><line style="stroke: #A80036; stroke-width: 1.5;" x1="733" x2="795" y1="466.6882" y2="466.6882"/><!--MD5=[b5ffafd4a567228755c4d3977cbfc8b1]
class Arkivstruktur.Kassasjon--><rect fill="#FEFECE" filter="url(#f1bform8oapf48)" height="58.6882" id="Arkivstruktur.Kassasjon" style="stroke: #A80036; stroke-width: 1.5;" width="64" x="896" y="416"/><text fill="#000000" font-family="sans-serif" font-size="12" font-style="italic" lengthAdjust="spacingAndGlyphs" textLength="62" x="897" y="433.8281">«dataType»</text><text fill="#000000" font-family="sans-serif" font-size="12" lengthAdjust="spacingAndGlyphs" textLength="56" x="900" y="450.1722">Kassasjon</text><line style="stroke: #A80036; stroke-width: 1.5;" x1="897" x2="959" y1="458.6882" y2="458.6882"/><line style="stroke: #A80036; stroke-width: 1.5;" x1="897" x2="959" y1="466.6882" y2="466.6882"/><!--MD5=[5d5cde9b9f9a55207202ed5867b8249d]
class Arkivstruktur.Skjerming--><rect fill="#FEFECE" filter="url(#f1bform8oapf48)" height="58.6882" id="Arkivstruktur.Skjerming" style="stroke: #A80036; stroke-width: 1.5;" width="64" x="1060" y="416"/><text fill="#000000" font-family="sans-serif" font-size="12" font-style="italic" lengthAdjust="spacingAndGlyphs" textLength="62" x="1061" y="433.8281">«dataType»</text><text fill="#000000" font-family="sans-serif" font-size="12" lengthAdjust="spacingAndGlyphs" textLength="56" x="1064" y="450.1722">Skjerming</text><line style="stroke: #A80036; stroke-width: 1.5;" x1="1061" x2="1123" y1="458.6882" y2="458.6882"/><line style="stroke: #A80036; stroke-width: 1.5;" x1="1061" x2="1123" y1="466.6882" y2="466.6882"/><!--MD5=[644cbb5ff8138c2f81e04d7f63002f47]
class Arkivstruktur.Klassifikasjonssystem--><rect fill="#FEFECE" filter="url(#f1bform8oapf48)" height="42.3441" id="Arkivstruktur.Klassifikasjonssystem" style="stroke: #A80036; stroke-width: 1.5;" width="188" x="556" y="62"/><text fill="#000000" font-family="sans-serif" font-size="12" lengthAdjust="spacingAndGlyphs" textLength="121" x="559" y="79.8281">Klassifikasjonssystem</text><rect fill="#FFFFFF" height="18.3441" style="stroke: #000000; stroke-width: 1.0; stroke-dasharray: 2.0,2.0;" width="59" x="688" y="59"/><text fill="#000000" font-family="sans-serif" font-size="12" font-style="italic" lengthAdjust="spacingAndGlyphs" textLength="57" x="689" y="72.8281">Arkivenhet</text><line style="stroke: #A80036; stroke-width: 1.5;" x1="557" x2="743" y1="88.3441" y2="88.3441"/><line style="stroke: #A80036; stroke-width: 1.5;" x1="557" x2="743" y1="96.3441" y2="96.3441"/><!--MD5=[d3f949591156db6542fa63b25349ce5f]
class Sakarkiv.Saksmappe--><rect fill="#FEFECE" filter="url(#f1bform8oapf48)" height="42.3441" id="Sakarkiv.Saksmappe" style="stroke: #A80036; stroke-width: 1.5;" width="112" x="1180" y="62"/><text fill="#000000" font-family="sans-serif" font-size="12" lengthAdjust="spacingAndGlyphs" textLength="65" x="1183" y="79.8281">Saksmappe</text><rect fill="#FFFFFF" height="18.3441" style="stroke: #000000; stroke-width: 1.0; stroke-dasharray: 2.0,2.0;" width="39" x="1256" y="59"/><text fill="#000000" font-family="sans-serif" font-size="12" font-style="italic" lengthAdjust="spacingAndGlyphs" textLength="37" x="1257" y="72.8281">Mappe</text><line style="stroke: #A80036; stroke-width: 1.5;" x1="1181" x2="1291" y1="88.3441" y2="88.3441"/><line style="stroke: #A80036; stroke-width: 1.5;" x1="1181" x2="1291" y1="96.3441" y2="96.3441"/><!--MD5=[c52bd6c571059901e72037a509703e30]
reverse link Arkivstruktur.Arkivenhet to Arkivstruktur.Klasse--><path d="M853.1,121.01 C844.86,133.78 835.2,148.74 825.34,164 " fill="none" id="Arkivstruktur.Arkivenhet&lt;-Arkivstruktur.Klasse" style="stroke: #A80036; stroke-width: 1.0;"/><polygon fill="none" points="847.31,117.08,864.04,104.07,859.07,124.67,847.31,117.08" style="stroke: #A80036; stroke-width: 1.0;"/><!--MD5=[fd6cad3daa3a7589931420633216fa83]
link Arkivstruktur.Klasse to Arkivstruktur.Kryssreferanse--><path d="M641.4503,295.5966 C641.4503,295.5966 309.74,389.24 197.46,420.94 " fill="none" id="Arkivstruktur.Klasse-Arkivstruktur.Kryssreferanse" style="stroke: #A80036; stroke-width: 1.0;"/><polygon fill="#A80036" points="184.88,424.49,194.6278,425.8975,189.6924,423.1331,192.4567,418.1977,184.88,424.49" style="stroke: #A80036; stroke-width: 1.0;"/><line style="stroke: #A80036; stroke-width: 1.0;" x1="189.6924" x2="197.395" y1="423.1331" y2="420.96"/><polygon fill="#A80036" points="653,292.34,646.1396,290.1184,641.4503,295.5966,648.3107,297.8182,653,292.34" style="stroke: #A80036; stroke-width: 1.0;"/><text fill="#000000" font-family="sans-serif" font-size="13" lengthAdjust="spacingAndGlyphs" textLength="59" x="585.8773" y="290.631">klasse 0..1</text><text fill="#000000" font-family="sans-serif" font-size="13" lengthAdjust="spacingAndGlyphs" textLength="110" x="79.5448" y="412.7716">kryssreferanse 0..*</text><!--MD5=[6ad31a2a544e3c283a56919386d2c114]
link Arkivstruktur.Klasse to Arkivstruktur.Mappe--><path d="M641.8419,314.2501 C641.8419,314.2501 462.68,392.34 401.11,419.17 " fill="none" id="Arkivstruktur.Klasse-Arkivstruktur.Mappe" style="stroke: #A80036; stroke-width: 1.0;"/><polygon fill="#A80036" points="388.94,424.48,398.7886,424.5459,393.5226,422.4799,395.5885,417.2139,388.94,424.48" style="stroke: #A80036; stroke-width: 1.0;"/><line style="stroke: #A80036; stroke-width: 1.0;" x1="393.5226" x2="400.85" y1="422.4799" y2="419.28"/><polygon fill="#FFFFFF" points="652.84,309.45,645.7409,308.184,641.8419,314.2501,648.941,315.5161,652.84,309.45" style="stroke: #A80036; stroke-width: 1.0;"/><text fill="#000000" font-family="sans-serif" font-size="13" lengthAdjust="spacingAndGlyphs" textLength="59" x="586.1477" y="308.6013">klasse 0..1</text><text fill="#000000" font-family="sans-serif" font-size="13" lengthAdjust="spacingAndGlyphs" textLength="65" x="327.888" y="412.7587">mappe 0..*</text><!--MD5=[28a2ceb9e6940c79255ac7d60562a8c2]
link Arkivstruktur.Klasse to Arkivstruktur.Registrering--><path d="M651.3436,364.3481 C651.3436,364.3481 610.99,401.38 595.75,415.37 " fill="none" id="Arkivstruktur.Klasse-Arkivstruktur.Registrering" style="stroke: #A80036; stroke-width: 1.0;"/><polygon fill="#A80036" points="585.88,424.42,595.2175,421.2877,589.566,421.0416,589.8121,415.3901,585.88,424.42" style="stroke: #A80036; stroke-width: 1.0;"/><line style="stroke: #A80036; stroke-width: 1.0;" x1="589.566" x2="595.465" y1="421.0416" y2="415.635"/><polygon fill="#FFFFFF" points="660.19,356.24,653.0641,357.3453,651.3436,364.3481,658.4695,363.2428,660.19,356.24" style="stroke: #A80036; stroke-width: 1.0;"/><text fill="#000000" font-family="sans-serif" font-size="13" lengthAdjust="spacingAndGlyphs" textLength="59" x="590.9835" y="378.177">klasse 0..1</text><text fill="#000000" font-family="sans-serif" font-size="13" lengthAdjust="spacingAndGlyphs" textLength="93" x="485.6479" y="412.681">registrering 0..*</text><!--MD5=[120f06a279acce4c5fe3ddb6d1c4abb3]
reverse link Arkivstruktur.Klasse to Arkivstruktur.Klasse--><path d="M888.47,227.1 C935.82,225.81 975,236.78 975,260 C975,285.35 928.3,296.1 875.27,292.23 " fill="none" id="Arkivstruktur.Klasse&lt;-Arkivstruktur.Klasse" style="stroke: #A80036; stroke-width: 1.0;"/><polygon fill="#FFFFFF" points="875.27,227.77,881.4645,231.4616,887.2547,227.1635,881.0602,223.4719,875.27,227.77" style="stroke: #A80036; stroke-width: 1.0;"/><text fill="#000000" font-family="sans-serif" font-size="13" lengthAdjust="spacingAndGlyphs" textLength="86" x="883.2245" y="222.5809">overklasse 0..1</text><text fill="#000000" font-family="sans-serif" font-size="13" lengthAdjust="spacingAndGlyphs" textLength="95" x="882.9604" y="290.2896">underklasse 0..*</text><!--MD5=[5d1513ab2cb755b61aa6d21d9f58bf2e]
reverse link Arkivstruktur.Klasse to Arkivstruktur.Gradering--><path d="M764,369.46 C764,386.6 764,402.93 764,415.96 " fill="none" id="Arkivstruktur.Klasse&lt;-Arkivstruktur.Gradering" style="stroke: #A80036; stroke-width: 1.0;"/><polygon fill="#A80036" points="764,356.24,760,362.24,764,368.24,768,362.24,764,356.24" style="stroke: #A80036; stroke-width: 1.0;"/><!--MD5=[f5d26b0abccddebd53cdaeddf7d12406]
reverse link Arkivstruktur.Klasse to Arkivstruktur.Kassasjon--><path d="M858,366.18 C874.38,384.51 890.11,402.1 902.49,415.96 " fill="none" id="Arkivstruktur.Klasse&lt;-Arkivstruktur.Kassasjon" style="stroke: #A80036; stroke-width: 1.0;"/><polygon fill="#A80036" points="849.12,356.24,850.1367,363.3791,857.1177,365.1863,856.101,358.0473,849.12,356.24" style="stroke: #A80036; stroke-width: 1.0;"/><!--MD5=[43b79eb43bad7e732b3f9bab06e51705]
reverse link Arkivstruktur.Klasse to Arkivstruktur.Skjerming--><path d="M886.57,329.57 C948.84,364.41 1019.65,404.02 1059.76,426.46 " fill="none" id="Arkivstruktur.Klasse&lt;-Arkivstruktur.Skjerming" style="stroke: #A80036; stroke-width: 1.0;"/><polygon fill="#A80036" points="875.05,323.12,878.3346,329.5396,885.5237,328.9768,882.2391,322.5572,875.05,323.12" style="stroke: #A80036; stroke-width: 1.0;"/><!--MD5=[8417ef12fd0c6c0adaf88fb9c070fb71]
link Arkivstruktur.Klassifikasjonssystem to Arkivstruktur.Klasse--><path d="M669.6296,114.125 C669.6296,114.125 686.05,139.33 694.92,152.96 " fill="none" id="Arkivstruktur.Klassifikasjonssystem-Arkivstruktur.Klasse" style="stroke: #A80036; stroke-width: 1.0;"/><polygon fill="#A80036" points="702.11,164,700.5495,154.2756,699.381,159.8104,693.8461,158.6419,702.11,164" style="stroke: #A80036; stroke-width: 1.0;"/><line style="stroke: #A80036; stroke-width: 1.0;" x1="699.381" x2="695.015" y1="159.8104" y2="153.105"/><polygon fill="#FFFFFF" points="663.08,104.07,663.0031,111.2807,669.6296,114.125,669.7065,106.9143,663.08,104.07" style="stroke: #A80036; stroke-width: 1.0;"/><text fill="#000000" font-family="sans-serif" font-size="13" lengthAdjust="spacingAndGlyphs" textLength="150" x="495.665" y="126.3345">klassifikasjonssystem 0..1</text><text fill="#000000" font-family="sans-serif" font-size="13" lengthAdjust="spacingAndGlyphs" textLength="59" x="635.5418" y="152.2656">klasse 0..*</text><!--MD5=[7b760a1294b76e2959e49fd2c743b104]
reverse link Sakarkiv.Saksmappe to Arkivstruktur.Klasse--><path d="M1191.64,110.6 C1180.53,116.73 1168.5,122.93 1157,128 C1064.53,168.74 955.18,204.22 875.34,227.94 " fill="none" id="Sakarkiv.Saksmappe&lt;-Arkivstruktur.Klasse" style="stroke: #A80036; stroke-width: 1.0;"/><polygon fill="#A80036" points="1203.26,104.04,1196.0685,103.5086,1192.812,109.9425,1200.0035,110.4739,1203.26,104.04" style="stroke: #A80036; stroke-width: 1.0;"/><text fill="#000000" font-family="sans-serif" font-size="13" lengthAdjust="spacingAndGlyphs" textLength="164" x="882.8923" y="240.9273">sekundaerklassifikasjon 0..*</text><!--MD5=[90223067a29d03e29911d6c546cda044]
@startuml
skinparam nodesep 100
hide circle
class Arkivstruktur.Klasse <Arkivenhet> {
  +klasseID : string
  +tittel : string
  +beskrivelse : string [0..1]
  +noekkelord : string [0..*]
  +avsluttetDato : datetime [0..1]
  +avsluttetAv : string [0..1]
  +referanseAvsluttetAv : SystemID [0..1]
  +skjerming : Skjerming [0..1]
  +kassasjon : Kassasjon [0..1]
  +gradering : Gradering [0..1]
}
class Arkivstruktur.Arkivenhet {
}
Arkivstruktur.Arkivenhet <|- - Arkivstruktur.Klasse
class Arkivstruktur.Kryssreferanse <Arkivenhet> {
}
Arkivstruktur.Klasse "klasse 0..1" *- -> "kryssreferanse 0..*" Arkivstruktur.Kryssreferanse
class Arkivstruktur.Mappe <Arkivenhet> {
}
Arkivstruktur.Klasse "klasse 0..1" o- -> "mappe 0..*" Arkivstruktur.Mappe
class Arkivstruktur.Registrering <Arkivenhet> {
}
Arkivstruktur.Klasse "klasse 0..1" o- -> "registrering 0..*" Arkivstruktur.Registrering
Arkivstruktur.Klasse "overklasse 0..1" o- - "underklasse 0..*" Arkivstruktur.Klasse
class Arkivstruktur.Gradering <<dataType>> {
}
Arkivstruktur.Klasse *- - Arkivstruktur.Gradering
class Arkivstruktur.Kassasjon <<dataType>> {
}
Arkivstruktur.Klasse *- - Arkivstruktur.Kassasjon
class Arkivstruktur.Skjerming <<dataType>> {
}
Arkivstruktur.Klasse *- - Arkivstruktur.Skjerming
class Arkivstruktur.Klassifikasjonssystem <Arkivenhet> {
}
Arkivstruktur.Klassifikasjonssystem "klassifikasjonssystem 0..1" o- -> "klasse 0..*" Arkivstruktur.Klasse
class Sakarkiv.Saksmappe <Mappe> {
}
Sakarkiv.Saksmappe *- - "sekundaerklassifikasjon 0..*" Arkivstruktur.Klasse
@enduml

PlantUML version 1.2020.02(Sun Mar 01 11:22:07 CET 2020)
(GPL source distribution)
Java Runtime: OpenJDK Runtime Environment
JVM: OpenJDK 64-Bit Server VM
Java Version: 17.0.6+10-Debian-1
Operating System: Linux
Default Encoding: UTF-8
Language: en
Country: US
--></g></svg>