<?xml version="1.0" encoding="UTF-8" standalone="no"?><svg xmlns="http://www.w3.org/2000/svg" xmlns:xlink="http://www.w3.org/1999/xlink" contentScriptType="application/ecmascript" contentStyleType="text/css" height="1460px" preserveAspectRatio="none" style="width:2297px;height:1460px;" version="1.1" viewBox="0 0 2297 1460" width="2297px" zoomAndPan="magnify"><defs><filter height="300%" id="fxsveywygt24w" width="300%" x="-1" y="-1"><feGaussianBlur result="blurOut" stdDeviation="2.0"/><feColorMatrix in="blurOut" result="blurOut2" type="matrix" values="0 0 0 0 0 0 0 0 0 0 0 0 0 0 0 0 0 0 .4 0"/><feOffset dx="4.0" dy="4.0" in="blurOut2" result="blurOut3"/><feBlend in="SourceGraphic" in2="blurOut3" mode="normal"/></filter></defs><g><!--MD5=[069ea117d8bb01159729074d99b1e334]
cluster Sakarkiv--><polygon fill="#FFFFFF" filter="url(#fxsveywygt24w)" points="1055,24,1121,24,1128,49.0679,1855,49.0679,1855,1133,1055,1133,1055,24" style="stroke: #000000; stroke-width: 1.5;"/><line style="stroke: #000000; stroke-width: 1.5;" x1="1055" x2="1128" y1="49.0679" y2="49.0679"/><text fill="#000000" font-family="sans-serif" font-size="14" font-weight="bold" lengthAdjust="spacingAndGlyphs" textLength="60" x="1059" y="40.9659">Sakarkiv</text><!--MD5=[232c485b1f52e07d9ce0910f7499e2a6]
cluster Arkivstruktur--><polygon fill="#FFFFFF" filter="url(#fxsveywygt24w)" points="22,121.5,123,121.5,130,146.5679,1005,146.5679,1005,268.5,22,268.5,22,121.5" style="stroke: #000000; stroke-width: 1.5;"/><line style="stroke: #000000; stroke-width: 1.5;" x1="22" x2="130" y1="146.5679" y2="146.5679"/><text fill="#000000" font-family="sans-serif" font-size="14" font-weight="bold" lengthAdjust="spacingAndGlyphs" textLength="95" x="26" y="138.4659">Arkivstruktur</text><!--MD5=[68eac0387a028fbb729470faa528465a]
cluster Kodelister--><polygon fill="#FFFFFF" filter="url(#fxsveywygt24w)" points="1026,1200,1102,1200,1109,1225.0679,2275,1225.0679,2275,1448,1026,1448,1026,1200" style="stroke: #000000; stroke-width: 1.5;"/><line style="stroke: #000000; stroke-width: 1.5;" x1="1026" x2="1109" y1="1225.0679" y2="1225.0679"/><text fill="#000000" font-family="sans-serif" font-size="14" font-weight="bold" lengthAdjust="spacingAndGlyphs" textLength="70" x="1030" y="1216.9659">Kodelister</text><!--MD5=[2f08e53298f8f090d026427c85b7c44d]
class Sakarkiv.Journalpost--><rect fill="#FEFECE" filter="url(#fxsveywygt24w)" height="707.2031" id="Sakarkiv.Journalpost" style="stroke: #A80036; stroke-width: 1.5;" width="262" x="1071" y="410"/><ellipse cx="1131.75" cy="426" fill="#ADD1B2" rx="11" ry="11" style="stroke: #A80036; stroke-width: 1.0;"/><path d="M1131.2188,432.9219 Q1129.4688,432.9219 1128.3281,432.1875 Q1127.2031,431.4375 1126.6406,430.0938 Q1126.0938,428.7344 1126.0938,426.9375 Q1126.0938,424.9063 1126.75,423.4531 Q1127.4063,422 1128.6875,421.2188 Q1129.9688,420.4375 1131.8438,420.4375 Q1132.7344,420.4375 1133.4063,420.625 Q1134.0781,420.7969 1134.7656,421.1406 L1133.9531,423.1563 Q1133.3281,422.8438 1132.7813,422.7188 Q1132.25,422.5938 1131.7656,422.5938 Q1130.5938,422.5938 1129.8906,423.125 Q1129.1875,423.6563 1128.8906,424.6094 Q1128.5938,425.5625 1128.5938,426.8281 Q1128.5938,428.8438 1129.3125,429.8125 Q1130.0313,430.7656 1131.625,430.7656 Q1132.2188,430.7656 1132.8438,430.6094 Q1133.4688,430.4531 1134.2969,430.0781 L1134.2969,432.2969 Q1133.5625,432.6094 1132.7656,432.7656 Q1131.9844,432.9219 1131.2188,432.9219 Z "/><text fill="#000000" font-family="sans-serif" font-size="12" lengthAdjust="spacingAndGlyphs" textLength="63" x="1152.25" y="430.656">Journalpost</text><rect fill="#FFFFFF" height="18.3441" style="stroke: #000000; stroke-width: 1.0; stroke-dasharray: 2.0,2.0;" width="67" x="1269" y="407"/><text fill="#000000" font-family="sans-serif" font-size="12" font-style="italic" lengthAdjust="spacingAndGlyphs" textLength="65" x="1270" y="420.8281">Registrering</text><line style="stroke: #A80036; stroke-width: 1.5;" x1="1072" x2="1332" y1="442" y2="442"/><text fill="#000000" font-family="sans-serif" font-size="11" lengthAdjust="spacingAndGlyphs" textLength="137" x="1077" y="457.7589">+journalaar : integer [0..1]</text><text fill="#000000" font-family="sans-serif" font-size="11" lengthAdjust="spacingAndGlyphs" textLength="206" x="1077" y="472.7408">+journalsekvensnummer : integer [0..1]</text><text fill="#000000" font-family="sans-serif" font-size="11" lengthAdjust="spacingAndGlyphs" textLength="188" x="1077" y="487.7227">+journalpostnummer : integer [0..1]</text><text fill="#000000" font-family="sans-serif" font-size="11" lengthAdjust="spacingAndGlyphs" textLength="183" x="1077" y="502.7046">+journalposttype : Journalposttype</text><text fill="#000000" font-family="sans-serif" font-size="11" lengthAdjust="spacingAndGlyphs" textLength="153" x="1077" y="517.6865">+journalstatus : Journalstatus</text><text fill="#000000" font-family="sans-serif" font-size="11" lengthAdjust="spacingAndGlyphs" textLength="100" x="1077" y="532.6684">+journaldato : date</text><text fill="#000000" font-family="sans-serif" font-size="11" lengthAdjust="spacingAndGlyphs" textLength="161" x="1077" y="547.6502">+dokumentetsDato : date [0..1]</text><text fill="#000000" font-family="sans-serif" font-size="11" lengthAdjust="spacingAndGlyphs" textLength="131" x="1077" y="562.6321">+mottattDato : date [0..1]</text><text fill="#000000" font-family="sans-serif" font-size="11" lengthAdjust="spacingAndGlyphs" textLength="121" x="1077" y="577.614">+sendtDato : date [0..1]</text><text fill="#000000" font-family="sans-serif" font-size="11" lengthAdjust="spacingAndGlyphs" textLength="128" x="1077" y="592.5959">+forfallsdato : date [0..1]</text><text fill="#000000" font-family="sans-serif" font-size="11" lengthAdjust="spacingAndGlyphs" textLength="199" x="1077" y="607.5778">+offentlighetsvurdertDato : date [0..1]</text><text fill="#000000" font-family="sans-serif" font-size="11" lengthAdjust="spacingAndGlyphs" textLength="154" x="1077" y="622.5597">+antallVedlegg : integer [0..1]</text><text fill="#000000" font-family="sans-serif" font-size="11" lengthAdjust="spacingAndGlyphs" textLength="123" x="1077" y="637.5416">+utlantDato : date [0..1]</text><text fill="#000000" font-family="sans-serif" font-size="11" lengthAdjust="spacingAndGlyphs" textLength="124" x="1077" y="652.5235">+utlaantTil : string [0..1]</text><text fill="#000000" font-family="sans-serif" font-size="11" lengthAdjust="spacingAndGlyphs" textLength="193" x="1077" y="667.5053">+referanseUtlaantTil : SystemID [0..1]</text><text fill="#000000" font-family="sans-serif" font-size="11" lengthAdjust="spacingAndGlyphs" textLength="143" x="1077" y="682.4872">+journalenhet : string [0..1]</text><text fill="#000000" font-family="sans-serif" font-size="11" lengthAdjust="spacingAndGlyphs" textLength="250" x="1077" y="697.4691">+elektroniskSignatur : ElektroniskSignatur [0..1]</text><text fill="#000000" font-family="sans-serif" font-size="11" lengthAdjust="spacingAndGlyphs" textLength="0" x="1080" y="712.451"/><text fill="#000000" font-family="sans-serif" font-size="11" lengthAdjust="spacingAndGlyphs" textLength="156" x="1077" y="746.4148">+arkivertDato : datetime [0..1]</text><text fill="#000000" font-family="sans-serif" font-size="11" lengthAdjust="spacingAndGlyphs" textLength="129" x="1077" y="761.3967">+arkivertAv : string [0..1]</text><text fill="#000000" font-family="sans-serif" font-size="11" lengthAdjust="spacingAndGlyphs" textLength="198" x="1077" y="776.3786">+referanseArkivertAv : SystemID [0..1]</text><text fill="#000000" font-family="sans-serif" font-size="11" lengthAdjust="spacingAndGlyphs" textLength="145" x="1077" y="791.3604">+kassasjon : Kassasjon [0..1]</text><text fill="#000000" font-family="sans-serif" font-size="11" lengthAdjust="spacingAndGlyphs" textLength="149" x="1077" y="806.3423">+skjerming : Skjerming [0..1]</text><text fill="#000000" font-family="sans-serif" font-size="11" lengthAdjust="spacingAndGlyphs" textLength="151" x="1077" y="821.3242">+gradering : Gradering [0..1]</text><text fill="#000000" font-family="sans-serif" font-size="11" lengthAdjust="spacingAndGlyphs" textLength="186" x="1077" y="836.3061">+referanseArkivdel : SystemID [0..1]</text><text fill="#000000" font-family="sans-serif" font-size="11" lengthAdjust="spacingAndGlyphs" textLength="150" x="1077" y="851.288">+registreringID : string [0..1]</text><text fill="#000000" font-family="sans-serif" font-size="11" lengthAdjust="spacingAndGlyphs" textLength="70" x="1077" y="866.2699">+tittel : string</text><text fill="#000000" font-family="sans-serif" font-size="11" lengthAdjust="spacingAndGlyphs" textLength="146" x="1077" y="881.2518">+offentligTittel : string [0..1]</text><text fill="#000000" font-family="sans-serif" font-size="11" lengthAdjust="spacingAndGlyphs" textLength="133" x="1077" y="896.2337">+beskrivelse : string [0..1]</text><text fill="#000000" font-family="sans-serif" font-size="11" lengthAdjust="spacingAndGlyphs" textLength="135" x="1077" y="911.2155">+noekkelord : string [0..*]</text><text fill="#000000" font-family="sans-serif" font-size="11" lengthAdjust="spacingAndGlyphs" textLength="120" x="1077" y="926.1974">+forfatter : string [0..*]</text><text fill="#000000" font-family="sans-serif" font-size="11" lengthAdjust="spacingAndGlyphs" textLength="239" x="1077" y="941.1793">+dokumentmedium : Dokumentmedium [0..1]</text><text fill="#000000" font-family="sans-serif" font-size="11" lengthAdjust="spacingAndGlyphs" textLength="170" x="1077" y="956.1612">+oppbevaringssted : string [0..*]</text><text fill="#000000" font-family="sans-serif" font-size="11" lengthAdjust="spacingAndGlyphs" textLength="227" x="1077" y="971.1431">+virksomhetsspesifikkeMetadata : any [0..1]</text><text fill="#000000" font-family="sans-serif" font-size="11" lengthAdjust="spacingAndGlyphs" textLength="0" x="1080" y="986.125"/><line style="stroke: #A80036; stroke-width: 1.0;" x1="1072" x2="1169.5" y1="727.1649" y2="727.1649"/><text fill="#000000" font-family="sans-serif" font-size="11" lengthAdjust="spacingAndGlyphs" textLength="65" x="1169.5" y="730.9329">Registrering</text><line style="stroke: #A80036; stroke-width: 1.0;" x1="1234.5" x2="1332" y1="727.1649" y2="727.1649"/><text fill="#000000" font-family="sans-serif" font-size="11" lengthAdjust="spacingAndGlyphs" textLength="141" x="1077" y="1020.0888">+systemID : SystemID [0..1]</text><text fill="#000000" font-family="sans-serif" font-size="11" lengthAdjust="spacingAndGlyphs" textLength="150" x="1077" y="1035.0706">+endretDato : datetime [0..1]</text><text fill="#000000" font-family="sans-serif" font-size="11" lengthAdjust="spacingAndGlyphs" textLength="165" x="1077" y="1050.0525">+opprettetDato : datetime [0..1]</text><text fill="#000000" font-family="sans-serif" font-size="11" lengthAdjust="spacingAndGlyphs" textLength="138" x="1077" y="1065.0344">+opprettetAv : string [0..1]</text><text fill="#000000" font-family="sans-serif" font-size="11" lengthAdjust="spacingAndGlyphs" textLength="123" x="1077" y="1080.0163">+endretAv : string [0..1]</text><text fill="#000000" font-family="sans-serif" font-size="11" lengthAdjust="spacingAndGlyphs" textLength="211" x="1077" y="1094.9982">+referanseOppdatertAv : SystemID [0..1]</text><text fill="#000000" font-family="sans-serif" font-size="11" lengthAdjust="spacingAndGlyphs" textLength="208" x="1077" y="1109.9801">+referanseOpprettetAv : SystemID [0..1]</text><line style="stroke: #A80036; stroke-width: 1.0;" x1="1072" x2="1173.5" y1="1000.8389" y2="1000.8389"/><text fill="#000000" font-family="sans-serif" font-size="11" lengthAdjust="spacingAndGlyphs" textLength="57" x="1173.5" y="1004.6069">Arkivenhet</text><line style="stroke: #A80036; stroke-width: 1.0;" x1="1230.5" x2="1332" y1="1000.8389" y2="1000.8389"/><!--MD5=[78c3d25fd312ed748fedda403654b48a]
class Sakarkiv.Presedens--><rect fill="#FEFECE" filter="url(#fxsveywygt24w)" height="287.7102" id="Sakarkiv.Presedens" style="stroke: #A80036; stroke-width: 1.5;" width="270" x="1169" y="62"/><ellipse cx="1270.25" cy="78" fill="#ADD1B2" rx="11" ry="11" style="stroke: #A80036; stroke-width: 1.0;"/><path d="M1269.7188,84.9219 Q1267.9688,84.9219 1266.8281,84.1875 Q1265.7031,83.4375 1265.1406,82.0938 Q1264.5938,80.7344 1264.5938,78.9375 Q1264.5938,76.9063 1265.25,75.4531 Q1265.9063,74 1267.1875,73.2188 Q1268.4688,72.4375 1270.3438,72.4375 Q1271.2344,72.4375 1271.9063,72.625 Q1272.5781,72.7969 1273.2656,73.1406 L1272.4531,75.1563 Q1271.8281,74.8438 1271.2813,74.7188 Q1270.75,74.5938 1270.2656,74.5938 Q1269.0938,74.5938 1268.3906,75.125 Q1267.6875,75.6563 1267.3906,76.6094 Q1267.0938,77.5625 1267.0938,78.8281 Q1267.0938,80.8438 1267.8125,81.8125 Q1268.5313,82.7656 1270.125,82.7656 Q1270.7188,82.7656 1271.3438,82.6094 Q1271.9688,82.4531 1272.7969,82.0781 L1272.7969,84.2969 Q1272.0625,84.6094 1271.2656,84.7656 Q1270.4844,84.9219 1269.7188,84.9219 Z "/><text fill="#000000" font-family="sans-serif" font-size="12" lengthAdjust="spacingAndGlyphs" textLength="59" x="1290.75" y="82.656">Presedens</text><line style="stroke: #A80036; stroke-width: 1.5;" x1="1170" x2="1438" y1="94" y2="94"/><text fill="#000000" font-family="sans-serif" font-size="11" lengthAdjust="spacingAndGlyphs" textLength="170" x="1175" y="109.7589">+systemID : SystemID [0..1] [1..1]</text><text fill="#000000" font-family="sans-serif" font-size="11" lengthAdjust="spacingAndGlyphs" textLength="198" x="1175" y="124.7408">+presedensDato : datetime [0..1] [1..1]</text><text fill="#000000" font-family="sans-serif" font-size="11" lengthAdjust="spacingAndGlyphs" textLength="194" x="1175" y="139.7227">+opprettetDato : datetime [0..1] [1..1]</text><text fill="#000000" font-family="sans-serif" font-size="11" lengthAdjust="spacingAndGlyphs" textLength="167" x="1175" y="154.7046">+opprettetAv : string [0..1] [1..1]</text><text fill="#000000" font-family="sans-serif" font-size="11" lengthAdjust="spacingAndGlyphs" textLength="237" x="1175" y="169.6865">+referanseOpprettetAv : SystemID [0..1] [1..1]</text><text fill="#000000" font-family="sans-serif" font-size="11" lengthAdjust="spacingAndGlyphs" textLength="70" x="1175" y="184.6684">+tittel : string</text><text fill="#000000" font-family="sans-serif" font-size="11" lengthAdjust="spacingAndGlyphs" textLength="133" x="1175" y="199.6502">+beskrivelse : string [0..1]</text><text fill="#000000" font-family="sans-serif" font-size="11" lengthAdjust="spacingAndGlyphs" textLength="175" x="1175" y="214.6321">+presedensHjemmel : string [0..1]</text><text fill="#000000" font-family="sans-serif" font-size="11" lengthAdjust="spacingAndGlyphs" textLength="127" x="1175" y="229.614">+rettskildefaktor : string</text><text fill="#000000" font-family="sans-serif" font-size="11" lengthAdjust="spacingAndGlyphs" textLength="217" x="1175" y="244.5959">+presedensGodkjentDato : datetime [0..1]</text><text fill="#000000" font-family="sans-serif" font-size="11" lengthAdjust="spacingAndGlyphs" textLength="190" x="1175" y="259.5778">+presedensGodkjentAv : string [0..1]</text><text fill="#000000" font-family="sans-serif" font-size="11" lengthAdjust="spacingAndGlyphs" textLength="258" x="1175" y="274.5597">+referansePresedensGodkjentAv : SystemID [0..1]</text><text fill="#000000" font-family="sans-serif" font-size="11" lengthAdjust="spacingAndGlyphs" textLength="160" x="1175" y="289.5416">+avsluttetDato : datetime [0..1]</text><text fill="#000000" font-family="sans-serif" font-size="11" lengthAdjust="spacingAndGlyphs" textLength="133" x="1175" y="304.5235">+avsluttetAv : string [0..1]</text><text fill="#000000" font-family="sans-serif" font-size="11" lengthAdjust="spacingAndGlyphs" textLength="202" x="1175" y="319.5053">+referanseAvsluttetAv : SystemID [0..1]</text><text fill="#000000" font-family="sans-serif" font-size="11" lengthAdjust="spacingAndGlyphs" textLength="216" x="1175" y="334.4872">+presedensStatus : PresedensStatus [0..1]</text><line style="stroke: #A80036; stroke-width: 1.5;" x1="1170" x2="1438" y1="341.7102" y2="341.7102"/><!--MD5=[c6af8ee822666342b688fca195c2130c]
class Sakarkiv.Avskrivning--><rect fill="#FEFECE" filter="url(#fxsveywygt24w)" height="152.8732" id="Sakarkiv.Avskrivning" style="stroke: #A80036; stroke-width: 1.5;" width="326" x="1513" y="687"/><ellipse cx="1639.75" cy="703" fill="#ADD1B2" rx="11" ry="11" style="stroke: #A80036; stroke-width: 1.0;"/><path d="M1639.2188,709.9219 Q1637.4688,709.9219 1636.3281,709.1875 Q1635.2031,708.4375 1634.6406,707.0938 Q1634.0938,705.7344 1634.0938,703.9375 Q1634.0938,701.9063 1634.75,700.4531 Q1635.4063,699 1636.6875,698.2188 Q1637.9688,697.4375 1639.8438,697.4375 Q1640.7344,697.4375 1641.4063,697.625 Q1642.0781,697.7969 1642.7656,698.1406 L1641.9531,700.1563 Q1641.3281,699.8438 1640.7813,699.7188 Q1640.25,699.5938 1639.7656,699.5938 Q1638.5938,699.5938 1637.8906,700.125 Q1637.1875,700.6563 1636.8906,701.6094 Q1636.5938,702.5625 1636.5938,703.8281 Q1636.5938,705.8438 1637.3125,706.8125 Q1638.0313,707.7656 1639.625,707.7656 Q1640.2188,707.7656 1640.8438,707.6094 Q1641.4688,707.4531 1642.2969,707.0781 L1642.2969,709.2969 Q1641.5625,709.6094 1640.7656,709.7656 Q1639.9844,709.9219 1639.2188,709.9219 Z "/><text fill="#000000" font-family="sans-serif" font-size="12" lengthAdjust="spacingAndGlyphs" textLength="64" x="1660.25" y="707.656">Avskrivning</text><line style="stroke: #A80036; stroke-width: 1.5;" x1="1514" x2="1838" y1="719" y2="719"/><text fill="#000000" font-family="sans-serif" font-size="11" lengthAdjust="spacingAndGlyphs" textLength="170" x="1519" y="734.7589">+systemID : SystemID [0..1] [1..1]</text><text fill="#000000" font-family="sans-serif" font-size="11" lengthAdjust="spacingAndGlyphs" textLength="209" x="1519" y="749.7408">+avskrivningsdato : datetime [0..1] [1..1]</text><text fill="#000000" font-family="sans-serif" font-size="11" lengthAdjust="spacingAndGlyphs" textLength="167" x="1519" y="764.7227">+avskrevetAv : string [0..1] [1..1]</text><text fill="#000000" font-family="sans-serif" font-size="11" lengthAdjust="spacingAndGlyphs" textLength="236" x="1519" y="779.7046">+referanseAvskrevetAv : SystemID [0..1] [1..1]</text><text fill="#000000" font-family="sans-serif" font-size="11" lengthAdjust="spacingAndGlyphs" textLength="270" x="1519" y="794.6865">+avskrivningsmaate : Avskrivningsmaate [0..1] [1..1]</text><text fill="#000000" font-family="sans-serif" font-size="11" lengthAdjust="spacingAndGlyphs" textLength="266" x="1519" y="809.6684">+referanseAvskrivesAvJournalpost : SystemID [0..1]</text><text fill="#000000" font-family="sans-serif" font-size="11" lengthAdjust="spacingAndGlyphs" textLength="314" x="1519" y="824.6502">+referanseAvskrivesAvKorrespondansepart : SystemID [0..1]</text><line style="stroke: #A80036; stroke-width: 1.5;" x1="1514" x2="1838" y1="831.8732" y2="831.8732"/><!--MD5=[7c92048d940987969f852eb2a77c0b2d]
class Sakarkiv.Dokumentflyt--><rect fill="#FEFECE" filter="url(#fxsveywygt24w)" height="182.837" id="Sakarkiv.Dokumentflyt" style="stroke: #A80036; stroke-width: 1.5;" width="220" x="1619" y="114.5"/><ellipse cx="1687.25" cy="130.5" fill="#ADD1B2" rx="11" ry="11" style="stroke: #A80036; stroke-width: 1.0;"/><path d="M1686.7188,137.4219 Q1684.9688,137.4219 1683.8281,136.6875 Q1682.7031,135.9375 1682.1406,134.5938 Q1681.5938,133.2344 1681.5938,131.4375 Q1681.5938,129.4063 1682.25,127.9531 Q1682.9063,126.5 1684.1875,125.7188 Q1685.4688,124.9375 1687.3438,124.9375 Q1688.2344,124.9375 1688.9063,125.125 Q1689.5781,125.2969 1690.2656,125.6406 L1689.4531,127.6563 Q1688.8281,127.3438 1688.2813,127.2188 Q1687.75,127.0938 1687.2656,127.0938 Q1686.0938,127.0938 1685.3906,127.625 Q1684.6875,128.1563 1684.3906,129.1094 Q1684.0938,130.0625 1684.0938,131.3281 Q1684.0938,133.3438 1684.8125,134.3125 Q1685.5313,135.2656 1687.125,135.2656 Q1687.7188,135.2656 1688.3438,135.1094 Q1688.9688,134.9531 1689.7969,134.5781 L1689.7969,136.7969 Q1689.0625,137.1094 1688.2656,137.2656 Q1687.4844,137.4219 1686.7188,137.4219 Z "/><text fill="#000000" font-family="sans-serif" font-size="12" lengthAdjust="spacingAndGlyphs" textLength="75" x="1707.75" y="135.156">Dokumentflyt</text><line style="stroke: #A80036; stroke-width: 1.5;" x1="1620" x2="1838" y1="146.5" y2="146.5"/><text fill="#000000" font-family="sans-serif" font-size="11" lengthAdjust="spacingAndGlyphs" textLength="170" x="1625" y="162.2589">+systemID : SystemID [0..1] [1..1]</text><text fill="#000000" font-family="sans-serif" font-size="11" lengthAdjust="spacingAndGlyphs" textLength="133" x="1625" y="177.2408">+flytTil : string [0..1] [1..1]</text><text fill="#000000" font-family="sans-serif" font-size="11" lengthAdjust="spacingAndGlyphs" textLength="203" x="1625" y="192.2227">+referanseFlytTil : SystemID [0..1] [1..1]</text><text fill="#000000" font-family="sans-serif" font-size="11" lengthAdjust="spacingAndGlyphs" textLength="138" x="1625" y="207.2046">+flytFra : string [0..1] [1..1]</text><text fill="#000000" font-family="sans-serif" font-size="11" lengthAdjust="spacingAndGlyphs" textLength="208" x="1625" y="222.1865">+referanseFlytFra : SystemID [0..1] [1..1]</text><text fill="#000000" font-family="sans-serif" font-size="11" lengthAdjust="spacingAndGlyphs" textLength="142" x="1625" y="237.1684">+flytMottattDato : datetime</text><text fill="#000000" font-family="sans-serif" font-size="11" lengthAdjust="spacingAndGlyphs" textLength="191" x="1625" y="252.1502">+flytSendtDato : datetime [0..1] [1..1]</text><text fill="#000000" font-family="sans-serif" font-size="11" lengthAdjust="spacingAndGlyphs" textLength="173" x="1625" y="267.1321">+flytStatus : FlytStatus [0..1] [1..1]</text><text fill="#000000" font-family="sans-serif" font-size="11" lengthAdjust="spacingAndGlyphs" textLength="139" x="1625" y="282.114">+flytMerknad : string [0..1]</text><line style="stroke: #A80036; stroke-width: 1.5;" x1="1620" x2="1838" y1="289.337" y2="289.337"/><!--MD5=[4df5b11f766642853213221570ce3455]
class Arkivstruktur.Korrespondansepart--><rect fill="#FEFECE" filter="url(#fxsveywygt24w)" height="92.9457" id="Arkivstruktur.Korrespondansepart" style="stroke: #A80036; stroke-width: 1.5;" width="385" x="603.5" y="159.5"/><ellipse cx="734.25" cy="175.5" fill="#ADD1B2" rx="11" ry="11" style="stroke: #A80036; stroke-width: 1.0;"/><path d="M733.7188,182.4219 Q731.9688,182.4219 730.8281,181.6875 Q729.7031,180.9375 729.1406,179.5938 Q728.5938,178.2344 728.5938,176.4375 Q728.5938,174.4063 729.25,172.9531 Q729.9063,171.5 731.1875,170.7188 Q732.4688,169.9375 734.3438,169.9375 Q735.2344,169.9375 735.9063,170.125 Q736.5781,170.2969 737.2656,170.6406 L736.4531,172.6563 Q735.8281,172.3438 735.2813,172.2188 Q734.75,172.0938 734.2656,172.0938 Q733.0938,172.0938 732.3906,172.625 Q731.6875,173.1563 731.3906,174.1094 Q731.0938,175.0625 731.0938,176.3281 Q731.0938,178.3438 731.8125,179.3125 Q732.5313,180.2656 734.125,180.2656 Q734.7188,180.2656 735.3438,180.1094 Q735.9688,179.9531 736.7969,179.5781 L736.7969,181.7969 Q736.0625,182.1094 735.2656,182.2656 Q734.4844,182.4219 733.7188,182.4219 Z "/><text fill="#000000" font-family="sans-serif" font-size="12" lengthAdjust="spacingAndGlyphs" textLength="115" x="754.75" y="180.156">Korrespondansepart</text><line style="stroke: #A80036; stroke-width: 1.5;" x1="604.5" x2="987.5" y1="191.5" y2="191.5"/><text fill="#000000" font-family="sans-serif" font-size="11" lengthAdjust="spacingAndGlyphs" textLength="170" x="609.5" y="207.2589">+systemID : SystemID [0..1] [1..1]</text><text fill="#000000" font-family="sans-serif" font-size="11" lengthAdjust="spacingAndGlyphs" textLength="336" x="609.5" y="222.2408">+korrespondanseparttype : Korrespondanseparttype [0..1] [1..1]</text><text fill="#000000" font-family="sans-serif" font-size="11" lengthAdjust="spacingAndGlyphs" textLength="373" x="609.5" y="237.2227">+virksomhetsspesifikkeMetadata : VirksomhetsspesifikkeMetadata [0..1]</text><line style="stroke: #A80036; stroke-width: 1.5;" x1="604.5" x2="987.5" y1="244.4457" y2="244.4457"/><!--MD5=[969f15578b48b8a37f6dcb3b1c0b6253]
class Arkivstruktur.Part--><rect fill="#FEFECE" filter="url(#fxsveywygt24w)" height="92.9457" id="Arkivstruktur.Part" style="stroke: #A80036; stroke-width: 1.5;" width="385" x="38.5" y="159.5"/><ellipse cx="215.25" cy="175.5" fill="#ADD1B2" rx="11" ry="11" style="stroke: #A80036; stroke-width: 1.0;"/><path d="M214.7188,182.4219 Q212.9688,182.4219 211.8281,181.6875 Q210.7031,180.9375 210.1406,179.5938 Q209.5938,178.2344 209.5938,176.4375 Q209.5938,174.4063 210.25,172.9531 Q210.9063,171.5 212.1875,170.7188 Q213.4688,169.9375 215.3438,169.9375 Q216.2344,169.9375 216.9063,170.125 Q217.5781,170.2969 218.2656,170.6406 L217.4531,172.6563 Q216.8281,172.3438 216.2813,172.2188 Q215.75,172.0938 215.2656,172.0938 Q214.0938,172.0938 213.3906,172.625 Q212.6875,173.1563 212.3906,174.1094 Q212.0938,175.0625 212.0938,176.3281 Q212.0938,178.3438 212.8125,179.3125 Q213.5313,180.2656 215.125,180.2656 Q215.7188,180.2656 216.3438,180.1094 Q216.9688,179.9531 217.7969,179.5781 L217.7969,181.7969 Q217.0625,182.1094 216.2656,182.2656 Q215.4844,182.4219 214.7188,182.4219 Z "/><text fill="#000000" font-family="sans-serif" font-size="12" lengthAdjust="spacingAndGlyphs" textLength="23" x="235.75" y="180.156">Part</text><line style="stroke: #A80036; stroke-width: 1.5;" x1="39.5" x2="422.5" y1="191.5" y2="191.5"/><text fill="#000000" font-family="sans-serif" font-size="11" lengthAdjust="spacingAndGlyphs" textLength="170" x="44.5" y="207.2589">+systemID : SystemID [0..1] [1..1]</text><text fill="#000000" font-family="sans-serif" font-size="11" lengthAdjust="spacingAndGlyphs" textLength="169" x="44.5" y="222.2408">+partRolle : PartRolle [0..1] [1..1]</text><text fill="#000000" font-family="sans-serif" font-size="11" lengthAdjust="spacingAndGlyphs" textLength="373" x="44.5" y="237.2227">+virksomhetsspesifikkeMetadata : VirksomhetsspesifikkeMetadata [0..1]</text><line style="stroke: #A80036; stroke-width: 1.5;" x1="39.5" x2="422.5" y1="244.4457" y2="244.4457"/><!--MD5=[81c1213fc4713bb18437fef78e8beaff]
class Kodelister.Journalposttype--><rect fill="#FEFECE" filter="url(#fxsveywygt24w)" height="133.5977" id="Kodelister.Journalposttype" style="stroke: #A80036; stroke-width: 1.5;" width="252" x="1042" y="1268"/><ellipse cx="1120.25" cy="1289.3441" fill="#ADD1B2" rx="11" ry="11" style="stroke: #A80036; stroke-width: 1.0;"/><path d="M1119.7188,1296.266 Q1117.9688,1296.266 1116.8281,1295.5316 Q1115.7031,1294.7816 1115.1406,1293.4379 Q1114.5938,1292.0785 1114.5938,1290.2816 Q1114.5938,1288.2504 1115.25,1286.7972 Q1115.9063,1285.3441 1117.1875,1284.5629 Q1118.4688,1283.7816 1120.3438,1283.7816 Q1121.2344,1283.7816 1121.9063,1283.9691 Q1122.5781,1284.141 1123.2656,1284.4847 L1122.4531,1286.5004 Q1121.8281,1286.1879 1121.2813,1286.0629 Q1120.75,1285.9379 1120.2656,1285.9379 Q1119.0938,1285.9379 1118.3906,1286.4691 Q1117.6875,1287.0004 1117.3906,1287.9535 Q1117.0938,1288.9066 1117.0938,1290.1722 Q1117.0938,1292.1879 1117.8125,1293.1566 Q1118.5313,1294.1097 1120.125,1294.1097 Q1120.7188,1294.1097 1121.3438,1293.9535 Q1121.9688,1293.7972 1122.7969,1293.4222 L1122.7969,1295.641 Q1122.0625,1295.9535 1121.2656,1296.1097 Q1120.4844,1296.266 1119.7188,1296.266 Z "/><text fill="#000000" font-family="sans-serif" font-size="12" font-style="italic" lengthAdjust="spacingAndGlyphs" textLength="52" x="1158.25" y="1285.8281">«codelist»</text><text fill="#000000" font-family="sans-serif" font-size="12" lengthAdjust="spacingAndGlyphs" textLength="87" x="1140.75" y="1302.1722">Journalposttype</text><line style="stroke: #A80036; stroke-width: 1.5;" x1="1043" x2="1293" y1="1310.6882" y2="1310.6882"/><text fill="#000000" font-family="sans-serif" font-size="11" lengthAdjust="spacingAndGlyphs" textLength="136" x="1048" y="1326.4471">+Inngående dokument = I</text><text fill="#000000" font-family="sans-serif" font-size="11" lengthAdjust="spacingAndGlyphs" textLength="134" x="1048" y="1341.429">+Utgående dokument = U</text><text fill="#000000" font-family="sans-serif" font-size="11" lengthAdjust="spacingAndGlyphs" textLength="234" x="1048" y="1356.4109">+Organinternt dokument for oppfølging = N</text><text fill="#000000" font-family="sans-serif" font-size="11" lengthAdjust="spacingAndGlyphs" textLength="240" x="1048" y="1371.3928">+Organinternt dokument uten oppfølging = X</text><text fill="#000000" font-family="sans-serif" font-size="11" lengthAdjust="spacingAndGlyphs" textLength="95" x="1048" y="1386.3747">+Saksframlegg = S</text><line style="stroke: #A80036; stroke-width: 1.5;" x1="1043" x2="1293" y1="1393.5977" y2="1393.5977"/><!--MD5=[13c0c61b981c0812641826782d8ab335]
class Kodelister.Journalstatus--><rect fill="#FEFECE" filter="url(#fxsveywygt24w)" height="193.5252" id="Kodelister.Journalstatus" style="stroke: #A80036; stroke-width: 1.5;" width="307" x="1474.5" y="1238"/><ellipse cx="1587.25" cy="1259.3441" fill="#ADD1B2" rx="11" ry="11" style="stroke: #A80036; stroke-width: 1.0;"/><path d="M1586.7188,1266.266 Q1584.9688,1266.266 1583.8281,1265.5316 Q1582.7031,1264.7816 1582.1406,1263.4379 Q1581.5938,1262.0785 1581.5938,1260.2816 Q1581.5938,1258.2504 1582.25,1256.7972 Q1582.9063,1255.3441 1584.1875,1254.5629 Q1585.4688,1253.7816 1587.3438,1253.7816 Q1588.2344,1253.7816 1588.9063,1253.9691 Q1589.5781,1254.141 1590.2656,1254.4847 L1589.4531,1256.5004 Q1588.8281,1256.1879 1588.2813,1256.0629 Q1587.75,1255.9379 1587.2656,1255.9379 Q1586.0938,1255.9379 1585.3906,1256.4691 Q1584.6875,1257.0004 1584.3906,1257.9535 Q1584.0938,1258.9066 1584.0938,1260.1722 Q1584.0938,1262.1879 1584.8125,1263.1566 Q1585.5313,1264.1097 1587.125,1264.1097 Q1587.7188,1264.1097 1588.3438,1263.9535 Q1588.9688,1263.7972 1589.7969,1263.4222 L1589.7969,1265.641 Q1589.0625,1265.9535 1588.2656,1266.1097 Q1587.4844,1266.266 1586.7188,1266.266 Z "/><text fill="#000000" font-family="sans-serif" font-size="12" font-style="italic" lengthAdjust="spacingAndGlyphs" textLength="52" x="1618.25" y="1255.8281">«codelist»</text><text fill="#000000" font-family="sans-serif" font-size="12" lengthAdjust="spacingAndGlyphs" textLength="73" x="1607.75" y="1272.1722">Journalstatus</text><line style="stroke: #A80036; stroke-width: 1.5;" x1="1475.5" x2="1780.5" y1="1280.6882" y2="1280.6882"/><text fill="#000000" font-family="sans-serif" font-size="11" lengthAdjust="spacingAndGlyphs" textLength="79" x="1480.5" y="1296.4471">+Journalført = J</text><text fill="#000000" font-family="sans-serif" font-size="11" lengthAdjust="spacingAndGlyphs" textLength="174" x="1480.5" y="1311.429">+Ferdigstilt fra saksbehandler = F</text><text fill="#000000" font-family="sans-serif" font-size="11" lengthAdjust="spacingAndGlyphs" textLength="119" x="1480.5" y="1326.4109">+Godkjent av leder = G</text><text fill="#000000" font-family="sans-serif" font-size="11" lengthAdjust="spacingAndGlyphs" textLength="76" x="1480.5" y="1341.3928">+Ekspedert = E</text><text fill="#000000" font-family="sans-serif" font-size="11" lengthAdjust="spacingAndGlyphs" textLength="67" x="1480.5" y="1356.3747">+Arkivert = A</text><text fill="#000000" font-family="sans-serif" font-size="11" lengthAdjust="spacingAndGlyphs" textLength="56" x="1480.5" y="1371.3566">+Utgår = U</text><text fill="#000000" font-family="sans-serif" font-size="11" lengthAdjust="spacingAndGlyphs" textLength="287" x="1480.5" y="1386.3385">+Midlertidig registrering av innkommet dokument = M</text><text fill="#000000" font-family="sans-serif" font-size="11" lengthAdjust="spacingAndGlyphs" textLength="295" x="1480.5" y="1401.3204">+Saksbehandler har registrert innkommet dokument = S</text><text fill="#000000" font-family="sans-serif" font-size="11" lengthAdjust="spacingAndGlyphs" textLength="132" x="1480.5" y="1416.3022">+Reservert dokument = R</text><line style="stroke: #A80036; stroke-width: 1.5;" x1="1475.5" x2="1780.5" y1="1423.5252" y2="1423.5252"/><!--MD5=[3127db0296e8a8d516cdec4cb5cae7ee]
class Kodelister.FlytStatus--><rect fill="#FEFECE" filter="url(#fxsveywygt24w)" height="103.6339" id="Kodelister.FlytStatus" style="stroke: #A80036; stroke-width: 1.5;" width="297" x="1961.5" y="1283"/><ellipse cx="2078.75" cy="1304.3441" fill="#ADD1B2" rx="11" ry="11" style="stroke: #A80036; stroke-width: 1.0;"/><path d="M2078.2188,1311.266 Q2076.4688,1311.266 2075.3281,1310.5316 Q2074.2031,1309.7816 2073.6406,1308.4379 Q2073.0938,1307.0785 2073.0938,1305.2816 Q2073.0938,1303.2504 2073.75,1301.7972 Q2074.4063,1300.3441 2075.6875,1299.5629 Q2076.9688,1298.7816 2078.8438,1298.7816 Q2079.7344,1298.7816 2080.4063,1298.9691 Q2081.0781,1299.141 2081.7656,1299.4847 L2080.9531,1301.5004 Q2080.3281,1301.1879 2079.7813,1301.0629 Q2079.25,1300.9379 2078.7656,1300.9379 Q2077.5938,1300.9379 2076.8906,1301.4691 Q2076.1875,1302.0004 2075.8906,1302.9535 Q2075.5938,1303.9066 2075.5938,1305.1722 Q2075.5938,1307.1879 2076.3125,1308.1566 Q2077.0313,1309.1097 2078.625,1309.1097 Q2079.2188,1309.1097 2079.8438,1308.9535 Q2080.4688,1308.7972 2081.2969,1308.4222 L2081.2969,1310.641 Q2080.5625,1310.9535 2079.7656,1311.1097 Q2078.9844,1311.266 2078.2188,1311.266 Z "/><text fill="#000000" font-family="sans-serif" font-size="12" font-style="italic" lengthAdjust="spacingAndGlyphs" textLength="52" x="2100.25" y="1300.8281">«codelist»</text><text fill="#000000" font-family="sans-serif" font-size="12" lengthAdjust="spacingAndGlyphs" textLength="54" x="2099.25" y="1317.1722">FlytStatus</text><line style="stroke: #A80036; stroke-width: 1.5;" x1="1962.5" x2="2257.5" y1="1325.6882" y2="1325.6882"/><text fill="#000000" font-family="sans-serif" font-size="11" lengthAdjust="spacingAndGlyphs" textLength="74" x="1967.5" y="1341.4471">+Godkjent = G</text><text fill="#000000" font-family="sans-serif" font-size="11" lengthAdjust="spacingAndGlyphs" textLength="94" x="1967.5" y="1356.429">+Ikke godkjent = I</text><text fill="#000000" font-family="sans-serif" font-size="11" lengthAdjust="spacingAndGlyphs" textLength="285" x="1967.5" y="1371.4109">+Sendt tilbake til saksbehandler med kommentarer = S</text><line style="stroke: #A80036; stroke-width: 1.5;" x1="1962.5" x2="2257.5" y1="1378.6339" y2="1378.6339"/><!--MD5=[a4c9a733d274e8de229f7b38ff301ab6]
reverse link Kodelister.FlytStatus to Sakarkiv.Dokumentflyt--><!--MD5=[d35b5c944822433aa3ea1654743eb730]
link Sakarkiv.Dokumentflyt to Sakarkiv.Journalpost--><path d="M1607.92,296.67 C1582.21,314.83 1554.98,333.43 1529,350 C1483.36,379.12 1462.13,372.59 1423,410 C1393.07,438.61 1339.9398,507.7991 1339.9398,507.7991 " fill="none" id="Sakarkiv.Dokumentflyt-Sakarkiv.Journalpost" style="stroke: #A80036; stroke-width: 1.0;"/><polygon fill="#A80036" points="1333.03,517.61,1339.7552,515.0078,1339.9398,507.7991,1333.2146,510.4013,1333.03,517.61" style="stroke: #A80036; stroke-width: 1.0;"/><polygon fill="#A80036" points="1618.83,288.92,1609.1762,290.8703,1614.7536,291.8153,1613.8086,297.3926,1618.83,288.92" style="stroke: #A80036; stroke-width: 1.0;"/><line style="stroke: #A80036; stroke-width: 1.0;" x1="1614.7536" x2="1608.235" y1="291.8153" y2="296.44"/><text fill="#000000" font-family="sans-serif" font-size="13" lengthAdjust="spacingAndGlyphs" textLength="112" x="1498.7811" y="289.4428">+dokumentflyt 0..*</text><!--MD5=[b55db0a393afae1a83bf1d13fc8a3ec3]
link Arkivstruktur.Korrespondansepart to Sakarkiv.Journalpost--><path d="M837.28,263.48 C889.97,335.57 1063.9008,573.5506 1063.9008,573.5506 " fill="none" id="Arkivstruktur.Korrespondansepart-Sakarkiv.Journalpost" style="stroke: #A80036; stroke-width: 1.0;"/><polygon fill="#A80036" points="1070.98,583.24,1070.6702,576.0356,1063.9008,573.5506,1064.2106,580.755,1070.98,583.24" style="stroke: #A80036; stroke-width: 1.0;"/><polygon fill="#A80036" points="829.57,252.93,831.6558,262.5554,832.5223,256.9653,838.1124,257.8318,829.57,252.93" style="stroke: #A80036; stroke-width: 1.0;"/><line style="stroke: #A80036; stroke-width: 1.0;" x1="832.5223" x2="837.24" y1="256.9653" y2="263.425"/><text fill="#000000" font-family="sans-serif" font-size="13" lengthAdjust="spacingAndGlyphs" textLength="153" x="670.8013" y="274.3265">+korrespondansepart 0..*</text><!--MD5=[bde051bdec1316fd53a036b8836aa86f]
link Arkivstruktur.Part to Sakarkiv.Journalpost--><path d="M322.21,259.18 C491.81,356.21 1060.2143,681.3907 1060.2143,681.3907 " fill="none" id="Arkivstruktur.Part-Sakarkiv.Journalpost" style="stroke: #A80036; stroke-width: 1.0;"/><polygon fill="#A80036" points="1070.63,687.35,1067.4086,680.8984,1060.2143,681.3907,1063.4357,687.8422,1070.63,687.35" style="stroke: #A80036; stroke-width: 1.0;"/><polygon fill="#A80036" points="310.87,252.69,316.6953,260.6314,315.2099,255.1731,320.6682,253.6876,310.87,252.69" style="stroke: #A80036; stroke-width: 1.0;"/><line style="stroke: #A80036; stroke-width: 1.0;" x1="315.2099" x2="322.16" y1="255.1731" y2="259.15"/><text fill="#000000" font-family="sans-serif" font-size="13" lengthAdjust="spacingAndGlyphs" textLength="55" x="263.2345" y="274.4016">+part 0..*</text><!--MD5=[088e66385af5865b5febf80e04c0503c]
link Sakarkiv.Presedens to Sakarkiv.Journalpost--><path d="M1275.34,363.11 C1273.33,374.04 1268.9329,397.9565 1268.9329,397.9565 " fill="none" id="Sakarkiv.Presedens-Sakarkiv.Journalpost" style="stroke: #A80036; stroke-width: 1.0;"/><polygon fill="#FFFFFF" points="1266.77,409.76,1271.7859,404.5792,1268.9329,397.9565,1263.9169,403.1373,1266.77,409.76" style="stroke: #A80036; stroke-width: 1.0;"/><polygon fill="#A80036" points="1277.73,350.06,1272.1734,358.1916,1276.8288,354.9781,1280.0423,359.6336,1277.73,350.06" style="stroke: #A80036; stroke-width: 1.0;"/><line style="stroke: #A80036; stroke-width: 1.0;" x1="1276.8288" x2="1275.385" y1="354.9781" y2="362.84"/><text fill="#000000" font-family="sans-serif" font-size="13" lengthAdjust="spacingAndGlyphs" textLength="92" x="1182.2294" y="371.3708">+presedens 0..*</text><text fill="#000000" font-family="sans-serif" font-size="13" lengthAdjust="spacingAndGlyphs" textLength="99" x="1168.1279" y="398.1729">+journalpost 0..*</text><!--MD5=[3de69eabb378473b17ad160888b26a49]
link Sakarkiv.Journalpost to Sakarkiv.Avskrivning--><path d="M1345.46,763.5 C1345.46,763.5 1448.57,763.5 1499.47,763.5 " fill="none" id="Sakarkiv.Journalpost-Sakarkiv.Avskrivning" style="stroke: #A80036; stroke-width: 1.0;"/><polygon fill="#A80036" points="1512.76,763.5,1503.76,759.5,1507.76,763.5,1503.76,767.5,1512.76,763.5" style="stroke: #A80036; stroke-width: 1.0;"/><line style="stroke: #A80036; stroke-width: 1.0;" x1="1507.76" x2="1499.76" y1="763.5" y2="763.5"/><polygon fill="#A80036" points="1333.46,763.5,1339.46,767.5,1345.46,763.5,1339.46,759.5,1333.46,763.5" style="stroke: #A80036; stroke-width: 1.0;"/><text fill="#000000" font-family="sans-serif" font-size="13" lengthAdjust="spacingAndGlyphs" textLength="99" x="1406.1147" y="760.1065">+avskrivning 0..*</text><!--MD5=[aa98442a437a484a8f9c7dec8792ac8f]
reverse link Sakarkiv.Journalpost to Kodelister.Journalposttype--><!--MD5=[8b1030fe79f36d0c33df6299b37736b9]
reverse link Sakarkiv.Journalpost to Kodelister.Journalstatus--><!--MD5=[12e442266da417336ab7d278f0e9cadf]
@startuml
skinparam classAttributeIconSize 0
skinparam nodesep 180

class Sakarkiv.Journalpost <Registrering> {
  +journalaar : integer [0..1]
  +journalsekvensnummer : integer [0..1]
  +journalpostnummer : integer [0..1]
  +journalposttype : Journalposttype
  +journalstatus : Journalstatus
  +journaldato : date
  +dokumentetsDato : date [0..1]
  +mottattDato : date [0..1]
  +sendtDato : date [0..1]
  +forfallsdato : date [0..1]
  +offentlighetsvurdertDato : date [0..1]
  +antallVedlegg : integer [0..1]
  +utlantDato : date [0..1]
  +utlaantTil : string [0..1]
  +referanseUtlaantTil : SystemID [0..1]
  +journalenhet : string [0..1]
  +elektroniskSignatur : ElektroniskSignatur [0..1]

  - - Registrering - -
  +arkivertDato : datetime [0..1]
  +arkivertAv : string [0..1]
  +referanseArkivertAv : SystemID [0..1]
  +kassasjon : Kassasjon [0..1]
  +skjerming : Skjerming [0..1]
  +gradering : Gradering [0..1]
  +referanseArkivdel : SystemID [0..1]
  +registreringID : string [0..1]
  +tittel : string
  +offentligTittel : string [0..1]
  +beskrivelse : string [0..1]
  +noekkelord : string [0..*]
  +forfatter : string [0..*]
  +dokumentmedium : Dokumentmedium [0..1]
  +oppbevaringssted : string [0..*]
  +virksomhetsspesifikkeMetadata : any [0..1]

  - - Arkivenhet - -
  +systemID : SystemID [0..1]
  +endretDato : datetime [0..1]
  +opprettetDato : datetime [0..1]
  +opprettetAv : string [0..1]
  +endretAv : string [0..1]
  +referanseOppdatertAv : SystemID [0..1]
  +referanseOpprettetAv : SystemID [0..1]
}
class Arkivstruktur.Korrespondansepart {
  +systemID : SystemID [0..1] [1..1]
  +korrespondanseparttype : Korrespondanseparttype [0..1] [1..1]
  +virksomhetsspesifikkeMetadata : VirksomhetsspesifikkeMetadata [0..1]
}
class Arkivstruktur.Part {
  +systemID : SystemID [0..1] [1..1]
  +partRolle : PartRolle [0..1] [1..1]
  +virksomhetsspesifikkeMetadata : VirksomhetsspesifikkeMetadata [0..1]
}
class Sakarkiv.Presedens {
  +systemID : SystemID [0..1] [1..1]
  +presedensDato : datetime [0..1] [1..1]
  +opprettetDato : datetime [0..1] [1..1]
  +opprettetAv : string [0..1] [1..1]
  +referanseOpprettetAv : SystemID [0..1] [1..1]
  +tittel : string
  +beskrivelse : string [0..1]
  +presedensHjemmel : string [0..1]
  +rettskildefaktor : string
  +presedensGodkjentDato : datetime [0..1]
  +presedensGodkjentAv : string [0..1]
  +referansePresedensGodkjentAv : SystemID [0..1]
  +avsluttetDato : datetime [0..1]
  +avsluttetAv : string [0..1]
  +referanseAvsluttetAv : SystemID [0..1]
  +presedensStatus : PresedensStatus [0..1]
}
class Sakarkiv.Avskrivning {
  +systemID : SystemID [0..1] [1..1]
  +avskrivningsdato : datetime [0..1] [1..1]
  +avskrevetAv : string [0..1] [1..1]
  +referanseAvskrevetAv : SystemID [0..1] [1..1]
  +avskrivningsmaate : Avskrivningsmaate [0..1] [1..1]
  +referanseAvskrivesAvJournalpost : SystemID [0..1]
  +referanseAvskrivesAvKorrespondansepart : SystemID [0..1]
}
class Sakarkiv.Dokumentflyt {
  +systemID : SystemID [0..1] [1..1]
  +flytTil : string [0..1] [1..1]
  +referanseFlytTil : SystemID [0..1] [1..1]
  +flytFra : string [0..1] [1..1]
  +referanseFlytFra : SystemID [0..1] [1..1]
  +flytMottattDato : datetime
  +flytSendtDato : datetime [0..1] [1..1]
  +flytStatus : FlytStatus [0..1] [1..1]
  +flytMerknad : string [0..1]
}
class Kodelister.Journalposttype <<codelist>> {
  +Inngående dokument = I
  +Utgående dokument = U
  +Organinternt dokument for oppfølging = N
  +Organinternt dokument uten oppfølging = X
  +Saksframlegg = S
}
class Kodelister.Journalstatus <<codelist>> {
  +Journalført = J
  +Ferdigstilt fra saksbehandler = F
  +Godkjent av leder = G
  +Ekspedert = E
  +Arkivert = A
  +Utgår = U
  +Midlertidig registrering av innkommet dokument = M
  +Saksbehandler har registrert innkommet dokument = S
  +Reservert dokument = R
}
class Kodelister.FlytStatus <<codelist>> {
  +Godkjent = G
  +Ikke godkjent = I
  +Sendt tilbake til saksbehandler med kommentarer = S
}

Kodelister.FlytStatus <-[hidden]- - Sakarkiv.Dokumentflyt
Sakarkiv.Dokumentflyt "+dokumentflyt 0..*" <- -* Sakarkiv.Journalpost
Arkivstruktur.Korrespondansepart "+korrespondansepart 0..*" <- -* Sakarkiv.Journalpost
Arkivstruktur.Part "+part 0..*" <- -* Sakarkiv.Journalpost
Sakarkiv.Presedens "+presedens 0..*" <- -o "+journalpost 0..*" Sakarkiv.Journalpost
Sakarkiv.Journalpost *-> "+avskrivning 0..*" Sakarkiv.Avskrivning
Sakarkiv.Journalpost <-[hidden]- - Kodelister.Journalposttype
Sakarkiv.Journalpost <-[hidden]- - Kodelister.Journalstatus
@enduml

PlantUML version 1.2020.02(Sun Mar 01 11:22:07 CET 2020)
(GPL source distribution)
Java Runtime: OpenJDK Runtime Environment
JVM: OpenJDK 64-Bit Server VM
Java Version: 17.0.6+10-Debian-1
Operating System: Linux
Default Encoding: UTF-8
Language: en
Country: US
--></g></svg>