<?xml version="1.0" encoding="UTF-8" standalone="no"?><svg xmlns="http://www.w3.org/2000/svg" xmlns:xlink="http://www.w3.org/1999/xlink" contentScriptType="application/ecmascript" contentStyleType="text/css" height="481px" preserveAspectRatio="none" style="width:330px;height:481px;" version="1.1" viewBox="0 0 330 481" width="330px" zoomAndPan="magnify"><defs><filter height="300%" id="fnxx3b81k9hw6" width="300%" x="-1" y="-1"><feGaussianBlur result="blurOut" stdDeviation="2.0"/><feColorMatrix in="blurOut" result="blurOut2" type="matrix" values="0 0 0 0 0 0 0 0 0 0 0 0 0 0 0 0 0 0 .4 0"/><feOffset dx="4.0" dy="4.0" in="blurOut2" result="blurOut3"/><feBlend in="SourceGraphic" in2="blurOut3" mode="normal"/></filter></defs><g><!--MD5=[232c485b1f52e07d9ce0910f7499e2a6]
cluster Arkivstruktur--><polygon fill="#FFFFFF" filter="url(#fnxx3b81k9hw6)" points="22,24,123,24,130,49.0679,308,49.0679,308,242,22,242,22,24" style="stroke: #000000; stroke-width: 1.5;"/><line style="stroke: #000000; stroke-width: 1.5;" x1="22" x2="130" y1="49.0679" y2="49.0679"/><text fill="#000000" font-family="sans-serif" font-size="14" font-weight="bold" lengthAdjust="spacingAndGlyphs" textLength="95" x="26" y="40.9659">Arkivstruktur</text><!--MD5=[68eac0387a028fbb729470faa528465a]
cluster Kodelister--><polygon fill="#FFFFFF" filter="url(#fnxx3b81k9hw6)" points="36,266,112,266,119,291.0679,294,291.0679,294,469,36,469,36,266" style="stroke: #000000; stroke-width: 1.5;"/><line style="stroke: #000000; stroke-width: 1.5;" x1="36" x2="119" y1="291.0679" y2="291.0679"/><text fill="#000000" font-family="sans-serif" font-size="14" font-weight="bold" lengthAdjust="spacingAndGlyphs" textLength="70" x="40" y="282.9659">Kodelister</text><!--MD5=[3d4783542a6aba5bb9f20d74c774f5a6]
class Arkivstruktur.Gradering--><rect fill="#FEFECE" filter="url(#fnxx3b81k9hw6)" height="163.5614" id="Arkivstruktur.Gradering" style="stroke: #A80036; stroke-width: 1.5;" width="254" x="38" y="62"/><ellipse cx="131.75" cy="83.3441" fill="#ADD1B2" rx="11" ry="11" style="stroke: #A80036; stroke-width: 1.0;"/><path d="M131.2188,90.266 Q129.4688,90.266 128.3281,89.5316 Q127.2031,88.7816 126.6406,87.4379 Q126.0938,86.0785 126.0938,84.2816 Q126.0938,82.2504 126.75,80.7972 Q127.4063,79.3441 128.6875,78.5629 Q129.9688,77.7816 131.8438,77.7816 Q132.7344,77.7816 133.4063,77.9691 Q134.0781,78.141 134.7656,78.4847 L133.9531,80.5004 Q133.3281,80.1879 132.7813,80.0629 Q132.25,79.9379 131.7656,79.9379 Q130.5938,79.9379 129.8906,80.4691 Q129.1875,81.0004 128.8906,81.9535 Q128.5938,82.9066 128.5938,84.1722 Q128.5938,86.1879 129.3125,87.1566 Q130.0313,88.1097 131.625,88.1097 Q132.2188,88.1097 132.8438,87.9535 Q133.4688,87.7972 134.2969,87.4222 L134.2969,89.641 Q133.5625,89.9535 132.7656,90.1097 Q131.9844,90.266 131.2188,90.266 Z "/><text fill="#000000" font-family="sans-serif" font-size="12" font-style="italic" lengthAdjust="spacingAndGlyphs" textLength="62" x="150.25" y="79.8281">«dataType»</text><text fill="#000000" font-family="sans-serif" font-size="12" lengthAdjust="spacingAndGlyphs" textLength="57" x="152.75" y="96.1722">Gradering</text><line style="stroke: #A80036; stroke-width: 1.5;" x1="39" x2="291" y1="104.6882" y2="104.6882"/><text fill="#000000" font-family="sans-serif" font-size="11" lengthAdjust="spacingAndGlyphs" textLength="242" x="44" y="120.4471">+graderingskode : Graderingskode [0..1] [1..1]</text><text fill="#000000" font-family="sans-serif" font-size="11" lengthAdjust="spacingAndGlyphs" textLength="201" x="44" y="135.429">+graderingsdato : datetime [0..1] [1..1]</text><text fill="#000000" font-family="sans-serif" font-size="11" lengthAdjust="spacingAndGlyphs" textLength="157" x="44" y="150.4109">+gradertAv : string [0..1] [1..1]</text><text fill="#000000" font-family="sans-serif" font-size="11" lengthAdjust="spacingAndGlyphs" textLength="226" x="44" y="165.3928">+referanseGradertAv : SystemID [0..1] [1..1]</text><text fill="#000000" font-family="sans-serif" font-size="11" lengthAdjust="spacingAndGlyphs" textLength="192" x="44" y="180.3747">+nedgraderingsdato : datetime [0..1]</text><text fill="#000000" font-family="sans-serif" font-size="11" lengthAdjust="spacingAndGlyphs" textLength="148" x="44" y="195.3566">+nedgradertAv : string [0..1]</text><text fill="#000000" font-family="sans-serif" font-size="11" lengthAdjust="spacingAndGlyphs" textLength="217" x="44" y="210.3385">+referanseNedgradertAv : SystemID [0..1]</text><line style="stroke: #A80036; stroke-width: 1.5;" x1="39" x2="291" y1="217.5614" y2="217.5614"/><!--MD5=[cc6b5ef23d99536e85e508dadfef6b54]
class Kodelister.Graderingskode--><rect fill="#FEFECE" filter="url(#fnxx3b81k9hw6)" height="148.5796" id="Kodelister.Graderingskode" style="stroke: #A80036; stroke-width: 1.5;" width="226" x="52" y="304"/><ellipse cx="115.75" cy="325.3441" fill="#ADD1B2" rx="11" ry="11" style="stroke: #A80036; stroke-width: 1.0;"/><path d="M115.2188,332.266 Q113.4688,332.266 112.3281,331.5316 Q111.2031,330.7816 110.6406,329.4379 Q110.0938,328.0785 110.0938,326.2816 Q110.0938,324.2504 110.75,322.7972 Q111.4063,321.3441 112.6875,320.5629 Q113.9688,319.7816 115.8438,319.7816 Q116.7344,319.7816 117.4063,319.9691 Q118.0781,320.141 118.7656,320.4847 L117.9531,322.5004 Q117.3281,322.1879 116.7813,322.0629 Q116.25,321.9379 115.7656,321.9379 Q114.5938,321.9379 113.8906,322.4691 Q113.1875,323.0004 112.8906,323.9535 Q112.5938,324.9066 112.5938,326.1722 Q112.5938,328.1879 113.3125,329.1566 Q114.0313,330.1097 115.625,330.1097 Q116.2188,330.1097 116.8438,329.9535 Q117.4688,329.7972 118.2969,329.4222 L118.2969,331.641 Q117.5625,331.9535 116.7656,332.1097 Q115.9844,332.266 115.2188,332.266 Z "/><text fill="#000000" font-family="sans-serif" font-size="12" font-style="italic" lengthAdjust="spacingAndGlyphs" textLength="52" x="155.25" y="321.8281">«codelist»</text><text fill="#000000" font-family="sans-serif" font-size="12" lengthAdjust="spacingAndGlyphs" textLength="90" x="136.25" y="338.1722">Graderingskode</text><line style="stroke: #A80036; stroke-width: 1.5;" x1="53" x2="277" y1="346.6882" y2="346.6882"/><text fill="#000000" font-family="sans-serif" font-size="11" lengthAdjust="spacingAndGlyphs" textLength="213" x="58" y="362.4471">+Strengt hemmelig (sikkerhetsgrad) = SH</text><text fill="#000000" font-family="sans-serif" font-size="11" lengthAdjust="spacingAndGlyphs" textLength="166" x="58" y="377.429">+Hemmelig (sikkerhetsgrad) = H</text><text fill="#000000" font-family="sans-serif" font-size="11" lengthAdjust="spacingAndGlyphs" textLength="181" x="58" y="392.4109">+Konfidensielt (sikkerhetsgrad) = K</text><text fill="#000000" font-family="sans-serif" font-size="11" lengthAdjust="spacingAndGlyphs" textLength="165" x="58" y="407.3928">+Begrenset (sikkerhetsgrad) = B</text><text fill="#000000" font-family="sans-serif" font-size="11" lengthAdjust="spacingAndGlyphs" textLength="168" x="58" y="422.3747">+Fortrolig (beskyttelsesgrad) = F</text><text fill="#000000" font-family="sans-serif" font-size="11" lengthAdjust="spacingAndGlyphs" textLength="214" x="58" y="437.3566">+Strengt fortrolig (beskyttelsesgrad) = SF</text><line style="stroke: #A80036; stroke-width: 1.5;" x1="53" x2="277" y1="444.5796" y2="444.5796"/><!--MD5=[5c6b6f07380253b2587c90dc0a43e2e9]
link Arkivstruktur.Gradering to Kodelister.Graderingskode--><!--MD5=[d710864873dcc342cefada67824a82de]
@startuml
skinparam classAttributeIconSize 0

class Arkivstruktur.Gradering <<dataType>> {
  +graderingskode : Graderingskode [0..1] [1..1]
  +graderingsdato : datetime [0..1] [1..1]
  +gradertAv : string [0..1] [1..1]
  +referanseGradertAv : SystemID [0..1] [1..1]
  +nedgraderingsdato : datetime [0..1]
  +nedgradertAv : string [0..1]
  +referanseNedgradertAv : SystemID [0..1]
}
class Kodelister.Graderingskode <<codelist>> {
  {field} +Strengt hemmelig (sikkerhetsgrad) = SH
  {field} +Hemmelig (sikkerhetsgrad) = H
  {field} +Konfidensielt (sikkerhetsgrad) = K
  {field} +Begrenset (sikkerhetsgrad) = B
  {field} +Fortrolig (beskyttelsesgrad) = F
  {field} +Strengt fortrolig (beskyttelsesgrad) = SF
}

Arkivstruktur.Gradering -[hidden]-> Kodelister.Graderingskode
@enduml

PlantUML version 1.2020.02(Sun Mar 01 11:22:07 CET 2020)
(GPL source distribution)
Java Runtime: OpenJDK Runtime Environment
JVM: OpenJDK 64-Bit Server VM
Java Version: 17.0.6+10-Debian-1
Operating System: Linux
Default Encoding: UTF-8
Language: en
Country: US
--></g></svg>