<?xml version="1.0" encoding="UTF-8" standalone="no"?><svg xmlns="http://www.w3.org/2000/svg" xmlns:xlink="http://www.w3.org/1999/xlink" contentScriptType="application/ecmascript" contentStyleType="text/css" height="339px" preserveAspectRatio="none" style="width:2037px;height:339px;" version="1.1" viewBox="0 0 2037 339" width="2037px" zoomAndPan="magnify"><defs><filter height="300%" id="fnqh1zyy0x4k9" width="300%" x="-1" y="-1"><feGaussianBlur result="blurOut" stdDeviation="2.0"/><feColorMatrix in="blurOut" result="blurOut2" type="matrix" values="0 0 0 0 0 0 0 0 0 0 0 0 0 0 0 0 0 0 .4 0"/><feOffset dx="4.0" dy="4.0" in="blurOut2" result="blurOut3"/><feBlend in="SourceGraphic" in2="blurOut3" mode="normal"/></filter></defs><g><!--MD5=[232c485b1f52e07d9ce0910f7499e2a6]
cluster Arkivstruktur--><polygon fill="#FFFFFF" filter="url(#fnqh1zyy0x4k9)" points="22,24,123,24,130,49.0679,1818,49.0679,1818,327,22,327,22,24" style="stroke: #000000; stroke-width: 1.5;"/><line style="stroke: #000000; stroke-width: 1.5;" x1="22" x2="130" y1="49.0679" y2="49.0679"/><text fill="#000000" font-family="sans-serif" font-size="14" font-weight="bold" lengthAdjust="spacingAndGlyphs" textLength="95" x="26" y="40.9659">Arkivstruktur</text><!--MD5=[fae53719828d8975cada50749df5e1ce]
cluster LoggingOgSporing--><polygon fill="#FFFFFF" filter="url(#fnqh1zyy0x4k9)" points="1868,231,2005,231,2012,256.0679,2015,256.0679,2015,327,1868,327,1868,231" style="stroke: #000000; stroke-width: 1.5;"/><line style="stroke: #000000; stroke-width: 1.5;" x1="1868" x2="2012" y1="256.0679" y2="256.0679"/><text fill="#000000" font-family="sans-serif" font-size="14" font-weight="bold" lengthAdjust="spacingAndGlyphs" textLength="131" x="1872" y="247.9659">LoggingOgSporing</text><!--MD5=[5361e6f8e145469a00ddfe2005186efd]
class Arkivstruktur.Arkivenhet--><rect fill="#FEFECE" filter="url(#fnqh1zyy0x4k9)" height="147.2173" id="Arkivstruktur.Arkivenhet" style="stroke: #A80036; stroke-width: 1.5;" width="257" x="891.5" y="62"/><text fill="#000000" font-family="sans-serif" font-size="12" lengthAdjust="spacingAndGlyphs" textLength="60" x="990" y="79.8281">Arkivenhet</text><line style="stroke: #A80036; stroke-width: 1.5;" x1="892.5" x2="1147.5" y1="88.3441" y2="88.3441"/><ellipse cx="902.5" cy="99.3441" fill="none" rx="3" ry="3" style="stroke: #038048; stroke-width: 1.0;"/><text fill="#000000" font-family="sans-serif" font-size="11" lengthAdjust="spacingAndGlyphs" textLength="164" x="911.5" y="104.103">systemID : SystemID [0..1] [1..1]</text><ellipse cx="902.5" cy="114.326" fill="none" rx="3" ry="3" style="stroke: #038048; stroke-width: 1.0;"/><text fill="#000000" font-family="sans-serif" font-size="11" lengthAdjust="spacingAndGlyphs" textLength="144" x="911.5" y="119.0849">endretDato : datetime [0..1]</text><ellipse cx="902.5" cy="129.3079" fill="none" rx="3" ry="3" style="stroke: #038048; stroke-width: 1.0;"/><text fill="#000000" font-family="sans-serif" font-size="11" lengthAdjust="spacingAndGlyphs" textLength="188" x="911.5" y="134.0668">opprettetDato : datetime [0..1] [1..1]</text><ellipse cx="902.5" cy="144.2898" fill="none" rx="3" ry="3" style="stroke: #038048; stroke-width: 1.0;"/><text fill="#000000" font-family="sans-serif" font-size="11" lengthAdjust="spacingAndGlyphs" textLength="161" x="911.5" y="149.0487">opprettetAv : string [0..1] [1..1]</text><ellipse cx="902.5" cy="159.2717" fill="none" rx="3" ry="3" style="stroke: #038048; stroke-width: 1.0;"/><text fill="#000000" font-family="sans-serif" font-size="11" lengthAdjust="spacingAndGlyphs" textLength="146" x="911.5" y="164.0306">endretAv : string [0..1] [1..1]</text><ellipse cx="902.5" cy="174.2536" fill="none" rx="3" ry="3" style="stroke: #038048; stroke-width: 1.0;"/><text fill="#000000" font-family="sans-serif" font-size="11" lengthAdjust="spacingAndGlyphs" textLength="214" x="911.5" y="179.0125">referanseEndretAv : SystemID [0..1] [1..1]</text><ellipse cx="902.5" cy="189.2354" fill="none" rx="3" ry="3" style="stroke: #038048; stroke-width: 1.0;"/><text fill="#000000" font-family="sans-serif" font-size="11" lengthAdjust="spacingAndGlyphs" textLength="231" x="911.5" y="193.9944">referanseOpprettetAv : SystemID [0..1] [1..1]</text><line style="stroke: #A80036; stroke-width: 1.5;" x1="892.5" x2="1147.5" y1="201.2173" y2="201.2173"/><!--MD5=[eda94d7323bcebfbdddd0a5056cad0ff]
class Arkivstruktur.Arkiv--><rect fill="#FEFECE" filter="url(#fnqh1zyy0x4k9)" height="42.3441" id="Arkivstruktur.Arkiv" style="stroke: #A80036; stroke-width: 1.5;" width="95" x="38.5" y="269"/><text fill="#000000" font-family="sans-serif" font-size="12" lengthAdjust="spacingAndGlyphs" textLength="28" x="41.5" y="286.8281">Arkiv</text><rect fill="#FFFFFF" height="18.3441" style="stroke: #000000; stroke-width: 1.0; stroke-dasharray: 2.0,2.0;" width="59" x="77.5" y="266"/><text fill="#000000" font-family="sans-serif" font-size="12" font-style="italic" lengthAdjust="spacingAndGlyphs" textLength="57" x="78.5" y="279.8281">Arkivenhet</text><line style="stroke: #A80036; stroke-width: 1.5;" x1="39.5" x2="132.5" y1="295.3441" y2="295.3441"/><line style="stroke: #A80036; stroke-width: 1.5;" x1="39.5" x2="132.5" y1="303.3441" y2="303.3441"/><!--MD5=[7aad5f711e1ff9ffc23e4b1d771a24c1]
class Arkivstruktur.Arkivdel--><rect fill="#FEFECE" filter="url(#fnqh1zyy0x4k9)" height="42.3441" id="Arkivstruktur.Arkivdel" style="stroke: #A80036; stroke-width: 1.5;" width="112" x="234" y="269"/><text fill="#000000" font-family="sans-serif" font-size="12" lengthAdjust="spacingAndGlyphs" textLength="45" x="237" y="286.8281">Arkivdel</text><rect fill="#FFFFFF" height="18.3441" style="stroke: #000000; stroke-width: 1.0; stroke-dasharray: 2.0,2.0;" width="59" x="290" y="266"/><text fill="#000000" font-family="sans-serif" font-size="12" font-style="italic" lengthAdjust="spacingAndGlyphs" textLength="57" x="291" y="279.8281">Arkivenhet</text><line style="stroke: #A80036; stroke-width: 1.5;" x1="235" x2="345" y1="295.3441" y2="295.3441"/><line style="stroke: #A80036; stroke-width: 1.5;" x1="235" x2="345" y1="303.3441" y2="303.3441"/><!--MD5=[e577f11d43eeda59aac7f146d515c68a]
class Arkivstruktur.Arkivskaper--><rect fill="#FEFECE" filter="url(#fnqh1zyy0x4k9)" height="42.3441" id="Arkivstruktur.Arkivskaper" style="stroke: #A80036; stroke-width: 1.5;" width="133" x="446.5" y="269"/><text fill="#000000" font-family="sans-serif" font-size="12" lengthAdjust="spacingAndGlyphs" textLength="66" x="449.5" y="286.8281">Arkivskaper</text><rect fill="#FFFFFF" height="18.3441" style="stroke: #000000; stroke-width: 1.0; stroke-dasharray: 2.0,2.0;" width="59" x="523.5" y="266"/><text fill="#000000" font-family="sans-serif" font-size="12" font-style="italic" lengthAdjust="spacingAndGlyphs" textLength="57" x="524.5" y="279.8281">Arkivenhet</text><line style="stroke: #A80036; stroke-width: 1.5;" x1="447.5" x2="578.5" y1="295.3441" y2="295.3441"/><line style="stroke: #A80036; stroke-width: 1.5;" x1="447.5" x2="578.5" y1="303.3441" y2="303.3441"/><!--MD5=[92ed2197edf38a39acf5ab443fdd08de]
class Arkivstruktur.Dokumentbeskrivelse--><rect fill="#FEFECE" filter="url(#fnqh1zyy0x4k9)" height="42.3441" id="Arkivstruktur.Dokumentbeskrivelse" style="stroke: #A80036; stroke-width: 1.5;" width="188" x="680" y="269"/><text fill="#000000" font-family="sans-serif" font-size="12" lengthAdjust="spacingAndGlyphs" textLength="121" x="683" y="286.8281">Dokumentbeskrivelse</text><rect fill="#FFFFFF" height="18.3441" style="stroke: #000000; stroke-width: 1.0; stroke-dasharray: 2.0,2.0;" width="59" x="812" y="266"/><text fill="#000000" font-family="sans-serif" font-size="12" font-style="italic" lengthAdjust="spacingAndGlyphs" textLength="57" x="813" y="279.8281">Arkivenhet</text><line style="stroke: #A80036; stroke-width: 1.5;" x1="681" x2="867" y1="295.3441" y2="295.3441"/><line style="stroke: #A80036; stroke-width: 1.5;" x1="681" x2="867" y1="303.3441" y2="303.3441"/><!--MD5=[73df33951f5eee41985998203ae583aa]
class Arkivstruktur.Klasse--><rect fill="#FEFECE" filter="url(#fnqh1zyy0x4k9)" height="42.3441" id="Arkivstruktur.Klasse" style="stroke: #A80036; stroke-width: 1.5;" width="103" x="968.5" y="269"/><text fill="#000000" font-family="sans-serif" font-size="12" lengthAdjust="spacingAndGlyphs" textLength="36" x="971.5" y="286.8281">Klasse</text><rect fill="#FFFFFF" height="18.3441" style="stroke: #000000; stroke-width: 1.0; stroke-dasharray: 2.0,2.0;" width="59" x="1015.5" y="266"/><text fill="#000000" font-family="sans-serif" font-size="12" font-style="italic" lengthAdjust="spacingAndGlyphs" textLength="57" x="1016.5" y="279.8281">Arkivenhet</text><line style="stroke: #A80036; stroke-width: 1.5;" x1="969.5" x2="1070.5" y1="295.3441" y2="295.3441"/><line style="stroke: #A80036; stroke-width: 1.5;" x1="969.5" x2="1070.5" y1="303.3441" y2="303.3441"/><!--MD5=[644cbb5ff8138c2f81e04d7f63002f47]
class Arkivstruktur.Klassifikasjonssystem--><rect fill="#FEFECE" filter="url(#fnqh1zyy0x4k9)" height="42.3441" id="Arkivstruktur.Klassifikasjonssystem" style="stroke: #A80036; stroke-width: 1.5;" width="188" x="1172" y="269"/><text fill="#000000" font-family="sans-serif" font-size="12" lengthAdjust="spacingAndGlyphs" textLength="121" x="1175" y="286.8281">Klassifikasjonssystem</text><rect fill="#FFFFFF" height="18.3441" style="stroke: #000000; stroke-width: 1.0; stroke-dasharray: 2.0,2.0;" width="59" x="1304" y="266"/><text fill="#000000" font-family="sans-serif" font-size="12" font-style="italic" lengthAdjust="spacingAndGlyphs" textLength="57" x="1305" y="279.8281">Arkivenhet</text><line style="stroke: #A80036; stroke-width: 1.5;" x1="1173" x2="1359" y1="295.3441" y2="295.3441"/><line style="stroke: #A80036; stroke-width: 1.5;" x1="1173" x2="1359" y1="303.3441" y2="303.3441"/><!--MD5=[7ac5167187dc7f1acc74fcb89e1dc205]
class Arkivstruktur.Mappe--><rect fill="#FEFECE" filter="url(#fnqh1zyy0x4k9)" height="42.3441" id="Arkivstruktur.Mappe" style="stroke: #A80036; stroke-width: 1.5;" width="106" x="1460" y="269"/><text fill="#000000" font-family="sans-serif" font-size="12" lengthAdjust="spacingAndGlyphs" textLength="39" x="1463" y="286.8281">Mappe</text><rect fill="#FFFFFF" height="18.3441" style="stroke: #000000; stroke-width: 1.0; stroke-dasharray: 2.0,2.0;" width="59" x="1510" y="266"/><text fill="#000000" font-family="sans-serif" font-size="12" font-style="italic" lengthAdjust="spacingAndGlyphs" textLength="57" x="1511" y="279.8281">Arkivenhet</text><line style="stroke: #A80036; stroke-width: 1.5;" x1="1461" x2="1565" y1="295.3441" y2="295.3441"/><line style="stroke: #A80036; stroke-width: 1.5;" x1="1461" x2="1565" y1="303.3441" y2="303.3441"/><!--MD5=[5eeb008ce2ba569ad4cb3c09c2ca4370]
class Arkivstruktur.Registrering--><rect fill="#FEFECE" filter="url(#fnqh1zyy0x4k9)" height="42.3441" id="Arkivstruktur.Registrering" style="stroke: #A80036; stroke-width: 1.5;" width="135" x="1666.5" y="269"/><text fill="#000000" font-family="sans-serif" font-size="12" lengthAdjust="spacingAndGlyphs" textLength="68" x="1669.5" y="286.8281">Registrering</text><rect fill="#FFFFFF" height="18.3441" style="stroke: #000000; stroke-width: 1.0; stroke-dasharray: 2.0,2.0;" width="59" x="1745.5" y="266"/><text fill="#000000" font-family="sans-serif" font-size="12" font-style="italic" lengthAdjust="spacingAndGlyphs" textLength="57" x="1746.5" y="279.8281">Arkivenhet</text><line style="stroke: #A80036; stroke-width: 1.5;" x1="1667.5" x2="1800.5" y1="295.3441" y2="295.3441"/><line style="stroke: #A80036; stroke-width: 1.5;" x1="1667.5" x2="1800.5" y1="303.3441" y2="303.3441"/><!--MD5=[5f0344ec513b1fc7836a789fba495278]
class LoggingOgSporing.Endringslogg--><rect fill="#FEFECE" filter="url(#fnqh1zyy0x4k9)" height="42.3441" id="LoggingOgSporing.Endringslogg" style="stroke: #A80036; stroke-width: 1.5;" width="79" x="1901.5" y="269"/><text fill="#000000" font-family="sans-serif" font-size="12" lengthAdjust="spacingAndGlyphs" textLength="73" x="1904.5" y="286.8281">Endringslogg</text><line style="stroke: #A80036; stroke-width: 1.5;" x1="1902.5" x2="1979.5" y1="295.3441" y2="295.3441"/><line style="stroke: #A80036; stroke-width: 1.5;" x1="1902.5" x2="1979.5" y1="303.3441" y2="303.3441"/><!--MD5=[bfcafbdbdd35fa63f0c85a89ec99ca08]
reverse link Arkivstruktur.Arkivenhet to LoggingOgSporing.Endringslogg--><path d="M1161.78,143.89 C1361.31,155.58 1714.1,181.41 1835,223 C1865.13,233.37 1895.61,253.59 1916.1,268.93 " fill="none" id="Arkivstruktur.Arkivenhet&lt;-LoggingOgSporing.Endringslogg" style="stroke: #A80036; stroke-width: 1.0;"/><polygon fill="#FFFFFF" points="1148.57,143.12,1154.327,147.4625,1160.5497,143.8185,1154.7927,139.476,1148.57,143.12" style="stroke: #A80036; stroke-width: 1.0;"/><text fill="#000000" font-family="sans-serif" font-size="13" lengthAdjust="spacingAndGlyphs" textLength="20" x="1156.5811" y="139.9803">0..1</text><text fill="#000000" font-family="sans-serif" font-size="13" lengthAdjust="spacingAndGlyphs" textLength="103" x="1790.6575" y="257.194">endringslogg 0..*</text><!--MD5=[f954a0303a9576e61f6cad67784116f7]
reverse link Arkivstruktur.Arkivenhet to Arkivstruktur.Arkiv--><path d="M871.22,143.22 C665.76,153.98 306.63,178.53 184,223 C155.65,233.28 127.55,253.52 108.75,268.88 " fill="none" id="Arkivstruktur.Arkivenhet&lt;-Arkivstruktur.Arkiv" style="stroke: #A80036; stroke-width: 1.0;"/><polygon fill="none" points="870.88,136.23,891.22,142.19,871.6,150.21,870.88,136.23" style="stroke: #A80036; stroke-width: 1.0;"/><!--MD5=[3ebff0db22139d974f4a84f10ed55294]
reverse link Arkivstruktur.Arkivenhet to Arkivstruktur.Arkivdel--><path d="M871.19,139.98 C742.32,146.98 552.69,166.99 397,223 C367.02,233.79 336.43,253.74 315.68,268.89 " fill="none" id="Arkivstruktur.Arkivenhet&lt;-Arkivstruktur.Arkivdel" style="stroke: #A80036; stroke-width: 1.0;"/><polygon fill="none" points="871,132.98,891.33,138.96,871.71,146.96,871,132.98" style="stroke: #A80036; stroke-width: 1.0;"/><!--MD5=[d527d2bcc8dc01d910205635ddc89aaa]
reverse link Arkivstruktur.Arkivenhet to Arkivstruktur.Arkivskaper--><path d="M871.26,158.82 C797.23,172.59 707.27,193.39 630,223 C598.86,234.93 566,254.13 543.06,268.75 " fill="none" id="Arkivstruktur.Arkivenhet&lt;-Arkivstruktur.Arkivskaper" style="stroke: #A80036; stroke-width: 1.0;"/><polygon fill="none" points="870.27,151.89,891.2,155.21,872.77,165.66,870.27,151.89" style="stroke: #A80036; stroke-width: 1.0;"/><!--MD5=[40174bb2e98b220dbd6a5d6e1881d6e7]
reverse link Arkivstruktur.Arkivenhet to Arkivstruktur.Dokumentbeskrivelse--><path d="M885.76,219.72 C856.12,238.1 827.35,255.93 806.43,268.9 " fill="none" id="Arkivstruktur.Arkivenhet&lt;-Arkivstruktur.Dokumentbeskrivelse" style="stroke: #A80036; stroke-width: 1.0;"/><polygon fill="none" points="882.08,213.77,902.76,209.18,889.45,225.66,882.08,213.77" style="stroke: #A80036; stroke-width: 1.0;"/><!--MD5=[c52bd6c571059901e72037a509703e30]
reverse link Arkivstruktur.Arkivenhet to Arkivstruktur.Klasse--><path d="M1020,229.39 C1020,244.25 1020,258.22 1020,268.9 " fill="none" id="Arkivstruktur.Arkivenhet&lt;-Arkivstruktur.Klasse" style="stroke: #A80036; stroke-width: 1.0;"/><polygon fill="none" points="1013,229.18,1020,209.18,1027,229.18,1013,229.18" style="stroke: #A80036; stroke-width: 1.0;"/><!--MD5=[bdd936be911e27a62d19ee5227a1df44]
reverse link Arkivstruktur.Arkivenhet to Arkivstruktur.Klassifikasjonssystem--><path d="M1154.24,219.72 C1183.88,238.1 1212.65,255.93 1233.57,268.9 " fill="none" id="Arkivstruktur.Arkivenhet&lt;-Arkivstruktur.Klassifikasjonssystem" style="stroke: #A80036; stroke-width: 1.0;"/><polygon fill="none" points="1150.55,225.66,1137.24,209.18,1157.92,213.77,1150.55,225.66" style="stroke: #A80036; stroke-width: 1.0;"/><!--MD5=[2f446ca6ea80acd7d1b3ada71ce2dca7]
reverse link Arkivstruktur.Arkivenhet to Arkivstruktur.Mappe--><path d="M1168.62,156.82 C1243.01,170.12 1333.3,191.11 1410,223 C1438.24,234.74 1467.3,254.16 1487.32,268.9 " fill="none" id="Arkivstruktur.Arkivenhet&lt;-Arkivstruktur.Mappe" style="stroke: #A80036; stroke-width: 1.0;"/><polygon fill="none" points="1167.1,163.66,1148.59,153.35,1169.49,149.87,1167.1,163.66" style="stroke: #A80036; stroke-width: 1.0;"/><!--MD5=[36f1dd448b61471fc99033334e9b894f]
reverse link Arkivstruktur.Arkivenhet to Arkivstruktur.Registrering--><path d="M1168.69,143.02 C1291.44,151.94 1468.75,173.05 1616,223 C1648.23,233.93 1681.81,253.66 1704.86,268.7 " fill="none" id="Arkivstruktur.Arkivenhet&lt;-Arkivstruktur.Registrering" style="stroke: #A80036; stroke-width: 1.0;"/><polygon fill="none" points="1168.19,150,1148.72,141.64,1169.15,136.04,1168.19,150" style="stroke: #A80036; stroke-width: 1.0;"/><!--MD5=[960c25136174e264ebd88ebe1cdf1d45]
@startuml
skinparam nodesep 100
hide circle
class Arkivstruktur.Arkivenhet {
  +systemID : SystemID [0..1] [1..1]
  +endretDato : datetime [0..1]
  +opprettetDato : datetime [0..1] [1..1]
  +opprettetAv : string [0..1] [1..1]
  +endretAv : string [0..1] [1..1]
  +referanseEndretAv : SystemID [0..1] [1..1]
  +referanseOpprettetAv : SystemID [0..1] [1..1]
}
class LoggingOgSporing.Endringslogg {
}
Arkivstruktur.Arkivenhet "0..1" o- - "endringslogg 0..*" LoggingOgSporing.Endringslogg
class Arkivstruktur.Arkiv <Arkivenhet> {
}
Arkivstruktur.Arkivenhet <|- - Arkivstruktur.Arkiv
class Arkivstruktur.Arkivdel <Arkivenhet> {
}
Arkivstruktur.Arkivenhet <|- - Arkivstruktur.Arkivdel
class Arkivstruktur.Arkivskaper <Arkivenhet> {
}
Arkivstruktur.Arkivenhet <|- - Arkivstruktur.Arkivskaper
class Arkivstruktur.Dokumentbeskrivelse <Arkivenhet> {
}
Arkivstruktur.Arkivenhet <|- - Arkivstruktur.Dokumentbeskrivelse
class Arkivstruktur.Klasse <Arkivenhet> {
}
Arkivstruktur.Arkivenhet <|- - Arkivstruktur.Klasse
class Arkivstruktur.Klassifikasjonssystem <Arkivenhet> {
}
Arkivstruktur.Arkivenhet <|- - Arkivstruktur.Klassifikasjonssystem
class Arkivstruktur.Mappe <Arkivenhet> {
}
Arkivstruktur.Arkivenhet <|- - Arkivstruktur.Mappe
class Arkivstruktur.Registrering <Arkivenhet> {
}
Arkivstruktur.Arkivenhet <|- - Arkivstruktur.Registrering
@enduml

PlantUML version 1.2020.02(Sun Mar 01 11:22:07 CET 2020)
(GPL source distribution)
Java Runtime: OpenJDK Runtime Environment
JVM: OpenJDK 64-Bit Server VM
Java Version: 17.0.6+10-Debian-1
Operating System: Linux
Default Encoding: UTF-8
Language: en
Country: US
--></g></svg>