<?xml version="1.0" encoding="UTF-8" standalone="no"?><svg xmlns="http://www.w3.org/2000/svg" xmlns:xlink="http://www.w3.org/1999/xlink" contentScriptType="application/ecmascript" contentStyleType="text/css" height="593px" preserveAspectRatio="none" style="width:2601px;height:593px;" version="1.1" viewBox="0 0 2601 593" width="2601px" zoomAndPan="magnify"><defs><filter height="300%" id="f1fr7vasjvfmia" width="300%" x="-1" y="-1"><feGaussianBlur result="blurOut" stdDeviation="2.0"/><feColorMatrix in="blurOut" result="blurOut2" type="matrix" values="0 0 0 0 0 0 0 0 0 0 0 0 0 0 0 0 0 0 .4 0"/><feOffset dx="4.0" dy="4.0" in="blurOut2" result="blurOut3"/><feBlend in="SourceGraphic" in2="blurOut3" mode="normal"/></filter></defs><g><!--MD5=[232c485b1f52e07d9ce0910f7499e2a6]
cluster Arkivstruktur--><polygon fill="#FFFFFF" filter="url(#f1fr7vasjvfmia)" points="22,24,123,24,130,49.0679,1494,49.0679,1494,581,22,581,22,24" style="stroke: #000000; stroke-width: 1.5;"/><line style="stroke: #000000; stroke-width: 1.5;" x1="22" x2="130" y1="49.0679" y2="49.0679"/><text fill="#000000" font-family="sans-serif" font-size="14" font-weight="bold" lengthAdjust="spacingAndGlyphs" textLength="95" x="26" y="40.9659">Arkivstruktur</text><!--MD5=[4a4c6b7d1aba32735577c90ce419470a]
cluster VirksomhetsspesifikkeMetadata--><polygon fill="#FFFFFF" filter="url(#f1fr7vasjvfmia)" points="1550,468,1780,468,1787,493.0679,1790,493.0679,1790,581,1550,581,1550,468" style="stroke: #000000; stroke-width: 1.5;"/><line style="stroke: #000000; stroke-width: 1.5;" x1="1550" x2="1787" y1="493.0679" y2="493.0679"/><text fill="#000000" font-family="sans-serif" font-size="14" font-weight="bold" lengthAdjust="spacingAndGlyphs" textLength="224" x="1554" y="484.9659">VirksomhetsspesifikkeMetadata</text><!--MD5=[069ea117d8bb01159729074d99b1e334]
cluster Sakarkiv--><polygon fill="#FFFFFF" filter="url(#f1fr7vasjvfmia)" points="1846,476.5,1912,476.5,1919,501.5679,2248,501.5679,2248,572.5,1846,572.5,1846,476.5" style="stroke: #000000; stroke-width: 1.5;"/><line style="stroke: #000000; stroke-width: 1.5;" x1="1846" x2="1919" y1="501.5679" y2="501.5679"/><text fill="#000000" font-family="sans-serif" font-size="14" font-weight="bold" lengthAdjust="spacingAndGlyphs" textLength="60" x="1850" y="493.4659">Sakarkiv</text><!--MD5=[6f57009a4a608e6bd88d18f07024e663]
cluster Arkivstruktur.NasjonaleIdentifikatorer--><polygon fill="#FFFFFF" filter="url(#f1fr7vasjvfmia)" points="2294,476.5,2569,476.5,2576,501.5679,2579,501.5679,2579,572.5,2294,572.5,2294,476.5" style="stroke: #000000; stroke-width: 1.5;"/><line style="stroke: #000000; stroke-width: 1.5;" x1="2294" x2="2576" y1="501.5679" y2="501.5679"/><text fill="#000000" font-family="sans-serif" font-size="14" font-weight="bold" lengthAdjust="spacingAndGlyphs" textLength="269" x="2298" y="493.4659">Arkivstruktur.NasjonaleIdentifikatorer</text><!--MD5=[5eeb008ce2ba569ad4cb3c09c2ca4370]
class Arkivstruktur.Registrering--><rect fill="#FEFECE" filter="url(#f1fr7vasjvfmia)" height="282.0543" id="Arkivstruktur.Registrering" style="stroke: #A80036; stroke-width: 1.5;" width="393" x="950.5" y="164"/><text fill="#000000" font-family="sans-serif" font-size="12" lengthAdjust="spacingAndGlyphs" textLength="68" x="1082.5" y="181.8281">Registrering</text><rect fill="#FFFFFF" height="18.3441" style="stroke: #000000; stroke-width: 1.0; stroke-dasharray: 2.0,2.0;" width="59" x="1287.5" y="161"/><text fill="#000000" font-family="sans-serif" font-size="12" font-style="italic" lengthAdjust="spacingAndGlyphs" textLength="57" x="1288.5" y="174.8281">Arkivenhet</text><line style="stroke: #A80036; stroke-width: 1.5;" x1="951.5" x2="1342.5" y1="190.3441" y2="190.3441"/><ellipse cx="961.5" cy="201.3441" fill="none" rx="3" ry="3" style="stroke: #038048; stroke-width: 1.0;"/><text fill="#000000" font-family="sans-serif" font-size="11" lengthAdjust="spacingAndGlyphs" textLength="179" x="970.5" y="206.103">arkivertDato : datetime [0..1] [1..1]</text><ellipse cx="961.5" cy="216.326" fill="none" rx="3" ry="3" style="stroke: #038048; stroke-width: 1.0;"/><text fill="#000000" font-family="sans-serif" font-size="11" lengthAdjust="spacingAndGlyphs" textLength="152" x="970.5" y="221.0849">arkivertAv : string [0..1] [1..1]</text><ellipse cx="961.5" cy="231.3079" fill="none" rx="3" ry="3" style="stroke: #038048; stroke-width: 1.0;"/><text fill="#000000" font-family="sans-serif" font-size="11" lengthAdjust="spacingAndGlyphs" textLength="221" x="970.5" y="236.0668">referanseArkivertAv : SystemID [0..1] [1..1]</text><ellipse cx="961.5" cy="246.2898" fill="none" rx="3" ry="3" style="stroke: #038048; stroke-width: 1.0;"/><text fill="#000000" font-family="sans-serif" font-size="11" lengthAdjust="spacingAndGlyphs" textLength="139" x="970.5" y="251.0487">kassasjon : Kassasjon [0..1]</text><ellipse cx="961.5" cy="261.2717" fill="none" rx="3" ry="3" style="stroke: #038048; stroke-width: 1.0;"/><text fill="#000000" font-family="sans-serif" font-size="11" lengthAdjust="spacingAndGlyphs" textLength="143" x="970.5" y="266.0306">skjerming : Skjerming [0..1]</text><ellipse cx="961.5" cy="276.2536" fill="none" rx="3" ry="3" style="stroke: #038048; stroke-width: 1.0;"/><text fill="#000000" font-family="sans-serif" font-size="11" lengthAdjust="spacingAndGlyphs" textLength="145" x="970.5" y="281.0125">gradering : Gradering [0..1]</text><ellipse cx="961.5" cy="291.2354" fill="none" rx="3" ry="3" style="stroke: #038048; stroke-width: 1.0;"/><text fill="#000000" font-family="sans-serif" font-size="11" lengthAdjust="spacingAndGlyphs" textLength="209" x="970.5" y="295.9944">referanseArkivdel : SystemID [0..1] [1..1]</text><ellipse cx="961.5" cy="306.2173" fill="none" rx="3" ry="3" style="stroke: #038048; stroke-width: 1.0;"/><text fill="#000000" font-family="sans-serif" font-size="11" lengthAdjust="spacingAndGlyphs" textLength="178" x="970.5" y="310.9762">registreringsID : string [0..1] [1..1]</text><ellipse cx="961.5" cy="321.1992" fill="none" rx="3" ry="3" style="stroke: #038048; stroke-width: 1.0;"/><text fill="#000000" font-family="sans-serif" font-size="11" lengthAdjust="spacingAndGlyphs" textLength="64" x="970.5" y="325.9581">tittel : string</text><ellipse cx="961.5" cy="336.1811" fill="none" rx="3" ry="3" style="stroke: #038048; stroke-width: 1.0;"/><text fill="#000000" font-family="sans-serif" font-size="11" lengthAdjust="spacingAndGlyphs" textLength="140" x="970.5" y="340.94">offentligTittel : string [0..1]</text><ellipse cx="961.5" cy="351.163" fill="none" rx="3" ry="3" style="stroke: #038048; stroke-width: 1.0;"/><text fill="#000000" font-family="sans-serif" font-size="11" lengthAdjust="spacingAndGlyphs" textLength="127" x="970.5" y="355.9219">beskrivelse : string [0..1]</text><ellipse cx="961.5" cy="366.1449" fill="none" rx="3" ry="3" style="stroke: #038048; stroke-width: 1.0;"/><text fill="#000000" font-family="sans-serif" font-size="11" lengthAdjust="spacingAndGlyphs" textLength="129" x="970.5" y="370.9038">noekkelord : string [0..*]</text><ellipse cx="961.5" cy="381.1268" fill="none" rx="3" ry="3" style="stroke: #038048; stroke-width: 1.0;"/><text fill="#000000" font-family="sans-serif" font-size="11" lengthAdjust="spacingAndGlyphs" textLength="114" x="970.5" y="385.8857">forfatter : string [0..*]</text><ellipse cx="961.5" cy="396.1087" fill="none" rx="3" ry="3" style="stroke: #038048; stroke-width: 1.0;"/><text fill="#000000" font-family="sans-serif" font-size="11" lengthAdjust="spacingAndGlyphs" textLength="262" x="970.5" y="400.8676">dokumentmedium : Dokumentmedium [0..1] [1..1]</text><ellipse cx="961.5" cy="411.0905" fill="none" rx="3" ry="3" style="stroke: #038048; stroke-width: 1.0;"/><text fill="#000000" font-family="sans-serif" font-size="11" lengthAdjust="spacingAndGlyphs" textLength="164" x="970.5" y="415.8495">oppbevaringssted : string [0..*]</text><ellipse cx="961.5" cy="426.0724" fill="none" rx="3" ry="3" style="stroke: #038048; stroke-width: 1.0;"/><text fill="#000000" font-family="sans-serif" font-size="11" lengthAdjust="spacingAndGlyphs" textLength="367" x="970.5" y="430.8313">virksomhetsspesifikkeMetadata : VirksomhetsspesifikkeMetadata [0..1]</text><line style="stroke: #A80036; stroke-width: 1.5;" x1="951.5" x2="1342.5" y1="438.0543" y2="438.0543"/><!--MD5=[7aad5f711e1ff9ffc23e4b1d771a24c1]
class Arkivstruktur.Arkivdel--><rect fill="#FEFECE" filter="url(#f1fr7vasjvfmia)" height="42.3441" id="Arkivstruktur.Arkivdel" style="stroke: #A80036; stroke-width: 1.5;" width="112" x="1309" y="62"/><text fill="#000000" font-family="sans-serif" font-size="12" lengthAdjust="spacingAndGlyphs" textLength="45" x="1312" y="79.8281">Arkivdel</text><rect fill="#FFFFFF" height="18.3441" style="stroke: #000000; stroke-width: 1.0; stroke-dasharray: 2.0,2.0;" width="59" x="1365" y="59"/><text fill="#000000" font-family="sans-serif" font-size="12" font-style="italic" lengthAdjust="spacingAndGlyphs" textLength="57" x="1366" y="72.8281">Arkivenhet</text><line style="stroke: #A80036; stroke-width: 1.5;" x1="1310" x2="1420" y1="88.3441" y2="88.3441"/><line style="stroke: #A80036; stroke-width: 1.5;" x1="1310" x2="1420" y1="96.3441" y2="96.3441"/><!--MD5=[5361e6f8e145469a00ddfe2005186efd]
class Arkivstruktur.Arkivenhet--><rect fill="#FEFECE" filter="url(#f1fr7vasjvfmia)" height="42.3441" id="Arkivstruktur.Arkivenhet" style="stroke: #A80036; stroke-width: 1.5;" width="66" x="1143" y="62"/><text fill="#000000" font-family="sans-serif" font-size="12" lengthAdjust="spacingAndGlyphs" textLength="60" x="1146" y="79.8281">Arkivenhet</text><line style="stroke: #A80036; stroke-width: 1.5;" x1="1144" x2="1208" y1="88.3441" y2="88.3441"/><line style="stroke: #A80036; stroke-width: 1.5;" x1="1144" x2="1208" y1="96.3441" y2="96.3441"/><!--MD5=[73df33951f5eee41985998203ae583aa]
class Arkivstruktur.Klasse--><rect fill="#FEFECE" filter="url(#f1fr7vasjvfmia)" height="42.3441" id="Arkivstruktur.Klasse" style="stroke: #A80036; stroke-width: 1.5;" width="103" x="939.5" y="62"/><text fill="#000000" font-family="sans-serif" font-size="12" lengthAdjust="spacingAndGlyphs" textLength="36" x="942.5" y="79.8281">Klasse</text><rect fill="#FFFFFF" height="18.3441" style="stroke: #000000; stroke-width: 1.0; stroke-dasharray: 2.0,2.0;" width="59" x="986.5" y="59"/><text fill="#000000" font-family="sans-serif" font-size="12" font-style="italic" lengthAdjust="spacingAndGlyphs" textLength="57" x="987.5" y="72.8281">Arkivenhet</text><line style="stroke: #A80036; stroke-width: 1.5;" x1="940.5" x2="1041.5" y1="88.3441" y2="88.3441"/><line style="stroke: #A80036; stroke-width: 1.5;" x1="940.5" x2="1041.5" y1="96.3441" y2="96.3441"/><!--MD5=[7ac5167187dc7f1acc74fcb89e1dc205]
class Arkivstruktur.Mappe--><rect fill="#FEFECE" filter="url(#f1fr7vasjvfmia)" height="42.3441" id="Arkivstruktur.Mappe" style="stroke: #A80036; stroke-width: 1.5;" width="106" x="733" y="62"/><text fill="#000000" font-family="sans-serif" font-size="12" lengthAdjust="spacingAndGlyphs" textLength="39" x="736" y="79.8281">Mappe</text><rect fill="#FFFFFF" height="18.3441" style="stroke: #000000; stroke-width: 1.0; stroke-dasharray: 2.0,2.0;" width="59" x="783" y="59"/><text fill="#000000" font-family="sans-serif" font-size="12" font-style="italic" lengthAdjust="spacingAndGlyphs" textLength="57" x="784" y="72.8281">Arkivenhet</text><line style="stroke: #A80036; stroke-width: 1.5;" x1="734" x2="838" y1="88.3441" y2="88.3441"/><line style="stroke: #A80036; stroke-width: 1.5;" x1="734" x2="838" y1="96.3441" y2="96.3441"/><!--MD5=[789c1e76f3fd06e52ddfd1f5832ec9f2]
class Arkivstruktur.Kryssreferanse--><rect fill="#FEFECE" filter="url(#f1fr7vasjvfmia)" height="42.3441" id="Arkivstruktur.Kryssreferanse" style="stroke: #A80036; stroke-width: 1.5;" width="152" x="38" y="514.5"/><text fill="#000000" font-family="sans-serif" font-size="12" lengthAdjust="spacingAndGlyphs" textLength="85" x="41" y="532.3281">Kryssreferanse</text><rect fill="#FFFFFF" height="18.3441" style="stroke: #000000; stroke-width: 1.0; stroke-dasharray: 2.0,2.0;" width="59" x="134" y="511.5"/><text fill="#000000" font-family="sans-serif" font-size="12" font-style="italic" lengthAdjust="spacingAndGlyphs" textLength="57" x="135" y="525.3281">Arkivenhet</text><line style="stroke: #A80036; stroke-width: 1.5;" x1="39" x2="189" y1="540.8441" y2="540.8441"/><line style="stroke: #A80036; stroke-width: 1.5;" x1="39" x2="189" y1="548.8441" y2="548.8441"/><!--MD5=[92ed2197edf38a39acf5ab443fdd08de]
class Arkivstruktur.Dokumentbeskrivelse--><rect fill="#FEFECE" filter="url(#f1fr7vasjvfmia)" height="42.3441" id="Arkivstruktur.Dokumentbeskrivelse" style="stroke: #A80036; stroke-width: 1.5;" width="188" x="290" y="514.5"/><text fill="#000000" font-family="sans-serif" font-size="12" lengthAdjust="spacingAndGlyphs" textLength="121" x="293" y="532.3281">Dokumentbeskrivelse</text><rect fill="#FFFFFF" height="18.3441" style="stroke: #000000; stroke-width: 1.0; stroke-dasharray: 2.0,2.0;" width="59" x="422" y="511.5"/><text fill="#000000" font-family="sans-serif" font-size="12" font-style="italic" lengthAdjust="spacingAndGlyphs" textLength="57" x="423" y="525.3281">Arkivenhet</text><line style="stroke: #A80036; stroke-width: 1.5;" x1="291" x2="477" y1="540.8441" y2="540.8441"/><line style="stroke: #A80036; stroke-width: 1.5;" x1="291" x2="477" y1="548.8441" y2="548.8441"/><!--MD5=[4df5b11f766642853213221570ce3455]
class Arkivstruktur.Korrespondansepart--><rect fill="#FEFECE" filter="url(#f1fr7vasjvfmia)" height="42.3441" id="Arkivstruktur.Korrespondansepart" style="stroke: #A80036; stroke-width: 1.5;" width="121" x="578.5" y="514.5"/><text fill="#000000" font-family="sans-serif" font-size="12" lengthAdjust="spacingAndGlyphs" textLength="115" x="581.5" y="532.3281">Korrespondansepart</text><line style="stroke: #A80036; stroke-width: 1.5;" x1="579.5" x2="698.5" y1="540.8441" y2="540.8441"/><line style="stroke: #A80036; stroke-width: 1.5;" x1="579.5" x2="698.5" y1="548.8441" y2="548.8441"/><!--MD5=[e3d7666df93e3e02c847c049474a14c9]
class Arkivstruktur.Merknad--><rect fill="#FEFECE" filter="url(#f1fr7vasjvfmia)" height="42.3441" id="Arkivstruktur.Merknad" style="stroke: #A80036; stroke-width: 1.5;" width="56" x="800" y="514.5"/><text fill="#000000" font-family="sans-serif" font-size="12" lengthAdjust="spacingAndGlyphs" textLength="50" x="803" y="532.3281">Merknad</text><line style="stroke: #A80036; stroke-width: 1.5;" x1="801" x2="855" y1="540.8441" y2="540.8441"/><line style="stroke: #A80036; stroke-width: 1.5;" x1="801" x2="855" y1="548.8441" y2="548.8441"/><!--MD5=[969f15578b48b8a37f6dcb3b1c0b6253]
class Arkivstruktur.Part--><rect fill="#FEFECE" filter="url(#f1fr7vasjvfmia)" height="42.3441" id="Arkivstruktur.Part" style="stroke: #A80036; stroke-width: 1.5;" width="29" x="956.5" y="514.5"/><text fill="#000000" font-family="sans-serif" font-size="12" lengthAdjust="spacingAndGlyphs" textLength="23" x="959.5" y="532.3281">Part</text><line style="stroke: #A80036; stroke-width: 1.5;" x1="957.5" x2="984.5" y1="540.8441" y2="540.8441"/><line style="stroke: #A80036; stroke-width: 1.5;" x1="957.5" x2="984.5" y1="548.8441" y2="548.8441"/><!--MD5=[3d4783542a6aba5bb9f20d74c774f5a6]
class Arkivstruktur.Gradering--><rect fill="#FEFECE" filter="url(#f1fr7vasjvfmia)" height="58.6882" id="Arkivstruktur.Gradering" style="stroke: #A80036; stroke-width: 1.5;" width="64" x="1086" y="506"/><text fill="#000000" font-family="sans-serif" font-size="12" font-style="italic" lengthAdjust="spacingAndGlyphs" textLength="62" x="1087" y="523.8281">«dataType»</text><text fill="#000000" font-family="sans-serif" font-size="12" lengthAdjust="spacingAndGlyphs" textLength="57" x="1089.5" y="540.1722">Gradering</text><line style="stroke: #A80036; stroke-width: 1.5;" x1="1087" x2="1149" y1="548.6882" y2="548.6882"/><line style="stroke: #A80036; stroke-width: 1.5;" x1="1087" x2="1149" y1="556.6882" y2="556.6882"/><!--MD5=[b5ffafd4a567228755c4d3977cbfc8b1]
class Arkivstruktur.Kassasjon--><rect fill="#FEFECE" filter="url(#f1fr7vasjvfmia)" height="58.6882" id="Arkivstruktur.Kassasjon" style="stroke: #A80036; stroke-width: 1.5;" width="64" x="1250" y="506"/><text fill="#000000" font-family="sans-serif" font-size="12" font-style="italic" lengthAdjust="spacingAndGlyphs" textLength="62" x="1251" y="523.8281">«dataType»</text><text fill="#000000" font-family="sans-serif" font-size="12" lengthAdjust="spacingAndGlyphs" textLength="56" x="1254" y="540.1722">Kassasjon</text><line style="stroke: #A80036; stroke-width: 1.5;" x1="1251" x2="1313" y1="548.6882" y2="548.6882"/><line style="stroke: #A80036; stroke-width: 1.5;" x1="1251" x2="1313" y1="556.6882" y2="556.6882"/><!--MD5=[5d5cde9b9f9a55207202ed5867b8249d]
class Arkivstruktur.Skjerming--><rect fill="#FEFECE" filter="url(#f1fr7vasjvfmia)" height="58.6882" id="Arkivstruktur.Skjerming" style="stroke: #A80036; stroke-width: 1.5;" width="64" x="1414" y="506"/><text fill="#000000" font-family="sans-serif" font-size="12" font-style="italic" lengthAdjust="spacingAndGlyphs" textLength="62" x="1415" y="523.8281">«dataType»</text><text fill="#000000" font-family="sans-serif" font-size="12" lengthAdjust="spacingAndGlyphs" textLength="56" x="1418" y="540.1722">Skjerming</text><line style="stroke: #A80036; stroke-width: 1.5;" x1="1415" x2="1477" y1="548.6882" y2="548.6882"/><line style="stroke: #A80036; stroke-width: 1.5;" x1="1415" x2="1477" y1="556.6882" y2="556.6882"/><!--MD5=[542a1184c041ea88fdd585d8ecd273a4]
class VirksomhetsspesifikkeMetadata.VirksomhetsspesifikkeMetadata--><rect fill="#FEFECE" filter="url(#f1fr7vasjvfmia)" height="58.6882" id="VirksomhetsspesifikkeMetadata.VirksomhetsspesifikkeMetadata" style="stroke: #A80036; stroke-width: 1.5;" width="184" x="1578" y="506"/><text fill="#000000" font-family="sans-serif" font-size="12" font-style="italic" lengthAdjust="spacingAndGlyphs" textLength="181" x="1579.5" y="523.8281">«VirksomhetsspesifikkeMetadata»</text><text fill="#000000" font-family="sans-serif" font-size="12" lengthAdjust="spacingAndGlyphs" textLength="178" x="1581" y="540.1722">VirksomhetsspesifikkeMetadata</text><line style="stroke: #A80036; stroke-width: 1.5;" x1="1579" x2="1761" y1="548.6882" y2="548.6882"/><line style="stroke: #A80036; stroke-width: 1.5;" x1="1579" x2="1761" y1="556.6882" y2="556.6882"/><!--MD5=[a30222b4ad393904ffcccf51b18e072d]
class Sakarkiv.Arkivnotat--><rect fill="#FEFECE" filter="url(#f1fr7vasjvfmia)" height="42.3441" id="Sakarkiv.Arkivnotat" style="stroke: #A80036; stroke-width: 1.5;" width="132" x="2100" y="514.5"/><text fill="#000000" font-family="sans-serif" font-size="12" lengthAdjust="spacingAndGlyphs" textLength="57" x="2103" y="532.3281">Arkivnotat</text><rect fill="#FFFFFF" height="18.3441" style="stroke: #000000; stroke-width: 1.0; stroke-dasharray: 2.0,2.0;" width="67" x="2168" y="511.5"/><text fill="#000000" font-family="sans-serif" font-size="12" font-style="italic" lengthAdjust="spacingAndGlyphs" textLength="65" x="2169" y="525.3281">Registrering</text><line style="stroke: #A80036; stroke-width: 1.5;" x1="2101" x2="2231" y1="540.8441" y2="540.8441"/><line style="stroke: #A80036; stroke-width: 1.5;" x1="2101" x2="2231" y1="548.8441" y2="548.8441"/><!--MD5=[2f08e53298f8f090d026427c85b7c44d]
class Sakarkiv.Journalpost--><rect fill="#FEFECE" filter="url(#f1fr7vasjvfmia)" height="42.3441" id="Sakarkiv.Journalpost" style="stroke: #A80036; stroke-width: 1.5;" width="138" x="1862" y="514.5"/><text fill="#000000" font-family="sans-serif" font-size="12" lengthAdjust="spacingAndGlyphs" textLength="63" x="1865" y="532.3281">Journalpost</text><rect fill="#FFFFFF" height="18.3441" style="stroke: #000000; stroke-width: 1.0; stroke-dasharray: 2.0,2.0;" width="67" x="1936" y="511.5"/><text fill="#000000" font-family="sans-serif" font-size="12" font-style="italic" lengthAdjust="spacingAndGlyphs" textLength="65" x="1937" y="525.3281">Registrering</text><line style="stroke: #A80036; stroke-width: 1.5;" x1="1863" x2="1999" y1="540.8441" y2="540.8441"/><line style="stroke: #A80036; stroke-width: 1.5;" x1="1863" x2="1999" y1="548.8441" y2="548.8441"/><!--MD5=[74ecef535dd541f2f04dce997e1cccc6]
class Arkivstruktur.NasjonaleIdentifikatorer.Nasjonalidentifikator--><rect fill="#FEFECE" filter="url(#f1fr7vasjvfmia)" height="42.3441" id="Arkivstruktur.NasjonaleIdentifikatorer.Nasjonalidentifikator" style="stroke: #A80036; stroke-width: 1.5;" width="122" x="2332" y="514.5"/><text fill="#000000" font-family="sans-serif" font-size="12" lengthAdjust="spacingAndGlyphs" textLength="116" x="2335" y="532.3281">Nasjonalidentifikator</text><line style="stroke: #A80036; stroke-width: 1.5;" x1="2333" x2="2453" y1="540.8441" y2="540.8441"/><line style="stroke: #A80036; stroke-width: 1.5;" x1="2333" x2="2453" y1="548.8441" y2="548.8441"/><!--MD5=[4da2275cba6d22010c2bc4a73c7ab889]
link Arkivstruktur.Arkivdel to Arkivstruktur.Registrering--><path d="M1336.4277,112.8182 C1336.4277,112.8182 1310.44,139.06 1295.44,154.19 " fill="none" id="Arkivstruktur.Arkivdel-Arkivstruktur.Registrering" style="stroke: #A80036; stroke-width: 1.0;"/><polygon fill="#A80036" points="1285.97,163.76,1295.1458,160.1816,1289.489,160.208,1289.4626,154.5512,1285.97,163.76" style="stroke: #A80036; stroke-width: 1.0;"/><line style="stroke: #A80036; stroke-width: 1.0;" x1="1289.489" x2="1295.12" y1="160.208" y2="154.52"/><polygon fill="#FFFFFF" points="1344.88,104.3,1337.8145,105.7417,1336.4277,112.8182,1343.4933,111.3765,1344.88,104.3" style="stroke: #A80036; stroke-width: 1.0;"/><text fill="#000000" font-family="sans-serif" font-size="13" lengthAdjust="spacingAndGlyphs" textLength="70" x="1260.0665" y="126.2544">arkivdel 0..1</text><text fill="#000000" font-family="sans-serif" font-size="13" lengthAdjust="spacingAndGlyphs" textLength="93" x="1198.3159" y="152.019">registrering 0..*</text><!--MD5=[36f1dd448b61471fc99033334e9b894f]
reverse link Arkivstruktur.Arkivenhet to Arkivstruktur.Registrering--><path d="M1170.68,124.33 C1169.14,136.04 1167.36,149.53 1165.49,163.76 " fill="none" id="Arkivstruktur.Arkivenhet&lt;-Arkivstruktur.Registrering" style="stroke: #A80036; stroke-width: 1.0;"/><polygon fill="none" points="1163.77,123.22,1173.32,104.3,1177.65,125.05,1163.77,123.22" style="stroke: #A80036; stroke-width: 1.0;"/><!--MD5=[28a2ceb9e6940c79255ac7d60562a8c2]
link Arkivstruktur.Klasse to Arkivstruktur.Registrering--><path d="M1012.3336,114.0941 C1012.3336,114.0941 1029.99,138.98 1039.87,152.92 " fill="none" id="Arkivstruktur.Klasse-Arkivstruktur.Registrering" style="stroke: #A80036; stroke-width: 1.0;"/><polygon fill="#A80036" points="1047.55,163.76,1045.6145,154.1032,1044.661,159.6791,1039.0851,158.7256,1047.55,163.76" style="stroke: #A80036; stroke-width: 1.0;"/><line style="stroke: #A80036; stroke-width: 1.0;" x1="1044.661" x2="1040.035" y1="159.6791" y2="153.15"/><polygon fill="#FFFFFF" points="1005.4,104.3,1005.6021,111.5083,1012.3336,114.0941,1012.1315,106.8858,1005.4,104.3" style="stroke: #A80036; stroke-width: 1.0;"/><text fill="#000000" font-family="sans-serif" font-size="13" lengthAdjust="spacingAndGlyphs" textLength="59" x="942.3419" y="126.2544">klasse 0..1</text><text fill="#000000" font-family="sans-serif" font-size="13" lengthAdjust="spacingAndGlyphs" textLength="93" x="946.1123" y="152.019">registrering 0..*</text><!--MD5=[b06f07ca829b4fead78a2f1a47f4b1ee]
link Arkivstruktur.Mappe to Arkivstruktur.Registrering--><path d="M829.2401,110.3498 C829.2401,110.3498 897.84,152.16 938.98,177.23 " fill="none" id="Arkivstruktur.Mappe-Arkivstruktur.Registrering" style="stroke: #A80036; stroke-width: 1.0;"/><polygon fill="#A80036" points="950.34,184.15,944.7399,176.0482,946.0716,181.5461,940.5737,182.8777,950.34,184.15" style="stroke: #A80036; stroke-width: 1.0;"/><line style="stroke: #A80036; stroke-width: 1.0;" x1="946.0716" x2="939.24" y1="181.5461" y2="177.385"/><polygon fill="#FFFFFF" points="818.99,104.11,822.0351,110.6466,829.2401,110.3498,826.195,103.8132,818.99,104.11" style="stroke: #A80036; stroke-width: 1.0;"/><text fill="#000000" font-family="sans-serif" font-size="13" lengthAdjust="spacingAndGlyphs" textLength="65" x="754.1278" y="126.3857">mappe 0..1</text><text fill="#000000" font-family="sans-serif" font-size="13" lengthAdjust="spacingAndGlyphs" textLength="93" x="849.3613" y="176.8134">registrering 0..*</text><!--MD5=[491381fb8028db50b20b3ecc2cfde209]
link Arkivstruktur.Registrering to Arkivstruktur.Kryssreferanse--><path d="M938.2288,319.7117 C938.2288,319.7117 469.88,375.81 240,460 C208.69,471.47 176.37,490.75 152.31,506.83 " fill="none" id="Arkivstruktur.Registrering-Arkivstruktur.Kryssreferanse" style="stroke: #A80036; stroke-width: 1.0;"/><polygon fill="#A80036" points="141.53,514.18,151.2179,512.4065,145.6587,511.3597,146.7054,505.8006,141.53,514.18" style="stroke: #A80036; stroke-width: 1.0;"/><line style="stroke: #A80036; stroke-width: 1.0;" x1="145.6587" x2="152.265" y1="511.3597" y2="506.855"/><polygon fill="#A80036" points="950.18,318.63,943.8439,315.1871,938.2288,319.7117,944.565,323.1546,950.18,318.63" style="stroke: #A80036; stroke-width: 1.0;"/><text fill="#000000" font-family="sans-serif" font-size="13" lengthAdjust="spacingAndGlyphs" textLength="93" x="849.1961" y="315.706">registrering 0..1</text><text fill="#000000" font-family="sans-serif" font-size="13" lengthAdjust="spacingAndGlyphs" textLength="110" x="23.8041" y="502.741">kryssreferanse 0..*</text><!--MD5=[7229a444542d5ba4b44a9ac4e42b4ab4]
link Arkivstruktur.Registrering to Arkivstruktur.Dokumentbeskrivelse--><path d="M938.6544,345.3953 C938.6544,345.3953 661.58,410.18 529,460 C494.23,473.07 457,492.32 428.97,507.98 " fill="none" id="Arkivstruktur.Registrering-Arkivstruktur.Dokumentbeskrivelse" style="stroke: #A80036; stroke-width: 1.0;"/><polygon fill="#A80036" points="417.55,514.44,427.3521,513.4811,421.8996,511.9741,423.4066,506.5217,417.55,514.44" style="stroke: #A80036; stroke-width: 1.0;"/><line style="stroke: #A80036; stroke-width: 1.0;" x1="421.8996" x2="428.865" y1="511.9741" y2="508.03"/><polygon fill="#FFFFFF" points="950.39,342.89,943.6871,340.2308,938.6544,345.3953,945.3573,348.0545,950.39,342.89" style="stroke: #A80036; stroke-width: 1.0;"/><text fill="#000000" font-family="sans-serif" font-size="13" lengthAdjust="spacingAndGlyphs" textLength="93" x="849.413" y="340.7621">registrering 1..*</text><text fill="#000000" font-family="sans-serif" font-size="13" lengthAdjust="spacingAndGlyphs" textLength="152" x="253.0803" y="502.7069">dokumentbeskrivelse 0..*</text><!--MD5=[377bfd120cfca2a261659a52726a6c37]
reverse link Arkivstruktur.Registrering to Arkivstruktur.Korrespondansepart--><path d="M938.08,377.11 C876.27,400.78 809.31,429.08 750,460 C719.54,475.88 687.2,498.3 665.34,514.39 " fill="none" id="Arkivstruktur.Registrering&lt;-Arkivstruktur.Korrespondansepart" style="stroke: #A80036; stroke-width: 1.0;"/><polygon fill="#A80036" points="950.37,372.44,943.3411,370.8294,939.1509,376.6982,946.1799,378.3088,950.37,372.44" style="stroke: #A80036; stroke-width: 1.0;"/><text fill="#000000" font-family="sans-serif" font-size="13" lengthAdjust="spacingAndGlyphs" textLength="146" x="505.6336" y="502.6422">korrespondansepart 0..*</text><!--MD5=[ace26b433c886e7828572c4bcfd1e300]
reverse link Arkivstruktur.Registrering to Arkivstruktur.Merknad--><path d="M939.61,435.55 C928.43,443.62 917.49,451.8 907,460 C885.31,476.95 862.67,498.8 847.21,514.44 " fill="none" id="Arkivstruktur.Registrering&lt;-Arkivstruktur.Merknad" style="stroke: #A80036; stroke-width: 1.0;"/><polygon fill="#A80036" points="950.39,427.85,943.1827,428.0853,940.6279,434.8286,947.8351,434.5933,950.39,427.85" style="stroke: #A80036; stroke-width: 1.0;"/><text fill="#000000" font-family="sans-serif" font-size="13" lengthAdjust="spacingAndGlyphs" textLength="77" x="764.5436" y="502.7069">merknad 0..*</text><!--MD5=[5ba502961413dd9246e01706a2247057]
reverse link Arkivstruktur.Registrering to Arkivstruktur.Part--><path d="M1030.94,456.68 C1012.91,480.09 996.64,501.21 985.61,515.53 " fill="none" id="Arkivstruktur.Registrering&lt;-Arkivstruktur.Part" style="stroke: #A80036; stroke-width: 1.0;"/><polygon fill="#A80036" points="1039.05,446.16,1032.2205,448.4746,1031.7303,455.669,1038.5598,453.3544,1039.05,446.16" style="stroke: #A80036; stroke-width: 1.0;"/><text fill="#000000" font-family="sans-serif" font-size="13" lengthAdjust="spacingAndGlyphs" textLength="48" x="993.5733" y="506.5924">part 0..*</text><!--MD5=[b8996d6b8374fad466ba0cab9189c51b]
reverse link Arkivstruktur.Registrering to Arkivstruktur.Gradering--><path d="M1127.56,459.17 C1125.33,476.75 1123.28,492.93 1121.65,505.75 " fill="none" id="Arkivstruktur.Registrering&lt;-Arkivstruktur.Gradering" style="stroke: #A80036; stroke-width: 1.0;"/><polygon fill="#A80036" points="1129.21,446.16,1124.4841,451.6066,1127.694,458.0639,1132.42,452.6173,1129.21,446.16" style="stroke: #A80036; stroke-width: 1.0;"/><!--MD5=[175607666de808e12306992718e1e7d5]
reverse link Arkivstruktur.Registrering to Arkivstruktur.Kassasjon--><path d="M1236.43,457.38 C1247.23,475.65 1257.18,492.49 1265.02,505.75 " fill="none" id="Arkivstruktur.Registrering&lt;-Arkivstruktur.Kassasjon" style="stroke: #A80036; stroke-width: 1.0;"/><polygon fill="#A80036" points="1229.81,446.16,1229.4168,453.3604,1235.9121,456.4927,1236.3053,449.2923,1229.81,446.16" style="stroke: #A80036; stroke-width: 1.0;"/><!--MD5=[b9d4f073e7d8fe4fa8f2b4b9511227ad]
reverse link Arkivstruktur.Registrering to Arkivstruktur.Skjerming--><path d="M1353.89,451.95 C1357.3,454.64 1360.67,457.32 1364,460 C1381.84,474.35 1400.81,491.45 1416.01,505.65 " fill="none" id="Arkivstruktur.Registrering&lt;-Arkivstruktur.Skjerming" style="stroke: #A80036; stroke-width: 1.0;"/><polygon fill="#A80036" points="1343.57,443.87,1345.8306,450.7176,1353.0209,451.2646,1350.7603,444.417,1343.57,443.87" style="stroke: #A80036; stroke-width: 1.0;"/><!--MD5=[f40b3a3e516bc58f2141ef9afa89e016]
reverse link Arkivstruktur.Registrering to VirksomhetsspesifikkeMetadata.VirksomhetsspesifikkeMetadata--><path d="M1355.77,392.72 C1406.72,414.33 1460.95,437.7 1511,460 C1544,474.7 1580.51,491.76 1610.22,505.84 " fill="none" id="Arkivstruktur.Registrering&lt;-VirksomhetsspesifikkeMetadata.VirksomhetsspesifikkeMetadata" style="stroke: #A80036; stroke-width: 1.0;"/><polygon fill="#A80036" points="1343.58,387.56,1347.5444,393.5836,1354.6294,392.2408,1350.665,386.2173,1343.58,387.56" style="stroke: #A80036; stroke-width: 1.0;"/><!--MD5=[057c5b408b6a4da3b59d483d6ae35eca]
reverse link Arkivstruktur.Registrering to Sakarkiv.Arkivnotat--><path d="M1363.78,318.54 C1550.86,335.02 1825.57,372.97 2050,460 C2084.14,473.24 2118.91,497.26 2141.36,514.45 " fill="none" id="Arkivstruktur.Registrering&lt;-Sakarkiv.Arkivnotat" style="stroke: #A80036; stroke-width: 1.0;"/><polygon fill="none" points="1363.02,325.5,1343.69,316.82,1364.21,311.55,1363.02,325.5" style="stroke: #A80036; stroke-width: 1.0;"/><!--MD5=[639ab7f2aeb9e2ce2f438430a44a4e45]
reverse link Arkivstruktur.Registrering to Sakarkiv.Journalpost--><path d="M1363.39,342.35 C1491.45,367.55 1655.41,406.3 1795,460 C1832.82,474.55 1873.17,497.74 1900.01,514.38 " fill="none" id="Arkivstruktur.Registrering&lt;-Sakarkiv.Journalpost" style="stroke: #A80036; stroke-width: 1.0;"/><polygon fill="none" points="1361.85,349.19,1343.55,338.5,1364.52,335.44,1361.85,349.19" style="stroke: #A80036; stroke-width: 1.0;"/><!--MD5=[3b7807e1444b086ee20acb49dbce54ee]
reverse link Arkivstruktur.Registrering to Arkivstruktur.NasjonaleIdentifikatorer.Nasjonalidentifikator--><path d="M1356.88,310.71 C1585.86,321.35 1960.42,354.99 2265,460 C2302.19,472.82 2340.65,496.93 2365.57,514.25 " fill="none" id="Arkivstruktur.Registrering&lt;-Arkivstruktur.NasjonaleIdentifikatorer.Nasjonalidentifikator" style="stroke: #A80036; stroke-width: 1.0;"/><polygon fill="#FFFFFF" points="1343.71,310.12,1349.5237,314.3863,1355.6978,310.6607,1349.8841,306.3944,1343.71,310.12" style="stroke: #A80036; stroke-width: 1.0;"/><text fill="#000000" font-family="sans-serif" font-size="13" lengthAdjust="spacingAndGlyphs" textLength="146" x="2230.9639" y="502.6849">nasjonalidentifikator 0..*</text><!--MD5=[b7fe685ae25fa030aff82b4f317b8609]
@startuml
skinparam nodesep 100
hide circle
class Arkivstruktur.Registrering <Arkivenhet> {
  +arkivertDato : datetime [0..1] [1..1]
  +arkivertAv : string [0..1] [1..1]
  +referanseArkivertAv : SystemID [0..1] [1..1]
  +kassasjon : Kassasjon [0..1]
  +skjerming : Skjerming [0..1]
  +gradering : Gradering [0..1]
  +referanseArkivdel : SystemID [0..1] [1..1]
  +registreringsID : string [0..1] [1..1]
  +tittel : string
  +offentligTittel : string [0..1]
  +beskrivelse : string [0..1]
  +noekkelord : string [0..*]
  +forfatter : string [0..*]
  +dokumentmedium : Dokumentmedium [0..1] [1..1]
  +oppbevaringssted : string [0..*]
  +virksomhetsspesifikkeMetadata : VirksomhetsspesifikkeMetadata [0..1]
}
class Arkivstruktur.Arkivdel <Arkivenhet> {
}
Arkivstruktur.Arkivdel "arkivdel 0..1" o- -> "registrering 0..*" Arkivstruktur.Registrering
class Arkivstruktur.Arkivenhet {
}
Arkivstruktur.Arkivenhet <|- - Arkivstruktur.Registrering
class Arkivstruktur.Klasse <Arkivenhet> {
}
Arkivstruktur.Klasse "klasse 0..1" o- -> "registrering 0..*" Arkivstruktur.Registrering
class Arkivstruktur.Mappe <Arkivenhet> {
}
Arkivstruktur.Mappe "mappe 0..1" o- -> "registrering 0..*" Arkivstruktur.Registrering
class Arkivstruktur.Kryssreferanse <Arkivenhet> {
}
Arkivstruktur.Registrering "registrering 0..1" *- -> "kryssreferanse 0..*" Arkivstruktur.Kryssreferanse
class Arkivstruktur.Dokumentbeskrivelse <Arkivenhet> {
}
Arkivstruktur.Registrering "registrering 1..*" o- -> "dokumentbeskrivelse 0..*" Arkivstruktur.Dokumentbeskrivelse
class Arkivstruktur.Korrespondansepart {
}
Arkivstruktur.Registrering *- - "korrespondansepart 0..*" Arkivstruktur.Korrespondansepart
class Arkivstruktur.Merknad {
}
Arkivstruktur.Registrering *- - "merknad 0..*" Arkivstruktur.Merknad
class Arkivstruktur.Part {
}
Arkivstruktur.Registrering *- - "part 0..*" Arkivstruktur.Part
class Arkivstruktur.Gradering <<dataType>> {
}
Arkivstruktur.Registrering *- - Arkivstruktur.Gradering
class Arkivstruktur.Kassasjon <<dataType>> {
}
Arkivstruktur.Registrering *- - Arkivstruktur.Kassasjon
class Arkivstruktur.Skjerming <<dataType>> {
}
Arkivstruktur.Registrering *- - Arkivstruktur.Skjerming
class VirksomhetsspesifikkeMetadata.VirksomhetsspesifikkeMetadata <<VirksomhetsspesifikkeMetadata>> {
}
Arkivstruktur.Registrering *- - VirksomhetsspesifikkeMetadata.VirksomhetsspesifikkeMetadata
class Sakarkiv.Arkivnotat <Registrering> {
}
Arkivstruktur.Registrering <|- - Sakarkiv.Arkivnotat
class Sakarkiv.Journalpost <Registrering> {
}
Arkivstruktur.Registrering <|- - Sakarkiv.Journalpost
class Arkivstruktur.NasjonaleIdentifikatorer.Nasjonalidentifikator {
}
Arkivstruktur.Registrering o- - "nasjonalidentifikator 0..*" Arkivstruktur.NasjonaleIdentifikatorer.Nasjonalidentifikator
@enduml

PlantUML version 1.2020.02(Sun Mar 01 11:22:07 CET 2020)
(GPL source distribution)
Java Runtime: OpenJDK Runtime Environment
JVM: OpenJDK 64-Bit Server VM
Java Version: 17.0.6+10-Debian-1
Operating System: Linux
Default Encoding: UTF-8
Language: en
Country: US
--></g></svg>