<?xml version="1.0" encoding="UTF-8" standalone="no"?><svg xmlns="http://www.w3.org/2000/svg" xmlns:xlink="http://www.w3.org/1999/xlink" contentScriptType="application/ecmascript" contentStyleType="text/css" height="336px" preserveAspectRatio="none" style="width:610px;height:336px;" version="1.1" viewBox="0 0 610 336" width="610px" zoomAndPan="magnify"><defs><filter height="300%" id="f1xqmd53d9t6s4" width="300%" x="-1" y="-1"><feGaussianBlur result="blurOut" stdDeviation="2.0"/><feColorMatrix in="blurOut" result="blurOut2" type="matrix" values="0 0 0 0 0 0 0 0 0 0 0 0 0 0 0 0 0 0 .4 0"/><feOffset dx="4.0" dy="4.0" in="blurOut2" result="blurOut3"/><feBlend in="SourceGraphic" in2="blurOut3" mode="normal"/></filter></defs><g><!--MD5=[232c485b1f52e07d9ce0910f7499e2a6]
cluster Arkivstruktur--><polygon fill="#FFFFFF" filter="url(#f1xqmd53d9t6s4)" points="22,24,123,24,130,49.0679,588,49.0679,588,324,22,324,22,24" style="stroke: #000000; stroke-width: 1.5;"/><line style="stroke: #000000; stroke-width: 1.5;" x1="22" x2="130" y1="49.0679" y2="49.0679"/><text fill="#000000" font-family="sans-serif" font-size="14" font-weight="bold" lengthAdjust="spacingAndGlyphs" textLength="95" x="26" y="40.9659">Arkivstruktur</text><!--MD5=[e3d7666df93e3e02c847c049474a14c9]
class Arkivstruktur.Merknad--><rect fill="#FEFECE" filter="url(#f1xqmd53d9t6s4)" height="137.8913" id="Arkivstruktur.Merknad" style="stroke: #A80036; stroke-width: 1.5;" width="296" x="132" y="170"/><ellipse cx="250.75" cy="186" fill="#ADD1B2" rx="11" ry="11" style="stroke: #A80036; stroke-width: 1.0;"/><path d="M250.2188,192.9219 Q248.4688,192.9219 247.3281,192.1875 Q246.2031,191.4375 245.6406,190.0938 Q245.0938,188.7344 245.0938,186.9375 Q245.0938,184.9063 245.75,183.4531 Q246.4063,182 247.6875,181.2188 Q248.9688,180.4375 250.8438,180.4375 Q251.7344,180.4375 252.4063,180.625 Q253.0781,180.7969 253.7656,181.1406 L252.9531,183.1563 Q252.3281,182.8438 251.7813,182.7188 Q251.25,182.5938 250.7656,182.5938 Q249.5938,182.5938 248.8906,183.125 Q248.1875,183.6563 247.8906,184.6094 Q247.5938,185.5625 247.5938,186.8281 Q247.5938,188.8438 248.3125,189.8125 Q249.0313,190.7656 250.625,190.7656 Q251.2188,190.7656 251.8438,190.6094 Q252.4688,190.4531 253.2969,190.0781 L253.2969,192.2969 Q252.5625,192.6094 251.7656,192.7656 Q250.9844,192.9219 250.2188,192.9219 Z "/><text fill="#000000" font-family="sans-serif" font-size="12" lengthAdjust="spacingAndGlyphs" textLength="50" x="271.25" y="190.656">Merknad</text><line style="stroke: #A80036; stroke-width: 1.5;" x1="133" x2="427" y1="202" y2="202"/><text fill="#000000" font-family="sans-serif" font-size="11" lengthAdjust="spacingAndGlyphs" textLength="170" x="138" y="217.7589">+systemID : SystemID [0..1] [1..1]</text><text fill="#000000" font-family="sans-serif" font-size="11" lengthAdjust="spacingAndGlyphs" textLength="123" x="138" y="232.7408">+merknadstekst : string</text><text fill="#000000" font-family="sans-serif" font-size="11" lengthAdjust="spacingAndGlyphs" textLength="194" x="138" y="247.7227">+merknadstype : Merknadstype [0..1]</text><text fill="#000000" font-family="sans-serif" font-size="11" lengthAdjust="spacingAndGlyphs" textLength="195" x="138" y="262.7046">+merknadsdato : datetime [0..1] [1..1]</text><text fill="#000000" font-family="sans-serif" font-size="11" lengthAdjust="spacingAndGlyphs" textLength="216" x="138" y="277.6865">+merknadRegistrertAv : string [0..1] [1..1]</text><text fill="#000000" font-family="sans-serif" font-size="11" lengthAdjust="spacingAndGlyphs" textLength="284" x="138" y="292.6684">+referanseMerknadRegistrertAv : SystemID [0..1] [1..1]</text><line style="stroke: #A80036; stroke-width: 1.5;" x1="133" x2="427" y1="299.8913" y2="299.8913"/><!--MD5=[7ac5167187dc7f1acc74fcb89e1dc205]
class Arkivstruktur.Mappe--><rect fill="#FEFECE" filter="url(#f1xqmd53d9t6s4)" height="48" id="Arkivstruktur.Mappe" style="stroke: #A80036; stroke-width: 1.5;" width="132" x="422" y="62"/><ellipse cx="437" cy="78" fill="#ADD1B2" rx="11" ry="11" style="stroke: #A80036; stroke-width: 1.0;"/><path d="M436.4688,84.9219 Q434.7188,84.9219 433.5781,84.1875 Q432.4531,83.4375 431.8906,82.0938 Q431.3438,80.7344 431.3438,78.9375 Q431.3438,76.9063 432,75.4531 Q432.6563,74 433.9375,73.2188 Q435.2188,72.4375 437.0938,72.4375 Q437.9844,72.4375 438.6563,72.625 Q439.3281,72.7969 440.0156,73.1406 L439.2031,75.1563 Q438.5781,74.8438 438.0313,74.7188 Q437.5,74.5938 437.0156,74.5938 Q435.8438,74.5938 435.1406,75.125 Q434.4375,75.6563 434.1406,76.6094 Q433.8438,77.5625 433.8438,78.8281 Q433.8438,80.8438 434.5625,81.8125 Q435.2813,82.7656 436.875,82.7656 Q437.4688,82.7656 438.0938,82.6094 Q438.7188,82.4531 439.5469,82.0781 L439.5469,84.2969 Q438.8125,84.6094 438.0156,84.7656 Q437.2344,84.9219 436.4688,84.9219 Z "/><text fill="#000000" font-family="sans-serif" font-size="12" lengthAdjust="spacingAndGlyphs" textLength="39" x="451" y="82.656">Mappe</text><rect fill="#FFFFFF" height="18.3441" style="stroke: #000000; stroke-width: 1.0; stroke-dasharray: 2.0,2.0;" width="59" x="498" y="59"/><text fill="#000000" font-family="sans-serif" font-size="12" font-style="italic" lengthAdjust="spacingAndGlyphs" textLength="57" x="499" y="72.8281">Arkivenhet</text><line style="stroke: #A80036; stroke-width: 1.5;" x1="423" x2="553" y1="94" y2="94"/><line style="stroke: #A80036; stroke-width: 1.5;" x1="423" x2="553" y1="102" y2="102"/><!--MD5=[92ed2197edf38a39acf5ab443fdd08de]
class Arkivstruktur.Dokumentbeskrivelse--><rect fill="#FEFECE" filter="url(#f1xqmd53d9t6s4)" height="48" id="Arkivstruktur.Dokumentbeskrivelse" style="stroke: #A80036; stroke-width: 1.5;" width="214" x="173" y="62"/><ellipse cx="188" cy="78" fill="#ADD1B2" rx="11" ry="11" style="stroke: #A80036; stroke-width: 1.0;"/><path d="M187.4688,84.9219 Q185.7188,84.9219 184.5781,84.1875 Q183.4531,83.4375 182.8906,82.0938 Q182.3438,80.7344 182.3438,78.9375 Q182.3438,76.9063 183,75.4531 Q183.6563,74 184.9375,73.2188 Q186.2188,72.4375 188.0938,72.4375 Q188.9844,72.4375 189.6563,72.625 Q190.3281,72.7969 191.0156,73.1406 L190.2031,75.1563 Q189.5781,74.8438 189.0313,74.7188 Q188.5,74.5938 188.0156,74.5938 Q186.8438,74.5938 186.1406,75.125 Q185.4375,75.6563 185.1406,76.6094 Q184.8438,77.5625 184.8438,78.8281 Q184.8438,80.8438 185.5625,81.8125 Q186.2813,82.7656 187.875,82.7656 Q188.4688,82.7656 189.0938,82.6094 Q189.7188,82.4531 190.5469,82.0781 L190.5469,84.2969 Q189.8125,84.6094 189.0156,84.7656 Q188.2344,84.9219 187.4688,84.9219 Z "/><text fill="#000000" font-family="sans-serif" font-size="12" lengthAdjust="spacingAndGlyphs" textLength="121" x="202" y="82.656">Dokumentbeskrivelse</text><rect fill="#FFFFFF" height="18.3441" style="stroke: #000000; stroke-width: 1.0; stroke-dasharray: 2.0,2.0;" width="59" x="331" y="59"/><text fill="#000000" font-family="sans-serif" font-size="12" font-style="italic" lengthAdjust="spacingAndGlyphs" textLength="57" x="332" y="72.8281">Arkivenhet</text><line style="stroke: #A80036; stroke-width: 1.5;" x1="174" x2="386" y1="94" y2="94"/><line style="stroke: #A80036; stroke-width: 1.5;" x1="174" x2="386" y1="102" y2="102"/><!--MD5=[5eeb008ce2ba569ad4cb3c09c2ca4370]
class Arkivstruktur.Registrering--><rect fill="#FEFECE" filter="url(#f1xqmd53d9t6s4)" height="48" id="Arkivstruktur.Registrering" style="stroke: #A80036; stroke-width: 1.5;" width="100" x="38" y="62"/><ellipse cx="53" cy="78" fill="#ADD1B2" rx="11" ry="11" style="stroke: #A80036; stroke-width: 1.0;"/><path d="M52.4688,84.9219 Q50.7188,84.9219 49.5781,84.1875 Q48.4531,83.4375 47.8906,82.0938 Q47.3438,80.7344 47.3438,78.9375 Q47.3438,76.9063 48,75.4531 Q48.6563,74 49.9375,73.2188 Q51.2188,72.4375 53.0938,72.4375 Q53.9844,72.4375 54.6563,72.625 Q55.3281,72.7969 56.0156,73.1406 L55.2031,75.1563 Q54.5781,74.8438 54.0313,74.7188 Q53.5,74.5938 53.0156,74.5938 Q51.8438,74.5938 51.1406,75.125 Q50.4375,75.6563 50.1406,76.6094 Q49.8438,77.5625 49.8438,78.8281 Q49.8438,80.8438 50.5625,81.8125 Q51.2813,82.7656 52.875,82.7656 Q53.4688,82.7656 54.0938,82.6094 Q54.7188,82.4531 55.5469,82.0781 L55.5469,84.2969 Q54.8125,84.6094 54.0156,84.7656 Q53.2344,84.9219 52.4688,84.9219 Z "/><text fill="#000000" font-family="sans-serif" font-size="12" lengthAdjust="spacingAndGlyphs" textLength="68" x="67" y="82.656">Registrering</text><line style="stroke: #A80036; stroke-width: 1.5;" x1="39" x2="137" y1="94" y2="94"/><line style="stroke: #A80036; stroke-width: 1.5;" x1="39" x2="137" y1="102" y2="102"/><!--MD5=[aede87e54d32d84a655bdc13a1fefcc8]
reverse link Arkivstruktur.Mappe to Arkivstruktur.Merknad--><path d="M445.29,118 C424.55,133.07 398.74,151.8 373.73,169.96 " fill="none" id="Arkivstruktur.Mappe&lt;-Arkivstruktur.Merknad" style="stroke: #A80036; stroke-width: 1.0;"/><polygon fill="#A80036" points="455.96,110.26,448.7548,110.5523,446.2535,117.3157,453.4586,117.0234,455.96,110.26" style="stroke: #A80036; stroke-width: 1.0;"/><text fill="#000000" font-family="sans-serif" font-size="13" lengthAdjust="spacingAndGlyphs" textLength="84" x="295.388" y="158.4206">+merknad 0..*</text><!--MD5=[6097d0687047132a233d92935ace3f8b]
link Arkivstruktur.Mappe to Arkivstruktur.Mappe--><path d="M525.03,61.94 C556.26,51.48 589,59.5 589,86 C589,108.87 564.6,117.98 537.84,113.32 " fill="none" id="Arkivstruktur.Mappe-&gt;Arkivstruktur.Mappe" style="stroke: #A80036; stroke-width: 1.0;"/><polygon fill="#FFFFFF" points="525.03,110.06,529.8608,115.4138,536.6608,113.0138,531.83,107.66,525.03,110.06" style="stroke: #A80036; stroke-width: 1.0;"/><text fill="#000000" font-family="sans-serif" font-size="13" lengthAdjust="spacingAndGlyphs" textLength="108" x="412.4693" y="50.1814">+undermappe 0..*</text><text fill="#000000" font-family="sans-serif" font-size="13" lengthAdjust="spacingAndGlyphs" textLength="99" x="422.9904" y="131.9796">+overmappe 0..1</text><!--MD5=[ace26b433c886e7828572c4bcfd1e300]
reverse link Arkivstruktur.Registrering to Arkivstruktur.Merknad--><path d="M127.95,118.42 C147.01,133.41 170.61,151.97 193.48,169.96 " fill="none" id="Arkivstruktur.Registrering&lt;-Arkivstruktur.Merknad" style="stroke: #A80036; stroke-width: 1.0;"/><polygon fill="#A80036" points="117.58,110.26,119.8241,117.113,127.0131,117.6773,124.769,110.8243,117.58,110.26" style="stroke: #A80036; stroke-width: 1.0;"/><text fill="#000000" font-family="sans-serif" font-size="13" lengthAdjust="spacingAndGlyphs" textLength="84" x="95.4231" y="158.4206">+merknad 0..*</text><!--MD5=[2fcca8919f66602fe993bc75f8041cab]
reverse link Arkivstruktur.Dokumentbeskrivelse to Arkivstruktur.Merknad--><path d="M280,123.35 C280,137.37 280,153.89 280,169.96 " fill="none" id="Arkivstruktur.Dokumentbeskrivelse&lt;-Arkivstruktur.Merknad" style="stroke: #A80036; stroke-width: 1.0;"/><polygon fill="#A80036" points="280,110.26,276,116.26,280,122.26,284,116.26,280,110.26" style="stroke: #A80036; stroke-width: 1.0;"/><text fill="#000000" font-family="sans-serif" font-size="13" lengthAdjust="spacingAndGlyphs" textLength="84" x="191.4063" y="158.4206">+merknad 0..*</text><!--MD5=[6e566f509268c6461c7236e9e4ec636e]
@startuml
skinparam classAttributeIconSize 0
class Arkivstruktur.Merknad {
  +systemID : SystemID [0..1] [1..1]
  +merknadstekst : string
  +merknadstype : Merknadstype [0..1]
  +merknadsdato : datetime [0..1] [1..1]
  +merknadRegistrertAv : string [0..1] [1..1]
  +referanseMerknadRegistrertAv : SystemID [0..1] [1..1]
}
class Arkivstruktur.Mappe <Arkivenhet>
class Arkivstruktur.Dokumentbeskrivelse <Arkivenhet>
Arkivstruktur.Mappe *- - "+merknad 0..*" Arkivstruktur.Merknad
Arkivstruktur.Mappe "+undermappe 0..*" - -o "+overmappe 0..1" Arkivstruktur.Mappe
Arkivstruktur.Registrering *- - "+merknad 0..*" Arkivstruktur.Merknad
Arkivstruktur.Dokumentbeskrivelse *- - "+merknad 0..*" Arkivstruktur.Merknad
@enduml

PlantUML version 1.2020.02(Sun Mar 01 11:22:07 CET 2020)
(GPL source distribution)
Java Runtime: OpenJDK Runtime Environment
JVM: OpenJDK 64-Bit Server VM
Java Version: 17.0.6+10-Debian-1
Operating System: Linux
Default Encoding: UTF-8
Language: en
Country: US
--></g></svg>